<svg xmlns="http://www.w3.org/2000/svg" width="79" height="111" fill="none" viewBox="0 0 79 111">
  <g class="ace_heart">
    <rect width="74.81" height="104.734" y=".359" fill="#fff" rx="3.62"/>
    <rect width="78.991" height="110.588" y=".359" fill="#fff" class="bg" rx="3.62"/>
    <g class="down">
      <g class="letter">
        <path fill="#222" d="M66.73 88.566v-.628h1.598v.628c0 1.074-.405 2.873-1.228 5.408l-1.657 5.155h-1.8l-1.657-5.155c-.822-2.535-1.228-4.334-1.228-5.408v-.628h1.598v.628c0 .507.095 1.17.274 1.992h3.839c.166-.833.262-1.497.262-1.992zm-2.193 8.57l1.192-3.862a32.3 32.3 0 00.477-1.654h-3.338c.131.507.286 1.062.477 1.654l1.192 3.863z" class="Vector"/>
      </g>
      <g class="symbol">
        <path fill="#F24E1E" d="M67.52 79.887c.708.863.875 2.068.1 2.856-.838.853-2.114.606-2.888-.181-.774.787-2.05 1.034-2.888.181-.776-.788-.608-1.993.099-2.856.763-.932 1.809-1.733 2.789-2.427.98.694 2.025 1.495 2.789 2.427z" class="♥ hearts"/>
      </g>
    </g>
    <g class="up">
      <g class="letter_2">
        <path fill="#222" d="M8.18 16.846v.628H6.583v-.628c0-1.074.405-2.873 1.227-5.408l1.658-5.154h1.8l1.657 5.154c.822 2.535 1.228 4.334 1.228 5.408v.628h-1.598v-.628c0-.507-.095-1.17-.274-1.992H8.442c-.167.833-.262 1.497-.262 1.992zm2.194-8.57L9.18 12.137c-.19.604-.345 1.147-.476 1.654h3.338a29.12 29.12 0 00-.477-1.654l-1.193-3.863z" class="Vector_2"/>
      </g>
      <g class="symbol_2">
        <path fill="#F24E1E" d="M7.39 25.525c-.707-.863-.875-2.067-.099-2.856.838-.853 2.114-.606 2.888.182.774-.788 2.05-1.035 2.888-.182.776.789.608 1.993-.099 2.856-.764.932-1.809 1.733-2.789 2.428-.98-.695-2.025-1.496-2.789-2.428z" class="♥ hearts_2"/>
      </g>
    </g>
    <g class="symbol_3">
      <g class="♥ hearts_3">
        <g class="fill">
          <path fill="#F24E1E" d="M50.602 45.865c-2.56-2.599-6.182-2.535-9.056-.885a2.115 2.115 0 11-4.101 0c-2.873-1.65-6.495-1.714-9.055.885-1.317 1.337-1.927 2.984-1.963 4.693a2.116 2.116 0 01.781 3.734c.391.893.919 1.751 1.563 2.536 2.633 3.21 6.139 6.013 9.553 8.48a2.105 2.105 0 011.17-.353c.434 0 .837.13 1.172.354 3.415-2.468 6.92-5.271 9.554-8.48a10.9 10.9 0 001.563-2.537 2.116 2.116 0 01.782-3.734c-.037-1.709-.647-3.356-1.964-4.693z"/>
          <path fill="#F24E1E" d="M38.913 46.264a.965.965 0 01-.379-.765.961.961 0 11.379.765zM39.495 66.108a.961.961 0 110 1.923.961.961 0 010-1.923zM52.224 53.072a.96.96 0 01.844-1.421.961.961 0 11-.844 1.421zM25.923 53.574a.961.961 0 100-1.923.961.961 0 000 1.923z"/>
        </g>
        <path fill="#fff" fill-rule="evenodd" d="M54.106 50.77c.02-2.132-.695-4.245-2.41-5.987-3.23-3.28-7.678-3.04-11.044-1.055a2.105 2.105 0 00-1.156-.344c-.427 0-.824.127-1.156.344-3.367-1.986-7.814-2.224-11.045 1.055-1.715 1.742-2.43 3.855-2.41 5.986a2.114 2.114 0 00.84 3.949 12.387 12.387 0 001.858 3.088c2.763 3.367 6.406 6.27 9.857 8.763a2.116 2.116 0 104.11 0c3.451-2.492 7.095-5.395 9.858-8.763a12.387 12.387 0 001.858-3.088 2.115 2.115 0 00.84-3.949zm-12.56-5.79c2.873-1.65 6.495-1.714 9.056.885a6.73 6.73 0 011.949 4.373c.007.107.011.213.013.32a2.116 2.116 0 00-.781 3.734c-.39.893-.919 1.752-1.563 2.536-2.633 3.21-6.14 6.013-9.553 8.48a2.105 2.105 0 00-1.172-.353c-.433 0-.836.13-1.17.353-3.415-2.467-6.92-5.27-9.554-8.48a11.185 11.185 0 01-.827-1.148 10.627 10.627 0 01-.736-1.388 2.111 2.111 0 00.708-2.388 2.119 2.119 0 00-1.49-1.346c.037-1.709.647-3.356 1.964-4.693 2.56-2.599 6.182-2.535 9.055-.885a2.116 2.116 0 104.101 0zm-2.633 1.284a.962.962 0 111.166-1.53.962.962 0 01-1.166 1.53zm.633 19.846a.961.961 0 10-.103 1.92.961.961 0 00.103-1.92zm12.678-13.038a.96.96 0 01.844-1.421.961.961 0 11-.844 1.421zm-25.34-.46a.961.961 0 11-1.923 0 .961.961 0 011.923 0z" class="stroke" clip-rule="evenodd"/>
        <g class="stroke 2">
          <path fill="#F24E1E" d="M26.427 50.558zM37.445 44.98z"/>
          <path fill="#F24E1E" fill-rule="evenodd" d="M23.04 52.612a2.88 2.88 0 011.08-2.251c.072-2.178.868-4.332 2.627-6.117 3.422-3.474 8.067-3.307 11.604-1.393a2.875 2.875 0 012.289 0c3.538-1.914 8.182-2.08 11.604 1.393 1.76 1.785 2.556 3.94 2.626 6.117a2.885 2.885 0 01-1.063 5.04 13.19 13.19 0 01-1.804 2.893c-2.727 3.323-6.273 6.184-9.628 8.627.002.05.004.099.004.149a2.884 2.884 0 11-5.764-.15c-3.355-2.443-6.9-5.304-9.626-8.626a13.19 13.19 0 01-1.805-2.893 2.885 2.885 0 01-2.145-2.789zm4.255-7.829c-1.615 1.64-2.343 3.61-2.406 5.614a9.262 9.262 0 00-.004.372 2.113 2.113 0 00-1.077 1.843 2.116 2.116 0 001.918 2.106 12.413 12.413 0 001.858 3.088c2.762 3.367 6.405 6.27 9.856 8.763a2.116 2.116 0 002.055 2.615 2.115 2.115 0 002.055-2.614c3.451-2.493 7.095-5.396 9.858-8.764a12.415 12.415 0 001.858-3.088 2.116 2.116 0 00.84-3.949c.001-.124 0-.248-.004-.372-.063-2.005-.79-3.974-2.406-5.614-3.23-3.28-7.678-3.04-11.044-1.055a2.105 2.105 0 00-1.156-.344c-.427 0-.824.127-1.156.344-3.367-1.986-7.814-2.224-11.045 1.055z" clip-rule="evenodd"/>
        </g>
      </g>
    </g>
  </g>
</svg>
