<svg xmlns="http://www.w3.org/2000/svg" width="79" height="112" fill="none" viewBox="0 0 79 112">
  <g class="ace_spades">
    <rect width="74.81" height="104.734" y=".422" fill="#fff" rx="3.62"/>
    <rect width="78.991" height="110.588" y=".422" fill="#fff" class="bg" rx="3.62"/>
    <g class="down">
      <g class="letter">
        <path fill="#222" d="M66.73 88.628v-.627h1.598v.627c0 1.075-.405 2.873-1.228 5.409l-1.657 5.154h-1.8l-1.657-5.154c-.822-2.536-1.228-4.334-1.228-5.409v-.627h1.598v.627c0 .507.095 1.171.274 1.992h3.839c.166-.833.262-1.497.262-1.992zM64.538 97.2l1.192-3.863a32.3 32.3 0 00.477-1.653h-3.338c.131.506.286 1.062.477 1.653l1.192 3.863z" class="Vector"/>
      </g>
      <g class="symbol">
        <path fill="#2C2C2C" d="M67.52 80.912c.708-.863.875-2.068.1-2.857-.839-.852-2.114-.605-2.888.182-.774-.787-2.05-1.034-2.888-.181-.776.788-.608 1.993.099 2.856.763.932 1.809 1.733 2.789 2.427.98-.694 2.025-1.495 2.789-2.427z" class="â spades"/>
      </g>
    </g>
    <g class="up">
      <g class="letter_2">
        <path fill="#222" d="M8.18 16.909v.627H6.583v-.627c0-1.075.405-2.873 1.227-5.408l1.658-5.155h1.8l1.657 5.155c.822 2.535 1.228 4.333 1.228 5.408v.627h-1.598v-.627c0-.507-.095-1.171-.274-1.992H8.442c-.167.833-.262 1.497-.262 1.992zm2.194-8.571L9.18 12.2c-.19.603-.345 1.147-.476 1.654h3.338a29.117 29.117 0 00-.477-1.654l-1.193-3.863z" class="Vector_2"/>
      </g>
      <g class="symbol_2">
        <path fill="#2C2C2C" d="M7.39 24.625c-.707.863-.875 2.068-.099 2.857.838.852 2.114.605 2.888-.182.774.787 2.05 1.034 2.888.182.776-.79.608-1.994-.099-2.857-.764-.932-1.809-1.733-2.789-2.427-.98.694-2.025 1.495-2.789 2.427z" class="â spades_2"/>
      </g>
    </g>
    <g class="symbol_3">
      <g class="â spades_3">
        <g class="fill">
          <path fill="#2C2C2C" d="M28.77 54.54c2.634-3.208 6.14-6.012 9.554-8.48.335.224.738.354 1.17.354.434 0 .837-.13 1.172-.354 3.415 2.468 6.92 5.271 9.554 8.48a10.9 10.9 0 011.563 2.537 2.115 2.115 0 00.782 3.734c-.037 1.709-.647 3.356-1.964 4.693-2.56 2.599-6.181 2.535-9.055.885a2.115 2.115 0 10-4.101 0c-2.873 1.65-6.495 1.714-9.055-.885-1.317-1.337-1.927-2.984-1.963-4.693a2.116 2.116 0 00.781-3.734c.391-.893.919-1.751 1.563-2.536z"/>
          <path fill="#2C2C2C" d="M38.534 65.87a.96.96 0 01.962-.961.961.961 0 11-.962.961zM39.445 45.26a.961.961 0 11.101 0M26.505 59.522a.965.965 0 00.38-.765.961.961 0 10-.38.765zM52.224 58.297a.956.956 0 00-.117.46.96.96 0 00.961.96.961.961 0 10-.844-1.42z"/>
        </g>
        <path fill="#fff" fill-rule="evenodd" d="M54.106 60.6c.02 2.131-.695 4.244-2.41 5.986-3.23 3.28-7.678 3.04-11.044 1.055-.333.217-.73.344-1.156.344-.427 0-.824-.127-1.156-.344-3.367 1.986-7.814 2.224-11.045-1.055-1.715-1.742-2.43-3.855-2.41-5.986a2.114 2.114 0 01.84-3.95 12.388 12.388 0 011.858-3.087c2.763-3.367 6.406-6.27 9.857-8.763a2.116 2.116 0 114.17-.5c0 .172-.021.339-.06.5 3.451 2.492 7.095 5.395 9.858 8.763a12.388 12.388 0 011.858 3.088 2.115 2.115 0 01.84 3.949zm-25.335-6.06c2.633-3.208 6.139-6.012 9.553-8.48.335.224.738.354 1.17.354.434 0 .837-.13 1.172-.354 3.415 2.468 6.92 5.271 9.554 8.48.08.099.16.198.236.298a10.83 10.83 0 011.327 2.24 2.11 2.11 0 00-.821 1.864 2.116 2.116 0 001.602 1.869 7.552 7.552 0 01-.013.32 6.73 6.73 0 01-1.95 4.373c-.32.325-.656.608-1.006.852-1.843 1.285-4.05 1.472-6.1.87a9.04 9.04 0 01-1.949-.837 2.063 2.063 0 00.064-.519 2.115 2.115 0 10-4.165.52c-2.873 1.65-6.495 1.713-9.055-.886-1.317-1.337-1.927-2.984-1.963-4.693a2.126 2.126 0 001.332-1.004 2.111 2.111 0 00-.55-2.73 10.9 10.9 0 011.562-2.536zm9.763 11.33a.96.96 0 111.922-.002.96.96 0 01-1.922.002zm0-21.57c0 .513.403.933.911.96h.101a.961.961 0 10-1.012-.96zM26.505 59.521a.967.967 0 00.38-.765.961.961 0 10-.38.765zm25.603-.797a.961.961 0 111.92.062.961.961 0 01-1.92-.062z" class="stroke" clip-rule="evenodd"/>
        <path fill="#2C2C2C" fill-rule="evenodd" d="M52.003 53.075c-2.727-3.323-6.273-6.184-9.628-8.627.002-.05.004-.099.004-.149a2.884 2.884 0 10-5.764.15c-3.355 2.443-6.9 5.304-9.626 8.626a13.187 13.187 0 00-1.805 2.894 2.885 2.885 0 00-1.063 5.04c.07 2.177.867 4.33 2.626 6.116 3.422 3.474 8.067 3.307 11.604 1.393a2.877 2.877 0 002.289 0c3.538 1.914 8.182 2.08 11.604-1.393 1.76-1.785 2.556-3.94 2.626-6.117a2.885 2.885 0 00-1.063-5.04 13.187 13.187 0 00-1.804-2.893zm1.263 3.576a12.415 12.415 0 00-1.858-3.088c-2.763-3.368-6.407-6.27-9.858-8.764a2.119 2.119 0 00-2.055-2.614A2.115 2.115 0 0037.44 44.8c-3.45 2.493-7.094 5.396-9.857 8.763a12.415 12.415 0 00-1.857 3.088 2.115 2.115 0 00-.84 3.949c-.002.124 0 .248.003.373.063 2.004.79 3.973 2.406 5.613 3.231 3.28 7.678 3.04 11.045 1.055.332.218.729.344 1.156.344.426 0 .823-.126 1.156-.344 3.366 1.986 7.813 2.224 11.044-1.055 1.615-1.64 2.343-3.61 2.406-5.613.004-.125.005-.249.004-.373a2.112 2.112 0 001.077-1.843 2.115 2.115 0 00-1.917-2.106z" class="stroke 2" clip-rule="evenodd"/>
      </g>
    </g>
  </g>
</svg>
