<svg xmlns="http://www.w3.org/2000/svg" width="79" height="111" fill="none" viewBox="0 0 79 111">
  <g class="ace_diamond">
    <rect width="78.991" height="110.588" fill="#fff" class="bg" rx="3.62"/>
    <g class="down">
      <g class="letter">
        <path fill="#222" d="M66.73 88.207v-.628h1.598v.628c0 1.074-.405 2.873-1.228 5.408l-1.657 5.154h-1.8l-1.657-5.154c-.822-2.535-1.228-4.334-1.228-5.408v-.628h1.598v.628c0 .507.095 1.17.274 1.992h3.839c.166-.834.262-1.497.262-1.992zm-2.193 8.57l1.192-3.862a32.3 32.3 0 00.477-1.654h-3.338c.131.507.286 1.062.477 1.654l1.192 3.863z" class="Vector"/>
      </g>
      <g class="symbol">
        <path fill="#F24E1E" d="M64.717 77.15l2.472 2.88-2.472 2.888-2.472-2.888 2.472-2.88z" class="♦ diamonds"/>
      </g>
    </g>
    <g class="up">
      <g class="letter_2">
        <path fill="#222" d="M8.18 16.487v.628H6.583v-.628c0-1.074.405-2.873 1.227-5.408l1.658-5.155h1.8l1.657 5.155c.822 2.535 1.228 4.334 1.228 5.408v.628h-1.598v-.628c0-.507-.095-1.171-.274-1.992H8.442c-.167.833-.262 1.497-.262 1.992zm2.194-8.57L9.18 11.778c-.19.604-.345 1.147-.476 1.654h3.338a29.12 29.12 0 00-.477-1.654l-1.193-3.863z" class="Vector_2"/>
      </g>
      <g class="symbol_2">
        <path fill="#F24E1E" d="M10.194 27.544l-2.473-2.88 2.473-2.889 2.472 2.889-2.472 2.88z" class="♦ diamonds_2"/>
      </g>
    </g>
    <g class="symbol_3">
      <g class="♦ diamonds_3">
        <path fill="#F24E1E" d="M38.37 65.005L31.498 57c.498-.387.818-.991.818-1.67a2.11 2.11 0 00-.763-1.627l6.821-7.97c.35.256.78.407 1.247.407.467 0 .898-.151 1.248-.407l6.822 7.97a2.11 2.11 0 00-.764 1.626c0 .68.32 1.284.818 1.671l-6.872 8.006a2.106 2.106 0 00-1.252-.41c-.468 0-.9.152-1.251.41z" class="fill"/>
        <path fill="#fff" fill-rule="evenodd" d="M29.932 53.232l7.6-8.88a2.115 2.115 0 012.09-2.442 2.115 2.115 0 012.089 2.441l7.601 8.88a2.115 2.115 0 011.844 2.155v.001a2.115 2.115 0 01-1.736 2.023l-7.708 8.98a2.115 2.115 0 01-2.09 2.435h-.001a2.115 2.115 0 01-2.09-2.436l-7.707-8.979a2.116 2.116 0 01-1.736-2.022l-.001-.001v-.058c0-1.076.804-1.965 1.845-2.097zm8.438 11.773L31.498 57c.498-.387.818-.991.818-1.67a2.11 2.11 0 00-.763-1.627l6.821-7.97c.35.256.78.407 1.247.407.467 0 .898-.151 1.248-.407l6.822 7.97a2.11 2.11 0 00-.764 1.626c0 .68.32 1.284.818 1.671l-6.872 8.006a2.105 2.105 0 00-1.252-.41c-.468 0-.9.152-1.251.41zm1.251-20.019a.96.96 0 11-.001-1.922.96.96 0 01.001 1.922zm-.495 20.9a.961.961 0 10.99 1.648.961.961 0 00-.99-1.648zM31.163 55.33a.96.96 0 11-1.92.002.96.96 0 011.92-.002zm17.336.793a.96.96 0 111.085-1.584.96.96 0 01-1.085 1.584z" class="stroke" clip-rule="evenodd"/>
        <path fill="#F24E1E" fill-rule="evenodd" d="M27.318 55.33a2.397 2.397 0 00.002.118 2.885 2.885 0 002.083 2.653l7.335 8.545v.064a2.884 2.884 0 002.883 2.884h.001a2.884 2.884 0 002.882-2.946l7.337-8.547a2.885 2.885 0 00-.12-5.575l-7.217-8.43v-.07a2.884 2.884 0 00-2.882-2.885h-.001a2.884 2.884 0 00-2.883 2.956l-7.215 8.429a2.884 2.884 0 00-2.205 2.803zm.77.058l-.001-.001v-.058c0-1.076.804-1.965 1.845-2.097l7.6-8.88a2.115 2.115 0 012.09-2.442 2.115 2.115 0 012.089 2.441l7.6 8.88a2.115 2.115 0 011.845 2.155v.001a2.115 2.115 0 01-1.736 2.023l-7.708 8.98a2.115 2.115 0 01-2.09 2.435h-.001a2.115 2.115 0 01-2.09-2.436l-7.707-8.979a2.115 2.115 0 01-1.736-2.022z" class="stroke 2" clip-rule="evenodd"/>
        <g class="dots">
          <path fill="#F24E1E" d="M39.621 43.064a.961.961 0 110 1.922.961.961 0 010-1.922zM30.201 54.368a.961.961 0 110 1.923.961.961 0 010-1.923zM49.042 54.368a.961.961 0 110 1.923.961.961 0 010-1.923zM40.582 66.71a.961.961 0 11-1.922 0 .961.961 0 011.922 0z"/>
        </g>
      </g>
    </g>
  </g>
</svg>
