<svg xmlns="http://www.w3.org/2000/svg" width="79" height="112" fill="none" viewBox="0 0 79 112">
  <g class="ace_clubs">
    <rect width="74.81" height="104.734" y=".938" fill="#fff" rx="3.62"/>
    <rect width="78.991" height="110.588" y=".938" fill="#fff" class="bg" rx="3.62"/>
    <g class="down">
      <g class="letter">
        <path fill="#222" d="M66.73 89.144v-.628h1.598v.628c0 1.075-.405 2.873-1.228 5.408l-1.657 5.155h-1.8l-1.657-5.155c-.822-2.535-1.228-4.333-1.228-5.408v-.628h1.598v.628c0 .507.095 1.171.274 1.992h3.839c.166-.833.262-1.497.262-1.992zm-2.193 8.571l1.192-3.863c.191-.603.346-1.147.477-1.654h-3.338c.131.507.286 1.063.477 1.654l1.192 3.863z" class="Vector"/>
      </g>
      <g class="symbol">
        <path fill="#2C2C2C" d="M63.018 81.826l.125-.47-.484-.032a1.75 1.75 0 111.69-2.517l.36.728.358-.728a1.75 1.75 0 111.692 2.517l-.485.033.125.469a1.752 1.752 0 01-1.69 2.201 1.75 1.75 0 01-1.691-2.201z" class="♣ club"/>
      </g>
    </g>
    <g class="up">
      <g class="letter_2">
        <path fill="#222" d="M8.18 17.424v.628H6.583v-.628c0-1.074.405-2.872 1.227-5.408l1.658-5.154h1.8l1.657 5.154c.822 2.536 1.228 4.334 1.228 5.408v.628h-1.598v-.628c0-.506-.095-1.17-.274-1.991H8.442c-.167.833-.262 1.497-.262 1.991zm2.194-8.57L9.18 12.717c-.19.603-.345 1.146-.476 1.653h3.338a29.117 29.117 0 00-.477-1.653l-1.193-3.863z" class="Vector_2"/>
      </g>
      <g class="symbol_2">
        <path fill="#2C2C2C" d="M11.893 24.743l-.125.469.484.033a1.75 1.75 0 11-1.691 2.517l-.359-.729-.359.729a1.75 1.75 0 11-1.69-2.517l.483-.033-.124-.47a1.752 1.752 0 011.69-2.2 1.75 1.75 0 011.69 2.2z" class="♣ club_2"/>
      </g>
    </g>
    <g class="symbol_3">
      <g class="♣ clubs">
        <g class="fill">
          <path fill="#2C2C2C" d="M48.338 54.918a2.114 2.114 0 11-2.147-3.128 6.729 6.729 0 10-13.39 0 2.115 2.115 0 11-2.148 3.128 6.729 6.729 0 107.268 9.913 2.115 2.115 0 113.15 0 6.729 6.729 0 107.268-9.913z"/>
          <path fill="#2C2C2C" d="M46.493 54.844a.957.957 0 01-.96-.961.96.96 0 01.96-.961.961.961 0 010 1.922zM40.457 63.419a.962.962 0 11-1.923 0 .962.962 0 011.923 0zM32.498 54.844a.958.958 0 01-.961-.961.961.961 0 11.96.961z"/>
        </g>
        <path fill="#fff" fill-rule="evenodd" d="M38.559 66.625c.274-.346.52-.714.737-1.101a2.133 2.133 0 00.4 0 8.252 8.252 0 007.22 4.239 8.267 8.267 0 001.635-16.372 2.117 2.117 0 00-.852-1.246 8.275 8.275 0 00.063-1.03 8.267 8.267 0 10-16.47 1.03c-.42.292-.73.733-.851 1.246a8.27 8.27 0 00-6.633 8.105 8.267 8.267 0 0014.75 5.129zm7.934-11.78a.957.957 0 01-.875-.565.958.958 0 01.313-1.177.961.961 0 11.562 1.741zm-2.114-.962c0-1.065.787-1.947 1.812-2.093a6.729 6.729 0 10-13.39 0 2.115 2.115 0 11-2.148 3.128 6.729 6.729 0 107.268 9.913 2.115 2.115 0 113.15 0 6.729 6.729 0 107.268-9.913 2.114 2.114 0 01-3.96-1.035zm-3.922 9.535a.962.962 0 11-1.923 0 .962.962 0 011.923 0zm-8.373-8.667a.958.958 0 00.94-.064.965.965 0 00.435-.804.96.96 0 10-1.923 0c0 .383.224.713.548.868z" class="stroke" clip-rule="evenodd"/>
        <path fill="#2C2C2C" fill-rule="evenodd" d="M39.162 67.102c.115-.146.227-.296.334-.45a9.021 9.021 0 007.42 3.88 9.036 9.036 0 002.224-17.796 2.887 2.887 0 00-.636-.92l.003-.035a9.036 9.036 0 10-18.023 0l.003.035c-.267.26-.485.572-.636.92l-.063.016a9.039 9.039 0 00-6.749 8.744 9.036 9.036 0 0016.123 5.606zm1.27-.477a8.301 8.301 0 01-.736-1.101 2.135 2.135 0 01-.4 0 8.373 8.373 0 01-.737 1.1A8.267 8.267 0 1130.44 53.39c.122-.512.431-.953.851-1.245a8.275 8.275 0 01-.063-1.03 8.267 8.267 0 1116.47 1.03c.42.292.73.733.852 1.246a8.27 8.27 0 016.633 8.105 8.267 8.267 0 01-14.752 5.129z" class="stroke 2" clip-rule="evenodd"/>
      </g>
    </g>
  </g>
</svg>
