<svg xmlns="http://www.w3.org/2000/svg" width="80" height="112" fill="none" viewBox="0 0 80 112">
  <g class="eigth_spades">
    <rect width="74.81" height="104.734" x=".205" y=".422" fill="#fff" rx="3.62"/>
    <rect width="78.991" height="110.588" x=".205" y=".422" fill="#fff" class="bg" rx="3.62"/>
    <g class="down">
      <g class="letter">
        <path fill="#222" d="M66.611 87.927c-1.492 0-2.738.367-3.722 1.119-.983.751-1.475 1.754-1.475 3.007 0 1.904 1.13 3.357 3.377 4.36-1.902 1.035-2.853 2.254-2.853 3.674 0 1.119.443 2.021 1.345 2.69.902.668 2 1.018 3.328 1.018 1.345 0 2.46-.334 3.361-1.018.902-.685 1.345-1.587 1.345-2.69 0-1.403-.951-2.622-2.853-3.675 2.246-1.002 3.378-2.455 3.378-4.36 0-1.269-.492-2.271-1.476-3.006-.984-.735-2.23-1.12-3.755-1.12zm0 7.516c-2-.768-3-1.887-3-3.374 0-.935.279-1.587.836-1.987.557-.385 1.279-.585 2.164-.585.902 0 1.64.2 2.197.585.558.384.837 1.052.837 1.987 0 1.47-1.017 2.606-3.034 3.374zm0 6.799c-.721 0-1.312-.184-1.787-.551-.46-.368-.689-.902-.689-1.604 0-1.136.82-2.105 2.476-2.89 1.673.802 2.492 1.754 2.492 2.89 0 .702-.23 1.236-.688 1.604-.46.367-1.05.551-1.804.551z" class="Vector"/>
      </g>
      <g class="symbol">
        <path fill="#2C2C2C" d="M67.726 80.912c.707-.863.875-2.068.1-2.857-.84-.852-2.115-.605-2.889.182-.774-.787-2.05-1.034-2.888-.181-.776.788-.608 1.993.1 2.856.763.932 1.808 1.733 2.788 2.427.98-.694 2.026-1.495 2.789-2.427z" class="â spades"/>
      </g>
    </g>
    <g class="up">
      <g class="letter_2">
        <path fill="#222" d="M9.937 19.918c-1.492 0-2.738-.368-3.722-1.12-.984-.751-1.476-1.753-1.476-3.006 0-1.905 1.132-3.358 3.378-4.36-1.902-1.036-2.853-2.255-2.853-3.675 0-1.119.443-2.021 1.345-2.69.901-.667 2-1.018 3.328-1.018 1.345 0 2.46.334 3.361 1.019.902.685 1.345 1.587 1.345 2.69 0 1.402-.951 2.622-2.853 3.674 2.246 1.002 3.377 2.455 3.377 4.36 0 1.27-.491 2.272-1.475 3.007-.984.735-2.23 1.119-3.755 1.119zm0-7.517c-2 .768-3 1.888-3 3.374 0 .935.278 1.587.836 1.988.557.384 1.279.584 2.164.584.902 0 1.64-.2 2.197-.584.558-.384.836-1.053.836-1.988 0-1.47-1.016-2.606-3.033-3.374zm0-6.799c-.721 0-1.312.184-1.787.552-.46.367-.689.902-.689 1.603 0 1.136.82 2.105 2.476 2.89 1.672-.802 2.492-1.754 2.492-2.89 0-.701-.23-1.236-.688-1.603-.46-.368-1.05-.552-1.804-.552z" class="Vector_2"/>
      </g>
      <g class="symbol_2">
        <path fill="#2C2C2C" d="M7.596 24.625c-.708.863-.875 2.068-.1 2.857.839.852 2.114.605 2.888-.182.775.787 2.05 1.034 2.889.182.775-.79.607-1.994-.1-2.857-.763-.932-1.809-1.733-2.789-2.427-.98.694-2.025 1.495-2.788 2.427z" class="â spades_2"/>
      </g>
    </g>
    <g class="icons">
      <g class="symbol_3">
        <g class="â spades_3">
          <g class="fill">
            <path fill="#2C2C2C" d="M33.013 67.44c1.582 1.926 3.687 3.61 5.737 5.091a1.265 1.265 0 011.406 0c2.05-1.481 4.156-3.165 5.737-5.092.387-.471.704-.987.938-1.523a1.27 1.27 0 01.47-2.242 4.057 4.057 0 00-1.18-2.818c-1.537-1.56-3.711-1.523-5.437-.532a1.272 1.272 0 01-1.23 1.582 1.27 1.27 0 01-1.232-1.582c-1.726-.99-3.9-1.029-5.438.532a4.057 4.057 0 00-1.178 2.818 1.27 1.27 0 01.469 2.242c.235.536.551 1.052.938 1.523z"/>
            <path fill="#2C2C2C" d="M38.876 60.636a.58.58 0 00.577.577.577.577 0 10-.577-.577zM39.423 73.012a.577.577 0 10.06 0M31.653 64.448a.58.58 0 01.227.46.577.577 0 11-.227-.46zM47.096 65.183a.574.574 0 01.158-.735.577.577 0 11-.157.735z"/>
          </g>
          <path fill="#fff" fill-rule="evenodd" d="M48.226 63.8c.012-1.28-.417-2.548-1.447-3.594-1.94-1.969-4.61-1.826-6.632-.633a1.264 1.264 0 00-1.388 0c-2.021-1.193-4.692-1.336-6.632.633-1.03 1.046-1.46 2.315-1.447 3.595a1.27 1.27 0 00.505 2.37 7.438 7.438 0 001.115 1.855c1.66 2.022 3.847 3.765 5.919 5.262a1.27 1.27 0 102.468 0c2.072-1.496 4.26-3.24 5.92-5.262a7.438 7.438 0 001.115-1.854 1.27 1.27 0 00.504-2.371zm-15.213 3.64c1.582 1.926 3.687 3.61 5.737 5.091a1.263 1.263 0 011.406 0c2.05-1.481 4.156-3.165 5.737-5.092a6.693 6.693 0 00.938-1.523 1.266 1.266 0 01-.493-1.12 1.27 1.27 0 01.963-1.122 4.041 4.041 0 00-1.179-2.818 4.294 4.294 0 00-.604-.512c-1.107-.771-2.432-.884-3.664-.522a5.424 5.424 0 00-1.17.502 1.183 1.183 0 01.039.312 1.27 1.27 0 11-2.501-.312c-1.726-.99-3.9-1.029-5.438.532a4.057 4.057 0 00-1.178 2.818 1.264 1.264 0 01.8.603 1.268 1.268 0 01-.33 1.64l-.001-.001c.235.536.551 1.052.938 1.523zm5.863-6.804a.58.58 0 00.424.557.58.58 0 00.73-.557.577.577 0 10-1.154 0zm0 12.953c0-.309.242-.561.547-.577h.06a.577.577 0 11-.607.577zm-7.223-9.14a.58.58 0 01.227.459.577.577 0 11-.227-.46zm15.373.477a.574.574 0 00.577.559.577.577 0 10-.577-.559z" class="stroke" clip-rule="evenodd"/>
          <path fill="#2C2C2C" fill-rule="evenodd" d="M46.963 68.32c-1.637 1.994-3.766 3.713-5.781 5.18a1.732 1.732 0 11-3.459 0c-2.014-1.468-4.143-3.186-5.78-5.18a7.921 7.921 0 01-1.084-1.738 1.732 1.732 0 01-.638-3.026c.043-1.308.52-2.601 1.577-3.674 2.055-2.085 4.844-1.985 6.968-.836a1.728 1.728 0 011.374 0c2.124-1.15 4.913-1.25 6.968.836a5.385 5.385 0 011.577 3.674 1.732 1.732 0 01-.638 3.026 7.918 7.918 0 01-1.084 1.737zm.759-2.148a7.457 7.457 0 01-1.115 1.855c-1.66 2.021-3.848 3.764-5.92 5.261a1.27 1.27 0 11-2.468 0c-2.072-1.497-4.26-3.24-5.919-5.262a7.457 7.457 0 01-1.115-1.854 1.27 1.27 0 01-.505-2.371c0-.075 0-.15.002-.224a4.924 4.924 0 011.445-3.37c1.94-1.97 4.61-1.827 6.632-.634a1.264 1.264 0 011.388 0c2.022-1.193 4.692-1.336 6.632.633a4.925 4.925 0 011.447 3.595 1.268 1.268 0 01-.505 2.371z" class="stroke 2" clip-rule="evenodd"/>
        </g>
      </g>
      <g class="symbol_4">
        <g class="â spades_4">
          <g class="fill_2">
            <path fill="#2C2C2C" d="M32.618 35.557c1.581-1.926 3.686-3.61 5.736-5.092a1.264 1.264 0 001.407 0c2.05 1.482 4.155 3.165 5.737 5.092.387.472.703.987.938 1.524a1.27 1.27 0 00.47 2.242 4.057 4.057 0 01-1.18 2.818c-1.537 1.56-3.712 1.522-5.437.531a1.272 1.272 0 00-1.231-1.581 1.27 1.27 0 00-1.231 1.581c-1.726.991-3.9 1.03-5.438-.531a4.057 4.057 0 01-1.179-2.818 1.27 1.27 0 00.47-2.242 6.546 6.546 0 01.938-1.524z"/>
            <path fill="#2C2C2C" d="M38.48 42.36a.58.58 0 01.578-.577.577.577 0 11-.577.577zM39.027 29.984a.577.577 0 11.061 0M31.257 38.548a.58.58 0 00.228-.459.577.577 0 10-.228.46zM46.7 37.813a.574.574 0 00.158.735.577.577 0 10-.157-.735z"/>
          </g>
          <path fill="#fff" fill-rule="evenodd" d="M47.831 39.196c.012 1.28-.417 2.549-1.447 3.594-1.94 1.97-4.61 1.826-6.632.634a1.264 1.264 0 01-1.388 0c-2.022 1.192-4.692 1.335-6.632-.634-1.03-1.045-1.46-2.314-1.447-3.594a1.27 1.27 0 01.504-2.371 7.436 7.436 0 011.116-1.855c1.659-2.021 3.846-3.764 5.918-5.261a1.27 1.27 0 112.468 0c2.073 1.496 4.26 3.24 5.92 5.261a7.436 7.436 0 011.115 1.855 1.27 1.27 0 01.505 2.37zm-15.213-3.639c1.581-1.927 3.686-3.61 5.736-5.092a1.264 1.264 0 001.407 0c2.05 1.482 4.155 3.165 5.737 5.092a6.69 6.69 0 01.938 1.524 1.266 1.266 0 00-.493 1.12c.047.546.442.994.962 1.122a4.04 4.04 0 01-1.179 2.818 4.302 4.302 0 01-.604.511c-1.107.772-2.431.884-3.663.522a5.42 5.42 0 01-1.17-.502 1.182 1.182 0 00.039-.312 1.27 1.27 0 10-2.502.312c-1.725.991-3.9 1.03-5.437-.531a4.057 4.057 0 01-1.179-2.818 1.263 1.263 0 00.8-.603 1.267 1.267 0 00-.33-1.64 6.547 6.547 0 01.938-1.523zm5.863 6.803a.58.58 0 01.044-.223.579.579 0 01.533-.354.577.577 0 11-.577.577zm0-12.952c0 .309.242.56.546.576h.061a.577.577 0 10-.608-.576zm-7.224 9.14a.58.58 0 00.228-.459.577.577 0 10-.228.46zm15.374-.478a.574.574 0 01.577-.558.577.577 0 11-.577.558z" class="stroke_2" clip-rule="evenodd"/>
          <path fill="#2C2C2C" fill-rule="evenodd" d="M46.568 34.677c-1.637-1.995-3.767-3.713-5.781-5.18l.002-.09a1.732 1.732 0 10-3.46.09c-2.015 1.468-4.144 3.185-5.781 5.18a7.917 7.917 0 00-1.084 1.738 1.732 1.732 0 00-.638 3.026c.042 1.308.52 2.6 1.577 3.673 2.055 2.086 4.843 1.986 6.968.836a1.728 1.728 0 001.374 0c2.124 1.15 4.913 1.25 6.968-.836a5.386 5.386 0 001.577-3.673 1.732 1.732 0 00-.638-3.026 7.917 7.917 0 00-1.084-1.738zm.758 2.148a7.453 7.453 0 00-1.115-1.855c-1.66-2.022-3.847-3.765-5.92-5.262a1.27 1.27 0 10-2.468 0c-2.072 1.497-4.26 3.24-5.918 5.262a7.453 7.453 0 00-1.116 1.855 1.27 1.27 0 00-.505 2.371c0 .074 0 .15.003.224a4.925 4.925 0 001.445 3.37c1.94 1.97 4.61 1.826 6.632.634a1.264 1.264 0 001.388 0c2.021 1.192 4.692 1.336 6.632-.634a4.925 4.925 0 001.447-3.594 1.268 1.268 0 00-.505-2.371z" class="stroke 2_2" clip-rule="evenodd"/>
        </g>
      </g>
      <g class="symbol_5">
        <g class="â spades_5">
          <g class="fill_3">
            <path fill="#2C2C2C" d="M20.76 20.933c1.581-1.927 3.686-3.61 5.736-5.092a1.264 1.264 0 001.407 0c2.05 1.481 4.155 3.165 5.737 5.092.386.47.703.986.938 1.523a1.27 1.27 0 00.47 2.242 4.057 4.057 0 01-1.18 2.818c-1.537 1.56-3.712 1.522-5.437.531a1.27 1.27 0 10-2.463 0c-1.725.991-3.9 1.03-5.437-.531a4.057 4.057 0 01-1.179-2.818 1.27 1.27 0 00.47-2.242 6.546 6.546 0 01.938-1.523z"/>
            <path fill="#2C2C2C" d="M26.623 27.736a.58.58 0 01.044-.224.579.579 0 01.533-.354.577.577 0 11-.577.578zM27.17 15.36a.577.577 0 11.06 0M19.4 23.924a.58.58 0 00.227-.46.577.577 0 10-.228.46zM34.843 23.188a.575.575 0 00.157.736.577.577 0 10-.157-.735z"/>
          </g>
          <path fill="#fff" fill-rule="evenodd" d="M35.973 24.57c.012 1.28-.417 2.55-1.447 3.595-1.94 1.97-4.61 1.826-6.632.634a1.264 1.264 0 01-1.388 0c-2.022 1.192-4.692 1.336-6.632-.634-1.03-1.045-1.46-2.314-1.447-3.594a1.27 1.27 0 01.504-2.371 7.437 7.437 0 011.116-1.855c1.659-2.021 3.846-3.764 5.918-5.261a1.27 1.27 0 112.468 0c2.073 1.496 4.26 3.24 5.92 5.261a7.437 7.437 0 011.115 1.855 1.27 1.27 0 01.505 2.37zM20.76 20.934c1.581-1.927 3.686-3.61 5.736-5.092a1.264 1.264 0 001.407 0c2.05 1.48 4.155 3.165 5.737 5.092a6.69 6.69 0 01.938 1.523 1.266 1.266 0 00-.493 1.12c.047.546.442.994.962 1.122a4.042 4.042 0 01-1.179 2.818 4.307 4.307 0 01-.604.511c-1.107.772-2.432.884-3.663.522a5.427 5.427 0 01-1.17-.502l.01-.042a1.271 1.271 0 00-2.482-.54 1.276 1.276 0 00.01.582c-1.726.991-3.9 1.03-5.438-.531a4.057 4.057 0 01-1.179-2.818 1.261 1.261 0 00.8-.603 1.268 1.268 0 00-.33-1.64 6.546 6.546 0 01.938-1.522zm5.863 6.803a.58.58 0 01.044-.224.578.578 0 011.11.224.577.577 0 11-1.154 0zm0-12.953c0 .309.241.56.546.576h.061a.577.577 0 10-.608-.576zm-7.224 9.14a.58.58 0 00.228-.459.577.577 0 10-.228.46zm15.374-.477a.575.575 0 01.577-.559.577.577 0 11-.577.558z" class="stroke_3" clip-rule="evenodd"/>
          <path fill="#2C2C2C" fill-rule="evenodd" d="M34.71 20.052c-1.638-1.995-3.767-3.713-5.781-5.18l.002-.089a1.732 1.732 0 10-3.461.09c-2.014 1.467-4.143 3.185-5.78 5.18a7.918 7.918 0 00-1.084 1.737 1.732 1.732 0 00-.638 3.026c.042 1.308.52 2.601 1.577 3.673 2.054 2.086 4.843 1.986 6.968.836a1.726 1.726 0 001.374 0c2.124 1.15 4.913 1.25 6.968-.836a5.386 5.386 0 001.577-3.673 1.732 1.732 0 00-.638-3.026 7.918 7.918 0 00-1.084-1.738zm.758 2.148a7.454 7.454 0 00-1.115-1.854c-1.66-2.023-3.847-3.766-5.92-5.263a1.27 1.27 0 10-2.468 0c-2.072 1.498-4.26 3.24-5.918 5.262A7.45 7.45 0 0018.93 22.2a1.27 1.27 0 00-.505 2.371c0 .075 0 .15.003.224a4.925 4.925 0 001.445 3.37c1.94 1.97 4.61 1.826 6.632.634a1.264 1.264 0 001.388 0c2.021 1.192 4.692 1.336 6.632-.634a4.924 4.924 0 001.447-3.594 1.268 1.268 0 00-.505-2.371z" class="stroke 2_3" clip-rule="evenodd"/>
        </g>
      </g>
      <g class="symbol_6">
        <g class="â spades_6">
          <g class="fill_4">
            <path fill="#2C2C2C" d="M20.76 52.95c1.581-1.928 3.686-3.611 5.736-5.093a1.264 1.264 0 001.407 0c2.05 1.482 4.155 3.165 5.737 5.092.386.471.703.987.938 1.523a1.27 1.27 0 00.47 2.242 4.057 4.057 0 01-1.18 2.818c-1.537 1.561-3.712 1.523-5.437.532a1.271 1.271 0 10-2.463 0c-1.725.99-3.9 1.029-5.437-.532a4.057 4.057 0 01-1.179-2.818 1.27 1.27 0 00.47-2.242 6.546 6.546 0 01.938-1.523z"/>
            <path fill="#2C2C2C" d="M26.623 59.752a.58.58 0 01.423-.556.577.577 0 11-.424.557zM27.17 47.376a.577.577 0 11.06 0M19.4 55.94a.58.58 0 00.227-.46.577.577 0 10-.228.46zM34.843 55.205a.575.575 0 00.157.735.577.577 0 10-.157-.735z"/>
          </g>
          <path fill="#fff" fill-rule="evenodd" d="M35.973 56.587c.012 1.28-.417 2.55-1.447 3.595-1.94 1.97-4.61 1.826-6.632.634a1.264 1.264 0 01-1.388 0c-2.022 1.192-4.692 1.335-6.632-.634-1.03-1.046-1.46-2.315-1.447-3.595a1.27 1.27 0 01.504-2.37 7.435 7.435 0 011.116-1.855c1.659-2.022 3.846-3.765 5.918-5.262a1.27 1.27 0 112.468 0c2.073 1.497 4.26 3.24 5.92 5.262a7.435 7.435 0 011.115 1.854 1.27 1.27 0 01.505 2.371zM20.76 52.95c1.581-1.927 3.686-3.61 5.736-5.092a1.264 1.264 0 001.407 0c2.05 1.482 4.155 3.165 5.737 5.092l.141.179c.323.422.592.875.797 1.344a1.266 1.266 0 00-.493 1.12c.047.547.442.995.962 1.122a4.041 4.041 0 01-1.179 2.818 4.302 4.302 0 01-.604.512c-1.107.772-2.432.884-3.663.522a5.426 5.426 0 01-1.17-.502l.01-.042a1.271 1.271 0 00-2.482-.541 1.275 1.275 0 00.01.583c-1.726.99-3.9 1.029-5.438-.532a4.057 4.057 0 01-1.179-2.818 1.26 1.26 0 00.8-.602 1.268 1.268 0 00-.33-1.64 6.547 6.547 0 01.938-1.523zm5.863 6.803a.58.58 0 01.577-.577.577.577 0 11-.577.577zm0-12.953c0 .31.241.561.546.577h.061a.577.577 0 10-.608-.576zm-7.224 9.141a.58.58 0 00.228-.46.577.577 0 10-.228.46zm15.374-.478a.576.576 0 01.577-.558.577.577 0 11-.577.558z" class="stroke_4" clip-rule="evenodd"/>
          <path fill="#2C2C2C" fill-rule="evenodd" d="M34.71 52.069c-1.638-1.995-3.767-3.713-5.781-5.18l.002-.09a1.732 1.732 0 10-3.461.09c-2.014 1.467-4.143 3.185-5.78 5.18a7.917 7.917 0 00-1.084 1.738 1.732 1.732 0 00-.638 3.026c.042 1.307.52 2.6 1.577 3.673 2.054 2.086 4.843 1.985 6.968.836a1.728 1.728 0 001.374 0c2.124 1.15 4.913 1.25 6.968-.836a5.386 5.386 0 001.577-3.673 1.732 1.732 0 00-.638-3.026 7.917 7.917 0 00-1.084-1.738zm.758 2.147a7.455 7.455 0 00-1.115-1.855c-1.66-2.021-3.847-3.764-5.92-5.261a1.27 1.27 0 10-2.468 0c-2.072 1.497-4.26 3.24-5.918 5.262a7.453 7.453 0 00-1.116 1.854 1.27 1.27 0 00-.505 2.371c0 .075 0 .15.003.224a4.925 4.925 0 001.445 3.37c1.94 1.97 4.61 1.827 6.632.635a1.265 1.265 0 001.388 0c2.021 1.192 4.692 1.335 6.632-.634a4.925 4.925 0 001.447-3.595 1.268 1.268 0 00-.505-2.371z" class="stroke 2_4" clip-rule="evenodd"/>
        </g>
      </g>
      <g class="symbol_7">
        <g class="â spades_7">
          <g class="fill_5">
            <path fill="#2C2C2C" d="M41.977 84.435c1.58 1.927 3.686 3.61 5.736 5.092a1.264 1.264 0 011.406 0c2.05-1.48 4.156-3.165 5.737-5.092.387-.47.704-.986.938-1.523a1.27 1.27 0 01.47-2.242 4.057 4.057 0 00-1.179-2.818c-1.537-1.56-3.712-1.522-5.437-.531a1.271 1.271 0 11-2.463 0c-1.725-.991-3.9-1.03-5.437.531a4.057 4.057 0 00-1.18 2.818 1.27 1.27 0 01.47 2.242c.235.537.552 1.052.939 1.523z"/>
            <path fill="#2C2C2C" d="M47.84 77.632a.58.58 0 00.423.557.575.575 0 00.73-.557.577.577 0 00-1.154 0zM48.386 90.009a.577.577 0 10.06 0M40.616 81.445a.58.58 0 01.227.459.577.577 0 11-.227-.46zM56.06 82.18a.574.574 0 01.157-.736.577.577 0 11-.157.735z"/>
          </g>
          <path fill="#fff" fill-rule="evenodd" d="M57.19 80.797c.012-1.28-.418-2.549-1.448-3.594-1.94-1.97-4.61-1.826-6.631-.634a1.264 1.264 0 00-1.389 0c-2.021-1.192-4.692-1.335-6.632.634-1.03 1.045-1.459 2.314-1.447 3.594a1.27 1.27 0 00.505 2.371 7.438 7.438 0 001.115 1.855c1.66 2.021 3.847 3.764 5.919 5.261a1.27 1.27 0 102.468 0c2.072-1.496 4.26-3.24 5.92-5.261a7.438 7.438 0 001.115-1.855 1.27 1.27 0 00.505-2.37zm-15.213 3.639c1.58 1.926 3.686 3.61 5.736 5.091a1.265 1.265 0 011.406 0c2.05-1.48 4.156-3.165 5.737-5.091a6.504 6.504 0 00.938-1.523 1.266 1.266 0 01-.493-1.12 1.27 1.27 0 01.963-1.123 4.04 4.04 0 00-1.179-2.818 4.302 4.302 0 00-.604-.511c-1.107-.772-2.432-.884-3.663-.522a5.434 5.434 0 00-1.17.502 1.241 1.241 0 01.038.311 1.27 1.27 0 11-2.5-.311c-.001 0 0 0 0 0-1.726-.991-3.901-1.03-5.438.531a4.057 4.057 0 00-1.18 2.818 1.261 1.261 0 01.8.603 1.268 1.268 0 01-.33 1.64c.235.536.552 1.051.939 1.523zm5.862-6.804a.58.58 0 00.577.578.577.577 0 10-.577-.578zm0 12.953c0-.309.242-.56.547-.576h.06a.577.577 0 11-.607.576zm-7.223-9.14a.58.58 0 01.227.459.577.577 0 11-.227-.46zm15.373.478a.574.574 0 00.577.558.577.577 0 10-.577-.558z" class="stroke_5" clip-rule="evenodd"/>
          <path fill="#2C2C2C" fill-rule="evenodd" d="M55.926 85.316c-1.637 1.995-3.766 3.713-5.78 5.18l.002.09a1.732 1.732 0 11-3.461-.09c-2.015-1.468-4.143-3.185-5.78-5.18a7.921 7.921 0 01-1.084-1.738 1.732 1.732 0 01-.639-3.026c.043-1.308.521-2.601 1.577-3.673 2.055-2.086 4.844-1.986 6.968-.836a1.728 1.728 0 011.374 0c2.125-1.15 4.914-1.25 6.968.836a5.385 5.385 0 011.577 3.673 1.732 1.732 0 01-.638 3.026 7.918 7.918 0 01-1.084 1.738zm.759-2.148a7.455 7.455 0 01-1.115 1.855c-1.66 2.022-3.848 3.765-5.92 5.262a1.27 1.27 0 11-2.468 0c-2.072-1.498-4.26-3.24-5.919-5.262a7.457 7.457 0 01-1.115-1.855 1.27 1.27 0 01-.505-2.371c0-.075 0-.15.003-.224a4.925 4.925 0 011.444-3.37c1.94-1.97 4.61-1.826 6.632-.634a1.265 1.265 0 011.389 0c2.02-1.192 4.691-1.336 6.631.634a4.925 4.925 0 011.448 3.594 1.268 1.268 0 01.647 1.107 1.27 1.27 0 01-1.152 1.264z" class="stroke 2_5" clip-rule="evenodd"/>
        </g>
      </g>
      <g class="symbol_8">
        <g class="â spades_8">
          <g class="fill_6">
            <path fill="#2C2C2C" d="M19.97 84.435c1.58 1.927 3.686 3.61 5.736 5.092a1.264 1.264 0 011.406 0c2.05-1.48 4.156-3.165 5.737-5.092.387-.47.704-.986.939-1.523a1.27 1.27 0 01.47-2.242 4.057 4.057 0 00-1.18-2.818c-1.537-1.56-3.712-1.522-5.437-.531a1.271 1.271 0 11-2.463 0c-1.725-.991-3.9-1.03-5.438.531a4.057 4.057 0 00-1.178 2.818 1.27 1.27 0 01.47 2.242c.234.537.55 1.052.937 1.523z"/>
            <path fill="#2C2C2C" d="M25.832 77.632a.58.58 0 00.424.557.577.577 0 10-.424-.557zM26.379 90.009a.577.577 0 10.06 0M18.609 81.445a.58.58 0 01.227.459.577.577 0 11-.227-.46zM34.052 82.18a.575.575 0 01.158-.736.577.577 0 11-.157.735z"/>
          </g>
          <path fill="#fff" fill-rule="evenodd" d="M35.182 80.797c.012-1.28-.417-2.549-1.447-3.594-1.94-1.97-4.61-1.826-6.631-.634a1.264 1.264 0 00-1.389 0c-2.021-1.192-4.692-1.335-6.632.634-1.03 1.045-1.459 2.314-1.447 3.594a1.27 1.27 0 00.505 2.371 7.435 7.435 0 001.115 1.855c1.66 2.021 3.847 3.764 5.919 5.261a1.27 1.27 0 102.468 0c2.072-1.496 4.26-3.24 5.92-5.261a7.435 7.435 0 001.115-1.855 1.27 1.27 0 00.505-2.37zM19.97 84.436c1.582 1.926 3.687 3.61 5.737 5.091a1.264 1.264 0 011.406 0c2.05-1.48 4.156-3.165 5.737-5.091a6.508 6.508 0 00.938-1.523 1.266 1.266 0 01-.493-1.12 1.27 1.27 0 01.963-1.123 4.041 4.041 0 00-1.179-2.818 4.302 4.302 0 00-.604-.511c-1.107-.772-2.432-.884-3.664-.522a5.431 5.431 0 00-1.17.502l.01.042a1.271 1.271 0 01-2.481.54 1.275 1.275 0 01.009-.582c-1.725-.991-3.9-1.03-5.438.531a4.057 4.057 0 00-1.178 2.818 1.26 1.26 0 01.8.603 1.268 1.268 0 01-.33 1.64c.234.536.55 1.051.937 1.523zm5.863-6.804a.58.58 0 00.577.578.577.577 0 10-.577-.578zm0 12.953c0-.309.242-.56.547-.576h.06a.577.577 0 11-.607.576zm-7.223-9.14a.58.58 0 01.227.459.577.577 0 11-.227-.46zm15.373.478a.576.576 0 00.577.558.577.577 0 10-.577-.558z" class="stroke_6" clip-rule="evenodd"/>
          <path fill="#2C2C2C" fill-rule="evenodd" d="M33.92 85.316c-1.638 1.995-3.767 3.713-5.782 5.18.002.03.002.06.002.09a1.732 1.732 0 11-3.46-.09c-2.015-1.468-4.144-3.185-5.78-5.18a7.917 7.917 0 01-1.084-1.738 1.732 1.732 0 01-.639-3.026c.043-1.308.521-2.601 1.577-3.673 2.055-2.086 4.844-1.986 6.968-.836a1.728 1.728 0 011.374 0c2.125-1.15 4.914-1.25 6.968.836a5.386 5.386 0 011.577 3.673 1.732 1.732 0 01-.638 3.026 7.917 7.917 0 01-1.084 1.738zm.758-2.148a7.452 7.452 0 01-1.115 1.855c-1.66 2.022-3.848 3.765-5.92 5.262a1.27 1.27 0 11-2.468 0c-2.072-1.498-4.26-3.24-5.919-5.262a7.453 7.453 0 01-1.115-1.855 1.27 1.27 0 01-.505-2.371c0-.075 0-.15.003-.224a4.925 4.925 0 011.444-3.37c1.94-1.97 4.61-1.826 6.632-.634a1.265 1.265 0 011.389 0c2.02-1.192 4.691-1.336 6.631.634a4.925 4.925 0 011.447 3.594 1.268 1.268 0 01-.505 2.371z" class="stroke 2_6" clip-rule="evenodd"/>
        </g>
      </g>
      <g class="symbol_9">
        <g class="â spades_9">
          <g class="fill_7">
            <path fill="#2C2C2C" d="M42.372 20.933c1.581-1.927 3.686-3.61 5.736-5.092a1.264 1.264 0 001.407 0c2.05 1.481 4.155 3.165 5.736 5.092.387.47.704.986.939 1.523a1.27 1.27 0 00.47 2.242 4.057 4.057 0 01-1.18 2.818c-1.537 1.56-3.712 1.522-5.437.531a1.27 1.27 0 10-2.463 0c-1.725.991-3.9 1.03-5.437-.531a4.057 4.057 0 01-1.179-2.818 1.27 1.27 0 00.47-2.242 6.546 6.546 0 01.938-1.523z"/>
            <path fill="#2C2C2C" d="M48.234 27.736a.58.58 0 01.424-.557.58.58 0 01.73.557.577.577 0 11-1.154 0zM48.781 15.36a.577.577 0 11.06 0M41.011 23.924a.58.58 0 00.228-.46.577.577 0 10-.228.46zM56.455 23.188a.574.574 0 00.157.736.577.577 0 10-.157-.735z"/>
          </g>
          <path fill="#fff" fill-rule="evenodd" d="M57.585 24.57c.012 1.28-.417 2.55-1.447 3.595-1.94 1.97-4.611 1.826-6.632.634a1.264 1.264 0 01-1.389 0c-2.02 1.192-4.691 1.336-6.631-.634-1.03-1.045-1.46-2.314-1.448-3.594a1.27 1.27 0 01.505-2.371 7.44 7.44 0 011.115-1.855c1.66-2.021 3.847-3.764 5.92-5.261a1.27 1.27 0 112.468 0c2.072 1.496 4.26 3.24 5.919 5.261A7.44 7.44 0 0157.08 22.2a1.27 1.27 0 01.505 2.37zm-15.213-3.637c1.581-1.927 3.686-3.61 5.736-5.092a1.263 1.263 0 001.407 0c2.05 1.48 4.155 3.165 5.736 5.092a6.693 6.693 0 01.939 1.523 1.266 1.266 0 00-.493 1.12c.047.546.441.994.962 1.122a4.041 4.041 0 01-1.179 2.818 4.307 4.307 0 01-.604.511c-1.107.772-2.432.884-3.663.522a5.43 5.43 0 01-1.17-.502 1.188 1.188 0 00.038-.311 1.27 1.27 0 10-2.5.311c-1.726.991-3.9 1.03-5.438-.531a4.057 4.057 0 01-1.179-2.818 1.262 1.262 0 00.8-.603 1.268 1.268 0 00-.33-1.64 6.546 6.546 0 01.938-1.522zm5.862 6.803a.58.58 0 01.424-.557.577.577 0 11-.424.557zm0-12.953c0 .309.242.56.547.576h.06a.577.577 0 10-.607-.576zm-7.223 9.14a.58.58 0 00.228-.459.577.577 0 10-.228.46zm15.374-.477a.577.577 0 111.153.037.577.577 0 01-1.153-.038z" class="stroke_7" clip-rule="evenodd"/>
          <path fill="#2C2C2C" fill-rule="evenodd" d="M56.322 20.052c-1.638-1.995-3.767-3.713-5.782-5.18l.003-.089a1.732 1.732 0 10-3.461.09c-2.015 1.467-4.143 3.185-5.78 5.18a7.922 7.922 0 00-1.084 1.737 1.732 1.732 0 00-.639 3.026c.043 1.308.521 2.601 1.578 3.673 2.054 2.086 4.843 1.986 6.968.836a1.726 1.726 0 001.374 0c2.124 1.15 4.913 1.25 6.968-.836a5.385 5.385 0 001.577-3.673 1.732 1.732 0 00-.638-3.026 7.919 7.919 0 00-1.084-1.738zm.758 2.148a7.455 7.455 0 00-1.115-1.854c-1.66-2.023-3.848-3.766-5.92-5.263a1.27 1.27 0 10-2.468 0c-2.072 1.498-4.26 3.24-5.919 5.262a7.455 7.455 0 00-1.115 1.855 1.27 1.27 0 00-.505 2.371c0 .075 0 .15.003.224a4.924 4.924 0 001.445 3.37c1.94 1.97 4.61 1.826 6.631.634a1.264 1.264 0 001.389 0c2.021 1.192 4.692 1.336 6.632-.634a4.925 4.925 0 001.447-3.594 1.268 1.268 0 00.647-1.107A1.27 1.27 0 0057.08 22.2z" class="stroke 2_7" clip-rule="evenodd"/>
        </g>
      </g>
      <g class="symbol_10">
        <g class="â spades_10">
          <g class="fill_8">
            <path fill="#2C2C2C" d="M41.977 53.344c1.58-1.926 3.686-3.61 5.736-5.092a1.265 1.265 0 001.406 0c2.05 1.482 4.156 3.165 5.737 5.092.387.472.704.987.938 1.524a1.27 1.27 0 00.47 2.242 4.057 4.057 0 01-1.179 2.818c-1.537 1.56-3.712 1.522-5.437.531a1.272 1.272 0 00-1.232-1.581 1.27 1.27 0 00-1.231 1.581c-1.725.991-3.9 1.03-5.437-.531a4.057 4.057 0 01-1.18-2.818 1.27 1.27 0 00.47-2.242 6.547 6.547 0 01.939-1.524z"/>
            <path fill="#2C2C2C" d="M47.84 60.147a.58.58 0 01.576-.577.577.577 0 11-.577.577zM48.386 47.771a.577.577 0 11.06 0M40.616 56.335a.58.58 0 00.227-.459.577.577 0 10-.227.46zM56.06 55.6a.574.574 0 00.157.735.577.577 0 10-.157-.735z"/>
          </g>
          <path fill="#fff" fill-rule="evenodd" d="M57.19 56.983c.012 1.28-.418 2.549-1.448 3.594-1.94 1.97-4.61 1.826-6.631.634a1.264 1.264 0 01-1.389 0c-2.021 1.192-4.692 1.335-6.632-.634-1.03-1.045-1.459-2.314-1.447-3.594a1.27 1.27 0 01.505-2.371 7.438 7.438 0 011.115-1.855c1.66-2.021 3.847-3.764 5.919-5.261a1.27 1.27 0 112.468 0c2.072 1.496 4.26 3.24 5.92 5.261a7.438 7.438 0 011.115 1.855 1.27 1.27 0 01.505 2.37zm-15.213-3.639c1.58-1.927 3.686-3.61 5.736-5.092a1.264 1.264 0 001.406 0c2.05 1.482 4.156 3.165 5.737 5.092a6.693 6.693 0 01.938 1.524 1.266 1.266 0 00-.493 1.12c.048.546.442.994.963 1.122a4.041 4.041 0 01-1.179 2.818 4.294 4.294 0 01-.604.511c-1.107.772-2.432.884-3.663.522a5.43 5.43 0 01-1.17-.502 1.183 1.183 0 00.038-.312 1.27 1.27 0 10-2.5.312c-.001 0 0 0 0 0-1.726.991-3.901 1.03-5.438-.531a4.057 4.057 0 01-1.18-2.818 1.264 1.264 0 00.8-.603 1.268 1.268 0 00-.33-1.64 6.546 6.546 0 01.939-1.523zm5.862 6.803a.58.58 0 01.424-.556.58.58 0 01.73.556.577.577 0 11-1.154 0zm0-12.952c0 .309.242.56.547.576h.06a.577.577 0 10-.607-.576zm-7.223 9.14a.58.58 0 00.227-.459.577.577 0 10-.227.46zm15.373-.478a.574.574 0 01.577-.558.577.577 0 11-.577.558z" class="stroke_8" clip-rule="evenodd"/>
          <path fill="#2C2C2C" fill-rule="evenodd" d="M55.926 52.464c-1.637-1.995-3.766-3.713-5.78-5.18l.002-.09a1.732 1.732 0 10-3.461.09c-2.015 1.468-4.143 3.185-5.78 5.18a7.924 7.924 0 00-1.084 1.738 1.732 1.732 0 00-.639 3.026c.043 1.308.521 2.6 1.577 3.673 2.055 2.086 4.844 1.986 6.968.836a1.728 1.728 0 001.374 0c2.125 1.15 4.914 1.25 6.968-.836a5.385 5.385 0 001.577-3.673 1.732 1.732 0 00-.638-3.026 7.92 7.92 0 00-1.084-1.738zm.759 2.148a7.457 7.457 0 00-1.115-1.855c-1.66-2.022-3.848-3.765-5.92-5.262a1.27 1.27 0 10-2.468 0c-2.072 1.498-4.26 3.24-5.919 5.262a7.457 7.457 0 00-1.115 1.855 1.27 1.27 0 00-.505 2.371c0 .074 0 .15.003.224a4.924 4.924 0 001.444 3.37c1.94 1.97 4.61 1.826 6.632.634a1.264 1.264 0 001.389 0c2.02 1.192 4.691 1.335 6.631-.634a4.925 4.925 0 001.448-3.594 1.268 1.268 0 00-.505-2.371z" class="stroke 2_8" clip-rule="evenodd"/>
        </g>
      </g>
    </g>
  </g>
</svg>
