<svg xmlns="http://www.w3.org/2000/svg" width="80" height="111" fill="none" viewBox="0 0 80 111">
  <g class="eigth_heart">
    <rect width="74.81" height="104.734" x=".205" y=".359" fill="#fff" rx="3.62"/>
    <rect width="78.991" height="110.588" x=".205" y=".359" fill="#fff" class="bg" rx="3.62"/>
    <g class="down">
      <g class="letter">
        <path fill="#222" d="M66.611 87.864c-1.492 0-2.738.368-3.722 1.12-.983.751-1.475 1.753-1.475 3.006 0 1.904 1.13 3.358 3.377 4.36-1.902 1.036-2.853 2.255-2.853 3.675 0 1.119.443 2.021 1.345 2.689.902.668 2 1.019 3.328 1.019 1.345 0 2.46-.334 3.361-1.019.902-.685 1.345-1.587 1.345-2.689 0-1.403-.951-2.623-2.853-3.675 2.246-1.002 3.378-2.456 3.378-4.36 0-1.27-.492-2.272-1.476-3.006-.984-.735-2.23-1.12-3.755-1.12zm0 7.517c-2-.768-3-1.888-3-3.374 0-.936.279-1.587.836-1.988.557-.384 1.279-.585 2.164-.585.902 0 1.64.2 2.197.585.558.384.837 1.052.837 1.988 0 1.47-1.017 2.606-3.034 3.374zm0 6.799c-.721 0-1.312-.184-1.787-.552-.46-.367-.689-.902-.689-1.603 0-1.136.82-2.105 2.476-2.89 1.673.802 2.492 1.754 2.492 2.89 0 .701-.23 1.236-.688 1.603-.46.368-1.05.552-1.804.552z" class="Vector"/>
      </g>
      <g class="symbol">
        <path fill="#F24E1E" d="M67.726 79.887c.707.863.875 2.068.1 2.856-.84.853-2.115.606-2.889-.181-.774.787-2.05 1.034-2.888.181-.776-.788-.608-1.993.1-2.856.763-.932 1.808-1.733 2.788-2.427.98.694 2.026 1.495 2.789 2.427z" class="♥ hearts"/>
      </g>
    </g>
    <g class="up">
      <g class="letter_2">
        <path fill="#222" d="M9.937 19.855c-1.492 0-2.738-.367-3.722-1.119S4.74 16.982 4.74 15.73c0-1.904 1.132-3.357 3.378-4.36-1.902-1.035-2.853-2.254-2.853-3.674 0-1.12.443-2.021 1.345-2.69.901-.668 2-1.019 3.328-1.019 1.345 0 2.46.335 3.361 1.02.902.684 1.345 1.586 1.345 2.689 0 1.403-.951 2.622-2.853 3.675 2.246 1.002 3.377 2.455 3.377 4.36 0 1.269-.491 2.271-1.475 3.006-.984.735-2.23 1.12-3.755 1.12zm0-7.517c-2 .769-3 1.888-3 3.375 0 .935.278 1.586.836 1.987.557.385 1.279.585 2.164.585.902 0 1.64-.2 2.197-.585.558-.384.836-1.052.836-1.987 0-1.47-1.016-2.606-3.033-3.375zm0-6.798c-.721 0-1.312.184-1.787.551-.46.368-.689.902-.689 1.604 0 1.136.82 2.104 2.476 2.89 1.672-.802 2.492-1.754 2.492-2.89 0-.702-.23-1.236-.688-1.604-.46-.367-1.05-.551-1.804-.551z" class="Vector_2"/>
      </g>
      <g class="symbol_2">
        <path fill="#F24E1E" d="M7.596 25.525c-.707-.863-.875-2.067-.1-2.856.839-.853 2.115-.606 2.889.182.774-.788 2.05-1.035 2.888-.182.775.789.608 1.993-.1 2.856-.763.932-1.808 1.733-2.788 2.428-.98-.695-2.026-1.496-2.79-2.428z" class="♥ hearts_2"/>
      </g>
    </g>
    <g class="icons">
      <g class="symbol_3">
        <g class="♥ hearts_3">
          <g class="fill">
            <path fill="#F24E1E" d="M46.92 76.562c-1.728 1.755-4.172 1.712-6.112.598a1.427 1.427 0 10-2.768 0c-1.94 1.114-4.384 1.157-6.113-.598-.888-.902-1.3-2.014-1.324-3.167a1.428 1.428 0 00.527-2.52 7.355 7.355 0 011.055-1.713c1.778-2.166 4.144-4.059 6.448-5.724a1.421 1.421 0 001.581 0c2.305 1.665 4.671 3.558 6.45 5.724.434.53.79 1.11 1.054 1.712a1.428 1.428 0 00.527 2.52c-.024 1.154-.436 2.266-1.325 3.168z"/>
            <path fill="#F24E1E" d="M39.03 76.293a.65.65 0 00.393 1.165.649.649 0 10-.392-1.165zM39.423 62.898a.649.649 0 100-1.298.649.649 0 000 1.298zM48.016 71.698a.646.646 0 00.177.826.649.649 0 10-.177-.827zM30.262 71.359a.649.649 0 110 1.298.649.649 0 010-1.298z"/>
          </g>
          <path fill="#fff" fill-rule="evenodd" d="M49.286 73.252c.014 1.439-.469 2.865-1.627 4.04-2.18 2.214-5.182 2.053-7.455.713a1.422 1.422 0 01-1.56 0c-2.273 1.34-5.274 1.501-7.455-.713-1.158-1.175-1.64-2.601-1.627-4.04a1.427 1.427 0 01.567-2.665 8.36 8.36 0 011.254-2.085c1.865-2.273 4.324-4.232 6.653-5.915a1.428 1.428 0 112.775 0c2.33 1.682 4.789 3.642 6.654 5.915a8.357 8.357 0 011.254 2.085 1.428 1.428 0 01.567 2.665zm-8.478 3.908c1.94 1.114 4.384 1.157 6.112-.598a4.543 4.543 0 001.325-3.168 1.428 1.428 0 01-.527-2.52 7.358 7.358 0 00-1.055-1.712c-1.778-2.166-4.144-4.059-6.449-5.724a1.421 1.421 0 01-1.58 0c-2.305 1.665-4.671 3.558-6.45 5.724-.203.248-.39.508-.557.775-.19.303-.357.617-.497.937a1.425 1.425 0 01.478 1.612 1.43 1.43 0 01-1.005.908c.024 1.154.436 2.266 1.324 3.168 1.729 1.755 4.173 1.712 6.113.598a1.43 1.43 0 011.384-1.778 1.427 1.427 0 011.384 1.778zm-1.777-.867a.65.65 0 10.787 1.033.65.65 0 00-.787-1.033zm.427-13.396a.649.649 0 11-.07-1.296.649.649 0 01.07 1.296zm8.558 8.8a.646.646 0 00.177.827.649.649 0 10-.177-.827zm-17.105.31a.649.649 0 10-1.297 0 .649.649 0 001.297 0z" class="stroke" clip-rule="evenodd"/>
          <g class="stroke 2">
            <path fill="#F24E1E" d="M30.603 73.394zM38.04 77.16z"/>
            <path fill="#F24E1E" fill-rule="evenodd" d="M28.316 72.008c0 .615.286 1.163.73 1.52a6.054 6.054 0 001.773 4.129c2.31 2.344 5.445 2.231 7.833.94a1.94 1.94 0 001.544 0c2.388 1.291 5.523 1.404 7.833-.94a6.055 6.055 0 001.773-4.13 1.947 1.947 0 00-.718-3.402 8.906 8.906 0 00-1.218-1.952c-1.84-2.243-4.234-4.175-6.498-5.824l.002-.1a1.946 1.946 0 10-3.89.1c-2.265 1.65-4.658 3.581-6.498 5.824a8.899 8.899 0 00-1.218 1.953c-.834.22-1.448.98-1.448 1.882zm2.873 5.284a5.536 5.536 0 01-1.624-3.788 6.032 6.032 0 01-.003-.252 1.426 1.426 0 01-.727-1.244 1.428 1.428 0 011.294-1.421 8.382 8.382 0 011.254-2.085c1.865-2.273 4.324-4.232 6.653-5.915a1.428 1.428 0 112.775 0c2.33 1.682 4.789 3.642 6.654 5.915a8.38 8.38 0 011.254 2.085 1.428 1.428 0 01.567 2.665c0 .084 0 .168-.003.252a5.536 5.536 0 01-1.624 3.788c-2.18 2.214-5.182 2.053-7.455.713a1.422 1.422 0 01-1.56 0c-2.273 1.34-5.274 1.501-7.455-.713z" clip-rule="evenodd"/>
          </g>
        </g>
      </g>
      <g class="symbol_4">
        <g class="♥ hearts_4">
          <g class="fill_2">
            <path fill="#F24E1E" d="M46.467 27.53c-1.728-1.754-4.173-1.711-6.112-.598a1.43 1.43 0 01-1.384 1.778 1.427 1.427 0 01-1.384-1.777c-1.94-1.114-4.385-1.157-6.113.597-.889.902-1.3 2.014-1.325 3.168a1.428 1.428 0 01.528 2.52c.263.603.62 1.182 1.054 1.712 1.778 2.166 4.144 4.059 6.449 5.724a1.42 1.42 0 011.58 0c2.306-1.665 4.672-3.558 6.45-5.724.435-.53.79-1.109 1.054-1.712a1.428 1.428 0 01.528-2.52c-.025-1.154-.436-2.266-1.325-3.168z"/>
            <path fill="#F24E1E" d="M38.577 27.8a.652.652 0 01-.255-.516.649.649 0 11.255.515zM38.97 41.194l.035.001a.649.649 0 11-.035 0zM47.562 32.395a.647.647 0 01.177-.827.649.649 0 11-.177.827zM29.809 32.733a.649.649 0 100-1.297.649.649 0 000 1.297z"/>
          </g>
          <path fill="#fff" fill-rule="evenodd" d="M48.833 30.84c.013-1.439-.47-2.865-1.627-4.04-2.18-2.214-5.183-2.053-7.455-.713a1.42 1.42 0 00-1.56 0c-2.273-1.34-5.275-1.5-7.456.713-1.158 1.175-1.64 2.601-1.627 4.04a1.427 1.427 0 00.568 2.666 8.36 8.36 0 001.254 2.084c1.865 2.273 4.324 4.232 6.653 5.915a1.427 1.427 0 102.774 0c2.33-1.682 4.79-3.642 6.655-5.915a8.363 8.363 0 001.253-2.084 1.428 1.428 0 00.568-2.666zm-8.478-3.907c1.94-1.114 4.384-1.157 6.112.597a4.543 4.543 0 011.325 3.168 1.428 1.428 0 00-.528 2.52 7.358 7.358 0 01-1.054 1.712c-1.778 2.166-4.144 4.06-6.45 5.725a1.42 1.42 0 00-.79-.24 1.42 1.42 0 00-.79.24c-2.305-1.666-4.67-3.559-6.449-5.725a7.548 7.548 0 01-.558-.775 7.16 7.16 0 01-.496-.937 1.425 1.425 0 00.477-1.612 1.43 1.43 0 00-1.005-.908c.025-1.154.436-2.266 1.325-3.168 1.728-1.754 4.173-1.711 6.113-.598a1.43 1.43 0 00.068.907 1.428 1.428 0 002.7-.906zm-1.778.866a.65.65 0 11.788-1.033.65.65 0 01-.788 1.033zm.428 13.396h-.035a.649.649 0 10.035 0zm8.557-8.8a.646.646 0 01.177-.827.649.649 0 11-.177.827zm-17.104-.31a.649.649 0 11-1.298 0 .649.649 0 011.298 0z" class="stroke_2" clip-rule="evenodd"/>
          <g class="stroke 2_2">
            <path fill="#F24E1E" d="M30.15 30.698zM37.587 26.933z"/>
            <path fill="#F24E1E" fill-rule="evenodd" d="M27.862 32.084c0-.615.286-1.163.73-1.52a6.054 6.054 0 011.774-4.128c2.31-2.345 5.444-2.232 7.832-.94a1.943 1.943 0 011.545 0c2.388-1.292 5.523-1.405 7.833.94a6.054 6.054 0 011.773 4.129 1.947 1.947 0 01-.718 3.402 8.905 8.905 0 01-1.218 1.953c-1.84 2.243-4.234 4.174-6.499 5.823a1.947 1.947 0 11-3.888 0c-2.264-1.65-4.657-3.58-6.498-5.823a8.905 8.905 0 01-1.218-1.953 1.947 1.947 0 01-1.448-1.883zm2.873-5.284a5.537 5.537 0 00-1.624 3.789 6.206 6.206 0 00-.003.251 1.426 1.426 0 00.567 2.665l.084.195a8.38 8.38 0 001.17 1.89c1.866 2.273 4.325 4.232 6.654 5.915a1.427 1.427 0 102.774 0c2.33-1.682 4.79-3.642 6.655-5.915a8.38 8.38 0 001.253-2.084 1.428 1.428 0 00.567-2.665c.002-.084 0-.168-.002-.252a5.537 5.537 0 00-1.624-3.79c-2.18-2.213-5.183-2.052-7.455-.712a1.42 1.42 0 00-1.56 0c-2.273-1.34-5.275-1.5-7.456.713z" clip-rule="evenodd"/>
          </g>
        </g>
      </g>
      <g class="symbol_5">
        <g class="♥ hearts_5">
          <g class="fill_3">
            <path fill="#F24E1E" d="M32.865 10.755c-1.728-1.755-4.173-1.712-6.112-.598a1.43 1.43 0 01-1.384 1.778 1.427 1.427 0 01-1.384-1.778c-1.94-1.114-4.384-1.157-6.113.598-.889.902-1.3 2.014-1.325 3.167a1.428 1.428 0 01.528 2.52c.264.604.62 1.183 1.055 1.713 1.777 2.166 4.143 4.058 6.448 5.724a1.42 1.42 0 01.79-.239c.293 0 .565.088.791.24 2.305-1.666 4.671-3.56 6.449-5.725.435-.53.791-1.11 1.055-1.713a1.428 1.428 0 01.527-2.52c-.024-1.153-.436-2.265-1.325-3.167z"/>
            <path fill="#F24E1E" d="M24.976 11.024a.65.65 0 01.393-1.165.649.649 0 11-.393 1.165zM25.368 24.419h.035a.649.649 0 11-.035 0zM33.96 15.62a.646.646 0 01.177-.827.649.649 0 11-.177.827zM16.207 15.958a.649.649 0 100-1.298.649.649 0 000 1.298z"/>
          </g>
          <path fill="#fff" fill-rule="evenodd" d="M35.23 14.065c.014-1.439-.468-2.865-1.626-4.04-2.18-2.214-5.183-2.053-7.455-.713a1.42 1.42 0 00-1.56 0c-2.273-1.34-5.275-1.501-7.456.712-1.157 1.176-1.64 2.602-1.626 4.04a1.427 1.427 0 00.567 2.666 8.36 8.36 0 001.254 2.085c1.865 2.272 4.324 4.232 6.653 5.914a1.427 1.427 0 102.774 0c2.33-1.682 4.79-3.641 6.655-5.914a8.362 8.362 0 001.254-2.085 1.428 1.428 0 00.567-2.665zm-8.477-3.908c1.94-1.114 4.384-1.157 6.112.598a4.543 4.543 0 011.325 3.167 1.428 1.428 0 00-.527 2.52 7.357 7.357 0 01-1.055 1.713c-1.778 2.166-4.144 4.059-6.449 5.724a1.421 1.421 0 00-1.581 0c-2.305-1.666-4.67-3.558-6.448-5.724a7.528 7.528 0 01-.559-.776 7.16 7.16 0 01-.496-.937 1.425 1.425 0 00.477-1.611 1.43 1.43 0 00-1.005-.909c.025-1.153.436-2.265 1.325-3.168 1.729-1.754 4.173-1.71 6.113-.597a1.43 1.43 0 001.384 1.778 1.427 1.427 0 001.384-1.778zm-1.777.867a.65.65 0 11.786-1.033.65.65 0 01-.787 1.033zm.427 13.396l-.035-.001a.649.649 0 10.035 0zm8.557-8.8a.646.646 0 01.177-.827.649.649 0 11-.177.827zm-17.104-.311a.649.649 0 11-1.298 0 .649.649 0 011.298 0z" class="stroke_3" clip-rule="evenodd"/>
          <g class="stroke 2_3">
            <path fill="#F24E1E" d="M16.547 13.922zM23.985 10.157z"/>
            <path fill="#F24E1E" fill-rule="evenodd" d="M14.26 15.309c0-.615.286-1.164.73-1.52a6.054 6.054 0 011.774-4.129c2.31-2.345 5.445-2.232 7.832-.94a1.942 1.942 0 011.545 0c2.388-1.292 5.523-1.405 7.833.94a6.054 6.054 0 011.773 4.13 1.947 1.947 0 01-.717 3.402 8.903 8.903 0 01-1.219 1.952c-1.84 2.243-4.234 4.174-6.499 5.824a1.947 1.947 0 11-3.888 0c-2.264-1.65-4.657-3.581-6.497-5.824a8.906 8.906 0 01-1.219-1.953 1.947 1.947 0 01-1.447-1.882zm2.873-5.285a5.536 5.536 0 00-1.624 3.79 6.209 6.209 0 00-.002.25 1.426 1.426 0 00-.727 1.244 1.428 1.428 0 001.294 1.422 8.253 8.253 0 001.254 2.085c1.865 2.272 4.324 4.232 6.653 5.914a1.427 1.427 0 102.774 0c2.33-1.682 4.79-3.641 6.655-5.914a8.383 8.383 0 001.254-2.085 1.428 1.428 0 00.567-2.665c0-.084 0-.168-.003-.252a5.536 5.536 0 00-1.624-3.789c-2.18-2.213-5.183-2.052-7.455-.712a1.42 1.42 0 00-1.56 0c-2.273-1.34-5.275-1.501-7.456.712z" clip-rule="evenodd"/>
          </g>
        </g>
      </g>
      <g class="symbol_6">
        <g class="♥ hearts_6">
          <g class="fill_4">
            <path fill="#F24E1E" d="M32.865 47.48c-1.728-1.755-4.173-1.712-6.112-.598a1.427 1.427 0 11-2.768 0c-1.94-1.114-4.384-1.157-6.113.597-.889.903-1.3 2.015-1.325 3.168a1.428 1.428 0 01.528 2.52c.264.603.62 1.183 1.055 1.713 1.777 2.166 4.143 4.058 6.448 5.724a1.42 1.42 0 011.581 0c2.305-1.666 4.671-3.558 6.449-5.724.435-.53.791-1.11 1.055-1.713a1.428 1.428 0 01.527-2.52c-.024-1.153-.436-2.265-1.325-3.168z"/>
            <path fill="#F24E1E" d="M24.976 47.748a.651.651 0 01.393-1.165.649.649 0 11-.393 1.165zM25.368 61.144h.035a.649.649 0 11-.035 0zM33.96 52.344a.646.646 0 01.177-.827.649.649 0 11-.177.827zM16.207 52.683a.649.649 0 100-1.298.649.649 0 000 1.298z"/>
          </g>
          <path fill="#fff" fill-rule="evenodd" d="M35.23 50.79c.014-1.44-.468-2.865-1.626-4.04-2.18-2.215-5.183-2.053-7.455-.713a1.42 1.42 0 00-1.56 0c-2.273-1.34-5.275-1.502-7.456.712-1.157 1.176-1.64 2.602-1.626 4.04a1.427 1.427 0 00.567 2.666 8.36 8.36 0 001.254 2.085c1.865 2.272 4.324 4.232 6.653 5.914a1.427 1.427 0 102.774 0c2.33-1.682 4.79-3.641 6.655-5.914a8.362 8.362 0 001.254-2.085 1.428 1.428 0 00.567-2.665zm-8.477-3.908c1.94-1.114 4.384-1.157 6.112.597a4.543 4.543 0 011.325 3.168 1.428 1.428 0 00-.527 2.52 7.357 7.357 0 01-1.055 1.713c-1.778 2.166-4.144 4.058-6.449 5.724a1.421 1.421 0 00-.79-.239 1.42 1.42 0 00-.791.239c-2.305-1.666-4.67-3.558-6.448-5.724a7.54 7.54 0 01-.559-.776 7.16 7.16 0 01-.496-.937 1.425 1.425 0 00.477-1.611 1.43 1.43 0 00-1.005-.909c.025-1.153.436-2.265 1.325-3.168 1.729-1.754 4.173-1.711 6.113-.597a1.431 1.431 0 00.069.906 1.428 1.428 0 002.699-.906zm-1.777.866a.65.65 0 11.787-1.033.65.65 0 01-.788 1.033zm.427 13.397l-.035-.001a.649.649 0 10.035 0zm8.557-8.8a.646.646 0 01.177-.828.649.649 0 11-.177.827zm-17.104-.311a.649.649 0 11-1.298 0 .649.649 0 011.298 0z" class="stroke_4" clip-rule="evenodd"/>
          <g class="stroke 2_4">
            <path fill="#F24E1E" d="M16.547 50.647zM23.985 46.882z"/>
            <path fill="#F24E1E" fill-rule="evenodd" d="M14.26 52.034c0-.616.286-1.164.73-1.52a6.054 6.054 0 011.774-4.129c2.31-2.345 5.445-2.232 7.832-.94a1.943 1.943 0 011.545 0c2.388-1.292 5.523-1.405 7.833.94a6.054 6.054 0 011.773 4.13 1.947 1.947 0 01-.717 3.402 8.903 8.903 0 01-1.219 1.952c-1.84 2.243-4.234 4.174-6.499 5.823l.003.1a1.947 1.947 0 11-3.89-.1c-2.265-1.65-4.658-3.58-6.498-5.823a8.906 8.906 0 01-1.219-1.953 1.947 1.947 0 01-1.447-1.882zm2.873-5.285a5.536 5.536 0 00-1.624 3.79 6.206 6.206 0 00-.002.25 1.426 1.426 0 00-.727 1.244 1.428 1.428 0 001.294 1.422 8.253 8.253 0 001.254 2.085c1.865 2.272 4.324 4.232 6.653 5.914a1.427 1.427 0 102.774 0c2.33-1.682 4.79-3.641 6.655-5.914a8.383 8.383 0 001.254-2.085 1.428 1.428 0 00.567-2.665c0-.084 0-.168-.003-.252a5.536 5.536 0 00-1.624-3.789c-2.18-2.214-5.183-2.053-7.455-.712a1.42 1.42 0 00-1.56 0c-2.273-1.34-5.275-1.501-7.456.712z" clip-rule="evenodd"/>
          </g>
        </g>
      </g>
      <g class="symbol_7">
        <g class="♥ hearts_7">
          <g class="fill_5">
            <path fill="#F24E1E" d="M57.802 96.058c-1.728 1.755-4.173 1.712-6.112.598a1.43 1.43 0 00-1.385-1.778 1.427 1.427 0 00-1.384 1.778c-1.94 1.114-4.384 1.156-6.112-.598-.889-.902-1.3-2.014-1.325-3.168a1.428 1.428 0 00.527-2.52 7.358 7.358 0 011.055-1.712c1.778-2.166 4.144-4.058 6.449-5.724a1.42 1.42 0 001.58 0c2.305 1.665 4.672 3.558 6.45 5.724.434.53.79 1.11 1.054 1.712a1.428 1.428 0 00.528 2.52c-.025 1.154-.436 2.266-1.325 3.168z"/>
            <path fill="#F24E1E" d="M49.912 95.79a.651.651 0 00.393 1.165.649.649 0 10-.393-1.166zM50.305 82.394l.035-.001a.649.649 0 10-.035 0zM58.897 91.194a.646.646 0 00.177.826.649.649 0 10-.177-.827zM41.144 90.855a.649.649 0 110 1.298.649.649 0 010-1.298z"/>
          </g>
          <path fill="#fff" fill-rule="evenodd" d="M60.167 92.748c.014 1.439-.468 2.865-1.626 4.04-2.181 2.214-5.183 2.053-7.455.713a1.42 1.42 0 01-1.56 0c-2.273 1.34-5.275 1.501-7.456-.713-1.158-1.175-1.64-2.601-1.627-4.04a1.427 1.427 0 01.568-2.666c.311-.75.74-1.457 1.253-2.084 1.866-2.273 4.325-4.232 6.654-5.915a1.428 1.428 0 112.774 0c2.33 1.682 4.789 3.642 6.654 5.915a8.36 8.36 0 011.254 2.084 1.428 1.428 0 01.567 2.666zm-8.477 3.908c1.939 1.114 4.384 1.157 6.112-.598a4.543 4.543 0 001.325-3.168 1.428 1.428 0 01-.528-2.52 7.358 7.358 0 00-1.054-1.712c-1.778-2.166-4.145-4.059-6.45-5.724a1.42 1.42 0 01-.79.239 1.42 1.42 0 01-.79-.239c-2.305 1.666-4.671 3.558-6.449 5.724-.204.248-.39.508-.558.775-.19.303-.357.617-.497.937a1.425 1.425 0 01.478 1.612 1.43 1.43 0 01-1.005.909c.024 1.153.436 2.265 1.325 3.167 1.728 1.754 4.173 1.712 6.112.598a1.43 1.43 0 011.384-1.778 1.427 1.427 0 011.385 1.778zm-1.778-.867a.65.65 0 10.787 1.033.65.65 0 00-.787-1.033zm.428-13.396h-.035a.649.649 0 11.035 0zm8.557 8.8a.646.646 0 00.177.827.649.649 0 10-.177-.827zm-17.104.31a.649.649 0 10-1.298 0 .649.649 0 001.298 0z" class="stroke_5" clip-rule="evenodd"/>
          <g class="stroke 2_5">
            <path fill="#F24E1E" d="M41.484 92.89zM48.921 96.656z"/>
            <path fill="#F24E1E" fill-rule="evenodd" d="M39.197 91.504c0 .615.286 1.163.73 1.52a6.054 6.054 0 001.773 4.129c2.31 2.344 5.445 2.231 7.833.94a1.942 1.942 0 001.545 0c2.388 1.291 5.523 1.404 7.832-.94a6.054 6.054 0 001.773-4.13 1.947 1.947 0 00-.718-3.402 8.907 8.907 0 00-1.217-1.953c-1.841-2.242-4.234-4.174-6.5-5.823.003-.033.003-.066.003-.1a1.947 1.947 0 10-3.89.1c-2.264 1.65-4.657 3.581-6.498 5.823a8.907 8.907 0 00-1.218 1.954c-.834.22-1.448.98-1.448 1.882zm2.873 5.284A5.537 5.537 0 0140.446 93a6.206 6.206 0 01-.003-.252 1.426 1.426 0 01.567-2.665c.028-.066.055-.13.084-.194.303-.678.7-1.319 1.17-1.891 1.866-2.273 4.325-4.232 6.654-5.915a1.428 1.428 0 112.774 0c2.33 1.682 4.789 3.642 6.654 5.915a8.38 8.38 0 011.254 2.084 1.428 1.428 0 01.567 2.665 5.537 5.537 0 01-1.627 4.04c-2.18 2.215-5.182 2.054-7.454.714a1.42 1.42 0 01-1.56 0c-2.273 1.34-5.275 1.501-7.456-.713z" clip-rule="evenodd"/>
          </g>
        </g>
      </g>
      <g class="symbol_8">
        <g class="♥ hearts_8">
          <g class="fill_6">
            <path fill="#F24E1E" d="M31.959 96.058c-1.729 1.755-4.173 1.712-6.113.598a1.43 1.43 0 00-1.384-1.778 1.427 1.427 0 00-1.384 1.778c-1.94 1.114-4.384 1.156-6.112-.598-.89-.902-1.3-2.014-1.325-3.168a1.428 1.428 0 00.527-2.52 7.355 7.355 0 011.055-1.712C19 86.492 21.367 84.6 23.67 82.934a1.421 1.421 0 001.581 0c2.305 1.665 4.671 3.558 6.45 5.724.434.53.79 1.11 1.054 1.712a1.428 1.428 0 00.527 2.52c-.024 1.154-.436 2.266-1.325 3.168z"/>
            <path fill="#F24E1E" d="M24.069 95.79a.651.651 0 00.393 1.165.649.649 0 10-.393-1.166zM24.462 82.394a.649.649 0 100-1.298.649.649 0 000 1.298zM33.054 91.194a.646.646 0 00.177.826.649.649 0 10-.177-.827zM15.3 90.855a.649.649 0 110 1.298.649.649 0 010-1.298z"/>
          </g>
          <path fill="#fff" fill-rule="evenodd" d="M34.324 92.748c.014 1.439-.469 2.865-1.627 4.04-2.18 2.214-5.182 2.053-7.455.713a1.421 1.421 0 01-1.56 0c-2.272 1.34-5.274 1.501-7.455-.713-1.158-1.175-1.64-2.601-1.627-4.04a1.427 1.427 0 01.567-2.666c.312-.75.74-1.457 1.254-2.084 1.865-2.273 4.324-4.232 6.653-5.915a1.427 1.427 0 112.774 0c2.33 1.682 4.79 3.642 6.655 5.915a8.363 8.363 0 011.254 2.084 1.428 1.428 0 01.567 2.666zm-8.478 3.908c1.94 1.114 4.384 1.157 6.113-.598a4.543 4.543 0 001.324-3.168 1.428 1.428 0 01-.527-2.52 7.358 7.358 0 00-1.055-1.712c-1.778-2.166-4.144-4.059-6.449-5.724a1.42 1.42 0 01-.79.239c-.293 0-.564-.088-.79-.239-2.305 1.666-4.671 3.558-6.45 5.724-.203.248-.39.508-.558.775-.19.303-.356.617-.496.937a1.425 1.425 0 01.478 1.612 1.43 1.43 0 01-1.005.909c.024 1.153.436 2.265 1.325 3.167 1.728 1.754 4.172 1.712 6.112.598a1.43 1.43 0 011.384-1.778 1.427 1.427 0 011.384 1.778zm-1.777-.867a.65.65 0 10.786 1.033.65.65 0 00-.786-1.033zm.427-13.396a.649.649 0 11-.07-1.296.649.649 0 01.07 1.296zm8.558 8.8a.646.646 0 00.177.827.649.649 0 10-.177-.827zm-17.105.31a.649.649 0 10-1.297 0 .649.649 0 001.297 0z" class="stroke_6" clip-rule="evenodd"/>
          <g class="stroke 2_6">
            <path fill="#F24E1E" d="M15.64 92.89zM23.078 96.656z"/>
            <path fill="#F24E1E" fill-rule="evenodd" d="M13.354 91.504c0 .615.286 1.163.73 1.52a6.055 6.055 0 001.773 4.129c2.31 2.344 5.445 2.231 7.833.94a1.943 1.943 0 001.544 0c2.388 1.291 5.523 1.404 7.833-.94a6.055 6.055 0 001.773-4.13 1.947 1.947 0 00-.718-3.402 8.907 8.907 0 00-1.218-1.953c-1.84-2.242-4.234-4.174-6.499-5.823a1.947 1.947 0 10-3.888 0c-2.264 1.65-4.657 3.581-6.497 5.823a8.903 8.903 0 00-1.218 1.954c-.834.22-1.448.98-1.448 1.882zm2.873 5.284A5.536 5.536 0 0114.603 93a6.394 6.394 0 01-.003-.252 1.426 1.426 0 01.567-2.665 8.382 8.382 0 011.254-2.085c1.865-2.273 4.324-4.232 6.653-5.915a1.427 1.427 0 112.774 0c2.33 1.682 4.79 3.642 6.655 5.915a8.38 8.38 0 011.254 2.084 1.428 1.428 0 01.567 2.665c0 .085 0 .169-.003.252a5.536 5.536 0 01-1.624 3.79c-2.18 2.213-5.182 2.052-7.455.712a1.421 1.421 0 01-1.56 0c-2.272 1.34-5.274 1.501-7.455-.713z" clip-rule="evenodd"/>
          </g>
        </g>
      </g>
      <g class="symbol_9">
        <g class="♥ hearts_9">
          <g class="fill_7">
            <path fill="#F24E1E" d="M58.255 10.755c-1.728-1.755-4.173-1.712-6.112-.598a1.43 1.43 0 01-1.384 1.778 1.427 1.427 0 01-1.384-1.778c-1.94-1.114-4.385-1.157-6.113.598-.889.902-1.3 2.014-1.325 3.167a1.428 1.428 0 01.528 2.52c.264.604.62 1.183 1.055 1.713 1.777 2.166 4.143 4.058 6.448 5.724a1.42 1.42 0 01.79-.239c.293 0 .565.088.791.24 2.305-1.666 4.671-3.56 6.449-5.725a7.36 7.36 0 001.055-1.713 1.428 1.428 0 01.528-2.52c-.025-1.153-.437-2.265-1.326-3.167z"/>
            <path fill="#F24E1E" d="M50.366 11.024a.65.65 0 01.393-1.165.649.649 0 11-.393 1.165zM50.758 24.419a.649.649 0 110 1.298.649.649 0 010-1.298zM59.35 15.62a.646.646 0 01.177-.827.649.649 0 11-.177.827zM41.597 15.958a.649.649 0 100-1.298.649.649 0 000 1.298z"/>
          </g>
          <path fill="#fff" fill-rule="evenodd" d="M60.62 14.065c.014-1.439-.468-2.865-1.626-4.04-2.18-2.214-5.183-2.053-7.455-.713a1.421 1.421 0 00-1.56 0c-2.273-1.34-5.275-1.501-7.456.712-1.157 1.176-1.64 2.602-1.626 4.04a1.427 1.427 0 00.567 2.666c.312.75.74 1.458 1.254 2.085 1.865 2.272 4.324 4.232 6.653 5.914a1.429 1.429 0 001.387 1.766 1.427 1.427 0 001.388-1.765c2.33-1.683 4.788-3.642 6.654-5.915a8.36 8.36 0 001.254-2.085 1.428 1.428 0 00.567-2.665zm-8.477-3.908c1.94-1.114 4.384-1.157 6.112.598a4.543 4.543 0 011.325 3.167 1.428 1.428 0 00-.527 2.52 7.364 7.364 0 01-1.055 1.713c-1.778 2.166-4.144 4.059-6.449 5.724a1.421 1.421 0 00-1.581 0c-2.305-1.666-4.67-3.558-6.448-5.724a7.544 7.544 0 01-.559-.776 7.173 7.173 0 01-.496-.937 1.425 1.425 0 00.477-1.611 1.43 1.43 0 00-1.005-.909c.025-1.153.437-2.265 1.325-3.168 1.728-1.754 4.173-1.71 6.113-.597a1.43 1.43 0 001.384 1.778 1.427 1.427 0 001.384-1.778zm-1.777.867a.649.649 0 11.786-1.033.649.649 0 01-.786 1.033zm.427 13.396l-.035-.001a.649.649 0 10.035 0zm8.557-8.8a.646.646 0 01.177-.827.649.649 0 11-.177.827zm-17.104-.311a.649.649 0 11-1.298 0 .649.649 0 011.298 0z" class="stroke_7" clip-rule="evenodd"/>
          <g class="stroke 2_7">
            <path fill="#F24E1E" d="M41.937 13.922zM49.375 10.157z"/>
            <path fill="#F24E1E" fill-rule="evenodd" d="M39.65 15.309c0-.615.286-1.164.73-1.52a6.055 6.055 0 011.774-4.129c2.31-2.345 5.445-2.232 7.832-.94a1.941 1.941 0 011.545 0c2.388-1.292 5.523-1.405 7.833.94a6.055 6.055 0 011.773 4.13 1.947 1.947 0 01-.718 3.402 8.906 8.906 0 01-1.218 1.952c-1.84 2.243-4.234 4.174-6.499 5.824a1.946 1.946 0 11-3.888 0c-2.264-1.65-4.657-3.581-6.497-5.824a8.899 8.899 0 01-1.218-1.953 1.947 1.947 0 01-1.448-1.882zm2.873-5.285a5.536 5.536 0 00-1.623 3.79 6.032 6.032 0 00-.003.25 1.426 1.426 0 00-.727 1.244 1.428 1.428 0 001.294 1.422 8.256 8.256 0 001.254 2.085c1.865 2.272 4.324 4.232 6.653 5.914a1.429 1.429 0 001.387 1.766 1.427 1.427 0 001.388-1.765c2.33-1.683 4.788-3.642 6.654-5.915a8.38 8.38 0 001.254-2.085 1.428 1.428 0 00.567-2.665c0-.084 0-.168-.003-.252a5.536 5.536 0 00-1.624-3.789c-2.18-2.213-5.183-2.052-7.455-.712a1.421 1.421 0 00-1.56 0c-2.273-1.34-5.275-1.501-7.456.712z" clip-rule="evenodd"/>
          </g>
        </g>
      </g>
      <g class="symbol_10">
        <g class="♥ hearts_10">
          <g class="fill_8">
            <path fill="#F24E1E" d="M57.802 47.933c-1.728-1.755-4.173-1.712-6.112-.598a1.427 1.427 0 11-2.768 0c-1.94-1.114-4.385-1.157-6.113.598-.889.902-1.3 2.014-1.325 3.167a1.428 1.428 0 01.527 2.52c.264.604.62 1.183 1.055 1.713 1.778 2.166 4.144 4.059 6.449 5.724a1.42 1.42 0 011.58 0c2.305-1.665 4.672-3.558 6.45-5.724.434-.53.79-1.11 1.054-1.712a1.428 1.428 0 01.528-2.52c-.025-1.154-.436-2.266-1.325-3.168z"/>
            <path fill="#F24E1E" d="M49.912 48.202a.651.651 0 01.393-1.165.649.649 0 11-.393 1.165zM50.305 61.597l.035.001a.649.649 0 11-.035 0zM58.897 52.797a.646.646 0 01.177-.826.649.649 0 11-.177.827zM41.144 53.136a.649.649 0 100-1.298.649.649 0 000 1.298z"/>
          </g>
          <path fill="#fff" fill-rule="evenodd" d="M60.167 51.243c.014-1.439-.468-2.865-1.626-4.04-2.181-2.214-5.183-2.053-7.455-.713a1.42 1.42 0 00-1.56 0c-2.273-1.34-5.275-1.501-7.456.713-1.158 1.175-1.64 2.601-1.627 4.04a1.427 1.427 0 00.568 2.666c.311.75.74 1.458 1.253 2.084 1.866 2.273 4.325 4.232 6.654 5.915a1.428 1.428 0 102.774 0c2.33-1.682 4.789-3.642 6.654-5.915A8.36 8.36 0 0059.6 53.91a1.428 1.428 0 00.567-2.666zm-8.477-3.908c1.939-1.114 4.384-1.157 6.112.598a4.543 4.543 0 011.325 3.167 1.428 1.428 0 00-.528 2.52 7.36 7.36 0 01-1.054 1.713c-1.778 2.166-4.145 4.059-6.45 5.724a1.42 1.42 0 00-.79-.239 1.42 1.42 0 00-.79.239c-2.305-1.665-4.671-3.558-6.449-5.724a7.555 7.555 0 01-.558-.775 7.16 7.16 0 01-.497-.937 1.425 1.425 0 00.478-1.612 1.43 1.43 0 00-1.005-.909c.024-1.153.436-2.265 1.325-3.167 1.728-1.755 4.173-1.712 6.112-.598a1.431 1.431 0 00.07.906 1.428 1.428 0 002.699-.906zm-1.778.867a.65.65 0 11.787-1.033.65.65 0 01-.787 1.033zm.428 13.396h-.035a.649.649 0 10.035 0zm8.557-8.8a.646.646 0 01.177-.827.649.649 0 11-.177.827zm-17.104-.31a.649.649 0 11-1.298 0 .649.649 0 011.298 0z" class="stroke_8" clip-rule="evenodd"/>
          <g class="stroke 2_8">
            <path fill="#F24E1E" d="M41.484 51.1zM48.921 47.335z"/>
            <path fill="#F24E1E" fill-rule="evenodd" d="M39.197 52.487c0-.615.286-1.163.73-1.52a6.054 6.054 0 011.773-4.129c2.31-2.344 5.445-2.232 7.833-.94a1.942 1.942 0 011.545 0c2.388-1.292 5.523-1.404 7.832.94a6.054 6.054 0 011.773 4.13 1.947 1.947 0 01-.718 3.402 8.903 8.903 0 01-1.217 1.953c-1.841 2.242-4.234 4.174-6.5 5.823.003.033.003.066.003.1a1.947 1.947 0 11-3.89-.1c-2.264-1.65-4.657-3.581-6.498-5.824a8.903 8.903 0 01-1.218-1.953 1.947 1.947 0 01-1.448-1.882zm2.873-5.284a5.536 5.536 0 00-1.624 3.788 6.206 6.206 0 00-.003.252 1.426 1.426 0 00-.727 1.244 1.428 1.428 0 001.295 1.422 8.253 8.253 0 001.253 2.084c1.866 2.273 4.325 4.232 6.654 5.915a1.429 1.429 0 001.387 1.765 1.427 1.427 0 001.387-1.765c2.33-1.682 4.789-3.642 6.654-5.915A8.38 8.38 0 0059.6 53.91a1.428 1.428 0 00.567-2.666 5.536 5.536 0 00-1.627-4.04c-2.18-2.214-5.182-2.053-7.454-.713a1.42 1.42 0 00-1.56 0c-2.273-1.34-5.275-1.501-7.456.713z" clip-rule="evenodd"/>
          </g>
        </g>
      </g>
    </g>
  </g>
</svg>
