<svg xmlns="http://www.w3.org/2000/svg" width="80" height="111" fill="none" viewBox="0 0 80 111">
  <g class="eigth_diamond">
    <rect width="78.991" height="110.588" x=".205" fill="#fff" class="bg" rx="3.62"/>
    <g class="down">
      <g class="letter">
        <path fill="#222" d="M66.611 87.505c-1.492 0-2.738.367-3.722 1.12-.983.75-1.475 1.753-1.475 3.006 0 1.904 1.13 3.357 3.377 4.36-1.902 1.035-2.853 2.255-2.853 3.674 0 1.12.443 2.022 1.345 2.69.902.668 2 1.019 3.328 1.019 1.345 0 2.46-.334 3.361-1.019.902-.685 1.345-1.587 1.345-2.69 0-1.403-.951-2.622-2.853-3.674 2.246-1.003 3.378-2.456 3.378-4.36 0-1.27-.492-2.272-1.476-3.007-.984-.735-2.23-1.119-3.755-1.119zm0 7.517c-2-.769-3-1.888-3-3.375 0-.935.279-1.586.836-1.987.557-.384 1.279-.585 2.164-.585.902 0 1.64.2 2.197.585.558.384.837 1.052.837 1.987 0 1.47-1.017 2.606-3.034 3.375zm0 6.798c-.721 0-1.312-.183-1.787-.551-.46-.367-.689-.902-.689-1.604 0-1.135.82-2.104 2.476-2.89 1.673.802 2.492 1.755 2.492 2.89 0 .702-.23 1.237-.688 1.604-.46.368-1.05.551-1.804.551z" class="Vector"/>
      </g>
      <g class="symbol">
        <path fill="#F24E1E" d="M64.922 77.15l2.473 2.88-2.473 2.888-2.472-2.888 2.472-2.88z" class="♦ diamonds"/>
      </g>
    </g>
    <g class="up">
      <g class="letter_2">
        <path fill="#222" d="M9.937 19.496c-1.492 0-2.738-.367-3.722-1.12-.984-.75-1.476-1.753-1.476-3.006 0-1.904 1.132-3.357 3.378-4.36-1.902-1.035-2.853-2.255-2.853-3.675 0-1.119.443-2.02 1.345-2.689.901-.668 2-1.019 3.328-1.019 1.345 0 2.46.334 3.361 1.02.902.684 1.345 1.586 1.345 2.688 0 1.404-.951 2.623-2.853 3.675 2.246 1.003 3.377 2.456 3.377 4.36 0 1.27-.491 2.272-1.475 3.007-.984.735-2.23 1.119-3.755 1.119zm0-7.517c-2 .769-3 1.888-3 3.374 0 .936.278 1.587.836 1.988.557.384 1.279.585 2.164.585.902 0 1.64-.2 2.197-.585.558-.384.836-1.052.836-1.988 0-1.47-1.016-2.605-3.033-3.374zm0-6.798c-.721 0-1.312.183-1.787.55-.46.368-.689.903-.689 1.604 0 1.136.82 2.105 2.476 2.89 1.672-.802 2.492-1.754 2.492-2.89 0-.701-.23-1.236-.688-1.603-.46-.368-1.05-.551-1.804-.551z" class="Vector_2"/>
      </g>
      <g class="symbol_2">
        <path fill="#F24E1E" d="M10.4 27.544l-2.473-2.88 2.472-2.889 2.473 2.889-2.473 2.88z" class="♦ diamonds_2"/>
      </g>
    </g>
    <g class="icons">
      <g class="symbol_3">
        <g class="♦ diamonds_3">
          <path fill="#F24E1E" d="M38.72 77.85l-5.68-6.617a1.745 1.745 0 00.046-2.726l5.638-6.587a1.74 1.74 0 001.03.337 1.74 1.74 0 001.032-.337l5.638 6.587c-.385.321-.63.804-.63 1.345 0 .561.264 1.061.675 1.38l-5.68 6.618a1.74 1.74 0 00-1.035-.34 1.74 1.74 0 00-1.034.34z" class="fill"/>
          <path fill="#fff" fill-rule="evenodd" d="M31.746 68.118l6.281-7.339a1.748 1.748 0 011.727-2.019h.001a1.748 1.748 0 011.727 2.018l6.282 7.34a1.748 1.748 0 011.524 1.78v.002a1.748 1.748 0 01-1.435 1.672l-6.37 7.422a1.748 1.748 0 01-1.727 2.012h-.002a1.748 1.748 0 01-1.727-2.013l-6.37-7.421a1.748 1.748 0 01-1.435-1.672h-.001v-.001-.047c0-.89.665-1.624 1.525-1.734zm6.974 9.731l-5.68-6.616a1.745 1.745 0 00.046-2.726l5.638-6.587a1.74 1.74 0 001.03.337 1.74 1.74 0 001.032-.337l5.638 6.587c-.385.321-.63.804-.63 1.345 0 .561.264 1.06.675 1.38l-5.68 6.618a1.74 1.74 0 00-1.035-.34 1.74 1.74 0 00-1.034.34zm1.034-16.546a.794.794 0 11-.001-1.588.794.794 0 01.001 1.588zm-.409 17.275a.794.794 0 10.817 1.361.794.794 0 00-.817-1.361zm-6.582-8.726a.793.793 0 11-1.589 0 .794.794 0 111.59 0zm14.329.655a.793.793 0 01.449-1.45.794.794 0 11-.45 1.45z" class="stroke" clip-rule="evenodd"/>
          <path fill="#F24E1E" fill-rule="evenodd" d="M29.585 69.852a1.654 1.654 0 00.002.098 2.384 2.384 0 001.722 2.193l6.062 7.063v.053a2.384 2.384 0 002.383 2.383h.001a2.383 2.383 0 002.382-2.435l6.064-7.064a2.384 2.384 0 001.721-2.193c.002-.022.003-.044.002-.067v-.031a2.384 2.384 0 00-1.822-2.317l-5.965-6.969v-.057a2.384 2.384 0 10-4.766.06l-5.963 6.966a2.384 2.384 0 00-1.823 2.317zm.637.048h-.001v-.001-.047c0-.89.665-1.624 1.525-1.734l6.281-7.339a1.748 1.748 0 011.727-2.019h.001a1.748 1.748 0 011.727 2.018l6.282 7.34a1.748 1.748 0 011.524 1.78v.002a1.748 1.748 0 01-1.435 1.672l-6.37 7.422a1.748 1.748 0 01-1.727 2.012h-.002a1.748 1.748 0 01-1.727-2.013l-6.37-7.421a1.748 1.748 0 01-1.435-1.672z" class="stroke 2" clip-rule="evenodd"/>
          <g class="dots">
            <path fill="#F24E1E" d="M39.754 59.714a.794.794 0 110 1.59.794.794 0 010-1.59zM31.969 69.057a.794.794 0 110 1.59.794.794 0 010-1.59zM47.541 69.057a.794.794 0 110 1.59.794.794 0 010-1.59zM40.549 79.259a.794.794 0 11-1.59 0 .794.794 0 011.59 0z"/>
          </g>
        </g>
      </g>
      <g class="symbol_4">
        <g class="♦ diamonds_4">
          <path fill="#F24E1E" d="M38.478 42.392l-5.774-6.727c.418-.325.687-.833.687-1.404 0-.55-.25-1.041-.641-1.367l5.731-6.697c.294.215.657.342 1.048.342a1.77 1.77 0 001.049-.342l5.732 6.697a1.773 1.773 0 00-.641 1.367c0 .57.269 1.079.687 1.404l-5.775 6.727a1.769 1.769 0 00-1.052-.344c-.393 0-.757.127-1.051.344z" class="fill_2"/>
          <path fill="#fff" fill-rule="evenodd" d="M31.387 32.498l6.386-7.46a1.777 1.777 0 011.756-2.052h.001a1.777 1.777 0 011.755 2.05l6.388 7.462a1.777 1.777 0 011.55 1.81v.002a1.778 1.778 0 01-1.46 1.7l-6.477 7.546a1.78 1.78 0 01-1.756 2.046 1.777 1.777 0 01-1.757-2.048l-6.476-7.544a1.778 1.778 0 01-1.46-1.7v-.001-.048c0-.905.676-1.651 1.55-1.763zm7.091 9.894l-5.774-6.727a1.774 1.774 0 00.046-2.771l5.731-6.697a1.77 1.77 0 001.048.342 1.77 1.77 0 001.049-.342l5.732 6.697a1.774 1.774 0 00.046 2.77l-5.774 6.728a1.769 1.769 0 00-1.053-.344c-.393 0-.757.127-1.051.344zm1.051-16.822a.807.807 0 11-.001-1.615.807.807 0 01.001 1.615zm-.416 17.562a.807.807 0 10.832 1.384.807.807 0 00-.832-1.384zm-6.691-8.871a.807.807 0 11-1.616 0 .808.808 0 111.616 0zm14.567.666a.807.807 0 11.912-1.331.807.807 0 01-.912 1.331z" class="stroke_2" clip-rule="evenodd"/>
          <path fill="#F24E1E" fill-rule="evenodd" d="M29.19 34.26a3.392 3.392 0 00.003.1 2.424 2.424 0 001.75 2.23l6.164 7.18v.055a2.423 2.423 0 002.422 2.423h.001a2.423 2.423 0 002.422-2.476l6.165-7.182a2.424 2.424 0 001.75-2.23c.002-.022.002-.044.002-.067v-.032c0-1.142-.79-2.1-1.853-2.356l-6.064-7.084v-.06a2.423 2.423 0 10-4.846.06l-6.062 7.084a2.424 2.424 0 00-1.853 2.356zm.648.05v-.001-.048c0-.905.675-1.651 1.55-1.763l6.385-7.46a1.777 1.777 0 011.756-2.052h.001a1.777 1.777 0 011.755 2.05l6.388 7.462a1.777 1.777 0 011.55 1.81v.002a1.778 1.778 0 01-1.46 1.7l-6.477 7.546a1.78 1.78 0 01-1.756 2.046 1.777 1.777 0 01-1.757-2.048l-6.476-7.544a1.778 1.778 0 01-1.46-1.7z" class="stroke 2_2" clip-rule="evenodd"/>
          <g class="dots_2">
            <path fill="#F24E1E" d="M39.53 23.954a.808.808 0 110 1.616.808.808 0 010-1.616zM31.614 33.453a.808.808 0 110 1.616.808.808 0 010-1.616zM47.446 33.453a.808.808 0 110 1.616.808.808 0 010-1.616zM40.337 43.825a.808.808 0 11-1.615 0 .808.808 0 011.615 0z"/>
          </g>
        </g>
      </g>
      <g class="symbol_5">
        <g class="♦ diamonds_5">
          <path fill="#F24E1E" d="M24.876 25.616l-5.774-6.727a1.774 1.774 0 00.046-2.77l5.732-6.697a1.77 1.77 0 001.047.341c.393 0 .755-.127 1.05-.342l5.732 6.698a1.774 1.774 0 00.046 2.77l-5.775 6.728a1.77 1.77 0 00-1.053-.345c-.393 0-.756.128-1.05.344z" class="fill_3"/>
          <path fill="#fff" fill-rule="evenodd" d="M17.785 15.723l6.387-7.462a1.777 1.777 0 011.756-2.052 1.777 1.777 0 011.756 2.051l6.387 7.463a1.777 1.777 0 011.55 1.81v.002a1.778 1.778 0 01-1.46 1.7l-6.477 7.545a1.78 1.78 0 01-1.756 2.046 1.777 1.777 0 01-1.757-2.047l-6.476-7.545a1.778 1.778 0 01-1.459-1.7v-.049c0-.904.675-1.65 1.55-1.762zm7.091 9.893l-5.774-6.727a1.774 1.774 0 00.046-2.77l5.732-6.697a1.77 1.77 0 001.047.341c.393 0 .755-.127 1.05-.342l5.732 6.698a1.774 1.774 0 00.046 2.77l-5.775 6.728a1.77 1.77 0 00-1.053-.345c-.393 0-.756.128-1.05.344zm1.051-16.822a.807.807 0 110-1.615.807.807 0 010 1.615zm-.415 17.563a.807.807 0 10.83 1.384.807.807 0 00-.83-1.384zm-6.692-8.872a.807.807 0 11-1.614.001.807.807 0 011.614 0zm14.567.667a.807.807 0 11.912-1.332.807.807 0 01-.912 1.332z" class="stroke_3" clip-rule="evenodd"/>
          <path fill="#F24E1E" fill-rule="evenodd" d="M15.59 17.485v.032a2.424 2.424 0 001.752 2.297l6.163 7.181v.054a2.423 2.423 0 002.422 2.423h.001a2.423 2.423 0 002.422-2.476l6.165-7.182a2.424 2.424 0 001.752-2.297v-.032c0-1.142-.79-2.099-1.853-2.355L28.35 8.045v-.059a2.423 2.423 0 10-4.846.06l-6.062 7.084a2.424 2.424 0 00-1.853 2.355zm.646.05v-.001-.049c0-.904.675-1.65 1.55-1.762l6.386-7.462a1.777 1.777 0 011.756-2.052 1.777 1.777 0 011.756 2.051l6.387 7.463a1.777 1.777 0 011.55 1.81v.002a1.778 1.778 0 01-1.46 1.7l-6.477 7.545a1.777 1.777 0 01-1.756 2.046 1.777 1.777 0 01-1.757-2.047l-6.476-7.545a1.778 1.778 0 01-1.459-1.7z" class="stroke 2_3" clip-rule="evenodd"/>
          <g class="dots_3">
            <path fill="#F24E1E" d="M25.927 7.179a.808.808 0 110 1.615.808.808 0 010-1.615zM18.012 16.678a.808.808 0 110 1.615.808.808 0 010-1.615zM33.844 16.678a.808.808 0 110 1.615.808.808 0 010-1.615zM26.735 27.049a.808.808 0 11-1.615 0 .808.808 0 011.615 0z"/>
          </g>
        </g>
      </g>
      <g class="symbol_6">
        <g class="♦ diamonds_6">
          <path fill="#F24E1E" d="M24.876 62.341l-5.774-6.727a1.774 1.774 0 00.046-2.77l5.732-6.697a1.77 1.77 0 001.047.341c.393 0 .755-.127 1.05-.342l5.732 6.697a1.774 1.774 0 00.046 2.77l-5.775 6.729a1.77 1.77 0 00-1.053-.345c-.393 0-.756.128-1.05.344z" class="fill_4"/>
          <path fill="#fff" fill-rule="evenodd" d="M17.785 52.448l6.387-7.462a1.777 1.777 0 011.756-2.052 1.777 1.777 0 011.756 2.051l6.387 7.463a1.777 1.777 0 011.55 1.81v.002a1.778 1.778 0 01-1.46 1.699l-6.477 7.546a1.78 1.78 0 01-1.756 2.046 1.777 1.777 0 01-1.757-2.047l-6.476-7.545a1.778 1.778 0 01-1.459-1.7v-.001-.048c0-.904.675-1.651 1.55-1.762zm7.091 9.893l-5.774-6.727a1.774 1.774 0 00.046-2.77l5.732-6.697a1.77 1.77 0 001.047.341c.393 0 .755-.127 1.05-.342l5.732 6.697a1.774 1.774 0 00.046 2.77l-5.775 6.729a1.77 1.77 0 00-1.053-.345c-.393 0-.756.128-1.05.344zm1.051-16.822a.805.805 0 01-.807-.808.808.808 0 11.807.808zm-.415 17.562a.807.807 0 10.83 1.385.807.807 0 00-.83-1.385zm-6.692-8.87a.807.807 0 11-1.614 0 .807.807 0 011.614 0zm14.567.666a.807.807 0 11.912-1.332.807.807 0 01-.912 1.332z" class="stroke_4" clip-rule="evenodd"/>
          <path fill="#F24E1E" fill-rule="evenodd" d="M15.59 54.21v.032c-.001.023 0 .045.001.068a2.424 2.424 0 001.75 2.23l6.164 7.18v.054a2.423 2.423 0 002.422 2.423h.001a2.423 2.423 0 002.422-2.476l6.165-7.182a2.424 2.424 0 001.75-2.23c.002-.022.003-.044.002-.067v-.032c0-1.142-.79-2.099-1.853-2.355L28.35 44.77v-.059a2.423 2.423 0 10-4.846.06l-6.062 7.084a2.424 2.424 0 00-1.853 2.355zm.646.05v-.002-.048c0-.904.675-1.651 1.55-1.762l6.386-7.462a1.777 1.777 0 011.756-2.052 1.777 1.777 0 011.756 2.051l6.387 7.463a1.777 1.777 0 011.55 1.81v.002a1.778 1.778 0 01-1.46 1.699l-6.477 7.546a1.777 1.777 0 01-1.756 2.046 1.777 1.777 0 01-1.757-2.047l-6.476-7.545a1.778 1.778 0 01-1.459-1.7z" class="stroke 2_4" clip-rule="evenodd"/>
          <g class="dots_4">
            <path fill="#F24E1E" d="M25.927 43.904a.808.808 0 110 1.615.808.808 0 010-1.615zM18.012 53.403a.808.808 0 110 1.615.808.808 0 010-1.615zM33.844 53.403a.808.808 0 110 1.615.808.808 0 010-1.615zM26.735 63.774a.808.808 0 11-1.615 0 .808.808 0 011.615 0z"/>
          </g>
        </g>
      </g>
      <g class="symbol_7">
        <g class="♦ diamonds_7">
          <path fill="#F24E1E" d="M49.602 97.706l-5.68-6.727c.412-.325.676-.833.676-1.404 0-.55-.245-1.041-.63-1.367l5.637-6.697a1.721 1.721 0 002.062 0l5.639 6.697c-.386.326-.631.817-.631 1.367 0 .57.264 1.079.676 1.404l-5.68 6.727a1.722 1.722 0 00-2.07 0z" class="fill_5"/>
          <path fill="#fff" fill-rule="evenodd" d="M42.627 87.812l6.282-7.46a1.822 1.822 0 01-.021-.276c0-.981.782-1.777 1.748-1.777.965 0 1.748.796 1.748 1.777 0 .093-.007.185-.021.274l6.283 7.462a1.768 1.768 0 011.524 1.81v.002a1.769 1.769 0 01-1.435 1.7l-6.371 7.546c.013.087.02.177.02.269 0 .981-.783 1.776-1.748 1.777-.966 0-1.748-.796-1.748-1.777 0-.092.007-.182.02-.27l-6.37-7.545a1.769 1.769 0 01-1.435-1.7v-.001-.048c0-.905.664-1.651 1.524-1.763zm6.975 9.894l-5.68-6.727c.412-.325.676-.833.676-1.404 0-.55-.245-1.041-.63-1.367l5.637-6.697a1.721 1.721 0 002.062 0l5.639 6.697c-.386.326-.631.817-.631 1.367 0 .57.264 1.079.676 1.404l-5.68 6.727a1.722 1.722 0 00-2.07 0zm1.034-16.822a.782.782 0 01-.407-.114.81.81 0 01-.388-.694c0-.446.356-.808.795-.808.438 0 .794.362.794.808a.81.81 0 01-.387.694.781.781 0 01-.407.114zm-.41 17.562a.81.81 0 00-.385.693c0 .446.356.807.795.807a.801.801 0 00.794-.807.81.81 0 00-.384-.692.78.78 0 00-.82 0zm-6.581-8.871a.81.81 0 01-.346.666.782.782 0 01-.449.142.801.801 0 01-.794-.808c0-.446.355-.808.794-.808.188 0 .361.067.497.178a.811.811 0 01.298.63zm14.328.666a.81.81 0 01-.345-.666c0-.255.116-.482.298-.63a.783.783 0 01.496-.178c.44 0 .795.362.795.808a.801.801 0 01-.794.808.783.783 0 01-.45-.142z" class="stroke_5" clip-rule="evenodd"/>
          <path fill="#F24E1E" fill-rule="evenodd" d="M40.467 89.575v.032a2.417 2.417 0 001.723 2.297l6.063 7.18v.055c0 1.338 1.066 2.423 2.383 2.423 1.317-.001 2.383-1.085 2.383-2.423v-.053l6.064-7.182a2.417 2.417 0 001.723-2.329c0-1.142-.777-2.1-1.823-2.356l-5.964-7.084v-.059c0-1.338-1.066-2.423-2.382-2.423h-.001c-1.317 0-2.384 1.085-2.384 2.423l.001.06-5.963 7.083a2.416 2.416 0 00-1.823 2.356zm.636.05v-.002-.048c0-.905.664-1.651 1.524-1.763l6.282-7.46a1.822 1.822 0 01-.021-.276c0-.981.782-1.777 1.748-1.777.965 0 1.748.796 1.748 1.777 0 .093-.007.185-.021.274l6.283 7.462a1.768 1.768 0 011.524 1.81v.002a1.769 1.769 0 01-1.435 1.7l-6.371 7.546c.013.087.02.177.02.269 0 .981-.783 1.776-1.748 1.777-.966 0-1.748-.796-1.748-1.777 0-.092.007-.182.02-.27l-6.37-7.545a1.769 1.769 0 01-1.435-1.7z" class="stroke 2_5" clip-rule="evenodd"/>
          <g class="dots_5">
            <path fill="#F24E1E" d="M50.636 79.268c.439 0 .794.362.794.808a.801.801 0 01-.794.808.801.801 0 01-.795-.808c0-.446.356-.808.795-.808zM42.85 88.767c.44 0 .795.362.795.808a.801.801 0 01-.795.808.801.801 0 01-.794-.808c0-.446.355-.808.794-.808zM58.422 88.767c.44 0 .795.362.795.808a.801.801 0 01-.794.808.801.801 0 01-.795-.808c0-.446.356-.808.794-.808zM51.43 99.139a.801.801 0 01-.794.807.801.801 0 01-.795-.807c0-.447.356-.808.795-.808.439 0 .794.361.794.808z"/>
          </g>
        </g>
      </g>
      <g class="symbol_8">
        <g class="♦ diamonds_8">
          <path fill="#F24E1E" d="M23.758 97.706l-5.68-6.727c.412-.325.677-.833.677-1.404 0-.55-.246-1.041-.631-1.367l5.638-6.697a1.72 1.72 0 002.062 0l5.638 6.697c-.385.326-.63.817-.63 1.367 0 .57.264 1.079.675 1.404l-5.68 6.727a1.721 1.721 0 00-2.069 0z" class="fill_6"/>
          <path fill="#fff" fill-rule="evenodd" d="M16.784 87.812l6.281-7.46a1.822 1.822 0 01-.02-.276c0-.981.782-1.777 1.747-1.777h.001c.965 0 1.747.796 1.747 1.777 0 .093-.007.185-.02.274l6.282 7.462a1.768 1.768 0 011.524 1.81l.001.001v.001a1.769 1.769 0 01-1.436 1.7l-6.37 7.546c.012.087.02.177.02.269 0 .981-.783 1.776-1.748 1.777-.966 0-1.748-.796-1.748-1.777 0-.092.006-.182.02-.27l-6.37-7.545a1.769 1.769 0 01-1.435-1.7h-.001v-.001-.048c0-.905.665-1.651 1.525-1.763zm6.974 9.894l-5.68-6.727c.412-.325.677-.833.677-1.404 0-.55-.246-1.041-.631-1.367l5.638-6.697a1.72 1.72 0 002.062 0l5.638 6.697c-.385.326-.63.817-.63 1.367 0 .57.264 1.079.675 1.404l-5.68 6.727a1.721 1.721 0 00-2.069 0zm1.034-16.822a.782.782 0 01-.406-.114.81.81 0 01-.388-.694c0-.446.356-.808.794-.808.44 0 .795.362.795.808a.81.81 0 01-.387.694.782.782 0 01-.408.114zm-.409 17.562a.81.81 0 00-.385.693c0 .446.356.807.794.807a.801.801 0 00.795-.807.81.81 0 00-.385-.692.78.78 0 00-.819 0zm-6.582-8.871a.81.81 0 01-.345.666.782.782 0 01-.45.142.801.801 0 01-.794-.808c0-.446.356-.808.795-.808.188 0 .36.067.497.178a.812.812 0 01.297.63zm14.329.666a.81.81 0 01-.345-.666c0-.255.116-.482.297-.63a.783.783 0 01.497-.178c.439 0 .795.362.795.808a.801.801 0 01-.795.808.782.782 0 01-.449-.142z" class="stroke_6" clip-rule="evenodd"/>
          <path fill="#F24E1E" fill-rule="evenodd" d="M14.623 89.575v.032a2.417 2.417 0 001.723 2.297l6.064 7.18-.001.055c0 1.338 1.067 2.423 2.383 2.423h.001c1.316-.001 2.383-1.085 2.383-2.423v-.053l6.063-7.182a2.417 2.417 0 001.723-2.297v-.032c0-1.142-.776-2.1-1.822-2.356l-5.965-7.084v-.059c0-1.338-1.066-2.423-2.382-2.423-1.317 0-2.384 1.085-2.384 2.423v.06l-5.963 7.083a2.416 2.416 0 00-1.823 2.356zm.637.05l-.001-.002v-.048c0-.905.665-1.651 1.525-1.763l6.281-7.46a1.822 1.822 0 01-.02-.276c0-.981.782-1.777 1.747-1.777h.001c.965 0 1.747.796 1.747 1.777 0 .093-.007.185-.02.274l6.282 7.462a1.768 1.768 0 011.524 1.81l.001.001v.001a1.769 1.769 0 01-1.436 1.7l-6.37 7.546c.012.087.02.177.02.269 0 .981-.783 1.776-1.748 1.777-.966 0-1.748-.796-1.748-1.777 0-.092.006-.182.02-.27l-6.37-7.545a1.769 1.769 0 01-1.435-1.7z" class="stroke 2_6" clip-rule="evenodd"/>
          <g class="dots_6">
            <path fill="#F24E1E" d="M24.792 79.268c.44 0 .795.362.795.808a.801.801 0 01-.795.808.801.801 0 01-.794-.808c0-.446.356-.808.794-.808zM17.007 88.767c.439 0 .794.362.794.808a.801.801 0 01-.794.808.801.801 0 01-.795-.808c0-.446.356-.808.795-.808zM32.58 88.767c.438 0 .794.362.794.808a.801.801 0 01-.795.808.801.801 0 01-.794-.808c0-.446.355-.808.794-.808zM25.587 99.139a.801.801 0 01-.795.807.801.801 0 01-.794-.807c0-.447.356-.808.794-.808.44 0 .795.361.795.808z"/>
          </g>
        </g>
      </g>
      <g class="symbol_9">
        <g class="♦ diamonds_9">
          <path fill="#F24E1E" d="M50.055 25.616l-5.68-6.727c.412-.325.677-.833.677-1.404 0-.55-.246-1.04-.631-1.366l5.638-6.697a1.721 1.721 0 002.062 0l5.638 6.697c-.386.325-.631.817-.631 1.366 0 .571.265 1.08.676 1.404l-5.68 6.728a1.722 1.722 0 00-2.069 0z" class="fill_7"/>
          <path fill="#fff" fill-rule="evenodd" d="M43.08 15.723l6.282-7.462a1.821 1.821 0 01-.02-.275c0-.981.782-1.777 1.747-1.777.966 0 1.748.796 1.748 1.777 0 .094-.007.185-.02.274l6.282 7.463a1.768 1.768 0 011.524 1.81v.002a1.769 1.769 0 01-1.435 1.7l-6.37 7.545c.012.088.02.178.02.269 0 .981-.783 1.777-1.748 1.777-.966 0-1.749-.796-1.749-1.777 0-.092.007-.182.02-.27l-6.37-7.545a1.769 1.769 0 01-1.434-1.7h-.001v-.049c0-.904.665-1.65 1.525-1.762zm6.975 9.893l-5.68-6.727c.412-.325.677-.833.677-1.404 0-.55-.246-1.04-.631-1.366l5.638-6.697a1.721 1.721 0 002.062 0l5.638 6.697c-.386.325-.631.817-.631 1.366 0 .571.265 1.08.676 1.404l-5.68 6.728a1.722 1.722 0 00-2.069 0zm1.034-16.822a.781.781 0 01-.406-.114.81.81 0 01-.388-.694c0-.446.355-.807.794-.807.439 0 .795.361.795.807a.81.81 0 01-.388.694.78.78 0 01-.407.114zm-.409 17.563a.81.81 0 00-.385.692c0 .446.355.808.794.808a.801.801 0 00.795-.808.81.81 0 00-.385-.692.78.78 0 00-.819 0zm-6.582-8.872a.81.81 0 01-.345.667.782.782 0 01-.45.141.801.801 0 01-.794-.808c0-.446.356-.807.795-.807.188 0 .36.066.496.177a.811.811 0 01.298.63zm14.329.667a.81.81 0 01-.346-.667c0-.255.117-.482.298-.63a.783.783 0 01.497-.177c.439 0 .794.361.794.807a.801.801 0 01-.794.808.783.783 0 01-.45-.141z" class="stroke_7" clip-rule="evenodd"/>
          <path fill="#F24E1E" fill-rule="evenodd" d="M40.92 17.485v.032a2.417 2.417 0 001.723 2.297l6.063 7.181v.054c0 1.338 1.067 2.423 2.383 2.423h.001c1.316 0 2.383-1.085 2.383-2.423v-.052l6.063-7.183a2.417 2.417 0 001.723-2.297v-.032c0-1.142-.776-2.099-1.823-2.355l-5.964-7.085v-.059c0-1.338-1.066-2.422-2.382-2.423-1.317 0-2.384 1.085-2.384 2.423v.06l-5.963 7.084a2.416 2.416 0 00-1.823 2.355zm.636.05v-.001-.049c0-.904.665-1.65 1.525-1.762l6.281-7.462a1.82 1.82 0 01-.02-.275c0-.981.782-1.777 1.747-1.777.966 0 1.748.796 1.748 1.777 0 .093-.007.185-.02.274l6.282 7.463a1.768 1.768 0 011.524 1.81v.002a1.769 1.769 0 01-1.435 1.7l-6.37 7.545c.012.088.02.178.02.269 0 .981-.783 1.777-1.748 1.777-.966 0-1.749-.796-1.749-1.777 0-.092.007-.182.02-.27l-6.37-7.545a1.769 1.769 0 01-1.434-1.7z" class="stroke 2_7" clip-rule="evenodd"/>
          <g class="dots_7">
            <path fill="#F24E1E" d="M51.09 7.179c.438 0 .794.361.794.807a.801.801 0 01-.795.808.801.801 0 01-.794-.808c0-.446.355-.807.794-.807zM43.304 16.678c.438 0 .794.361.794.807a.801.801 0 01-.794.808.801.801 0 01-.795-.808c0-.446.356-.807.795-.807zM58.876 16.678c.439 0 .794.361.794.807a.801.801 0 01-.794.808.801.801 0 01-.795-.808c0-.446.356-.807.795-.807zM51.884 27.049a.801.801 0 01-.795.808.801.801 0 01-.794-.808c0-.446.355-.808.794-.808.439 0 .795.362.795.808z"/>
          </g>
        </g>
      </g>
      <g class="symbol_10">
        <g class="♦ diamonds_10">
          <path fill="#F24E1E" d="M49.602 62.794l-5.68-6.726c.412-.326.676-.834.676-1.404 0-.55-.245-1.041-.63-1.367l5.637-6.697a1.721 1.721 0 002.062 0l5.639 6.697c-.386.326-.631.817-.631 1.367 0 .57.264 1.078.676 1.404l-5.68 6.727a1.722 1.722 0 00-2.07 0z" class="fill_8"/>
          <path fill="#fff" fill-rule="evenodd" d="M42.627 52.901l6.282-7.461a1.822 1.822 0 01-.021-.275c0-.982.782-1.777 1.748-1.777.965 0 1.748.795 1.748 1.777 0 .093-.007.184-.021.273l6.283 7.463a1.768 1.768 0 011.524 1.81v.001a1.769 1.769 0 01-1.435 1.7l-6.371 7.546c.013.088.02.178.02.27 0 .98-.783 1.776-1.748 1.776-.966 0-1.748-.795-1.748-1.777 0-.092.007-.182.02-.27l-6.37-7.545a1.769 1.769 0 01-1.435-1.7v-.048c0-.905.664-1.652 1.524-1.763zm6.975 9.893l-5.68-6.726c.412-.326.676-.834.676-1.404 0-.55-.245-1.041-.63-1.367l5.637-6.697a1.72 1.72 0 002.062 0l5.639 6.697c-.386.326-.631.817-.631 1.367 0 .57.264 1.078.676 1.404l-5.68 6.727a1.722 1.722 0 00-2.07 0zm1.034-16.822a.782.782 0 01-.407-.113.81.81 0 01-.388-.694c0-.447.356-.808.795-.808.438 0 .794.361.794.808a.81.81 0 01-.387.693.781.781 0 01-.407.114zm-.41 17.563a.81.81 0 00-.385.692c0 .446.356.808.795.808a.801.801 0 00.794-.808.81.81 0 00-.384-.692.78.78 0 00-.82 0zm-6.581-8.871a.81.81 0 01-.346.666.782.782 0 01-.449.141.801.801 0 01-.794-.807c0-.446.355-.808.794-.808.188 0 .361.066.497.177a.811.811 0 01.298.63zm14.328.666a.81.81 0 01-.345-.666c0-.255.116-.483.298-.63a.783.783 0 01.496-.178c.44 0 .795.362.795.808a.801.801 0 01-.794.807.783.783 0 01-.45-.14z" class="stroke_8" clip-rule="evenodd"/>
          <path fill="#F24E1E" fill-rule="evenodd" d="M40.467 54.664v.032a2.417 2.417 0 001.723 2.297l6.063 7.18v.054c0 1.339 1.066 2.423 2.383 2.423s2.383-1.085 2.383-2.423v-.052l6.064-7.182a2.417 2.417 0 001.723-2.33c0-1.142-.777-2.098-1.823-2.355l-5.964-7.085v-.058c0-1.338-1.066-2.423-2.382-2.424h-.001c-1.317 0-2.384 1.085-2.384 2.424l.001.06-5.963 7.083a2.416 2.416 0 00-1.823 2.356zm.636.049v-.002-.047c0-.905.664-1.652 1.524-1.763l6.282-7.461a1.822 1.822 0 01-.021-.275c0-.982.782-1.777 1.748-1.777.965 0 1.748.795 1.748 1.777 0 .093-.007.184-.021.273l6.283 7.463a1.768 1.768 0 011.524 1.81v.001a1.769 1.769 0 01-1.435 1.7l-6.371 7.546c.013.088.02.178.02.27 0 .98-.783 1.776-1.748 1.776-.966 0-1.748-.795-1.748-1.777 0-.092.007-.182.02-.27l-6.37-7.545a1.769 1.769 0 01-1.435-1.7z" class="stroke 2_8" clip-rule="evenodd"/>
          <g class="dots_8">
            <path fill="#F24E1E" d="M50.636 44.357c.439 0 .794.361.794.808a.801.801 0 01-.794.807.801.801 0 01-.795-.807c0-.447.356-.808.795-.808zM42.85 53.856c.44 0 .795.362.795.808a.801.801 0 01-.795.807.801.801 0 01-.794-.807c0-.446.355-.808.794-.808zM58.422 53.856c.44 0 .795.362.795.808a.801.801 0 01-.794.807.801.801 0 01-.795-.807c0-.446.356-.808.794-.808zM51.43 64.227a.801.801 0 01-.794.808.801.801 0 01-.795-.808c0-.446.356-.807.795-.807.439 0 .794.361.794.807z"/>
          </g>
        </g>
      </g>
    </g>
  </g>
</svg>
