<svg xmlns="http://www.w3.org/2000/svg" width="80" height="112" fill="none" viewBox="0 0 80 112">
  <g class="eight_clubs">
    <rect width="74.81" height="104.734" x=".205" y=".938" fill="#fff" rx="3.62"/>
    <rect width="78.991" height="110.588" x=".205" y=".938" fill="#fff" class="bg" rx="3.62"/>
    <g class="down">
      <g class="letter">
        <path fill="#222" d="M66.611 88.443c-1.492 0-2.738.367-3.722 1.119-.983.751-1.475 1.754-1.475 3.006 0 1.905 1.13 3.358 3.377 4.36-1.902 1.036-2.853 2.255-2.853 3.675 0 1.119.443 2.021 1.345 2.689.902.669 2 1.019 3.328 1.019 1.345 0 2.46-.334 3.361-1.019.902-.685 1.345-1.586 1.345-2.689 0-1.403-.951-2.622-2.853-3.675 2.246-1.002 3.378-2.455 3.378-4.36 0-1.27-.492-2.271-1.476-3.006-.984-.735-2.23-1.12-3.755-1.12zm0 7.516c-2-.768-3-1.887-3-3.374 0-.935.279-1.587.836-1.988.557-.384 1.279-.584 2.164-.584.902 0 1.64.2 2.197.584.558.385.837 1.053.837 1.988 0 1.47-1.017 2.606-3.034 3.374zm0 6.799c-.721 0-1.312-.184-1.787-.551-.46-.368-.689-.902-.689-1.604 0-1.136.82-2.105 2.476-2.89 1.673.802 2.492 1.754 2.492 2.89 0 .702-.23 1.236-.688 1.604-.46.367-1.05.551-1.804.551z" class="Vector"/>
      </g>
      <g class="symbol">
        <path fill="#2C2C2C" d="M63.223 81.826l.125-.47-.484-.032a1.75 1.75 0 111.691-2.517l.359.728.359-.728a1.75 1.75 0 111.691 2.517l-.484.033.125.469a1.752 1.752 0 01-1.691 2.201 1.75 1.75 0 01-1.69-2.201z" class="♣ club"/>
      </g>
    </g>
    <g class="up">
      <g class="letter_2">
        <path fill="#222" d="M9.937 20.433c-1.492 0-2.738-.367-3.722-1.119-.984-.751-1.476-1.754-1.476-3.006 0-1.905 1.132-3.358 3.378-4.36-1.902-1.036-2.853-2.255-2.853-3.675 0-1.12.443-2.021 1.345-2.69.901-.667 2-1.018 3.328-1.018 1.345 0 2.46.334 3.361 1.019.902.685 1.345 1.587 1.345 2.689 0 1.403-.951 2.623-2.853 3.675 2.246 1.002 3.377 2.455 3.377 4.36 0 1.27-.491 2.271-1.475 3.006-.984.735-2.23 1.12-3.755 1.12zm0-7.516c-2 .768-3 1.887-3 3.374 0 .935.278 1.587.836 1.988.557.384 1.279.584 2.164.584.902 0 1.64-.2 2.197-.584.558-.384.836-1.053.836-1.988 0-1.47-1.016-2.606-3.033-3.374zm0-6.799c-.721 0-1.312.184-1.787.551-.46.368-.689.902-.689 1.604 0 1.136.82 2.105 2.476 2.89 1.672-.802 2.492-1.754 2.492-2.89 0-.702-.23-1.236-.688-1.604-.46-.367-1.05-.55-1.804-.55z" class="Vector_2"/>
      </g>
      <g class="symbol_2">
        <path fill="#2C2C2C" d="M12.098 24.743l-.125.469.485.033a1.75 1.75 0 11-1.692 2.517l-.358-.729-.36.729a1.75 1.75 0 11-1.69-2.517l.484-.033-.125-.47a1.752 1.752 0 011.69-2.2 1.75 1.75 0 011.691 2.2z" class="♣ club_2"/>
      </g>
    </g>
    <g class="icons">
      <g class="symbol_3">
        <g class="♣ clubs">
          <g class="fill">
            <path fill="#2C2C2C" d="M46.043 68.823a1.493 1.493 0 10-1.517 2.21 4.753 4.753 0 11-9.459 0 1.494 1.494 0 10-1.516-2.21 4.753 4.753 0 115.134-7.002 1.494 1.494 0 102.224 0 4.753 4.753 0 115.134 7.002z"/>
            <path fill="#2C2C2C" d="M44.74 68.875a.676.676 0 00-.679.68.678.678 0 10.68-.68zM40.476 62.819a.677.677 0 00-.679-.68.68.68 0 10.68.68zM34.854 68.875a.676.676 0 00-.679.68.679.679 0 10.68-.68z"/>
          </g>
          <path fill="#fff" fill-rule="evenodd" d="M39.136 60.554c.193.244.367.504.52.778a1.537 1.537 0 01.283 0 5.829 5.829 0 015.1-2.994 5.84 5.84 0 011.154 11.564 1.495 1.495 0 01-.602.88 5.899 5.899 0 01.045.728 5.84 5.84 0 11-11.633-.728 1.495 1.495 0 01-.602-.88 5.842 5.842 0 01-4.685-5.725 5.84 5.84 0 0110.42-3.623zm5.604 8.321a.676.676 0 00-.679.68.678.678 0 10.68-.68zm-1.494.68c0 .752.557 1.374 1.28 1.478a4.753 4.753 0 11-9.459 0 1.494 1.494 0 10-1.516-2.21 4.753 4.753 0 115.134-7.002 1.494 1.494 0 102.224 0 4.753 4.753 0 115.134 7.002 1.493 1.493 0 00-2.797.731zm-2.77-6.736a.677.677 0 00-.679-.68.68.68 0 10.68.68zm-5.914 6.122a.676.676 0 01.665.045.682.682 0 01.306.568.678.678 0 11-.97-.613z" class="stroke" clip-rule="evenodd"/>
          <path fill="#2C2C2C" fill-rule="evenodd" d="M39.561 60.217c.082.103.16.21.236.318a6.372 6.372 0 015.242-2.74 6.382 6.382 0 011.615 12.558l-.045.011a2.04 2.04 0 01-.448.65l.001.025a6.382 6.382 0 11-12.73 0l.002-.025a2.037 2.037 0 01-.449-.65l-.044-.011a6.382 6.382 0 116.62-10.136zm.898.337a5.86 5.86 0 00-.52.778 1.535 1.535 0 00-.283 0 5.853 5.853 0 00-.52-.778 5.84 5.84 0 10-5.734 9.348c.086.362.304.674.601.88a5.883 5.883 0 00-.045.728 5.84 5.84 0 1011.634-.728c.296-.206.515-.518.601-.88a5.842 5.842 0 004.685-5.725 5.84 5.84 0 00-10.419-3.623z" class="stroke 2" clip-rule="evenodd"/>
        </g>
      </g>
      <g class="symbol_4">
        <g class="♣ clubs_2">
          <g class="fill_2">
            <path fill="#2C2C2C" d="M45.635 35.339a1.493 1.493 0 11-1.516-2.21 4.753 4.753 0 10-9.459 0 1.494 1.494 0 11-1.517 2.21 4.753 4.753 0 105.134 7.002 1.494 1.494 0 112.224 0 4.753 4.753 0 105.134-7.002z"/>
            <path fill="#2C2C2C" d="M44.332 35.287a.675.675 0 01-.679-.68.678.678 0 11.68.68zM40.068 41.343a.677.677 0 01-.679.679.68.68 0 11.68-.679zM34.447 35.287a.677.677 0 01-.68-.68.679.679 0 11.68.68z"/>
          </g>
          <path fill="#fff" fill-rule="evenodd" d="M38.728 43.608c.193-.244.367-.504.52-.778a1.503 1.503 0 00.283 0 5.829 5.829 0 005.1 2.994 5.84 5.84 0 001.154-11.564 1.496 1.496 0 00-.601-.88 5.899 5.899 0 00.044-.728 5.84 5.84 0 10-11.633.728 1.496 1.496 0 00-.602.88 5.842 5.842 0 00-4.685 5.725 5.84 5.84 0 0010.42 3.623zm5.604-8.321a.675.675 0 01-.679-.68.678.678 0 11.68.68zm-1.493-.68c0-.752.556-1.374 1.28-1.478a4.753 4.753 0 10-9.459 0 1.494 1.494 0 11-1.517 2.21 4.753 4.753 0 105.134 7.002 1.494 1.494 0 112.224 0 4.753 4.753 0 105.134-7.002 1.493 1.493 0 01-2.796-.731zm-2.77 6.736a.677.677 0 01-.68.679.679.679 0 11.68-.679zm-5.915-6.122a.677.677 0 00.911-.333.677.677 0 00-.221-.831.679.679 0 10-.69 1.164z" class="stroke_2" clip-rule="evenodd"/>
          <path fill="#2C2C2C" fill-rule="evenodd" d="M39.153 43.945c.082-.103.16-.21.236-.318a6.372 6.372 0 005.242 2.74 6.382 6.382 0 001.57-12.57 2.042 2.042 0 00-.448-.65c0-.007 0-.015.002-.024a6.382 6.382 0 10-12.728.024 2.04 2.04 0 00-.45.65l-.044.012a6.382 6.382 0 106.62 10.136zm.898-.337a5.875 5.875 0 01-.52-.778 1.5 1.5 0 01-.283 0 5.784 5.784 0 01-.52.778 5.84 5.84 0 11-5.734-9.348c.086-.362.304-.673.601-.88a5.784 5.784 0 01-.045-.728 5.84 5.84 0 1111.634.728c.296.206.515.518.601.88a5.842 5.842 0 014.685 5.725 5.84 5.84 0 01-10.419 3.623z" class="stroke 2_2" clip-rule="evenodd"/>
        </g>
      </g>
      <g class="symbol_5">
        <g class="♣ clubs_3">
          <g class="fill_3">
            <path fill="#2C2C2C" d="M33.4 20.248a1.493 1.493 0 11-1.517-2.21 4.753 4.753 0 10-9.459 0 1.494 1.494 0 11-1.516 2.21 4.753 4.753 0 105.134 7.002 1.494 1.494 0 112.224 0 4.753 4.753 0 105.134-7.002z"/>
            <path fill="#2C2C2C" d="M32.096 20.196a.675.675 0 01-.618-.399.677.677 0 01.221-.83.679.679 0 11.397 1.23zM27.833 26.252a.677.677 0 01-.68.68.68.68 0 11.68-.68zM22.21 20.196a.676.676 0 01-.678-.679.679.679 0 11.679.679z"/>
          </g>
          <path fill="#fff" fill-rule="evenodd" d="M26.492 28.517c.193-.244.367-.504.52-.777a1.5 1.5 0 00.283 0 5.829 5.829 0 005.1 2.994 5.84 5.84 0 001.155-11.565 1.496 1.496 0 00-.602-.88 5.899 5.899 0 00.045-.727 5.839 5.839 0 10-11.634.727 1.496 1.496 0 00-.601.88 5.842 5.842 0 00-4.685 5.725 5.84 5.84 0 0010.419 3.623zm5.604-8.321a.675.675 0 01-.618-.399.677.677 0 01.221-.83.679.679 0 11.397 1.23zm-1.493-.679c0-.752.556-1.375 1.28-1.479a4.753 4.753 0 10-9.459 0 1.494 1.494 0 11-1.516 2.21 4.753 4.753 0 105.134 7.002 1.494 1.494 0 112.224 0 4.753 4.753 0 105.134-7.002 1.493 1.493 0 01-2.797-.731zm-2.77 6.735a.68.68 0 11-.364-.602c.216.114.364.341.364.602zm-5.914-6.122a.677.677 0 00.91-.332.677.677 0 00-.221-.832.679.679 0 10-.69 1.164z" class="stroke_3" clip-rule="evenodd"/>
          <path fill="#2C2C2C" fill-rule="evenodd" d="M26.918 28.854c.082-.103.16-.209.236-.317a6.372 6.372 0 005.242 2.74 6.382 6.382 0 001.57-12.57 2.042 2.042 0 00-.449-.65l.002-.024a6.382 6.382 0 10-12.73 0l.001.024a2.042 2.042 0 00-.449.65l-.044.011a6.382 6.382 0 106.62 10.136zm.897-.337a5.858 5.858 0 01-.345-.484l-.036-.058a5.901 5.901 0 01-.139-.236 1.503 1.503 0 01-.283 0c-.044.08-.09.159-.139.236l-.036.058a5.829 5.829 0 01-4.925 2.7 5.84 5.84 0 01-1.154-11.564c.086-.362.305-.673.602-.88a5.899 5.899 0 01-.046-.727 5.84 5.84 0 1111.634.727c.297.207.515.518.602.88a5.842 5.842 0 014.685 5.725 5.84 5.84 0 01-10.42 3.623z" class="stroke 2_3" clip-rule="evenodd"/>
        </g>
      </g>
      <g class="symbol_6">
        <g class="♣ clubs_4">
          <g class="fill_4">
            <path fill="#2C2C2C" d="M33.4 53.284a1.493 1.493 0 11-1.517-2.21 4.753 4.753 0 10-9.459 0 1.494 1.494 0 11-1.516 2.21 4.753 4.753 0 105.134 7.002 1.494 1.494 0 112.224 0 4.753 4.753 0 105.134-7.002z"/>
            <path fill="#2C2C2C" d="M32.096 53.232a.675.675 0 01-.618-.398.677.677 0 01.221-.831.679.679 0 11.397 1.23zM27.833 59.289a.677.677 0 01-.68.679.68.68 0 11.68-.68zM22.21 53.232a.677.677 0 01-.678-.679.679.679 0 11.679.68z"/>
          </g>
          <path fill="#fff" fill-rule="evenodd" d="M26.492 61.553c.193-.244.367-.504.52-.777a1.5 1.5 0 00.283 0 5.829 5.829 0 005.1 2.994 5.84 5.84 0 001.155-11.564 1.495 1.495 0 00-.602-.88 5.899 5.899 0 00.045-.728 5.84 5.84 0 10-11.634.728 1.496 1.496 0 00-.601.88 5.841 5.841 0 00-4.685 5.725 5.84 5.84 0 0010.419 3.622zm5.604-8.32a.675.675 0 01-.618-.4.677.677 0 01.221-.83.679.679 0 11.397 1.23zm-1.493-.68c0-.752.556-1.374 1.28-1.478a4.753 4.753 0 10-9.459 0 1.494 1.494 0 11-1.516 2.21 4.753 4.753 0 105.134 7.002 1.494 1.494 0 112.224 0 4.753 4.753 0 105.134-7.002 1.493 1.493 0 01-2.797-.732zm-2.77 6.736a.68.68 0 11-1.358 0 .68.68 0 011.358 0zm-5.914-6.123a.677.677 0 00.91-.332.677.677 0 00-.221-.831.679.679 0 10-.69 1.164z" class="stroke_4" clip-rule="evenodd"/>
          <path fill="#2C2C2C" fill-rule="evenodd" d="M26.918 61.89c.082-.103.16-.209.236-.317a6.372 6.372 0 005.242 2.74 6.382 6.382 0 001.57-12.57 2.042 2.042 0 00-.449-.65l.002-.024a6.382 6.382 0 10-12.73 0l.001.025a2.042 2.042 0 00-.449.65l-.044.01a6.382 6.382 0 106.62 10.136zm.897-.337a5.86 5.86 0 01-.52-.777 1.503 1.503 0 01-.283 0 5.901 5.901 0 01-.52.777 5.84 5.84 0 11-5.734-9.348c.086-.362.305-.673.602-.88a5.899 5.899 0 01-.046-.727 5.84 5.84 0 1111.634.728c.297.206.515.517.602.88a5.841 5.841 0 014.685 5.725 5.84 5.84 0 01-10.42 3.622z" class="stroke 2_4" clip-rule="evenodd"/>
        </g>
      </g>
      <g class="symbol_7">
        <g class="♣ clubs_5">
          <g class="fill_5">
            <path fill="#2C2C2C" d="M55.422 86.361a1.493 1.493 0 10-1.517 2.21 4.753 4.753 0 11-9.458 0 1.494 1.494 0 10-1.517-2.21 4.753 4.753 0 115.134-7.002 1.494 1.494 0 102.224 0 4.753 4.753 0 115.134 7.002z"/>
            <path fill="#2C2C2C" d="M54.119 86.413a.677.677 0 00-.68.679.678.678 0 10.68-.679zM49.855 80.357a.68.68 0 10-.364.602.679.679 0 00.364-.602zM44.233 86.413a.676.676 0 00-.679.679.679.679 0 10.68-.679z"/>
          </g>
          <path fill="#fff" fill-rule="evenodd" d="M48.514 78.092c.194.244.368.504.52.778a1.534 1.534 0 01.283 0 5.85 5.85 0 015.1-2.995 5.839 5.839 0 011.155 11.565 1.495 1.495 0 01-.602.88 5.769 5.769 0 01.045.727 5.84 5.84 0 11-11.633-.727 1.495 1.495 0 01-.602-.88 5.842 5.842 0 01-4.685-5.725 5.839 5.839 0 0110.42-3.623zm5.605 8.321a.677.677 0 00-.68.679.678.678 0 10.68-.679zm-1.494.679c0 .752.556 1.375 1.28 1.479a4.753 4.753 0 11-9.458 0 1.494 1.494 0 10-1.517-2.21 4.753 4.753 0 115.134-7.002 1.494 1.494 0 102.224 0 4.753 4.753 0 115.134 7.002 1.493 1.493 0 00-2.797.731zm-2.77-6.735a.68.68 0 10-.364.602.679.679 0 00.364-.602zm-5.914 6.122a.676.676 0 01.664.045.682.682 0 01.307.568.678.678 0 11-.971-.613z" class="stroke_5" clip-rule="evenodd"/>
          <path fill="#2C2C2C" fill-rule="evenodd" d="M48.94 77.755c.082.103.16.209.236.317a6.372 6.372 0 015.242-2.74 6.382 6.382 0 011.57 12.57 2.04 2.04 0 01-.449.65l.002.024a6.382 6.382 0 11-12.73 0l.002-.024a2.04 2.04 0 01-.45-.65l-.044-.011a6.382 6.382 0 116.62-10.136zm.898.337a5.861 5.861 0 00-.52.778 1.534 1.534 0 00-.283 0 5.925 5.925 0 00-.52-.778 5.839 5.839 0 10-5.734 9.348c.085.362.304.673.6.88a5.883 5.883 0 00-.044.727 5.84 5.84 0 1011.633-.727c.297-.207.516-.518.602-.88a5.842 5.842 0 004.685-5.725 5.839 5.839 0 00-10.42-3.623z" class="stroke 2_5" clip-rule="evenodd"/>
        </g>
      </g>
      <g class="symbol_8">
        <g class="♣ clubs_6">
          <g class="fill_6">
            <path fill="#2C2C2C" d="M32.584 86.361a1.493 1.493 0 10-1.517 2.21 4.753 4.753 0 11-9.459 0 1.494 1.494 0 10-1.516-2.21 4.753 4.753 0 115.134-7.002 1.494 1.494 0 102.224 0 4.753 4.753 0 115.134 7.002z"/>
            <path fill="#2C2C2C" d="M31.28 86.413a.676.676 0 00-.678.679.678.678 0 10.679-.679zM27.017 80.357a.677.677 0 00-.679-.68.68.68 0 10.679.68zM21.395 86.413a.676.676 0 00-.679.679.679.679 0 10.68-.679z"/>
          </g>
          <path fill="#fff" fill-rule="evenodd" d="M25.676 78.092c.194.244.368.504.52.778a1.537 1.537 0 01.283 0 5.85 5.85 0 015.1-2.995 5.84 5.84 0 011.155 11.565 1.495 1.495 0 01-.602.88 5.883 5.883 0 01.045.727 5.84 5.84 0 11-11.633-.727 1.495 1.495 0 01-.602-.88 5.842 5.842 0 01-4.685-5.725 5.84 5.84 0 0110.42-3.623zm5.605 8.321a.676.676 0 00-.68.679.678.678 0 10.68-.679zm-1.494.679c0 .752.556 1.375 1.28 1.479a4.753 4.753 0 11-9.459 0 1.494 1.494 0 10-1.516-2.21 4.753 4.753 0 115.134-7.002 1.494 1.494 0 102.224 0 4.753 4.753 0 115.134 7.002 1.493 1.493 0 00-2.797.731zm-2.77-6.735a.677.677 0 00-.68-.68.68.68 0 10.68.68zm-5.914 6.122a.676.676 0 01.664.045.683.683 0 01.307.568.678.678 0 11-.971-.613z" class="stroke_6" clip-rule="evenodd"/>
          <path fill="#2C2C2C" fill-rule="evenodd" d="M26.102 77.755c.082.103.16.209.236.317a6.372 6.372 0 015.242-2.74 6.382 6.382 0 011.614 12.559l-.044.011a2.04 2.04 0 01-.449.65l.002.024a6.382 6.382 0 11-12.73 0l.002-.024a2.039 2.039 0 01-.45-.65l-.044-.011a6.382 6.382 0 116.62-10.136zm.898.337a5.86 5.86 0 00-.345.484l-.037.058a6.047 6.047 0 00-.139.236 1.535 1.535 0 00-.282 0 6.047 6.047 0 00-.52-.778 5.84 5.84 0 10-5.734 9.348c.085.362.304.673.6.88a5.883 5.883 0 00-.044.727 5.84 5.84 0 1011.633-.727c.297-.207.516-.518.602-.88a5.842 5.842 0 004.685-5.725 5.84 5.84 0 00-10.42-3.623z" class="stroke 2_6" clip-rule="evenodd"/>
        </g>
      </g>
      <g class="symbol_9">
        <g class="♣ clubs_7">
          <g class="fill_7">
            <path fill="#2C2C2C" d="M55.83 20.248a1.493 1.493 0 11-1.517-2.21 4.753 4.753 0 10-9.458 0 1.494 1.494 0 11-1.517 2.21 4.753 4.753 0 105.134 7.002 1.494 1.494 0 112.224 0 4.753 4.753 0 105.134-7.002z"/>
            <path fill="#2C2C2C" d="M54.527 20.196a.676.676 0 01-.68-.679.678.678 0 11.68.679zM50.263 26.252a.68.68 0 11-.364-.602c.216.114.364.341.364.602zM44.64 20.196a.676.676 0 01-.678-.679.679.679 0 11.679.679z"/>
          </g>
          <path fill="#fff" fill-rule="evenodd" d="M48.922 28.517c.193-.244.368-.504.52-.777a1.5 1.5 0 00.283 0 5.829 5.829 0 005.1 2.994 5.84 5.84 0 001.155-11.565 1.495 1.495 0 00-.602-.88 5.899 5.899 0 00.045-.727 5.839 5.839 0 10-11.633.727 1.495 1.495 0 00-.602.88 5.842 5.842 0 00-4.685 5.725 5.84 5.84 0 0010.419 3.623zm5.605-8.321a.676.676 0 01-.68-.679.678.678 0 11.68.679zm-1.494-.679c0-.752.556-1.375 1.28-1.479a4.753 4.753 0 10-9.458 0 1.494 1.494 0 11-1.517 2.21 4.753 4.753 0 105.134 7.002 1.494 1.494 0 112.224 0 4.753 4.753 0 105.134-7.002 1.493 1.493 0 01-2.797-.731zm-2.77 6.735a.68.68 0 11-.364-.602c.216.114.364.341.364.602zm-5.914-6.122a.677.677 0 00.91-.332.675.675 0 00-.221-.832.679.679 0 10-.69 1.164z" class="stroke_7" clip-rule="evenodd"/>
          <path fill="#2C2C2C" fill-rule="evenodd" d="M49.348 28.854c.082-.103.16-.209.236-.317a6.372 6.372 0 005.242 2.74 6.382 6.382 0 001.57-12.57 2.04 2.04 0 00-.449-.65l.002-.024a6.382 6.382 0 10-12.73 0c0 .008 0 .016.002.024a2.04 2.04 0 00-.45.65 6.385 6.385 0 00-4.812 6.188 6.382 6.382 0 0011.389 3.96zm.898-.337a5.86 5.86 0 01-.52-.777 1.5 1.5 0 01-.283 0 5.786 5.786 0 01-.521.777 5.84 5.84 0 11-5.734-9.348c.086-.362.305-.673.602-.88a5.899 5.899 0 01-.045-.727 5.84 5.84 0 1111.633.727c.297.207.515.518.602.88a5.842 5.842 0 014.685 5.725 5.84 5.84 0 01-10.42 3.623z" class="stroke 2_7" clip-rule="evenodd"/>
        </g>
      </g>
      <g class="symbol_10">
        <g class="♣ clubs_8">
          <g class="fill_8">
            <path fill="#2C2C2C" d="M55.422 53.692a1.493 1.493 0 11-1.517-2.21 4.753 4.753 0 10-9.458 0 1.494 1.494 0 11-1.517 2.21 4.753 4.753 0 105.134 7.002 1.494 1.494 0 112.224 0 4.753 4.753 0 105.134-7.002z"/>
            <path fill="#2C2C2C" d="M54.119 53.64a.676.676 0 01-.68-.679.678.678 0 11.68.68zM49.855 59.697a.68.68 0 11-1.358 0 .68.68 0 011.358 0zM44.233 53.64a.676.676 0 01-.679-.679.679.679 0 11.68.68z"/>
          </g>
          <path fill="#fff" fill-rule="evenodd" d="M48.514 61.961c.194-.244.368-.504.52-.777a1.5 1.5 0 00.283 0 5.829 5.829 0 005.1 2.994 5.84 5.84 0 001.155-11.564 1.495 1.495 0 00-.602-.88 5.769 5.769 0 00.045-.728 5.839 5.839 0 10-11.633.728 1.495 1.495 0 00-.602.88 5.842 5.842 0 00-4.685 5.725 5.84 5.84 0 0010.42 3.622zm5.605-8.32a.676.676 0 01-.68-.68.678.678 0 11.68.68zm-1.494-.68c0-.752.556-1.375 1.28-1.478a4.753 4.753 0 10-9.458 0 1.494 1.494 0 11-1.517 2.21 4.753 4.753 0 105.134 7.002 1.494 1.494 0 112.224 0 4.753 4.753 0 105.134-7.002 1.493 1.493 0 01-2.797-.732zm-2.77 6.736a.68.68 0 11-1.358 0 .68.68 0 011.358 0zm-5.914-6.123a.676.676 0 00.664-.045.681.681 0 00.025-1.119.679.679 0 10-.69 1.164z" class="stroke_8" clip-rule="evenodd"/>
          <path fill="#2C2C2C" fill-rule="evenodd" d="M48.94 62.298c.082-.103.16-.209.236-.317a6.372 6.372 0 005.242 2.74 6.382 6.382 0 001.57-12.57 2.04 2.04 0 00-.449-.65l.002-.024a6.382 6.382 0 10-12.73 0l.002.024a2.04 2.04 0 00-.45.65l-.044.012a6.382 6.382 0 106.62 10.136zm.898-.337a5.86 5.86 0 01-.52-.777 1.5 1.5 0 01-.283 0 5.786 5.786 0 01-.52.777 5.84 5.84 0 11-5.734-9.348c.085-.362.304-.673.6-.88a5.883 5.883 0 01-.044-.727 5.84 5.84 0 1111.633.728c.297.206.516.517.602.88a5.842 5.842 0 014.685 5.725 5.84 5.84 0 01-10.42 3.622z" class="stroke 2_8" clip-rule="evenodd"/>
        </g>
      </g>
    </g>
  </g>
</svg>
