<svg xmlns="http://www.w3.org/2000/svg" width="80" height="112" fill="none" viewBox="0 0 80 112">
  <g class="five_spades">
    <rect width="74.81" height="104.734" x=".376" y=".422" fill="#fff" rx="3.62"/>
    <rect width="78.991" height="110.588" x=".376" y=".422" fill="#fff" class="bg" rx="3.62"/>
    <g class="down">
      <g class="letter">
        <path fill="#222" d="M71.56 92.873c0-1.577-.497-2.793-1.49-3.648-.992-.855-2.183-1.298-3.605-1.298-2.168 0-3.789.789-4.88 2.35l1.82.92c.628-1.15 1.637-1.725 3.043-1.725.76 0 1.439.263 2.018.788.579.526.877 1.397.877 2.613 0 1.233-.282 2.088-.86 2.58-.58.494-1.506.74-2.796.74h-2.961v7.149h8.42v-1.446h-6.203v-4.158h1.124c1.655 0 2.978-.378 3.987-1.134 1.009-.756 1.505-2.005 1.505-3.73z" class="Vector"/>
      </g>
      <g class="symbol">
        <path fill="#2C2C2C" d="M67.897 80.912c.707-.863.875-2.068.1-2.857-.839-.852-2.115-.605-2.889.182-.774-.787-2.05-1.034-2.888-.181-.776.788-.608 1.993.1 2.856.763.932 1.808 1.733 2.788 2.427.98-.694 2.025-1.495 2.79-2.427z" class="â spades"/>
      </g>
    </g>
    <g class="up">
      <g class="letter_2">
        <path fill="#222" d="M15.338 14.518c0 1.577-.496 2.793-1.488 3.648-.993.855-2.184 1.298-3.606 1.298-2.167 0-3.788-.789-4.88-2.35l1.82-.92c.628 1.15 1.637 1.726 3.043 1.726.761 0 1.44-.264 2.018-.79.58-.525.877-1.396.877-2.612 0-1.233-.281-2.088-.86-2.58-.58-.494-1.506-.74-2.796-.74h-2.96v-7.15h8.419v1.447H8.722v4.158h1.125c1.654 0 2.977.378 3.986 1.134 1.01.756 1.505 2.005 1.505 3.73z" class="Vector_2"/>
      </g>
      <g class="symbol_2">
        <path fill="#2C2C2C" d="M7.767 24.625c-.707.863-.875 2.068-.1 2.857.839.852 2.114.605 2.889-.182.774.787 2.05 1.034 2.888.182.775-.79.608-1.994-.1-2.857-.763-.932-1.808-1.733-2.788-2.427-.98.694-2.026 1.495-2.79 2.427z" class="â spades_2"/>
      </g>
    </g>
    <g class="icons">
      <g class="symbol_3">
        <g class="â spades_3">
          <g class="fill">
            <path fill="#2C2C2C" d="M32.435 55.833c1.814-2.21 4.228-4.141 6.58-5.84.23.153.508.243.806.243.299 0 .576-.09.807-.244 2.352 1.7 4.767 3.63 6.58 5.841.444.54.808 1.132 1.077 1.747a1.457 1.457 0 00.538 2.572c-.025 1.177-.445 2.312-1.352 3.233-1.763 1.79-4.258 1.746-6.237.61a1.458 1.458 0 00-1.412-1.815 1.457 1.457 0 00-1.413 1.814c-1.979 1.137-4.473 1.18-6.237-.61-.907-.92-1.327-2.055-1.352-3.232a1.457 1.457 0 00.538-2.572 7.507 7.507 0 011.077-1.747z"/>
            <path fill="#2C2C2C" d="M39.16 63.637a.661.661 0 111.323-.002.661.661 0 01-1.323.002zM39.787 49.44a.662.662 0 11.07 0M30.874 59.264a.666.666 0 00.261-.527.662.662 0 10-.26.527zM48.589 58.42a.66.66 0 00.18.844.662.662 0 10-.18-.844z"/>
          </g>
          <path fill="#fff" fill-rule="evenodd" d="M49.885 60.007c.014 1.468-.478 2.923-1.66 4.122-2.225 2.26-5.288 2.095-7.607.727a1.45 1.45 0 01-1.593 0c-2.318 1.368-5.381 1.532-7.607-.727-1.181-1.199-1.673-2.654-1.66-4.123a1.456 1.456 0 01.58-2.72 8.535 8.535 0 011.279-2.127c1.903-2.319 4.412-4.318 6.789-6.035a1.46 1.46 0 011.415-1.802 1.457 1.457 0 011.416 1.802c2.377 1.717 4.886 3.716 6.79 6.035.525.64.961 1.363 1.28 2.128a1.457 1.457 0 01.578 2.72zm-17.45-4.174c1.814-2.21 4.228-4.141 6.58-5.84.23.153.508.243.806.243.299 0 .576-.09.807-.244 2.352 1.7 4.767 3.63 6.58 5.841a7.46 7.46 0 011.076 1.747 1.452 1.452 0 00-.566 1.284 1.458 1.458 0 001.105 1.288 4.635 4.635 0 01-1.352 3.232c-.22.224-.452.42-.693.587-1.27.885-2.79 1.014-4.202.6a6.226 6.226 0 01-1.342-.577l.011-.048a1.457 1.457 0 10-2.836.049c-1.979 1.136-4.473 1.18-6.237-.61-.907-.921-1.327-2.056-1.352-3.233a1.45 1.45 0 00.918-.691 1.454 1.454 0 00-.38-1.88 7.51 7.51 0 011.077-1.748zm6.725 7.804a.663.663 0 111.325-.002.663.663 0 01-1.325.002zm0-14.858c0 .354.277.643.627.661h.07a.662.662 0 10-.698-.66zm-8.286 10.485a.665.665 0 00.261-.527.662.662 0 10-.26.527zm17.635-.548a.659.659 0 01.661-.641.662.662 0 11-.661.64z" class="stroke" clip-rule="evenodd"/>
          <path fill="#2C2C2C" fill-rule="evenodd" d="M48.436 54.824c-1.878-2.289-4.32-4.26-6.631-5.943.002-.034.002-.068.002-.102a1.986 1.986 0 10-3.97.103c-2.31 1.683-4.752 3.653-6.63 5.942a9.085 9.085 0 00-1.243 1.993 1.987 1.987 0 00-.732 3.47 6.178 6.178 0 001.809 4.214c2.357 2.393 5.556 2.278 7.993.96a1.98 1.98 0 001.576 0c2.437 1.318 5.636 1.433 7.992-.96a6.178 6.178 0 001.81-4.213 1.987 1.987 0 00-.732-3.471 9.085 9.085 0 00-1.244-1.993zm.87 2.463a8.55 8.55 0 00-1.28-2.127c-1.903-2.32-4.412-4.32-6.79-6.036a1.46 1.46 0 00-1.415-1.801 1.457 1.457 0 00-1.415 1.801c-2.377 1.717-4.886 3.717-6.79 6.036a8.55 8.55 0 00-1.279 2.127 1.457 1.457 0 00-.579 2.72c0 .085 0 .17.003.256a5.65 5.65 0 001.657 3.866c2.226 2.26 5.289 2.095 7.608.727a1.45 1.45 0 001.593 0c2.318 1.368 5.38 1.532 7.606-.727a5.65 5.65 0 001.657-3.866c.003-.085.004-.17.003-.256a1.455 1.455 0 00.742-1.27 1.457 1.457 0 00-1.32-1.45z" class="stroke 2" clip-rule="evenodd"/>
        </g>
      </g>
      <g class="symbol_4">
        <g class="â spades_4">
          <g class="fill_2">
            <path fill="#2C2C2C" d="M17.926 28.176c1.814-2.21 4.229-4.141 6.58-5.84.231.153.508.243.807.243.298 0 .576-.09.807-.244 2.351 1.7 4.766 3.63 6.58 5.841a7.51 7.51 0 011.076 1.747 1.457 1.457 0 00.538 2.572c-.025 1.177-.444 2.312-1.351 3.232-1.764 1.79-4.258 1.747-6.238.61a1.458 1.458 0 00-1.412-1.814 1.457 1.457 0 00-1.412 1.814c-1.98 1.137-4.474 1.18-6.237-.61-.907-.92-1.327-2.055-1.352-3.232a1.457 1.457 0 00.538-2.572 7.51 7.51 0 011.076-1.747z"/>
            <path fill="#2C2C2C" d="M24.651 35.98a.663.663 0 111.326-.001.663.663 0 01-1.326 0zM25.278 21.783a.662.662 0 11.07 0M16.366 31.607a.665.665 0 00.26-.527.662.662 0 10-.26.527zM34.08 30.763a.659.659 0 00.18.844.662.662 0 10-.18-.843z"/>
          </g>
          <path fill="#fff" fill-rule="evenodd" d="M35.377 32.35c.013 1.468-.479 2.923-1.66 4.122-2.226 2.26-5.289 2.095-7.608.727a1.45 1.45 0 01-.796.237 1.45 1.45 0 01-.796-.237c-2.319 1.368-5.382 1.532-7.607-.727-1.182-1.199-1.674-2.654-1.66-4.123a1.456 1.456 0 01.579-2.72 8.531 8.531 0 011.279-2.127c1.903-2.319 4.412-4.318 6.79-6.035a1.457 1.457 0 112.831 0c2.376 1.717 4.886 3.716 6.79 6.036.524.639.96 1.362 1.279 2.127a1.457 1.457 0 01.578 2.72zm-17.45-4.174c1.813-2.21 4.228-4.141 6.58-5.84.23.153.507.243.806.243.298 0 .576-.09.807-.244 2.351 1.7 4.766 3.63 6.58 5.841.055.068.11.136.163.205.37.484.678 1.004.913 1.542a1.453 1.453 0 00-.566 1.284 1.458 1.458 0 001.105 1.288 4.635 4.635 0 01-1.352 3.232c-.22.224-.453.42-.694.587-1.27.885-2.789 1.014-4.202.6a6.22 6.22 0 01-1.341-.577 1.463 1.463 0 00.044-.358 1.457 1.457 0 10-2.87.358c-1.978 1.137-4.473 1.18-6.236-.61-.907-.92-1.327-2.055-1.352-3.232a1.447 1.447 0 00.917-.691 1.454 1.454 0 00-.379-1.88 7.507 7.507 0 011.076-1.748zm6.724 7.804a.661.661 0 111.323-.001.661.661 0 01-1.323 0zm0-14.858c0 .354.278.643.627.661h.07a.662.662 0 10-.697-.66zm-8.285 10.485a.666.666 0 00.26-.527.662.662 0 10-.26.527zM34 31.059a.659.659 0 01.662-.641.662.662 0 11-.662.64z" class="stroke_2" clip-rule="evenodd"/>
          <path fill="#2C2C2C" fill-rule="evenodd" d="M33.928 27.166c-1.879-2.288-4.32-4.259-6.632-5.942l.003-.102a1.986 1.986 0 10-3.97.103c-2.31 1.683-4.752 3.653-6.63 5.941a9.085 9.085 0 00-1.243 1.994 1.987 1.987 0 00-.733 3.47 6.178 6.178 0 001.81 4.214c2.356 2.393 5.555 2.278 7.992.96a1.982 1.982 0 001.576 0c2.437 1.318 5.636 1.433 7.993-.96a6.178 6.178 0 001.809-4.213 1.987 1.987 0 00-.732-3.471 9.089 9.089 0 00-1.243-1.994zm.87 2.464a8.552 8.552 0 00-1.28-2.127c-1.903-2.32-4.413-4.32-6.79-6.036a1.457 1.457 0 10-2.831 0c-2.377 1.717-4.886 3.716-6.789 6.036a8.552 8.552 0 00-1.28 2.127 1.457 1.457 0 00-.579 2.72c0 .085 0 .17.004.256a5.65 5.65 0 001.657 3.866c2.225 2.26 5.288 2.095 7.607.727a1.45 1.45 0 001.592 0c2.319 1.368 5.382 1.532 7.608-.727a5.649 5.649 0 001.657-3.866c.002-.085.003-.17.002-.257a1.455 1.455 0 00.742-1.27 1.457 1.457 0 00-1.32-1.45z" class="stroke 2_2" clip-rule="evenodd"/>
        </g>
      </g>
      <g class="symbol_5">
        <g class="â spades_5">
          <g class="fill_3">
            <path fill="#2C2C2C" d="M42.863 80.575c1.814 2.21 4.228 4.141 6.58 5.84a1.45 1.45 0 01.806-.243c.299 0 .576.09.807.244 2.352-1.7 4.767-3.63 6.58-5.841a7.507 7.507 0 001.077-1.747 1.457 1.457 0 01.538-2.572c-.025-1.177-.445-2.312-1.352-3.232-1.763-1.79-4.258-1.747-6.237-.61a1.457 1.457 0 11-2.825 0c-1.979-1.137-4.473-1.18-6.237.61-.907.92-1.327 2.055-1.352 3.232a1.457 1.457 0 01.539 2.572c.269.615.632 1.206 1.076 1.747z"/>
            <path fill="#2C2C2C" d="M49.588 72.772a.661.661 0 101.323 0 .661.661 0 00-1.323 0zM50.215 86.968a.662.662 0 10.07 0M41.302 77.144a.666.666 0 01.261.527.662.662 0 11-.26-.527zM59.017 77.988a.659.659 0 01.18-.844.662.662 0 11-.18.844z"/>
          </g>
          <path fill="#fff" fill-rule="evenodd" d="M60.313 76.402c.014-1.469-.478-2.924-1.66-4.123-2.225-2.26-5.288-2.095-7.607-.727a1.45 1.45 0 00-.796-.237 1.45 1.45 0 00-.797.237c-2.318-1.368-5.381-1.532-7.607.727-1.181 1.199-1.673 2.654-1.66 4.123a1.456 1.456 0 00.58 2.72 8.53 8.53 0 001.279 2.127c1.903 2.319 4.412 4.318 6.789 6.035a1.459 1.459 0 001.415 1.802 1.457 1.457 0 001.416-1.802c2.377-1.717 4.886-3.716 6.79-6.035a8.53 8.53 0 001.28-2.127 1.457 1.457 0 00.578-2.72zm-17.45 4.173c1.814 2.21 4.228 4.141 6.58 5.84a1.45 1.45 0 01.806-.243c.299 0 .576.09.807.244 2.352-1.7 4.767-3.63 6.58-5.841a7.466 7.466 0 001.076-1.747 1.452 1.452 0 01-.566-1.284 1.458 1.458 0 011.105-1.288 4.636 4.636 0 00-1.352-3.232 4.938 4.938 0 00-.693-.587c-1.27-.885-2.79-1.014-4.202-.599-.463.136-.914.33-1.342.576l.011.049a1.457 1.457 0 11-2.836-.049c-1.979-1.137-4.473-1.18-6.237.61-.907.92-1.327 2.055-1.352 3.232a1.446 1.446 0 01.918.692 1.454 1.454 0 01-.379 1.88c.269.615.632 1.206 1.076 1.747zm6.725-7.803a.666.666 0 00.051.256.664.664 0 00.61.406.662.662 0 10-.661-.662zm0 14.857c0-.354.277-.643.627-.661h.07a.662.662 0 11-.698.661zm-8.286-10.485a.666.666 0 01.261.527.662.662 0 11-.26-.527zm17.635.548a.662.662 0 101.323-.042.662.662 0 00-1.323.042z" class="stroke_3" clip-rule="evenodd"/>
          <path fill="#2C2C2C" fill-rule="evenodd" d="M58.864 81.585c-1.878 2.288-4.32 4.259-6.631 5.942l.003.102a1.986 1.986 0 11-3.97-.103c-2.31-1.683-4.753-3.653-6.63-5.941a9.083 9.083 0 01-1.244-1.993 1.987 1.987 0 01-.732-3.472 6.178 6.178 0 011.81-4.213c2.356-2.392 5.555-2.277 7.992-.96a1.982 1.982 0 011.576.001c2.437-1.318 5.636-1.433 7.993.959a6.178 6.178 0 011.809 4.213 1.987 1.987 0 01-.732 3.471 9.087 9.087 0 01-1.244 1.994zm.87-2.464a8.55 8.55 0 01-1.28 2.127c-1.903 2.32-4.412 4.32-6.79 6.036a1.459 1.459 0 01-1.415 1.802 1.457 1.457 0 01-1.415-1.802c-2.377-1.717-4.886-3.716-6.79-6.035a8.55 8.55 0 01-1.279-2.128 1.453 1.453 0 01-1.32-1.45 1.455 1.455 0 01.741-1.27c0-.085 0-.17.003-.256a5.649 5.649 0 011.657-3.866c2.226-2.26 5.289-2.095 7.608-.727a1.45 1.45 0 01.796-.237c.294 0 .567.087.796.237 2.319-1.368 5.382-1.532 7.607.727a5.649 5.649 0 011.657 3.866c.003.085.004.171.003.257a1.455 1.455 0 01.742 1.27 1.457 1.457 0 01-1.32 1.45z" class="stroke 2_3" clip-rule="evenodd"/>
        </g>
      </g>
      <g class="symbol_6">
        <g class="â spades_6">
          <g class="fill_4">
            <path fill="#2C2C2C" d="M18.38 80.575c1.814 2.21 4.228 4.141 6.58 5.84a1.45 1.45 0 01.806-.243c.299 0 .576.09.807.244 2.352-1.7 4.766-3.63 6.58-5.841a7.507 7.507 0 001.077-1.747 1.457 1.457 0 01.538-2.572c-.025-1.177-.445-2.312-1.352-3.232-1.763-1.79-4.258-1.747-6.237-.61a1.458 1.458 0 01-1.412 1.814 1.457 1.457 0 01-1.413-1.814c-1.979-1.137-4.473-1.18-6.237.61-.907.92-1.327 2.055-1.352 3.232a1.457 1.457 0 01.538 2.572c.27.615.633 1.206 1.077 1.747z"/>
            <path fill="#2C2C2C" d="M25.104 72.772a.661.661 0 101.323 0 .661.661 0 00-1.323 0zM25.732 86.968a.662.662 0 10.07 0M16.819 77.144a.666.666 0 01.261.527.662.662 0 11-.261-.527zM34.533 77.988a.659.659 0 01.181-.844.662.662 0 11-.18.844z"/>
          </g>
          <path fill="#fff" fill-rule="evenodd" d="M35.83 76.402c.014-1.469-.479-2.924-1.66-4.123-2.225-2.26-5.289-2.095-7.607-.727a1.45 1.45 0 00-.796-.237 1.45 1.45 0 00-.797.237c-2.318-1.368-5.382-1.532-7.607.727-1.181 1.199-1.674 2.654-1.66 4.123a1.456 1.456 0 00.579 2.72 8.53 8.53 0 001.28 2.127c1.903 2.319 4.412 4.318 6.789 6.035a1.459 1.459 0 001.415 1.802 1.457 1.457 0 001.416-1.802c2.377-1.717 4.886-3.716 6.79-6.035a8.53 8.53 0 001.279-2.127 1.457 1.457 0 00.579-2.72zm-17.45 4.173c1.814 2.21 4.228 4.141 6.58 5.84a1.45 1.45 0 01.806-.243c.299 0 .576.09.807.244 2.352-1.7 4.766-3.63 6.58-5.841a7.461 7.461 0 001.076-1.747 1.453 1.453 0 01-.565-1.284 1.458 1.458 0 011.104-1.288 4.635 4.635 0 00-1.352-3.232 4.938 4.938 0 00-.693-.587c-1.27-.885-2.79-1.014-4.202-.599a6.22 6.22 0 00-1.342.576l.011.049a1.457 1.457 0 11-2.836-.049c-1.979-1.137-4.473-1.18-6.237.61-.907.92-1.327 2.055-1.352 3.232a1.447 1.447 0 01.917.692 1.454 1.454 0 01-.379 1.88c.27.615.633 1.206 1.077 1.747zm6.724-7.803a.661.661 0 101.323 0 .661.661 0 00-1.323 0zm0 14.857c0-.354.278-.643.628-.661h.07a.662.662 0 11-.698.661zm-8.285-10.485a.666.666 0 01.261.527.662.662 0 11-.261-.527zm17.634.548a.658.658 0 00.662.641.662.662 0 10-.662-.64z" class="stroke_4" clip-rule="evenodd"/>
          <path fill="#2C2C2C" fill-rule="evenodd" d="M34.381 81.585c-1.878 2.288-4.32 4.259-6.631 5.942l.002.102a1.986 1.986 0 11-3.97-.103c-2.31-1.683-4.752-3.653-6.63-5.941a9.087 9.087 0 01-1.243-1.993 1.987 1.987 0 01-.732-3.472 6.178 6.178 0 011.809-4.213c2.357-2.392 5.556-2.277 7.992-.96a1.982 1.982 0 011.577.001c2.436-1.318 5.635-1.433 7.992.959a6.178 6.178 0 011.81 4.213 1.987 1.987 0 01-.732 3.471 9.09 9.09 0 01-1.244 1.994zm.87-2.464a8.55 8.55 0 01-1.28 2.127c-1.903 2.32-4.412 4.32-6.79 6.036a1.459 1.459 0 01-1.415 1.802 1.457 1.457 0 01-1.415-1.802c-2.377-1.717-4.886-3.716-6.79-6.035a8.55 8.55 0 01-1.279-2.128 1.456 1.456 0 01-.579-2.72c0-.085 0-.17.003-.256a5.649 5.649 0 011.657-3.866c2.225-2.26 5.289-2.095 7.607-.727a1.45 1.45 0 01.797-.237c.293 0 .567.087.796.237 2.318-1.368 5.382-1.532 7.607.727a5.649 5.649 0 011.657 3.866c.003.085.004.171.003.257a1.455 1.455 0 01-.579 2.72z" class="stroke 2_4" clip-rule="evenodd"/>
        </g>
      </g>
      <g class="symbol_7">
        <g class="â spades_7">
          <g class="fill_5">
            <path fill="#2C2C2C" d="M42.41 28.176c1.814-2.21 4.228-4.141 6.58-5.84.23.153.508.243.806.243.298 0 .576-.09.807-.244 2.352 1.7 4.766 3.63 6.58 5.841.444.54.807 1.132 1.077 1.747a1.457 1.457 0 00.538 2.572c-.025 1.177-.445 2.312-1.352 3.232-1.764 1.79-4.258 1.747-6.237.61a1.457 1.457 0 10-2.825 0c-1.979 1.137-4.474 1.18-6.237-.61-.907-.92-1.327-2.055-1.352-3.232a1.457 1.457 0 00.538-2.572 7.507 7.507 0 011.077-1.747z"/>
            <path fill="#2C2C2C" d="M49.134 35.98a.661.661 0 111.323-.001.661.661 0 01-1.323 0zM49.762 21.783a.662.662 0 11.07 0M40.849 31.607a.665.665 0 00.26-.527.662.662 0 10-.26.527zM58.563 30.763a.658.658 0 00-.08.317.66.66 0 00.662.662.662.662 0 10-.582-.979z"/>
          </g>
          <path fill="#fff" fill-rule="evenodd" d="M59.86 32.35c.014 1.468-.479 2.923-1.66 4.122-2.226 2.26-5.289 2.095-7.607.727a1.45 1.45 0 01-.797.237A1.45 1.45 0 0149 37.2c-2.318 1.368-5.382 1.532-7.607-.727-1.181-1.199-1.674-2.654-1.66-4.123a1.456 1.456 0 01.579-2.72 8.531 8.531 0 011.28-2.127c1.903-2.319 4.412-4.318 6.788-6.035a1.457 1.457 0 112.831 0c2.377 1.717 4.887 3.716 6.79 6.036.525.639.962 1.362 1.28 2.127a1.457 1.457 0 01.579 2.72zm-17.45-4.174c1.814-2.21 4.228-4.141 6.58-5.84.23.153.508.243.806.243.298 0 .576-.09.807-.244 2.352 1.7 4.766 3.63 6.58 5.841a7.462 7.462 0 011.076 1.747 1.453 1.453 0 00-.566 1.284 1.457 1.457 0 001.105 1.288 4.635 4.635 0 01-1.352 3.232c-.22.224-.452.42-.693.587-1.27.885-2.79 1.014-4.202.6a6.226 6.226 0 01-1.342-.577 1.56 1.56 0 00.044-.358 1.457 1.457 0 10-2.869.358c-1.979 1.137-4.474 1.18-6.237-.61-.907-.92-1.327-2.055-1.352-3.232a1.45 1.45 0 00.917-.691 1.454 1.454 0 00-.379-1.88 7.51 7.51 0 011.077-1.748zm6.724 7.804a.663.663 0 111.326-.001.663.663 0 01-1.326 0zm0-14.858c0 .354.278.643.628.661h.07a.662.662 0 10-.698-.66zm-8.285 10.485a.666.666 0 00.26-.527.662.662 0 10-.26.527zm17.634-.548a.659.659 0 01.662-.641.662.662 0 11-.662.64z" class="stroke_5" clip-rule="evenodd"/>
          <path fill="#2C2C2C" fill-rule="evenodd" d="M58.41 27.166c-1.877-2.288-4.32-4.259-6.63-5.942l.002-.102a1.986 1.986 0 10-3.97.103c-2.31 1.683-4.752 3.653-6.63 5.941a9.085 9.085 0 00-1.243 1.994 1.987 1.987 0 00-.732 3.47 6.178 6.178 0 001.809 4.214c2.357 2.393 5.556 2.278 7.992.96a1.98 1.98 0 001.576 0c2.437 1.318 5.636 1.433 7.993-.96a6.178 6.178 0 001.81-4.213 1.987 1.987 0 00-.732-3.471 9.081 9.081 0 00-1.244-1.994zm.87 2.464A8.552 8.552 0 0058 27.503c-1.902-2.32-4.411-4.32-6.788-6.036a1.457 1.457 0 10-2.831 0c-2.377 1.717-4.886 3.716-6.79 6.036a8.552 8.552 0 00-1.28 2.127 1.456 1.456 0 00-.578 2.72c0 .085 0 .17.003.256a5.65 5.65 0 001.657 3.866c2.225 2.26 5.289 2.095 7.607.727a1.45 1.45 0 001.593 0c2.318 1.368 5.382 1.532 7.607-.727a5.649 5.649 0 001.657-3.866c.003-.085.004-.17.003-.257a1.455 1.455 0 00.742-1.27 1.457 1.457 0 00-1.321-1.45z" class="stroke 2_5" clip-rule="evenodd"/>
        </g>
      </g>
    </g>
  </g>
</svg>
