<svg xmlns="http://www.w3.org/2000/svg" width="80" height="112" fill="none" viewBox="0 0 80 112">
  <g class="five_clubs">
    <rect width="74.81" height="104.734" x=".376" y=".938" fill="#fff" rx="3.62"/>
    <rect width="78.991" height="110.588" x=".376" y=".938" fill="#fff" class="bg" rx="3.62"/>
    <g class="down">
      <g class="letter">
        <path fill="#222" d="M71.56 93.39c0-1.579-.497-2.795-1.49-3.65-.992-.854-2.183-1.297-3.605-1.297-2.168 0-3.789.788-4.88 2.35l1.82.92c.628-1.15 1.637-1.726 3.043-1.726.76 0 1.439.263 2.018.79.579.525.877 1.396.877 2.612 0 1.233-.282 2.087-.86 2.58-.58.494-1.506.74-2.796.74h-2.961v7.149h8.42v-1.446h-6.203v-4.158h1.124c1.655 0 2.978-.378 3.987-1.134 1.009-.756 1.505-2.005 1.505-3.73z" class="Vector"/>
      </g>
      <g class="symbol">
        <path fill="#2C2C2C" d="M63.395 81.826l.124-.47-.484-.032a1.75 1.75 0 111.691-2.517l.36.728.358-.728a1.75 1.75 0 111.691 2.517l-.484.033.125.469a1.752 1.752 0 01-1.69 2.201 1.75 1.75 0 01-1.691-2.201z" class="♣ club"/>
      </g>
    </g>
    <g class="up">
      <g class="letter_2">
        <path fill="#222" d="M15.338 15.033c0 1.578-.496 2.794-1.488 3.649-.993.854-2.184 1.298-3.606 1.298-2.167 0-3.788-.789-4.88-2.35l1.82-.92c.628 1.15 1.637 1.725 3.043 1.725.761 0 1.44-.263 2.018-.788.58-.526.877-1.397.877-2.614 0-1.232-.281-2.087-.86-2.58-.58-.493-1.506-.74-2.796-.74h-2.96V4.566h8.419V6.01H8.722v4.158h1.125c1.654 0 2.977.378 3.986 1.134 1.01.756 1.505 2.005 1.505 3.73z" class="Vector_2"/>
      </g>
      <g class="symbol_2">
        <path fill="#2C2C2C" d="M12.27 24.743l-.126.469.485.033a1.75 1.75 0 11-1.691 2.517l-.36-.729-.358.729a1.75 1.75 0 11-1.691-2.517l.484-.033-.125-.47a1.752 1.752 0 011.69-2.2 1.75 1.75 0 011.691 2.2z" class="♣ club_2"/>
      </g>
    </g>
    <g class="icons">
      <g class="symbol_3">
        <g class="♣ clubs">
          <g class="fill">
            <path fill="#2C2C2C" d="M46.992 53.633a1.66 1.66 0 11-1.686-2.456 5.283 5.283 0 10-10.514 0 1.661 1.661 0 11-1.687 2.456 5.283 5.283 0 105.707 7.783 1.66 1.66 0 112.473 0 5.283 5.283 0 105.707-7.783z"/>
            <path fill="#2C2C2C" d="M45.543 53.575a.751.751 0 01-.755-.754.754.754 0 11.755.754zM40.803 60.308a.757.757 0 01-.755.755.755.755 0 11.755-.755zM34.554 53.575a.755.755 0 110-1.51.755.755 0 010 1.51z"/>
          </g>
          <path fill="#fff" fill-rule="evenodd" d="M39.313 62.825c.215-.27.408-.56.578-.864a1.668 1.668 0 00.315 0 6.48 6.48 0 005.67 3.328 6.491 6.491 0 001.282-12.855 1.662 1.662 0 00-.669-.978 6.378 6.378 0 00.05-.81 6.491 6.491 0 10-12.932.81c-.33.23-.573.575-.669.978a6.494 6.494 0 00-5.208 6.364 6.491 6.491 0 0011.583 4.027zm6.23-9.25a.751.751 0 01-.755-.754.754.754 0 11.755.754zm-1.66-.754c0-.837.618-1.529 1.423-1.644a5.283 5.283 0 10-10.514 0 1.661 1.661 0 11-1.687 2.456 5.283 5.283 0 105.707 7.783 1.66 1.66 0 112.473 0 5.283 5.283 0 105.707-7.783 1.66 1.66 0 01-3.11-.812zm-3.08 7.487a.757.757 0 01-.755.755.755.755 0 11.755-.755zm-6.574-6.806a.751.751 0 00.738-.05.759.759 0 00.342-.631.754.754 0 10-1.08.681z" class="stroke" clip-rule="evenodd"/>
          <path fill="#2C2C2C" fill-rule="evenodd" d="M39.786 63.2c.091-.114.179-.232.262-.353a7.083 7.083 0 005.827 3.046 7.095 7.095 0 001.746-13.973 2.266 2.266 0 00-.499-.722l.002-.028a7.095 7.095 0 10-14.152 0l.003.028c-.21.204-.38.449-.5.722l-.049.013a7.095 7.095 0 107.36 11.267zm.998-.375a6.522 6.522 0 01-.578-.864 1.665 1.665 0 01-.315 0 6.298 6.298 0 01-.578.864 6.491 6.491 0 11-6.374-10.391c.095-.403.338-.749.668-.978a6.608 6.608 0 01-.05-.81 6.491 6.491 0 1112.932.81c.33.23.573.575.67.978a6.494 6.494 0 015.208 6.364 6.491 6.491 0 01-11.583 4.027z" class="stroke 2" clip-rule="evenodd"/>
        </g>
      </g>
      <g class="symbol_4">
        <g class="♣ clubs_2">
          <g class="fill_2">
            <path fill="#2C2C2C" d="M32.483 25.976a1.66 1.66 0 11-1.686-2.456 5.283 5.283 0 10-10.515 0 1.661 1.661 0 11-1.686 2.456 5.283 5.283 0 105.707 7.783 1.66 1.66 0 112.473 0 5.283 5.283 0 105.707-7.783z"/>
            <path fill="#2C2C2C" d="M31.035 25.918a.751.751 0 01-.755-.754.754.754 0 11.755.754zM26.295 32.65a.757.757 0 01-.755.756.755.755 0 11.755-.755zM20.045 25.918a.755.755 0 110-1.51.755.755 0 010 1.51z"/>
          </g>
          <path fill="#fff" fill-rule="evenodd" d="M24.804 35.168c.215-.271.409-.56.579-.864a1.699 1.699 0 00.314 0 6.48 6.48 0 005.67 3.328 6.491 6.491 0 001.283-12.855 1.662 1.662 0 00-.67-.978 6.491 6.491 0 00.05-.81 6.491 6.491 0 10-12.931.81c-.33.23-.573.575-.67.978a6.494 6.494 0 00-5.208 6.364 6.491 6.491 0 0011.583 4.027zm6.23-9.25a.751.751 0 01-.754-.754.754.754 0 11.755.754zm-1.66-.754a1.66 1.66 0 011.423-1.644 5.283 5.283 0 10-10.515 0 1.661 1.661 0 11-1.686 2.456 5.283 5.283 0 105.707 7.783 1.66 1.66 0 112.473 0 5.283 5.283 0 105.707-7.783 1.66 1.66 0 01-3.109-.812zm-3.08 7.487a.757.757 0 01-.754.755.755.755 0 11.755-.755zm-6.574-6.806a.751.751 0 00.739-.05.758.758 0 00.34-.631.754.754 0 10-1.079.681z" class="stroke_2" clip-rule="evenodd"/>
          <path fill="#2C2C2C" fill-rule="evenodd" d="M25.277 35.543c.091-.115.179-.232.263-.353a7.084 7.084 0 005.827 3.046 7.095 7.095 0 001.795-13.96l-.05-.013a2.266 2.266 0 00-.498-.722l.002-.027a7.095 7.095 0 10-14.152 0l.002.027c-.21.204-.38.449-.499.722l-.05.013a7.095 7.095 0 107.36 11.268zm.998-.375a6.522 6.522 0 01-.578-.864 1.699 1.699 0 01-.314 0 6.298 6.298 0 01-.579.864 6.491 6.491 0 11-6.374-10.391c.096-.403.339-.749.669-.978a6.608 6.608 0 01-.05-.81 6.491 6.491 0 1112.932.81c.33.23.573.575.669.978a6.494 6.494 0 015.208 6.364 6.491 6.491 0 01-11.582 4.027z" class="stroke 2_2" clip-rule="evenodd"/>
        </g>
      </g>
      <g class="symbol_5">
        <g class="♣ clubs_3">
          <g class="fill_3">
            <path fill="#2C2C2C" d="M57.42 78.82a1.66 1.66 0 10-1.686 2.456 5.283 5.283 0 11-10.514 0 1.66 1.66 0 10-1.687-2.456 5.283 5.283 0 115.707-7.783 1.66 1.66 0 102.473 0 5.283 5.283 0 115.707 7.783z"/>
            <path fill="#2C2C2C" d="M55.971 78.877a.751.751 0 00-.754.755.754.754 0 10.754-.755zM51.231 72.145a.757.757 0 00-.755-.755.755.755 0 10.755.755zM44.982 78.877a.753.753 0 00-.755.755.755.755 0 10.755-.755z"/>
          </g>
          <path fill="#fff" fill-rule="evenodd" d="M49.74 69.627c.216.272.41.56.58.864a1.699 1.699 0 01.314 0 6.504 6.504 0 015.67-3.328 6.491 6.491 0 011.282 12.855 1.662 1.662 0 01-.668.978 6.608 6.608 0 01.05.81 6.491 6.491 0 11-12.933-.81 1.662 1.662 0 01-.669-.978 6.494 6.494 0 01-5.208-6.364 6.491 6.491 0 0111.583-4.027zm6.231 9.25a.751.751 0 00-.754.755.754.754 0 10.754-.755zm-1.66.755c0 .836.618 1.528 1.423 1.644a5.283 5.283 0 11-10.514 0 1.66 1.66 0 10-1.687-2.456 5.283 5.283 0 115.707-7.783 1.66 1.66 0 102.473 0 5.283 5.283 0 115.707 7.783 1.66 1.66 0 00-3.11.812zm-3.08-7.487a.757.757 0 00-.755-.755.755.755 0 10.755.755zm-6.574 6.805a.753.753 0 011.012.37.752.752 0 01-.246.924.755.755 0 11-.766-1.294z" class="stroke_3" clip-rule="evenodd"/>
          <path fill="#2C2C2C" fill-rule="evenodd" d="M50.214 69.252a7.2 7.2 0 01.263.353 7.083 7.083 0 015.827-3.046 7.095 7.095 0 011.795 13.96c-.017.005-.033.01-.05.013a2.27 2.27 0 01-.499.723l.002.027a7.095 7.095 0 11-14.152 0l.003-.027c-.21-.204-.38-.45-.5-.723l-.049-.012a7.095 7.095 0 117.36-11.268zm.998.375a6.52 6.52 0 00-.578.864 1.699 1.699 0 00-.315 0 6.527 6.527 0 00-.578-.864 6.491 6.491 0 10-6.374 10.391c.096.403.338.75.668.978a6.491 6.491 0 00-.05.81 6.491 6.491 0 1012.933-.81c.33-.229.572-.575.669-.978a6.494 6.494 0 005.208-6.364 6.491 6.491 0 00-11.583-4.027z" class="stroke 2_3" clip-rule="evenodd"/>
        </g>
      </g>
      <g class="symbol_6">
        <g class="♣ clubs_4">
          <g class="fill_4">
            <path fill="#2C2C2C" d="M32.937 78.82a1.66 1.66 0 10-1.686 2.456 5.283 5.283 0 11-10.514 0 1.66 1.66 0 10-1.687-2.456 5.283 5.283 0 115.707-7.783 1.66 1.66 0 102.473 0 5.283 5.283 0 115.707 7.783z"/>
            <path fill="#2C2C2C" d="M31.488 78.877a.751.751 0 00-.755.755.754.754 0 10.755-.755zM26.748 72.145a.757.757 0 00-.755-.755.755.755 0 10.755.755zM20.498 78.877a.753.753 0 00-.754.755.755.755 0 10.755-.755z"/>
          </g>
          <path fill="#fff" fill-rule="evenodd" d="M25.258 69.627c.215.272.408.56.578.864a1.698 1.698 0 01.314 0 6.48 6.48 0 015.67-3.328 6.491 6.491 0 011.283 12.855 1.662 1.662 0 01-.669.978 6.491 6.491 0 01.05.81 6.491 6.491 0 11-12.932-.81 1.662 1.662 0 01-.669-.978 6.494 6.494 0 01-5.208-6.364 6.491 6.491 0 0111.583-4.027zm6.23 9.25a.751.751 0 00-.755.755.754.754 0 10.755-.755zm-1.66.755a1.66 1.66 0 001.422 1.644 5.283 5.283 0 11-10.514 0 1.66 1.66 0 10-1.686-2.456 5.283 5.283 0 115.707-7.783 1.66 1.66 0 102.473 0 5.283 5.283 0 115.707 7.783 1.66 1.66 0 00-3.11.812zm-3.08-7.487a.757.757 0 00-.755-.755.755.755 0 10.755.755zm-6.574 6.805a.753.753 0 011.012.37.753.753 0 01-.688 1.067.755.755 0 01-.324-1.437z" class="stroke_4" clip-rule="evenodd"/>
          <path fill="#2C2C2C" fill-rule="evenodd" d="M25.73 69.252c.092.115.18.233.263.353a7.083 7.083 0 015.827-3.046 7.095 7.095 0 011.795 13.96c-.016.005-.032.01-.049.013-.119.274-.29.519-.499.723l.002.027a7.095 7.095 0 11-14.152 0l.002-.027c-.21-.204-.38-.45-.499-.723l-.049-.012a7.095 7.095 0 117.36-11.268zm.999.375a6.546 6.546 0 00-.579.864 1.699 1.699 0 00-.314 0 6.298 6.298 0 00-.578-.864 6.491 6.491 0 10-6.374 10.391c.095.403.338.75.668.978a6.608 6.608 0 00-.05.81 6.491 6.491 0 1012.932-.81c.33-.229.573-.575.67-.978a6.494 6.494 0 005.208-6.364 6.491 6.491 0 00-11.583-4.027z" class="stroke 2_4" clip-rule="evenodd"/>
        </g>
      </g>
      <g class="symbol_7">
        <g class="♣ clubs_5">
          <g class="fill_5">
            <path fill="#2C2C2C" d="M56.966 25.976a1.66 1.66 0 11-1.686-2.456 5.283 5.283 0 10-10.514 0 1.661 1.661 0 11-1.686 2.456 5.283 5.283 0 105.707 7.783 1.66 1.66 0 112.473 0 5.283 5.283 0 105.707-7.783z"/>
            <path fill="#2C2C2C" d="M55.518 25.918a.751.751 0 01-.755-.754.754.754 0 11.755.754zM50.778 32.65a.755.755 0 11-1.51 0 .755.755 0 011.51 0zM44.528 25.918a.752.752 0 01-.754-.754.755.755 0 11.754.754z"/>
          </g>
          <path fill="#fff" fill-rule="evenodd" d="M49.288 35.168c.214-.271.408-.56.578-.864a1.699 1.699 0 00.314 0 6.504 6.504 0 005.67 3.328 6.491 6.491 0 001.283-12.855 1.662 1.662 0 00-.669-.978 6.491 6.491 0 00.05-.81 6.491 6.491 0 10-12.932.81c-.33.23-.573.575-.669.978a6.494 6.494 0 00-5.208 6.364 6.491 6.491 0 0011.583 4.027zm6.23-9.25a.751.751 0 01-.755-.754.754.754 0 11.755.754zm-1.66-.754a1.66 1.66 0 011.422-1.644 5.283 5.283 0 10-10.514 0 1.661 1.661 0 11-1.686 2.456 5.283 5.283 0 105.707 7.783 1.66 1.66 0 112.473 0 5.283 5.283 0 105.707-7.783 1.66 1.66 0 01-3.11-.812zm-3.08 7.487a.755.755 0 11-1.51 0 .755.755 0 011.51 0zm-6.575-6.806a.752.752 0 00.74-.05.758.758 0 00.34-.631.754.754 0 10-1.08.681z" class="stroke_5" clip-rule="evenodd"/>
          <path fill="#2C2C2C" fill-rule="evenodd" d="M49.76 35.543c.092-.115.18-.232.263-.353a7.084 7.084 0 005.827 3.046 7.095 7.095 0 001.795-13.96l-.05-.013a2.266 2.266 0 00-.498-.722l.002-.027a7.095 7.095 0 10-14.152 0l.002.027c-.21.204-.38.449-.499.722l-.049.013a7.095 7.095 0 107.36 11.268zm.999-.375a6.522 6.522 0 01-.579-.864 1.699 1.699 0 01-.314 0 6.298 6.298 0 01-.578.864 6.491 6.491 0 11-6.374-10.391c.095-.403.338-.749.668-.978a6.491 6.491 0 01-.05-.81 6.491 6.491 0 1112.932.81c.33.23.573.575.67.978a6.494 6.494 0 015.208 6.364 6.491 6.491 0 01-11.583 4.027z" class="stroke 2_5" clip-rule="evenodd"/>
        </g>
      </g>
    </g>
  </g>
</svg>
