<svg xmlns="http://www.w3.org/2000/svg" width="80" height="111" fill="none" viewBox="0 0 80 111">
  <g class="five_diamond">
    <rect width="78.991" height="110.588" x=".376" fill="#fff" class="bg" rx="3.62"/>
    <g class="down">
      <g class="letter">
        <path fill="#222" d="M71.56 92.452c0-1.578-.497-2.794-1.49-3.649-.992-.854-2.183-1.298-3.605-1.298-2.168 0-3.789.789-4.88 2.35l1.82.92c.628-1.15 1.637-1.725 3.043-1.725.76 0 1.439.263 2.018.789.579.526.877 1.397.877 2.613 0 1.232-.282 2.087-.86 2.58-.58.493-1.506.74-2.796.74h-2.961v7.148h8.42v-1.446h-6.203v-4.158h1.124c1.655 0 2.978-.378 3.987-1.134 1.009-.756 1.505-2.005 1.505-3.73z" class="Vector"/>
      </g>
      <g class="symbol">
        <path fill="#F24E1E" d="M65.094 77.15l2.472 2.88-2.472 2.888-2.473-2.888 2.473-2.88z" class="♦ diamonds"/>
      </g>
    </g>
    <g class="up">
      <g class="letter_2">
        <path fill="#222" d="M15.338 14.096c0 1.578-.496 2.794-1.488 3.648-.993.855-2.184 1.299-3.606 1.299-2.167 0-3.788-.79-4.88-2.35l1.82-.92c.628 1.15 1.637 1.725 3.043 1.725.761 0 1.44-.263 2.018-.79.58-.525.877-1.396.877-2.612 0-1.233-.281-2.087-.86-2.58-.58-.493-1.506-.74-2.796-.74h-2.96V3.627h8.419v1.446H8.722v4.158h1.125c1.654 0 2.977.378 3.986 1.134 1.01.756 1.505 2.005 1.505 3.73z" class="Vector_2"/>
      </g>
      <g class="symbol_2">
        <path fill="#F24E1E" d="M10.57 27.544l-2.472-2.88 2.472-2.889 2.473 2.889-2.473 2.88z" class="♦ diamonds_2"/>
      </g>
    </g>
    <g class="icons">
      <g class="symbol_3">
        <g class="♦ diamonds_3">
          <path fill="#F24E1E" d="M39.798 62.434l-5.68-6.617a1.745 1.745 0 00.046-2.725l5.637-6.587a1.74 1.74 0 001.031.336 1.74 1.74 0 001.032-.337l5.638 6.588c-.386.32-.631.804-.631 1.345 0 .56.265 1.06.676 1.38l-5.68 6.618a1.74 1.74 0 00-1.035-.34 1.74 1.74 0 00-1.034.339z" class="fill"/>
          <path fill="#fff" fill-rule="evenodd" d="M32.824 52.703l6.281-7.34a1.748 1.748 0 011.727-2.018 1.748 1.748 0 011.727 2.018l6.283 7.34a1.748 1.748 0 011.524 1.78v.001a1.748 1.748 0 01-1.435 1.672l-6.37 7.423a1.748 1.748 0 01-1.727 2.012h-.002a1.748 1.748 0 01-1.728-2.013l-6.37-7.422a1.748 1.748 0 01-1.435-1.671v-.002-.046c0-.89.665-1.625 1.525-1.734zm6.974 9.731l-5.68-6.617a1.745 1.745 0 00.046-2.725l5.637-6.587a1.74 1.74 0 001.031.336 1.74 1.74 0 001.032-.337l5.638 6.588c-.386.32-.631.804-.631 1.345 0 .56.265 1.06.676 1.38l-5.68 6.618a1.74 1.74 0 00-1.035-.34 1.74 1.74 0 00-1.034.339zm1.034-16.546a.794.794 0 11-.001-1.588.794.794 0 01.001 1.588zm-.409 17.274a.794.794 0 10.818 1.362.794.794 0 00-.818-1.362zm-6.582-8.725a.793.793 0 11-1.589 0 .794.794 0 111.59 0zm14.329.655a.793.793 0 01.449-1.45.794.794 0 11-.45 1.45z" class="stroke" clip-rule="evenodd"/>
          <path fill="#F24E1E" fill-rule="evenodd" d="M30.663 54.437a1.638 1.638 0 00.002.097 2.384 2.384 0 001.721 2.193l6.063 7.063v.053a2.384 2.384 0 002.383 2.384h.001a2.383 2.383 0 002.382-2.435l6.064-7.065a2.385 2.385 0 001.723-2.26v-.03a2.384 2.384 0 00-1.823-2.318l-5.964-6.968v-.058a2.384 2.384 0 10-4.766.06l-5.963 6.966a2.384 2.384 0 00-1.823 2.318zm.636.048v-.002-.046c0-.89.665-1.625 1.525-1.734l6.281-7.34a1.748 1.748 0 011.727-2.018 1.748 1.748 0 011.727 2.018l6.283 7.34a1.748 1.748 0 011.524 1.78v.001a1.748 1.748 0 01-1.435 1.672l-6.37 7.423a1.748 1.748 0 01-1.727 2.012h-.002a1.748 1.748 0 01-1.728-2.013l-6.37-7.422a1.748 1.748 0 01-1.435-1.671z" class="stroke 2" clip-rule="evenodd"/>
          <g class="dots">
            <path fill="#F24E1E" d="M40.832 44.299a.794.794 0 110 1.589.794.794 0 010-1.59zM33.047 53.642a.794.794 0 110 1.589.794.794 0 010-1.589zM48.619 53.642a.794.794 0 110 1.589.794.794 0 010-1.589zM41.627 63.843a.794.794 0 11-1.59 0 .794.794 0 011.59 0z"/>
          </g>
        </g>
      </g>
      <g class="symbol_4">
        <g class="♦ diamonds_4">
          <path fill="#F24E1E" d="M25.5 35.138l-5.774-6.727a1.774 1.774 0 00.046-2.771l5.732-6.697c.294.215.656.342 1.048.342a1.77 1.77 0 001.049-.343l5.732 6.698a1.773 1.773 0 00-.642 1.367c0 .57.27 1.078.688 1.403l-5.775 6.728a1.769 1.769 0 00-1.052-.345 1.77 1.77 0 00-1.051.345z" class="fill_2"/>
          <path fill="#fff" fill-rule="evenodd" d="M18.41 25.244l6.386-7.461a1.777 1.777 0 011.756-2.052 1.777 1.777 0 011.756 2.05l6.387 7.463a1.777 1.777 0 011.55 1.81v.001a1.778 1.778 0 01-1.459 1.7l-6.477 7.546a1.777 1.777 0 01-1.756 2.046h-.001a1.777 1.777 0 01-1.757-2.047l-6.476-7.545a1.778 1.778 0 01-1.459-1.7v-.048c0-.905.676-1.652 1.55-1.763zm7.09 9.894l-5.774-6.727a1.774 1.774 0 00.046-2.771l5.732-6.697c.294.215.656.342 1.048.342a1.77 1.77 0 001.049-.343l5.732 6.698a1.773 1.773 0 00-.642 1.367c0 .57.27 1.078.688 1.403l-5.775 6.728a1.769 1.769 0 00-1.052-.345 1.77 1.77 0 00-1.051.345zm1.052-16.823a.805.805 0 01-.808-.807.808.808 0 11.808.807zm-.416 17.563a.807.807 0 10.83 1.384.807.807 0 00-.83-1.384zm-6.691-8.871a.807.807 0 11-1.614 0 .807.807 0 011.614 0zm14.567.666a.807.807 0 11.912-1.332.807.807 0 01-.912 1.332z" class="stroke_2" clip-rule="evenodd"/>
          <path fill="#F24E1E" fill-rule="evenodd" d="M16.213 27.007a3.435 3.435 0 00.002.1 2.424 2.424 0 001.75 2.229l6.164 7.18v.054a2.423 2.423 0 104.846-.053l6.165-7.181a2.424 2.424 0 001.752-2.297v-.032c0-1.143-.79-2.1-1.854-2.356l-6.063-7.085v-.058a2.423 2.423 0 00-2.422-2.424h-.001a2.423 2.423 0 00-2.422 2.484l-6.063 7.083a2.424 2.424 0 00-1.854 2.356zm.647.049v-.002-.047c0-.905.676-1.652 1.55-1.763l6.386-7.461a1.777 1.777 0 011.756-2.052 1.777 1.777 0 011.756 2.05l6.387 7.463a1.777 1.777 0 011.55 1.81v.001a1.778 1.778 0 01-1.459 1.7l-6.477 7.546a1.777 1.777 0 01-1.756 2.046h-.001a1.777 1.777 0 01-1.757-2.047l-6.476-7.545a1.778 1.778 0 01-1.459-1.7z" class="stroke 2_2" clip-rule="evenodd"/>
          <g class="dots_2">
            <path fill="#F24E1E" d="M26.552 16.7a.808.808 0 110 1.615.808.808 0 010-1.615zM18.637 26.199a.808.808 0 110 1.615.808.808 0 010-1.615zM34.468 26.199a.808.808 0 110 1.615.808.808 0 010-1.615zM27.36 36.57a.808.808 0 11-1.616 0 .808.808 0 011.616 0z"/>
          </g>
        </g>
      </g>
      <g class="symbol_5">
        <g class="♦ diamonds_5">
          <path fill="#F24E1E" d="M50.226 85.918l-5.68-6.727c.412-.326.677-.833.677-1.404 0-.55-.246-1.041-.631-1.367l5.638-6.697a1.72 1.72 0 002.062 0l5.638 6.697c-.386.326-.631.817-.631 1.367 0 .57.265 1.078.676 1.404l-5.68 6.727a1.72 1.72 0 00-2.069 0z" class="fill_3"/>
          <path fill="#fff" fill-rule="evenodd" d="M43.252 76.024l6.281-7.461a1.822 1.822 0 01-.02-.275c0-.982.782-1.777 1.747-1.777.966 0 1.748.796 1.748 1.777 0 .093-.007.184-.02.274l6.282 7.462a1.768 1.768 0 011.524 1.81v.002a1.769 1.769 0 01-1.435 1.7l-6.37 7.546c.012.087.02.177.02.268 0 .982-.783 1.777-1.748 1.777-.966 0-1.749-.795-1.749-1.777 0-.091.007-.182.02-.27l-6.37-7.544a1.769 1.769 0 01-1.434-1.7h-.001v-.001-.048c0-.905.665-1.652 1.525-1.763zm6.974 9.894l-5.68-6.727c.412-.326.677-.833.677-1.404 0-.55-.246-1.041-.631-1.367l5.638-6.697a1.722 1.722 0 002.062 0l5.638 6.697c-.386.326-.631.817-.631 1.367 0 .57.265 1.078.676 1.404l-5.68 6.727a1.72 1.72 0 00-2.069 0zm1.034-16.823a.782.782 0 01-.406-.113.81.81 0 01-.388-.694c0-.446.355-.808.794-.808.439 0 .795.362.795.808a.81.81 0 01-.387.693.782.782 0 01-.408.115zm-.409 17.563a.81.81 0 00-.385.692c0 .447.355.808.794.808a.801.801 0 00.795-.808.81.81 0 00-.385-.692.78.78 0 00-.819 0zm-6.582-8.871a.81.81 0 01-.345.666.782.782 0 01-.45.141.801.801 0 01-.794-.807c0-.446.356-.808.795-.808.188 0 .36.066.497.177a.811.811 0 01.297.63zm14.329.666a.81.81 0 01-.346-.666c0-.255.117-.483.298-.63a.783.783 0 01.497-.178c.439 0 .794.362.794.808a.801.801 0 01-.794.807.782.782 0 01-.45-.14z" class="stroke_3" clip-rule="evenodd"/>
          <path fill="#F24E1E" fill-rule="evenodd" d="M41.091 77.787a3.435 3.435 0 00.002.1 2.417 2.417 0 001.722 2.229l6.062 7.18v.054c0 1.339 1.067 2.424 2.383 2.424h.001c1.316 0 2.383-1.086 2.383-2.424v-.052l6.063-7.182a2.417 2.417 0 001.723-2.33c0-1.142-.776-2.098-1.823-2.355l-5.964-7.084v-.06c0-1.337-1.066-2.422-2.382-2.422-1.317 0-2.384 1.084-2.384 2.423v.06l-5.963 7.083a2.416 2.416 0 00-1.823 2.356zm.636.049v-.001-.048c0-.905.665-1.652 1.525-1.763l6.281-7.461a1.822 1.822 0 01-.02-.275c0-.982.782-1.777 1.747-1.777.966 0 1.748.796 1.748 1.777 0 .093-.007.184-.02.274l6.282 7.462a1.768 1.768 0 011.524 1.81v.002a1.769 1.769 0 01-1.435 1.7l-6.37 7.546c.012.087.02.177.02.268 0 .982-.783 1.777-1.748 1.777-.966 0-1.749-.795-1.749-1.777 0-.091.007-.182.02-.27l-6.37-7.544a1.769 1.769 0 01-1.434-1.7z" class="stroke 2_3" clip-rule="evenodd"/>
          <g class="dots_3">
            <path fill="#F24E1E" d="M51.26 67.48c.439 0 .795.362.795.808a.801.801 0 01-.795.808.801.801 0 01-.794-.808c0-.446.355-.808.794-.808zM43.475 76.979c.438 0 .794.362.794.808a.801.801 0 01-.794.807.801.801 0 01-.795-.807c0-.446.356-.808.795-.808zM59.047 76.979c.439 0 .794.362.794.808a.801.801 0 01-.794.807.801.801 0 01-.795-.807c0-.446.356-.808.795-.808zM52.055 87.35a.801.801 0 01-.795.808.801.801 0 01-.794-.808c0-.446.355-.807.794-.807.439 0 .795.361.795.807z"/>
          </g>
        </g>
      </g>
      <g class="symbol_6">
        <g class="♦ diamonds_6">
          <path fill="#F24E1E" d="M25.743 85.918l-5.68-6.727c.412-.326.676-.833.676-1.404 0-.55-.245-1.041-.63-1.367l5.637-6.697a1.721 1.721 0 002.062 0l5.639 6.697c-.386.326-.631.817-.631 1.367 0 .57.264 1.078.676 1.404l-5.68 6.727a1.72 1.72 0 00-2.07 0z" class="fill_4"/>
          <path fill="#fff" fill-rule="evenodd" d="M18.768 76.024l6.282-7.461a1.822 1.822 0 01-.02-.275c0-.982.782-1.777 1.747-1.777.966 0 1.748.796 1.748 1.777 0 .093-.007.184-.02.274l6.282 7.462a1.767 1.767 0 011.524 1.81v.002a1.769 1.769 0 01-1.435 1.7l-6.371 7.546c.013.087.02.177.02.268 0 .982-.782 1.777-1.747 1.777h-.001c-.965 0-1.748-.795-1.748-1.777 0-.091.007-.182.02-.27l-6.37-7.544a1.769 1.769 0 01-1.435-1.7v-.001-.048c0-.905.664-1.652 1.524-1.763zm6.975 9.894l-5.68-6.727c.412-.326.676-.833.676-1.404 0-.55-.245-1.041-.63-1.367l5.637-6.697a1.721 1.721 0 002.062 0l5.639 6.697c-.386.326-.631.817-.631 1.367 0 .57.264 1.078.676 1.404l-5.68 6.727a1.72 1.72 0 00-2.07 0zm1.034-16.823a.781.781 0 01-.407-.113.81.81 0 01-.387-.694c0-.446.355-.808.794-.808.439 0 .794.362.794.808a.81.81 0 01-.387.693.781.781 0 01-.407.115zm-.41 17.563a.81.81 0 00-.384.692c0 .447.355.808.794.808a.801.801 0 00.794-.808.81.81 0 00-.384-.692.78.78 0 00-.82 0zm-6.581-8.871a.81.81 0 01-.345.666.782.782 0 01-.45.141.801.801 0 01-.794-.807c0-.446.356-.808.794-.808.189 0 .361.066.497.177a.811.811 0 01.298.63zm14.328.666a.81.81 0 01-.345-.666c0-.255.116-.483.298-.63a.783.783 0 01.497-.178c.438 0 .794.362.794.808a.801.801 0 01-.794.807.783.783 0 01-.45-.14z" class="stroke_4" clip-rule="evenodd"/>
          <path fill="#F24E1E" fill-rule="evenodd" d="M16.608 77.787a3.435 3.435 0 00.002.1 2.417 2.417 0 001.721 2.229l6.063 7.18v.054c0 1.339 1.067 2.424 2.383 2.424 1.317 0 2.383-1.086 2.383-2.424v-.052l6.064-7.182a2.417 2.417 0 001.723-2.297v-.032c0-1.143-.777-2.1-1.823-2.356l-5.964-7.084v-.06c0-1.337-1.066-2.422-2.382-2.422h-.001c-1.316 0-2.384 1.084-2.384 2.423l.001.06-5.963 7.083a2.416 2.416 0 00-1.823 2.356zm.636.049v-.001-.048c0-.905.664-1.652 1.524-1.763l6.282-7.461a1.822 1.822 0 01-.021-.275c0-.982.783-1.777 1.748-1.777.966 0 1.748.796 1.748 1.777 0 .093-.007.184-.02.274l6.282 7.462a1.768 1.768 0 011.524 1.81v.002a1.769 1.769 0 01-1.435 1.7l-6.371 7.546c.013.087.02.177.02.268 0 .982-.782 1.777-1.747 1.777h-.001c-.965 0-1.748-.795-1.748-1.777 0-.091.007-.182.02-.27l-6.37-7.544a1.769 1.769 0 01-1.435-1.7z" class="stroke 2_4" clip-rule="evenodd"/>
          <g class="dots_4">
            <path fill="#F24E1E" d="M26.777 67.48c.439 0 .794.362.794.808a.801.801 0 01-.794.808.801.801 0 01-.794-.808c0-.446.355-.808.794-.808zM18.991 76.979c.44 0 .795.362.795.808a.801.801 0 01-.795.807.801.801 0 01-.794-.807c0-.446.356-.808.794-.808zM34.564 76.979c.438 0 .794.362.794.808a.801.801 0 01-.794.807.801.801 0 01-.795-.807c0-.446.356-.808.795-.808zM27.572 87.35a.801.801 0 01-.795.808.801.801 0 01-.794-.808c0-.446.355-.807.794-.807.439 0 .794.361.794.807z"/>
          </g>
        </g>
      </g>
      <g class="symbol_7">
        <g class="♦ diamonds_7">
          <path fill="#F24E1E" d="M49.773 35.138l-5.68-6.727c.411-.326.676-.834.676-1.404 0-.55-.245-1.041-.63-1.367l5.637-6.697a1.721 1.721 0 002.062 0l5.639 6.697a1.785 1.785 0 00-.631 1.367c0 .57.264 1.078.676 1.403l-5.68 6.728a1.72 1.72 0 00-2.07 0z" class="fill_5"/>
          <path fill="#fff" fill-rule="evenodd" d="M42.798 25.244l6.282-7.461a1.822 1.822 0 01-.021-.275c0-.982.783-1.777 1.748-1.777s1.748.795 1.748 1.777c0 .093-.007.184-.02.274l6.282 7.462a1.768 1.768 0 011.524 1.81v.001a1.769 1.769 0 01-1.435 1.7l-6.371 7.546c.013.088.02.178.02.27 0 .98-.782 1.776-1.748 1.776-.965 0-1.748-.795-1.748-1.777 0-.092.007-.182.02-.27l-6.37-7.545a1.769 1.769 0 01-1.435-1.7v-.048c0-.905.664-1.652 1.524-1.763zm6.975 9.894l-5.68-6.727c.411-.326.676-.834.676-1.404 0-.55-.245-1.041-.63-1.367l5.637-6.697a1.72 1.72 0 002.062 0l5.639 6.697a1.785 1.785 0 00-.631 1.367c0 .57.264 1.078.676 1.403l-5.68 6.728a1.72 1.72 0 00-2.07 0zm1.034-16.823a.781.781 0 01-.407-.113.81.81 0 01-.388-.694c0-.447.356-.808.795-.808.439 0 .794.361.794.808a.81.81 0 01-.387.693.782.782 0 01-.407.114zm-.41 17.563a.81.81 0 00-.385.692c0 .446.356.808.795.808a.801.801 0 00.794-.808.81.81 0 00-.384-.692.78.78 0 00-.82 0zm-6.581-8.871a.81.81 0 01-.346.666.782.782 0 01-.449.141.801.801 0 01-.794-.807c0-.446.356-.808.794-.808.188 0 .361.066.497.177a.811.811 0 01.298.63zm14.328.666a.81.81 0 01-.345-.666c0-.255.116-.483.298-.63a.783.783 0 01.496-.178c.44 0 .795.362.795.808a.801.801 0 01-.794.807.782.782 0 01-.45-.14z" class="stroke_5" clip-rule="evenodd"/>
          <path fill="#F24E1E" fill-rule="evenodd" d="M40.638 27.007a1.712 1.712 0 00.002.1 2.417 2.417 0 001.721 2.229l6.063 7.18v.054c0 1.339 1.066 2.423 2.383 2.423s2.383-1.085 2.383-2.423v-.052l6.064-7.182a2.417 2.417 0 001.723-2.297v-.032c0-1.143-.777-2.1-1.823-2.356l-5.964-7.085v-.058c0-1.338-1.066-2.423-2.382-2.424h-.001c-1.317 0-2.384 1.085-2.384 2.424l.001.06-5.963 7.083a2.416 2.416 0 00-1.823 2.356zm.636.049v-.002-.047c0-.905.664-1.652 1.524-1.763l6.282-7.461a1.822 1.822 0 01-.021-.275c0-.982.783-1.777 1.748-1.777s1.748.795 1.748 1.777c0 .093-.007.184-.02.274l6.282 7.462a1.768 1.768 0 011.524 1.81v.001a1.769 1.769 0 01-1.435 1.7l-6.371 7.546c.013.088.02.178.02.27 0 .98-.782 1.776-1.748 1.776-.965 0-1.748-.795-1.748-1.777 0-.092.007-.182.02-.27l-6.37-7.545a1.769 1.769 0 01-1.435-1.7z" class="stroke 2_5" clip-rule="evenodd"/>
          <g class="dots_5">
            <path fill="#F24E1E" d="M50.807 16.7c.439 0 .794.361.794.808a.801.801 0 01-.794.807.801.801 0 01-.795-.807c0-.447.356-.808.795-.808zM43.021 26.199c.44 0 .795.361.795.808a.801.801 0 01-.795.807.801.801 0 01-.794-.807c0-.447.356-.808.794-.808zM58.593 26.199c.44 0 .795.361.795.808a.801.801 0 01-.794.807.801.801 0 01-.795-.807c0-.447.356-.808.794-.808zM51.601 36.57a.801.801 0 01-.794.808.801.801 0 01-.795-.808c0-.446.356-.807.795-.807.439 0 .794.361.794.807z"/>
          </g>
        </g>
      </g>
    </g>
  </g>
</svg>
