<svg xmlns="http://www.w3.org/2000/svg" width="80" height="111" fill="none" viewBox="0 0 80 111">
  <g class="five_heart">
    <rect width="74.81" height="104.734" x=".376" y=".359" fill="#fff" rx="3.62"/>
    <rect width="78.991" height="110.588" x=".376" y=".359" fill="#fff" class="bg" rx="3.62"/>
    <g class="down">
      <g class="letter">
        <path fill="#222" d="M71.56 92.811c0-1.578-.497-2.794-1.49-3.649-.992-.854-2.183-1.298-3.605-1.298-2.168 0-3.789.79-4.88 2.35l1.82.92c.628-1.15 1.637-1.725 3.043-1.725.76 0 1.439.263 2.018.789.579.526.877 1.397.877 2.613 0 1.232-.282 2.087-.86 2.58-.58.493-1.506.74-2.796.74h-2.961v7.149h8.42v-1.447h-6.203v-4.157h1.124c1.655 0 2.978-.378 3.987-1.134 1.009-.756 1.505-2.005 1.505-3.731z" class="Vector"/>
      </g>
      <g class="symbol">
        <path fill="#F24E1E" d="M67.897 79.887c.707.863.875 2.068.1 2.856-.839.853-2.115.606-2.889-.181-.774.787-2.05 1.034-2.888.181-.776-.788-.608-1.993.1-2.856.763-.932 1.808-1.733 2.788-2.427.98.694 2.026 1.495 2.79 2.427z" class="♥ hearts"/>
      </g>
    </g>
    <g class="up">
      <g class="letter_2">
        <path fill="#222" d="M15.338 14.455c0 1.578-.496 2.794-1.488 3.649-.993.854-2.184 1.298-3.606 1.298-2.167 0-3.788-.789-4.88-2.35l1.82-.92c.628 1.15 1.637 1.725 3.043 1.725.761 0 1.44-.263 2.018-.789.58-.526.877-1.397.877-2.613 0-1.232-.281-2.087-.86-2.58-.58-.493-1.506-.74-2.796-.74h-2.96V3.986h8.419v1.447H8.722V9.59h1.125c1.654 0 2.977.378 3.986 1.134 1.01.755 1.505 2.005 1.505 3.73z" class="Vector_2"/>
      </g>
      <g class="symbol_2">
        <path fill="#F24E1E" d="M7.767 25.525c-.707-.863-.875-2.067-.1-2.856.839-.853 2.115-.606 2.889.182.774-.788 2.05-1.035 2.888-.182.775.789.608 1.993-.1 2.856-.763.932-1.808 1.733-2.788 2.428-.98-.695-2.026-1.496-2.79-2.428z" class="♥ hearts_2"/>
      </g>
    </g>
    <g class="icons">
      <g class="symbol_3">
        <g class="♥ hearts_3">
          <g class="fill">
            <path fill="#F24E1E" d="M47.998 49.746c-1.728-1.754-4.173-1.711-6.112-.597a1.43 1.43 0 01-1.384 1.778 1.427 1.427 0 01-1.384-1.778c-1.94-1.114-4.385-1.157-6.113.597-.889.903-1.3 2.015-1.325 3.168a1.428 1.428 0 01.528 2.52c.264.603.62 1.183 1.055 1.713 1.777 2.166 4.144 4.058 6.448 5.724a1.42 1.42 0 01.79-.239c.293 0 .565.088.791.239 2.305-1.666 4.671-3.558 6.449-5.724.435-.53.791-1.11 1.055-1.713a1.428 1.428 0 01.528-2.52c-.025-1.153-.437-2.265-1.326-3.168z"/>
            <path fill="#F24E1E" d="M40.109 50.015a.65.65 0 01.393-1.165.649.649 0 11-.393 1.165zM40.501 63.41l.035.002a.649.649 0 11-.035-.001zM49.093 54.611a.646.646 0 01.177-.826.649.649 0 11-.177.827zM31.34 54.95a.649.649 0 100-1.298.649.649 0 000 1.298z"/>
          </g>
          <path fill="#fff" fill-rule="evenodd" d="M50.364 53.057c.013-1.44-.469-2.865-1.627-4.04-2.18-2.215-5.183-2.053-7.455-.713a1.421 1.421 0 00-1.56 0c-2.273-1.34-5.275-1.502-7.456.712-1.157 1.176-1.64 2.602-1.626 4.04a1.427 1.427 0 00.567 2.666c.312.75.74 1.458 1.254 2.085 1.865 2.272 4.324 4.232 6.653 5.914a1.428 1.428 0 102.775 0c2.33-1.682 4.788-3.641 6.654-5.914a8.36 8.36 0 001.254-2.085 1.428 1.428 0 00.567-2.665zm-8.478-3.908c1.94-1.114 4.384-1.157 6.112.597a4.543 4.543 0 011.325 3.168 1.428 1.428 0 00-.527 2.52 7.36 7.36 0 01-1.055 1.713c-1.778 2.166-4.144 4.058-6.449 5.724a1.421 1.421 0 00-1.581 0c-2.304-1.666-4.67-3.558-6.448-5.724a7.555 7.555 0 01-.559-.776 7.173 7.173 0 01-.496-.937 1.425 1.425 0 00.477-1.611 1.43 1.43 0 00-1.005-.909c.025-1.153.437-2.265 1.325-3.168 1.728-1.754 4.173-1.711 6.113-.597a1.431 1.431 0 00.069.906 1.428 1.428 0 002.699-.906zm-1.777.866a.65.65 0 11.786-1.033.65.65 0 01-.786 1.033zm.427 13.397l-.035-.001a.649.649 0 10.035 0zm8.557-8.8a.646.646 0 01.177-.828.649.649 0 11-.177.827zM31.99 54.3a.649.649 0 11-1.298 0 .649.649 0 011.298 0z" class="stroke" clip-rule="evenodd"/>
          <g class="stroke 2">
            <path fill="#F24E1E" d="M31.68 52.914zM39.118 49.149z"/>
            <path fill="#F24E1E" fill-rule="evenodd" d="M29.394 54.3c0-.615.285-1.163.73-1.519a6.054 6.054 0 011.773-4.129c2.31-2.345 5.445-2.232 7.833-.94a1.942 1.942 0 011.544 0c2.388-1.292 5.523-1.405 7.833.94a6.054 6.054 0 011.773 4.13 1.947 1.947 0 01-.718 3.402 8.906 8.906 0 01-1.218 1.952c-1.84 2.243-4.234 4.174-6.499 5.823l.003.1a1.946 1.946 0 11-3.89-.1c-2.265-1.65-4.658-3.58-6.498-5.823a8.899 8.899 0 01-1.219-1.953 1.947 1.947 0 01-1.447-1.882zm2.873-5.284a5.536 5.536 0 00-1.625 3.79 6.029 6.029 0 00-.002.25 1.426 1.426 0 00-.727 1.244 1.428 1.428 0 001.294 1.422 8.379 8.379 0 001.254 2.085c1.865 2.272 4.324 4.232 6.653 5.914a1.429 1.429 0 001.387 1.766 1.427 1.427 0 001.388-1.765c2.33-1.683 4.788-3.642 6.654-5.915a8.38 8.38 0 001.254-2.085 1.428 1.428 0 00.567-2.666c0-.083 0-.167-.003-.25a5.536 5.536 0 00-1.624-3.79c-2.18-2.213-5.183-2.052-7.455-.712a1.421 1.421 0 00-1.56 0c-2.273-1.34-5.275-1.501-7.456.712z" clip-rule="evenodd"/>
          </g>
        </g>
      </g>
      <g class="symbol_4">
        <g class="♥ hearts_4">
          <g class="fill_2">
            <path fill="#F24E1E" d="M33.49 22.09c-1.729-1.755-4.173-1.712-6.113-.598a1.43 1.43 0 01-1.384 1.778 1.427 1.427 0 01-1.384-1.778c-1.94-1.114-4.384-1.157-6.112.597-.89.902-1.3 2.015-1.325 3.168a1.428 1.428 0 01.527 2.52c.264.603.62 1.183 1.055 1.712 1.778 2.167 4.144 4.059 6.448 5.725a1.42 1.42 0 011.581 0c2.305-1.666 4.672-3.558 6.45-5.724.434-.53.79-1.11 1.054-1.713a1.428 1.428 0 01.528-2.52c-.025-1.153-.436-2.265-1.325-3.168z"/>
            <path fill="#F24E1E" d="M25.6 22.358a.65.65 0 01.393-1.165.649.649 0 11-.393 1.165zM25.993 35.754a.649.649 0 110 1.298.649.649 0 010-1.298zM34.585 26.954a.646.646 0 01.177-.827.649.649 0 11-.177.827zM16.832 27.293a.649.649 0 100-1.298.649.649 0 000 1.297z"/>
          </g>
          <path fill="#fff" fill-rule="evenodd" d="M35.855 25.4c.014-1.44-.469-2.865-1.626-4.04-2.181-2.215-5.183-2.054-7.455-.713a1.421 1.421 0 00-1.561 0c-2.272-1.34-5.274-1.502-7.455.712-1.158 1.175-1.64 2.602-1.627 4.04a1.427 1.427 0 00.567 2.666c.312.75.74 1.458 1.254 2.085 1.865 2.272 4.324 4.232 6.654 5.914a1.429 1.429 0 001.387 1.766 1.427 1.427 0 001.387-1.765c2.33-1.683 4.789-3.642 6.654-5.915a8.36 8.36 0 001.254-2.085 1.428 1.428 0 00.567-2.665zm-8.478-3.908c1.94-1.114 4.385-1.157 6.113.597a4.543 4.543 0 011.325 3.168 1.428 1.428 0 00-.528 2.52 7.36 7.36 0 01-1.055 1.713c-1.777 2.166-4.144 4.058-6.448 5.724a1.421 1.421 0 00-1.582 0c-2.304-1.666-4.67-3.558-6.448-5.724a7.555 7.555 0 01-.558-.776 7.173 7.173 0 01-.497-.937 1.425 1.425 0 00.478-1.612 1.43 1.43 0 00-1.005-.908c.024-1.153.436-2.266 1.325-3.168 1.728-1.754 4.173-1.711 6.112-.597a1.43 1.43 0 001.384 1.778 1.427 1.427 0 001.384-1.778zm-1.777.866a.649.649 0 11.786-1.032.649.649 0 01-.786 1.032zm.427 13.396a.649.649 0 10-.07 1.296.649.649 0 00.07-1.295zm8.558-8.8a.646.646 0 01.177-.827.649.649 0 11-.177.827zm-17.105-.31a.649.649 0 11-1.297 0 .649.649 0 011.297 0z" class="stroke_2" clip-rule="evenodd"/>
          <g class="stroke 2_2">
            <path fill="#F24E1E" d="M17.172 25.257zM24.61 21.492z"/>
            <path fill="#F24E1E" fill-rule="evenodd" d="M14.885 26.644c0-.616.286-1.164.73-1.52a6.054 6.054 0 011.773-4.13c2.31-2.344 5.445-2.231 7.833-.939a1.94 1.94 0 011.545 0c2.388-1.292 5.523-1.405 7.832.94a6.054 6.054 0 011.773 4.129 1.947 1.947 0 01-.718 3.402 8.906 8.906 0 01-1.218 1.953c-1.84 2.243-4.234 4.174-6.498 5.823l.002.1a1.946 1.946 0 11-3.89-.1c-2.265-1.65-4.658-3.58-6.498-5.823a8.899 8.899 0 01-1.218-1.953 1.947 1.947 0 01-1.448-1.882zm2.873-5.285a5.536 5.536 0 00-1.624 3.789 6.029 6.029 0 00-.003.252 1.426 1.426 0 00-.727 1.244 1.428 1.428 0 001.294 1.421 8.256 8.256 0 001.254 2.085c1.865 2.272 4.324 4.232 6.654 5.914a1.429 1.429 0 001.387 1.766 1.427 1.427 0 001.387-1.765c2.33-1.683 4.789-3.642 6.654-5.915a8.38 8.38 0 001.254-2.085 1.428 1.428 0 00.567-2.666 5.536 5.536 0 00-1.627-4.04c-2.18-2.214-5.182-2.053-7.454-.712a1.421 1.421 0 00-1.561 0c-2.272-1.34-5.274-1.502-7.455.712z" clip-rule="evenodd"/>
          </g>
        </g>
      </g>
      <g class="symbol_5">
        <g class="♥ hearts_5">
          <g class="fill_3">
            <path fill="#F24E1E" d="M58.426 86.084c-1.728 1.754-4.172 1.71-6.112.597a1.43 1.43 0 00-1.384-1.778 1.427 1.427 0 00-1.384 1.778c-1.94 1.114-4.384 1.157-6.113-.597-.889-.903-1.3-2.015-1.325-3.168a1.428 1.428 0 00.528-2.52 7.357 7.357 0 011.055-1.713c1.777-2.166 4.144-4.058 6.448-5.724a1.42 1.42 0 001.581 0c2.305 1.666 4.671 3.558 6.449 5.724.435.53.791 1.11 1.055 1.712a1.428 1.428 0 00.528 2.52c-.025 1.154-.437 2.266-1.326 3.169z"/>
            <path fill="#F24E1E" d="M50.537 85.814a.65.65 0 00.393 1.165.649.649 0 10-.393-1.165zM50.93 72.42l.034-.002a.649.649 0 10-.035.001zM59.522 81.219a.646.646 0 00.177.826.649.649 0 10-.177-.827zM41.768 80.88a.649.649 0 110 1.298.649.649 0 010-1.298z"/>
          </g>
          <path fill="#fff" fill-rule="evenodd" d="M60.792 82.773c.014 1.439-.469 2.865-1.627 4.04-2.18 2.214-5.183 2.053-7.455.713a1.42 1.42 0 01-1.56 0c-2.273 1.34-5.275 1.501-7.456-.712-1.157-1.176-1.64-2.602-1.626-4.04a1.427 1.427 0 01.567-2.666 8.36 8.36 0 011.254-2.085c1.865-2.272 4.324-4.232 6.653-5.914a1.427 1.427 0 112.774 0c2.33 1.682 4.79 3.641 6.655 5.914a8.362 8.362 0 011.254 2.085 1.428 1.428 0 01.567 2.665zm-8.478 3.908c1.94 1.114 4.384 1.157 6.112-.597a4.542 4.542 0 001.325-3.168 1.428 1.428 0 01-.527-2.52 7.357 7.357 0 00-1.055-1.713c-1.778-2.166-4.144-4.059-6.449-5.724a1.42 1.42 0 01-1.581 0c-2.304 1.666-4.67 3.558-6.448 5.724-.204.249-.39.508-.559.775-.19.304-.356.617-.496.938a1.425 1.425 0 01.478 1.611 1.43 1.43 0 01-1.006.909c.025 1.153.437 2.265 1.325 3.168 1.729 1.754 4.173 1.71 6.113.597a1.431 1.431 0 01.069-.906 1.428 1.428 0 012.699.906zm-1.777-.867a.65.65 0 10.787 1.033.65.65 0 00-.787-1.032zm.427-13.396l-.035.001a.649.649 0 11.035 0zm8.558 8.8a.646.646 0 00.177.827.649.649 0 10-.177-.827zm-17.105.311a.649.649 0 10-1.298 0 .649.649 0 001.298 0z" class="stroke_3" clip-rule="evenodd"/>
          <g class="stroke 2_3">
            <path fill="#F24E1E" d="M42.108 82.916zM49.546 86.681z"/>
            <path fill="#F24E1E" fill-rule="evenodd" d="M39.822 81.53c0 .614.285 1.163.73 1.519a6.054 6.054 0 001.773 4.129c2.31 2.344 5.445 2.232 7.832.94a1.943 1.943 0 001.545 0c2.388 1.292 5.523 1.405 7.833-.94a6.054 6.054 0 001.773-4.13 1.947 1.947 0 00-.718-3.402 8.899 8.899 0 00-1.218-1.952c-1.84-2.243-4.234-4.174-6.499-5.823l.003-.1a1.947 1.947 0 10-3.89.1c-2.265 1.65-4.658 3.58-6.498 5.823a8.906 8.906 0 00-1.218 1.953c-.834.22-1.448.98-1.448 1.882zm2.872 5.284a5.536 5.536 0 01-1.623-3.79 6.206 6.206 0 01-.003-.25 1.432 1.432 0 01-.727-1.245 1.428 1.428 0 011.294-1.421 8.38 8.38 0 011.254-2.085c1.865-2.272 4.324-4.232 6.653-5.914a1.427 1.427 0 112.774 0c2.33 1.682 4.79 3.641 6.655 5.914a8.382 8.382 0 011.254 2.085 1.428 1.428 0 01.567 2.666c0 .083 0 .167-.003.25a5.536 5.536 0 01-1.624 3.79c-2.18 2.213-5.183 2.052-7.455.712a1.42 1.42 0 01-1.56 0c-2.273 1.34-5.275 1.501-7.456-.712z" clip-rule="evenodd"/>
          </g>
        </g>
      </g>
      <g class="symbol_6">
        <g class="♥ hearts_6">
          <g class="fill_4">
            <path fill="#F24E1E" d="M33.943 86.084c-1.728 1.754-4.173 1.71-6.112.597a1.43 1.43 0 00-1.384-1.778 1.427 1.427 0 00-1.384 1.778c-1.94 1.114-4.385 1.157-6.113-.597-.889-.903-1.3-2.015-1.325-3.168a1.428 1.428 0 00.528-2.52 7.354 7.354 0 011.055-1.713c1.777-2.166 4.143-4.058 6.448-5.724a1.42 1.42 0 001.581 0c2.305 1.666 4.671 3.558 6.449 5.724.435.53.79 1.11 1.055 1.712a1.428 1.428 0 00.527 2.52c-.025 1.154-.436 2.266-1.325 3.169z"/>
            <path fill="#F24E1E" d="M26.053 85.814a.65.65 0 00.393 1.165.649.649 0 10-.393-1.165zM26.446 72.42a.649.649 0 100-1.298.649.649 0 000 1.297zM35.038 81.219a.646.646 0 00.177.826.649.649 0 10-.177-.827zM17.285 80.88a.649.649 0 110 1.298.649.649 0 010-1.298z"/>
          </g>
          <path fill="#fff" fill-rule="evenodd" d="M36.309 82.773c.013 1.439-.47 2.865-1.627 4.04-2.18 2.214-5.183 2.053-7.455.713a1.421 1.421 0 01-1.56 0c-2.273 1.34-5.275 1.501-7.456-.712-1.157-1.176-1.64-2.602-1.627-4.04a1.427 1.427 0 01.568-2.666c.311-.75.74-1.458 1.254-2.085 1.865-2.272 4.324-4.232 6.653-5.914a1.429 1.429 0 011.387-1.766 1.427 1.427 0 011.387 1.765c2.33 1.683 4.79 3.642 6.655 5.915a8.36 8.36 0 011.253 2.085 1.428 1.428 0 01.568 2.665zm-8.478 3.908c1.94 1.114 4.384 1.157 6.112-.597a4.543 4.543 0 001.325-3.168 1.428 1.428 0 01-.527-2.52 7.36 7.36 0 00-1.055-1.713c-1.778-2.166-4.144-4.059-6.449-5.724a1.421 1.421 0 01-1.581 0c-2.305 1.666-4.67 3.558-6.448 5.724-.204.249-.391.508-.559.775-.19.304-.356.617-.496.938a1.425 1.425 0 01.477 1.611 1.43 1.43 0 01-1.005.909c.025 1.153.436 2.265 1.325 3.168 1.728 1.754 4.173 1.71 6.113.597a1.431 1.431 0 01.068-.906 1.428 1.428 0 012.7.906zm-1.778-.867a.649.649 0 10.786 1.033.649.649 0 00-.786-1.032zm.428-13.396a.649.649 0 11-.07-1.296.649.649 0 01.07 1.296zm8.557 8.8a.646.646 0 00.177.827.649.649 0 10-.177-.827zm-17.104.311a.649.649 0 10-1.298 0 .649.649 0 001.298 0z" class="stroke_4" clip-rule="evenodd"/>
          <g class="stroke 2_4">
            <path fill="#F24E1E" d="M17.625 82.916zM25.063 86.681z"/>
            <path fill="#F24E1E" fill-rule="evenodd" d="M15.338 81.53c0 .614.286 1.163.73 1.519a6.054 6.054 0 001.773 4.129c2.31 2.344 5.445 2.232 7.833.94a1.942 1.942 0 001.545 0c2.388 1.292 5.523 1.405 7.833-.94a6.054 6.054 0 001.773-4.13 1.947 1.947 0 00-.718-3.402 8.906 8.906 0 00-1.218-1.952c-1.84-2.243-4.234-4.174-6.499-5.823a1.946 1.946 0 10-3.888 0c-2.264 1.65-4.657 3.58-6.498 5.823a8.899 8.899 0 00-1.218 1.953c-.833.22-1.448.98-1.448 1.882zm2.873 5.284a5.536 5.536 0 01-1.624-3.79 6.029 6.029 0 01-.003-.25 1.426 1.426 0 01-.727-1.244 1.428 1.428 0 011.295-1.422 8.256 8.256 0 011.254-2.085c1.865-2.272 4.324-4.232 6.653-5.914a1.429 1.429 0 011.387-1.766 1.427 1.427 0 011.387 1.765c2.33 1.683 4.79 3.642 6.655 5.915a8.38 8.38 0 011.253 2.085 1.428 1.428 0 01.567 2.666 5.536 5.536 0 01-1.627 4.04c-2.18 2.213-5.182 2.052-7.454.712a1.421 1.421 0 01-1.56 0c-2.273 1.34-5.275 1.501-7.456-.712z" clip-rule="evenodd"/>
          </g>
        </g>
      </g>
      <g class="symbol_7">
        <g class="♥ hearts_7">
          <g class="fill_5">
            <path fill="#F24E1E" d="M57.973 22.09c-1.728-1.755-4.173-1.712-6.112-.598a1.43 1.43 0 01-1.384 1.778 1.427 1.427 0 01-1.385-1.778c-1.94-1.114-4.384-1.157-6.112.597-.889.902-1.3 2.015-1.325 3.168a1.428 1.428 0 01.528 2.52c.263.603.62 1.183 1.054 1.712 1.778 2.167 4.144 4.059 6.449 5.725a1.42 1.42 0 01.79-.239c.293 0 .564.088.79.239 2.306-1.666 4.672-3.558 6.45-5.724.434-.53.79-1.11 1.054-1.713a1.428 1.428 0 01.527-2.52c-.024-1.153-.435-2.265-1.324-3.168z"/>
            <path fill="#F24E1E" d="M50.083 22.358a.65.65 0 01.393-1.165.649.649 0 11-.393 1.165zM50.476 35.754h.035a.649.649 0 11-.035 0zM59.068 26.954a.647.647 0 01.177-.827.649.649 0 11-.177.827zM41.315 27.293a.649.649 0 100-1.298.649.649 0 000 1.297z"/>
          </g>
          <path fill="#fff" fill-rule="evenodd" d="M60.339 25.4c.013-1.44-.47-2.865-1.627-4.04-2.181-2.215-5.183-2.054-7.455-.713a1.42 1.42 0 00-.78-.232 1.42 1.42 0 00-.78.232c-2.273-1.34-5.275-1.502-7.456.712-1.158 1.175-1.64 2.602-1.627 4.04a1.427 1.427 0 00.568 2.666 8.36 8.36 0 001.253 2.085c1.866 2.272 4.325 4.232 6.654 5.914a1.427 1.427 0 102.775 0c2.329-1.682 4.788-3.641 6.654-5.914a8.362 8.362 0 001.253-2.085 1.428 1.428 0 00.568-2.665zm-8.478-3.908c1.94-1.114 4.384-1.157 6.112.597a4.543 4.543 0 011.325 3.168 1.428 1.428 0 00-.528 2.52 7.36 7.36 0 01-1.054 1.713c-1.778 2.166-4.145 4.058-6.45 5.724a1.421 1.421 0 00-1.58 0c-2.305-1.666-4.671-3.558-6.449-5.724a7.57 7.57 0 01-.558-.776 7.16 7.16 0 01-.496-.937 1.425 1.425 0 00.477-1.612 1.43 1.43 0 00-1.005-.908c.025-1.153.436-2.266 1.325-3.168 1.728-1.754 4.173-1.711 6.112-.597a1.43 1.43 0 001.385 1.778 1.427 1.427 0 001.384-1.778zm-1.778.866a.65.65 0 11.787-1.033.65.65 0 01-.787 1.033zm.428 13.396h-.035a.649.649 0 10.035 0zm8.557-8.8a.647.647 0 01.177-.827.649.649 0 11-.177.827zm-17.104-.31a.649.649 0 11-1.298 0 .649.649 0 011.298 0z" class="stroke_5" clip-rule="evenodd"/>
          <g class="stroke 2_5">
            <path fill="#F24E1E" d="M41.655 25.257zM49.092 21.492z"/>
            <path fill="#F24E1E" fill-rule="evenodd" d="M39.368 26.644c0-.616.286-1.164.73-1.52a6.054 6.054 0 011.773-4.13c2.31-2.344 5.445-2.231 7.833-.939a1.941 1.941 0 011.545 0c2.388-1.292 5.523-1.405 7.833.94a6.054 6.054 0 011.772 4.129 1.947 1.947 0 01-.718 3.402 8.903 8.903 0 01-1.217 1.953c-1.841 2.243-4.234 4.174-6.499 5.823a1.947 1.947 0 11-3.888 0c-2.264-1.65-4.657-3.58-6.498-5.823a8.903 8.903 0 01-1.218-1.953 1.947 1.947 0 01-1.448-1.882zm2.873-5.285a5.536 5.536 0 00-1.624 3.789 6.206 6.206 0 00-.003.252 1.426 1.426 0 00-.727 1.244 1.428 1.428 0 001.295 1.421 8.253 8.253 0 001.253 2.085c1.866 2.272 4.325 4.232 6.654 5.914a1.427 1.427 0 102.775 0c2.329-1.682 4.788-3.641 6.654-5.914a8.38 8.38 0 001.253-2.085 1.428 1.428 0 00.567-2.666 5.536 5.536 0 00-1.627-4.04c-2.18-2.214-5.182-2.053-7.454-.712a1.42 1.42 0 00-.78-.232 1.42 1.42 0 00-.78.232c-2.273-1.34-5.275-1.502-7.456.712z" clip-rule="evenodd"/>
          </g>
        </g>
      </g>
    </g>
  </g>
</svg>
