<svg xmlns="http://www.w3.org/2000/svg" width="80" height="111" fill="none" viewBox="0 0 80 111">
  <g class="four_diamond">
    <rect width="78.991" height="110.588" x=".282" fill="#fff" class="bg" rx="3.62"/>
    <g class="down">
      <g class="letter">
        <path fill="#222" d="M71.902 91.683h-1.279v-4.178h-2.197v4.178H61.49v1.465l6.444 9.772h2.706v-9.772h1.278v-1.465h-.016zm-3.476 1.465v7.259l-4.788-7.259h4.788z" class="Vector"/>
      </g>
      <g class="symbol">
        <path fill="#F24E1E" d="M65 77.15l2.472 2.88-2.473 2.888-2.472-2.888 2.472-2.88z" class="♦ diamonds"/>
      </g>
    </g>
    <g class="up">
      <g class="symbol_2">
        <path fill="#F24E1E" d="M10.476 27.544l-2.472-2.88 2.472-2.889 2.473 2.889-2.473 2.88z" class="♦ diamonds_2"/>
      </g>
      <g class="letter_2">
        <path fill="#222" d="M14.321 14.41h-1.279v4.18h-2.197v-4.18H3.91v-1.464l6.443-9.772h2.706v9.772h1.279v1.465h-.017zm-3.476-1.464V5.687l-4.788 7.259h4.788z" class="Vector_2"/>
      </g>
    </g>
    <g class="icons">
      <g class="symbol_3">
        <g class="♦ diamonds_3">
          <path fill="#F24E1E" d="M49.436 83.197l-5.774-6.727a1.774 1.774 0 00.046-2.77l5.732-6.697a1.77 1.77 0 001.048.341c.392 0 .754-.127 1.048-.342L57.27 73.7a1.774 1.774 0 00.046 2.77l-5.775 6.728a1.769 1.769 0 00-1.052-.345 1.77 1.77 0 00-1.052.344z" class="fill"/>
          <path fill="#fff" fill-rule="evenodd" d="M42.346 73.304l6.386-7.462a1.777 1.777 0 011.756-2.052 1.777 1.777 0 011.756 2.051l6.387 7.463a1.777 1.777 0 011.55 1.81v.002a1.778 1.778 0 01-1.46 1.7l-6.476 7.545a1.777 1.777 0 01-1.756 2.046h-.001a1.777 1.777 0 01-1.757-2.047l-6.476-7.545a1.778 1.778 0 01-1.459-1.7v-.049c0-.904.675-1.65 1.55-1.762zm7.09 9.893l-5.774-6.727a1.774 1.774 0 00.046-2.77l5.732-6.697a1.77 1.77 0 001.048.341c.392 0 .754-.127 1.048-.342L57.27 73.7a1.774 1.774 0 00.046 2.77l-5.775 6.728a1.769 1.769 0 00-1.052-.345 1.77 1.77 0 00-1.052.344zm1.052-16.822a.805.805 0 01-.808-.808.808.808 0 11.808.808zm-.416 17.563a.807.807 0 10.831 1.384.807.807 0 00-.831-1.385zm-6.692-8.872a.807.807 0 11-1.614.001.807.807 0 011.614 0zm14.568.667a.807.807 0 11.911-1.332.807.807 0 01-.911 1.332z" class="stroke" clip-rule="evenodd"/>
          <path fill="#F24E1E" fill-rule="evenodd" d="M40.15 75.066a1.707 1.707 0 00.001.1 2.424 2.424 0 001.75 2.23l6.164 7.18v.054a2.423 2.423 0 104.846-.052l6.164-7.183a2.424 2.424 0 001.75-2.23c.002-.022.003-.044.002-.067v-.032c0-1.142-.79-2.099-1.853-2.355l-6.064-7.085v-.059a2.423 2.423 0 00-2.421-2.423h-.001a2.423 2.423 0 00-2.423 2.484l-6.062 7.083a2.424 2.424 0 00-1.854 2.355zm.646.05v-.001-.049c0-.904.675-1.65 1.55-1.762l6.386-7.462a1.777 1.777 0 011.756-2.052 1.777 1.777 0 011.756 2.051l6.387 7.463a1.777 1.777 0 011.55 1.81v.002a1.778 1.778 0 01-1.46 1.7l-6.476 7.545a1.777 1.777 0 01-1.756 2.046h-.001a1.777 1.777 0 01-1.757-2.047l-6.476-7.545a1.778 1.778 0 01-1.459-1.7z" class="stroke 2" clip-rule="evenodd"/>
          <g class="dots">
            <path fill="#F24E1E" d="M50.488 64.76a.808.808 0 110 1.615.808.808 0 010-1.615zM42.572 74.259a.808.808 0 110 1.615.808.808 0 010-1.615zM58.404 74.259a.808.808 0 110 1.615.808.808 0 010-1.615zM51.295 84.63a.808.808 0 11-1.615 0 .808.808 0 011.615 0z"/>
          </g>
        </g>
      </g>
      <g class="symbol_4">
        <g class="♦ diamonds_4">
          <path fill="#F24E1E" d="M25.407 83.197l-5.775-6.727a1.774 1.774 0 00.046-2.77l5.732-6.697c.294.215.656.341 1.048.341s.755-.127 1.048-.342L33.24 73.7a1.774 1.774 0 00.046 2.77l-5.775 6.728a1.77 1.77 0 00-1.052-.345c-.394 0-.757.128-1.051.344z" class="fill_2"/>
          <path fill="#fff" fill-rule="evenodd" d="M18.316 73.304l6.386-7.462a1.777 1.777 0 011.756-2.052 1.777 1.777 0 011.756 2.051l6.387 7.463a1.777 1.777 0 011.55 1.81v.002a1.778 1.778 0 01-1.46 1.7l-6.476 7.545a1.777 1.777 0 01-1.756 2.046h-.001A1.777 1.777 0 0124.7 84.36l-6.476-7.545a1.778 1.778 0 01-1.459-1.7v-.049c0-.904.676-1.65 1.55-1.762zm7.09 9.893l-5.774-6.727a1.774 1.774 0 00.046-2.77l5.732-6.697a1.77 1.77 0 001.048.341c.392 0 .755-.127 1.048-.342L33.24 73.7a1.774 1.774 0 00.046 2.77l-5.775 6.728a1.77 1.77 0 00-1.052-.345c-.394 0-.757.128-1.051.344zm1.052-16.822a.805.805 0 01-.808-.808.808.808 0 11.808.808zm-.416 17.563a.807.807 0 10.83 1.384.807.807 0 00-.83-1.385zm-6.692-8.872a.807.807 0 11-1.613.001.807.807 0 011.613 0zm14.568.667a.807.807 0 11.912-1.332.807.807 0 01-.912 1.332z" class="stroke_2" clip-rule="evenodd"/>
          <path fill="#F24E1E" fill-rule="evenodd" d="M16.12 75.066v.032a2.424 2.424 0 001.752 2.297l6.163 7.181v.054a2.423 2.423 0 104.846-.052l6.164-7.183a2.424 2.424 0 001.752-2.297v-.032c0-1.142-.79-2.099-1.853-2.355l-6.064-7.085.001-.059a2.423 2.423 0 00-2.422-2.423h-.001a2.423 2.423 0 00-2.423 2.484l-6.062 7.083a2.424 2.424 0 00-1.854 2.355zm.646.05v-.001-.049c0-.904.676-1.65 1.55-1.762l6.386-7.462a1.777 1.777 0 011.756-2.052 1.777 1.777 0 011.756 2.051l6.387 7.463a1.777 1.777 0 011.55 1.81v.002a1.778 1.778 0 01-1.46 1.7l-6.476 7.545a1.777 1.777 0 01-1.756 2.046h-.001A1.777 1.777 0 0124.7 84.36l-6.476-7.545a1.778 1.778 0 01-1.459-1.7z" class="stroke 2_2" clip-rule="evenodd"/>
          <g class="dots_2">
            <path fill="#F24E1E" d="M26.458 64.76a.808.808 0 110 1.615.808.808 0 010-1.615zM18.543 74.259a.808.808 0 110 1.615.808.808 0 010-1.615zM34.374 74.259a.808.808 0 110 1.615.808.808 0 010-1.615zM27.266 84.63a.808.808 0 11-1.616 0 .808.808 0 011.616 0z"/>
          </g>
        </g>
      </g>
      <g class="symbol_5">
        <g class="♦ diamonds_5">
          <path fill="#F24E1E" d="M49.89 37.858l-5.775-6.727a1.774 1.774 0 00.046-2.77l5.732-6.698a1.77 1.77 0 001.048.342c.392 0 .755-.127 1.049-.342l5.732 6.697a1.774 1.774 0 00.046 2.77l-5.775 6.728a1.77 1.77 0 00-1.052-.344 1.77 1.77 0 00-1.051.344z" class="fill_3"/>
          <path fill="#fff" fill-rule="evenodd" d="M42.799 27.964l6.386-7.46a1.777 1.777 0 011.756-2.052 1.777 1.777 0 011.756 2.05l6.387 7.462a1.777 1.777 0 011.55 1.81v.002a1.777 1.777 0 01-1.459 1.7l-6.477 7.546a1.777 1.777 0 01-1.756 2.046 1.777 1.777 0 01-1.758-2.047l-6.476-7.545a1.778 1.778 0 01-1.459-1.7v-.001-.048c0-.905.676-1.651 1.55-1.763zm7.09 9.894l-5.774-6.727a1.774 1.774 0 00.046-2.77l5.732-6.698a1.77 1.77 0 001.048.342c.392 0 .755-.127 1.049-.342l5.732 6.697a1.774 1.774 0 00.046 2.77l-5.775 6.728a1.77 1.77 0 00-1.052-.344 1.77 1.77 0 00-1.051.344zm1.052-16.822a.807.807 0 11-.001-1.615.807.807 0 01.001 1.615zm-.416 17.562a.807.807 0 10.831 1.385.807.807 0 00-.83-1.385zm-6.691-8.871a.807.807 0 11-1.614.001.807.807 0 011.614-.001zm14.567.666a.807.807 0 11.911-1.331.807.807 0 01-.911 1.331z" class="stroke_3" clip-rule="evenodd"/>
          <path fill="#F24E1E" fill-rule="evenodd" d="M40.603 29.727a1.699 1.699 0 00.002.1 2.424 2.424 0 001.75 2.229l6.164 7.18-.001.055a2.423 2.423 0 104.846-.052l6.165-7.183a2.424 2.424 0 001.75-2.23c.002-.022.002-.044.002-.067v-.032c0-1.142-.79-2.1-1.854-2.356l-6.063-7.084v-.059a2.423 2.423 0 10-4.846.06l-6.062 7.083a2.424 2.424 0 00-1.853 2.356zm.646.05v-.002-.048c0-.905.676-1.651 1.55-1.763l6.386-7.46a1.777 1.777 0 011.756-2.052 1.777 1.777 0 011.756 2.05l6.387 7.462a1.777 1.777 0 011.55 1.81v.002a1.777 1.777 0 01-1.459 1.7l-6.477 7.546a1.777 1.777 0 01-1.756 2.046 1.777 1.777 0 01-1.758-2.047l-6.476-7.545a1.778 1.778 0 01-1.459-1.7z" class="stroke 2_3" clip-rule="evenodd"/>
          <g class="dots_3">
            <path fill="#F24E1E" d="M50.941 19.42a.808.808 0 110 1.616.808.808 0 010-1.616zM43.026 28.92a.808.808 0 110 1.615.808.808 0 010-1.616zM58.858 28.92a.808.808 0 110 1.615.808.808 0 010-1.616zM51.749 39.29a.808.808 0 11-1.616 0 .808.808 0 011.616 0z"/>
          </g>
        </g>
      </g>
      <g class="symbol_6">
        <g class="♦ diamonds_6">
          <path fill="#F24E1E" d="M25.407 37.858l-5.775-6.727a1.774 1.774 0 00.046-2.77l5.732-6.698c.294.215.656.342 1.048.342s.755-.127 1.048-.342l5.733 6.697a1.774 1.774 0 00.046 2.77l-5.775 6.728a1.77 1.77 0 00-1.052-.344c-.394 0-.757.127-1.051.344z" class="fill_4"/>
          <path fill="#fff" fill-rule="evenodd" d="M18.316 27.964l6.386-7.46a1.777 1.777 0 011.756-2.052 1.777 1.777 0 011.756 2.05l6.387 7.462a1.777 1.777 0 011.55 1.81v.002a1.778 1.778 0 01-1.46 1.7l-6.476 7.546a1.777 1.777 0 01-1.756 2.046h-.001A1.777 1.777 0 0124.7 39.02l-6.476-7.545a1.777 1.777 0 01-1.459-1.7v-.001-.048c0-.905.676-1.651 1.55-1.763zm7.09 9.894l-5.774-6.727a1.774 1.774 0 00.046-2.77l5.732-6.698a1.77 1.77 0 001.048.342c.392 0 .755-.127 1.048-.342l5.733 6.697a1.774 1.774 0 00.046 2.77l-5.775 6.728a1.77 1.77 0 00-1.052-.344c-.394 0-.757.127-1.051.344zm1.052-16.822a.807.807 0 110-1.615.807.807 0 010 1.615zm-.416 17.562a.807.807 0 10.83 1.384.807.807 0 00-.83-1.384zm-6.692-8.871a.807.807 0 11-1.613.001.807.807 0 011.613-.001zm14.568.666a.807.807 0 11.911-1.331.807.807 0 01-.911 1.331z" class="stroke_4" clip-rule="evenodd"/>
          <path fill="#F24E1E" fill-rule="evenodd" d="M16.12 29.727a3.392 3.392 0 00.001.1 2.424 2.424 0 001.75 2.229l6.164 7.18v.055a2.423 2.423 0 104.846-.052l6.164-7.183a2.424 2.424 0 001.75-2.23c.002-.022.003-.044.002-.067v-.032c0-1.142-.79-2.1-1.853-2.356l-6.064-7.084.001-.059a2.423 2.423 0 00-2.422-2.423h-.001a2.423 2.423 0 00-2.423 2.483l-6.062 7.083a2.424 2.424 0 00-1.854 2.356zm.646.05v-.002-.048c0-.905.676-1.651 1.55-1.763l6.386-7.46a1.777 1.777 0 011.756-2.052 1.777 1.777 0 011.756 2.05l6.387 7.462a1.777 1.777 0 011.55 1.81v.002a1.778 1.778 0 01-1.46 1.7l-6.476 7.546a1.777 1.777 0 01-1.756 2.046h-.001A1.777 1.777 0 0124.7 39.02l-6.476-7.545a1.777 1.777 0 01-1.459-1.7z" class="stroke 2_4" clip-rule="evenodd"/>
          <g class="dots_4">
            <path fill="#F24E1E" d="M26.458 19.42a.808.808 0 110 1.616.808.808 0 010-1.616zM18.543 28.92a.808.808 0 110 1.615.808.808 0 010-1.616zM34.374 28.92a.808.808 0 110 1.615.808.808 0 010-1.616zM27.266 39.29a.808.808 0 11-1.616 0 .808.808 0 011.616 0z"/>
          </g>
        </g>
      </g>
    </g>
  </g>
</svg>
