<svg xmlns="http://www.w3.org/2000/svg" width="80" height="111" fill="none" viewBox="0 0 80 111">
  <g class="four_heart">
    <rect width="74.81" height="104.734" x=".282" y=".359" fill="#fff" rx="3.62"/>
    <rect width="78.991" height="110.588" x=".282" y=".359" fill="#fff" class="bg" rx="3.62"/>
    <g class="down">
      <g class="letter">
        <path fill="#222" d="M71.902 92.043h-1.279v-4.179h-2.197v4.179H61.49v1.465l6.444 9.772h2.706v-9.772h1.278v-1.465h-.016zm-3.476 1.465v7.258l-4.788-7.258h4.788z" class="Vector"/>
      </g>
      <g class="symbol">
        <path fill="#F24E1E" d="M67.803 79.887c.707.863.875 2.068.1 2.856-.84.853-2.115.606-2.889-.181-.774.787-2.05 1.034-2.888.181-.776-.788-.608-1.993.1-2.856.763-.932 1.808-1.733 2.788-2.427.98.694 2.026 1.495 2.789 2.427z" class="♥ hearts"/>
      </g>
    </g>
    <g class="up">
      <g class="symbol_2">
        <path fill="#F24E1E" d="M7.673 25.525c-.708-.863-.875-2.067-.1-2.856.839-.853 2.114-.606 2.888.182.774-.788 2.05-1.035 2.889-.182.775.789.607 1.993-.1 2.856-.763.932-1.809 1.733-2.789 2.428-.98-.695-2.025-1.496-2.788-2.428z" class="♥ hearts_2"/>
      </g>
    </g>
    <g class="icons">
      <g class="symbol_3">
        <g class="♥ hearts_3">
          <g class="fill">
            <path fill="#F24E1E" d="M57.425 80.643c-1.728 1.754-4.172 1.711-6.112.597a1.43 1.43 0 00-1.384-1.778 1.427 1.427 0 00-1.384 1.778c-1.94 1.114-4.384 1.157-6.113-.597-.888-.903-1.3-2.015-1.325-3.168a1.428 1.428 0 00.528-2.52 7.36 7.36 0 011.055-1.712c1.778-2.166 4.144-4.059 6.448-5.724.226.15.498.238.79.238.293 0 .565-.088.791-.239 2.305 1.666 4.671 3.558 6.45 5.725.434.53.79 1.109 1.054 1.712a1.428 1.428 0 00.527 2.52c-.024 1.153-.436 2.266-1.325 3.168z"/>
            <path fill="#F24E1E" d="M49.536 80.374a.65.65 0 00.393 1.165.649.649 0 10-.393-1.165zM49.928 66.978h.035a.649.649 0 10-.035 0zM58.52 75.778a.646.646 0 00.178.827.649.649 0 10-.177-.827zM40.767 75.44a.649.649 0 110 1.297.649.649 0 010-1.297z"/>
          </g>
          <path fill="#fff" fill-rule="evenodd" d="M59.791 77.332c.014 1.44-.469 2.866-1.627 4.04-2.18 2.215-5.183 2.054-7.455.713a1.42 1.42 0 01-.78.232 1.42 1.42 0 01-.78-.232c-2.273 1.34-5.275 1.502-7.455-.712-1.158-1.175-1.64-2.602-1.627-4.04a1.427 1.427 0 01.567-2.666c.312-.75.74-1.458 1.254-2.085 1.865-2.272 4.324-4.232 6.653-5.914a1.427 1.427 0 112.775 0c2.33 1.682 4.789 3.642 6.654 5.914a8.36 8.36 0 011.254 2.085 1.428 1.428 0 01.567 2.665zm-8.478 3.908c1.94 1.114 4.384 1.157 6.112-.597a4.543 4.543 0 001.325-3.168 1.428 1.428 0 01-.527-2.52 7.355 7.355 0 00-1.055-1.712c-1.778-2.167-4.144-4.06-6.449-5.725a1.421 1.421 0 01-1.58 0c-2.305 1.666-4.672 3.558-6.45 5.725-.203.248-.39.507-.557.775-.19.303-.357.617-.497.937a1.425 1.425 0 01.478 1.612 1.43 1.43 0 01-1.005.908c.024 1.153.436 2.266 1.325 3.168 1.728 1.754 4.172 1.711 6.112.597a1.43 1.43 0 011.384-1.778 1.427 1.427 0 011.384 1.778zm-1.777-.866a.65.65 0 10.788 1.033.65.65 0 00-.788-1.033zm.427-13.396h-.035a.649.649 0 11.035 0zm8.558 8.8a.646.646 0 00.177.827.649.649 0 10-.177-.827zm-17.105.31a.649.649 0 10-1.297 0 .649.649 0 001.297 0z" class="stroke" clip-rule="evenodd"/>
          <g class="stroke 2">
            <path fill="#F24E1E" d="M41.108 77.475zM48.545 81.24z"/>
            <path fill="#F24E1E" fill-rule="evenodd" d="M38.82 76.088c0 .616.286 1.164.731 1.52a6.054 6.054 0 001.773 4.13c2.31 2.344 5.445 2.231 7.833.939a1.941 1.941 0 001.544 0c2.388 1.292 5.523 1.405 7.833-.94a6.054 6.054 0 001.773-4.129 1.947 1.947 0 00-.718-3.402 8.903 8.903 0 00-1.218-1.953c-1.84-2.243-4.234-4.174-6.499-5.823l.003-.1a1.947 1.947 0 10-3.89.1c-2.265 1.65-4.658 3.58-6.498 5.823a8.906 8.906 0 00-1.218 1.953c-.834.22-1.448.98-1.448 1.882zm2.874 5.285a5.536 5.536 0 01-1.624-3.789 6.209 6.209 0 01-.003-.252 1.426 1.426 0 01-.727-1.244 1.428 1.428 0 011.294-1.421 8.38 8.38 0 011.254-2.085c1.865-2.272 4.324-4.232 6.653-5.914a1.427 1.427 0 112.775 0c2.33 1.682 4.789 3.642 6.654 5.914a8.379 8.379 0 011.254 2.085 1.428 1.428 0 01.567 2.665c0 .084 0 .168-.003.252a5.536 5.536 0 01-1.624 3.789c-2.18 2.214-5.183 2.053-7.455.712a1.421 1.421 0 01-1.56 0c-2.273 1.34-5.275 1.502-7.455-.712z" clip-rule="evenodd"/>
          </g>
        </g>
      </g>
      <g class="symbol_4">
        <g class="♥ hearts_4">
          <g class="fill_2">
            <path fill="#F24E1E" d="M33.396 80.643c-1.729 1.754-4.173 1.711-6.113.597a1.43 1.43 0 00-1.384-1.778 1.427 1.427 0 00-1.384 1.778c-1.94 1.114-4.384 1.157-6.112-.597-.89-.903-1.3-2.015-1.325-3.168a1.428 1.428 0 00.527-2.52 7.36 7.36 0 011.055-1.712c1.778-2.166 4.144-4.059 6.448-5.724.227.15.498.238.79.238.293 0 .565-.088.791-.239 2.305 1.666 4.671 3.558 6.45 5.725a7.36 7.36 0 011.054 1.712 1.428 1.428 0 00.528 2.52c-.025 1.153-.437 2.266-1.325 3.168z"/>
            <path fill="#F24E1E" d="M25.506 80.374a.65.65 0 00.393 1.165.649.649 0 10-.393-1.165zM25.899 66.978h.034a.649.649 0 10-.034 0zM34.49 75.778a.646.646 0 00.178.827.649.649 0 10-.177-.827zM16.738 75.44a.649.649 0 110 1.297.649.649 0 010-1.297z"/>
          </g>
          <path fill="#fff" fill-rule="evenodd" d="M35.761 77.332c.014 1.44-.469 2.866-1.627 4.04-2.18 2.215-5.182 2.054-7.455.713a1.42 1.42 0 01-.78.232 1.42 1.42 0 01-.78-.232c-2.272 1.34-5.274 1.502-7.455-.712-1.158-1.175-1.64-2.602-1.627-4.04a1.427 1.427 0 01.567-2.666 8.36 8.36 0 011.254-2.085c1.865-2.272 4.324-4.232 6.654-5.914a1.428 1.428 0 112.774 0c2.33 1.682 4.789 3.641 6.654 5.914a8.36 8.36 0 011.254 2.085 1.428 1.428 0 01.567 2.665zm-8.478 3.908c1.94 1.114 4.384 1.157 6.113-.597a4.543 4.543 0 001.325-3.168 1.428 1.428 0 01-.528-2.52 7.358 7.358 0 00-1.055-1.712c-1.777-2.167-4.144-4.06-6.449-5.725a1.421 1.421 0 01-1.58 0c-2.305 1.666-4.671 3.558-6.45 5.725-.203.248-.39.507-.557.775a7.16 7.16 0 00-.497.937 1.425 1.425 0 01.478 1.612 1.43 1.43 0 01-1.005.908c.024 1.153.436 2.266 1.325 3.168 1.728 1.754 4.173 1.711 6.112.597a1.43 1.43 0 011.384-1.778 1.427 1.427 0 011.384 1.778zm-1.777-.866a.65.65 0 10.787 1.033.65.65 0 00-.787-1.033zm.427-13.396H25.9a.649.649 0 11.034 0zm8.558 8.8a.646.646 0 00.177.827.649.649 0 10-.177-.827zm-17.105.31a.649.649 0 10-1.297 0 .649.649 0 001.297 0z" class="stroke_2" clip-rule="evenodd"/>
          <g class="stroke 2_2">
            <path fill="#F24E1E" d="M17.078 77.475zM24.515 81.24z"/>
            <path fill="#F24E1E" fill-rule="evenodd" d="M14.791 76.088c0 .616.286 1.164.73 1.52a6.054 6.054 0 001.773 4.13c2.31 2.344 5.445 2.231 7.833.939a1.94 1.94 0 001.545 0c2.387 1.292 5.522 1.405 7.832-.94a6.054 6.054 0 001.773-4.129 1.947 1.947 0 00-.718-3.402 8.903 8.903 0 00-1.218-1.953c-1.84-2.243-4.234-4.174-6.498-5.823l.002-.1a1.947 1.947 0 10-3.89.1c-2.265 1.65-4.658 3.58-6.498 5.823a8.903 8.903 0 00-1.218 1.953c-.834.22-1.448.98-1.448 1.882zm2.873 5.285a5.536 5.536 0 01-1.624-3.789 6.209 6.209 0 01-.003-.252 1.426 1.426 0 01-.727-1.244 1.428 1.428 0 011.294-1.421 8.253 8.253 0 011.254-2.085c1.865-2.272 4.324-4.232 6.654-5.914a1.428 1.428 0 112.774 0c2.33 1.682 4.789 3.641 6.654 5.914a8.38 8.38 0 011.254 2.085 1.428 1.428 0 01.567 2.665 5.536 5.536 0 01-1.627 4.04c-2.18 2.215-5.182 2.054-7.455.713a1.421 1.421 0 01-1.56 0c-2.272 1.34-5.274 1.502-7.455-.712z" clip-rule="evenodd"/>
          </g>
        </g>
      </g>
      <g class="symbol_5">
        <g class="♥ hearts_5">
          <g class="fill_3">
            <path fill="#F24E1E" d="M57.879 22.09c-1.728-1.755-4.173-1.712-6.112-.598a1.43 1.43 0 01-1.385 1.778 1.427 1.427 0 01-1.384-1.778c-1.94-1.114-4.384-1.157-6.112.597-.889.902-1.3 2.015-1.325 3.168a1.428 1.428 0 01.527 2.52c.264.603.62 1.183 1.055 1.712 1.778 2.167 4.144 4.059 6.449 5.725a1.42 1.42 0 01.79-.239c.292 0 .564.088.79.239 2.305-1.666 4.672-3.558 6.45-5.724.434-.53.79-1.11 1.054-1.713a1.428 1.428 0 01.528-2.52c-.025-1.153-.436-2.265-1.325-3.168z"/>
            <path fill="#F24E1E" d="M49.99 22.358a.65.65 0 01.393-1.165.649.649 0 11-.394 1.165zM50.382 35.754h.035a.649.649 0 11-.035 0zM58.974 26.954a.646.646 0 01.177-.827.649.649 0 11-.177.827zM41.22 27.293a.649.649 0 100-1.298.649.649 0 000 1.297z"/>
          </g>
          <path fill="#fff" fill-rule="evenodd" d="M60.245 25.4c.013-1.44-.47-2.865-1.627-4.04-2.181-2.215-5.183-2.054-7.455-.713a1.42 1.42 0 00-1.56 0c-2.273-1.34-5.275-1.502-7.456.712-1.158 1.175-1.64 2.602-1.627 4.04a1.427 1.427 0 00.568 2.666 8.36 8.36 0 001.253 2.085c1.865 2.272 4.325 4.232 6.654 5.914a1.427 1.427 0 102.774 0c2.33-1.682 4.789-3.641 6.654-5.914a8.362 8.362 0 001.254-2.085 1.428 1.428 0 00.568-2.665zm-8.478-3.908c1.939-1.114 4.384-1.157 6.112.597a4.543 4.543 0 011.325 3.168 1.428 1.428 0 00-.528 2.52 7.357 7.357 0 01-1.055 1.713c-1.777 2.166-4.144 4.058-6.448 5.724a1.421 1.421 0 00-1.581 0c-2.305-1.666-4.671-3.558-6.449-5.724a7.54 7.54 0 01-.558-.776 7.173 7.173 0 01-.497-.937 1.425 1.425 0 00.478-1.612 1.43 1.43 0 00-1.005-.908c.025-1.153.436-2.266 1.325-3.168 1.728-1.754 4.173-1.711 6.112-.597a1.43 1.43 0 001.384 1.778 1.427 1.427 0 001.385-1.778zm-1.778.866a.65.65 0 11.787-1.033.65.65 0 01-.787 1.033zm.428 13.396h-.035a.649.649 0 10.035 0zm8.557-8.8a.646.646 0 01.177-.827.649.649 0 11-.177.827zm-17.104-.31a.649.649 0 11-1.298 0 .649.649 0 011.298 0z" class="stroke_3" clip-rule="evenodd"/>
          <g class="stroke 2_3">
            <path fill="#F24E1E" d="M41.56 25.257zM48.998 21.492z"/>
            <path fill="#F24E1E" fill-rule="evenodd" d="M39.274 26.644c0-.616.286-1.164.73-1.52a6.054 6.054 0 011.773-4.13c2.31-2.344 5.445-2.231 7.833-.939a1.941 1.941 0 011.545 0c2.388-1.292 5.523-1.405 7.832.94a6.054 6.054 0 011.773 4.129 1.947 1.947 0 01-.718 3.402 8.899 8.899 0 01-1.217 1.953c-1.841 2.243-4.235 4.174-6.5 5.823l.003.1a1.947 1.947 0 11-3.89-.1c-2.265-1.65-4.657-3.58-6.498-5.823a8.906 8.906 0 01-1.218-1.953 1.947 1.947 0 01-1.448-1.882zm2.873-5.285a5.536 5.536 0 00-1.624 3.789 6.206 6.206 0 00-.003.252 1.426 1.426 0 00-.727 1.244 1.428 1.428 0 001.295 1.421 8.38 8.38 0 001.254 2.085c1.864 2.272 4.324 4.232 6.653 5.914a1.427 1.427 0 102.774 0c2.33-1.682 4.789-3.641 6.654-5.914a8.379 8.379 0 001.254-2.085 1.428 1.428 0 00.567-2.666 5.536 5.536 0 00-1.627-4.04c-2.18-2.214-5.182-2.053-7.454-.712a1.42 1.42 0 00-1.56 0c-2.273-1.34-5.275-1.502-7.456.712z" clip-rule="evenodd"/>
          </g>
        </g>
      </g>
      <g class="symbol_6">
        <g class="♥ hearts_6">
          <g class="fill_4">
            <path fill="#F24E1E" d="M33.396 22.09c-1.729-1.755-4.173-1.712-6.113-.598A1.43 1.43 0 0125.9 23.27a1.427 1.427 0 01-1.384-1.778c-1.94-1.114-4.384-1.157-6.112.597-.89.902-1.3 2.015-1.325 3.168a1.428 1.428 0 01.527 2.52c.264.603.62 1.183 1.055 1.712 1.778 2.167 4.144 4.059 6.448 5.725a1.42 1.42 0 01.79-.239c.293 0 .565.088.791.239 2.305-1.666 4.671-3.558 6.45-5.724.434-.53.79-1.11 1.054-1.713a1.428 1.428 0 01.528-2.52c-.025-1.153-.437-2.265-1.325-3.168z"/>
            <path fill="#F24E1E" d="M25.506 22.358a.65.65 0 01.393-1.165.649.649 0 11-.393 1.165zM25.899 35.754h.034a.649.649 0 11-.034 0zM34.49 26.954a.646.646 0 01.178-.827.649.649 0 11-.177.827zM16.738 27.293a.649.649 0 100-1.298.649.649 0 000 1.297z"/>
          </g>
          <path fill="#fff" fill-rule="evenodd" d="M35.761 25.4c.014-1.44-.469-2.865-1.627-4.04-2.18-2.215-5.182-2.054-7.455-.713a1.42 1.42 0 00-1.56 0c-2.272-1.34-5.274-1.502-7.455.712-1.158 1.175-1.64 2.602-1.627 4.04a1.427 1.427 0 00.567 2.666c.312.75.74 1.458 1.254 2.085 1.865 2.272 4.324 4.232 6.654 5.914a1.429 1.429 0 001.387 1.766 1.427 1.427 0 001.387-1.765c2.33-1.683 4.789-3.642 6.654-5.915a8.362 8.362 0 001.254-2.085 1.428 1.428 0 00.567-2.665zm-8.478-3.908c1.94-1.114 4.384-1.157 6.113.597a4.543 4.543 0 011.325 3.168 1.428 1.428 0 00-.528 2.52 7.36 7.36 0 01-1.055 1.713c-1.777 2.166-4.144 4.058-6.449 5.724a1.421 1.421 0 00-1.58 0c-2.305-1.666-4.671-3.558-6.45-5.724a7.57 7.57 0 01-.557-.776 7.16 7.16 0 01-.497-.937 1.425 1.425 0 00.478-1.612 1.43 1.43 0 00-1.005-.908c.024-1.153.436-2.266 1.325-3.168 1.728-1.754 4.173-1.711 6.112-.597a1.43 1.43 0 001.384 1.778 1.427 1.427 0 001.384-1.778zm-1.777.866a.649.649 0 11.786-1.032.649.649 0 01-.786 1.032zm.427 13.396H25.9a.649.649 0 10.034 0zm8.558-8.8a.646.646 0 01.177-.827.649.649 0 11-.177.827zm-17.105-.31a.649.649 0 11-1.297 0 .649.649 0 011.297 0z" class="stroke_4" clip-rule="evenodd"/>
          <g class="stroke 2_4">
            <path fill="#F24E1E" d="M17.078 25.257zM24.515 21.492z"/>
            <path fill="#F24E1E" fill-rule="evenodd" d="M14.791 26.644c0-.616.286-1.164.73-1.52a6.054 6.054 0 011.773-4.13c2.31-2.344 5.445-2.231 7.833-.939a1.94 1.94 0 011.545 0c2.387-1.292 5.522-1.405 7.832.94a6.054 6.054 0 011.773 4.129 1.947 1.947 0 01-.718 3.402 8.903 8.903 0 01-1.218 1.953c-1.84 2.243-4.234 4.174-6.498 5.823l.002.1a1.947 1.947 0 11-3.89-.1c-2.265-1.65-4.658-3.58-6.498-5.823a8.903 8.903 0 01-1.218-1.953 1.947 1.947 0 01-1.448-1.882zm2.873-5.285a5.536 5.536 0 00-1.624 3.789 6.206 6.206 0 00-.003.252 1.426 1.426 0 00-.727 1.244 1.428 1.428 0 001.294 1.421 8.253 8.253 0 001.254 2.085c1.865 2.272 4.324 4.232 6.654 5.914a1.429 1.429 0 001.387 1.766 1.427 1.427 0 001.387-1.765c2.33-1.683 4.789-3.642 6.654-5.915a8.38 8.38 0 001.254-2.085 1.428 1.428 0 00.567-2.666 5.536 5.536 0 00-1.627-4.04c-2.18-2.214-5.182-2.053-7.455-.712a1.42 1.42 0 00-1.56 0c-2.272-1.34-5.274-1.502-7.455.712z" clip-rule="evenodd"/>
          </g>
        </g>
      </g>
    </g>
    <g class="letter_2">
      <path fill="#222" d="M14.321 14.77h-1.279v4.178h-2.197V14.77H3.91v-1.465l6.443-9.772h2.706v9.772h1.279v1.465h-.017zm-3.476-1.465V6.047l-4.788 7.258h4.788z" class="Vector_2"/>
    </g>
  </g>
</svg>
