<svg xmlns="http://www.w3.org/2000/svg" width="80" height="112" fill="none" viewBox="0 0 80 112">
  <g class="four_clubs">
    <rect width="74.81" height="104.734" x=".282" y=".938" fill="#fff" rx="3.62"/>
    <rect width="78.991" height="110.588" x=".282" y=".938" fill="#fff" class="bg" rx="3.62"/>
    <g class="down">
      <g class="letter">
        <path fill="#222" d="M71.902 92.621h-1.279v-4.178h-2.197v4.178H61.49v1.465l6.444 9.772h2.706v-9.772h1.278V92.62h-.016zm-3.476 1.465v7.258l-4.788-7.258h4.788z" class="Vector"/>
      </g>
      <g class="symbol">
        <path fill="#2C2C2C" d="M63.3 81.826l.125-.47-.484-.032a1.75 1.75 0 111.691-2.517l.359.728.359-.728a1.75 1.75 0 111.691 2.517l-.484.033.125.469a1.752 1.752 0 01-1.691 2.201 1.75 1.75 0 01-1.69-2.201z" class="♣ club"/>
      </g>
    </g>
    <g class="up">
      <g class="symbol_2">
        <path fill="#2C2C2C" d="M12.175 24.743l-.125.469.485.033a1.75 1.75 0 11-1.692 2.517l-.358-.729-.36.729a1.75 1.75 0 11-1.69-2.517l.484-.033-.125-.47a1.752 1.752 0 011.69-2.2 1.75 1.75 0 011.691 2.2z" class="♣ club_2"/>
      </g>
      <g class="letter_2">
        <path fill="#222" d="M14.321 15.348h-1.279v4.179h-2.197v-4.179H3.91v-1.465l6.443-9.772h2.706v9.772h1.279v1.465h-.017zm-3.476-1.465V6.625l-4.788 7.258h4.788z" class="Vector_2"/>
      </g>
    </g>
    <g class="icons">
      <g class="symbol_3">
        <g class="♣ clubs">
          <g class="fill">
            <path fill="#2C2C2C" d="M56.419 76.1a1.66 1.66 0 10-1.686 2.455 5.283 5.283 0 11-10.514 0 1.66 1.66 0 10-1.687-2.456 5.283 5.283 0 115.707-7.783 1.66 1.66 0 102.473 0 5.283 5.283 0 115.707 7.783z"/>
            <path fill="#2C2C2C" d="M54.97 76.157a.751.751 0 00-.754.755.754.754 0 10.754-.755zM50.23 69.424a.755.755 0 10-1.51 0 .755.755 0 001.51 0zM43.98 76.157a.751.751 0 00-.754.755.755.755 0 10.755-.755z"/>
          </g>
          <path fill="#fff" fill-rule="evenodd" d="M48.74 66.907c.215.271.408.56.578.864a1.699 1.699 0 01.315 0 6.504 6.504 0 015.67-3.328 6.491 6.491 0 011.283 12.855 1.663 1.663 0 01-.67.978 6.604 6.604 0 01.05.81 6.491 6.491 0 11-12.931-.81 1.662 1.662 0 01-.67-.978 6.494 6.494 0 01-5.208-6.364 6.491 6.491 0 0111.583-4.027zm6.23 9.25a.751.751 0 00-.755.755.754.754 0 10.755-.755zm-1.66.755a1.66 1.66 0 001.423 1.643 5.283 5.283 0 11-10.514 0 1.66 1.66 0 10-1.687-2.456 5.283 5.283 0 115.707-7.783 1.66 1.66 0 102.473 0 5.283 5.283 0 115.707 7.783 1.66 1.66 0 00-3.11.813zm-3.08-7.488a.755.755 0 10-1.51 0 .755.755 0 001.51 0zm-6.574 6.806a.751.751 0 01.739.05.758.758 0 01.34.632.754.754 0 11-1.079-.682z" class="stroke" clip-rule="evenodd"/>
          <path fill="#2C2C2C" fill-rule="evenodd" d="M49.213 66.532a7.2 7.2 0 01.263.353 7.083 7.083 0 015.827-3.046 7.095 7.095 0 011.745 13.973c-.118.273-.289.518-.499.722l.002.028a7.095 7.095 0 11-14.152 0l.003-.028c-.21-.204-.38-.449-.5-.722a7.098 7.098 0 01-5.349-6.878 7.095 7.095 0 0112.66-4.402zm.998.375a6.52 6.52 0 00-.578.864 1.702 1.702 0 00-.315 0 6.67 6.67 0 00-.578-.864 6.491 6.491 0 10-6.374 10.391c.096.403.338.749.669.978a6.375 6.375 0 00-.05.81 6.491 6.491 0 1012.932-.81c.33-.23.573-.575.669-.978a6.494 6.494 0 005.208-6.364 6.491 6.491 0 00-11.583-4.027z" class="stroke 2" clip-rule="evenodd"/>
        </g>
      </g>
      <g class="symbol_4">
        <g class="♣ clubs_2">
          <g class="fill_2">
            <path fill="#2C2C2C" d="M32.389 76.1a1.66 1.66 0 10-1.686 2.455 5.283 5.283 0 11-10.514 0 1.66 1.66 0 10-1.687-2.456 5.283 5.283 0 115.707-7.783 1.66 1.66 0 102.473 0 5.283 5.283 0 115.707 7.783z"/>
            <path fill="#2C2C2C" d="M30.94 76.157a.751.751 0 00-.754.755.754.754 0 10.755-.755zM26.2 69.424a.755.755 0 10-1.51 0 .755.755 0 001.51 0zM19.951 76.157a.752.752 0 00-.755.755.755.755 0 10.755-.755z"/>
          </g>
          <path fill="#fff" fill-rule="evenodd" d="M24.71 66.907c.215.271.409.56.579.864a1.699 1.699 0 01.314 0 6.48 6.48 0 015.67-3.328 6.491 6.491 0 011.283 12.855 1.663 1.663 0 01-.67.978 6.487 6.487 0 01.05.81 6.491 6.491 0 11-12.931-.81 1.662 1.662 0 01-.67-.978 6.494 6.494 0 01-5.208-6.364 6.491 6.491 0 0111.583-4.027zm6.23 9.25a.751.751 0 00-.754.755.754.754 0 10.755-.755zm-1.66.755a1.66 1.66 0 001.423 1.643 5.283 5.283 0 11-10.514 0 1.66 1.66 0 10-1.687-2.456 5.283 5.283 0 115.707-7.783 1.66 1.66 0 102.473 0 5.283 5.283 0 115.707 7.783 1.66 1.66 0 00-3.109.813zm-3.08-7.488a.755.755 0 10-1.51 0 .755.755 0 001.51 0zm-6.574 6.806a.752.752 0 01.739.05.758.758 0 01.34.632.754.754 0 11-1.079-.682z" class="stroke_2" clip-rule="evenodd"/>
          <path fill="#2C2C2C" fill-rule="evenodd" d="M25.183 66.532c.091.115.179.232.263.353a7.083 7.083 0 015.827-3.046 7.095 7.095 0 011.746 13.973c-.119.273-.29.518-.5.722l.003.028a7.095 7.095 0 11-14.152 0l.002-.028c-.21-.204-.38-.449-.5-.722a7.098 7.098 0 01-5.349-6.878 7.095 7.095 0 0112.66-4.402zm.998.375a6.522 6.522 0 00-.383.538l-.04.064a6.67 6.67 0 00-.155.262 1.699 1.699 0 00-.314 0 6.549 6.549 0 00-.579-.864 6.491 6.491 0 10-6.374 10.391c.096.403.339.749.669.978a6.487 6.487 0 00-.05.81 6.491 6.491 0 1012.932-.81c.33-.23.573-.575.669-.978a6.494 6.494 0 005.208-6.364 6.491 6.491 0 00-11.583-4.027z" class="stroke 2_2" clip-rule="evenodd"/>
        </g>
      </g>
      <g class="symbol_5">
        <g class="♣ clubs_3">
          <g class="fill_3">
            <path fill="#2C2C2C" d="M56.872 28.696a1.66 1.66 0 11-1.686-2.456 5.283 5.283 0 10-10.514 0 1.66 1.66 0 11-1.686 2.456 5.283 5.283 0 105.707 7.783 1.66 1.66 0 112.473 0 5.283 5.283 0 105.707-7.783z"/>
            <path fill="#2C2C2C" d="M55.424 28.639a.751.751 0 01-.755-.755.754.754 0 11.755.755zM50.684 35.371a.755.755 0 11-1.51 0 .755.755 0 011.51 0zM44.434 28.639a.751.751 0 01-.755-.755.755.755 0 11.755.755z"/>
          </g>
          <path fill="#fff" fill-rule="evenodd" d="M49.193 37.889c.215-.272.409-.56.579-.864a1.699 1.699 0 00.314 0 6.48 6.48 0 005.67 3.328 6.491 6.491 0 001.283-12.856 1.662 1.662 0 00-.669-.978 6.604 6.604 0 00.05-.809 6.491 6.491 0 10-12.932.81c-.33.229-.573.575-.67.977a6.494 6.494 0 00-5.208 6.364 6.491 6.491 0 0011.583 4.028zm6.23-9.25a.751.751 0 01-.754-.755.754.754 0 11.755.755zm-1.66-.755a1.66 1.66 0 011.423-1.644 5.283 5.283 0 10-10.514 0 1.66 1.66 0 11-1.686 2.456 5.283 5.283 0 105.707 7.783 1.66 1.66 0 112.473 0 5.283 5.283 0 105.707-7.783 1.66 1.66 0 01-3.11-.812zm-3.08 7.487a.755.755 0 11-1.51 0 .755.755 0 011.51 0zm-6.574-6.806a.751.751 0 00.739-.05.758.758 0 00.341-.631.754.754 0 10-1.08.681z" class="stroke_3" clip-rule="evenodd"/>
          <path fill="#2C2C2C" fill-rule="evenodd" d="M49.667 38.264c.09-.115.178-.233.262-.353a7.083 7.083 0 005.827 3.046 7.095 7.095 0 001.746-13.974 2.266 2.266 0 00-.5-.722l.003-.027a7.095 7.095 0 10-14.15.027c-.21.204-.38.45-.499.723a7.098 7.098 0 00-5.349 6.878 7.095 7.095 0 0012.66 4.402zm.998-.375a6.52 6.52 0 01-.579-.864 1.698 1.698 0 01-.314 0 6.55 6.55 0 01-.579.864 6.491 6.491 0 11-6.374-10.391c.096-.403.339-.75.669-.979a6.487 6.487 0 01-.05-.809 6.491 6.491 0 1112.932.81c.33.229.573.575.669.977a6.494 6.494 0 015.208 6.364 6.491 6.491 0 01-11.582 4.028z" class="stroke 2_3" clip-rule="evenodd"/>
        </g>
      </g>
      <g class="symbol_6">
        <g class="♣ clubs_4">
          <g class="fill_4">
            <path fill="#2C2C2C" d="M32.389 28.696a1.66 1.66 0 11-1.686-2.456 5.283 5.283 0 10-10.514 0 1.66 1.66 0 11-1.687 2.456 5.283 5.283 0 105.707 7.783 1.66 1.66 0 112.473 0 5.283 5.283 0 105.707-7.783z"/>
            <path fill="#2C2C2C" d="M30.94 28.639a.751.751 0 01-.754-.755.754.754 0 11.755.755zM26.2 35.371a.755.755 0 11-1.51 0 .755.755 0 011.51 0zM19.951 28.639a.752.752 0 01-.755-.755.755.755 0 11.755.755z"/>
          </g>
          <path fill="#fff" fill-rule="evenodd" d="M24.71 37.889c.215-.272.409-.56.579-.864a1.699 1.699 0 00.314 0 6.48 6.48 0 005.67 3.328 6.491 6.491 0 001.283-12.856 1.662 1.662 0 00-.67-.978 6.487 6.487 0 00.05-.809 6.491 6.491 0 10-12.931.81c-.33.229-.573.575-.67.977a6.494 6.494 0 00-5.208 6.364A6.491 6.491 0 0024.71 37.89zm6.23-9.25a.751.751 0 01-.754-.755.754.754 0 11.755.755zm-1.66-.755a1.66 1.66 0 011.423-1.644 5.283 5.283 0 10-10.514 0 1.66 1.66 0 11-1.687 2.456 5.283 5.283 0 105.707 7.783 1.66 1.66 0 112.473 0 5.283 5.283 0 105.707-7.783 1.66 1.66 0 01-3.109-.812zM26.2 35.37a.755.755 0 11-1.51 0 .755.755 0 011.51 0zm-6.574-6.806a.752.752 0 00.739-.05.758.758 0 00.34-.631.754.754 0 10-1.079.681z" class="stroke_4" clip-rule="evenodd"/>
          <path fill="#2C2C2C" fill-rule="evenodd" d="M25.183 38.264c.091-.115.179-.233.263-.353a7.083 7.083 0 005.827 3.046 7.095 7.095 0 001.746-13.974 2.266 2.266 0 00-.5-.722l.003-.027a7.095 7.095 0 10-14.152 0l.002.027c-.21.204-.38.45-.5.723a7.098 7.098 0 00-5.349 6.878 7.095 7.095 0 0012.66 4.402zm.998-.375a6.522 6.522 0 01-.383-.538l-.04-.064a6.67 6.67 0 01-.155-.262 1.699 1.699 0 01-.314 0 6.549 6.549 0 01-.579.864 6.491 6.491 0 11-6.374-10.391c.096-.403.339-.75.669-.979a6.487 6.487 0 01-.05-.809 6.491 6.491 0 1112.932.81c.33.229.573.575.669.977a6.494 6.494 0 015.208 6.364A6.491 6.491 0 0126.18 37.89z" class="stroke 2_4" clip-rule="evenodd"/>
        </g>
      </g>
    </g>
  </g>
</svg>
