<svg xmlns="http://www.w3.org/2000/svg" width="80" height="112" fill="none" viewBox="0 0 80 112">
  <g class="four_spades">
    <rect width="74.81" height="104.734" x=".282" y=".422" fill="#fff" rx="3.62"/>
    <rect width="78.991" height="110.588" x=".282" y=".422" fill="#fff" class="bg" rx="3.62"/>
    <g class="down">
      <g class="letter">
        <path fill="#222" d="M71.902 92.105h-1.279v-4.178h-2.197v4.178H61.49v1.465l6.444 9.772h2.706V93.57h1.278v-1.465h-.016zm-3.476 1.465v7.258l-4.788-7.258h4.788z" class="Vector"/>
      </g>
      <g class="symbol">
        <path fill="#2C2C2C" d="M67.803 80.912c.707-.863.875-2.068.1-2.857-.84-.852-2.115-.605-2.889.182-.774-.787-2.05-1.034-2.888-.181-.776.788-.608 1.993.1 2.856.763.932 1.808 1.733 2.788 2.427.98-.694 2.025-1.495 2.789-2.427z" class="â spades"/>
      </g>
    </g>
    <g class="up">
      <g class="symbol_2">
        <path fill="#2C2C2C" d="M7.673 24.625c-.708.863-.875 2.068-.1 2.857.839.852 2.114.605 2.888-.182.774.787 2.05 1.034 2.889.182.775-.79.607-1.994-.1-2.857-.763-.932-1.809-1.733-2.789-2.427-.98.694-2.025 1.495-2.788 2.427z" class="â spades_2"/>
      </g>
      <g class="letter_2">
        <path fill="#222" d="M14.321 14.832h-1.279v4.179h-2.197v-4.179H3.91v-1.465l6.443-9.772h2.706v9.772h1.279v1.465h-.017zm-3.476-1.465V6.11l-4.788 7.258h4.788z" class="Vector_2"/>
      </g>
    </g>
    <g class="icons">
      <g class="symbol_3">
        <g class="â spades_3">
          <g class="fill">
            <path fill="#2C2C2C" d="M42.315 76.948c1.814 2.21 4.229 4.141 6.58 5.84a1.45 1.45 0 01.807-.243c.298 0 .576.09.807.244 2.351-1.7 4.766-3.63 6.58-5.841a7.507 7.507 0 001.077-1.747 1.457 1.457 0 01.538-2.572c-.025-1.177-.445-2.312-1.352-3.232-1.764-1.79-4.258-1.747-6.237-.61a1.459 1.459 0 01-1.413 1.814 1.457 1.457 0 01-1.412-1.814c-1.98-1.137-4.474-1.18-6.237.61-.907.92-1.327 2.055-1.352 3.232a1.457 1.457 0 01.538 2.572 7.504 7.504 0 001.076 1.747z"/>
            <path fill="#2C2C2C" d="M49.04 69.144a.666.666 0 00.052.257.664.664 0 00.61.406.662.662 0 10-.662-.663zM49.667 83.34a.662.662 0 10.07 0M40.755 73.517a.665.665 0 01.26.527.662.662 0 11-.26-.527zM58.47 74.36a.658.658 0 01-.081-.316.661.661 0 11.08.317z"/>
          </g>
          <path fill="#fff" fill-rule="evenodd" d="M59.766 72.775c.013-1.469-.479-2.924-1.66-4.124-2.226-2.258-5.289-2.094-7.608-.726a1.45 1.45 0 00-1.593 0c-2.318-1.368-5.38-1.532-7.606.727-1.182 1.199-1.674 2.654-1.66 4.123a1.456 1.456 0 00.579 2.72 8.531 8.531 0 001.28 2.126c1.902 2.32 4.412 4.319 6.788 6.036a1.46 1.46 0 001.416 1.802 1.457 1.457 0 001.415-1.802c2.377-1.717 4.887-3.716 6.79-6.035a8.534 8.534 0 001.28-2.128 1.457 1.457 0 00.579-2.72zm-17.45 4.173c1.813 2.21 4.228 4.141 6.58 5.84a1.45 1.45 0 011.613.001c2.351-1.7 4.766-3.63 6.58-5.841a7.468 7.468 0 001.076-1.747 1.452 1.452 0 01-.566-1.284 1.457 1.457 0 011.105-1.288 4.635 4.635 0 00-1.352-3.232 4.932 4.932 0 00-.693-.587c-1.27-.885-2.79-1.014-4.203-.6a6.23 6.23 0 00-1.341.577l.011.048a1.457 1.457 0 11-2.836-.049c-1.98-1.136-4.474-1.18-6.237.61-.907.921-1.327 2.056-1.352 3.233a1.448 1.448 0 01.917.691 1.454 1.454 0 01-.379 1.88c.27.616.633 1.207 1.076 1.748zm6.724-7.803a.668.668 0 00.052.256.664.664 0 00.61.406.662.662 0 10-.662-.663zm0 14.857c0-.354.278-.643.627-.661h.07a.662.662 0 11-.697.66zm-8.285-10.485a.664.664 0 01.26.527.662.662 0 11-.26-.527zm17.634.548a.659.659 0 00.662.641.662.662 0 10-.662-.64z" class="stroke" clip-rule="evenodd"/>
          <path fill="#2C2C2C" fill-rule="evenodd" d="M58.317 77.957c-1.878 2.29-4.32 4.26-6.632 5.943a1.986 1.986 0 11-3.967 0c-2.31-1.684-4.752-3.654-6.63-5.942a9.085 9.085 0 01-1.243-1.994 1.987 1.987 0 01-.732-3.47 6.177 6.177 0 011.809-4.214c2.356-2.393 5.556-2.278 7.992-.96a1.98 1.98 0 011.576 0c2.437-1.318 5.636-1.433 7.993.96a6.178 6.178 0 011.809 4.213 1.987 1.987 0 01-.732 3.471 9.085 9.085 0 01-1.243 1.993zm.87-2.463a8.549 8.549 0 01-1.28 2.127c-1.903 2.32-4.413 4.32-6.79 6.036a1.457 1.457 0 11-2.831 0C45.91 81.94 43.4 79.94 41.497 77.62a8.55 8.55 0 01-1.28-2.127 1.457 1.457 0 01-.579-2.72c0-.085.001-.17.004-.256a5.649 5.649 0 011.657-3.867c2.225-2.258 5.288-2.094 7.607-.727a1.45 1.45 0 01.796-.236c.294 0 .568.087.797.236 2.318-1.367 5.381-1.531 7.607.727a5.65 5.65 0 011.657 3.867c.003.085.003.17.003.257a1.455 1.455 0 01.742 1.27 1.457 1.457 0 01-1.321 1.45z" class="stroke 2" clip-rule="evenodd"/>
        </g>
      </g>
      <g class="symbol_4">
        <g class="â spades_4">
          <g class="fill_2">
            <path fill="#2C2C2C" d="M18.285 76.948c1.814 2.21 4.229 4.141 6.58 5.84a1.45 1.45 0 011.613 0c2.352-1.698 4.767-3.63 6.581-5.84a7.507 7.507 0 001.077-1.747 1.457 1.457 0 01.538-2.572c-.025-1.177-.445-2.312-1.352-3.232-1.764-1.79-4.258-1.747-6.237-.61a1.457 1.457 0 11-2.825 0c-1.979-1.137-4.474-1.18-6.237.61-.907.92-1.327 2.055-1.352 3.232a1.457 1.457 0 01.538 2.572c.27.615.633 1.206 1.076 1.747z"/>
            <path fill="#2C2C2C" d="M25.01 69.144a.661.661 0 101.323.001.661.661 0 00-1.323 0zM25.638 83.34a.662.662 0 10.07 0M16.725 73.517a.666.666 0 01.26.527.662.662 0 11-.26-.527zM34.44 74.36a.658.658 0 01-.081-.316.661.661 0 11.08.317z"/>
          </g>
          <path fill="#fff" fill-rule="evenodd" d="M35.736 72.775c.014-1.469-.479-2.924-1.66-4.124-2.226-2.258-5.289-2.094-7.607-.726a1.45 1.45 0 00-1.593 0c-2.318-1.368-5.382-1.532-7.607.727-1.181 1.199-1.674 2.654-1.66 4.123a1.456 1.456 0 00.579 2.72 8.531 8.531 0 001.28 2.126c1.902 2.32 4.412 4.319 6.788 6.036a1.457 1.457 0 102.831 0c2.378-1.717 4.887-3.716 6.79-6.035a8.531 8.531 0 001.28-2.128 1.457 1.457 0 00.579-2.72zm-17.45 4.173c1.813 2.21 4.228 4.141 6.58 5.84a1.45 1.45 0 011.613 0c2.352-1.698 4.766-3.63 6.58-5.84a7.463 7.463 0 001.076-1.747 1.454 1.454 0 01-.565-1.284 1.457 1.457 0 011.104-1.288 4.635 4.635 0 00-1.352-3.232 4.932 4.932 0 00-.693-.587c-1.27-.885-2.79-1.014-4.202-.6-.463.137-.915.331-1.342.577l.011.048a1.457 1.457 0 11-2.836-.049c-1.979-1.136-4.474-1.18-6.237.61-.907.921-1.327 2.056-1.352 3.233a1.449 1.449 0 01.917.691 1.454 1.454 0 01-.379 1.88c.27.616.633 1.207 1.076 1.748zm6.724-7.803a.663.663 0 101.326 0 .663.663 0 00-1.326 0zm0 14.857c0-.354.278-.643.628-.661h.07a.662.662 0 11-.698.66zm-8.285-10.485a.666.666 0 01.26.527.662.662 0 11-.26-.527zm17.634.548a.662.662 0 101.323-.043.662.662 0 00-1.323.043z" class="stroke_2" clip-rule="evenodd"/>
          <path fill="#2C2C2C" fill-rule="evenodd" d="M34.287 77.957c-1.878 2.29-4.32 4.26-6.631 5.943l.002.102a1.986 1.986 0 11-3.97-.103c-2.31-1.683-4.752-3.653-6.63-5.942a9.085 9.085 0 01-1.243-1.993 1.987 1.987 0 01-.732-3.47 6.178 6.178 0 011.809-4.214c2.357-2.393 5.556-2.278 7.992-.96a1.98 1.98 0 011.576 0c2.437-1.318 5.636-1.433 7.993.96a6.178 6.178 0 011.81 4.213 1.987 1.987 0 01-.732 3.471 9.081 9.081 0 01-1.244 1.993zm.87-2.463a8.55 8.55 0 01-1.28 2.127c-1.903 2.32-4.412 4.32-6.79 6.036a1.46 1.46 0 01-1.415 1.801 1.457 1.457 0 01-1.416-1.801c-2.376-1.717-4.886-3.716-6.789-6.036a8.549 8.549 0 01-1.28-2.127 1.457 1.457 0 01-.579-2.72c0-.085.001-.17.004-.256a5.65 5.65 0 011.657-3.867c2.225-2.258 5.289-2.094 7.607-.727a1.45 1.45 0 01.796-.236c.294 0 .568.087.797.236 2.318-1.367 5.381-1.531 7.607.727a5.649 5.649 0 011.657 3.867c.003.085.004.17.003.257a1.455 1.455 0 01.742 1.27 1.457 1.457 0 01-1.321 1.45z" class="stroke 2_2" clip-rule="evenodd"/>
        </g>
      </g>
      <g class="symbol_5">
        <g class="â spades_5">
          <g class="fill_3">
            <path fill="#2C2C2C" d="M42.769 29.99c1.814-2.21 4.228-4.142 6.58-5.841.23.154.508.243.806.243.299 0 .576-.09.807-.244 2.352 1.7 4.766 3.631 6.58 5.842.444.54.808 1.132 1.077 1.747a1.457 1.457 0 00.538 2.572c-.025 1.177-.445 2.311-1.352 3.232-1.763 1.79-4.258 1.746-6.237.61a1.458 1.458 0 00-1.412-1.815 1.457 1.457 0 00-1.413 1.815c-1.979 1.136-4.473 1.18-6.237-.61-.907-.92-1.327-2.055-1.352-3.232a1.457 1.457 0 00.538-2.572 7.504 7.504 0 011.077-1.747z"/>
            <path fill="#2C2C2C" d="M49.494 37.793a.666.666 0 01.051-.256.663.663 0 11-.051.256zM50.12 23.597a.662.662 0 11.07 0M41.208 33.42a.664.664 0 00.261-.526.662.662 0 10-.26.526zM58.923 32.577a.658.658 0 00-.08.317.661.661 0 10.08-.317z"/>
          </g>
          <path fill="#fff" fill-rule="evenodd" d="M60.219 34.163c.014 1.468-.479 2.924-1.66 4.123-2.225 2.259-5.288 2.095-7.607.727a1.45 1.45 0 01-.796.237 1.45 1.45 0 01-.797-.237c-2.318 1.368-5.381 1.532-7.607-.727-1.181-1.2-1.674-2.655-1.66-4.123a1.456 1.456 0 01.58-2.72 8.53 8.53 0 011.279-2.127c1.903-2.319 4.412-4.318 6.789-6.035a1.459 1.459 0 011.415-1.802 1.457 1.457 0 011.416 1.801c2.377 1.717 4.886 3.717 6.79 6.036.525.64.961 1.362 1.28 2.127a1.457 1.457 0 01.578 2.72zm-17.45-4.173c1.814-2.21 4.228-4.142 6.58-5.841.23.154.508.243.806.243.299 0 .576-.09.807-.244 2.352 1.7 4.766 3.631 6.58 5.842a7.466 7.466 0 011.076 1.747 1.452 1.452 0 00-.566 1.284 1.458 1.458 0 001.105 1.288 4.636 4.636 0 01-1.352 3.232c-.22.224-.452.419-.693.587-1.27.885-2.79 1.014-4.202.599a6.225 6.225 0 01-1.342-.576l.011-.049a1.457 1.457 0 10-2.836.049c-1.979 1.136-4.473 1.18-6.237-.61-.907-.92-1.327-2.056-1.352-3.232a1.446 1.446 0 00.917-.692 1.454 1.454 0 00-.379-1.88 7.507 7.507 0 011.077-1.747zm6.725 7.803a.666.666 0 01.051-.256.664.664 0 01.61-.406.662.662 0 11-.661.662zm0-14.857c0 .354.277.643.627.66h.07a.662.662 0 10-.698-.66zM41.207 33.42a.665.665 0 00.261-.526.662.662 0 10-.26.526zm17.635-.548a.662.662 0 111.323.042.662.662 0 01-1.324-.042z" class="stroke_3" clip-rule="evenodd"/>
          <path fill="#2C2C2C" fill-rule="evenodd" d="M58.77 28.98c-1.878-2.288-4.32-4.26-6.631-5.942.002-.034.002-.068.002-.102a1.986 1.986 0 10-3.97.103c-2.31 1.682-4.752 3.653-6.63 5.941a9.086 9.086 0 00-1.243 1.993 1.987 1.987 0 00-.732 3.471 6.177 6.177 0 001.809 4.214c2.357 2.392 5.556 2.277 7.993.959a1.982 1.982 0 001.576 0c2.436 1.318 5.636 1.433 7.992-.96a6.178 6.178 0 001.81-4.213 1.987 1.987 0 00-.732-3.471 9.087 9.087 0 00-1.244-1.993zm.87 2.463a8.414 8.414 0 00-1.28-2.127c-1.903-2.32-4.412-4.319-6.79-6.036a1.457 1.457 0 10-2.831 0c-2.376 1.718-4.885 3.717-6.788 6.036a8.55 8.55 0 00-1.28 2.127 1.453 1.453 0 00-1.32 1.45 1.455 1.455 0 00.741 1.27c0 .086 0 .171.003.257a5.649 5.649 0 001.657 3.866c2.226 2.259 5.289 2.095 7.607.727.23.15.503.237.797.237.294 0 .567-.087.796-.237 2.319 1.368 5.382 1.532 7.607-.727a5.649 5.649 0 001.657-3.866 6.28 6.28 0 00.003-.257 1.462 1.462 0 00.742-1.27 1.457 1.457 0 00-1.32-1.45z" class="stroke 2_3" clip-rule="evenodd"/>
        </g>
      </g>
      <g class="symbol_6">
        <g class="â spades_6">
          <g class="fill_4">
            <path fill="#2C2C2C" d="M18.285 29.99c1.814-2.21 4.229-4.142 6.58-5.841.231.154.509.243.807.243.298 0 .576-.09.807-.244 2.352 1.7 4.766 3.631 6.58 5.842.444.54.808 1.132 1.077 1.747a1.457 1.457 0 00.538 2.572c-.025 1.177-.445 2.311-1.352 3.232-1.764 1.79-4.258 1.746-6.237.61a1.457 1.457 0 10-2.825 0c-1.979 1.136-4.474 1.18-6.237-.61-.907-.92-1.327-2.055-1.352-3.232a1.457 1.457 0 00.538-2.572 7.507 7.507 0 011.076-1.747z"/>
            <path fill="#2C2C2C" d="M25.01 37.793a.661.661 0 111.323 0 .661.661 0 01-1.323 0zM25.638 23.597a.662.662 0 11.07 0M16.725 33.42a.666.666 0 00.26-.526.662.662 0 10-.26.526zM34.44 32.577a.657.657 0 00-.081.317.661.661 0 10.08-.317z"/>
          </g>
          <path fill="#fff" fill-rule="evenodd" d="M35.736 34.163c.014 1.468-.479 2.924-1.66 4.123-2.226 2.259-5.289 2.095-7.607.727a1.45 1.45 0 01-.797.237 1.45 1.45 0 01-.796-.237c-2.318 1.368-5.382 1.532-7.607-.727-1.181-1.2-1.674-2.655-1.66-4.123a1.456 1.456 0 01.579-2.72 8.53 8.53 0 011.28-2.127c1.902-2.319 4.412-4.318 6.788-6.035a1.457 1.457 0 112.831 0c2.378 1.716 4.887 3.716 6.79 6.035a8.53 8.53 0 011.28 2.127 1.457 1.457 0 01.579 2.72zm-17.45-4.173c1.813-2.21 4.228-4.142 6.58-5.841.23.154.508.243.806.243.298 0 .576-.09.807-.244 2.352 1.7 4.766 3.631 6.58 5.842a7.53 7.53 0 011.077 1.747 1.453 1.453 0 00-.566 1.284 1.458 1.458 0 001.104 1.288 4.636 4.636 0 01-1.352 3.232c-.22.224-.452.419-.693.587-1.27.885-2.79 1.014-4.202.599a6.22 6.22 0 01-1.342-.576 1.463 1.463 0 00.044-.358 1.457 1.457 0 10-2.869.358c-1.979 1.136-4.474 1.18-6.237-.61-.907-.92-1.327-2.056-1.352-3.232a1.447 1.447 0 00.917-.692 1.454 1.454 0 00-.379-1.88 7.507 7.507 0 011.076-1.747zm6.724 7.803a.661.661 0 111.323 0 .661.661 0 01-1.323 0zm0-14.857c0 .354.278.643.628.66h.07a.662.662 0 10-.698-.66zM16.725 33.42a.666.666 0 00.26-.526.662.662 0 10-.26.526zm17.634-.548a.662.662 0 111.323.042.662.662 0 01-1.323-.042z" class="stroke_4" clip-rule="evenodd"/>
          <path fill="#2C2C2C" fill-rule="evenodd" d="M34.287 28.98c-1.878-2.288-4.32-4.26-6.631-5.942l.002-.102a1.986 1.986 0 10-3.97.103c-2.31 1.682-4.752 3.653-6.63 5.941a9.087 9.087 0 00-1.243 1.993 1.987 1.987 0 00-.732 3.471 6.178 6.178 0 001.809 4.214c2.357 2.392 5.556 2.277 7.992.959a1.982 1.982 0 001.576 0c2.437 1.318 5.636 1.433 7.993-.96a6.178 6.178 0 001.81-4.213 1.987 1.987 0 00-.732-3.471 9.083 9.083 0 00-1.244-1.993zm.87 2.463a8.55 8.55 0 00-1.28-2.127c-1.903-2.32-4.412-4.319-6.79-6.036a1.459 1.459 0 00-1.415-1.8 1.457 1.457 0 00-1.416 1.8c-2.376 1.718-4.886 3.717-6.789 6.036a8.55 8.55 0 00-1.28 2.127 1.456 1.456 0 00-.578 2.72c0 .086 0 .171.003.257a5.649 5.649 0 001.657 3.866c2.225 2.259 5.289 2.095 7.607.727a1.45 1.45 0 001.592 0c2.32 1.368 5.383 1.532 7.608-.727a5.649 5.649 0 001.657-3.866 6.28 6.28 0 00.003-.257 1.455 1.455 0 00.742-1.27 1.457 1.457 0 00-1.321-1.45z" class="stroke 2_4" clip-rule="evenodd"/>
        </g>
      </g>
    </g>
  </g>
</svg>
