<svg xmlns="http://www.w3.org/2000/svg" width="80" height="112" fill="none" viewBox="0 0 80 112">
  <g class="nine_clubs">
    <rect width="74.81" height="104.734" x=".3" y=".938" fill="#fff" rx="3.62"/>
    <rect width="78.991" height="110.588" x=".3" y=".938" fill="#fff" class="bg" rx="3.62"/>
    <g class="down">
      <g class="letter">
        <path fill="#222" d="M61.508 99.456c0 1.535.463 2.736 1.406 3.587.926.851 2.117 1.268 3.573 1.268 1.356 0 2.514-.417 3.507-1.268.992-.851 1.488-2.269 1.488-4.288v-4.556c0-1.952-.48-3.387-1.422-4.338-.943-.935-2.217-1.419-3.805-1.419-1.786 0-3.242.701-4.383 2.12l1.82.917c.562-.984 1.405-1.468 2.547-1.468.942 0 1.687.3 2.216.885.53.584.81 1.685.81 3.27v2.153c-.744-1.135-1.902-1.703-3.44-1.703-1.29 0-2.332.418-3.126 1.235-.794.818-1.191 2.02-1.191 3.605zm2.233.016c0-1.268.231-2.136.695-2.586.463-.45 1.058-.684 1.803-.684 1.588 0 2.613.8 3.043 2.386 0 1.769-.264 2.903-.794 3.404-.53.501-1.19.751-1.985.751-.76 0-1.406-.25-1.952-.751s-.81-1.352-.81-2.52z" class="Vector"/>
      </g>
      <g class="symbol">
        <path fill="#2C2C2C" d="M63.318 81.826l.124-.47-.484-.032a1.75 1.75 0 111.691-2.517l.36.728.358-.728a1.75 1.75 0 111.691 2.517l-.484.033.125.469a1.752 1.752 0 01-1.69 2.201 1.75 1.75 0 01-1.691-2.201z" class="♣ club"/>
      </g>
    </g>
    <g class="up">
      <g class="letter_2">
        <path fill="#222" d="M4.834 9.42c0-1.535.463-2.736 1.406-3.587.926-.851 2.117-1.268 3.573-1.268 1.356 0 2.514.417 3.506 1.268.993.85 1.49 2.27 1.49 4.288v4.556c0 1.952-.48 3.387-1.423 4.338-.943.935-2.217 1.418-3.805 1.418-1.786 0-3.242-.7-4.383-2.119l1.82-.917c.562.984 1.405 1.468 2.547 1.468.942 0 1.687-.3 2.216-.884.53-.584.81-1.686.81-3.27v-2.154c-.744 1.135-1.902 1.702-3.44 1.702-1.29 0-2.332-.417-3.126-1.234-.794-.818-1.191-2.02-1.191-3.605zm2.233-.016c0 1.268.231 2.136.694 2.586.464.45 1.06.684 1.804.684 1.588 0 2.613-.8 3.043-2.386 0-1.769-.264-2.903-.794-3.404-.53-.5-1.19-.75-1.985-.75-.76 0-1.406.25-1.952.75s-.81 1.352-.81 2.52z" class="Vector_2"/>
      </g>
      <g class="symbol_2">
        <path fill="#2C2C2C" d="M12.193 24.743l-.125.469.484.033a1.75 1.75 0 11-1.691 2.517l-.36-.729-.358.729a1.75 1.75 0 11-1.691-2.517l.484-.033-.125-.47a1.752 1.752 0 011.69-2.2 1.75 1.75 0 011.692 2.2z" class="♣ club_2"/>
      </g>
    </g>
    <g class="icons">
      <g class="symbol_3">
        <g class="♣ clubs">
          <g class="fill">
            <path fill="#2C2C2C" d="M31.117 86.419a1.52 1.52 0 00-1.321-.76c-.837 0-1.515.666-1.515 1.486 0 .749.564 1.368 1.298 1.471a4.7 4.7 0 01.024.474c0 2.611-2.158 4.728-4.82 4.728-2.662 0-4.82-2.117-4.82-4.728 0-.16.008-.318.024-.474a1.496 1.496 0 001.298-1.47c0-.821-.678-1.486-1.515-1.486a1.52 1.52 0 00-1.321.759c-2.173-.459-3.802-2.354-3.802-4.622 0-2.61 2.158-4.727 4.82-4.727 1.792 0 3.356.958 4.188 2.385-.24.263-.387.61-.387.991 0 .82.678 1.486 1.515 1.486.836 0 1.515-.665 1.515-1.486 0-.38-.147-.728-.387-.992a4.835 4.835 0 014.188-2.384c2.662 0 4.82 2.116 4.82 4.727 0 2.268-1.63 4.163-3.802 4.622z"/>
            <path fill="#2C2C2C" d="M29.796 86.47a.695.695 0 00-.628.397.663.663 0 00.225.826c.113.08.252.128.403.128.38 0 .688-.302.688-.675a.675.675 0 00-.392-.61.697.697 0 00-.296-.066zM25.471 80.446a.685.685 0 00-.689-.675.685.685 0 00-.688.675c0 .26.15.486.37.599a.698.698 0 00.638 0 .674.674 0 00.37-.599zM19.77 86.47a.697.697 0 00-.296.066.675.675 0 00-.393.61c0 .373.309.675.69.675.15 0 .288-.047.402-.128a.67.67 0 00-.025-1.112.695.695 0 00-.378-.11z"/>
          </g>
          <path fill="#fff" fill-rule="evenodd" d="M24.112 78.194c.196.243.373.501.528.773a1.58 1.58 0 01.286 0c.155-.272.332-.53.528-.773a5.954 5.954 0 014.645-2.205c3.27 0 5.921 2.6 5.921 5.808 0 2.7-1.878 4.97-4.423 5.62a5.932 5.932 0 01-.328.074c-.087.36-.309.67-.61.875a5.722 5.722 0 01.046.724c0 3.208-2.652 5.808-5.922 5.808-3.27 0-5.922-2.6-5.922-5.808a5.752 5.752 0 01.046-.724 1.487 1.487 0 01-.61-.875 5.932 5.932 0 01-.329-.074c-2.544-.65-4.423-2.92-4.423-5.62 0-3.208 2.652-5.808 5.922-5.808 1.883 0 3.56.862 4.645 2.205zm5.684 8.276a.695.695 0 00-.628.397.67.67 0 00.225.827c.113.08.252.127.403.127.38 0 .688-.302.688-.675a.675.675 0 00-.392-.61.697.697 0 00-.296-.066zm-1.515.675c0 .749.564 1.368 1.298 1.471a4.7 4.7 0 01.024.474c0 2.611-2.158 4.728-4.82 4.728-2.662 0-4.82-2.117-4.82-4.728 0-.16.008-.318.024-.474a1.496 1.496 0 001.298-1.47c0-.821-.678-1.486-1.515-1.486a1.52 1.52 0 00-1.321.759c-2.173-.459-3.802-2.354-3.802-4.622 0-2.61 2.158-4.727 4.82-4.727 1.791 0 3.356.958 4.188 2.385-.24.263-.387.61-.387.991 0 .82.678 1.486 1.515 1.486.836 0 1.515-.665 1.515-1.486 0-.38-.147-.728-.387-.992a4.835 4.835 0 014.188-2.384c2.662 0 4.82 2.116 4.82 4.727 0 2.268-1.63 4.163-3.802 4.622a1.52 1.52 0 00-1.321-.76c-.837 0-1.515.666-1.515 1.486zm-2.81-6.699a.685.685 0 00-.689-.675.685.685 0 00-.688.675c0 .26.15.486.37.599a.698.698 0 00.638 0 .674.674 0 00.37-.599zm-5.997 6.09a.698.698 0 01.923.33.67.67 0 01-.225.827.694.694 0 01-.402.128.682.682 0 01-.689-.675c0-.27.16-.502.393-.61z" class="stroke" clip-rule="evenodd"/>
          <path fill="#2C2C2C" fill-rule="evenodd" d="M24.544 77.858c.082.103.162.209.239.316a6.509 6.509 0 015.316-2.725c3.574 0 6.472 2.842 6.472 6.348 0 2.952-2.053 5.431-4.835 6.143l-.045.011a2.027 2.027 0 01-.455.647l.002.024c.012.155.017.31.017.468 0 3.506-2.897 6.348-6.472 6.348-3.575 0-6.473-2.842-6.473-6.348a6.325 6.325 0 01.02-.493 2.029 2.029 0 01-.456-.646 5.887 5.887 0 01-.045-.011c-2.781-.712-4.834-3.191-4.834-6.143 0-3.506 2.897-6.348 6.472-6.348 2.058 0 3.892.942 5.077 2.41zm.91.336a5.805 5.805 0 00-.528.773 1.576 1.576 0 00-.286 0 5.847 5.847 0 00-.528-.773 5.954 5.954 0 00-4.645-2.205c-3.27 0-5.921 2.6-5.921 5.808 0 2.7 1.878 4.97 4.422 5.62.109.028.218.052.329.074.087.36.309.67.61.875a5.835 5.835 0 00-.046.724c0 3.208 2.651 5.808 5.922 5.808 3.27 0 5.921-2.6 5.921-5.808a5.807 5.807 0 00-.045-.724c.301-.205.523-.514.61-.875.11-.022.22-.046.328-.074 2.545-.65 4.423-2.92 4.423-5.62 0-3.208-2.651-5.808-5.921-5.808-1.883 0-3.56.862-4.645 2.205z" class="stroke 2" clip-rule="evenodd"/>
        </g>
      </g>
      <g class="symbol_4">
        <g class="♣ clubs_2">
          <g class="fill_2">
            <path fill="#2C2C2C" d="M45.73 59.006a1.48 1.48 0 00-1.295-.773c-.821 0-1.486.678-1.486 1.515 0 .763.553 1.394 1.273 1.499.015.159.023.32.023.483 0 2.663-2.116 4.82-4.727 4.82-2.61 0-4.727-2.157-4.727-4.82 0-.163.008-.324.023-.483a1.506 1.506 0 001.273-1.5c0-.836-.665-1.514-1.485-1.514a1.48 1.48 0 00-1.296.773c-2.131-.467-3.729-2.4-3.729-4.712 0-2.662 2.117-4.82 4.728-4.82 1.757 0 3.291.977 4.107 2.432-.236.268-.38.622-.38 1.01 0 .838.666 1.516 1.486 1.516s1.486-.678 1.486-1.515c0-.389-.144-.743-.38-1.011.816-1.455 2.35-2.432 4.108-2.432 2.61 0 4.727 2.158 4.727 4.82 0 2.313-1.598 4.245-3.729 4.712z"/>
            <path fill="#2C2C2C" d="M44.434 59.059a.663.663 0 00-.37.113.688.688 0 00-.305.576c0 .23.11.433.28.558.112.082.248.13.395.13a.682.682 0 00.676-.688.69.69 0 00-.385-.622.661.661 0 00-.29-.067zM40.193 52.917a.68.68 0 00-.675-.688.68.68 0 00-.675.688.69.69 0 00.362.61.663.663 0 00.626 0 .69.69 0 00.362-.61zM34.602 59.059a.661.661 0 00-.29.067.69.69 0 00-.386.622c0 .38.303.688.676.688a.664.664 0 00.395-.13.692.692 0 00.22-.843.688.688 0 00-.245-.291.663.663 0 00-.37-.113z"/>
          </g>
          <path fill="#fff" fill-rule="evenodd" d="M38.86 50.62c.192.248.365.512.518.789a1.482 1.482 0 01.28 0c.153-.277.326-.541.518-.789a5.758 5.758 0 014.556-2.248c3.207 0 5.807 2.652 5.807 5.922 0 2.753-1.842 5.067-4.337 5.73a5.552 5.552 0 01-.322.076 1.517 1.517 0 01-.599.892 6.067 6.067 0 01.045.739c0 3.27-2.6 5.921-5.808 5.921-3.207 0-5.808-2.651-5.808-5.922a6.15 6.15 0 01.045-.738 1.517 1.517 0 01-.599-.892 5.552 5.552 0 01-.321-.076c-2.496-.663-4.338-2.977-4.338-5.73 0-3.27 2.6-5.922 5.808-5.922 1.846 0 3.491.879 4.555 2.248zm5.575 8.439a.663.663 0 00-.37.113.688.688 0 00-.306.576c0 .23.11.433.28.558.112.082.248.13.395.13a.682.682 0 00.676-.688.69.69 0 00-.385-.622.661.661 0 00-.29-.067zm-1.486.689c0 .763.553 1.394 1.273 1.499.015.159.023.32.023.483 0 2.663-2.116 4.82-4.727 4.82-2.61 0-4.727-2.157-4.727-4.82 0-.163.008-.324.023-.483a1.506 1.506 0 001.273-1.5c0-.836-.665-1.514-1.485-1.514a1.48 1.48 0 00-1.296.773c-2.131-.467-3.729-2.4-3.729-4.712 0-2.662 2.117-4.82 4.728-4.82 1.757 0 3.291.977 4.107 2.432-.236.268-.38.622-.38 1.01 0 .838.666 1.516 1.486 1.516s1.486-.678 1.486-1.515c0-.389-.144-.743-.38-1.011.816-1.455 2.35-2.432 4.108-2.432 2.61 0 4.727 2.158 4.727 4.82 0 2.313-1.598 4.245-3.729 4.712a1.48 1.48 0 00-1.295-.773c-.821 0-1.486.678-1.486 1.515zm-2.756-6.831a.68.68 0 00-.675-.688.68.68 0 00-.675.688.69.69 0 00.362.61.662.662 0 00.626 0 .69.69 0 00.362-.61zm-5.882 6.209a.661.661 0 01.66.046.688.688 0 01.306.576c0 .23-.11.433-.28.558a.664.664 0 01-.395.13.682.682 0 01-.676-.688.69.69 0 01.385-.622z" class="stroke_2" clip-rule="evenodd"/>
          <path fill="#2C2C2C" fill-rule="evenodd" d="M39.283 50.278c.082.105.16.212.235.322.075-.11.153-.217.235-.322 1.162-1.495 2.96-2.456 4.979-2.456 3.505 0 6.348 2.897 6.348 6.472 0 3.01-2.014 5.538-4.742 6.264l-.044.011a2.07 2.07 0 01-.447.659l.002.025c.011.158.017.317.017.477 0 3.575-2.842 6.473-6.348 6.473s-6.348-2.898-6.348-6.473c0-.16.006-.32.017-.477l.002-.025a2.07 2.07 0 01-.447-.659 4.703 4.703 0 01-.044-.012c-2.727-.725-4.741-3.253-4.741-6.263 0-3.575 2.842-6.472 6.348-6.472 2.018 0 3.817.96 4.978 2.456zm.893.342a5.959 5.959 0 00-.517.789 1.486 1.486 0 00-.281 0 6.015 6.015 0 00-.518-.789 5.758 5.758 0 00-4.555-2.248c-3.208 0-5.808 2.652-5.808 5.922 0 2.753 1.842 5.067 4.338 5.73.106.029.213.054.322.076.085.368.303.683.598.892a6.19 6.19 0 00-.045.739c0 3.27 2.6 5.921 5.808 5.921 3.208 0 5.808-2.651 5.808-5.922a6.15 6.15 0 00-.045-.738c.296-.209.513-.524.599-.892.108-.022.215-.047.322-.076 2.495-.663 4.337-2.977 4.337-5.73 0-3.27-2.6-5.922-5.807-5.922a5.758 5.758 0 00-4.556 2.248z" class="stroke 2_2" clip-rule="evenodd"/>
        </g>
      </g>
      <g class="symbol_5">
        <g class="♣ clubs_3">
          <g class="fill_3">
            <path fill="#2C2C2C" d="M55.147 87.325a1.52 1.52 0 00-1.322-.758c-.836 0-1.514.665-1.514 1.485 0 .749.564 1.368 1.298 1.47a4.7 4.7 0 01.024.475c0 2.611-2.158 4.727-4.82 4.727-2.662 0-4.82-2.116-4.82-4.727 0-.16.008-.318.024-.474a1.496 1.496 0 001.298-1.47c0-.821-.678-1.486-1.515-1.486a1.52 1.52 0 00-1.322.758c-2.172-.458-3.801-2.353-3.801-4.621 0-2.611 2.158-4.728 4.82-4.728 1.791 0 3.356.959 4.188 2.385-.24.263-.387.61-.387.992 0 .82.678 1.486 1.515 1.486.836 0 1.514-.665 1.514-1.486 0-.381-.146-.729-.386-.992a4.835 4.835 0 014.187-2.385c2.662 0 4.82 2.117 4.82 4.728 0 2.268-1.629 4.163-3.801 4.621z"/>
            <path fill="#2C2C2C" d="M53.825 87.377a.696.696 0 00-.627.396.663.663 0 00.225.827c.113.08.252.128.402.128.38 0 .689-.303.689-.676a.675.675 0 00-.392-.61.697.697 0 00-.297-.065zM49.501 81.353a.685.685 0 00-.688-.675.685.685 0 00-.689.675c0 .26.15.486.37.599a.696.696 0 00.638 0 .673.673 0 00.37-.599zM43.8 87.377a.697.697 0 00-.296.066.675.675 0 00-.393.61c0 .372.309.675.689.675.15 0 .29-.048.403-.128a.67.67 0 00.224-.827.683.683 0 00-.627-.396z"/>
          </g>
          <path fill="#fff" fill-rule="evenodd" d="M48.142 79.1c.196.243.372.502.527.774a1.58 1.58 0 01.287 0c.155-.272.332-.53.528-.773a5.954 5.954 0 014.644-2.205c3.27 0 5.922 2.6 5.922 5.808 0 2.7-1.878 4.969-4.423 5.62a6.024 6.024 0 01-.328.074c-.088.36-.31.67-.61.875a5.722 5.722 0 01.045.724c0 3.208-2.65 5.808-5.921 5.808-3.27 0-5.922-2.6-5.922-5.808a5.752 5.752 0 01.046-.724 1.487 1.487 0 01-.61-.875 6.024 6.024 0 01-.329-.074c-2.545-.651-4.423-2.92-4.423-5.62 0-3.208 2.651-5.808 5.922-5.808 1.883 0 3.56.861 4.645 2.205zm5.683 8.277a.696.696 0 00-.627.396.663.663 0 00.225.827c.113.08.252.128.402.128.38 0 .689-.303.689-.676a.675.675 0 00-.392-.61.697.697 0 00-.297-.065zm-1.514.675c0 .749.564 1.368 1.298 1.47a4.7 4.7 0 01.024.475c0 2.611-2.158 4.727-4.82 4.727-2.662 0-4.82-2.116-4.82-4.727 0-.16.008-.318.024-.474a1.496 1.496 0 001.298-1.47c0-.821-.678-1.486-1.515-1.486a1.52 1.52 0 00-1.322.758c-2.172-.458-3.801-2.353-3.801-4.621 0-2.611 2.158-4.728 4.82-4.728 1.791 0 3.356.959 4.188 2.385-.24.263-.387.61-.387.992 0 .82.678 1.486 1.515 1.486.836 0 1.514-.665 1.514-1.486 0-.381-.146-.729-.386-.992a4.835 4.835 0 014.187-2.385c2.662 0 4.82 2.117 4.82 4.728 0 2.268-1.629 4.163-3.801 4.621a1.52 1.52 0 00-1.322-.758c-.836 0-1.514.665-1.514 1.485zm-2.81-6.699a.685.685 0 00-.689-.675.685.685 0 00-.688.675c0 .26.15.486.37.599a.696.696 0 00.638 0 .673.673 0 00.37-.599zm-5.997 6.09a.697.697 0 01.923.33.67.67 0 01-.225.827.695.695 0 01-.402.128.682.682 0 01-.689-.676c0-.269.16-.5.393-.61z" class="stroke_3" clip-rule="evenodd"/>
          <path fill="#2C2C2C" fill-rule="evenodd" d="M48.573 78.765c.083.103.163.208.24.316a6.508 6.508 0 015.316-2.725c3.574 0 6.472 2.842 6.472 6.348 0 2.951-2.053 5.431-4.835 6.143a3.69 3.69 0 01-.045.011 2.029 2.029 0 01-.455.646l.002.025c.011.154.017.31.017.468 0 3.506-2.898 6.348-6.472 6.348-3.575 0-6.473-2.842-6.473-6.348 0-.157.006-.314.017-.468l.002-.025a2.029 2.029 0 01-.455-.646 3.69 3.69 0 01-.045-.011c-2.781-.712-4.835-3.192-4.835-6.143 0-3.506 2.898-6.348 6.473-6.348 2.058 0 3.892.942 5.076 2.41zm.91.336a5.819 5.819 0 00-.527.773 1.58 1.58 0 00-.287 0 5.732 5.732 0 00-.527-.773 5.954 5.954 0 00-4.645-2.205c-3.27 0-5.922 2.6-5.922 5.808 0 2.7 1.878 4.969 4.423 5.62.108.028.218.052.328.074.088.36.31.67.61.875a5.835 5.835 0 00-.045.724c0 3.208 2.651 5.808 5.922 5.808 3.27 0 5.921-2.6 5.921-5.808a5.807 5.807 0 00-.045-.724c.3-.205.522-.514.61-.875.11-.022.22-.046.328-.074 2.545-.651 4.423-2.92 4.423-5.62 0-3.208-2.651-5.808-5.922-5.808-1.882 0-3.56.861-4.644 2.205z" class="stroke 2_3" clip-rule="evenodd"/>
        </g>
      </g>
      <g class="symbol_6">
        <g class="♣ clubs_4">
          <g class="fill_4">
            <path fill="#2C2C2C" d="M31.675 43.069a1.48 1.48 0 01-1.296.773c-.82 0-1.485-.678-1.485-1.514 0-.764.553-1.395 1.273-1.5.015-.159.023-.32.023-.483 0-2.662-2.116-4.82-4.727-4.82-2.61 0-4.727 2.158-4.727 4.82 0 .163.008.324.023.483.72.105 1.273.736 1.273 1.5 0 .836-.665 1.514-1.485 1.514a1.48 1.48 0 01-1.297-.773c-2.13.467-3.728 2.4-3.728 4.712 0 2.662 2.117 4.82 4.727 4.82 1.757 0 3.292-.977 4.108-2.432a1.526 1.526 0 01-.38-1.01c0-.837.665-1.516 1.486-1.516.82 0 1.486.678 1.486 1.515 0 .389-.144.743-.38 1.011.816 1.455 2.35 2.432 4.107 2.432 2.611 0 4.728-2.158 4.728-4.82 0-2.312-1.598-4.245-3.729-4.712z"/>
            <path fill="#2C2C2C" d="M30.38 43.016a.663.663 0 01-.37-.112.687.687 0 01-.306-.576c0-.23.11-.434.28-.559a.663.663 0 01.395-.13c.373 0 .676.308.676.689a.69.69 0 01-.385.621.661.661 0 01-.29.067zM26.138 49.158a.68.68 0 01-.675.688.68.68 0 01-.675-.688.69.69 0 01.362-.61.662.662 0 01.626 0 .69.69 0 01.362.61zM20.547 43.016a.662.662 0 01-.291-.067.69.69 0 01-.385-.621c0-.38.303-.689.676-.689.147 0 .283.048.395.13a.692.692 0 01.22.843.688.688 0 01-.245.292.663.663 0 01-.37.112z"/>
          </g>
          <path fill="#fff" fill-rule="evenodd" d="M24.805 51.455a5.94 5.94 0 00.517-.789 1.482 1.482 0 00.282 0c.152.278.325.541.517.789a5.758 5.758 0 004.555 2.248c3.208 0 5.808-2.652 5.808-5.922 0-2.753-1.842-5.067-4.338-5.73a5.652 5.652 0 00-.321-.076 1.518 1.518 0 00-.599-.892 5.933 5.933 0 00.045-.738c0-3.27-2.6-5.922-5.808-5.922-3.208 0-5.808 2.651-5.808 5.922a6.095 6.095 0 00.045.738c-.296.209-.513.525-.599.892a5.636 5.636 0 00-.322.076c-2.495.663-4.337 2.977-4.337 5.73 0 3.27 2.6 5.922 5.807 5.922a5.758 5.758 0 004.556-2.248zm5.574-8.439a.663.663 0 01-.37-.112.687.687 0 01-.305-.576c0-.23.11-.434.28-.559a.663.663 0 01.395-.13c.373 0 .676.308.676.689a.69.69 0 01-.385.621.661.661 0 01-.29.067zm-1.485-.688c0-.764.553-1.395 1.273-1.5.015-.159.023-.32.023-.483 0-2.662-2.116-4.82-4.727-4.82-2.61 0-4.727 2.158-4.727 4.82 0 .163.008.324.023.483.72.105 1.273.736 1.273 1.5 0 .836-.665 1.514-1.485 1.514a1.48 1.48 0 01-1.297-.773c-2.13.467-3.728 2.4-3.728 4.712 0 2.662 2.117 4.82 4.727 4.82 1.757 0 3.292-.977 4.108-2.432a1.526 1.526 0 01-.38-1.01c0-.837.665-1.516 1.486-1.516.82 0 1.486.678 1.486 1.515 0 .389-.144.743-.38 1.011.816 1.455 2.35 2.432 4.107 2.432 2.611 0 4.728-2.158 4.728-4.82 0-2.312-1.598-4.245-3.729-4.712a1.48 1.48 0 01-1.296.773c-.82 0-1.485-.678-1.485-1.514zm-2.756 6.83a.68.68 0 01-.675.688.68.68 0 01-.675-.688.69.69 0 01.362-.61.662.662 0 01.626 0 .69.69 0 01.362.61zm-5.882-6.209a.662.662 0 00.66-.045.687.687 0 00.306-.576c0-.23-.11-.434-.28-.559a.664.664 0 00-.395-.13.682.682 0 00-.676.689.69.69 0 00.385.621z" class="stroke_4" clip-rule="evenodd"/>
          <path fill="#2C2C2C" fill-rule="evenodd" d="M25.228 51.797c.082-.105.16-.212.235-.322.075.11.153.217.235.322 1.162 1.495 2.96 2.457 4.978 2.457 3.506 0 6.349-2.898 6.349-6.473 0-3.01-2.014-5.538-4.742-6.263a7.155 7.155 0 00-.044-.012 2.07 2.07 0 00-.447-.659l.002-.025c.011-.158.017-.317.017-.477 0-3.575-2.842-6.473-6.348-6.473s-6.348 2.898-6.348 6.473c0 .16.006.32.017.477l.002.025c-.188.186-.34.41-.447.66l-.044.01c-2.728.726-4.742 3.255-4.742 6.264 0 3.575 2.843 6.473 6.348 6.473 2.019 0 3.817-.962 4.98-2.457zm.893-.342a5.918 5.918 0 01-.517-.789 1.486 1.486 0 01-.282 0 6.013 6.013 0 01-.517.789 5.757 5.757 0 01-4.556 2.248c-3.207 0-5.807-2.652-5.807-5.922 0-2.753 1.842-5.067 4.337-5.73.107-.029.214-.054.322-.076.086-.367.303-.683.599-.892a6.051 6.051 0 01-.045-.738c0-3.27 2.6-5.922 5.808-5.922 3.207 0 5.808 2.651 5.808 5.922a6.095 6.095 0 01-.045.738c.295.209.513.525.599.892.108.022.215.047.321.076 2.496.663 4.338 2.977 4.338 5.73 0 3.27-2.6 5.922-5.808 5.922a5.757 5.757 0 01-4.555-2.248z" class="stroke 2_4" clip-rule="evenodd"/>
        </g>
      </g>
      <g class="symbol_7">
        <g class="♣ clubs_5">
          <g class="fill_5">
            <path fill="#2C2C2C" d="M31.675 19.039a1.48 1.48 0 01-1.296.774c-.82 0-1.485-.679-1.485-1.515 0-.763.553-1.395 1.273-1.5a5.01 5.01 0 00.023-.483c0-2.662-2.116-4.82-4.727-4.82-2.61 0-4.727 2.158-4.727 4.82 0 .163.008.324.023.483.72.105 1.273.737 1.273 1.5 0 .836-.665 1.515-1.485 1.515a1.481 1.481 0 01-1.297-.774c-2.13.467-3.728 2.4-3.728 4.712 0 2.662 2.117 4.82 4.727 4.82 1.757 0 3.292-.977 4.108-2.431a1.526 1.526 0 01-.38-1.012c0-.836.665-1.515 1.486-1.515.82 0 1.486.679 1.486 1.515 0 .389-.144.743-.38 1.012.816 1.454 2.35 2.431 4.107 2.431 2.611 0 4.728-2.158 4.728-4.82 0-2.312-1.598-4.245-3.729-4.712z"/>
            <path fill="#2C2C2C" d="M30.38 18.986a.663.663 0 01-.37-.112.688.688 0 01-.306-.576c0-.23.11-.434.28-.559a.663.663 0 01.395-.13c.373 0 .676.308.676.689a.69.69 0 01-.385.622.663.663 0 01-.29.066zM26.138 25.128a.68.68 0 01-.675.689.68.68 0 01-.675-.689.69.69 0 01.362-.61.661.661 0 01.626 0 .69.69 0 01.362.61zM20.547 18.986a.663.663 0 01-.291-.067.69.69 0 01-.385-.621c0-.38.303-.689.676-.689.147 0 .283.048.395.13a.692.692 0 01.22.843.689.689 0 01-.245.292.663.663 0 01-.37.112z"/>
          </g>
          <path fill="#fff" fill-rule="evenodd" d="M24.805 27.425c.192-.248.365-.511.517-.788a1.482 1.482 0 00.282 0c.152.277.325.54.517.788a5.758 5.758 0 004.555 2.248c3.208 0 5.808-2.651 5.808-5.922 0-2.753-1.842-5.067-4.338-5.73a5.739 5.739 0 00-.321-.076 1.518 1.518 0 00-.599-.892 5.933 5.933 0 00.045-.738c0-3.27-2.6-5.922-5.808-5.922-3.208 0-5.808 2.651-5.808 5.922a6.095 6.095 0 00.045.738c-.296.209-.513.525-.599.892a5.722 5.722 0 00-.322.076c-2.495.663-4.337 2.977-4.337 5.73 0 3.27 2.6 5.922 5.807 5.922a5.758 5.758 0 004.556-2.248zm5.574-8.439a.663.663 0 01-.37-.112.688.688 0 01-.305-.576c0-.23.11-.434.28-.559a.663.663 0 01.395-.13c.373 0 .676.308.676.689a.69.69 0 01-.385.622.663.663 0 01-.29.066zm-1.485-.688c0-.763.553-1.395 1.273-1.5a4.98 4.98 0 00.023-.483c0-2.662-2.116-4.82-4.727-4.82-2.61 0-4.727 2.158-4.727 4.82 0 .163.008.324.023.483.72.105 1.273.737 1.273 1.5 0 .836-.665 1.515-1.485 1.515a1.481 1.481 0 01-1.297-.774c-2.13.467-3.728 2.4-3.728 4.712 0 2.662 2.117 4.82 4.727 4.82 1.757 0 3.292-.977 4.108-2.431a1.526 1.526 0 01-.38-1.012c0-.836.665-1.515 1.486-1.515.82 0 1.486.679 1.486 1.515 0 .389-.144.743-.38 1.012.816 1.454 2.35 2.431 4.107 2.431 2.611 0 4.728-2.158 4.728-4.82 0-2.312-1.598-4.245-3.729-4.712a1.48 1.48 0 01-1.296.774c-.82 0-1.485-.679-1.485-1.515zm-2.756 6.83a.68.68 0 01-.675.689.68.68 0 01-.675-.689.69.69 0 01.362-.61.661.661 0 01.626 0 .69.69 0 01.362.61zm-5.882-6.209a.663.663 0 00.66-.045.687.687 0 00.306-.576c0-.23-.11-.434-.28-.559a.663.663 0 00-.395-.13.682.682 0 00-.676.689.69.69 0 00.385.622z" class="stroke_5" clip-rule="evenodd"/>
          <path fill="#2C2C2C" fill-rule="evenodd" d="M25.228 27.767c.082-.105.16-.212.235-.322.075.11.153.217.235.322 1.162 1.496 2.96 2.457 4.978 2.457 3.506 0 6.349-2.898 6.349-6.473 0-3.01-2.014-5.538-4.742-6.263a7.167 7.167 0 00-.044-.012 2.071 2.071 0 00-.447-.659l.002-.025c.011-.157.017-.317.017-.477 0-3.575-2.842-6.473-6.348-6.473s-6.348 2.898-6.348 6.473a6.687 6.687 0 00.019.502 2.07 2.07 0 00-.447.66l-.044.01c-2.728.726-4.742 3.255-4.742 6.264 0 3.575 2.843 6.473 6.348 6.473 2.019 0 3.817-.961 4.98-2.457zm.893-.342a5.916 5.916 0 01-.343-.49l-.036-.06a5.893 5.893 0 01-.139-.238 1.486 1.486 0 01-.28 0 6.013 6.013 0 01-.518.788 5.757 5.757 0 01-4.556 2.248c-3.207 0-5.807-2.651-5.807-5.922 0-2.753 1.842-5.067 4.337-5.73.107-.028.214-.054.322-.076.086-.367.303-.683.599-.892a6.051 6.051 0 01-.045-.738c0-3.27 2.6-5.922 5.808-5.922 3.207 0 5.808 2.651 5.808 5.922a6.095 6.095 0 01-.045.738c.295.209.513.525.599.892.108.022.215.048.321.076 2.496.663 4.338 2.977 4.338 5.73 0 3.27-2.6 5.922-5.808 5.922a5.757 5.757 0 01-4.555-2.248z" class="stroke 2_5" clip-rule="evenodd"/>
        </g>
      </g>
      <g class="symbol_8">
        <g class="♣ clubs_6">
          <g class="fill_6">
            <path fill="#2C2C2C" d="M55.147 64.447a1.515 1.515 0 10-1.538 2.24 4.82 4.82 0 11-9.592 0 1.515 1.515 0 10-1.539-2.24 4.82 4.82 0 115.206-7.1 1.515 1.515 0 102.256 0 4.82 4.82 0 115.206 7.1z"/>
            <path fill="#2C2C2C" d="M53.825 64.5a.686.686 0 00-.688.688.688.688 0 10.688-.688zM49.501 58.358a.689.689 0 10-.37.61.688.688 0 00.37-.61zM43.8 64.5a.686.686 0 00-.689.688.689.689 0 10.689-.688z"/>
          </g>
          <path fill="#fff" fill-rule="evenodd" d="M48.142 56.061c.196.248.372.511.527.788a1.544 1.544 0 01.287 0 5.932 5.932 0 015.172-3.036A5.922 5.922 0 0155.3 65.541c-.088.367-.31.683-.61.892a5.933 5.933 0 01.045.738 5.922 5.922 0 11-11.797-.738 1.517 1.517 0 01-.61-.892 5.924 5.924 0 01-4.751-5.806 5.922 5.922 0 0110.566-3.674zm5.683 8.439a.686.686 0 00-.688.688.688.688 0 10.688-.688zm-1.514.688c0 .763.564 1.395 1.298 1.5a4.82 4.82 0 11-9.592 0 1.515 1.515 0 10-1.539-2.24 4.82 4.82 0 115.206-7.1 1.515 1.515 0 102.256 0 4.82 4.82 0 115.206 7.1 1.515 1.515 0 00-2.835.74zm-2.81-6.83a.689.689 0 10-.37.61.688.688 0 00.37-.61zm-5.997 6.209a.686.686 0 01.923.337.686.686 0 01-.224.843.689.689 0 11-.699-1.18z" class="stroke_6" clip-rule="evenodd"/>
          <path fill="#2C2C2C" fill-rule="evenodd" d="M48.573 55.719c.083.105.163.212.24.322a6.462 6.462 0 015.316-2.779A6.473 6.473 0 0155.72 66.01a2.07 2.07 0 01-.455.659l.002.025a6.473 6.473 0 11-12.908-.025 2.07 2.07 0 01-.456-.66 6.475 6.475 0 01-4.88-6.275 6.473 6.473 0 0111.55-4.015zm.91.342a5.937 5.937 0 00-.527.788 1.544 1.544 0 00-.287 0 5.832 5.832 0 00-.527-.788 5.922 5.922 0 10-5.815 9.48c.087.367.309.683.61.892a6.051 6.051 0 00-.046.738 5.922 5.922 0 1011.798-.738c.3-.209.522-.525.61-.892a5.924 5.924 0 004.751-5.806 5.922 5.922 0 00-10.566-3.674z" class="stroke 2_6" clip-rule="evenodd"/>
        </g>
      </g>
      <g class="symbol_9">
        <g class="♣ clubs_7">
          <g class="fill_7">
            <path fill="#2C2C2C" d="M31.57 63.994a1.515 1.515 0 10-1.538 2.24 4.82 4.82 0 11-9.592 0 1.515 1.515 0 10-1.538-2.24 4.82 4.82 0 115.206-7.1 1.515 1.515 0 102.256 0 4.82 4.82 0 115.206 7.1z"/>
            <path fill="#2C2C2C" d="M30.249 64.046a.686.686 0 00-.688.689.688.688 0 10.688-.689zM25.925 57.904a.689.689 0 10-1.377 0 .689.689 0 001.377 0zM20.224 64.046a.686.686 0 00-.69.689.689.689 0 10.69-.689z"/>
          </g>
          <path fill="#fff" fill-rule="evenodd" d="M24.565 55.608c.196.247.373.51.528.788a1.544 1.544 0 01.287 0 5.932 5.932 0 015.172-3.036 5.922 5.922 0 011.17 11.727c-.087.368-.309.684-.61.893a6.051 6.051 0 01.046.738 5.922 5.922 0 11-11.798-.738 1.517 1.517 0 01-.61-.893 5.924 5.924 0 01-4.751-5.806 5.922 5.922 0 0110.566-3.673zm5.684 8.438a.686.686 0 00-.689.689.688.688 0 10.689-.689zm-1.515.689c0 .763.564 1.394 1.298 1.5a4.82 4.82 0 11-9.592 0 1.515 1.515 0 10-1.538-2.241 4.82 4.82 0 115.206-7.1 1.515 1.515 0 102.256 0 4.82 4.82 0 115.206 7.1 1.515 1.515 0 00-2.836.74zm-2.81-6.83a.689.689 0 10-.37.61.688.688 0 00.37-.61zm-5.997 6.208a.686.686 0 01.924.337.687.687 0 01-.627.973.689.689 0 01-.297-1.31z" class="stroke_7" clip-rule="evenodd"/>
          <path fill="#2C2C2C" fill-rule="evenodd" d="M24.997 55.266c.083.104.163.212.24.322a6.462 6.462 0 015.316-2.779 6.472 6.472 0 011.637 12.736l-.045.011c-.108.25-.264.473-.456.66l.002.024a6.473 6.473 0 11-12.91 0l.002-.025a2.068 2.068 0 01-.455-.659 6.475 6.475 0 01-4.88-6.275 6.473 6.473 0 0111.549-4.015zm.91.342a5.96 5.96 0 00-.527.788 1.544 1.544 0 00-.287 0 5.95 5.95 0 00-.528-.788 5.922 5.922 0 10-5.815 9.48c.087.367.31.683.61.892a5.933 5.933 0 00-.045.738 5.922 5.922 0 1011.797-.738c.301-.21.523-.525.61-.893a5.924 5.924 0 004.751-5.806 5.922 5.922 0 00-10.566-3.673z" class="stroke 2_7" clip-rule="evenodd"/>
        </g>
      </g>
      <g class="symbol_10">
        <g class="♣ clubs_8">
          <g class="fill_8">
            <path fill="#2C2C2C" d="M55.147 19.039a1.515 1.515 0 11-1.538-2.24 4.82 4.82 0 10-9.592 0 1.515 1.515 0 11-1.539 2.24 4.82 4.82 0 105.206 7.1 1.515 1.515 0 112.256 0 4.82 4.82 0 105.206-7.1z"/>
            <path fill="#2C2C2C" d="M53.825 18.986a.685.685 0 01-.688-.688.688.688 0 11.688.688zM49.501 25.128a.689.689 0 11-.37-.61c.22.115.37.345.37.61zM43.8 18.986a.686.686 0 01-.689-.688.689.689 0 11.689.688z"/>
          </g>
          <path fill="#fff" fill-rule="evenodd" d="M48.142 27.425c.196-.248.372-.511.527-.788a1.544 1.544 0 00.287 0 5.91 5.91 0 005.172 3.036A5.922 5.922 0 0055.3 17.945a1.516 1.516 0 00-.61-.892 5.933 5.933 0 00.045-.738 5.922 5.922 0 10-11.797.738c-.301.209-.523.525-.61.892a5.924 5.924 0 00-4.751 5.806 5.922 5.922 0 0010.566 3.674zm5.683-8.439a.685.685 0 01-.627-.404.687.687 0 01.627-.973.689.689 0 110 1.377zm-1.514-.688c0-.763.564-1.395 1.298-1.5a4.82 4.82 0 10-9.592 0 1.515 1.515 0 11-1.539 2.24 4.82 4.82 0 105.206 7.1 1.515 1.515 0 112.256 0 4.82 4.82 0 105.206-7.1 1.515 1.515 0 01-2.835-.74zm-2.81 6.83a.689.689 0 11-.37-.61c.22.115.37.345.37.61zm-5.997-6.209a.686.686 0 00.923-.337.686.686 0 00-.224-.843.689.689 0 10-.699 1.18z" class="stroke_8" clip-rule="evenodd"/>
          <path fill="#2C2C2C" fill-rule="evenodd" d="M48.573 27.767c.083-.105.163-.212.24-.322a6.462 6.462 0 005.316 2.779 6.473 6.473 0 001.637-12.736l-.045-.012a2.07 2.07 0 00-.455-.659l.002-.025a6.473 6.473 0 10-12.908.025 2.07 2.07 0 00-.456.66l-.045.01a6.473 6.473 0 106.714 10.28zm.91-.342a5.919 5.919 0 01-.527-.788 1.544 1.544 0 01-.287 0 5.832 5.832 0 01-.527.788 5.922 5.922 0 11-5.815-9.48c.087-.367.309-.683.61-.892a6.051 6.051 0 01-.046-.738 5.922 5.922 0 1111.798.738c.3.209.522.525.61.892a5.924 5.924 0 014.751 5.806 5.922 5.922 0 01-10.566 3.674z" class="stroke 2_8" clip-rule="evenodd"/>
        </g>
      </g>
      <g class="symbol_11">
        <g class="♣ clubs_9">
          <g class="fill_9">
            <path fill="#2C2C2C" d="M55.147 42.407a1.52 1.52 0 01-1.322.759c-.836 0-1.514-.666-1.514-1.486 0-.748.564-1.368 1.298-1.47.015-.157.024-.315.024-.475 0-2.61-2.158-4.727-4.82-4.727-2.662 0-4.82 2.116-4.82 4.727 0 .16.008.319.024.474a1.496 1.496 0 011.298 1.47c0 .821-.678 1.487-1.515 1.487a1.52 1.52 0 01-1.322-.76c-2.172.459-3.801 2.355-3.801 4.622 0 2.611 2.158 4.728 4.82 4.728a4.835 4.835 0 004.188-2.385 1.464 1.464 0 01-.387-.992c0-.82.678-1.486 1.515-1.486.836 0 1.514.666 1.514 1.486 0 .381-.146.729-.386.992a4.835 4.835 0 004.187 2.385c2.662 0 4.82-2.117 4.82-4.728 0-2.267-1.629-4.163-3.801-4.621z"/>
            <path fill="#2C2C2C" d="M53.825 42.355a.695.695 0 01-.627-.396.663.663 0 01.225-.827.694.694 0 01.402-.127c.38 0 .689.302.689.675 0 .269-.16.501-.392.61a.696.696 0 01-.297.065zM49.501 48.38a.685.685 0 01-.688.675.685.685 0 01-.689-.676c0-.26.15-.485.37-.598a.696.696 0 01.638 0c.22.113.37.338.37.598zM43.8 42.355a.696.696 0 01-.296-.065.674.674 0 01-.393-.61c0-.373.309-.675.689-.675.15 0 .29.047.403.127a.67.67 0 01-.026 1.113.695.695 0 01-.377.11z"/>
          </g>
          <path fill="#fff" fill-rule="evenodd" d="M48.142 50.632a5.8 5.8 0 00.527-.774 1.544 1.544 0 00.287 0 5.8 5.8 0 00.528.774 5.954 5.954 0 004.644 2.204c3.27 0 5.922-2.6 5.922-5.808 0-2.7-1.878-4.969-4.423-5.62a5.932 5.932 0 00-.328-.074c-.088-.36-.31-.67-.61-.875a5.718 5.718 0 00.045-.724c0-3.208-2.65-5.808-5.921-5.808-3.27 0-5.922 2.6-5.922 5.808a5.756 5.756 0 00.046.724 1.487 1.487 0 00-.61.875c-.111.022-.22.047-.329.074-2.545.651-4.423 2.92-4.423 5.62 0 3.208 2.651 5.808 5.922 5.808 1.883 0 3.56-.861 4.645-2.204zm5.683-8.277a.695.695 0 01-.627-.396.663.663 0 01.225-.827.694.694 0 01.402-.127c.38 0 .689.302.689.675 0 .269-.16.501-.392.61a.696.696 0 01-.297.065zm-1.514-.675c0-.748.564-1.368 1.298-1.47.015-.157.024-.315.024-.475 0-2.61-2.158-4.727-4.82-4.727-2.662 0-4.82 2.116-4.82 4.727 0 .16.008.319.024.474a1.496 1.496 0 011.298 1.47c0 .821-.678 1.487-1.515 1.487a1.52 1.52 0 01-1.322-.76c-2.172.459-3.801 2.355-3.801 4.622 0 2.611 2.158 4.728 4.82 4.728a4.835 4.835 0 004.188-2.385 1.464 1.464 0 01-.387-.992c0-.82.678-1.486 1.515-1.486.836 0 1.514.666 1.514 1.486 0 .381-.146.729-.386.992a4.835 4.835 0 004.187 2.385c2.662 0 4.82-2.117 4.82-4.728 0-2.267-1.629-4.163-3.801-4.621a1.52 1.52 0 01-1.322.759c-.836 0-1.514-.666-1.514-1.486zm-2.81 6.7a.685.685 0 01-.689.675.685.685 0 01-.688-.676c0-.26.15-.485.37-.598a.696.696 0 01.638 0c.22.113.37.338.37.598zm-5.997-6.09a.696.696 0 00.923-.331.67.67 0 00-.225-.827.694.694 0 00-.402-.128.682.682 0 00-.689.676c0 .269.16.501.393.61z" class="stroke_9" clip-rule="evenodd"/>
          <path fill="#2C2C2C" fill-rule="evenodd" d="M48.573 50.967a6.45 6.45 0 00.24-.316 6.508 6.508 0 005.316 2.725c3.574 0 6.472-2.842 6.472-6.348 0-2.951-2.053-5.431-4.835-6.142l-.045-.012a2.03 2.03 0 00-.455-.646l.002-.025c.011-.154.017-.31.017-.468 0-3.506-2.898-6.348-6.472-6.348-3.575 0-6.473 2.842-6.473 6.348 0 .157.006.314.017.468l.002.025a2.03 2.03 0 00-.455.646l-.045.011c-2.781.712-4.835 3.192-4.835 6.143 0 3.506 2.898 6.349 6.473 6.349a6.508 6.508 0 005.076-2.41zm.91-.335a5.802 5.802 0 01-.527-.774 1.544 1.544 0 01-.287 0 5.669 5.669 0 01-.527.774 5.954 5.954 0 01-4.645 2.204c-3.27 0-5.922-2.6-5.922-5.808 0-2.7 1.878-4.969 4.423-5.62.108-.027.218-.052.328-.074.088-.36.31-.67.61-.875a5.831 5.831 0 01-.045-.724c0-3.208 2.651-5.808 5.922-5.808 3.27 0 5.921 2.6 5.921 5.808a5.81 5.81 0 01-.045.724c.3.205.522.515.61.875.11.022.22.047.328.074 2.545.651 4.423 2.92 4.423 5.62 0 3.208-2.651 5.808-5.922 5.808a5.954 5.954 0 01-4.644-2.204z" class="stroke 2_9" clip-rule="evenodd"/>
        </g>
      </g>
    </g>
  </g>
</svg>
