<svg xmlns="http://www.w3.org/2000/svg" width="80" height="112" fill="none" viewBox="0 0 80 112">
  <g class="nine_spades">
    <rect width="74.81" height="104.734" x=".3" y=".422" fill="#fff" rx="3.62"/>
    <rect width="78.991" height="110.588" x=".3" y=".422" fill="#fff" class="bg" rx="3.62"/>
    <g class="down">
      <g class="letter">
        <path fill="#222" d="M61.508 98.94c0 1.535.463 2.736 1.406 3.587.926.851 2.117 1.268 3.573 1.268 1.356 0 2.514-.417 3.507-1.268.992-.851 1.488-2.269 1.488-4.288v-4.556c0-1.952-.48-3.387-1.422-4.338-.943-.934-2.217-1.418-3.805-1.418-1.786 0-3.242.7-4.383 2.119l1.82.918c.562-.985 1.405-1.469 2.547-1.469.942 0 1.687.3 2.216.885.53.584.81 1.685.81 3.27v2.153c-.744-1.135-1.902-1.702-3.44-1.702-1.29 0-2.332.417-3.126 1.234-.794.818-1.191 2.02-1.191 3.605zm2.233.016c0-1.268.231-2.135.695-2.586.463-.45 1.058-.684 1.803-.684 1.588 0 2.613.8 3.043 2.386 0 1.769-.264 2.903-.794 3.404-.53.501-1.19.751-1.985.751-.76 0-1.406-.25-1.952-.751s-.81-1.352-.81-2.52z" class="Vector"/>
      </g>
      <g class="symbol">
        <path fill="#2C2C2C" d="M67.82 80.912c.707-.863.875-2.068.1-2.857-.839-.852-2.115-.605-2.889.182-.774-.787-2.05-1.034-2.888-.181-.775.788-.608 1.993.1 2.856.763.932 1.808 1.733 2.788 2.427.98-.694 2.026-1.495 2.79-2.427z" class="â spades"/>
      </g>
    </g>
    <g class="up">
      <g class="letter_2">
        <path fill="#222" d="M4.834 8.905c0-1.536.463-2.737 1.406-3.588.926-.851 2.117-1.268 3.573-1.268 1.356 0 2.514.417 3.506 1.268.993.851 1.49 2.27 1.49 4.288v4.556c0 1.952-.48 3.387-1.423 4.338-.943.935-2.217 1.419-3.805 1.419-1.786 0-3.242-.701-4.383-2.12l1.82-.917c.562.984 1.405 1.468 2.547 1.468.942 0 1.687-.3 2.216-.884.53-.584.81-1.686.81-3.27v-2.153c-.744 1.134-1.902 1.702-3.44 1.702-1.29 0-2.332-.417-3.126-1.235-.794-.818-1.191-2.02-1.191-3.604zm2.233-.017c0 1.268.231 2.136.694 2.586.464.45 1.06.684 1.804.684 1.588 0 2.613-.8 3.043-2.386 0-1.768-.264-2.903-.794-3.404-.53-.5-1.19-.75-1.985-.75-.76 0-1.406.25-1.952.75s-.81 1.352-.81 2.52z" class="Vector_2"/>
      </g>
      <g class="symbol_2">
        <path fill="#2C2C2C" d="M7.69 24.625c-.707.863-.875 2.068-.1 2.857.839.852 2.115.605 2.889-.182.774.787 2.05 1.034 2.888.182.775-.79.608-1.994-.1-2.857-.763-.932-1.808-1.733-2.788-2.427-.98.694-2.026 1.495-2.79 2.427z" class="â spades_2"/>
      </g>
    </g>
    <g class="icons">
      <g class="symbol_3">
        <g class="â spades_3">
          <g class="fill">
            <path fill="#2C2C2C" d="M18.457 61.974c1.677 2.043 3.91 3.828 6.083 5.4a1.34 1.34 0 011.491 0c2.174-1.571 4.406-3.357 6.083-5.4.41-.5.746-1.046.995-1.615a1.347 1.347 0 01.498-2.377c-.024-1.088-.412-2.137-1.25-2.988-1.63-1.655-3.936-1.614-5.766-.564a1.349 1.349 0 01-1.305 1.677 1.346 1.346 0 01-1.306-1.677c-1.83-1.05-4.135-1.09-5.765.564-.839.851-1.227 1.9-1.25 2.988a1.347 1.347 0 01.498 2.377c.248.569.584 1.115.994 1.615z"/>
            <path fill="#2C2C2C" d="M24.674 54.76a.613.613 0 101.226.002.613.613 0 00-1.226-.001zM25.253 67.883a.612.612 0 10.065 0M17.015 58.803a.614.614 0 01.241.487.612.612 0 11-.241-.487zM33.39 59.583a.61.61 0 01.167-.78.612.612 0 11-.167.78z"/>
          </g>
          <path fill="#fff" fill-rule="evenodd" d="M34.588 58.117c.013-1.358-.442-2.703-1.534-3.812-2.058-2.088-4.889-1.936-7.032-.672a1.34 1.34 0 00-1.472 0c-2.143-1.264-4.975-1.416-7.032.672-1.092 1.109-1.547 2.454-1.535 3.812a1.346 1.346 0 00.535 2.514 7.888 7.888 0 001.183 1.966c1.76 2.143 4.079 3.992 6.276 5.579a1.346 1.346 0 102.617 0c2.197-1.587 4.517-3.435 6.276-5.58a7.888 7.888 0 001.183-1.965 1.347 1.347 0 00.535-2.514zm-16.13 3.857c1.676 2.043 3.908 3.828 6.082 5.4a1.34 1.34 0 011.491 0c2.174-1.571 4.406-3.356 6.083-5.4a6.896 6.896 0 00.995-1.615 1.348 1.348 0 01.497-2.377 4.285 4.285 0 00-1.25-2.988 4.562 4.562 0 00-.64-.542c-1.174-.819-2.579-.938-3.884-.554a5.75 5.75 0 00-1.24.532l.01.045a1.35 1.35 0 01-1.316 1.632 1.343 1.343 0 01-1.347-1.346c0-.114.014-.225.041-.33-1.83-1.051-4.135-1.092-5.765.563-.839.851-1.227 1.9-1.25 2.988a1.34 1.34 0 01.848.639 1.344 1.344 0 01-.35 1.738c.248.569.584 1.115.994 1.615zm6.216-7.213a.614.614 0 00.612.612.612.612 0 10-.612-.612zm0 13.734c0-.328.256-.595.58-.612h.064a.612.612 0 11-.645.612zm-7.66-9.692a.614.614 0 01.242.487.612.612 0 11-.241-.487zm16.302.507a.612.612 0 101.223-.039.612.612 0 00-1.223.039z" class="stroke" clip-rule="evenodd"/>
          <path fill="#2C2C2C" fill-rule="evenodd" d="M33.249 62.907c-1.737 2.116-3.994 3.938-6.13 5.493.002.032.002.063.002.095a1.836 1.836 0 11-3.67-.095c-2.135-1.556-4.392-3.377-6.128-5.493a8.397 8.397 0 01-1.15-1.842 1.837 1.837 0 01-.676-3.209 5.71 5.71 0 011.672-3.894c2.179-2.212 5.136-2.105 7.388-.887a1.832 1.832 0 011.457 0c2.253-1.218 5.21-1.325 7.388.887a5.71 5.71 0 011.672 3.894 1.836 1.836 0 01-.677 3.209c-.3.66-.69 1.284-1.148 1.843zm.804-2.276a7.904 7.904 0 01-1.183 1.966c-1.76 2.144-4.079 3.992-6.276 5.58a1.346 1.346 0 11-2.617 0c-2.197-1.588-4.517-3.437-6.276-5.58a7.905 7.905 0 01-1.183-1.966 1.347 1.347 0 01-.535-2.514c0-.08 0-.159.003-.238a5.222 5.222 0 011.532-3.574c2.057-2.088 4.889-1.936 7.032-.672a1.34 1.34 0 011.472 0c2.143-1.264 4.974-1.416 7.032.672a5.222 5.222 0 011.534 3.811 1.345 1.345 0 01.686 1.174 1.347 1.347 0 01-1.221 1.34z" class="stroke 2" clip-rule="evenodd"/>
        </g>
      </g>
      <g class="symbol_4">
        <g class="â spades_4">
          <g class="fill_2">
            <path fill="#2C2C2C" d="M33.545 55.475c1.677-2.043 3.909-3.828 6.083-5.399a1.341 1.341 0 001.491 0c2.174 1.57 4.406 3.356 6.083 5.4.41.499.746 1.046.995 1.614a1.347 1.347 0 00.498 2.377c-.024 1.088-.412 2.137-1.25 2.988-1.63 1.655-3.937 1.615-5.766.564a1.348 1.348 0 00-1.306-1.677 1.346 1.346 0 00-1.305 1.677c-1.83 1.05-4.135 1.091-5.765-.564-.839-.85-1.227-1.9-1.25-2.987a1.347 1.347 0 00.497-2.378 6.937 6.937 0 01.995-1.615z"/>
            <path fill="#2C2C2C" d="M39.761 62.688a.614.614 0 01.612-.611.612.612 0 11-.611.611zM40.341 49.566a.612.612 0 11.065 0M32.103 58.647a.615.615 0 00.241-.487.612.612 0 10-.241.487zM48.477 57.867a.609.609 0 00.167.78.612.612 0 10-.167-.78z"/>
          </g>
          <path fill="#fff" fill-rule="evenodd" d="M49.676 59.333c.012 1.357-.443 2.703-1.535 3.811-2.057 2.088-4.888 1.936-7.032.672a1.34 1.34 0 01-1.472 0c-2.143 1.264-4.974 1.416-7.031-.672-1.093-1.108-1.548-2.454-1.535-3.811a1.346 1.346 0 01.535-2.514 7.884 7.884 0 011.183-1.966c1.76-2.144 4.079-3.992 6.276-5.58a1.346 1.346 0 112.617 0c2.197 1.587 4.517 3.436 6.276 5.58a7.884 7.884 0 011.183 1.966 1.347 1.347 0 01.535 2.514zm-16.13-3.858c1.676-2.043 3.908-3.828 6.082-5.399a1.34 1.34 0 001.491 0c2.174 1.57 4.406 3.356 6.083 5.4a7.095 7.095 0 01.995 1.614 1.342 1.342 0 00-.523 1.187c.05.58.468 1.056 1.02 1.19a4.285 4.285 0 01-1.25 2.988 4.562 4.562 0 01-.64.543c-1.174.818-2.579.937-3.885.553a5.756 5.756 0 01-1.24-.532 1.35 1.35 0 00.04-.33 1.346 1.346 0 10-2.651.33c-1.83 1.05-4.135 1.091-5.765-.564-.839-.85-1.227-1.9-1.25-2.987a1.34 1.34 0 00.848-.64 1.344 1.344 0 00-.35-1.738 6.937 6.937 0 01.994-1.615zm6.215 7.213a.613.613 0 111.227 0 .613.613 0 01-1.227 0zm0-13.733c0 .327.257.594.58.61h.065a.612.612 0 10-.645-.61zm-7.658 9.692a.614.614 0 00.241-.487.612.612 0 10-.241.487zm16.3-.507a.612.612 0 111.223.04.612.612 0 01-1.223-.04z" class="stroke_2" clip-rule="evenodd"/>
          <path fill="#2C2C2C" fill-rule="evenodd" d="M48.337 54.542c-1.737-2.116-3.994-3.937-6.13-5.493a1.836 1.836 0 10-3.667 0c-2.136 1.556-4.394 3.378-6.13 5.493a8.398 8.398 0 00-1.148 1.842 1.837 1.837 0 00-.677 3.209 5.71 5.71 0 001.672 3.895c2.178 2.211 5.136 2.105 7.388.886a1.832 1.832 0 001.457 0c2.252 1.219 5.21 1.325 7.388-.886a5.71 5.71 0 001.672-3.895 1.836 1.836 0 00-.677-3.209c-.3-.66-.69-1.284-1.148-1.842zm.804 2.277a7.902 7.902 0 00-1.183-1.966c-1.76-2.144-4.08-3.993-6.276-5.58a1.346 1.346 0 10-2.617 0c-2.197 1.588-4.517 3.436-6.276 5.58a7.904 7.904 0 00-1.183 1.966 1.347 1.347 0 00-.535 2.514c0 .08 0 .158.003.237a5.222 5.222 0 001.532 3.574c2.057 2.088 4.888 1.936 7.032.672a1.34 1.34 0 001.472 0c2.143 1.264 4.974 1.416 7.031-.672a5.222 5.222 0 001.535-3.811 1.345 1.345 0 00-.535-2.514z" class="stroke 2_2" clip-rule="evenodd"/>
        </g>
      </g>
      <g class="symbol_5">
        <g class="â spades_5">
          <g class="fill_3">
            <path fill="#2C2C2C" d="M43.295 62.812c1.677 2.043 3.909 3.829 6.082 5.4a1.34 1.34 0 011.492 0c2.174-1.571 4.406-3.356 6.083-5.4.41-.5.746-1.046.994-1.615a1.347 1.347 0 01.498-2.377c-.023-1.088-.411-2.137-1.25-2.988-1.63-1.655-3.936-1.614-5.765-.563a1.348 1.348 0 01-1.306 1.677 1.346 1.346 0 01-1.305-1.677c-1.83-1.051-4.136-1.091-5.766.563-.838.851-1.226 1.9-1.25 2.988a1.347 1.347 0 01.498 2.377 6.94 6.94 0 00.995 1.615z"/>
            <path fill="#2C2C2C" d="M49.511 55.6a.613.613 0 101.227 0 .613.613 0 00-1.227 0zM50.091 68.722a.612.612 0 10.064 0M41.852 59.641a.615.615 0 01.242.487.612.612 0 11-.242-.487zM58.227 60.42a.611.611 0 111.073-.584.611.611 0 01-1.073.585z"/>
          </g>
          <path fill="#fff" fill-rule="evenodd" d="M59.426 58.955c.012-1.358-.443-2.703-1.535-3.811-2.057-2.089-4.888-1.937-7.032-.672a1.34 1.34 0 00-1.472 0c-2.143-1.265-4.975-1.416-7.032.672-1.092 1.108-1.547 2.453-1.534 3.81a1.346 1.346 0 00.535 2.515 7.883 7.883 0 001.183 1.966c1.759 2.144 4.078 3.992 6.275 5.579a1.346 1.346 0 102.617 0c2.198-1.587 4.517-3.435 6.277-5.579a7.886 7.886 0 001.183-1.966 1.347 1.347 0 00.535-2.514zm-16.13 3.857c1.676 2.044 3.908 3.829 6.081 5.4a1.34 1.34 0 011.492 0c2.174-1.571 4.406-3.356 6.083-5.4a7.095 7.095 0 00.994-1.615 1.35 1.35 0 01-.523-1.186c.05-.58.47-1.056 1.021-1.19a4.285 4.285 0 00-1.25-2.988 4.561 4.561 0 00-.64-.543c-1.174-.818-2.579-.938-3.885-.554a5.76 5.76 0 00-1.24.533 1.392 1.392 0 01.04.33 1.346 1.346 0 11-2.651-.33c-1.83-1.051-4.136-1.091-5.766.563-.838.851-1.226 1.9-1.25 2.988a1.34 1.34 0 01.849.64 1.344 1.344 0 01-.35 1.738c.248.568.584 1.115.994 1.614zM49.51 55.6a.613.613 0 101.227.002.613.613 0 00-1.227-.002zm0 13.734c0-.328.257-.595.58-.611h.064a.612.612 0 11-.644.61zm-7.659-9.692a.615.615 0 01.242.487.612.612 0 11-.242-.487zm16.301.507a.61.61 0 00.612.592.612.612 0 10-.612-.592z" class="stroke_3" clip-rule="evenodd"/>
          <path fill="#2C2C2C" fill-rule="evenodd" d="M58.086 63.746c-1.736 2.115-3.993 3.937-6.13 5.492a1.836 1.836 0 11-3.667 0c-2.136-1.556-4.393-3.377-6.129-5.492a8.398 8.398 0 01-1.149-1.843 1.837 1.837 0 01-.677-3.208 5.71 5.71 0 011.673-3.895c2.178-2.212 5.136-2.105 7.388-.887a1.832 1.832 0 011.457 0c2.252-1.218 5.21-1.325 7.388.887a5.71 5.71 0 011.672 3.895 1.836 1.836 0 01-.677 3.209c-.3.66-.69 1.283-1.149 1.842zm.805-2.277a7.904 7.904 0 01-1.183 1.966c-1.76 2.144-4.08 3.992-6.277 5.58a1.346 1.346 0 11-2.617 0c-2.197-1.588-4.516-3.436-6.275-5.58a7.904 7.904 0 01-1.183-1.966 1.347 1.347 0 01-.535-2.514c0-.08 0-.159.003-.238a5.221 5.221 0 011.532-3.573c2.056-2.089 4.888-1.937 7.031-.672a1.34 1.34 0 011.472 0c2.144-1.265 4.975-1.417 7.032.672a5.222 5.222 0 011.535 3.81 1.345 1.345 0 01-.535 2.514z" class="stroke 2_3" clip-rule="evenodd"/>
        </g>
      </g>
      <g class="symbol_6">
        <g class="â spades_6">
          <g class="fill_4">
            <path fill="#2C2C2C" d="M19.296 41.226c1.677-2.043 3.909-3.828 6.082-5.4a1.34 1.34 0 001.491 0c2.174 1.571 4.406 3.356 6.083 5.4.41.5.746 1.046.995 1.615a1.347 1.347 0 00.497 2.377c-.022 1.088-.41 2.137-1.249 2.988-1.63 1.655-3.936 1.614-5.765.563a1.348 1.348 0 00-1.306-1.676 1.346 1.346 0 00-1.305 1.676c-1.83 1.051-4.136 1.092-5.766-.563-.838-.851-1.227-1.9-1.25-2.988a1.347 1.347 0 00.498-2.377 6.946 6.946 0 01.995-1.615z"/>
            <path fill="#2C2C2C" d="M25.512 48.439a.613.613 0 111.226 0 .613.613 0 01-1.226 0zM26.092 35.316a.612.612 0 11.064 0M17.853 44.397a.615.615 0 00.241-.487.612.612 0 10-.24.487zM34.228 43.617a.608.608 0 00.167.78.612.612 0 10-.167-.78z"/>
          </g>
          <path fill="#fff" fill-rule="evenodd" d="M35.426 45.084c.013 1.357-.442 2.702-1.534 3.81-2.057 2.089-4.889 1.937-7.032.673a1.34 1.34 0 01-1.472 0c-2.143 1.264-4.975 1.416-7.032-.672-1.092-1.109-1.547-2.454-1.534-3.812a1.346 1.346 0 01.535-2.514 7.885 7.885 0 011.183-1.966c1.759-2.144 4.078-3.992 6.275-5.579a1.348 1.348 0 011.309-1.665 1.346 1.346 0 011.308 1.665c2.197 1.587 4.517 3.435 6.277 5.58a7.882 7.882 0 011.182 1.965 1.347 1.347 0 01.535 2.514zm-16.13-3.858c1.677-2.043 3.909-3.828 6.082-5.4a1.34 1.34 0 001.491 0c2.174 1.571 4.406 3.356 6.083 5.4a7.095 7.095 0 01.995 1.615 1.343 1.343 0 00-.523 1.187c.05.58.469 1.055 1.02 1.19a4.285 4.285 0 01-1.25 2.988 4.567 4.567 0 01-.64.542c-1.174.819-2.578.938-3.884.554a5.758 5.758 0 01-1.24-.532l.01-.045a1.346 1.346 0 10-2.622.045c-1.829 1.05-4.135 1.09-5.765-.564-.838-.851-1.227-1.9-1.25-2.988a1.341 1.341 0 00.848-.64 1.344 1.344 0 00-.35-1.738 6.944 6.944 0 01.995-1.614zm6.216 7.213a.613.613 0 111.226 0 .613.613 0 01-1.226 0zm0-13.734c0 .328.257.595.58.611h.064a.612.612 0 10-.644-.61zm-7.659 9.692a.615.615 0 00.241-.487.612.612 0 10-.24.487zm16.3-.507a.61.61 0 01.613-.592.612.612 0 11-.612.592z" class="stroke_4" clip-rule="evenodd"/>
          <path fill="#2C2C2C" fill-rule="evenodd" d="M34.087 40.292c-1.736-2.115-3.994-3.937-6.13-5.492a1.836 1.836 0 10-3.667 0c-2.136 1.556-4.393 3.377-6.129 5.492a8.398 8.398 0 00-1.149 1.843 1.836 1.836 0 00-.677 3.209 5.71 5.71 0 001.672 3.894c2.18 2.212 5.136 2.105 7.389.887a1.832 1.832 0 001.457 0c2.252 1.218 5.21 1.325 7.388-.887a5.71 5.71 0 001.672-3.895 1.837 1.837 0 00-.677-3.209c-.3-.66-.69-1.283-1.149-1.841zm.804 2.277a7.904 7.904 0 00-1.183-1.966c-1.759-2.144-4.079-3.992-6.276-5.58a1.348 1.348 0 10-2.617.001c-2.197 1.587-4.516 3.435-6.276 5.58a7.904 7.904 0 00-1.182 1.965c-.04.004-.078.01-.117.016a1.347 1.347 0 00-.418 2.498 5.222 5.222 0 001.534 3.811c2.057 2.089 4.889 1.937 7.032.673a1.34 1.34 0 001.472 0c2.143 1.264 4.975 1.416 7.032-.672a5.222 5.222 0 001.534-3.812c.038-.02.074-.044.11-.068a1.345 1.345 0 00-.645-2.446z" class="stroke 2_4" clip-rule="evenodd"/>
        </g>
      </g>
      <g class="symbol_7">
        <g class="â spades_7">
          <g class="fill_5">
            <path fill="#2C2C2C" d="M19.296 16.499c1.677-2.043 3.909-3.828 6.082-5.4a1.34 1.34 0 001.491 0c2.174 1.571 4.406 3.356 6.083 5.4.41.5.746 1.046.995 1.615a1.347 1.347 0 00.497 2.377c-.022 1.088-.41 2.137-1.249 2.988-1.63 1.655-3.936 1.614-5.765.563a1.348 1.348 0 00-1.306-1.677 1.346 1.346 0 00-1.305 1.677c-1.83 1.051-4.136 1.091-5.766-.563-.838-.851-1.227-1.9-1.25-2.988a1.347 1.347 0 00.498-2.377 6.946 6.946 0 01.995-1.615z"/>
            <path fill="#2C2C2C" d="M25.512 23.712a.613.613 0 111.226 0 .613.613 0 01-1.226 0zM26.092 10.59a.612.612 0 11.064 0M17.853 19.67a.615.615 0 00.241-.487.612.612 0 10-.24.487zM34.228 18.89a.608.608 0 00.167.78.612.612 0 10-.167-.78z"/>
          </g>
          <path fill="#fff" fill-rule="evenodd" d="M35.426 20.356c.013 1.358-.442 2.703-1.534 3.811-2.057 2.089-4.889 1.937-7.032.672a1.34 1.34 0 01-1.472 0c-2.143 1.265-4.975 1.416-7.032-.672-1.092-1.108-1.547-2.453-1.534-3.81a1.346 1.346 0 01.535-2.515 7.885 7.885 0 011.183-1.966c1.759-2.144 4.078-3.992 6.275-5.579a1.348 1.348 0 011.309-1.665 1.346 1.346 0 011.308 1.665c2.197 1.587 4.517 3.435 6.277 5.579a7.882 7.882 0 011.182 1.966 1.347 1.347 0 01.535 2.514zM19.296 16.5c1.677-2.043 3.909-3.828 6.082-5.4a1.34 1.34 0 001.491 0c2.174 1.571 4.406 3.356 6.083 5.4a7.095 7.095 0 01.995 1.615 1.35 1.35 0 00-.523 1.186c.05.58.469 1.056 1.02 1.19a4.285 4.285 0 01-1.25 2.988 4.567 4.567 0 01-.64.543c-1.174.818-2.578.938-3.884.554a5.758 5.758 0 01-1.24-.533l.01-.045a1.346 1.346 0 10-2.622.045c-1.829 1.051-4.135 1.091-5.765-.563-.838-.851-1.227-1.9-1.25-2.988a1.341 1.341 0 00.848-.64 1.344 1.344 0 00-.35-1.738 6.944 6.944 0 01.995-1.614zm6.216 7.213a.613.613 0 111.226 0 .613.613 0 01-1.226 0zm0-13.734c0 .328.257.595.58.611h.064a.612.612 0 10-.644-.61zm-7.659 9.692a.615.615 0 00.241-.487.612.612 0 10-.24.487zm16.3-.507a.61.61 0 01.613-.592.612.612 0 11-.612.592z" class="stroke_5" clip-rule="evenodd"/>
          <path fill="#2C2C2C" fill-rule="evenodd" d="M34.087 15.565c-1.736-2.115-3.994-3.937-6.13-5.492a1.836 1.836 0 10-3.667 0c-2.136 1.556-4.393 3.377-6.129 5.492a8.398 8.398 0 00-1.149 1.843 1.836 1.836 0 00-.677 3.208 5.71 5.71 0 001.672 3.895c2.18 2.212 5.136 2.105 7.389.887a1.832 1.832 0 001.457 0c2.252 1.218 5.21 1.325 7.388-.887a5.71 5.71 0 001.672-3.895 1.837 1.837 0 00-.677-3.209c-.3-.66-.69-1.283-1.149-1.842zm.804 2.277a7.904 7.904 0 00-1.183-1.966c-1.759-2.144-4.079-3.992-6.276-5.58a1.347 1.347 0 10-2.617.001c-2.197 1.587-4.516 3.435-6.276 5.579a7.904 7.904 0 00-1.182 1.966c-.04.004-.078.01-.117.016a1.347 1.347 0 00-.418 2.498 5.222 5.222 0 001.534 3.811c2.057 2.089 4.889 1.937 7.032.672a1.34 1.34 0 001.472 0c2.143 1.265 4.975 1.417 7.032-.671a5.222 5.222 0 001.534-3.812c.038-.02.074-.044.11-.068a1.345 1.345 0 00-.645-2.446z" class="stroke 2_5" clip-rule="evenodd"/>
        </g>
      </g>
      <g class="symbol_8">
        <g class="â spades_8">
          <g class="fill_6">
            <path fill="#2C2C2C" d="M43.295 85.863c1.677 2.043 3.909 3.828 6.082 5.4a1.34 1.34 0 011.492 0c2.174-1.572 4.406-3.357 6.083-5.4.41-.5.746-1.046.994-1.615a1.347 1.347 0 01.498-2.377c-.023-1.088-.411-2.137-1.25-2.988-1.63-1.655-3.936-1.614-5.765-.564a1.35 1.35 0 01-1.306 1.677 1.346 1.346 0 01-1.305-1.677c-1.83-1.05-4.136-1.09-5.766.564-.838.85-1.226 1.9-1.25 2.988a1.347 1.347 0 01.498 2.377c.249.569.585 1.115.995 1.615z"/>
            <path fill="#2C2C2C" d="M49.511 78.65a.614.614 0 00.612.612.612.612 0 10-.612-.612zM50.091 91.772a.612.612 0 10.064 0M41.852 82.692a.615.615 0 01.242.487.612.612 0 11-.242-.487zM58.227 83.472a.61.61 0 01.538-.905.612.612 0 11-.538.905z"/>
          </g>
          <path fill="#fff" fill-rule="evenodd" d="M59.426 82.005c.012-1.357-.443-2.702-1.535-3.81-2.057-2.089-4.888-1.937-7.032-.673a1.34 1.34 0 00-1.472 0c-2.143-1.264-4.975-1.416-7.032.672-1.092 1.109-1.547 2.454-1.534 3.811a1.346 1.346 0 00.535 2.514 7.885 7.885 0 001.183 1.967c1.759 2.143 4.078 3.992 6.275 5.579a1.346 1.346 0 102.617 0c2.198-1.587 4.517-3.435 6.277-5.58a7.888 7.888 0 001.183-1.966 1.347 1.347 0 00.535-2.514zm-16.13 3.858c1.676 2.043 3.908 3.828 6.081 5.4a1.341 1.341 0 011.491 0c2.175-1.572 4.407-3.357 6.084-5.4l.15-.19c.342-.447.627-.927.844-1.425a1.352 1.352 0 01-.523-1.187c.05-.58.47-1.055 1.021-1.19a4.285 4.285 0 00-1.25-2.988 4.554 4.554 0 00-.64-.542c-1.174-.819-2.579-.938-3.885-.554a5.756 5.756 0 00-1.24.532 1.277 1.277 0 01.04.33 1.346 1.346 0 11-2.651-.33c-1.83-1.05-4.136-1.09-5.766.564a4.302 4.302 0 00-1.25 2.988 1.337 1.337 0 01.849.639 1.344 1.344 0 01-.35 1.738c.248.569.584 1.115.994 1.615zm6.215-7.213a.614.614 0 00.612.612.612.612 0 10-.612-.612zm0 13.734c0-.328.257-.595.58-.612h.064a.612.612 0 11-.644.612zm-7.659-9.692a.615.615 0 01.242.487.612.612 0 11-.242-.487zm16.301.507a.609.609 0 00.612.592.612.612 0 10-.612-.592z" class="stroke_6" clip-rule="evenodd"/>
          <path fill="#2C2C2C" fill-rule="evenodd" d="M58.086 86.796c-1.736 2.116-3.993 3.938-6.13 5.493a1.836 1.836 0 11-3.667 0c-2.136-1.556-4.393-3.377-6.129-5.493a8.398 8.398 0 01-1.149-1.842 1.837 1.837 0 01-.677-3.209 5.71 5.71 0 011.673-3.894c2.178-2.212 5.136-2.105 7.388-.887a1.83 1.83 0 011.457 0c2.252-1.218 5.21-1.325 7.388.887a5.71 5.71 0 011.672 3.894 1.837 1.837 0 01-.677 3.209c-.3.66-.69 1.284-1.149 1.842zm.805-2.277a7.904 7.904 0 01-1.183 1.966c-1.76 2.145-4.08 3.993-6.277 5.58a1.346 1.346 0 11-2.617 0c-2.197-1.587-4.516-3.436-6.275-5.58a7.905 7.905 0 01-1.183-1.966 1.347 1.347 0 01-.535-2.514c0-.079 0-.158.003-.237a5.221 5.221 0 011.532-3.574c2.056-2.088 4.888-1.936 7.031-.672a1.34 1.34 0 011.472 0c2.144-1.264 4.975-1.416 7.032.672a5.222 5.222 0 011.535 3.811 1.345 1.345 0 01.686 1.173 1.347 1.347 0 01-1.221 1.341z" class="stroke 2_6" clip-rule="evenodd"/>
        </g>
      </g>
      <g class="symbol_9">
        <g class="â spades_9">
          <g class="fill_7">
            <path fill="#2C2C2C" d="M18.877 85.444c1.676 2.043 3.908 3.828 6.082 5.4a1.34 1.34 0 01.745-.226c.276 0 .533.083.746.225 2.174-1.57 4.406-3.356 6.083-5.399.41-.5.746-1.046.995-1.615a1.347 1.347 0 01.498-2.377c-.024-1.088-.412-2.137-1.25-2.988-1.63-1.655-3.936-1.614-5.766-.564a1.35 1.35 0 01-1.305 1.677 1.346 1.346 0 01-1.306-1.677c-1.83-1.05-4.135-1.09-5.765.564-.838.85-1.227 1.9-1.25 2.988a1.347 1.347 0 01.498 2.377c.248.569.584 1.115.995 1.615z"/>
            <path fill="#2C2C2C" d="M25.093 78.23a.614.614 0 00.612.613.612.612 0 10-.612-.612zM25.673 91.353a.612.612 0 10.064 0M17.434 82.273a.615.615 0 01.241.487.612.612 0 11-.241-.487zM33.809 83.052a.61.61 0 01.167-.78.612.612 0 11-.167.78z"/>
          </g>
          <path fill="#fff" fill-rule="evenodd" d="M35.007 81.586c.013-1.357-.442-2.702-1.534-3.81-2.057-2.089-4.889-1.937-7.032-.673a1.34 1.34 0 00-1.472 0c-2.143-1.264-4.975-1.416-7.032.672-1.092 1.109-1.547 2.454-1.534 3.811a1.346 1.346 0 00.535 2.514 7.885 7.885 0 001.182 1.967c1.76 2.143 4.079 3.991 6.276 5.579a1.346 1.346 0 102.617 0c2.197-1.587 4.517-3.435 6.276-5.58a7.885 7.885 0 001.183-1.966 1.347 1.347 0 00.535-2.514zm-16.13 3.858c1.676 2.043 3.908 3.828 6.082 5.4a1.341 1.341 0 011.491 0c2.174-1.572 4.406-3.357 6.083-5.4a6.898 6.898 0 00.995-1.615 1.342 1.342 0 01-.523-1.187c.05-.58.469-1.055 1.02-1.19a4.284 4.284 0 00-1.25-2.988 4.549 4.549 0 00-.64-.543c-1.174-.818-2.578-.937-3.884-.553a5.754 5.754 0 00-1.24.532 1.277 1.277 0 01.04.33 1.346 1.346 0 11-2.652-.33c-1.829-1.05-4.135-1.09-5.765.564a4.302 4.302 0 00-1.25 2.988 1.337 1.337 0 01.848.639 1.344 1.344 0 01-.35 1.738c.248.569.584 1.115.995 1.615zm6.216-7.213a.614.614 0 00.612.612.612.612 0 10-.612-.612zm0 13.734c0-.328.256-.595.58-.612h.064a.612.612 0 11-.645.612zm-7.659-9.692a.615.615 0 01.241.487.612.612 0 11-.241-.487zm16.3.507a.609.609 0 00.612.592.612.612 0 10-.611-.593z" class="stroke_7" clip-rule="evenodd"/>
          <path fill="#2C2C2C" fill-rule="evenodd" d="M33.668 86.377c-1.736 2.116-3.994 3.937-6.13 5.493a1.836 1.836 0 11-3.667 0c-2.136-1.556-4.393-3.377-6.13-5.493a8.398 8.398 0 01-1.148-1.842 1.837 1.837 0 01-.677-3.209 5.71 5.71 0 011.672-3.894c2.179-2.212 5.136-2.106 7.388-.887a1.83 1.83 0 011.457 0c2.253-1.219 5.21-1.325 7.389.886a5.71 5.71 0 011.672 3.895 1.837 1.837 0 01-.677 3.209c-.3.66-.69 1.284-1.15 1.842zm.804-2.277a7.904 7.904 0 01-1.183 1.966c-1.759 2.145-4.079 3.993-6.276 5.58a1.347 1.347 0 11-2.617 0c-2.197-1.588-4.516-3.436-6.276-5.58a7.905 7.905 0 01-1.182-1.966 1.347 1.347 0 01-.535-2.514 5.222 5.222 0 011.535-3.811c2.056-2.088 4.888-1.936 7.03-.672a1.34 1.34 0 011.473 0c2.143-1.264 4.975-1.416 7.032.672a5.222 5.222 0 011.534 3.811 1.345 1.345 0 01.686 1.173 1.347 1.347 0 01-1.22 1.341z" class="stroke 2_7" clip-rule="evenodd"/>
        </g>
      </g>
      <g class="symbol_10">
        <g class="â spades_10">
          <g class="fill_8">
            <path fill="#2C2C2C" d="M43.295 16.499c1.677-2.043 3.909-3.828 6.082-5.4a1.34 1.34 0 001.492 0c2.174 1.571 4.406 3.356 6.083 5.4.41.5.746 1.046.994 1.615a1.347 1.347 0 00.498 2.377c-.023 1.088-.411 2.137-1.25 2.988-1.63 1.655-3.936 1.614-5.765.563a1.348 1.348 0 00-1.306-1.677 1.346 1.346 0 00-1.305 1.677c-1.83 1.051-4.136 1.091-5.766-.563-.838-.851-1.226-1.9-1.25-2.988a1.347 1.347 0 00.498-2.377 6.94 6.94 0 01.995-1.615z"/>
            <path fill="#2C2C2C" d="M49.511 23.712a.613.613 0 111.227-.002.613.613 0 01-1.227.002zM50.091 10.59a.612.612 0 11.064 0M41.852 19.67a.615.615 0 00.242-.487.612.612 0 10-.242.487zM58.227 18.89a.611.611 0 101.073.585.611.611 0 00-1.073-.585z"/>
          </g>
          <path fill="#fff" fill-rule="evenodd" d="M59.426 20.356c.012 1.358-.443 2.703-1.535 3.811-2.057 2.089-4.888 1.937-7.032.672a1.34 1.34 0 01-1.472 0c-2.143 1.265-4.975 1.417-7.032-.671-1.092-1.11-1.547-2.454-1.534-3.812a1.346 1.346 0 01.535-2.514 7.883 7.883 0 011.183-1.966c1.759-2.144 4.078-3.992 6.275-5.579a1.346 1.346 0 112.617 0c2.198 1.587 4.517 3.435 6.277 5.579a7.886 7.886 0 011.183 1.966 1.347 1.347 0 01.535 2.514zM43.296 16.5c1.676-2.043 3.908-3.828 6.081-5.4a1.34 1.34 0 001.492 0c2.174 1.571 4.406 3.356 6.083 5.4a7.095 7.095 0 01.994 1.615 1.342 1.342 0 00-.523 1.187c.05.58.47 1.055 1.021 1.19a4.285 4.285 0 01-1.25 2.988 4.561 4.561 0 01-.64.542c-1.174.818-2.579.938-3.885.554a5.76 5.76 0 01-1.24-.533 1.392 1.392 0 00.04-.33 1.346 1.346 0 10-2.651.33c-1.83 1.051-4.136 1.091-5.766-.563-.838-.851-1.226-1.9-1.25-2.988a1.34 1.34 0 00.849-.64 1.344 1.344 0 00-.35-1.738 6.937 6.937 0 01.994-1.614zm6.215 7.213a.613.613 0 111.227-.002.613.613 0 01-1.227.002zm0-13.734c0 .328.257.595.58.611h.064a.612.612 0 10-.644-.61zm-7.659 9.692a.615.615 0 00.242-.487.612.612 0 10-.242.487zm16.301-.507a.61.61 0 01.612-.592.612.612 0 11-.612.592z" class="stroke_8" clip-rule="evenodd"/>
          <path fill="#2C2C2C" fill-rule="evenodd" d="M58.086 15.565c-1.736-2.115-3.993-3.937-6.13-5.492a1.836 1.836 0 10-3.667 0c-2.136 1.556-4.393 3.377-6.129 5.492a8.398 8.398 0 00-1.149 1.843 1.837 1.837 0 00-.677 3.208 5.71 5.71 0 001.673 3.895c2.178 2.212 5.136 2.105 7.388.887a1.832 1.832 0 001.457 0c2.252 1.218 5.21 1.325 7.388-.887a5.71 5.71 0 001.672-3.895 1.836 1.836 0 00-.677-3.209c-.3-.66-.69-1.283-1.149-1.842zm.805 2.277a7.904 7.904 0 00-1.183-1.966c-1.76-2.144-4.08-3.992-6.277-5.58a1.346 1.346 0 10-2.617 0c-2.197 1.588-4.516 3.436-6.275 5.58a7.904 7.904 0 00-1.183 1.966c-.04.004-.078.01-.117.016a1.347 1.347 0 00-.418 2.498c0 .08 0 .159.003.238a5.221 5.221 0 001.532 3.573c2.056 2.089 4.888 1.937 7.031.672a1.34 1.34 0 001.472 0c2.144 1.265 4.975 1.417 7.032-.671a5.222 5.222 0 001.535-3.812c.037-.02.073-.044.109-.068a1.345 1.345 0 00-.644-2.446z" class="stroke 2_8" clip-rule="evenodd"/>
        </g>
      </g>
      <g class="symbol_11">
        <g class="â spades_11">
          <g class="fill_9">
            <path fill="#2C2C2C" d="M43.295 40.388c1.677-2.044 3.909-3.829 6.082-5.4a1.34 1.34 0 001.491 0c2.175 1.571 4.407 3.356 6.084 5.4.41.5.746 1.046.994 1.615a1.347 1.347 0 00.498 2.377c-.023 1.088-.411 2.137-1.25 2.988-1.63 1.654-3.936 1.614-5.765.563a1.348 1.348 0 00-1.306-1.677 1.346 1.346 0 00-1.305 1.677c-1.83 1.051-4.136 1.091-5.766-.563-.838-.851-1.226-1.9-1.25-2.988a1.347 1.347 0 00.498-2.377 6.937 6.937 0 01.995-1.615z"/>
            <path fill="#2C2C2C" d="M49.511 47.6a.614.614 0 01.612-.611.612.612 0 11-.612.612zM50.091 34.478a.612.612 0 11.064 0M41.852 43.559a.615.615 0 00.242-.487.612.612 0 10-.242.487zM58.227 42.78a.61.61 0 00.538.904.612.612 0 10-.538-.905z"/>
          </g>
          <path fill="#fff" fill-rule="evenodd" d="M59.426 44.245c.012 1.358-.443 2.703-1.535 3.811-2.057 2.089-4.888 1.937-7.032.672a1.34 1.34 0 01-1.472 0c-2.143 1.265-4.975 1.416-7.032-.672-1.092-1.108-1.547-2.453-1.534-3.81a1.346 1.346 0 01.535-2.515 7.883 7.883 0 011.183-1.966c1.759-2.144 4.078-3.992 6.275-5.579a1.346 1.346 0 112.617 0c2.198 1.587 4.517 3.435 6.277 5.579a7.886 7.886 0 011.183 1.966 1.347 1.347 0 01.535 2.514zm-16.13-3.857c1.676-2.044 3.908-3.829 6.081-5.4a1.34 1.34 0 001.492 0c2.174 1.571 4.406 3.356 6.083 5.4a7.095 7.095 0 01.994 1.615 1.35 1.35 0 00-.523 1.186c.05.58.47 1.056 1.021 1.19a4.285 4.285 0 01-1.25 2.988 4.554 4.554 0 01-.64.543c-1.174.818-2.579.938-3.885.554a5.76 5.76 0 01-1.24-.533 1.332 1.332 0 00.04-.33 1.346 1.346 0 10-2.651.33c-1.83 1.051-4.136 1.091-5.766-.563-.838-.851-1.226-1.9-1.25-2.988a1.34 1.34 0 00.849-.64 1.344 1.344 0 00-.35-1.738 6.937 6.937 0 01.994-1.614zM49.51 47.6a.613.613 0 111.227-.002.613.613 0 01-1.227.002zm0-13.734c0 .327.257.595.58.611h.064a.612.612 0 10-.644-.611zm-7.659 9.692a.616.616 0 00.242-.487.612.612 0 10-.242.487zm16.301-.507a.61.61 0 01.612-.592.612.612 0 11-.612.592z" class="stroke_9" clip-rule="evenodd"/>
          <path fill="#2C2C2C" fill-rule="evenodd" d="M58.086 39.454c-1.736-2.115-3.993-3.937-6.13-5.492a1.836 1.836 0 10-3.667 0c-2.136 1.556-4.393 3.377-6.129 5.492a8.398 8.398 0 00-1.149 1.843 1.837 1.837 0 00-.677 3.208 5.71 5.71 0 001.673 3.895c2.178 2.212 5.136 2.105 7.388.886a1.832 1.832 0 001.457 0c2.252 1.22 5.21 1.326 7.388-.886a5.71 5.71 0 001.672-3.895 1.836 1.836 0 00-.677-3.209c-.3-.66-.69-1.283-1.149-1.842zm.805 2.277a7.902 7.902 0 00-1.183-1.966c-1.76-2.144-4.08-3.992-6.277-5.58a1.346 1.346 0 10-2.617 0c-2.197 1.588-4.516 3.436-6.275 5.58a7.903 7.903 0 00-1.183 1.966 1.347 1.347 0 00-.535 2.514c0 .08 0 .159.003.238a5.221 5.221 0 001.532 3.573c2.056 2.089 4.888 1.937 7.031.672a1.34 1.34 0 001.472 0c2.144 1.265 4.975 1.416 7.032-.672a5.221 5.221 0 001.535-3.81 1.345 1.345 0 00-.535-2.514z" class="stroke 2_9" clip-rule="evenodd"/>
        </g>
      </g>
    </g>
  </g>
</svg>
