<svg xmlns="http://www.w3.org/2000/svg" width="80" height="111" fill="none" viewBox="0 0 80 111">
  <g class="nine_heart">
    <rect width="74.81" height="104.734" x=".3" y=".359" fill="#fff" rx="3.62"/>
    <rect width="78.991" height="110.588" x=".3" y=".359" fill="#fff" class="bg" rx="3.62"/>
    <g class="down">
      <g class="letter">
        <path fill="#222" d="M61.508 98.877c0 1.535.463 2.737 1.406 3.588.926.851 2.117 1.268 3.573 1.268 1.356 0 2.514-.417 3.507-1.268.992-.851 1.488-2.269 1.488-4.288V93.62c0-1.952-.48-3.387-1.422-4.338-.943-.935-2.217-1.419-3.805-1.419-1.786 0-3.242.701-4.383 2.12l1.82.917c.562-.984 1.405-1.468 2.547-1.468.942 0 1.687.3 2.216.884.53.584.81 1.686.81 3.27v2.153c-.744-1.134-1.902-1.702-3.44-1.702-1.29 0-2.332.417-3.126 1.235-.794.818-1.191 2.02-1.191 3.604zm2.233.017c0-1.268.231-2.136.695-2.586.463-.45 1.058-.684 1.803-.684 1.588 0 2.613.8 3.043 2.386 0 1.768-.264 2.903-.794 3.404-.53.5-1.19.751-1.985.751-.76 0-1.406-.251-1.952-.751-.546-.501-.81-1.352-.81-2.52z" class="Vector"/>
      </g>
      <g class="symbol">
        <path fill="#F24E1E" d="M67.82 79.887c.707.863.875 2.068.1 2.856-.839.853-2.115.606-2.889-.181-.774.787-2.05 1.034-2.888.181-.775-.788-.608-1.993.1-2.856.763-.932 1.808-1.733 2.788-2.427.98.694 2.026 1.495 2.79 2.427z" class="♥ hearts"/>
      </g>
    </g>
    <g class="up">
      <g class="letter_2">
        <path fill="#222" d="M4.834 8.842c0-1.535.463-2.736 1.406-3.587.926-.851 2.117-1.269 3.573-1.269 1.356 0 2.514.418 3.506 1.269.993.85 1.49 2.269 1.49 4.288v4.555c0 1.953-.48 3.388-1.423 4.339-.943.934-2.217 1.418-3.805 1.418-1.786 0-3.242-.7-4.383-2.119l1.82-.918c.562.985 1.405 1.469 2.547 1.469.942 0 1.687-.3 2.216-.885.53-.584.81-1.685.81-3.27v-2.153c-.744 1.135-1.902 1.702-3.44 1.702-1.29 0-2.332-.417-3.126-1.234-.794-.818-1.191-2.02-1.191-3.605zm2.233-.017c0 1.269.231 2.136.694 2.587.464.45 1.06.684 1.804.684 1.588 0 2.613-.8 3.043-2.386 0-1.769-.264-2.904-.794-3.404s-1.19-.751-1.985-.751c-.76 0-1.406.25-1.952.75-.546.501-.81 1.352-.81 2.52z" class="Vector_2"/>
      </g>
      <g class="symbol_2">
        <path fill="#F24E1E" d="M7.69 25.525c-.707-.863-.875-2.067-.1-2.856.839-.853 2.115-.606 2.889.182.774-.788 2.05-1.035 2.888-.182.775.789.608 1.993-.1 2.856-.763.932-1.808 1.733-2.788 2.428-.98-.695-2.026-1.496-2.79-2.428z" class="♥ hearts_2"/>
      </g>
    </g>
    <g class="icons">
      <g class="symbol_3">
        <g class="♥ hearts_3">
          <g class="fill">
            <path fill="#F24E1E" d="M32.506 96.965c-1.728 1.754-4.173 1.711-6.112.597a1.43 1.43 0 00-1.384-1.777 1.427 1.427 0 00-1.385 1.778c-1.94 1.113-4.384 1.156-6.112-.598-.889-.902-1.3-2.014-1.325-3.168a1.428 1.428 0 00.528-2.52 7.357 7.357 0 011.054-1.712c1.778-2.166 4.144-4.059 6.449-5.724.226.15.498.238.79.238.293 0 .564-.088.79-.239 2.306 1.666 4.672 3.558 6.45 5.725a7.36 7.36 0 011.054 1.712 1.428 1.428 0 00.528 2.52c-.025 1.154-.436 2.266-1.325 3.168z"/>
            <path fill="#F24E1E" d="M24.616 96.696a.65.65 0 00.393 1.165.649.649 0 10-.393-1.165zM25.009 83.3a.649.649 0 100-1.298.649.649 0 000 1.299zM33.601 92.1a.646.646 0 00.177.827.649.649 0 10-.177-.827zM15.848 91.762a.649.649 0 110 1.297.649.649 0 010-1.297z"/>
          </g>
          <path fill="#fff" fill-rule="evenodd" d="M34.872 93.655c.013 1.439-.47 2.865-1.627 4.04-2.18 2.214-5.183 2.053-7.455.713a1.42 1.42 0 01-.78.231 1.42 1.42 0 01-.78-.231c-2.273 1.34-5.275 1.5-7.456-.713-1.158-1.175-1.64-2.601-1.627-4.04a1.427 1.427 0 01.568-2.666c.311-.75.74-1.458 1.254-2.084 1.865-2.273 4.324-4.232 6.653-5.915a1.427 1.427 0 112.774 0c2.33 1.682 4.79 3.642 6.654 5.915a8.36 8.36 0 011.254 2.084 1.428 1.428 0 01.568 2.666zm-8.478 3.907c1.94 1.114 4.384 1.157 6.112-.597a4.543 4.543 0 001.325-3.168 1.428 1.428 0 01-.528-2.52 7.358 7.358 0 00-1.054-1.712c-1.778-2.166-4.145-4.06-6.45-5.725a1.421 1.421 0 01-1.58 0c-2.305 1.666-4.67 3.559-6.449 5.725-.203.248-.39.508-.558.775-.19.303-.356.617-.496.937a1.425 1.425 0 01.477 1.612 1.43 1.43 0 01-1.005.908c.025 1.154.436 2.266 1.325 3.168 1.728 1.754 4.173 1.711 6.112.597a1.43 1.43 0 011.384-1.777 1.427 1.427 0 011.385 1.778zm-1.778-.866a.65.65 0 10.787 1.033.65.65 0 00-.787-1.033zm.428-13.396a.649.649 0 11-.07-1.296.649.649 0 01.07 1.296zm8.557 8.8a.646.646 0 00.177.827.649.649 0 10-.177-.827zm-17.104.31a.649.649 0 10-1.298 0 .649.649 0 001.298 0z" class="stroke" clip-rule="evenodd"/>
          <g class="stroke 2">
            <path fill="#F24E1E" d="M16.188 93.797zM23.625 97.563z"/>
            <path fill="#F24E1E" fill-rule="evenodd" d="M13.901 92.41c0 .616.286 1.164.73 1.52a6.054 6.054 0 001.773 4.13c2.31 2.344 5.445 2.231 7.833.94a1.94 1.94 0 001.545 0c2.388 1.291 5.523 1.404 7.833-.94a6.054 6.054 0 001.773-4.13 1.947 1.947 0 00-.718-3.402 8.902 8.902 0 00-1.218-1.953c-1.84-2.243-4.234-4.174-6.499-5.823a1.947 1.947 0 10-3.888 0c-2.264 1.65-4.657 3.58-6.498 5.823a8.899 8.899 0 00-1.218 1.954c-.833.22-1.448.979-1.448 1.882zm2.873 5.285a5.536 5.536 0 01-1.624-3.789 6.397 6.397 0 01-.003-.251 1.426 1.426 0 01-.727-1.244 1.428 1.428 0 011.295-1.422 8.256 8.256 0 011.253-2.084c1.866-2.273 4.325-4.232 6.654-5.915a1.427 1.427 0 112.774 0c2.33 1.682 4.79 3.642 6.654 5.915a8.38 8.38 0 011.254 2.084 1.428 1.428 0 01.567 2.665 5.536 5.536 0 01-1.627 4.04c-2.18 2.215-5.182 2.054-7.454.714a1.42 1.42 0 01-.78.231 1.42 1.42 0 01-.78-.231c-2.273 1.34-5.275 1.5-7.456-.713z" clip-rule="evenodd"/>
          </g>
        </g>
      </g>
      <g class="symbol_4">
        <g class="♥ hearts_4">
          <g class="fill_2">
            <path fill="#F24E1E" d="M48.828 66.134c-1.728 1.755-4.173 1.712-6.112.598a1.427 1.427 0 10-2.768 0c-1.94 1.114-4.385 1.156-6.113-.598-.889-.902-1.3-2.014-1.325-3.167a1.428 1.428 0 00.528-2.52 7.358 7.358 0 011.055-1.713c1.777-2.166 4.143-4.059 6.448-5.724a1.42 1.42 0 001.581 0c2.305 1.665 4.671 3.558 6.449 5.724.435.53.79 1.11 1.055 1.712a1.428 1.428 0 00.528 2.52c-.025 1.154-.437 2.266-1.326 3.168z"/>
            <path fill="#F24E1E" d="M40.938 65.865a.651.651 0 00.393 1.165.649.649 0 10-.392-1.165zM41.331 52.47l.035-.001a.649.649 0 10-.035 0zM49.923 61.27a.646.646 0 00.177.826.649.649 0 10-.177-.827zM32.17 60.931a.649.649 0 110 1.298.649.649 0 010-1.298z"/>
          </g>
          <path fill="#fff" fill-rule="evenodd" d="M51.194 62.824c.013 1.439-.47 2.865-1.627 4.04-2.18 2.214-5.183 2.053-7.455.713a1.421 1.421 0 01-1.56 0c-2.273 1.34-5.275 1.501-7.456-.713-1.157-1.175-1.64-2.601-1.626-4.04a1.427 1.427 0 01.567-2.666c.312-.75.74-1.458 1.254-2.084 1.865-2.273 4.324-4.232 6.653-5.915a1.428 1.428 0 112.774 0c2.33 1.682 4.79 3.642 6.655 5.915a8.36 8.36 0 011.254 2.084 1.428 1.428 0 01.567 2.666zm-8.478 3.908c1.94 1.114 4.384 1.157 6.112-.598a4.543 4.543 0 001.325-3.167 1.428 1.428 0 01-.527-2.52 7.358 7.358 0 00-1.055-1.713c-1.778-2.166-4.144-4.059-6.449-5.724a1.42 1.42 0 01-.79.239 1.42 1.42 0 01-.791-.239c-2.305 1.665-4.67 3.558-6.448 5.724-.204.248-.39.508-.559.775a7.16 7.16 0 00-.496.937 1.425 1.425 0 01.477 1.612 1.43 1.43 0 01-1.005.909c.025 1.153.436 2.265 1.325 3.167 1.728 1.754 4.173 1.712 6.113.598a1.43 1.43 0 011.384-1.778 1.427 1.427 0 011.384 1.778zm-1.778-.867a.65.65 0 10.787 1.033.65.65 0 00-.787-1.033zm.428-13.396h-.035a.649.649 0 11.035 0zm8.557 8.8a.646.646 0 00.177.827.649.649 0 10-.177-.827zm-17.104.31a.649.649 0 10-1.298 0 .649.649 0 001.298 0z" class="stroke_2" clip-rule="evenodd"/>
          <g class="stroke 2_2">
            <path fill="#F24E1E" d="M32.51 62.967zM39.948 66.732z"/>
            <path fill="#F24E1E" fill-rule="evenodd" d="M30.224 61.58c0 .615.285 1.163.73 1.52a6.054 6.054 0 001.773 4.129c2.31 2.344 5.445 2.231 7.832.94a1.942 1.942 0 001.545 0c2.388 1.291 5.523 1.404 7.833-.94a6.054 6.054 0 001.773-4.13 1.947 1.947 0 00-.718-3.402 8.906 8.906 0 00-1.218-1.953c-1.84-2.242-4.234-4.174-6.499-5.823a1.947 1.947 0 10-3.888 0c-2.264 1.65-4.657 3.581-6.498 5.824a8.903 8.903 0 00-1.218 1.953c-.833.22-1.447.98-1.447 1.882zm2.872 5.284a5.536 5.536 0 01-1.624-3.789 6.029 6.029 0 01-.002-.251 1.426 1.426 0 01-.727-1.244 1.428 1.428 0 011.294-1.422 8.379 8.379 0 011.254-2.085c1.865-2.272 4.324-4.231 6.653-5.914a1.428 1.428 0 112.774 0c2.33 1.682 4.79 3.642 6.655 5.915a8.38 8.38 0 011.254 2.084 1.428 1.428 0 01.567 2.665c0 .085 0 .169-.003.252a5.536 5.536 0 01-1.624 3.79c-2.18 2.213-5.183 2.052-7.455.712a1.421 1.421 0 01-1.56 0c-2.273 1.34-5.275 1.501-7.456-.713z" clip-rule="evenodd"/>
          </g>
        </g>
      </g>
      <g class="symbol_5">
        <g class="♥ hearts_5">
          <g class="fill_3">
            <path fill="#F24E1E" d="M59.71 97.872c-1.729 1.754-4.173 1.711-6.113.597a1.43 1.43 0 00-1.384-1.778 1.427 1.427 0 00-1.384 1.778c-1.94 1.114-4.384 1.157-6.112-.597-.89-.903-1.3-2.015-1.325-3.168a1.428 1.428 0 00.527-2.52 7.358 7.358 0 011.055-1.712c1.778-2.166 4.144-4.059 6.448-5.724.227.15.498.238.79.238.293 0 .565-.088.791-.239 2.305 1.666 4.671 3.558 6.45 5.725.434.53.79 1.109 1.054 1.712a1.428 1.428 0 00.528 2.52c-.025 1.153-.437 2.266-1.325 3.168z"/>
            <path fill="#F24E1E" d="M51.82 97.603a.652.652 0 00-.256.516.649.649 0 10.256-.516zM52.213 84.207h.034a.649.649 0 10-.034 0zM60.805 93.007a.646.646 0 00.177.827.649.649 0 10-.177-.827zM43.051 92.668a.649.649 0 110 1.298.649.649 0 010-1.297z"/>
          </g>
          <path fill="#fff" fill-rule="evenodd" d="M62.075 94.561c.014 1.44-.469 2.866-1.627 4.04-2.18 2.215-5.182 2.054-7.455.713a1.42 1.42 0 01-.78.232 1.42 1.42 0 01-.78-.232c-2.272 1.341-5.274 1.502-7.455-.712-1.158-1.175-1.64-2.602-1.627-4.04a1.427 1.427 0 01.567-2.666 8.36 8.36 0 011.254-2.085c1.865-2.272 4.324-4.232 6.654-5.914a1.428 1.428 0 112.774 0c2.33 1.682 4.789 3.641 6.654 5.914a8.36 8.36 0 011.254 2.085 1.428 1.428 0 01.567 2.665zm-8.478 3.908c1.94 1.114 4.384 1.157 6.113-.597a4.543 4.543 0 001.325-3.168 1.428 1.428 0 01-.528-2.52 7.358 7.358 0 00-1.055-1.712c-1.778-2.167-4.144-4.06-6.449-5.725a1.42 1.42 0 01-1.581 0c-2.304 1.666-4.67 3.558-6.448 5.725-.204.248-.39.507-.558.775a7.16 7.16 0 00-.497.937 1.425 1.425 0 01.478 1.612 1.43 1.43 0 01-1.005.908c.024 1.153.436 2.266 1.325 3.168 1.728 1.754 4.172 1.711 6.112.597a1.43 1.43 0 01.069-.906 1.428 1.428 0 012.7.906zm-1.777-.866a.65.65 0 10.787 1.033.65.65 0 00-.787-1.033zm.427-13.396a.649.649 0 11-.07-1.296.649.649 0 01.07 1.296zm8.558 8.8a.647.647 0 00.177.827.649.649 0 10-.177-.827zm-17.105.31a.649.649 0 10-1.297 0 .649.649 0 001.297 0z" class="stroke_3" clip-rule="evenodd"/>
          <g class="stroke 2_3">
            <path fill="#F24E1E" d="M43.392 94.704zM50.829 98.47z"/>
            <path fill="#F24E1E" fill-rule="evenodd" d="M41.105 93.317c0 .616.286 1.164.73 1.52a6.054 6.054 0 001.773 4.13c2.31 2.344 5.445 2.231 7.833.939.237.103.498.159.772.159s.535-.056.773-.159c2.387 1.292 5.522 1.405 7.832-.94a6.054 6.054 0 001.773-4.129 1.947 1.947 0 00-.718-3.402 8.907 8.907 0 00-1.218-1.953c-1.84-2.243-4.234-4.174-6.498-5.823l.002-.1a1.947 1.947 0 10-3.89.1c-2.265 1.65-4.658 3.58-6.498 5.823a8.907 8.907 0 00-1.218 1.953c-.834.22-1.448.98-1.448 1.882zm2.873 5.285a5.537 5.537 0 01-1.624-3.789 6.206 6.206 0 01-.003-.252 1.426 1.426 0 01.567-2.665 8.38 8.38 0 011.254-2.085c1.865-2.272 4.324-4.232 6.653-5.914a1.428 1.428 0 112.775 0c2.33 1.682 4.789 3.641 6.654 5.914a8.38 8.38 0 011.254 2.085 1.428 1.428 0 01.567 2.665 5.537 5.537 0 01-1.627 4.04c-2.18 2.215-5.182 2.054-7.455.713a1.42 1.42 0 01-.78.232 1.42 1.42 0 01-.78-.232c-2.272 1.341-5.274 1.502-7.455-.712z" clip-rule="evenodd"/>
          </g>
        </g>
      </g>
      <g class="symbol_6">
        <g class="♥ hearts_6">
          <g class="fill_4">
            <path fill="#F24E1E" d="M33.413 37.505c-1.728-1.755-4.173-1.712-6.113-.598a1.43 1.43 0 01-1.384 1.778 1.427 1.427 0 01-1.384-1.778c-1.94-1.114-4.384-1.157-6.112.598-.89.902-1.3 2.014-1.325 3.167a1.428 1.428 0 01.527 2.52 7.36 7.36 0 001.055 1.713c1.778 2.166 4.144 4.059 6.448 5.724a1.42 1.42 0 01.79-.239c.293 0 .565.088.792.24 2.304-1.666 4.67-3.559 6.448-5.725.435-.53.791-1.11 1.055-1.712a1.428 1.428 0 01.527-2.52c-.024-1.154-.435-2.266-1.324-3.168z"/>
            <path fill="#F24E1E" d="M25.523 37.774a.65.65 0 01.393-1.165.649.649 0 11-.393 1.165zM25.916 51.169h.034a.649.649 0 11-.034 0zM34.508 42.37a.646.646 0 01.177-.827.649.649 0 11-.177.827zM16.755 42.708a.649.649 0 100-1.298.649.649 0 000 1.298z"/>
          </g>
          <path fill="#fff" fill-rule="evenodd" d="M35.778 40.815c.014-1.439-.468-2.865-1.626-4.04-2.181-2.214-5.183-2.053-7.455-.713a1.42 1.42 0 00-.78-.232 1.42 1.42 0 00-.781.232c-2.272-1.34-5.274-1.501-7.455.713-1.158 1.175-1.64 2.601-1.627 4.04a1.427 1.427 0 00.568 2.666c.311.75.739 1.457 1.253 2.084 1.865 2.273 4.324 4.232 6.654 5.915a1.427 1.427 0 102.774 0c2.33-1.682 4.789-3.642 6.654-5.915a8.36 8.36 0 001.254-2.084 1.428 1.428 0 00.567-2.666zM27.3 36.907c1.94-1.114 4.384-1.157 6.113.598a4.543 4.543 0 011.325 3.167 1.428 1.428 0 00-.528 2.52 7.355 7.355 0 01-1.055 1.713c-1.777 2.166-4.144 4.059-6.448 5.724a1.421 1.421 0 00-1.582 0c-2.304-1.665-4.67-3.558-6.448-5.724a7.528 7.528 0 01-.558-.775 7.16 7.16 0 01-.497-.937 1.425 1.425 0 00.478-1.612 1.43 1.43 0 00-1.005-.909c.024-1.153.436-2.265 1.325-3.167 1.728-1.755 4.173-1.712 6.112-.598a1.43 1.43 0 001.384 1.778 1.427 1.427 0 001.384-1.778zm-1.777.867a.65.65 0 11.788-1.034.65.65 0 01-.788 1.034zm.427 13.396l-.034-.001a.649.649 0 10.034 0zm8.558-8.8a.646.646 0 01.177-.827.649.649 0 11-.177.827zm-17.105-.31a.649.649 0 11-1.297 0 .649.649 0 011.297 0z" class="stroke_4" clip-rule="evenodd"/>
          <g class="stroke 2_4">
            <path fill="#F24E1E" d="M17.095 40.672zM24.532 36.907z"/>
            <path fill="#F24E1E" fill-rule="evenodd" d="M14.808 42.06c0-.616.286-1.164.73-1.52a6.054 6.054 0 011.773-4.13c2.31-2.344 5.445-2.231 7.833-.94a1.941 1.941 0 011.545 0c2.387-1.291 5.523-1.404 7.832.94a6.054 6.054 0 011.773 4.13 1.947 1.947 0 01-.717 3.402 8.903 8.903 0 01-1.218 1.952c-1.841 2.243-4.235 4.175-6.5 5.824a1.947 1.947 0 11-3.888 0c-2.264-1.65-4.656-3.581-6.497-5.824a8.906 8.906 0 01-1.218-1.953 1.947 1.947 0 01-1.448-1.882zm2.873-5.285a5.536 5.536 0 00-1.624 3.788 6.209 6.209 0 00-.003.252 1.426 1.426 0 00-.727 1.244 1.428 1.428 0 001.295 1.422 8.253 8.253 0 001.253 2.084c1.865 2.273 4.324 4.232 6.654 5.915a1.427 1.427 0 102.774 0c2.33-1.682 4.789-3.642 6.654-5.915a8.383 8.383 0 001.254-2.084 1.428 1.428 0 00.567-2.665 5.536 5.536 0 00-1.627-4.04c-2.18-2.215-5.182-2.054-7.454-.714a1.42 1.42 0 00-.78-.232 1.42 1.42 0 00-.781.232c-2.272-1.34-5.274-1.501-7.455.713z" clip-rule="evenodd"/>
          </g>
        </g>
      </g>
      <g class="symbol_7">
        <g class="♥ hearts_7">
          <g class="fill_5">
            <path fill="#F24E1E" d="M33.413 10.755C31.685 9 29.24 9.043 27.3 10.156a1.43 1.43 0 01-1.384 1.778 1.427 1.427 0 01-1.384-1.778c-1.94-1.114-4.384-1.157-6.112.598-.89.902-1.3 2.014-1.325 3.167a1.428 1.428 0 01.527 2.52c.264.604.62 1.183 1.055 1.713 1.778 2.166 4.144 4.058 6.448 5.724a1.42 1.42 0 01.79-.239c.293 0 .565.088.792.24 2.304-1.666 4.67-3.56 6.448-5.725.435-.53.791-1.11 1.055-1.713a1.428 1.428 0 01.527-2.52c-.024-1.153-.435-2.265-1.324-3.167z"/>
            <path fill="#F24E1E" d="M25.523 11.024a.65.65 0 01.393-1.165.649.649 0 11-.393 1.165zM25.916 24.419h.034a.649.649 0 11-.034 0zM34.508 15.62a.646.646 0 01.177-.827.649.649 0 11-.177.827zM16.755 15.958a.649.649 0 100-1.298.649.649 0 000 1.298z"/>
          </g>
          <path fill="#fff" fill-rule="evenodd" d="M35.778 14.065c.014-1.439-.468-2.865-1.626-4.04-2.181-2.214-5.183-2.053-7.455-.713a1.42 1.42 0 00-1.561 0c-2.272-1.34-5.274-1.501-7.455.712-1.158 1.176-1.64 2.602-1.627 4.04a1.427 1.427 0 00.568 2.666 8.36 8.36 0 001.253 2.085c1.865 2.272 4.324 4.232 6.654 5.914a1.427 1.427 0 102.774 0c2.33-1.682 4.789-3.641 6.654-5.914a8.362 8.362 0 001.254-2.085 1.428 1.428 0 00.567-2.665zM27.3 10.157c1.94-1.114 4.384-1.157 6.113.598a4.543 4.543 0 011.325 3.167 1.428 1.428 0 00-.528 2.52 7.357 7.357 0 01-1.055 1.713c-1.777 2.166-4.144 4.059-6.448 5.724a1.421 1.421 0 00-1.582 0c-2.304-1.666-4.67-3.558-6.448-5.724a7.528 7.528 0 01-.558-.776 7.16 7.16 0 01-.497-.937 1.425 1.425 0 00.478-1.611 1.43 1.43 0 00-1.005-.909c.024-1.153.436-2.265 1.325-3.168 1.728-1.754 4.173-1.71 6.112-.597a1.43 1.43 0 001.384 1.778 1.427 1.427 0 001.384-1.778zm-1.777.867a.65.65 0 11.787-1.033.65.65 0 01-.787 1.033zm.427 13.396l-.034-.001a.649.649 0 10.034 0zm8.558-8.8a.646.646 0 01.177-.827.649.649 0 11-.177.827zm-17.105-.311a.649.649 0 11-1.297 0 .649.649 0 011.297 0z" class="stroke_5" clip-rule="evenodd"/>
          <g class="stroke 2_5">
            <path fill="#F24E1E" d="M17.095 13.922zM24.532 10.157z"/>
            <path fill="#F24E1E" fill-rule="evenodd" d="M14.808 15.309c0-.615.286-1.164.73-1.52a6.054 6.054 0 011.773-4.129c2.31-2.345 5.445-2.232 7.833-.94a1.942 1.942 0 011.545 0c2.387-1.292 5.523-1.405 7.832.94a6.054 6.054 0 011.773 4.13 1.947 1.947 0 01-.717 3.402 8.903 8.903 0 01-1.218 1.952c-1.841 2.243-4.235 4.174-6.5 5.824a1.947 1.947 0 11-3.888 0c-2.264-1.65-4.656-3.581-6.497-5.824a8.906 8.906 0 01-1.218-1.953 1.947 1.947 0 01-1.448-1.882zm2.873-5.285a5.536 5.536 0 00-1.624 3.79 6.209 6.209 0 00-.003.25 1.426 1.426 0 00-.727 1.244 1.428 1.428 0 001.295 1.422 8.253 8.253 0 001.253 2.085c1.865 2.272 4.324 4.232 6.654 5.914a1.427 1.427 0 102.774 0c2.33-1.682 4.789-3.641 6.654-5.914a8.383 8.383 0 001.254-2.085 1.428 1.428 0 00.567-2.665 5.536 5.536 0 00-1.627-4.04c-2.18-2.214-5.182-2.053-7.454-.713a1.42 1.42 0 00-1.561 0c-2.272-1.34-5.274-1.501-7.455.712z" clip-rule="evenodd"/>
          </g>
        </g>
      </g>
      <g class="symbol_8">
        <g class="♥ hearts_8">
          <g class="fill_6">
            <path fill="#F24E1E" d="M59.71 72.482c-1.729 1.754-4.173 1.711-6.113.597a1.43 1.43 0 00-1.384-1.778 1.427 1.427 0 00-1.384 1.778c-1.94 1.114-4.384 1.157-6.112-.597-.89-.903-1.3-2.015-1.325-3.168a1.428 1.428 0 00.527-2.52 7.357 7.357 0 011.055-1.712c1.778-2.167 4.144-4.06 6.448-5.724.227.15.498.238.79.238.293 0 .565-.088.791-.239 2.305 1.666 4.671 3.558 6.45 5.725.434.53.79 1.109 1.054 1.712a1.428 1.428 0 00.528 2.52c-.025 1.153-.437 2.265-1.325 3.168z"/>
            <path fill="#F24E1E" d="M51.82 72.213a.65.65 0 00.393 1.165.649.649 0 10-.393-1.165zM52.213 58.817h.034a.649.649 0 10-.034 0zM60.805 67.617a.646.646 0 00.177.827.649.649 0 10-.177-.827zM43.051 67.278a.649.649 0 110 1.298.649.649 0 010-1.298z"/>
          </g>
          <path fill="#fff" fill-rule="evenodd" d="M62.075 69.171c.014 1.44-.469 2.865-1.627 4.04-2.18 2.215-5.182 2.054-7.455.713a1.42 1.42 0 01-.78.232 1.42 1.42 0 01-.78-.232c-2.272 1.34-5.274 1.501-7.455-.712-1.158-1.175-1.64-2.602-1.627-4.04a1.427 1.427 0 01.567-2.666c.312-.75.74-1.458 1.254-2.085 1.865-2.272 4.324-4.232 6.654-5.914a1.429 1.429 0 011.387-1.766 1.427 1.427 0 011.387 1.765c2.33 1.683 4.789 3.642 6.654 5.915a8.362 8.362 0 011.254 2.085 1.428 1.428 0 01.567 2.665zm-8.478 3.908c1.94 1.114 4.384 1.157 6.113-.597a4.543 4.543 0 001.325-3.168 1.428 1.428 0 01-.528-2.52 7.36 7.36 0 00-1.055-1.713c-1.778-2.166-4.144-4.058-6.449-5.724a1.421 1.421 0 01-1.58 0c-2.305 1.666-4.671 3.558-6.45 5.724-.203.249-.39.508-.557.776a7.16 7.16 0 00-.497.937 1.425 1.425 0 01.478 1.612 1.43 1.43 0 01-1.005.908c.024 1.153.436 2.266 1.325 3.168 1.728 1.754 4.172 1.711 6.112.597a1.43 1.43 0 011.384-1.778 1.427 1.427 0 011.384 1.778zm-1.777-.866a.65.65 0 10.787 1.033.65.65 0 00-.787-1.033zm.427-13.396h-.034a.649.649 0 11.034 0zm8.558 8.8a.647.647 0 00.177.827.649.649 0 10-.177-.827zm-17.105.31a.649.649 0 10-1.297 0 .649.649 0 001.297 0z" class="stroke_6" clip-rule="evenodd"/>
          <g class="stroke 2_6">
            <path fill="#F24E1E" d="M43.392 69.314zM50.829 73.08z"/>
            <path fill="#F24E1E" fill-rule="evenodd" d="M41.105 67.927c0 .616.286 1.164.73 1.52a6.054 6.054 0 001.773 4.13c2.31 2.344 5.445 2.231 7.833.939a1.941 1.941 0 001.544 0c2.388 1.292 5.523 1.405 7.833-.94a6.054 6.054 0 001.773-4.129 1.947 1.947 0 00-.718-3.402 8.903 8.903 0 00-1.218-1.953c-1.84-2.243-4.234-4.174-6.498-5.823a1.947 1.947 0 10-3.888 0c-2.265 1.65-4.658 3.58-6.498 5.823a8.903 8.903 0 00-1.218 1.953c-.834.22-1.448.98-1.448 1.882zm2.873 5.285a5.536 5.536 0 01-1.624-3.789 6.206 6.206 0 01-.003-.252 1.426 1.426 0 01-.727-1.244 1.428 1.428 0 011.294-1.421 8.253 8.253 0 011.254-2.085c1.865-2.272 4.324-4.232 6.654-5.914a1.429 1.429 0 011.387-1.766 1.428 1.428 0 011.387 1.765c2.33 1.683 4.789 3.642 6.654 5.915a8.38 8.38 0 011.254 2.085 1.428 1.428 0 01.567 2.666 5.536 5.536 0 01-1.627 4.04c-2.18 2.214-5.182 2.053-7.455.712a1.42 1.42 0 01-.78.232 1.42 1.42 0 01-.78-.232c-2.272 1.34-5.274 1.501-7.455-.712z" clip-rule="evenodd"/>
          </g>
        </g>
      </g>
      <g class="symbol_9">
        <g class="♥ hearts_9">
          <g class="fill_7">
            <path fill="#F24E1E" d="M32.96 72.028c-1.729 1.755-4.174 1.712-6.113.598a1.427 1.427 0 10-2.768 0c-1.94 1.114-4.384 1.157-6.113-.598-.888-.902-1.3-2.014-1.325-3.167a1.428 1.428 0 00.528-2.52 7.358 7.358 0 011.055-1.713c1.777-2.166 4.144-4.058 6.448-5.724a1.42 1.42 0 001.581 0c2.305 1.665 4.671 3.558 6.45 5.724.434.53.79 1.11 1.054 1.712a1.428 1.428 0 00.528 2.52c-.025 1.154-.437 2.266-1.326 3.168z"/>
            <path fill="#F24E1E" d="M25.07 71.76a.651.651 0 00.393 1.165.649.649 0 10-.393-1.166zM25.462 58.364h.035a.649.649 0 10-.035 0zM34.055 67.164a.646.646 0 00.176.826.649.649 0 10-.177-.827zM16.301 66.825a.649.649 0 110 1.298.649.649 0 010-1.298z"/>
          </g>
          <path fill="#fff" fill-rule="evenodd" d="M35.325 68.718c.014 1.439-.469 2.865-1.627 4.04-2.18 2.214-5.183 2.053-7.455.713a1.42 1.42 0 01-1.56 0c-2.273 1.34-5.275 1.501-7.455-.713-1.158-1.175-1.64-2.601-1.627-4.04a1.427 1.427 0 01.567-2.665c.312-.75.74-1.458 1.254-2.085 1.865-2.273 4.324-4.232 6.653-5.915a1.428 1.428 0 112.775 0c2.33 1.683 4.788 3.642 6.654 5.915a8.36 8.36 0 011.254 2.085 1.428 1.428 0 01.567 2.665zm-8.478 3.908c1.94 1.114 4.384 1.157 6.112-.598a4.543 4.543 0 001.325-3.167 1.428 1.428 0 01-.527-2.52 7.358 7.358 0 00-1.055-1.713c-1.778-2.166-4.144-4.059-6.449-5.724a1.42 1.42 0 01-.79.239 1.42 1.42 0 01-.79-.239c-2.305 1.665-4.672 3.558-6.45 5.724-.203.248-.39.508-.558.775a7.16 7.16 0 00-.496.937 1.425 1.425 0 01.478 1.612 1.43 1.43 0 01-1.005.909c.024 1.153.436 2.265 1.324 3.167 1.729 1.755 4.173 1.712 6.113.598a1.43 1.43 0 011.384-1.778 1.427 1.427 0 011.384 1.778zm-1.777-.867a.65.65 0 10.786 1.033.65.65 0 00-.786-1.033zm.427-13.396l-.035.001a.649.649 0 11.035 0zm8.558 8.8a.646.646 0 00.176.827.649.649 0 10-.177-.827zm-17.105.31a.649.649 0 10-1.298.001.649.649 0 001.298 0z" class="stroke_7" clip-rule="evenodd"/>
          <g class="stroke 2_7">
            <path fill="#F24E1E" d="M16.642 68.86zM24.079 72.626z"/>
            <path fill="#F24E1E" fill-rule="evenodd" d="M14.355 67.474c0 .615.285 1.163.73 1.52a6.054 6.054 0 001.773 4.129c2.31 2.344 5.445 2.232 7.833.94a1.942 1.942 0 001.544 0c2.388 1.292 5.523 1.404 7.833-.94a6.054 6.054 0 001.773-4.13 1.947 1.947 0 00-.718-3.402 8.903 8.903 0 00-1.218-1.952c-1.84-2.243-4.234-4.175-6.499-5.824a1.947 1.947 0 10-3.888 0c-2.264 1.65-4.657 3.581-6.497 5.824a8.903 8.903 0 00-1.219 1.953c-.833.22-1.447.98-1.447 1.882zm2.873 5.284a5.537 5.537 0 01-1.625-3.788 6.206 6.206 0 01-.002-.252 1.426 1.426 0 01-.727-1.244 1.428 1.428 0 011.294-1.421 8.383 8.383 0 011.254-2.085c1.865-2.273 4.324-4.232 6.653-5.915a1.428 1.428 0 112.775 0c2.33 1.683 4.788 3.642 6.654 5.915a8.38 8.38 0 011.254 2.085 1.428 1.428 0 01.567 2.665c0 .084 0 .168-.003.252a5.537 5.537 0 01-1.624 3.788c-2.18 2.214-5.183 2.053-7.455.713a1.42 1.42 0 01-1.56 0c-2.273 1.34-5.275 1.501-7.455-.713z" clip-rule="evenodd"/>
          </g>
        </g>
      </g>
      <g class="symbol_10">
        <g class="♥ hearts_10">
          <g class="fill_8">
            <path fill="#F24E1E" d="M59.71 10.755C57.98 9 55.537 9.043 53.597 10.156a1.43 1.43 0 01-1.384 1.778 1.427 1.427 0 01-1.384-1.778c-1.94-1.114-4.384-1.157-6.112.598-.89.902-1.3 2.014-1.325 3.167a1.428 1.428 0 01.527 2.52c.264.604.62 1.183 1.055 1.713 1.778 2.166 4.144 4.058 6.448 5.724a1.42 1.42 0 01.79-.239c.293 0 .565.088.791.24 2.305-1.666 4.671-3.56 6.45-5.725.434-.53.79-1.11 1.054-1.713a1.428 1.428 0 01.528-2.52c-.025-1.153-.437-2.265-1.325-3.167z"/>
            <path fill="#F24E1E" d="M51.82 11.024a.65.65 0 01.393-1.165.649.649 0 11-.393 1.165zM52.213 24.419h.034a.649.649 0 11-.034 0zM60.805 15.62a.646.646 0 01.177-.827.649.649 0 11-.177.827zM43.051 15.958a.649.649 0 100-1.298.649.649 0 000 1.298z"/>
          </g>
          <path fill="#fff" fill-rule="evenodd" d="M62.075 14.065c.014-1.439-.469-2.865-1.627-4.04-2.18-2.214-5.182-2.053-7.455-.713a1.42 1.42 0 00-.78-.232 1.42 1.42 0 00-.78.232c-2.272-1.34-5.274-1.501-7.455.712-1.158 1.176-1.64 2.602-1.627 4.04a1.427 1.427 0 00.567 2.666c.312.75.74 1.458 1.254 2.085 1.865 2.272 4.324 4.232 6.654 5.914a1.429 1.429 0 001.387 1.766A1.427 1.427 0 0053.6 24.73c2.33-1.683 4.789-3.642 6.654-5.915a8.362 8.362 0 001.254-2.085 1.428 1.428 0 00.567-2.665zm-8.478-3.908c1.94-1.114 4.384-1.157 6.113.598a4.543 4.543 0 011.325 3.167 1.428 1.428 0 00-.528 2.52 7.36 7.36 0 01-1.055 1.713c-1.778 2.166-4.144 4.059-6.449 5.724a1.421 1.421 0 00-1.58 0c-2.305-1.666-4.671-3.558-6.45-5.724a7.559 7.559 0 01-.557-.776 7.16 7.16 0 01-.497-.937 1.425 1.425 0 00.478-1.611 1.43 1.43 0 00-1.005-.909c.024-1.153.436-2.265 1.325-3.168 1.728-1.754 4.172-1.71 6.112-.597a1.43 1.43 0 001.384 1.778 1.427 1.427 0 001.384-1.778zm-1.777.867a.65.65 0 11.787-1.033.65.65 0 01-.787 1.033zm.427 13.396l-.034-.001a.649.649 0 10.034 0zm8.558-8.8a.647.647 0 01.177-.827.649.649 0 11-.177.827zM43.7 15.308a.649.649 0 11-1.297 0 .649.649 0 011.297 0z" class="stroke_8" clip-rule="evenodd"/>
          <g class="stroke 2_8">
            <path fill="#F24E1E" d="M43.392 13.922zM50.829 10.157z"/>
            <path fill="#F24E1E" fill-rule="evenodd" d="M41.105 15.309c0-.615.286-1.164.73-1.52a6.054 6.054 0 011.773-4.129c2.31-2.345 5.445-2.232 7.833-.94a1.942 1.942 0 011.544 0c2.388-1.292 5.523-1.405 7.833.94a6.054 6.054 0 011.773 4.13 1.947 1.947 0 01-.718 3.402 8.903 8.903 0 01-1.218 1.952c-1.84 2.243-4.234 4.174-6.498 5.824l.002.1a1.947 1.947 0 11-3.89-.101c-2.265-1.65-4.658-3.58-6.498-5.823a8.903 8.903 0 01-1.218-1.953 1.947 1.947 0 01-1.448-1.882zm2.873-5.285a5.536 5.536 0 00-1.624 3.79 6.209 6.209 0 00-.003.25 1.426 1.426 0 00-.727 1.244 1.428 1.428 0 001.294 1.422 8.253 8.253 0 001.254 2.085c1.865 2.272 4.324 4.232 6.654 5.914a1.429 1.429 0 001.387 1.766A1.427 1.427 0 0053.6 24.73c2.33-1.683 4.789-3.642 6.654-5.915a8.38 8.38 0 001.254-2.085 1.428 1.428 0 00.567-2.665 5.536 5.536 0 00-1.627-4.04c-2.18-2.214-5.182-2.053-7.455-.713a1.42 1.42 0 00-.78-.232 1.42 1.42 0 00-.78.232c-2.272-1.34-5.274-1.501-7.455.712z" clip-rule="evenodd"/>
          </g>
        </g>
      </g>
      <g class="symbol_11">
        <g class="♥ hearts_11">
          <g class="fill_9">
            <path fill="#F24E1E" d="M59.71 36.598c-1.729-1.754-4.173-1.712-6.113-.598a1.43 1.43 0 01-1.384 1.778A1.427 1.427 0 0150.83 36c-1.94-1.114-4.384-1.156-6.112.598-.89.902-1.3 2.014-1.325 3.168a1.428 1.428 0 01.527 2.52c.264.603.62 1.182 1.055 1.712 1.778 2.166 4.144 4.059 6.448 5.724a1.421 1.421 0 011.581 0c2.305-1.665 4.671-3.558 6.45-5.724.434-.53.79-1.11 1.054-1.712a1.428 1.428 0 01.528-2.52c-.025-1.154-.437-2.266-1.325-3.168z"/>
            <path fill="#F24E1E" d="M51.82 36.867a.652.652 0 01-.256-.516.649.649 0 11.256.516zM52.213 50.262l.034.001a.649.649 0 11-.034 0zM60.805 41.463a.646.646 0 01.177-.827.649.649 0 11-.177.827zM43.051 41.801a.649.649 0 100-1.297.649.649 0 000 1.297z"/>
          </g>
          <path fill="#fff" fill-rule="evenodd" d="M62.075 39.908c.014-1.439-.469-2.865-1.627-4.04-2.18-2.214-5.182-2.053-7.455-.713a1.42 1.42 0 00-.78-.232 1.42 1.42 0 00-.78.232c-2.272-1.34-5.274-1.5-7.455.713-1.158 1.175-1.64 2.601-1.627 4.04a1.427 1.427 0 00.567 2.666c.312.75.74 1.458 1.254 2.084 1.865 2.273 4.324 4.232 6.654 5.915a1.428 1.428 0 102.774 0c2.33-1.682 4.789-3.642 6.654-5.915a8.363 8.363 0 001.254-2.084 1.428 1.428 0 00.567-2.666zm-8.478-3.907c1.94-1.114 4.384-1.157 6.113.597a4.543 4.543 0 011.325 3.168 1.428 1.428 0 00-.528 2.52 7.358 7.358 0 01-1.055 1.712c-1.778 2.166-4.144 4.059-6.449 5.725a1.42 1.42 0 00-.79-.24 1.42 1.42 0 00-.79.24c-2.305-1.666-4.671-3.559-6.45-5.725a7.548 7.548 0 01-.557-.775 7.16 7.16 0 01-.497-.937 1.425 1.425 0 00.478-1.612 1.43 1.43 0 00-1.005-.908c.024-1.154.436-2.266 1.325-3.168 1.728-1.754 4.172-1.712 6.112-.598a1.43 1.43 0 00.069.907 1.428 1.428 0 002.7-.906zm-1.777.866a.65.65 0 11.787-1.033.65.65 0 01-.787 1.033zm.427 13.396h-.034a.649.649 0 10.034 0zm8.558-8.8a.647.647 0 01.177-.827.649.649 0 11-.177.827zm-17.105-.31a.649.649 0 11-1.297 0 .649.649 0 011.297 0z" class="stroke_9" clip-rule="evenodd"/>
          <g class="stroke 2_9">
            <path fill="#F24E1E" d="M43.392 39.766zM50.829 36z"/>
            <path fill="#F24E1E" fill-rule="evenodd" d="M41.105 41.152c0-.615.286-1.163.73-1.52a6.054 6.054 0 011.773-4.128c2.31-2.345 5.445-2.232 7.833-.94a1.943 1.943 0 011.544 0c2.388-1.292 5.523-1.405 7.833.94a6.054 6.054 0 011.773 4.129 1.947 1.947 0 01-.718 3.402 8.905 8.905 0 01-1.218 1.953c-1.84 2.242-4.234 4.174-6.498 5.823l.002.1a1.947 1.947 0 11-3.89-.1c-2.265-1.65-4.658-3.58-6.498-5.823a8.905 8.905 0 01-1.218-1.954 1.947 1.947 0 01-1.448-1.882zm2.873-5.284a5.537 5.537 0 00-1.624 3.789 6.206 6.206 0 00-.003.251 1.426 1.426 0 00.567 2.665 8.38 8.38 0 001.254 2.085c1.865 2.273 4.324 4.232 6.653 5.915a1.428 1.428 0 102.775 0c2.33-1.682 4.789-3.642 6.654-5.915a8.38 8.38 0 001.254-2.084 1.428 1.428 0 00.567-2.665 5.537 5.537 0 00-1.627-4.04c-2.18-2.215-5.182-2.054-7.455-.714a1.42 1.42 0 00-.78-.232 1.42 1.42 0 00-.78.232c-2.272-1.34-5.274-1.5-7.455.713z" clip-rule="evenodd"/>
          </g>
        </g>
      </g>
    </g>
  </g>
</svg>
