<svg xmlns="http://www.w3.org/2000/svg" width="80" height="111" fill="none" viewBox="0 0 80 111">
  <g class="nine_diamond">
    <rect width="78.991" height="110.588" x=".3" fill="#fff" class="bg" rx="3.62"/>
    <g class="icons">
      <g class="symbol">
        <g class="♦ diamonds">
          <path fill="#F24E1E" d="M22.492 76.49l-5.68-6.617a1.745 1.745 0 00.046-2.726l5.638-6.587a1.74 1.74 0 001.03.336 1.74 1.74 0 001.032-.336l5.638 6.587c-.386.32-.63.804-.63 1.345 0 .561.264 1.06.675 1.38l-5.68 6.618a1.74 1.74 0 00-1.035-.34 1.74 1.74 0 00-1.034.34z" class="fill"/>
          <path fill="#fff" fill-rule="evenodd" d="M15.518 66.758l6.281-7.339a1.748 1.748 0 011.727-2.018 1.748 1.748 0 011.727 2.017l6.283 7.34a1.748 1.748 0 011.524 1.78v.002a1.748 1.748 0 01-1.435 1.672l-6.37 7.422a1.748 1.748 0 01-1.727 2.012h-.002a1.748 1.748 0 01-1.728-2.013l-6.37-7.421a1.748 1.748 0 01-1.435-1.672v-.001-.047c0-.89.665-1.624 1.525-1.734zm6.974 9.731l-5.68-6.617a1.745 1.745 0 00.046-2.725l5.638-6.587a1.74 1.74 0 001.03.336 1.74 1.74 0 001.032-.336l5.638 6.587c-.386.32-.63.804-.63 1.345 0 .561.264 1.06.675 1.38l-5.68 6.618a1.74 1.74 0 00-1.035-.34 1.74 1.74 0 00-1.034.34zm1.034-16.546a.794.794 0 110-1.588.794.794 0 010 1.588zm-.409 17.274a.794.794 0 10.817 1.362.794.794 0 00-.817-1.362zm-6.582-8.725a.793.793 0 11-1.589 0 .794.794 0 111.59 0zm14.329.655a.794.794 0 11.896-1.31.794.794 0 01-.896 1.31z" class="stroke" clip-rule="evenodd"/>
          <path fill="#F24E1E" fill-rule="evenodd" d="M13.357 68.492v.031a2.384 2.384 0 001.723 2.26l6.063 7.063v.052a2.383 2.383 0 002.383 2.384h.001a2.383 2.383 0 002.382-2.435l6.064-7.065a2.384 2.384 0 00-.1-4.607l-5.964-6.969v-.058a2.383 2.383 0 10-4.766.06l-5.963 6.967a2.384 2.384 0 00-1.823 2.317zm.637.048h-.001v-.001-.047c0-.89.665-1.624 1.525-1.734l6.281-7.339a1.748 1.748 0 011.727-2.018 1.748 1.748 0 011.727 2.017l6.283 7.34a1.748 1.748 0 011.524 1.78v.002a1.748 1.748 0 01-1.435 1.672l-6.37 7.422a1.748 1.748 0 01-1.727 2.012h-.002a1.748 1.748 0 01-1.728-2.013l-6.37-7.421a1.748 1.748 0 01-1.434-1.672z" class="stroke 2" clip-rule="evenodd"/>
          <g class="dots">
            <path fill="#F24E1E" d="M23.526 58.354a.794.794 0 110 1.589.794.794 0 010-1.59zM15.74 67.697a.794.794 0 110 1.59.794.794 0 010-1.59zM31.313 67.697a.795.795 0 110 1.59.795.795 0 010-1.59zM24.32 77.898a.794.794 0 11-1.588 0 .794.794 0 011.589 0z"/>
          </g>
        </g>
      </g>
      <g class="symbol_2">
        <g class="♦ diamonds_2">
          <path fill="#F24E1E" d="M38.814 63.794l-5.68-6.616a1.745 1.745 0 00.046-2.726l5.638-6.587a1.74 1.74 0 001.03.336 1.74 1.74 0 001.032-.336l5.638 6.587c-.385.32-.63.804-.63 1.345 0 .561.264 1.06.675 1.38l-5.68 6.618a1.74 1.74 0 00-1.035-.34 1.74 1.74 0 00-1.034.34z" class="fill_2"/>
          <path fill="#fff" fill-rule="evenodd" d="M31.84 54.063l6.281-7.339a1.75 1.75 0 011.727-2.018h.001a1.748 1.748 0 011.727 2.017l6.282 7.34a1.748 1.748 0 011.524 1.78v.002a1.749 1.749 0 01-1.435 1.672l-6.37 7.422a1.748 1.748 0 01-1.727 2.012h-.002a1.748 1.748 0 01-1.727-2.013l-6.37-7.421a1.749 1.749 0 01-1.435-1.672h-.001v-.001-.047c0-.89.665-1.625 1.525-1.734zm6.974 9.731l-5.68-6.616a1.745 1.745 0 00.046-2.726l5.638-6.587a1.74 1.74 0 001.03.336 1.74 1.74 0 001.032-.336l5.638 6.587c-.385.32-.63.804-.63 1.345 0 .561.264 1.06.675 1.38l-5.68 6.618a1.74 1.74 0 00-1.035-.34 1.74 1.74 0 00-1.034.34zm1.034-16.546a.794.794 0 110-1.588.794.794 0 010 1.588zm-.409 17.274a.794.794 0 10.818 1.362.794.794 0 00-.818-1.362zm-6.582-8.725a.794.794 0 11-1.587 0 .794.794 0 011.587 0zm14.329.655a.794.794 0 11.896-1.31.794.794 0 01-.896 1.31z" class="stroke_2" clip-rule="evenodd"/>
          <path fill="#F24E1E" fill-rule="evenodd" d="M29.68 55.797v.031c-.001.022 0 .044.001.067a2.384 2.384 0 001.722 2.192l6.062 7.063v.053a2.384 2.384 0 002.383 2.384h.001a2.383 2.383 0 002.382-2.435l6.064-7.065a2.385 2.385 0 001.722-2.192c.001-.023.002-.045.001-.067v-.031a2.384 2.384 0 00-1.822-2.317L42.23 46.51v-.058a2.384 2.384 0 10-4.766.06l-5.963 6.967a2.384 2.384 0 00-1.823 2.317zm.636.048h-.001v-.001-.047c0-.89.665-1.625 1.525-1.734l6.281-7.339a1.748 1.748 0 011.727-2.018h.001a1.748 1.748 0 011.727 2.017l6.282 7.34a1.748 1.748 0 011.524 1.78v.002a1.749 1.749 0 01-1.435 1.672l-6.37 7.422a1.748 1.748 0 01-1.727 2.012h-.002a1.748 1.748 0 01-1.727-2.013l-6.37-7.421a1.749 1.749 0 01-1.435-1.672z" class="stroke 2_2" clip-rule="evenodd"/>
          <g class="dots_2">
            <path fill="#F24E1E" d="M39.848 45.659a.794.794 0 110 1.589.794.794 0 010-1.59zM32.063 55.002a.794.794 0 110 1.59.794.794 0 010-1.59zM47.635 55.002a.794.794 0 110 1.59.794.794 0 010-1.59zM40.643 65.204a.794.794 0 11-1.59 0 .794.794 0 011.59 0z"/>
          </g>
        </g>
      </g>
      <g class="symbol_3">
        <g class="♦ diamonds_3">
          <path fill="#F24E1E" d="M49.696 75.582l-5.68-6.616a1.745 1.745 0 00.045-2.726l5.638-6.586a1.74 1.74 0 001.03.335 1.74 1.74 0 001.032-.336L57.4 66.24c-.386.321-.631.804-.631 1.345 0 .561.264 1.061.676 1.38l-5.68 6.618a1.74 1.74 0 00-1.035-.34 1.74 1.74 0 00-1.034.34z" class="fill_3"/>
          <path fill="#fff" fill-rule="evenodd" d="M42.721 65.851l6.282-7.339a1.749 1.749 0 011.727-2.018 1.748 1.748 0 011.727 2.017l6.283 7.34a1.748 1.748 0 011.524 1.78v.002a1.749 1.749 0 01-1.435 1.672l-6.371 7.422a1.748 1.748 0 01-1.727 2.012h-.001a1.748 1.748 0 01-1.728-2.013l-6.37-7.421a1.749 1.749 0 01-1.435-1.672v-.001-.047c0-.89.664-1.624 1.524-1.734zm6.975 9.731l-5.68-6.616a1.745 1.745 0 00.045-2.726l5.638-6.586a1.74 1.74 0 001.03.335 1.74 1.74 0 001.032-.336L57.4 66.24c-.386.321-.631.804-.631 1.345 0 .561.264 1.061.676 1.38l-5.68 6.618a1.74 1.74 0 00-1.035-.34 1.74 1.74 0 00-1.034.34zm1.034-16.546a.794.794 0 11-.001-1.588.794.794 0 010 1.588zm-.41 17.275a.794.794 0 10.818 1.361.794.794 0 00-.817-1.361zm-6.581-8.726a.794.794 0 11-1.588.001.794.794 0 011.588-.001zm14.328.655a.794.794 0 11.897-1.31.794.794 0 01-.897 1.31z" class="stroke_3" clip-rule="evenodd"/>
          <path fill="#F24E1E" fill-rule="evenodd" d="M40.56 67.585a3.308 3.308 0 00.003.098 2.384 2.384 0 001.721 2.193l6.063 7.063v.053a2.383 2.383 0 104.767-.052l6.063-7.064a2.384 2.384 0 001.721-2.193c.002-.022.002-.045.002-.067v-.031a2.384 2.384 0 00-1.823-2.317l-5.964-6.969v-.057a2.383 2.383 0 00-2.382-2.384h-.001a2.384 2.384 0 00-2.383 2.443l-5.963 6.967a2.384 2.384 0 00-1.823 2.317zm.637.048v-.001-.047c0-.89.664-1.624 1.524-1.734l6.282-7.339a1.748 1.748 0 011.727-2.019 1.748 1.748 0 011.727 2.018l6.283 7.34a1.748 1.748 0 011.524 1.78v.002a1.749 1.749 0 01-1.435 1.672l-6.371 7.422a1.748 1.748 0 01-1.727 2.013h-.001a1.748 1.748 0 01-1.728-2.014l-6.37-7.421a1.749 1.749 0 01-1.435-1.672z" class="stroke 2_3" clip-rule="evenodd"/>
          <g class="dots_3">
            <path fill="#F24E1E" d="M50.73 57.447a.794.794 0 110 1.59.794.794 0 010-1.59zM42.944 66.79a.794.794 0 110 1.59.794.794 0 010-1.59zM58.517 66.79a.794.794 0 110 1.59.794.794 0 010-1.59zM51.524 76.992a.794.794 0 11-1.589 0 .794.794 0 011.59 0z"/>
          </g>
        </g>
      </g>
      <g class="symbol_4">
        <g class="♦ diamonds_4">
          <path fill="#F24E1E" d="M23.399 48.379l-5.68-6.617a1.745 1.745 0 00.046-2.725l5.637-6.587a1.74 1.74 0 001.031.336 1.74 1.74 0 001.031-.337l5.639 6.588a1.745 1.745 0 00.045 2.725l-5.68 6.617a1.74 1.74 0 00-1.035-.339 1.74 1.74 0 00-1.034.339z" class="fill_4"/>
          <path fill="#fff" fill-rule="evenodd" d="M16.424 38.648l6.282-7.34a1.748 1.748 0 011.727-2.018 1.748 1.748 0 011.727 2.017l6.283 7.34a1.748 1.748 0 011.524 1.781v.002a1.748 1.748 0 01-1.435 1.671l-6.371 7.423a1.748 1.748 0 01-1.727 2.012h-.001a1.748 1.748 0 01-1.728-2.014l-6.37-7.42A1.748 1.748 0 0114.9 40.43v-.001-.048c0-.89.664-1.624 1.524-1.733zm6.975 9.73l-5.68-6.616a1.745 1.745 0 00.046-2.725l5.637-6.587a1.74 1.74 0 001.031.336 1.74 1.74 0 001.031-.337l5.639 6.588a1.745 1.745 0 00.045 2.725l-5.68 6.617a1.74 1.74 0 00-1.035-.339 1.74 1.74 0 00-1.034.339zm1.034-16.546a.79.79 0 01-.794-.794.794.794 0 11.794.794zm-.41 17.275a.794.794 0 10.818 1.362.794.794 0 00-.817-1.362zm-6.581-8.726a.794.794 0 11-1.587.001.794.794 0 011.587 0zm14.329.656a.794.794 0 11.896-1.31.794.794 0 01-.896 1.31z" class="stroke_4" clip-rule="evenodd"/>
          <path fill="#F24E1E" fill-rule="evenodd" d="M14.264 40.381a3.266 3.266 0 00.002.098 2.384 2.384 0 001.721 2.193l6.063 7.063v.053a2.383 2.383 0 104.766-.052l6.064-7.064a2.384 2.384 0 001.723-2.26v-.03a2.384 2.384 0 00-1.823-2.318l-5.964-6.968v-.058a2.383 2.383 0 00-2.382-2.384h-.001a2.383 2.383 0 00-2.383 2.443l-5.963 6.967a2.384 2.384 0 00-1.823 2.317zm.636.049v-.001-.048c0-.89.664-1.624 1.524-1.733l6.282-7.34a1.748 1.748 0 011.727-2.018 1.748 1.748 0 011.727 2.017l6.283 7.34a1.748 1.748 0 011.524 1.781v.002a1.748 1.748 0 01-1.435 1.671l-6.371 7.423a1.748 1.748 0 01-1.727 2.012h-.001a1.748 1.748 0 01-1.728-2.014l-6.37-7.42A1.749 1.749 0 0114.9 40.43z" class="stroke 2_4" clip-rule="evenodd"/>
          <g class="dots_4">
            <path fill="#F24E1E" d="M24.433 30.244a.794.794 0 110 1.588.794.794 0 010-1.588zM16.648 39.587a.794.794 0 110 1.589.794.794 0 010-1.59zM32.22 39.587a.794.794 0 110 1.589.794.794 0 010-1.59zM25.227 49.788a.794.794 0 11-1.588 0 .794.794 0 011.588 0z"/>
          </g>
        </g>
      </g>
      <g class="symbol_5">
        <g class="♦ diamonds_5">
          <path fill="#F24E1E" d="M23.61 21.99l-5.774-6.728a1.774 1.774 0 00.046-2.77l5.732-6.697a1.77 1.77 0 001.047.341c.393 0 .755-.127 1.049-.342l5.732 6.697a1.774 1.774 0 00.046 2.77l-5.774 6.729a1.769 1.769 0 00-1.053-.345c-.393 0-.757.128-1.05.344z" class="fill_5"/>
          <path fill="#fff" fill-rule="evenodd" d="M16.52 12.096l6.386-7.462a1.777 1.777 0 011.756-2.052 1.777 1.777 0 011.756 2.051l6.387 7.463a1.777 1.777 0 011.55 1.81v.002a1.778 1.778 0 01-1.46 1.699l-6.477 7.546a1.777 1.777 0 01-1.756 2.046 1.777 1.777 0 01-1.757-2.047l-6.476-7.545a1.778 1.778 0 01-1.46-1.7v-.001-.048c0-.904.676-1.651 1.55-1.762zm7.09 9.893l-5.774-6.727a1.774 1.774 0 00.046-2.77l5.732-6.697a1.77 1.77 0 001.047.341c.393 0 .755-.127 1.049-.342l5.732 6.697a1.774 1.774 0 00.046 2.77l-5.774 6.729a1.769 1.769 0 00-1.052-.345c-.394 0-.758.128-1.052.344zm1.052-16.822a.804.804 0 01-.808-.808.808.808 0 11.808.808zm-.416 17.562a.807.807 0 10.83 1.385.807.807 0 00-.83-1.385zm-6.692-8.87a.807.807 0 11-1.615 0 .808.808 0 111.615 0zm14.567.666a.807.807 0 11.912-1.332.807.807 0 01-.912 1.332z" class="stroke_5" clip-rule="evenodd"/>
          <path fill="#F24E1E" fill-rule="evenodd" d="M14.323 13.858a3.392 3.392 0 00.002.1 2.424 2.424 0 001.75 2.23l6.164 7.18v.054a2.423 2.423 0 002.422 2.423h.001a2.423 2.423 0 002.422-2.476l6.165-7.182a2.424 2.424 0 001.752-2.297v-.032c0-1.142-.79-2.099-1.853-2.356l-6.064-7.084v-.059a2.423 2.423 0 10-4.846.06l-6.062 7.083a2.424 2.424 0 00-1.853 2.356zm.647.05v-.002-.048c0-.904.675-1.651 1.55-1.763l6.386-7.46a1.777 1.777 0 011.756-2.052 1.777 1.777 0 011.756 2.05l6.387 7.462a1.777 1.777 0 011.55 1.81v.002a1.778 1.778 0 01-1.46 1.7l-6.477 7.546a1.777 1.777 0 01-1.756 2.046 1.777 1.777 0 01-1.757-2.047l-6.476-7.545a1.778 1.778 0 01-1.46-1.7z" class="stroke 2_5" clip-rule="evenodd"/>
          <g class="dots_5">
            <path fill="#F24E1E" d="M24.661 3.551a.808.808 0 110 1.616.808.808 0 010-1.616zM16.746 13.05a.808.808 0 110 1.616.808.808 0 010-1.616zM32.578 13.05a.808.808 0 110 1.616.808.808 0 010-1.616zM25.47 23.422a.808.808 0 11-1.616 0 .808.808 0 011.615 0z"/>
          </g>
        </g>
      </g>
      <g class="symbol_6">
        <g class="♦ diamonds_6">
          <path fill="#F24E1E" d="M49.696 95.439l-5.68-6.727c.412-.325.676-.833.676-1.404 0-.55-.245-1.04-.63-1.367l5.637-6.697a1.721 1.721 0 002.062 0L57.4 85.94c-.386.326-.631.817-.631 1.367 0 .57.264 1.079.676 1.404l-5.68 6.727a1.72 1.72 0 00-2.07 0z" class="fill_6"/>
          <path fill="#fff" fill-rule="evenodd" d="M42.721 85.545l6.282-7.46a1.807 1.807 0 01-.021-.276c0-.981.782-1.777 1.748-1.777s1.748.796 1.748 1.777c0 .093-.007.185-.02.274l6.282 7.462a1.768 1.768 0 011.524 1.81v.002a1.769 1.769 0 01-1.435 1.7l-6.371 7.546c.013.087.02.177.02.269 0 .98-.782 1.776-1.748 1.777-.965 0-1.748-.796-1.748-1.777 0-.092.007-.182.02-.27l-6.37-7.545a1.769 1.769 0 01-1.435-1.7v-.001-.048c0-.905.664-1.651 1.524-1.763zm6.975 9.894l-5.68-6.727c.412-.325.676-.833.676-1.404 0-.55-.245-1.04-.63-1.367l5.637-6.697a1.721 1.721 0 002.062 0L57.4 85.94a1.785 1.785 0 00-.631 1.367c0 .57.264 1.079.676 1.404l-5.68 6.727a1.721 1.721 0 00-2.07 0zm1.034-16.822a.78.78 0 01-.407-.114.81.81 0 01-.388-.694c0-.446.356-.808.795-.808.439 0 .794.362.794.808a.81.81 0 01-.387.694.78.78 0 01-.407.114zm-.41 17.562a.81.81 0 00-.385.693c0 .446.356.807.795.807a.801.801 0 00.794-.807.81.81 0 00-.384-.692.782.782 0 00-.82 0zm-6.581-8.871a.81.81 0 01-.345.666.782.782 0 01-.45.142.801.801 0 01-.794-.808c0-.446.356-.808.794-.808.188 0 .361.067.497.178a.811.811 0 01.298.63zm14.328.666a.81.81 0 01-.345-.666c0-.255.116-.482.298-.63a.783.783 0 01.496-.178c.44 0 .795.362.795.808a.801.801 0 01-.794.808.782.782 0 01-.45-.142z" class="stroke_6" clip-rule="evenodd"/>
          <path fill="#F24E1E" fill-rule="evenodd" d="M40.56 87.308a3.392 3.392 0 00.003.1 2.417 2.417 0 001.721 2.229l6.063 7.18v.055c0 1.338 1.066 2.423 2.383 2.423s2.383-1.085 2.383-2.423v-.053l6.064-7.182a2.417 2.417 0 001.721-2.23c.002-.022.002-.044.002-.067v-.032c0-1.142-.777-2.1-1.823-2.356l-5.964-7.084v-.059c0-1.338-1.066-2.423-2.382-2.423h-.001c-1.316 0-2.384 1.085-2.384 2.423l.001.06-5.963 7.083a2.416 2.416 0 00-1.823 2.356zm.637.05v-.002-.048c0-.905.664-1.651 1.524-1.763l6.282-7.46a1.82 1.82 0 01-.021-.276c0-.981.782-1.777 1.748-1.777s1.748.796 1.748 1.777c0 .093-.007.185-.02.274l6.282 7.462a1.768 1.768 0 011.524 1.81v.002a1.769 1.769 0 01-1.435 1.7l-6.371 7.546c.013.087.02.177.02.269 0 .98-.782 1.776-1.748 1.777-.965 0-1.748-.796-1.748-1.777 0-.092.007-.182.02-.27l-6.37-7.545a1.769 1.769 0 01-1.435-1.7z" class="stroke 2_6" clip-rule="evenodd"/>
          <g class="dots_6">
            <path fill="#F24E1E" d="M50.73 77.001c.439 0 .794.362.794.808a.801.801 0 01-.794.808.801.801 0 01-.795-.808c0-.446.356-.808.795-.808zM42.944 86.5c.44 0 .795.362.795.808a.801.801 0 01-.795.808.801.801 0 01-.794-.808c0-.446.356-.808.794-.808zM58.517 86.5c.438 0 .794.362.794.808a.801.801 0 01-.794.808.801.801 0 01-.795-.808c0-.446.356-.808.794-.808zM51.524 96.872a.801.801 0 01-.794.807.801.801 0 01-.795-.807c0-.446.356-.808.795-.808.439 0 .794.362.794.808z"/>
          </g>
        </g>
      </g>
      <g class="symbol_7">
        <g class="♦ diamonds_7">
          <path fill="#F24E1E" d="M22.945 95.892l-5.679-6.727c.411-.325.676-.833.676-1.404 0-.55-.245-1.04-.63-1.367l5.637-6.696a1.721 1.721 0 002.062 0l5.638 6.697c-.385.326-.63.817-.63 1.366 0 .571.264 1.08.676 1.404l-5.68 6.728a1.721 1.721 0 00-2.07 0z" class="fill_7"/>
          <path fill="#fff" fill-rule="evenodd" d="M15.971 85.999l6.282-7.462a1.82 1.82 0 01-.021-.275c0-.981.782-1.777 1.748-1.777.965 0 1.747.796 1.747 1.777 0 .094-.006.185-.02.274L31.989 86a1.768 1.768 0 011.525 1.81v.002a1.769 1.769 0 01-1.435 1.7l-6.371 7.545c.013.088.02.178.02.27 0 .98-.783 1.776-1.748 1.776-.966 0-1.748-.796-1.748-1.777 0-.092.007-.182.02-.27l-6.37-7.545a1.769 1.769 0 01-1.435-1.7v-.049c0-.904.664-1.65 1.524-1.762zm6.974 9.893l-5.68-6.727c.412-.325.677-.833.677-1.404 0-.55-.245-1.04-.63-1.367l5.637-6.696a1.721 1.721 0 002.062 0l5.638 6.697c-.385.326-.63.817-.63 1.366 0 .571.264 1.08.676 1.404l-5.68 6.728a1.72 1.72 0 00-2.07 0zM23.98 79.07a.78.78 0 01-.407-.113.81.81 0 01-.388-.695c0-.446.356-.807.795-.807.438 0 .794.361.794.807a.81.81 0 01-.387.694.78.78 0 01-.407.114zm-.41 17.563a.81.81 0 00-.385.692c0 .446.356.808.795.808a.801.801 0 00.794-.808.81.81 0 00-.384-.692.782.782 0 00-.82 0zM16.99 87.76a.81.81 0 01-.346.667.782.782 0 01-.449.141.801.801 0 01-.794-.808c0-.446.355-.807.794-.807.188 0 .361.066.497.177a.811.811 0 01.298.63zm14.328.667a.81.81 0 01-.345-.667c0-.254.116-.482.297-.63a.783.783 0 01.497-.177c.44 0 .795.361.795.807a.801.801 0 01-.795.808.782.782 0 01-.449-.141z" class="stroke_7" clip-rule="evenodd"/>
          <path fill="#F24E1E" fill-rule="evenodd" d="M13.81 87.761a3.392 3.392 0 00.003.1 2.417 2.417 0 001.721 2.23l6.063 7.18v.054c0 1.338 1.066 2.423 2.383 2.423s2.383-1.085 2.383-2.423v-.053l6.063-7.182a2.417 2.417 0 001.724-2.329c0-1.142-.777-2.099-1.823-2.355l-5.964-7.085v-.059c0-1.338-1.066-2.422-2.383-2.423-1.317 0-2.384 1.085-2.384 2.423v.06l-5.962 7.084a2.416 2.416 0 00-1.823 2.355zm.637.05v-.001-.049c0-.904.664-1.65 1.524-1.762l6.282-7.462a1.82 1.82 0 01-.021-.275c0-.981.782-1.777 1.748-1.777.965 0 1.748.796 1.748 1.777 0 .094-.008.185-.021.274L31.989 86a1.768 1.768 0 011.525 1.81v.002a1.769 1.769 0 01-1.435 1.7l-6.371 7.545c.013.088.02.178.02.27 0 .98-.783 1.776-1.748 1.776-.966 0-1.748-.796-1.748-1.777 0-.092.007-.182.02-.27l-6.37-7.545a1.769 1.769 0 01-1.435-1.7z" class="stroke 2_7" clip-rule="evenodd"/>
          <g class="dots_7">
            <path fill="#F24E1E" d="M23.98 77.455c.438 0 .794.361.794.807a.801.801 0 01-.794.808.801.801 0 01-.795-.808c0-.446.356-.807.795-.807zM16.194 86.954c.439 0 .795.361.795.807a.801.801 0 01-.795.808.801.801 0 01-.794-.808c0-.446.355-.807.794-.807zM31.766 86.954c.44 0 .795.361.795.807a.801.801 0 01-.795.808.801.801 0 01-.794-.808c0-.446.356-.807.794-.807zM24.774 97.325a.801.801 0 01-.794.808.801.801 0 01-.795-.808c0-.446.356-.808.795-.808.438 0 .794.362.794.808z"/>
          </g>
        </g>
      </g>
      <g class="symbol_8">
        <g class="♦ diamonds_8">
          <path fill="#F24E1E" d="M49.696 21.99l-5.68-6.728c.412-.325.676-.833.676-1.404 0-.55-.245-1.04-.63-1.367l5.637-6.696a1.721 1.721 0 002.062 0L57.4 12.49c-.386.326-.631.818-.631 1.367 0 .571.264 1.079.676 1.404l-5.68 6.728a1.72 1.72 0 00-2.07 0z" class="fill_8"/>
          <path fill="#fff" fill-rule="evenodd" d="M42.721 12.096l6.282-7.462a1.808 1.808 0 01-.021-.275c0-.981.782-1.777 1.748-1.777s1.748.796 1.748 1.777c0 .093-.007.185-.02.274l6.282 7.463a1.767 1.767 0 011.524 1.81v.002a1.769 1.769 0 01-1.435 1.699l-6.371 7.546c.013.088.02.178.02.269 0 .981-.782 1.777-1.748 1.777-.965 0-1.748-.796-1.748-1.777 0-.092.007-.182.02-.27l-6.37-7.545a1.769 1.769 0 01-1.435-1.7v-.001-.048c0-.904.664-1.651 1.524-1.762zm6.975 9.893l-5.68-6.727c.412-.325.676-.833.676-1.404 0-.55-.245-1.04-.63-1.367l5.637-6.696a1.721 1.721 0 002.062-.001l5.639 6.697a1.785 1.785 0 00-.631 1.367c0 .571.264 1.079.676 1.404l-5.68 6.728a1.72 1.72 0 00-2.07 0zM50.73 5.167a.78.78 0 01-.407-.114.81.81 0 01-.388-.694c0-.446.356-.808.795-.808.439 0 .794.362.794.808a.81.81 0 01-.387.694.781.781 0 01-.407.114zm-.41 17.562a.81.81 0 00-.385.693c0 .446.356.808.795.808a.801.801 0 00.794-.808.81.81 0 00-.384-.692.782.782 0 00-.82 0zm-6.581-8.87a.81.81 0 01-.345.666.782.782 0 01-.45.141.801.801 0 01-.794-.808c0-.446.356-.808.794-.808.188 0 .361.067.497.178a.811.811 0 01.298.63zm14.328.666a.81.81 0 01-.345-.667c0-.255.116-.482.298-.63a.783.783 0 01.496-.178c.44 0 .795.362.795.808a.801.801 0 01-.794.808.782.782 0 01-.45-.141z" class="stroke_8" clip-rule="evenodd"/>
          <path fill="#F24E1E" fill-rule="evenodd" d="M40.56 13.858a3.392 3.392 0 00.003.1 2.417 2.417 0 001.721 2.23l6.063 7.18v.054c0 1.338 1.066 2.423 2.383 2.423s2.383-1.085 2.383-2.423v-.053l6.064-7.182A2.417 2.417 0 0060.9 13.89v-.032c0-1.142-.777-2.099-1.823-2.356l-5.964-7.084v-.059c0-1.338-1.066-2.423-2.382-2.423h-.001c-1.316 0-2.384 1.085-2.384 2.423l.001.06-5.963 7.083a2.416 2.416 0 00-1.823 2.356zm.637.05v-.002-.048c0-.904.664-1.651 1.524-1.763l6.282-7.46a1.82 1.82 0 01-.021-.276c0-.981.782-1.777 1.748-1.777s1.748.796 1.748 1.777c0 .093-.007.185-.02.274l6.282 7.462a1.768 1.768 0 011.524 1.81v.002a1.769 1.769 0 01-1.435 1.7l-6.371 7.546c.013.088.02.178.02.269 0 .981-.782 1.777-1.748 1.777-.965 0-1.748-.796-1.748-1.777 0-.092.007-.182.02-.27l-6.37-7.545a1.769 1.769 0 01-1.435-1.7z" class="stroke 2_8" clip-rule="evenodd"/>
          <g class="dots_8">
            <path fill="#F24E1E" d="M50.73 3.551c.439 0 .794.362.794.808a.801.801 0 01-.794.808.801.801 0 01-.795-.808c0-.446.356-.808.795-.808zM42.944 13.05c.44 0 .795.362.795.808a.801.801 0 01-.795.808.801.801 0 01-.794-.808c0-.446.356-.808.794-.808zM58.517 13.05c.438 0 .794.362.794.808a.801.801 0 01-.794.808.801.801 0 01-.795-.808c0-.446.356-.808.794-.808zM51.524 23.422a.801.801 0 01-.794.808.801.801 0 01-.795-.808c0-.446.356-.808.795-.808.439 0 .794.362.794.808z"/>
          </g>
        </g>
      </g>
      <g class="symbol_9">
        <g class="♦ diamonds_9">
          <path fill="#F24E1E" d="M49.696 47.833l-5.68-6.727c.412-.326.676-.834.676-1.404 0-.55-.245-1.041-.63-1.367l5.637-6.697a1.721 1.721 0 002.062 0l5.639 6.697c-.386.326-.631.817-.631 1.367 0 .57.264 1.078.676 1.404l-5.68 6.727a1.721 1.721 0 00-2.07 0z" class="fill_9"/>
          <path fill="#fff" fill-rule="evenodd" d="M42.721 37.939l6.282-7.461a1.809 1.809 0 01-.021-.275c0-.982.782-1.777 1.748-1.777s1.748.795 1.748 1.777c0 .093-.007.184-.02.274l6.282 7.462a1.768 1.768 0 011.524 1.81v.001a1.769 1.769 0 01-1.435 1.7l-6.371 7.546c.013.088.02.178.02.27 0 .98-.782 1.776-1.748 1.776-.965 0-1.748-.795-1.748-1.777 0-.092.007-.182.02-.27l-6.37-7.545a1.769 1.769 0 01-1.435-1.7v-.048c0-.905.664-1.652 1.524-1.763zm6.975 9.894l-5.68-6.727c.412-.326.676-.834.676-1.404 0-.55-.245-1.041-.63-1.367l5.637-6.697a1.721 1.721 0 002.062 0l5.639 6.697a1.785 1.785 0 00-.631 1.367c0 .57.264 1.078.676 1.404l-5.68 6.727a1.721 1.721 0 00-2.07 0zM50.73 31.01a.781.781 0 01-.407-.113.81.81 0 01-.388-.694c0-.446.356-.808.795-.808.439 0 .794.362.794.808a.81.81 0 01-.387.693.782.782 0 01-.407.114zm-.41 17.563a.81.81 0 00-.385.692c0 .446.356.808.795.808a.801.801 0 00.794-.808.81.81 0 00-.384-.692.78.78 0 00-.82 0zm-6.581-8.871a.81.81 0 01-.345.666.782.782 0 01-.45.141.801.801 0 01-.794-.807c0-.446.356-.808.794-.808.188 0 .361.066.497.177a.811.811 0 01.298.63zm14.328.666a.81.81 0 01-.345-.666c0-.255.116-.483.298-.63a.783.783 0 01.496-.178c.44 0 .795.362.795.808a.801.801 0 01-.794.807.782.782 0 01-.45-.14z" class="stroke_9" clip-rule="evenodd"/>
          <path fill="#F24E1E" fill-rule="evenodd" d="M40.56 39.702l.001.032a2.417 2.417 0 001.723 2.297l6.063 7.18v.054c0 1.339 1.066 2.423 2.383 2.423s2.383-1.085 2.383-2.423v-.052l6.064-7.182a2.417 2.417 0 001.721-2.23c.002-.022.002-.045.002-.067v-.032c0-1.143-.777-2.1-1.823-2.356l-5.964-7.085v-.058c0-1.338-1.066-2.423-2.382-2.424h-.001c-1.316 0-2.384 1.085-2.384 2.424l.001.06-5.963 7.083a2.416 2.416 0 00-1.823 2.356zm.637.049v-.002-.047c0-.905.664-1.652 1.524-1.763l6.282-7.461a1.822 1.822 0 01-.021-.275c0-.982.782-1.777 1.748-1.777s1.748.795 1.748 1.777c0 .093-.007.184-.02.274l6.282 7.462a1.768 1.768 0 011.524 1.81v.001a1.769 1.769 0 01-1.435 1.7l-6.371 7.546c.013.088.02.178.02.27 0 .98-.782 1.776-1.748 1.776-.965 0-1.748-.795-1.748-1.777 0-.092.007-.182.02-.27l-6.37-7.545a1.769 1.769 0 01-1.435-1.7z" class="stroke 2_9" clip-rule="evenodd"/>
          <g class="dots_9">
            <path fill="#F24E1E" d="M50.73 29.395c.439 0 .794.362.794.808a.801.801 0 01-.794.807.801.801 0 01-.795-.807c0-.446.356-.808.795-.808zM42.944 38.894c.44 0 .795.362.795.808a.801.801 0 01-.795.807.801.801 0 01-.794-.807c0-.446.356-.808.794-.808zM58.517 38.894c.438 0 .794.362.794.808a.801.801 0 01-.794.807.801.801 0 01-.795-.807c0-.446.356-.808.794-.808zM51.524 49.265a.801.801 0 01-.794.808.801.801 0 01-.795-.808c0-.446.356-.807.795-.807.439 0 .794.361.794.807z"/>
          </g>
        </g>
      </g>
    </g>
    <g class="down">
      <g class="letter">
        <path fill="#222" d="M61.508 98.518c0 1.535.463 2.737 1.406 3.588.926.851 2.117 1.268 3.573 1.268 1.356 0 2.514-.417 3.507-1.268.992-.851 1.488-2.27 1.488-4.289v-4.555c0-1.953-.48-3.388-1.422-4.339-.943-.934-2.217-1.418-3.805-1.418-1.786 0-3.242.7-4.383 2.12l1.82.917c.562-.985 1.405-1.469 2.547-1.469.942 0 1.687.3 2.216.885.53.584.81 1.685.81 3.27v2.153c-.744-1.135-1.902-1.702-3.44-1.702-1.29 0-2.332.417-3.126 1.235-.794.817-1.191 2.019-1.191 3.604zm2.233.017c0-1.269.231-2.136.695-2.587.463-.45 1.058-.684 1.803-.684 1.588 0 2.613.801 3.043 2.386 0 1.77-.264 2.904-.794 3.404-.53.501-1.19.751-1.985.751-.76 0-1.406-.25-1.952-.751-.546-.5-.81-1.351-.81-2.52z" class="Vector"/>
      </g>
      <g class="symbol_10">
        <path fill="#F24E1E" d="M65.017 77.15l2.472 2.88-2.472 2.888-2.473-2.888 2.473-2.88z" class="♦ diamonds_10"/>
      </g>
    </g>
    <g class="up">
      <g class="letter_2">
        <path fill="#222" d="M4.834 8.483c0-1.535.463-2.737 1.406-3.588.926-.85 2.117-1.268 3.573-1.268 1.356 0 2.514.417 3.506 1.268.993.851 1.49 2.27 1.49 4.289v4.555c0 1.952-.48 3.387-1.423 4.339-.943.934-2.217 1.418-3.805 1.418-1.786 0-3.242-.7-4.383-2.12l1.82-.917c.562.985 1.405 1.468 2.547 1.468.942 0 1.687-.3 2.216-.884.53-.584.81-1.685.81-3.27V11.62c-.744 1.135-1.902 1.702-3.44 1.702-1.29 0-2.332-.417-3.126-1.235-.794-.817-1.191-2.019-1.191-3.604zm2.233-.017c0 1.268.231 2.136.694 2.587.464.45 1.06.684 1.804.684 1.588 0 2.613-.801 3.043-2.386 0-1.77-.264-2.904-.794-3.404-.53-.501-1.19-.751-1.985-.751-.76 0-1.406.25-1.952.75-.546.501-.81 1.352-.81 2.52z" class="Vector_2"/>
      </g>
      <g class="symbol_11">
        <path fill="#F24E1E" d="M10.493 27.544l-2.472-2.88 2.472-2.889 2.473 2.889-2.473 2.88z" class="♦ diamonds_11"/>
      </g>
    </g>
  </g>
</svg>
