<svg xmlns="http://www.w3.org/2000/svg" width="80" height="112" fill="none" viewBox="0 0 80 112">
  <g class="seven_clubs">
    <rect width="74.81" height="104.734" x=".111" y=".938" fill="#fff" rx="3.62"/>
    <rect width="78.991" height="110.588" x=".111" y=".938" fill="#fff" class="bg" rx="3.62"/>
    <g class="down">
      <g class="letter">
        <path fill="#222" d="M68.036 96.25c-1.27-1.948-1.955-4.028-2.022-6.26l-.066-1.547h-2.24l.068 1.664c.083 2.164.935 4.495 2.54 6.975l1.804 2.797c.634.949.935 1.782.935 2.514H61.32v1.465h9.975v-.716c0-1.248-.484-2.63-1.47-4.112l-1.788-2.78z" class="Vector"/>
      </g>
      <g class="symbol">
        <path fill="#2C2C2C" d="M63.13 81.826l.124-.47-.484-.032a1.75 1.75 0 111.691-2.517l.359.728.359-.728a1.75 1.75 0 111.691 2.517l-.484.033.125.469a1.752 1.752 0 01-1.691 2.201 1.75 1.75 0 01-1.69-2.201z" class="♣ club"/>
      </g>
    </g>
    <g class="up">
      <g class="letter_2">
        <path fill="#222" d="M11.815 12.172c-1.27 1.948-1.955 4.03-2.021 6.26l-.067 1.548h-2.24l.068-1.665c.083-2.164.935-4.494 2.54-6.975l1.804-2.797c.635-.948.935-1.78.935-2.513H5.1V4.565h9.974v.716c0 1.248-.484 2.63-1.47 4.111l-1.788 2.78z" class="Vector_2"/>
      </g>
      <g class="symbol_2">
        <path fill="#2C2C2C" d="M12.004 24.743l-.125.469.485.033a1.75 1.75 0 11-1.692 2.517l-.358-.729-.36.729a1.75 1.75 0 11-1.69-2.517l.484-.033-.125-.47a1.752 1.752 0 011.69-2.2 1.75 1.75 0 011.691 2.2z" class="♣ club_2"/>
      </g>
    </g>
    <g class="icons">
      <g class="symbol_3">
        <g class="♣ clubs">
          <g class="fill">
            <path fill="#2C2C2C" d="M33.692 61.507c-.28.494-.813.828-1.424.828a1.626 1.626 0 01-1.632-1.62c0-.817.608-1.492 1.399-1.605.017-.17.026-.342.026-.517 0-2.848-2.326-5.156-5.194-5.156s-5.193 2.309-5.193 5.156c0 .175.009.347.026.517.79.113 1.399.788 1.399 1.604 0 .895-.731 1.62-1.632 1.62a1.634 1.634 0 01-1.424-.827c-2.34.5-4.096 2.567-4.096 5.04 0 2.848 2.325 5.156 5.193 5.156a5.198 5.198 0 004.512-2.6 1.608 1.608 0 01-.417-1.082c0-.895.731-1.62 1.632-1.62.902 0 1.633.725 1.633 1.62 0 .415-.158.794-.417 1.081a5.198 5.198 0 004.512 2.601c2.868 0 5.193-2.308 5.193-5.156 0-2.473-1.755-4.54-4.096-5.04z"/>
            <path fill="#2C2C2C" d="M32.268 61.45a.742.742 0 01-.742-.736.743.743 0 011.484 0 .736.736 0 01-.742.737zM27.61 68.02a.74.74 0 01-.742.736.74.74 0 01-.742-.735.736.736 0 01.741-.737.742.742 0 01.742.737zM21.467 61.45a.743.743 0 01-.742-.736.743.743 0 011.484 0 .73.73 0 01-.336.616.742.742 0 01-.406.12z"/>
          </g>
          <path fill="#fff" fill-rule="evenodd" d="M26.144 70.477c.212-.264.402-.547.569-.843a1.641 1.641 0 00.309 0 6.385 6.385 0 005.573 3.248c3.523 0 6.38-2.836 6.38-6.335 0-2.944-2.024-5.42-4.766-6.13a6.36 6.36 0 00-.353-.08 1.622 1.622 0 00-.658-.955 6.302 6.302 0 00.05-.79c0-3.497-2.857-6.333-6.38-6.333-3.524 0-6.38 2.836-6.38 6.334a6.365 6.365 0 00.048.79 1.622 1.622 0 00-.657.954 6.36 6.36 0 00-.354.08c-2.741.71-4.765 3.186-4.765 6.13 0 3.499 2.856 6.335 6.38 6.335 2.029 0 3.836-.94 5.004-2.405zm6.124-9.026a.742.742 0 01-.742-.737.742.742 0 01.742-.736.736.736 0 110 1.473zm-1.632-.737c0-.816.608-1.491 1.399-1.604.017-.17.026-.342.026-.517 0-2.848-2.326-5.156-5.194-5.156s-5.193 2.309-5.193 5.156c0 .175.009.347.026.517.79.113 1.399.788 1.399 1.604 0 .895-.731 1.62-1.632 1.62a1.634 1.634 0 01-1.424-.827c-2.34.5-4.096 2.567-4.096 5.04 0 2.848 2.325 5.156 5.193 5.156a5.198 5.198 0 004.512-2.6 1.608 1.608 0 01-.417-1.082c0-.895.731-1.62 1.632-1.62.902 0 1.633.725 1.633 1.62 0 .415-.158.794-.417 1.081a5.198 5.198 0 004.512 2.601c2.868 0 5.193-2.308 5.193-5.156 0-2.473-1.755-4.54-4.096-5.04-.28.494-.813.828-1.424.828a1.626 1.626 0 01-1.632-1.62zm-3.027 7.307a.74.74 0 01-.742.736.74.74 0 01-.742-.736.736.736 0 01.742-.737.742.742 0 01.742.737zm-6.462-6.642a.743.743 0 001.061-.665.743.743 0 00-1.484 0c0 .293.173.547.423.665z" class="stroke" clip-rule="evenodd"/>
          <path fill="#2C2C2C" fill-rule="evenodd" d="M26.61 70.843c.089-.112.175-.227.257-.344a6.983 6.983 0 005.728 2.972c3.851 0 6.973-3.1 6.973-6.924 0-3.219-2.212-5.923-5.209-6.7l-.048-.012a2.214 2.214 0 00-.49-.705l.001-.026c.013-.169.019-.34.019-.511 0-3.824-3.122-6.924-6.974-6.924-3.851 0-6.973 3.1-6.973 6.924a6.974 6.974 0 00.02.537c-.206.2-.373.439-.49.705l-.048.013c-2.997.776-5.21 3.48-5.21 6.7 0 3.823 3.123 6.923 6.974 6.923a6.98 6.98 0 005.47-2.628zm.98-.366a6.359 6.359 0 01-.568-.843 1.641 1.641 0 01-.309 0 6.128 6.128 0 01-.569.843 6.385 6.385 0 01-5.004 2.405c-3.524 0-6.38-2.836-6.38-6.335 0-2.944 2.024-5.42 4.765-6.13a6.36 6.36 0 01.354-.08c.094-.393.333-.73.657-.955a6.302 6.302 0 01-.049-.79c0-3.497 2.857-6.333 6.38-6.333 3.524 0 6.38 2.836 6.38 6.334a6.365 6.365 0 01-.049.79c.325.223.563.56.658.954.119.024.237.05.353.08 2.742.71 4.766 3.186 4.766 6.13 0 3.499-2.857 6.335-6.38 6.335a6.385 6.385 0 01-5.005-2.405z" class="stroke 2" clip-rule="evenodd"/>
        </g>
      </g>
      <g class="symbol_4">
        <g class="♣ clubs_2">
          <g class="fill_2">
            <path fill="#2C2C2C" d="M34.145 18.434c-.28.494-.812.828-1.423.828a1.626 1.626 0 01-1.633-1.62c0-.816.608-1.492 1.4-1.604.016-.17.025-.343.025-.518 0-2.847-2.325-5.155-5.193-5.155-2.868 0-5.193 2.308-5.193 5.155 0 .175.008.348.025.518.791.112 1.399.788 1.399 1.604 0 .895-.73 1.62-1.632 1.62a1.634 1.634 0 01-1.424-.828c-2.34.5-4.096 2.567-4.096 5.041 0 2.848 2.325 5.156 5.194 5.156a5.198 5.198 0 004.511-2.601 1.608 1.608 0 01-.416-1.082c0-.895.73-1.62 1.632-1.62.901 0 1.632.725 1.632 1.62 0 .416-.158.795-.417 1.082a5.198 5.198 0 004.512 2.6c2.868 0 5.193-2.307 5.193-5.155 0-2.474-1.755-4.54-4.096-5.04z"/>
            <path fill="#2C2C2C" d="M32.722 18.378a.742.742 0 01-.742-.736.742.742 0 011.484 0 .736.736 0 01-.742.736zM28.063 24.948a.74.74 0 01-.742.736.74.74 0 01-.742-.736.736.736 0 01.742-.736.742.742 0 01.742.736zM21.92 18.378a.742.742 0 01-.742-.736.74.74 0 01.742-.737.742.742 0 01.742.737.728.728 0 01-.335.616.742.742 0 01-.407.12z"/>
          </g>
          <path fill="#fff" fill-rule="evenodd" d="M26.598 27.405c.21-.265.401-.547.568-.844a1.644 1.644 0 00.31 0 6.385 6.385 0 005.573 3.248c3.523 0 6.38-2.836 6.38-6.334 0-2.944-2.025-5.42-4.766-6.13a6.356 6.356 0 00-.354-.08 1.622 1.622 0 00-.657-.955 6.418 6.418 0 00.049-.79c0-3.498-2.857-6.334-6.38-6.334-3.524 0-6.38 2.836-6.38 6.335a6.365 6.365 0 00.049.79 1.622 1.622 0 00-.658.954c-.119.023-.237.05-.353.08-2.742.71-4.766 3.186-4.766 6.13 0 3.498 2.857 6.334 6.38 6.334 2.029 0 3.836-.94 5.005-2.404zm6.124-9.027a.742.742 0 01-.742-.736.742.742 0 01.742-.736.736.736 0 110 1.473zm-1.633-.736c0-.816.608-1.492 1.4-1.604.016-.17.025-.343.025-.518 0-2.847-2.325-5.155-5.193-5.155-2.868 0-5.193 2.308-5.193 5.155 0 .175.008.348.025.518.791.112 1.399.788 1.399 1.604 0 .895-.73 1.62-1.632 1.62a1.634 1.634 0 01-1.424-.828c-2.34.5-4.096 2.567-4.096 5.041 0 2.848 2.325 5.156 5.194 5.156a5.198 5.198 0 004.511-2.601 1.608 1.608 0 01-.416-1.082c0-.895.73-1.62 1.632-1.62.901 0 1.632.725 1.632 1.62 0 .416-.158.795-.417 1.082a5.198 5.198 0 004.512 2.6c2.868 0 5.193-2.307 5.193-5.155 0-2.474-1.755-4.54-4.096-5.04-.28.493-.812.827-1.423.827a1.626 1.626 0 01-1.633-1.62zm-3.026 7.306a.74.74 0 01-.742.736.74.74 0 01-.742-.736.736.736 0 01.742-.736.742.742 0 01.742.736zM21.6 18.307a.743.743 0 001.06-.665.742.742 0 00-.742-.736.736.736 0 00-.32 1.401z" class="stroke_2" clip-rule="evenodd"/>
          <path fill="#2C2C2C" fill-rule="evenodd" d="M27.063 27.77c.09-.111.175-.226.258-.344a6.98 6.98 0 005.727 2.972c3.851 0 6.974-3.1 6.974-6.923 0-3.22-2.213-5.924-5.21-6.7a4.289 4.289 0 00-.048-.012 2.212 2.212 0 00-.49-.705c0-.009 0-.018.002-.026.012-.17.018-.34.018-.511 0-3.824-3.122-6.924-6.973-6.924-3.852 0-6.974 3.1-6.974 6.924a6.974 6.974 0 00.02.537c-.205.2-.373.438-.49.705a3.805 3.805 0 00-.048.012c-2.997.776-5.21 3.48-5.21 6.7 0 3.824 3.123 6.924 6.974 6.924a6.98 6.98 0 005.47-2.628zm.98-.365a6.376 6.376 0 01-.568-.844 1.641 1.641 0 01-.309 0 6.306 6.306 0 01-.568.844 6.386 6.386 0 01-5.005 2.404c-3.523 0-6.38-2.836-6.38-6.334 0-2.944 2.024-5.42 4.766-6.13.116-.03.234-.057.353-.08.095-.394.333-.731.658-.955a6.302 6.302 0 01-.05-.79c0-3.498 2.857-6.334 6.38-6.334 3.524 0 6.38 2.836 6.38 6.335a6.42 6.42 0 01-.048.79c.324.223.563.56.657.954.12.023.237.05.354.08 2.742.71 4.765 3.186 4.765 6.13 0 3.498-2.856 6.334-6.38 6.334a6.386 6.386 0 01-5.004-2.404z" class="stroke 2_2" clip-rule="evenodd"/>
        </g>
      </g>
      <g class="symbol_5">
        <g class="♣ clubs_3">
          <g class="fill_3">
            <path fill="#2C2C2C" d="M56.803 83.187a1.633 1.633 0 00-1.423-.827c-.902 0-1.633.725-1.633 1.62 0 .816.608 1.492 1.4 1.604.016.17.025.342.025.517 0 2.848-2.325 5.156-5.193 5.156-2.868 0-5.193-2.308-5.193-5.156 0-.175.008-.347.025-.517a1.625 1.625 0 001.4-1.604c0-.895-.732-1.62-1.633-1.62-.611 0-1.144.333-1.424.827-2.34-.5-4.096-2.567-4.096-5.04 0-2.848 2.325-5.156 5.194-5.156a5.198 5.198 0 014.512 2.6c-.26.288-.417.667-.417 1.083 0 .894.73 1.62 1.632 1.62.901 0 1.632-.725 1.632-1.62 0-.416-.158-.795-.417-1.082a5.198 5.198 0 014.512-2.601c2.868 0 5.193 2.308 5.193 5.156 0 2.473-1.755 4.54-4.096 5.04z"/>
            <path fill="#2C2C2C" d="M55.38 83.243a.742.742 0 00-.742.737.742.742 0 00.742.737.736.736 0 100-1.473zM50.72 76.674a.74.74 0 00-.742-.737.74.74 0 00-.741.736.736.736 0 00.742.737.743.743 0 00.742-.736zM44.578 83.243a.736.736 0 100 1.473.742.742 0 00.742-.736.73.73 0 00-.335-.616.742.742 0 00-.407-.12z"/>
          </g>
          <path fill="#fff" fill-rule="evenodd" d="M49.256 74.217c.211.265.401.547.568.843a1.675 1.675 0 01.31 0 6.385 6.385 0 015.573-3.248c3.523 0 6.38 2.836 6.38 6.335 0 2.944-2.024 5.42-4.766 6.13a6.45 6.45 0 01-.354.08c-.094.393-.333.73-.657.955a6.28 6.28 0 01.049.79c0 3.498-2.857 6.334-6.38 6.334-3.524 0-6.38-2.837-6.38-6.335a6.36 6.36 0 01.049-.79 1.622 1.622 0 01-.658-.954 6.45 6.45 0 01-.353-.08c-2.742-.71-4.766-3.186-4.766-6.13 0-3.499 2.857-6.335 6.38-6.335 2.029 0 3.836.94 5.005 2.405zm6.124 9.026a.742.742 0 00-.742.737.743.743 0 001.484 0 .736.736 0 00-.742-.737zm-1.633.737c0 .816.608 1.492 1.4 1.604.016.17.025.342.025.517 0 2.848-2.325 5.156-5.193 5.156-2.868 0-5.193-2.308-5.193-5.156 0-.175.008-.347.025-.517a1.625 1.625 0 001.4-1.604c0-.895-.732-1.62-1.633-1.62-.611 0-1.144.333-1.424.827-2.34-.5-4.096-2.567-4.096-5.04 0-2.848 2.325-5.156 5.194-5.156a5.198 5.198 0 014.512 2.6c-.26.288-.417.667-.417 1.083 0 .894.73 1.62 1.632 1.62.901 0 1.632-.725 1.632-1.62 0-.416-.158-.795-.417-1.082a5.198 5.198 0 014.512-2.601c2.868 0 5.193 2.308 5.193 5.156 0 2.473-1.755 4.54-4.096 5.04a1.633 1.633 0 00-1.423-.827c-.902 0-1.633.725-1.633 1.62zm-3.026-7.306a.74.74 0 00-.742-.737.74.74 0 00-.742.736.736.736 0 00.742.737.743.743 0 00.742-.736zm-6.462 6.641a.744.744 0 011.06.665.742.742 0 01-1.484 0c.001-.293.174-.547.424-.665z" class="stroke_3" clip-rule="evenodd"/>
          <path fill="#2C2C2C" fill-rule="evenodd" d="M49.721 73.851c.09.112.175.227.258.345a6.98 6.98 0 015.727-2.972c3.851 0 6.974 3.099 6.974 6.923 0 3.219-2.213 5.923-5.21 6.7l-.048.012a2.213 2.213 0 01-.49.705l.002.026c.012.17.018.34.018.511 0 3.824-3.122 6.924-6.973 6.924-3.852 0-6.974-3.1-6.974-6.924a6.978 6.978 0 01.02-.537 2.214 2.214 0 01-.49-.705 8.622 8.622 0 01-.048-.013c-2.997-.776-5.209-3.48-5.209-6.7 0-3.823 3.122-6.923 6.974-6.923a6.98 6.98 0 015.469 2.628zm.98.366a6.342 6.342 0 00-.568.843 1.675 1.675 0 00-.309 0 6.261 6.261 0 00-.568-.843 6.385 6.385 0 00-5.004-2.405c-3.524 0-6.38 2.836-6.38 6.335 0 2.944 2.023 5.42 4.765 6.13.116.03.234.056.353.08.095.393.333.73.658.955a6.28 6.28 0 00-.05.79c0 3.498 2.857 6.334 6.38 6.334 3.524 0 6.38-2.837 6.38-6.335a6.36 6.36 0 00-.048-.79c.324-.223.563-.56.657-.954.12-.024.237-.05.354-.08 2.742-.71 4.765-3.186 4.765-6.13 0-3.499-2.856-6.335-6.38-6.335-2.028 0-3.836.94-5.004 2.405z" class="stroke 2_3" clip-rule="evenodd"/>
        </g>
      </g>
      <g class="symbol_6">
        <g class="♣ clubs_4">
          <g class="fill_4">
            <path fill="#2C2C2C" d="M34.145 83.187a1.633 1.633 0 00-1.423-.827c-.902 0-1.633.725-1.633 1.62 0 .816.608 1.492 1.4 1.604.016.17.025.342.025.517 0 2.848-2.325 5.156-5.193 5.156-2.868 0-5.193-2.308-5.193-5.156 0-.175.008-.347.025-.517a1.625 1.625 0 001.399-1.604c0-.895-.73-1.62-1.632-1.62-.611 0-1.144.333-1.424.827-2.34-.5-4.096-2.567-4.096-5.04 0-2.848 2.325-5.156 5.194-5.156a5.198 5.198 0 014.511 2.6c-.259.288-.416.667-.416 1.083 0 .894.73 1.62 1.632 1.62.901 0 1.632-.725 1.632-1.62 0-.416-.158-.795-.417-1.082a5.198 5.198 0 014.512-2.601c2.868 0 5.193 2.308 5.193 5.156 0 2.473-1.755 4.54-4.096 5.04z"/>
            <path fill="#2C2C2C" d="M32.722 83.243a.743.743 0 00-.742.737.742.742 0 00.742.737.736.736 0 100-1.473zM28.063 76.674a.74.74 0 00-.742-.737.74.74 0 00-.742.736.736.736 0 00.742.737.736.736 0 00.742-.737zM21.92 83.243a.736.736 0 100 1.473.742.742 0 00.742-.736.728.728 0 00-.335-.616.743.743 0 00-.407-.12z"/>
          </g>
          <path fill="#fff" fill-rule="evenodd" d="M26.598 74.217c.21.265.401.547.568.843a1.679 1.679 0 01.31 0 6.386 6.386 0 015.573-3.248c3.523 0 6.38 2.836 6.38 6.335 0 2.944-2.025 5.42-4.766 6.13-.117.03-.235.056-.354.08-.094.393-.333.73-.657.955a6.394 6.394 0 01.049.79c0 3.498-2.857 6.334-6.38 6.334-3.524 0-6.38-2.837-6.38-6.335a6.36 6.36 0 01.049-.79 1.622 1.622 0 01-.658-.954 6.447 6.447 0 01-.353-.08c-2.742-.71-4.766-3.186-4.766-6.13 0-3.499 2.857-6.335 6.38-6.335 2.029 0 3.836.94 5.005 2.405zm6.124 9.026a.743.743 0 00-.742.737.742.742 0 001.484 0 .736.736 0 00-.742-.737zm-1.633.737c0 .816.608 1.492 1.4 1.604.016.17.025.342.025.517 0 2.848-2.325 5.156-5.193 5.156-2.868 0-5.193-2.308-5.193-5.156 0-.175.008-.347.025-.517a1.625 1.625 0 001.399-1.604c0-.895-.73-1.62-1.632-1.62-.611 0-1.144.333-1.424.827-2.34-.5-4.096-2.567-4.096-5.04 0-2.848 2.325-5.156 5.194-5.156a5.198 5.198 0 014.511 2.6c-.259.288-.416.667-.416 1.083 0 .894.73 1.62 1.632 1.62.901 0 1.632-.725 1.632-1.62 0-.416-.158-.795-.417-1.082a5.198 5.198 0 014.512-2.601c2.868 0 5.193 2.308 5.193 5.156 0 2.473-1.755 4.54-4.096 5.04a1.633 1.633 0 00-1.423-.827c-.902 0-1.633.725-1.633 1.62zm-3.026-7.306a.74.74 0 00-.742-.737.74.74 0 00-.742.736.736.736 0 00.742.737.736.736 0 00.742-.737zM21.6 83.315a.744.744 0 011.06.665.742.742 0 01-1.484 0c.001-.293.174-.547.424-.665z" class="stroke_4" clip-rule="evenodd"/>
          <path fill="#2C2C2C" fill-rule="evenodd" d="M27.063 73.851c.09.112.175.227.258.345a6.98 6.98 0 015.727-2.972c3.851 0 6.974 3.099 6.974 6.923 0 3.219-2.213 5.923-5.21 6.7l-.048.012a2.213 2.213 0 01-.49.705 6.978 6.978 0 01.02.538c0 3.823-3.122 6.923-6.973 6.923-3.852 0-6.974-3.1-6.974-6.924 0-.171.006-.342.019-.51l.002-.027a2.213 2.213 0 01-.49-.705 6.838 6.838 0 01-.049-.013c-2.997-.776-5.21-3.48-5.21-6.7 0-3.823 3.123-6.923 6.974-6.923a6.98 6.98 0 015.47 2.628zm.98.366a6.342 6.342 0 00-.568.843 1.675 1.675 0 00-.309 0 6.375 6.375 0 00-.152-.255l-.04-.063a6.386 6.386 0 00-5.381-2.93c-3.523 0-6.38 2.836-6.38 6.335 0 2.944 2.024 5.42 4.766 6.13.116.03.234.056.353.08.095.393.333.73.658.955a6.28 6.28 0 00-.05.79c0 3.498 2.857 6.334 6.38 6.334 3.524 0 6.38-2.837 6.38-6.335a6.416 6.416 0 00-.048-.79c.324-.223.563-.56.657-.954.12-.024.237-.05.354-.08 2.742-.71 4.765-3.186 4.765-6.13 0-3.499-2.856-6.335-6.38-6.335-2.028 0-3.836.94-5.004 2.405z" class="stroke 2_4" clip-rule="evenodd"/>
        </g>
      </g>
      <g class="symbol_7">
        <g class="♣ clubs_5">
          <g class="fill_5">
            <path fill="#2C2C2C" d="M58.629 18.888c-.28.494-.813.827-1.424.827a1.626 1.626 0 01-1.632-1.62c0-.816.608-1.491 1.398-1.604.017-.17.026-.342.026-.517 0-2.848-2.325-5.156-5.193-5.156-2.868 0-5.193 2.308-5.193 5.156 0 .175.009.347.026.517.79.113 1.398.788 1.398 1.604 0 .895-.73 1.62-1.632 1.62a1.634 1.634 0 01-1.424-.827c-2.34.5-4.095 2.567-4.095 5.04 0 2.848 2.325 5.156 5.193 5.156a5.198 5.198 0 004.512-2.6 1.608 1.608 0 01-.417-1.082c0-.895.73-1.62 1.632-1.62.901 0 1.632.725 1.632 1.62 0 .415-.157.794-.417 1.081a5.198 5.198 0 004.512 2.601c2.868 0 5.193-2.308 5.193-5.155 0-2.474-1.755-4.541-4.095-5.041z"/>
            <path fill="#2C2C2C" d="M57.205 18.832a.742.742 0 01-.742-.737.743.743 0 011.484 0 .736.736 0 01-.742.737zM52.546 25.402a.74.74 0 01-.742.737.74.74 0 01-.742-.737.736.736 0 01.742-.737.742.742 0 01.742.737zM46.403 18.832a.743.743 0 01-.742-.737.74.74 0 01.742-.736.742.742 0 01.742.736.73.73 0 01-.335.616.742.742 0 01-.407.12z"/>
          </g>
          <path fill="#fff" fill-rule="evenodd" d="M51.08 27.858c.212-.265.403-.547.57-.843a1.641 1.641 0 00.308 0 6.385 6.385 0 005.573 3.248c3.524 0 6.38-2.836 6.38-6.335 0-2.944-2.023-5.42-4.765-6.13a6.36 6.36 0 00-.354-.08 1.622 1.622 0 00-.657-.954 6.302 6.302 0 00.05-.79c0-3.498-2.857-6.334-6.381-6.334s-6.38 2.836-6.38 6.334a6.365 6.365 0 00.049.79 1.622 1.622 0 00-.657.954 6.36 6.36 0 00-.354.08c-2.742.71-4.765 3.186-4.765 6.13 0 3.499 2.856 6.335 6.38 6.335 2.028 0 3.835-.94 5.004-2.405zm6.125-9.026a.742.742 0 01-.742-.737.743.743 0 011.484 0 .736.736 0 01-.742.737zm-1.632-.737c0-.816.608-1.491 1.398-1.604.017-.17.026-.342.026-.517 0-2.848-2.325-5.156-5.193-5.156-2.868 0-5.193 2.308-5.193 5.156 0 .175.009.347.026.517.79.113 1.398.788 1.398 1.604 0 .895-.73 1.62-1.632 1.62a1.634 1.634 0 01-1.424-.827c-2.34.5-4.095 2.567-4.095 5.04 0 2.848 2.325 5.156 5.193 5.156a5.198 5.198 0 004.512-2.6 1.608 1.608 0 01-.417-1.082c0-.895.73-1.62 1.632-1.62.901 0 1.632.725 1.632 1.62 0 .415-.157.794-.417 1.081a5.198 5.198 0 004.512 2.601c2.868 0 5.193-2.308 5.193-5.155 0-2.474-1.755-4.541-4.095-5.041-.28.494-.813.827-1.424.827a1.626 1.626 0 01-1.632-1.62zm-3.027 7.307a.74.74 0 01-.742.737.74.74 0 01-.742-.737.736.736 0 01.742-.737.742.742 0 01.742.737zm-6.462-6.642a.743.743 0 001.061-.665.742.742 0 00-.742-.736.736.736 0 00-.32 1.402z" class="stroke_5" clip-rule="evenodd"/>
          <path fill="#2C2C2C" fill-rule="evenodd" d="M51.546 28.224c.09-.112.176-.227.258-.344a6.983 6.983 0 005.727 2.972c3.852 0 6.974-3.1 6.974-6.924 0-3.219-2.213-5.923-5.21-6.7a3.82 3.82 0 00-.048-.012 2.21 2.21 0 00-.49-.705l.002-.026c.012-.169.019-.34.019-.511 0-3.824-3.123-6.924-6.974-6.924s-6.974 3.1-6.974 6.924c0 .172.007.342.02.51l.001.027c-.206.2-.374.439-.49.705a4.305 4.305 0 00-.049.013c-2.996.776-5.209 3.48-5.209 6.7 0 3.823 3.122 6.923 6.974 6.923a6.98 6.98 0 005.47-2.628zm.981-.366a6.376 6.376 0 01-.569-.843 1.641 1.641 0 01-.308 0 6.128 6.128 0 01-.57.843 6.385 6.385 0 01-5.003 2.405c-3.524 0-6.38-2.836-6.38-6.335 0-2.944 2.023-5.42 4.765-6.13a6.36 6.36 0 01.353-.08c.095-.393.334-.73.658-.954a6.302 6.302 0 01-.05-.79c0-3.498 2.857-6.334 6.381-6.334s6.38 2.836 6.38 6.334a6.365 6.365 0 01-.049.79c.324.223.563.56.657.954.12.024.237.05.354.08 2.742.71 4.765 3.186 4.765 6.13 0 3.499-2.856 6.335-6.38 6.335a6.385 6.385 0 01-5.004-2.405z" class="stroke 2_5" clip-rule="evenodd"/>
        </g>
      </g>
      <g class="symbol_8">
        <g class="♣ clubs_6">
          <g class="fill_6">
            <path fill="#2C2C2C" d="M47.515 40.169c-.28.494-.813.828-1.424.828a1.626 1.626 0 01-1.632-1.62c0-.817.608-1.492 1.398-1.605.017-.17.026-.342.026-.517 0-2.848-2.325-5.156-5.193-5.156-2.868 0-5.193 2.309-5.193 5.156 0 .175.009.347.026.517.79.113 1.398.788 1.398 1.604 0 .895-.73 1.62-1.632 1.62a1.633 1.633 0 01-1.424-.827c-2.34.5-4.095 2.567-4.095 5.04 0 2.848 2.325 5.156 5.193 5.156a5.198 5.198 0 004.512-2.6 1.608 1.608 0 01-.417-1.082c0-.895.73-1.62 1.632-1.62.902 0 1.632.725 1.632 1.62 0 .415-.158.794-.417 1.081a5.198 5.198 0 004.512 2.601c2.868 0 5.193-2.308 5.193-5.156 0-2.473-1.755-4.54-4.095-5.04z"/>
            <path fill="#2C2C2C" d="M46.09 40.113a.743.743 0 01-.741-.737.742.742 0 01.742-.736c.41 0 .742.33.742.736a.736.736 0 01-.742.737zM41.432 46.683a.74.74 0 01-.742.737.74.74 0 01-.742-.737.736.736 0 01.742-.737.736.736 0 01.742.736zM35.29 40.113a.736.736 0 110-1.473.741.741 0 01.741.736.73.73 0 01-.335.616.743.743 0 01-.407.12z"/>
          </g>
          <path fill="#fff" fill-rule="evenodd" d="M39.967 49.14c.211-.266.402-.547.569-.844a1.676 1.676 0 00.308 0 6.386 6.386 0 005.573 3.248c3.524 0 6.38-2.836 6.38-6.335 0-2.944-2.023-5.42-4.765-6.13a6.356 6.356 0 00-.353-.08 1.622 1.622 0 00-.658-.955 6.302 6.302 0 00.05-.79c0-3.497-2.857-6.333-6.38-6.333-3.525 0-6.381 2.836-6.381 6.334a6.36 6.36 0 00.049.79 1.623 1.623 0 00-.657.954c-.12.024-.237.05-.354.08-2.742.71-4.765 3.186-4.765 6.13 0 3.499 2.856 6.335 6.38 6.335 2.028 0 3.835-.94 5.004-2.405zm6.124-9.027a.743.743 0 01-.742-.737.742.742 0 01.742-.736.736.736 0 110 1.473zm-1.632-.737c0-.816.608-1.491 1.398-1.604.017-.17.026-.342.026-.517 0-2.848-2.325-5.156-5.193-5.156-2.868 0-5.193 2.309-5.193 5.156 0 .175.009.347.026.517.79.113 1.398.788 1.398 1.604 0 .895-.73 1.62-1.632 1.62a1.633 1.633 0 01-1.424-.827c-2.34.5-4.095 2.567-4.095 5.04 0 2.848 2.325 5.156 5.193 5.156a5.198 5.198 0 004.512-2.6 1.608 1.608 0 01-.417-1.082c0-.895.73-1.62 1.632-1.62.902 0 1.632.725 1.632 1.62 0 .415-.158.794-.417 1.081a5.198 5.198 0 004.512 2.601c2.868 0 5.193-2.308 5.193-5.156 0-2.473-1.755-4.54-4.095-5.04-.28.494-.813.828-1.424.828a1.626 1.626 0 01-1.632-1.62zm-3.027 7.307a.74.74 0 01-.742.737.74.74 0 01-.742-.737.736.736 0 01.742-.737.736.736 0 01.742.736zM34.97 40.04a.744.744 0 001.061-.665.742.742 0 00-.742-.736.736.736 0 00-.32 1.402z" class="stroke_6" clip-rule="evenodd"/>
          <path fill="#2C2C2C" fill-rule="evenodd" d="M40.432 49.505c.09-.112.176-.227.258-.344a6.98 6.98 0 005.727 2.972c3.852 0 6.974-3.1 6.974-6.924 0-3.219-2.212-5.923-5.21-6.7l-.048-.012a2.212 2.212 0 00-.49-.705l.002-.026c.012-.169.019-.34.019-.511 0-3.824-3.123-6.924-6.974-6.924s-6.973 3.1-6.973 6.924c0 .172.006.342.018.51l.002.027c-.206.2-.374.439-.49.705a33.75 33.75 0 00-.049.013c-2.996.776-5.209 3.48-5.209 6.7 0 3.823 3.122 6.923 6.974 6.923a6.98 6.98 0 005.47-2.628zm.981-.366a6.383 6.383 0 01-.569-.843 1.679 1.679 0 01-.308 0 6.498 6.498 0 01-.569.843 6.386 6.386 0 01-5.004 2.405c-3.524 0-6.38-2.836-6.38-6.334 0-2.945 2.023-5.42 4.765-6.13.117-.03.235-.057.354-.081.094-.393.333-.73.657-.955a6.418 6.418 0 01-.049-.79c0-3.497 2.856-6.333 6.38-6.333s6.38 2.836 6.38 6.334a6.36 6.36 0 01-.049.79c.325.223.563.56.658.954.119.024.236.05.353.08 2.742.71 4.765 3.186 4.765 6.13 0 3.499-2.856 6.335-6.38 6.335a6.386 6.386 0 01-5.004-2.405z" class="stroke 2_6" clip-rule="evenodd"/>
        </g>
      </g>
      <g class="symbol_9">
        <g class="♣ clubs_7">
          <g class="fill_7">
            <path fill="#2C2C2C" d="M56.815 61.507c-.28.494-.812.828-1.424.828a1.626 1.626 0 01-1.632-1.62c0-.817.608-1.492 1.399-1.605.017-.17.026-.342.026-.517 0-2.848-2.325-5.156-5.194-5.156-2.868 0-5.193 2.309-5.193 5.156 0 .175.01.347.026.517.79.113 1.399.788 1.399 1.604 0 .895-.73 1.62-1.632 1.62a1.634 1.634 0 01-1.424-.827c-2.34.5-4.096 2.567-4.096 5.04 0 2.848 2.325 5.156 5.193 5.156a5.198 5.198 0 004.512-2.6 1.608 1.608 0 01-.417-1.082c0-.895.731-1.62 1.633-1.62.9 0 1.632.725 1.632 1.62 0 .415-.158.794-.417 1.081a5.198 5.198 0 004.512 2.601c2.868 0 5.193-2.308 5.193-5.156 0-2.473-1.755-4.54-4.096-5.04z"/>
            <path fill="#2C2C2C" d="M55.391 61.45a.741.741 0 01-.742-.736.742.742 0 01.742-.736.736.736 0 110 1.473zM50.732 68.02a.74.74 0 01-.742.736.74.74 0 01-.741-.735.736.736 0 01.741-.737.742.742 0 01.742.737zM44.59 61.45a.743.743 0 01-.742-.736.743.743 0 011.484 0 .73.73 0 01-.336.616.742.742 0 01-.406.12z"/>
          </g>
          <path fill="#fff" fill-rule="evenodd" d="M49.267 70.477c.212-.264.402-.547.57-.843a1.641 1.641 0 00.308 0 6.385 6.385 0 005.573 3.248c3.523 0 6.38-2.836 6.38-6.335 0-2.944-2.024-5.42-4.765-6.13a6.38 6.38 0 00-.354-.08 1.622 1.622 0 00-.657-.955 6.302 6.302 0 00.049-.79c0-3.497-2.857-6.333-6.38-6.333-3.524 0-6.38 2.836-6.38 6.334a6.42 6.42 0 00.049.79 1.622 1.622 0 00-.658.954 6.36 6.36 0 00-.354.08c-2.741.71-4.765 3.186-4.765 6.13 0 3.499 2.857 6.335 6.38 6.335 2.029 0 3.836-.94 5.004-2.405zm6.124-9.026a.741.741 0 01-.742-.737.742.742 0 01.742-.736.736.736 0 110 1.473zm-1.632-.737c0-.816.608-1.491 1.399-1.604.017-.17.026-.342.026-.517 0-2.848-2.325-5.156-5.194-5.156-2.868 0-5.193 2.309-5.193 5.156 0 .175.01.347.026.517.79.113 1.399.788 1.399 1.604 0 .895-.73 1.62-1.632 1.62a1.634 1.634 0 01-1.424-.827c-2.34.5-4.096 2.567-4.096 5.04 0 2.848 2.325 5.156 5.193 5.156a5.198 5.198 0 004.512-2.6 1.608 1.608 0 01-.417-1.082c0-.895.731-1.62 1.633-1.62.9 0 1.632.725 1.632 1.62 0 .415-.158.794-.417 1.081a5.198 5.198 0 004.512 2.601c2.868 0 5.193-2.308 5.193-5.156 0-2.473-1.755-4.54-4.096-5.04-.28.494-.812.828-1.424.828a1.626 1.626 0 01-1.632-1.62zm-3.027 7.307a.74.74 0 01-.742.736.74.74 0 01-.741-.736.736.736 0 01.741-.737.742.742 0 01.742.737zm-6.462-6.642a.743.743 0 001.061-.665.743.743 0 00-1.484 0c0 .293.173.547.423.665z" class="stroke_7" clip-rule="evenodd"/>
          <path fill="#2C2C2C" fill-rule="evenodd" d="M49.733 70.843c.09-.112.175-.227.258-.344a6.983 6.983 0 005.727 2.972c3.851 0 6.973-3.1 6.973-6.924 0-3.219-2.212-5.923-5.209-6.7l-.048-.012a2.212 2.212 0 00-.49-.705l.001-.026c.013-.169.02-.34.02-.511 0-3.824-3.123-6.924-6.975-6.924-3.85 0-6.973 3.1-6.973 6.924 0 .172.006.342.019.51 0 .01 0 .019.002.027-.207.2-.374.439-.49.705l-.05.013c-2.996.776-5.208 3.48-5.208 6.7 0 3.823 3.122 6.923 6.973 6.923a6.98 6.98 0 005.47-2.628zm.98-.366a6.336 6.336 0 01-.568-.843 1.641 1.641 0 01-.309 0c-.049.086-.1.172-.152.256l-.04.062a6.385 6.385 0 01-5.381 2.93c-3.523 0-6.38-2.836-6.38-6.335 0-2.944 2.024-5.42 4.765-6.13a6.36 6.36 0 01.354-.08c.094-.393.333-.73.657-.955a6.302 6.302 0 01-.049-.79c0-3.497 2.857-6.333 6.38-6.333 3.524 0 6.38 2.836 6.38 6.334a6.365 6.365 0 01-.048.79c.324.223.563.56.657.954.119.024.237.05.354.08 2.741.71 4.765 3.186 4.765 6.13 0 3.499-2.857 6.335-6.38 6.335a6.385 6.385 0 01-5.004-2.405z" class="stroke 2_7" clip-rule="evenodd"/>
        </g>
      </g>
    </g>
  </g>
</svg>
