<svg xmlns="http://www.w3.org/2000/svg" width="80" height="112" fill="none" viewBox="0 0 80 112">
  <g class="seven_spades">
    <rect width="74.81" height="104.734" x=".111" y=".422" fill="#fff" rx="3.62"/>
    <rect width="78.991" height="110.588" x=".111" y=".422" fill="#fff" class="bg" rx="3.62"/>
    <g class="down">
      <g class="letter">
        <path fill="#222" d="M68.036 95.734c-1.27-1.947-1.955-4.028-2.022-6.26l-.066-1.547h-2.24l.068 1.664c.083 2.165.935 4.495 2.54 6.976l1.804 2.796c.634.949.935 1.782.935 2.514H61.32v1.465h9.975v-.716c0-1.248-.484-2.63-1.47-4.112l-1.788-2.78z" class="Vector"/>
      </g>
      <g class="symbol">
        <path fill="#2C2C2C" d="M67.632 80.912c.707-.863.875-2.068.1-2.857-.84-.852-2.115-.605-2.889.182-.774-.787-2.05-1.034-2.888-.181-.776.788-.608 1.993.1 2.856.763.932 1.808 1.733 2.788 2.427.98-.694 2.025-1.495 2.789-2.427z" class="â spades"/>
      </g>
    </g>
    <g class="up">
      <g class="letter_2">
        <path fill="#222" d="M11.815 11.657c-1.27 1.947-1.955 4.028-2.021 6.26l-.067 1.547h-2.24l.068-1.665c.083-2.164.935-4.494 2.54-6.975l1.804-2.796c.635-.95.935-1.782.935-2.514H5.1V4.049h9.974v.716c0 1.248-.484 2.63-1.47 4.112l-1.788 2.78z" class="Vector_2"/>
      </g>
      <g class="symbol_2">
        <path fill="#2C2C2C" d="M7.502 24.625c-.708.863-.875 2.068-.1 2.857.839.852 2.114.605 2.888-.182.775.787 2.05 1.034 2.889.182.775-.79.607-1.994-.1-2.857-.763-.932-1.809-1.733-2.789-2.427-.98.694-2.025 1.495-2.788 2.427z" class="â spades_2"/>
      </g>
    </g>
    <g class="icons">
      <g class="symbol_3">
        <g class="â spades_3">
          <g class="fill">
            <path fill="#2C2C2C" d="M18.568 58.1c1.814-2.21 4.228-4.141 6.58-5.84.23.153.508.243.806.243.299 0 .576-.09.807-.244 2.352 1.7 4.767 3.63 6.58 5.841.444.54.808 1.132 1.077 1.747a1.457 1.457 0 00.538 2.572c-.025 1.177-.445 2.312-1.352 3.232-1.763 1.79-4.258 1.747-6.237.61a1.458 1.458 0 00-1.412-1.814 1.457 1.457 0 00-1.413 1.814c-1.979 1.137-4.473 1.18-6.237-.61-.907-.92-1.327-2.055-1.352-3.232a1.457 1.457 0 00.538-2.572 7.508 7.508 0 011.077-1.747z"/>
            <path fill="#2C2C2C" d="M25.293 65.904a.663.663 0 111.325-.002.663.663 0 01-1.325.002zM25.92 51.707a.662.662 0 11.07 0M17.007 61.53a.665.665 0 00.261-.526.662.662 0 10-.26.527zM34.722 60.687a.659.659 0 00.18.844.662.662 0 10-.18-.844z"/>
          </g>
          <path fill="#fff" fill-rule="evenodd" d="M36.018 62.273c.014 1.469-.478 2.924-1.66 4.123-2.225 2.26-5.288 2.095-7.607.727a1.45 1.45 0 01-.796.237 1.45 1.45 0 01-.796-.237c-2.32 1.368-5.382 1.532-7.608-.727-1.181-1.199-1.673-2.654-1.66-4.123a1.456 1.456 0 01.58-2.72 8.533 8.533 0 011.279-2.127c1.903-2.319 4.412-4.318 6.789-6.035a1.459 1.459 0 011.415-1.801 1.457 1.457 0 011.416 1.8c2.377 1.718 4.886 3.717 6.79 6.036a8.53 8.53 0 011.28 2.128 1.457 1.457 0 01.578 2.72zM18.568 58.1c1.814-2.21 4.228-4.141 6.58-5.84.23.153.508.243.806.243.299 0 .576-.09.807-.244 2.352 1.7 4.767 3.63 6.58 5.841a7.461 7.461 0 011.076 1.747 1.452 1.452 0 00-.566 1.284 1.458 1.458 0 001.105 1.288 4.635 4.635 0 01-1.352 3.232c-.22.224-.452.42-.693.587-1.27.885-2.79 1.014-4.202.6a6.22 6.22 0 01-1.342-.577l.011-.048a1.457 1.457 0 10-2.836.049c-1.979 1.136-4.473 1.18-6.237-.61-.907-.921-1.327-2.056-1.352-3.233a1.447 1.447 0 00.918-.691 1.454 1.454 0 00-.38-1.88 7.507 7.507 0 011.077-1.748zm6.725 7.803a.661.661 0 111.323-.001.661.661 0 01-1.323.001zm0-14.857c0 .354.277.644.627.661h.07a.662.662 0 10-.698-.66zm-8.286 10.485a.665.665 0 00.261-.527.662.662 0 10-.26.527zm17.635-.548a.659.659 0 01.661-.641.662.662 0 11-.661.64z" class="stroke" clip-rule="evenodd"/>
          <path fill="#2C2C2C" fill-rule="evenodd" d="M34.57 57.09c-1.879-2.288-4.321-4.259-6.632-5.942l.003-.102a1.986 1.986 0 10-3.97.103c-2.311 1.683-4.753 3.653-6.63 5.941a9.085 9.085 0 00-1.244 1.994 1.987 1.987 0 00-.732 3.47 6.178 6.178 0 001.809 4.214c2.357 2.393 5.556 2.278 7.993.96a1.982 1.982 0 001.576 0c2.437 1.318 5.636 1.433 7.993-.96a6.178 6.178 0 001.809-4.213 1.987 1.987 0 00-.732-3.471 9.085 9.085 0 00-1.244-1.993zm.87 2.464a8.552 8.552 0 00-1.28-2.127c-1.904-2.32-4.413-4.32-6.79-6.036a1.459 1.459 0 00-1.416-1.801 1.457 1.457 0 00-1.415 1.801c-2.377 1.717-4.886 3.717-6.79 6.035a8.555 8.555 0 00-1.279 2.128 1.457 1.457 0 00-.579 2.72c0 .085 0 .17.003.256a5.65 5.65 0 001.657 3.867c2.226 2.258 5.289 2.094 7.608.727a1.45 1.45 0 001.592 0c2.319 1.367 5.382 1.531 7.607-.727a5.65 5.65 0 001.657-3.867c.003-.085.004-.17.003-.257a1.455 1.455 0 00.742-1.27 1.457 1.457 0 00-1.32-1.45z" class="stroke 2" clip-rule="evenodd"/>
        </g>
      </g>
      <g class="symbol_4">
        <g class="â spades_4">
          <g class="fill_2">
            <path fill="#2C2C2C" d="M18.568 20.922c1.814-2.21 4.228-4.142 6.58-5.84.23.153.508.242.806.242.299 0 .576-.09.807-.243 2.352 1.7 4.767 3.63 6.58 5.84.444.541.808 1.133 1.077 1.748a1.457 1.457 0 00.538 2.572c-.025 1.177-.445 2.311-1.352 3.232-1.763 1.79-4.258 1.747-6.237.61a1.458 1.458 0 00-1.412-1.814 1.457 1.457 0 00-1.413 1.814c-1.979 1.137-4.473 1.18-6.237-.61-.907-.92-1.327-2.055-1.352-3.232a1.457 1.457 0 00.538-2.572 7.507 7.507 0 011.077-1.747z"/>
            <path fill="#2C2C2C" d="M25.293 28.725a.661.661 0 111.323-.001.661.661 0 01-1.323.001zM25.92 14.53a.662.662 0 11.07-.001M17.007 24.353a.666.666 0 00.261-.527.662.662 0 10-.26.527zM34.722 23.51a.66.66 0 00.18.843.662.662 0 10-.18-.844z"/>
          </g>
          <path fill="#fff" fill-rule="evenodd" d="M36.018 25.095c.014 1.469-.478 2.924-1.66 4.123-2.225 2.26-5.288 2.095-7.607.727a1.45 1.45 0 01-1.593 0c-2.318 1.368-5.381 1.532-7.607-.727-1.181-1.2-1.673-2.654-1.66-4.123a1.456 1.456 0 01.58-2.72 8.534 8.534 0 011.279-2.127c1.903-2.319 4.412-4.318 6.789-6.035a1.46 1.46 0 011.415-1.802 1.457 1.457 0 011.416 1.801c2.377 1.717 4.886 3.717 6.79 6.036.525.64.961 1.362 1.28 2.127a1.457 1.457 0 01.578 2.72zm-17.45-4.173c1.814-2.21 4.228-4.142 6.58-5.841a1.45 1.45 0 001.613 0c2.352 1.7 4.767 3.63 6.58 5.84a7.461 7.461 0 011.076 1.747 1.452 1.452 0 00-.566 1.284 1.458 1.458 0 001.105 1.289 4.635 4.635 0 01-1.352 3.232c-.22.224-.452.419-.693.587-1.27.885-2.79 1.014-4.202.599a6.226 6.226 0 01-1.342-.576l.011-.049a1.457 1.457 0 10-2.836.049c-1.979 1.136-4.473 1.18-6.237-.61-.907-.92-1.327-2.055-1.352-3.232a1.45 1.45 0 00.918-.692 1.454 1.454 0 00-.38-1.88 7.51 7.51 0 011.077-1.747zm6.725 7.803a.663.663 0 111.325-.001.663.663 0 01-1.325.001zm0-14.857c0 .354.277.643.627.661h.07a.662.662 0 10-.698-.661zm-8.286 10.485a.665.665 0 00.261-.527.662.662 0 10-.26.527zm17.635-.549a.659.659 0 01.661-.64.662.662 0 11-.661.64z" class="stroke_2" clip-rule="evenodd"/>
          <path fill="#2C2C2C" fill-rule="evenodd" d="M34.57 19.912c-1.879-2.288-4.321-4.26-6.632-5.942l.003-.102a1.986 1.986 0 10-3.97.103c-2.311 1.682-4.753 3.653-6.63 5.941a9.085 9.085 0 00-1.244 1.993 1.987 1.987 0 00-.732 3.472 6.178 6.178 0 001.809 4.213c2.357 2.392 5.556 2.277 7.993.959a1.98 1.98 0 001.576 0c2.437 1.318 5.636 1.433 7.993-.96a6.178 6.178 0 001.809-4.212 1.987 1.987 0 00-.732-3.471 9.085 9.085 0 00-1.244-1.994zm.87 2.463a8.55 8.55 0 00-1.28-2.127c-1.904-2.319-4.413-4.319-6.79-6.036a1.46 1.46 0 00-1.416-1.8 1.457 1.457 0 00-1.415 1.801c-2.377 1.717-4.886 3.716-6.79 6.035a8.552 8.552 0 00-1.279 2.127 1.457 1.457 0 00-.579 2.72c0 .086 0 .171.003.257a5.65 5.65 0 001.657 3.866c2.226 2.26 5.289 2.095 7.608.727a1.45 1.45 0 001.593 0c2.318 1.368 5.38 1.532 7.606-.727a5.65 5.65 0 001.657-3.866c.003-.085.004-.171.003-.257a1.455 1.455 0 00.742-1.27 1.457 1.457 0 00-1.32-1.45z" class="stroke 2_2" clip-rule="evenodd"/>
        </g>
      </g>
      <g class="symbol_5">
        <g class="â spades_5">
          <g class="fill_3">
            <path fill="#2C2C2C" d="M41.69 81.028c1.815 2.21 4.23 4.142 6.58 5.841a1.45 1.45 0 011.613 0c2.353-1.699 4.768-3.63 6.582-5.84a7.51 7.51 0 001.076-1.748 1.457 1.457 0 01.538-2.572c-.025-1.176-.445-2.311-1.352-3.232-1.763-1.79-4.258-1.746-6.237-.61a1.458 1.458 0 01-1.412 1.815 1.457 1.457 0 01-1.413-1.815c-1.979-1.136-4.473-1.18-6.237.61-.907.92-1.327 2.056-1.352 3.233a1.457 1.457 0 01.539 2.571 7.51 7.51 0 001.076 1.747z"/>
            <path fill="#2C2C2C" d="M48.416 73.225a.663.663 0 101.325 0 .663.663 0 00-1.325 0zM49.043 87.421a.662.662 0 10.07 0M40.13 77.598a.666.666 0 01.261.526.662.662 0 11-.26-.526zM57.845 78.441a.659.659 0 01.18-.843.662.662 0 11-.18.844z"/>
          </g>
          <path fill="#fff" fill-rule="evenodd" d="M59.141 76.855c.014-1.468-.478-2.924-1.66-4.123-2.225-2.259-5.288-2.095-7.607-.727a1.45 1.45 0 00-.796-.237 1.45 1.45 0 00-.796.237c-2.319-1.368-5.382-1.532-7.608.727-1.181 1.2-1.673 2.655-1.66 4.123a1.456 1.456 0 00.58 2.72 8.53 8.53 0 001.279 2.127c1.903 2.319 4.412 4.318 6.789 6.035a1.459 1.459 0 001.415 1.802 1.457 1.457 0 001.416-1.801c2.377-1.717 4.886-3.717 6.79-6.036a8.53 8.53 0 001.28-2.127 1.457 1.457 0 00.578-2.72zm-17.45 4.173c1.814 2.21 4.228 4.142 6.58 5.841a1.45 1.45 0 01.806-.243c.299 0 .576.09.807.244 2.352-1.7 4.767-3.631 6.58-5.842a7.461 7.461 0 001.076-1.747 1.452 1.452 0 01-.566-1.284 1.458 1.458 0 011.105-1.287 4.635 4.635 0 00-1.352-3.232 4.938 4.938 0 00-.693-.588c-1.27-.885-2.79-1.014-4.202-.599a6.22 6.22 0 00-1.342.576l.012.049a1.457 1.457 0 11-2.836-.049c-1.98-1.136-4.474-1.18-6.238.61-.907.92-1.327 2.056-1.352 3.233a1.447 1.447 0 01.918.69 1.454 1.454 0 01-.379 1.88v.001c.269.615.632 1.207 1.076 1.747zm6.725-7.803a.661.661 0 101.323 0 .661.661 0 00-1.323 0zm0 14.857c0-.354.277-.643.627-.66h.07a.662.662 0 11-.698.66zM40.13 77.598a.665.665 0 01.261.526.662.662 0 11-.26-.526zm17.635.548a.659.659 0 00.661.64.662.662 0 10-.661-.64z" class="stroke_3" clip-rule="evenodd"/>
          <path fill="#2C2C2C" fill-rule="evenodd" d="M57.692 82.038c-1.878 2.289-4.32 4.26-6.631 5.942l.003.102a1.986 1.986 0 11-3.97-.102c-2.31-1.683-4.753-3.654-6.63-5.942a9.085 9.085 0 01-1.244-1.993 1.987 1.987 0 01-.732-3.471 6.178 6.178 0 011.81-4.214c2.356-2.392 5.555-2.277 7.992-.959a1.982 1.982 0 011.576 0c2.437-1.318 5.636-1.433 7.993.96a6.178 6.178 0 011.808 4.213 1.987 1.987 0 01-.732 3.471 9.081 9.081 0 01-1.243 1.993zm.87-2.463a8.552 8.552 0 01-1.28 2.127c-1.902 2.32-4.412 4.319-6.79 6.036a1.459 1.459 0 01-1.415 1.801 1.457 1.457 0 01-1.415-1.802c-2.377-1.717-4.886-3.716-6.79-6.035a8.552 8.552 0 01-1.279-2.127 1.457 1.457 0 01-.579-2.72c0-.086 0-.171.003-.257a5.65 5.65 0 011.657-3.866c2.226-2.259 5.289-2.095 7.608-.727a1.45 1.45 0 011.592 0c2.319-1.368 5.382-1.532 7.607.727a5.649 5.649 0 011.657 3.866c.003.086.004.171.003.257a1.455 1.455 0 01.742 1.27 1.457 1.457 0 01-1.32 1.45z" class="stroke 2_3" clip-rule="evenodd"/>
        </g>
      </g>
      <g class="symbol_6">
        <g class="â spades_6">
          <g class="fill_4">
            <path fill="#2C2C2C" d="M18.568 81.028c1.814 2.21 4.228 4.142 6.58 5.841a1.45 1.45 0 011.613 0c2.352-1.699 4.767-3.63 6.58-5.84a7.51 7.51 0 001.077-1.748 1.457 1.457 0 01.538-2.572c-.025-1.176-.445-2.311-1.352-3.232-1.763-1.79-4.258-1.746-6.237-.61a1.458 1.458 0 01-1.412 1.815 1.457 1.457 0 01-1.413-1.815c-1.979-1.136-4.473-1.18-6.237.61-.907.92-1.327 2.056-1.352 3.233a1.457 1.457 0 01.538 2.571 7.51 7.51 0 001.077 1.747z"/>
            <path fill="#2C2C2C" d="M25.293 73.225a.663.663 0 101.325.001.663.663 0 00-1.325-.001zM25.92 87.421a.662.662 0 10.07 0M17.007 77.598a.666.666 0 01.261.526.662.662 0 11-.26-.526zM34.722 78.441a.659.659 0 01.18-.843.662.662 0 11-.18.844z"/>
          </g>
          <path fill="#fff" fill-rule="evenodd" d="M36.018 76.855c.014-1.468-.478-2.924-1.66-4.123-2.225-2.259-5.288-2.095-7.607-.727a1.45 1.45 0 00-.796-.237 1.45 1.45 0 00-.796.237c-2.32-1.368-5.382-1.532-7.608.727-1.181 1.2-1.673 2.655-1.66 4.123a1.456 1.456 0 00.58 2.72 8.533 8.533 0 001.279 2.127c1.903 2.319 4.412 4.318 6.789 6.035a1.459 1.459 0 001.415 1.802 1.457 1.457 0 001.416-1.801c2.377-1.717 4.886-3.717 6.79-6.036a8.53 8.53 0 001.28-2.127 1.457 1.457 0 00.578-2.72zm-17.45 4.173c1.814 2.21 4.228 4.142 6.58 5.841a1.45 1.45 0 01.806-.243c.299 0 .576.09.807.244 2.352-1.7 4.767-3.631 6.58-5.842a7.461 7.461 0 001.076-1.747 1.452 1.452 0 01-.566-1.284 1.458 1.458 0 011.105-1.287 4.635 4.635 0 00-1.352-3.232 4.938 4.938 0 00-.693-.588c-1.27-.885-2.79-1.014-4.202-.599a6.22 6.22 0 00-1.342.576l.011.049a1.457 1.457 0 11-2.836-.049c-1.979-1.136-4.473-1.18-6.237.61-.907.92-1.327 2.056-1.352 3.233a1.447 1.447 0 01.918.69 1.454 1.454 0 01-.38 1.88v.001c.27.615.633 1.207 1.077 1.747zm6.725-7.803a.661.661 0 101.323.002.661.661 0 00-1.323-.002zm0 14.857c0-.354.277-.643.627-.66h.07a.662.662 0 11-.698.66zm-8.286-10.484a.665.665 0 01.261.526.662.662 0 11-.26-.526zm17.635.548a.659.659 0 00.661.64.662.662 0 10-.661-.64z" class="stroke_4" clip-rule="evenodd"/>
          <path fill="#2C2C2C" fill-rule="evenodd" d="M34.57 82.038c-1.879 2.289-4.321 4.26-6.632 5.942l.003.102a1.986 1.986 0 11-3.97-.102c-2.311-1.683-4.753-3.654-6.63-5.942a9.085 9.085 0 01-1.244-1.993 1.987 1.987 0 01-.732-3.471 6.178 6.178 0 011.809-4.214c2.357-2.392 5.556-2.277 7.993-.959a1.982 1.982 0 011.576 0c2.437-1.318 5.636-1.433 7.993.96a6.178 6.178 0 011.809 4.213 1.987 1.987 0 01-.732 3.471 9.085 9.085 0 01-1.244 1.993zm.87-2.463a8.552 8.552 0 01-1.28 2.127c-1.904 2.32-4.413 4.319-6.79 6.036a1.459 1.459 0 01-1.416 1.801 1.457 1.457 0 01-1.415-1.802c-2.377-1.717-4.886-3.716-6.79-6.035a8.555 8.555 0 01-1.279-2.127 1.457 1.457 0 01-.579-2.72c0-.086 0-.171.003-.257a5.65 5.65 0 011.657-3.866c2.226-2.259 5.289-2.095 7.608-.727a1.45 1.45 0 011.592 0c2.319-1.368 5.382-1.532 7.607.727a5.65 5.65 0 011.657 3.866c.003.086.004.171.003.257a1.455 1.455 0 01.742 1.27 1.457 1.457 0 01-1.32 1.45z" class="stroke 2_4" clip-rule="evenodd"/>
        </g>
      </g>
      <g class="symbol_7">
        <g class="â spades_7">
          <g class="fill_5">
            <path fill="#2C2C2C" d="M41.69 20.922c1.815-2.21 4.23-4.142 6.58-5.841a1.45 1.45 0 001.613 0c2.353 1.7 4.768 3.63 6.582 5.84a7.51 7.51 0 011.076 1.748 1.457 1.457 0 00.538 2.572c-.025 1.177-.445 2.311-1.352 3.232-1.763 1.79-4.258 1.746-6.237.61a1.458 1.458 0 00-1.412-1.814 1.457 1.457 0 00-1.413 1.814c-1.979 1.137-4.473 1.18-6.237-.61-.907-.92-1.327-2.055-1.352-3.232a1.457 1.457 0 00.539-2.572 7.51 7.51 0 011.076-1.747z"/>
            <path fill="#2C2C2C" d="M48.416 28.725a.663.663 0 111.325 0 .663.663 0 01-1.325 0zM49.043 14.53a.662.662 0 11.07-.001M40.13 24.353a.665.665 0 00.261-.527.662.662 0 10-.26.527zM57.845 23.51a.659.659 0 00.18.843.662.662 0 10-.18-.843z"/>
          </g>
          <path fill="#fff" fill-rule="evenodd" d="M59.141 25.095c.014 1.468-.478 2.924-1.66 4.123-2.225 2.259-5.288 2.095-7.607.727a1.45 1.45 0 01-.796.237 1.45 1.45 0 01-.796-.237c-2.319 1.368-5.382 1.532-7.608-.727-1.181-1.2-1.673-2.655-1.66-4.123a1.456 1.456 0 01.58-2.72 8.53 8.53 0 011.279-2.127c1.903-2.319 4.412-4.318 6.789-6.035a1.457 1.457 0 112.831 0c2.377 1.716 4.886 3.716 6.79 6.035a8.53 8.53 0 011.28 2.127 1.457 1.457 0 01.578 2.72zm-17.45-4.173c1.814-2.21 4.228-4.142 6.58-5.841.23.154.508.243.806.243.299 0 .576-.09.807-.243 2.352 1.7 4.767 3.63 6.58 5.84a7.533 7.533 0 011.077 1.748 1.453 1.453 0 00-.566 1.284 1.458 1.458 0 001.104 1.288 4.635 4.635 0 01-1.352 3.232c-.22.224-.452.419-.693.587-1.27.885-2.79 1.014-4.202.599a6.22 6.22 0 01-1.342-.576 1.463 1.463 0 00.044-.358 1.457 1.457 0 10-2.868.358c-1.98 1.136-4.474 1.18-6.238-.61-.907-.92-1.327-2.055-1.352-3.232a1.447 1.447 0 00.918-.692 1.454 1.454 0 00-.379-1.88 7.507 7.507 0 011.076-1.747zm6.725 7.803a.661.661 0 111.323 0 .661.661 0 01-1.323 0zm0-14.857c0 .354.277.643.627.661h.07a.662.662 0 10-.698-.661zM40.13 24.353a.666.666 0 00.261-.527.662.662 0 10-.26.527zm17.635-.549a.659.659 0 01.661-.64.662.662 0 11-.661.64z" class="stroke_5" clip-rule="evenodd"/>
          <path fill="#2C2C2C" fill-rule="evenodd" d="M57.692 19.912c-1.878-2.288-4.32-4.26-6.631-5.942l.003-.102a1.986 1.986 0 10-3.97.103c-2.31 1.682-4.753 3.653-6.63 5.941a9.085 9.085 0 00-1.244 1.993 1.987 1.987 0 00-.732 3.471 6.178 6.178 0 001.81 4.214c2.356 2.392 5.555 2.277 7.992.959a1.982 1.982 0 001.576 0c2.437 1.318 5.636 1.433 7.993-.96a6.178 6.178 0 001.808-4.212 1.987 1.987 0 00-.732-3.471 9.081 9.081 0 00-1.243-1.994zm.87 2.463a8.552 8.552 0 00-1.28-2.127c-1.902-2.32-4.412-4.319-6.79-6.036a1.459 1.459 0 00-1.415-1.8 1.457 1.457 0 00-1.415 1.801c-2.377 1.717-4.886 3.716-6.79 6.035a8.552 8.552 0 00-1.279 2.127 1.457 1.457 0 00-.579 2.72c0 .086 0 .171.003.257a5.65 5.65 0 001.657 3.866c2.226 2.259 5.289 2.095 7.608.727a1.45 1.45 0 001.592 0c2.319 1.368 5.382 1.532 7.607-.727a5.649 5.649 0 001.657-3.866c.003-.085.004-.171.003-.257a1.455 1.455 0 00.742-1.27 1.457 1.457 0 00-1.32-1.45z" class="stroke 2_5" clip-rule="evenodd"/>
        </g>
      </g>
      <g class="symbol_8">
        <g class="â spades_8">
          <g class="fill_6">
            <path fill="#2C2C2C" d="M32.17 40.871c1.814-2.21 4.228-4.141 6.58-5.84.23.153.508.243.806.243.299 0 .576-.09.807-.244 2.352 1.7 4.766 3.63 6.58 5.841.444.54.808 1.132 1.077 1.747a1.457 1.457 0 00.538 2.572c-.025 1.177-.445 2.312-1.352 3.233-1.763 1.79-4.258 1.746-6.237.61a1.458 1.458 0 00-1.412-1.815 1.457 1.457 0 00-1.413 1.814c-1.979 1.137-4.473 1.18-6.237-.61-.907-.92-1.327-2.055-1.352-3.232a1.457 1.457 0 00.538-2.572 7.507 7.507 0 011.077-1.747z"/>
            <path fill="#2C2C2C" d="M38.895 48.675a.661.661 0 111.322-.001.661.661 0 01-1.322 0zM39.522 34.478a.662.662 0 11.07 0M30.609 44.302a.666.666 0 00.261-.527.662.662 0 10-.261.527zM48.324 43.459a.658.658 0 00-.08.316.661.661 0 10.08-.316z"/>
          </g>
          <path fill="#fff" fill-rule="evenodd" d="M49.62 45.044c.014 1.469-.478 2.924-1.66 4.123-2.225 2.26-5.288 2.095-7.607.727a1.45 1.45 0 01-1.593 0c-2.318 1.368-5.381 1.532-7.607-.727-1.181-1.199-1.673-2.654-1.66-4.123a1.456 1.456 0 01.58-2.72 8.531 8.531 0 011.279-2.127c1.903-2.319 4.412-4.318 6.789-6.035a1.459 1.459 0 011.415-1.801 1.457 1.457 0 011.416 1.8c2.377 1.718 4.886 3.717 6.79 6.036.524.64.961 1.363 1.28 2.128a1.457 1.457 0 01.578 2.72zm-17.45-4.173c1.814-2.21 4.228-4.141 6.58-5.84.23.153.508.243.806.243.299 0 .576-.09.807-.244 2.352 1.7 4.766 3.63 6.58 5.841a7.461 7.461 0 011.076 1.747 1.452 1.452 0 00-.566 1.284 1.457 1.457 0 001.105 1.288 4.635 4.635 0 01-1.352 3.232c-.22.224-.452.42-.693.587-1.27.885-2.79 1.014-4.202.6a6.226 6.226 0 01-1.342-.577l.011-.048a1.457 1.457 0 10-2.836.049c-1.979 1.136-4.473 1.18-6.237-.61-.907-.921-1.327-2.056-1.352-3.233a1.452 1.452 0 00.917-.691 1.454 1.454 0 00-.379-1.88 7.51 7.51 0 011.077-1.748zm6.724 7.804a.663.663 0 111.326-.001.663.663 0 01-1.325 0zm0-14.858c0 .354.278.644.628.661h.07a.662.662 0 10-.698-.66zm-8.285 10.485a.665.665 0 00.261-.527.662.662 0 10-.261.527zm17.634-.548a.659.659 0 01.662-.641.662.662 0 11-.662.64z" class="stroke_6" clip-rule="evenodd"/>
          <path fill="#2C2C2C" fill-rule="evenodd" d="M48.171 39.861c-1.878-2.288-4.32-4.259-6.631-5.942.002-.033.002-.068.002-.102a1.986 1.986 0 10-3.97.103c-2.31 1.683-4.752 3.653-6.63 5.941a9.085 9.085 0 00-1.243 1.994 1.987 1.987 0 00-.732 3.47 6.178 6.178 0 001.809 4.214c2.357 2.393 5.556 2.278 7.993.96a1.98 1.98 0 001.576 0c2.436 1.318 5.635 1.433 7.992-.96a6.178 6.178 0 001.81-4.213 1.987 1.987 0 00-.732-3.471 9.081 9.081 0 00-1.244-1.994zm.87 2.464a8.548 8.548 0 00-1.28-2.127c-1.903-2.32-4.412-4.32-6.79-6.036a1.46 1.46 0 00-1.415-1.801 1.457 1.457 0 00-1.415 1.801c-2.377 1.717-4.886 3.717-6.79 6.036a8.547 8.547 0 00-1.279 2.127 1.457 1.457 0 00-.579 2.72c0 .085 0 .17.003.256a5.65 5.65 0 001.657 3.866c2.226 2.26 5.289 2.095 7.607.727.23.15.503.237.797.237.293 0 .567-.087.796-.236 2.319 1.367 5.382 1.531 7.607-.728a5.649 5.649 0 001.657-3.866c.003-.085.004-.17.003-.256a1.455 1.455 0 00.742-1.27 1.457 1.457 0 00-1.32-1.45z" class="stroke 2_6" clip-rule="evenodd"/>
        </g>
      </g>
      <g class="symbol_9">
        <g class="â spades_9">
          <g class="fill_7">
            <path fill="#2C2C2C" d="M41.69 58.1c1.815-2.21 4.23-4.141 6.58-5.84.232.153.51.243.807.243.299 0 .576-.09.807-.244 2.352 1.7 4.767 3.63 6.58 5.841.444.54.808 1.132 1.077 1.747a1.457 1.457 0 00.538 2.572c-.025 1.177-.445 2.312-1.352 3.232-1.763 1.79-4.258 1.747-6.237.61a1.458 1.458 0 00-1.412-1.814 1.457 1.457 0 00-1.413 1.814c-1.979 1.137-4.473 1.18-6.237-.61-.907-.92-1.327-2.055-1.352-3.232a1.457 1.457 0 00.539-2.572A7.508 7.508 0 0141.69 58.1z"/>
            <path fill="#2C2C2C" d="M48.416 65.904a.663.663 0 111.325-.001.663.663 0 01-1.325 0zM49.043 51.707a.662.662 0 11.07 0M40.13 61.53a.665.665 0 00.261-.526.662.662 0 10-.26.527zM57.845 60.687a.659.659 0 00.18.844.662.662 0 10-.18-.844z"/>
          </g>
          <path fill="#fff" fill-rule="evenodd" d="M59.141 62.273c.014 1.469-.478 2.924-1.66 4.123-2.225 2.26-5.288 2.095-7.607.727a1.45 1.45 0 01-.796.237 1.45 1.45 0 01-.796-.237c-2.319 1.368-5.382 1.532-7.608-.727-1.181-1.199-1.673-2.654-1.66-4.123a1.456 1.456 0 01.58-2.72 8.53 8.53 0 011.279-2.127c1.903-2.319 4.412-4.318 6.789-6.035a1.459 1.459 0 011.415-1.801 1.457 1.457 0 011.416 1.8c2.377 1.718 4.886 3.717 6.79 6.036a8.53 8.53 0 011.28 2.128 1.457 1.457 0 01.578 2.72zM41.691 58.1c1.814-2.21 4.228-4.141 6.58-5.84.23.153.508.243.806.243.299 0 .576-.09.807-.244 2.352 1.7 4.767 3.63 6.58 5.841a7.461 7.461 0 011.076 1.747 1.453 1.453 0 00-.566 1.284 1.458 1.458 0 001.105 1.288 4.635 4.635 0 01-1.352 3.232c-.22.224-.452.42-.693.587-1.27.885-2.79 1.014-4.202.6a6.22 6.22 0 01-1.342-.577 1.463 1.463 0 00.044-.358 1.457 1.457 0 10-2.868.358c-1.98 1.137-4.474 1.18-6.238-.61-.907-.92-1.327-2.055-1.352-3.232a1.447 1.447 0 00.918-.691 1.454 1.454 0 00-.379-1.88A7.507 7.507 0 0141.69 58.1zm6.725 7.803a.661.661 0 111.323 0 .661.661 0 01-1.323 0zm0-14.857c0 .354.277.644.627.661h.07a.662.662 0 10-.698-.66zM40.13 61.531a.665.665 0 00.261-.527.662.662 0 10-.26.527zm17.635-.548a.659.659 0 01.661-.641.662.662 0 11-.661.64z" class="stroke_7" clip-rule="evenodd"/>
          <path fill="#2C2C2C" fill-rule="evenodd" d="M57.692 57.09c-1.878-2.288-4.32-4.259-6.631-5.942l.003-.102a1.986 1.986 0 10-3.97.103c-2.31 1.683-4.753 3.653-6.63 5.941a9.085 9.085 0 00-1.244 1.994 1.987 1.987 0 00-.732 3.47 6.178 6.178 0 001.81 4.214c2.356 2.393 5.555 2.278 7.992.96a1.982 1.982 0 001.576 0c2.437 1.318 5.636 1.433 7.993-.96a6.178 6.178 0 001.808-4.213 1.987 1.987 0 00-.732-3.471 9.081 9.081 0 00-1.243-1.993zm.87 2.464a8.552 8.552 0 00-1.28-2.127c-1.902-2.32-4.412-4.32-6.79-6.036a1.459 1.459 0 00-1.415-1.801 1.457 1.457 0 00-1.415 1.801c-2.377 1.717-4.886 3.717-6.79 6.035a8.552 8.552 0 00-1.279 2.128 1.457 1.457 0 00-.579 2.72c0 .085 0 .17.003.256a5.65 5.65 0 001.657 3.867c2.226 2.258 5.289 2.094 7.608.727a1.45 1.45 0 001.592 0c2.319 1.367 5.382 1.531 7.607-.727a5.649 5.649 0 001.657-3.867c.003-.085.004-.17.003-.257a1.455 1.455 0 00.742-1.27 1.457 1.457 0 00-1.32-1.45z" class="stroke 2_7" clip-rule="evenodd"/>
        </g>
      </g>
    </g>
  </g>
</svg>
