<svg xmlns="http://www.w3.org/2000/svg" width="80" height="111" fill="none" viewBox="0 0 80 111">
  <g class="seven_diamond">
    <rect width="78.991" height="110.588" x=".111" fill="#fff" class="bg" rx="3.62"/>
    <g class="down">
      <g class="letter">
        <path fill="#222" d="M68.036 95.313c-1.27-1.948-1.955-4.03-2.022-6.26l-.066-1.548h-2.24l.068 1.665c.083 2.164.935 4.495 2.54 6.975l1.804 2.797c.634.949.935 1.781.935 2.513H61.32v1.465h9.975v-.715c0-1.249-.484-2.63-1.47-4.112l-1.788-2.78z" class="Vector"/>
      </g>
      <g class="symbol">
        <path fill="#F24E1E" d="M64.828 77.15l2.473 2.88-2.473 2.888-2.472-2.888 2.472-2.88z" class="♦ diamonds"/>
      </g>
    </g>
    <g class="up">
      <g class="letter_2">
        <path fill="#222" d="M11.815 11.235c-1.27 1.948-1.955 4.029-2.021 6.26l-.067 1.547h-2.24l.068-1.664c.083-2.164.935-4.495 2.54-6.975l1.804-2.797c.635-.95.935-1.781.935-2.514H5.1V3.627h9.974v.716c0 1.249-.484 2.63-1.47 4.112l-1.788 2.78z" class="Vector_2"/>
      </g>
      <g class="symbol_2">
        <path fill="#F24E1E" d="M10.305 27.544l-2.472-2.88 2.472-2.889 2.473 2.889-2.473 2.88z" class="♦ diamonds_2"/>
      </g>
    </g>
    <g class="icons">
      <g class="symbol_3">
        <g class="♦ diamonds_3">
          <path fill="#F24E1E" d="M25.024 66.515l-5.68-6.617a1.745 1.745 0 00.046-2.726l5.638-6.586a1.74 1.74 0 001.03.336 1.74 1.74 0 001.032-.337l5.638 6.587c-.385.321-.63.804-.63 1.345 0 .561.264 1.061.675 1.38l-5.68 6.618a1.74 1.74 0 00-1.035-.339 1.74 1.74 0 00-1.034.339z" class="fill"/>
          <path fill="#fff" fill-rule="evenodd" d="M18.05 56.783l6.281-7.339a1.748 1.748 0 011.727-2.019h.001a1.748 1.748 0 011.727 2.018l6.282 7.34a1.748 1.748 0 011.524 1.781h.001v.002a1.748 1.748 0 01-1.436 1.671l-6.37 7.422a1.748 1.748 0 01-1.727 2.012h-.002a1.748 1.748 0 01-1.727-2.013l-6.37-7.42a1.748 1.748 0 01-1.435-1.672l-.001-.001v-.001-.047c0-.89.665-1.624 1.525-1.734zm6.974 9.732l-5.68-6.617a1.745 1.745 0 00.046-2.726l5.638-6.586a1.74 1.74 0 001.03.336 1.74 1.74 0 001.032-.337l5.638 6.587c-.385.321-.63.804-.63 1.345 0 .561.264 1.061.675 1.38l-5.68 6.618a1.74 1.74 0 00-1.035-.339 1.74 1.74 0 00-1.034.339zm1.034-16.547a.79.79 0 01-.794-.794.794.794 0 11.794.794zm-.409 17.275a.794.794 0 10.818 1.361.794.794 0 00-.818-1.361zm-6.582-8.726a.794.794 0 11-1.587.001.794.794 0 011.587-.001zm14.329.655a.794.794 0 11.896-1.31.794.794 0 01-.896 1.31z" class="stroke" clip-rule="evenodd"/>
          <path fill="#F24E1E" fill-rule="evenodd" d="M15.89 58.517v.031l.001.067a2.384 2.384 0 001.722 2.193l6.063 7.063-.001.053a2.383 2.383 0 002.383 2.383h.001a2.384 2.384 0 002.382-2.435l6.064-7.064a2.384 2.384 0 001.723-2.26v-.031a2.384 2.384 0 00-1.822-2.317l-5.965-6.968v-.058a2.384 2.384 0 10-4.766.06l-5.963 6.966a2.384 2.384 0 00-1.823 2.317zm.636.048h-.001v-.001-.047c0-.89.665-1.624 1.525-1.734l6.281-7.339a1.748 1.748 0 011.727-2.019h.001a1.748 1.748 0 011.727 2.018l6.282 7.34a1.748 1.748 0 011.524 1.781h.001v.001a1.748 1.748 0 01-1.436 1.672l-6.37 7.422a1.748 1.748 0 01-1.727 2.012h-.002a1.748 1.748 0 01-1.727-2.013l-6.37-7.42a1.748 1.748 0 01-1.435-1.673z" class="stroke 2" clip-rule="evenodd"/>
          <g class="dots">
            <path fill="#F24E1E" d="M26.058 48.38a.795.795 0 110 1.588.795.795 0 010-1.589zM18.273 57.722a.795.795 0 110 1.59.795.795 0 010-1.59zM33.845 57.722a.795.795 0 110 1.59.795.795 0 010-1.59zM26.853 67.924a.794.794 0 11-1.59 0 .794.794 0 011.59 0z"/>
          </g>
        </g>
      </g>
      <g class="symbol_4">
        <g class="♦ diamonds_4">
          <path fill="#F24E1E" d="M25.235 29.697l-5.774-6.727c.419-.325.688-.833.688-1.404 0-.55-.25-1.041-.642-1.367l5.732-6.697a1.77 1.77 0 001.048.342 1.77 1.77 0 001.048-.342l5.733 6.697a1.774 1.774 0 00-.642 1.367c0 .57.27 1.079.688 1.404l-5.775 6.727a1.769 1.769 0 00-1.052-.344 1.77 1.77 0 00-1.052.344z" class="fill_2"/>
          <path fill="#fff" fill-rule="evenodd" d="M18.145 19.803l6.386-7.461a1.777 1.777 0 011.756-2.052 1.777 1.777 0 011.756 2.05l6.387 7.463a1.777 1.777 0 011.55 1.81v.002a1.778 1.778 0 01-1.46 1.7l-6.476 7.546a1.777 1.777 0 01-1.756 2.046h-.001a1.777 1.777 0 01-1.757-2.048l-6.476-7.544a1.778 1.778 0 01-1.459-1.7v-.001-.048c0-.905.675-1.651 1.55-1.763zm7.09 9.894l-5.774-6.727a1.774 1.774 0 00.046-2.771l5.732-6.697a1.77 1.77 0 001.048.342c.392 0 .755-.127 1.048-.342l5.733 6.697a1.774 1.774 0 00.046 2.77l-5.775 6.728a1.769 1.769 0 00-1.052-.344 1.77 1.77 0 00-1.052.344zm1.052-16.822a.807.807 0 11-.001-1.615.807.807 0 010 1.615zm-.416 17.562a.807.807 0 10.831 1.384.807.807 0 00-.831-1.384zm-6.692-8.871a.807.807 0 11-1.615 0 .808.808 0 111.615 0zm14.568.666a.807.807 0 01.456-1.474.808.808 0 11-.456 1.474z" class="stroke_2" clip-rule="evenodd"/>
          <path fill="#F24E1E" fill-rule="evenodd" d="M15.948 21.566a1.701 1.701 0 00.002.1 2.424 2.424 0 001.75 2.229l6.164 7.18v.055a2.423 2.423 0 104.846-.052l6.164-7.183a2.424 2.424 0 001.752-2.297v-.032c0-1.142-.79-2.1-1.853-2.356l-6.064-7.084.001-.06a2.423 2.423 0 00-2.422-2.422h-.001a2.423 2.423 0 00-2.423 2.483l-6.062 7.083a2.424 2.424 0 00-1.854 2.356zm.647.05v-.002-.048c0-.905.675-1.651 1.55-1.763l6.386-7.461a1.777 1.777 0 011.756-2.052 1.777 1.777 0 011.756 2.05l6.387 7.463a1.777 1.777 0 011.55 1.81v.002a1.778 1.778 0 01-1.46 1.7l-6.476 7.546a1.777 1.777 0 01-1.756 2.046h-.001a1.777 1.777 0 01-1.757-2.048l-6.476-7.544a1.778 1.778 0 01-1.459-1.7z" class="stroke 2_2" clip-rule="evenodd"/>
          <g class="dots_2">
            <path fill="#F24E1E" d="M26.287 11.26a.808.808 0 110 1.615.808.808 0 010-1.616zM18.372 20.758a.808.808 0 110 1.616.808.808 0 010-1.616zM34.203 20.758a.808.808 0 110 1.616.808.808 0 010-1.616zM27.095 31.13a.808.808 0 11-1.616 0 .808.808 0 011.616 0z"/>
          </g>
        </g>
      </g>
      <g class="symbol_5">
        <g class="♦ diamonds_5">
          <path fill="#F24E1E" d="M52.228 91.812l-5.68-6.727c.412-.325.676-.833.676-1.404 0-.55-.245-1.041-.63-1.367l5.637-6.697a1.72 1.72 0 002.062 0l5.639 6.697a1.785 1.785 0 00-.631 1.367c0 .57.264 1.079.676 1.404l-5.68 6.727a1.721 1.721 0 00-2.07 0z" class="fill_3"/>
          <path fill="#fff" fill-rule="evenodd" d="M45.253 81.918l6.282-7.461a1.822 1.822 0 01-.02-.275c0-.982.782-1.777 1.747-1.777.966 0 1.748.796 1.748 1.777 0 .093-.007.184-.02.274l6.282 7.462a1.768 1.768 0 011.524 1.81v.002a1.769 1.769 0 01-1.435 1.7l-6.371 7.546c.013.087.02.177.02.269 0 .98-.782 1.776-1.747 1.776h-.001c-.965 0-1.748-.795-1.748-1.776 0-.092.007-.183.02-.27l-6.37-7.545a1.769 1.769 0 01-1.435-1.7v-.001-.048c0-.905.664-1.651 1.524-1.763zm6.975 9.894l-5.68-6.727c.412-.325.676-.833.676-1.404 0-.55-.245-1.041-.63-1.367l5.637-6.697a1.72 1.72 0 002.062 0l5.639 6.697a1.785 1.785 0 00-.631 1.367c0 .57.264 1.079.676 1.404l-5.68 6.727a1.721 1.721 0 00-2.07 0zm1.034-16.822a.782.782 0 01-.407-.114.81.81 0 01-.387-.694c0-.446.355-.808.794-.808.439 0 .794.362.794.808a.81.81 0 01-.387.694.782.782 0 01-.407.114zm-.41 17.562a.81.81 0 00-.384.692c0 .447.355.808.794.808a.801.801 0 00.794-.808.81.81 0 00-.384-.692.78.78 0 00-.82 0zm-6.581-8.871a.81.81 0 01-.345.666.783.783 0 01-.45.142.801.801 0 01-.794-.808c0-.446.356-.808.794-.808.188 0 .361.066.497.177a.812.812 0 01.298.63zm14.329.666a.81.81 0 01-.346-.666c0-.255.116-.482.298-.63a.783.783 0 01.497-.178c.438 0 .794.362.794.808a.801.801 0 01-.794.808.782.782 0 01-.45-.142z" class="stroke_3" clip-rule="evenodd"/>
          <path fill="#F24E1E" fill-rule="evenodd" d="M43.093 83.68v.033a2.417 2.417 0 001.723 2.297l6.063 7.18v.055c0 1.338 1.067 2.423 2.383 2.423 1.317 0 2.383-1.086 2.383-2.424v-.052l6.064-7.182a2.417 2.417 0 001.721-2.23c.002-.022.003-.045.002-.067v-.032c0-1.142-.777-2.1-1.823-2.356l-5.964-7.084v-.06c0-1.337-1.066-2.422-2.382-2.422h-.001c-1.316 0-2.383 1.085-2.383 2.423v.06l-5.963 7.083a2.416 2.416 0 00-1.823 2.356zm.636.05v-.001-.048c0-.905.664-1.651 1.524-1.763l6.282-7.461a1.822 1.822 0 01-.02-.275c0-.982.782-1.777 1.747-1.777.966 0 1.748.796 1.748 1.777 0 .093-.007.184-.02.274l6.282 7.462a1.768 1.768 0 011.524 1.81v.002a1.769 1.769 0 01-1.435 1.7l-6.371 7.546c.013.087.02.177.02.269 0 .98-.782 1.776-1.747 1.776h-.001c-.965 0-1.748-.795-1.748-1.776 0-.092.007-.183.02-.27l-6.37-7.545a1.769 1.769 0 01-1.435-1.7z" class="stroke 2_3" clip-rule="evenodd"/>
          <g class="dots_3">
            <path fill="#F24E1E" d="M53.262 73.374c.439 0 .794.362.794.808a.801.801 0 01-.794.808.801.801 0 01-.794-.808c0-.446.355-.808.794-.808zM45.477 82.873c.438 0 .794.362.794.808a.801.801 0 01-.794.808.801.801 0 01-.795-.808c0-.446.356-.808.794-.808zM61.049 82.873c.438 0 .794.362.794.808a.801.801 0 01-.794.808.801.801 0 01-.795-.808c0-.446.356-.808.795-.808zM54.056 93.245a.801.801 0 01-.794.807.801.801 0 01-.794-.808c0-.446.355-.807.794-.807.439 0 .794.361.794.808z"/>
          </g>
        </g>
      </g>
      <g class="symbol_6">
        <g class="♦ diamonds_6">
          <path fill="#F24E1E" d="M25.024 91.812l-5.68-6.727c.412-.325.677-.833.677-1.404 0-.55-.246-1.041-.631-1.367l5.638-6.697a1.72 1.72 0 002.062 0l5.638 6.697c-.385.326-.63.817-.63 1.367 0 .57.264 1.079.675 1.404l-5.68 6.727a1.721 1.721 0 00-2.069 0z" class="fill_4"/>
          <path fill="#fff" fill-rule="evenodd" d="M18.05 81.918l6.281-7.461a1.822 1.822 0 01-.02-.275c0-.982.782-1.777 1.747-1.777h.001c.965 0 1.747.796 1.747 1.777 0 .093-.007.184-.02.274l6.282 7.462a1.768 1.768 0 011.524 1.81l.001.001v.001a1.769 1.769 0 01-1.436 1.7l-6.37 7.546c.012.087.02.177.02.269 0 .98-.783 1.776-1.748 1.776-.966 0-1.748-.795-1.748-1.776 0-.092.006-.183.02-.27l-6.37-7.545a1.769 1.769 0 01-1.435-1.7h-.001v-.001-.048c0-.905.665-1.651 1.525-1.763zm6.974 9.894l-5.68-6.727c.412-.325.677-.833.677-1.404 0-.55-.246-1.041-.631-1.367l5.638-6.697a1.72 1.72 0 002.062 0l5.638 6.697c-.385.326-.63.817-.63 1.367 0 .57.264 1.079.675 1.404l-5.68 6.727a1.721 1.721 0 00-2.069 0zm1.034-16.822a.782.782 0 01-.406-.114.81.81 0 01-.388-.694c0-.446.356-.808.794-.808.44 0 .795.362.795.808a.81.81 0 01-.387.694.782.782 0 01-.408.114zm-.409 17.562a.81.81 0 00-.385.692c0 .447.356.808.794.808a.801.801 0 00.795-.808.81.81 0 00-.385-.692.78.78 0 00-.819 0zm-6.582-8.871a.81.81 0 01-.345.666.782.782 0 01-.45.142.801.801 0 01-.794-.808c0-.446.356-.808.795-.808.188 0 .36.066.497.177a.812.812 0 01.297.63zm14.329.666a.81.81 0 01-.345-.666c0-.255.116-.482.297-.63a.783.783 0 01.497-.178c.439 0 .795.362.795.808a.801.801 0 01-.795.808.782.782 0 01-.449-.142z" class="stroke_4" clip-rule="evenodd"/>
          <path fill="#F24E1E" fill-rule="evenodd" d="M15.89 83.68v.033l.001.067a2.417 2.417 0 001.722 2.23l6.063 7.18-.001.055c0 1.338 1.067 2.423 2.383 2.423h.001c1.316 0 2.383-1.086 2.383-2.424v-.052l6.063-7.182a2.417 2.417 0 001.723-2.297v-.032c0-1.142-.776-2.1-1.822-2.356l-5.965-7.084v-.06c0-1.337-1.066-2.422-2.382-2.422-1.317 0-2.384 1.085-2.384 2.423v.06l-5.963 7.083a2.416 2.416 0 00-1.823 2.356zm.636.05h-.001v-.001-.048c0-.905.665-1.651 1.525-1.763l6.281-7.461a1.822 1.822 0 01-.02-.275c0-.982.782-1.777 1.747-1.777h.001c.965 0 1.747.796 1.747 1.777 0 .093-.007.184-.02.274l6.282 7.462a1.768 1.768 0 011.524 1.81l.001.001v.001a1.769 1.769 0 01-1.436 1.7l-6.37 7.546c.012.087.02.177.02.269 0 .98-.783 1.776-1.748 1.776-.966 0-1.748-.795-1.748-1.776 0-.092.006-.183.02-.27l-6.37-7.545a1.769 1.769 0 01-1.435-1.7z" class="stroke 2_4" clip-rule="evenodd"/>
          <g class="dots_4">
            <path fill="#F24E1E" d="M26.058 73.374c.44 0 .795.362.795.808a.801.801 0 01-.795.808.801.801 0 01-.794-.808c0-.446.356-.808.794-.808zM18.273 82.873c.439 0 .794.362.794.808a.801.801 0 01-.794.808.801.801 0 01-.795-.808c0-.446.356-.808.795-.808zM33.845 82.873c.439 0 .795.362.795.808a.801.801 0 01-.795.808.801.801 0 01-.794-.808c0-.446.355-.808.794-.808zM26.853 93.245a.801.801 0 01-.795.807.801.801 0 01-.794-.808c0-.446.356-.807.794-.807.44 0 .795.361.795.808z"/>
          </g>
        </g>
      </g>
      <g class="symbol_7">
        <g class="♦ diamonds_7">
          <path fill="#F24E1E" d="M52.228 29.697l-5.68-6.727c.412-.325.676-.833.676-1.404 0-.55-.245-1.041-.63-1.367l5.637-6.697a1.721 1.721 0 002.062 0l5.639 6.697a1.785 1.785 0 00-.631 1.367c0 .57.264 1.079.676 1.404l-5.68 6.727a1.72 1.72 0 00-2.07 0z" class="fill_5"/>
          <path fill="#fff" fill-rule="evenodd" d="M45.253 19.803l6.282-7.461a1.82 1.82 0 01-.02-.275c0-.982.782-1.777 1.747-1.777.966 0 1.748.796 1.748 1.777 0 .093-.007.184-.02.274l6.282 7.462a1.768 1.768 0 011.524 1.81v.002a1.769 1.769 0 01-1.435 1.7L54.99 30.86c.013.087.02.177.02.269 0 .98-.782 1.776-1.747 1.777h-.001c-.965 0-1.748-.796-1.748-1.777 0-.092.007-.182.02-.27l-6.37-7.545a1.769 1.769 0 01-1.435-1.7v-.001-.048c0-.905.664-1.651 1.524-1.763zm6.975 9.894l-5.68-6.727c.412-.325.676-.833.676-1.404 0-.55-.245-1.041-.63-1.367l5.637-6.697a1.72 1.72 0 002.062 0l5.639 6.697a1.785 1.785 0 00-.631 1.367c0 .57.264 1.079.676 1.404l-5.68 6.727a1.72 1.72 0 00-2.07 0zm1.034-16.822a.781.781 0 01-.407-.114.81.81 0 01-.387-.694c0-.446.355-.808.794-.808.439 0 .794.362.794.808a.81.81 0 01-.387.694.78.78 0 01-.407.114zm-.41 17.562a.81.81 0 00-.384.693c0 .446.355.807.794.807a.801.801 0 00.794-.807.81.81 0 00-.384-.692.782.782 0 00-.82-.001zm-6.581-8.871a.81.81 0 01-.345.666.782.782 0 01-.45.142.801.801 0 01-.794-.808c0-.446.356-.808.794-.808.188 0 .361.067.497.178a.811.811 0 01.298.63zm14.329.666a.81.81 0 01-.346-.666c0-.255.116-.482.298-.63a.783.783 0 01.497-.178c.438 0 .794.362.794.808a.801.801 0 01-.794.808.781.781 0 01-.45-.142z" class="stroke_5" clip-rule="evenodd"/>
          <path fill="#F24E1E" fill-rule="evenodd" d="M43.093 21.566a3.392 3.392 0 00.002.1 2.417 2.417 0 001.721 2.229l6.063 7.18v.055c0 1.338 1.067 2.423 2.383 2.423 1.317 0 2.383-1.085 2.383-2.423v-.053l6.064-7.182a2.417 2.417 0 001.723-2.33c0-1.141-.777-2.098-1.823-2.355l-5.964-7.084v-.06c0-1.337-1.066-2.422-2.382-2.422h-.001c-1.316 0-2.383 1.085-2.383 2.423v.06l-5.963 7.083a2.416 2.416 0 00-1.823 2.356zm.636.05v-.002-.048c0-.905.664-1.651 1.524-1.763l6.282-7.461a1.82 1.82 0 01-.02-.275c0-.982.782-1.777 1.747-1.777.966 0 1.748.796 1.748 1.777 0 .093-.007.184-.02.274l6.282 7.462a1.768 1.768 0 011.524 1.81v.002a1.769 1.769 0 01-1.435 1.7L54.99 30.86c.013.087.02.177.02.269 0 .98-.782 1.776-1.747 1.777h-.001c-.965 0-1.748-.796-1.748-1.777 0-.092.007-.182.02-.27l-6.37-7.545a1.769 1.769 0 01-1.435-1.7z" class="stroke 2_5" clip-rule="evenodd"/>
          <g class="dots_5">
            <path fill="#F24E1E" d="M53.262 11.26c.439 0 .794.36.794.807a.801.801 0 01-.794.808.801.801 0 01-.794-.808c0-.446.355-.808.794-.808zM45.477 20.758c.438 0 .794.362.794.808a.801.801 0 01-.794.808.801.801 0 01-.795-.808c0-.446.356-.808.794-.808zM61.049 20.758c.438 0 .794.362.794.808a.801.801 0 01-.794.808.801.801 0 01-.795-.808c0-.446.356-.808.795-.808zM54.056 31.13a.801.801 0 01-.794.807.801.801 0 01-.794-.807c0-.447.355-.808.794-.808.439 0 .794.361.794.808z"/>
          </g>
        </g>
      </g>
      <g class="symbol_8">
        <g class="♦ diamonds_8">
          <path fill="#F24E1E" d="M38.626 49.646l-5.68-6.727c.412-.325.677-.833.677-1.404 0-.55-.246-1.04-.631-1.367l5.638-6.696a1.72 1.72 0 002.062 0l5.638 6.696c-.386.326-.63.818-.63 1.367 0 .571.264 1.079.675 1.404l-5.68 6.728a1.72 1.72 0 00-2.069 0z" class="fill_6"/>
          <path fill="#fff" fill-rule="evenodd" d="M31.652 39.753l6.281-7.462a1.822 1.822 0 01-.02-.275c0-.981.782-1.777 1.747-1.777.966 0 1.748.796 1.748 1.777 0 .093-.007.185-.02.274l6.282 7.463a1.768 1.768 0 011.524 1.81v.002a1.769 1.769 0 01-1.435 1.699l-6.37 7.546c.012.088.02.177.02.269 0 .981-.783 1.777-1.748 1.777-.966 0-1.749-.796-1.749-1.777 0-.092.007-.182.02-.27l-6.37-7.545a1.769 1.769 0 01-1.434-1.7h-.001v-.001-.048c0-.904.665-1.651 1.525-1.762zm6.974 9.893l-5.68-6.727c.412-.325.677-.833.677-1.404 0-.55-.246-1.04-.631-1.367l5.638-6.696a1.721 1.721 0 002.062 0l5.638 6.696c-.386.326-.63.818-.63 1.367 0 .571.264 1.079.675 1.404l-5.68 6.728a1.72 1.72 0 00-2.069 0zm1.034-16.822a.78.78 0 01-.406-.114.81.81 0 01-.388-.694c0-.446.355-.807.794-.807.439 0 .795.361.795.807a.81.81 0 01-.387.694.78.78 0 01-.408.114zm-.409 17.562a.81.81 0 00-.385.693c0 .446.355.808.794.808a.801.801 0 00.795-.808.81.81 0 00-.385-.692.78.78 0 00-.819 0zm-6.582-8.87a.81.81 0 01-.345.666.782.782 0 01-.45.141.801.801 0 01-.794-.808c0-.446.356-.807.795-.807.188 0 .36.066.497.177a.811.811 0 01.297.63zm14.329.666a.81.81 0 01-.346-.667c0-.255.117-.482.298-.63a.783.783 0 01.497-.177c.439 0 .794.361.794.807a.801.801 0 01-.794.808.782.782 0 01-.45-.141z" class="stroke_6" clip-rule="evenodd"/>
          <path fill="#F24E1E" fill-rule="evenodd" d="M29.491 41.515a3.392 3.392 0 00.002.1 2.417 2.417 0 001.722 2.23l6.062 7.18v.054c0 1.338 1.067 2.423 2.383 2.423h.001c1.316 0 2.383-1.085 2.383-2.423v-.053l6.063-7.182a2.417 2.417 0 001.721-2.23c.002-.022.003-.044.002-.067v-.032c0-1.142-.776-2.099-1.822-2.355l-5.965-7.085v-.059c0-1.338-1.066-2.422-2.382-2.423-1.317 0-2.384 1.085-2.384 2.423v.06l-5.963 7.084a2.416 2.416 0 00-1.823 2.355zm.637.05l-.001-.001v-.001-.048c0-.904.665-1.651 1.525-1.762l6.281-7.462a1.822 1.822 0 01-.02-.275c0-.981.782-1.777 1.747-1.777.966 0 1.748.796 1.748 1.777 0 .093-.007.185-.02.274l6.282 7.463a1.768 1.768 0 011.524 1.81v.002a1.769 1.769 0 01-1.435 1.699l-6.37 7.546c.012.088.02.177.02.269 0 .981-.783 1.777-1.748 1.777-.966 0-1.749-.796-1.749-1.777 0-.092.007-.182.02-.27l-6.37-7.545a1.769 1.769 0 01-1.434-1.7z" class="stroke 2_6" clip-rule="evenodd"/>
          <g class="dots_6">
            <path fill="#F24E1E" d="M39.66 31.209c.439 0 .795.361.795.807a.801.801 0 01-.795.808.801.801 0 01-.794-.808c0-.446.355-.807.794-.807zM31.875 40.708c.439 0 .794.361.794.807a.801.801 0 01-.794.808.801.801 0 01-.795-.808c0-.446.356-.807.795-.807zM47.447 40.708c.439 0 .794.361.794.807a.801.801 0 01-.794.808.801.801 0 01-.794-.808c0-.446.355-.807.794-.807zM40.455 51.079a.801.801 0 01-.795.808.801.801 0 01-.794-.808c0-.446.355-.808.794-.808.439 0 .795.362.795.808z"/>
          </g>
        </g>
      </g>
      <g class="symbol_9">
        <g class="♦ diamonds_9">
          <path fill="#F24E1E" d="M52.228 66.875l-5.68-6.727c.412-.325.676-.833.676-1.404 0-.55-.245-1.04-.63-1.367l5.637-6.696a1.72 1.72 0 002.062-.001l5.639 6.697a1.785 1.785 0 00-.631 1.367c0 .571.264 1.079.676 1.404l-5.68 6.728a1.72 1.72 0 00-2.07 0z" class="fill_7"/>
          <path fill="#fff" fill-rule="evenodd" d="M45.253 56.981l6.282-7.46a1.82 1.82 0 01-.02-.276c0-.981.782-1.777 1.747-1.777.966 0 1.748.796 1.748 1.777 0 .093-.007.185-.02.274l6.282 7.462a1.768 1.768 0 011.524 1.81v.002a1.769 1.769 0 01-1.435 1.7l-6.371 7.546c.013.088.02.177.02.269 0 .981-.782 1.777-1.747 1.777h-.001c-.965 0-1.748-.796-1.748-1.777 0-.092.007-.182.02-.27l-6.37-7.545a1.769 1.769 0 01-1.435-1.7v-.001-.048c0-.904.664-1.651 1.524-1.763zm6.975 9.894l-5.68-6.727c.412-.325.676-.833.676-1.404 0-.55-.245-1.04-.63-1.367l5.637-6.696a1.72 1.72 0 002.062-.001l5.639 6.697a1.785 1.785 0 00-.631 1.367c0 .571.264 1.079.676 1.404l-5.68 6.728a1.721 1.721 0 00-2.07 0zm1.034-16.822a.78.78 0 01-.407-.114.81.81 0 01-.387-.694c0-.446.355-.807.794-.807.439 0 .794.361.794.807a.81.81 0 01-.387.694.78.78 0 01-.407.114zm-.41 17.562a.81.81 0 00-.384.693c0 .446.355.808.794.808a.801.801 0 00.794-.808.81.81 0 00-.384-.692.782.782 0 00-.82 0zm-6.581-8.87a.81.81 0 01-.345.666.782.782 0 01-.45.141.801.801 0 01-.794-.808c0-.446.356-.807.794-.807.188 0 .361.066.497.177a.811.811 0 01.298.63zm14.329.666a.81.81 0 01-.346-.667c0-.255.116-.482.298-.63a.783.783 0 01.497-.177c.438 0 .794.361.794.807a.801.801 0 01-.794.808.781.781 0 01-.45-.141z" class="stroke_7" clip-rule="evenodd"/>
          <path fill="#F24E1E" fill-rule="evenodd" d="M43.093 58.744a3.392 3.392 0 00.002.1 2.417 2.417 0 001.721 2.23l6.063 7.18v.054c0 1.338 1.067 2.423 2.383 2.423 1.317 0 2.383-1.085 2.383-2.423v-.053l6.064-7.182a2.417 2.417 0 001.721-2.23c.002-.022.003-.044.002-.067v-.032c0-1.142-.777-2.099-1.823-2.355l-5.964-7.085v-.059c0-1.338-1.066-2.423-2.382-2.423h-.001c-1.316 0-2.383 1.085-2.383 2.423v.06l-5.963 7.084a2.416 2.416 0 00-1.823 2.355zm.636.05v-.002-.048c0-.904.664-1.651 1.524-1.763l6.282-7.46a1.82 1.82 0 01-.02-.276c0-.981.782-1.777 1.747-1.777.966 0 1.748.796 1.748 1.777 0 .093-.007.185-.02.274l6.282 7.462a1.768 1.768 0 011.524 1.81v.002a1.769 1.769 0 01-1.435 1.7l-6.371 7.546c.013.088.02.177.02.269 0 .981-.782 1.776-1.747 1.777h-.001c-.965 0-1.748-.796-1.748-1.777 0-.092.007-.182.02-.27l-6.37-7.545a1.769 1.769 0 01-1.435-1.7z" class="stroke 2_7" clip-rule="evenodd"/>
          <g class="dots_7">
            <path fill="#F24E1E" d="M53.262 48.438c.439 0 .794.361.794.807a.801.801 0 01-.794.808.801.801 0 01-.794-.808c0-.446.355-.807.794-.807zM45.477 57.937c.438 0 .794.361.794.807a.801.801 0 01-.794.808.801.801 0 01-.795-.808c0-.446.356-.807.794-.807zM61.049 57.937c.438 0 .794.361.794.807a.801.801 0 01-.794.808.801.801 0 01-.795-.808c0-.446.356-.807.795-.807zM54.056 68.308a.801.801 0 01-.794.808.801.801 0 01-.794-.808c0-.446.355-.808.794-.808.439 0 .794.362.794.808z"/>
          </g>
        </g>
      </g>
    </g>
  </g>
</svg>
