<svg xmlns="http://www.w3.org/2000/svg" width="80" height="111" fill="none" viewBox="0 0 80 111">
  <g class="seven_heart">
    <rect width="74.81" height="104.734" x=".111" y=".359" fill="#fff" rx="3.62"/>
    <rect width="78.991" height="110.588" x=".111" y=".359" fill="#fff" class="bg" rx="3.62"/>
    <g class="down">
      <g class="letter">
        <path fill="#222" d="M68.036 95.672c-1.27-1.948-1.955-4.029-2.022-6.26l-.066-1.548h-2.24l.068 1.665c.083 2.164.935 4.495 2.54 6.975l1.804 2.797c.634.949.935 1.781.935 2.514H61.32v1.465h9.975v-.716c0-1.249-.484-2.63-1.47-4.112l-1.788-2.78z" class="Vector"/>
      </g>
      <g class="symbol">
        <path fill="#F24E1E" d="M67.632 79.887c.707.863.875 2.068.1 2.856-.84.853-2.115.606-2.889-.181-.774.787-2.05 1.034-2.888.181-.776-.788-.608-1.993.1-2.856.763-.932 1.808-1.733 2.788-2.427.98.694 2.025 1.495 2.789 2.427z" class="♥ hearts"/>
      </g>
    </g>
    <g class="up">
      <g class="letter_2">
        <path fill="#222" d="M11.815 11.594c-1.27 1.948-1.955 4.029-2.021 6.26l-.067 1.548h-2.24l.068-1.665c.083-2.164.935-4.495 2.54-6.975l1.804-2.797c.635-.949.935-1.781.935-2.514H5.1V3.986h9.974v.716c0 1.249-.484 2.63-1.47 4.112l-1.788 2.78z" class="Vector_2"/>
      </g>
      <g class="symbol_2">
        <path fill="#F24E1E" d="M7.502 25.525c-.708-.863-.875-2.067-.1-2.856.839-.853 2.114-.606 2.888.182.775-.788 2.05-1.035 2.889-.182.775.789.607 1.993-.1 2.856-.763.932-1.809 1.733-2.789 2.428-.98-.695-2.025-1.496-2.788-2.428z" class="♥ hearts_2"/>
      </g>
    </g>
    <g class="icons">
      <g class="symbol_3">
        <g class="♥ hearts_3">
          <g class="fill">
            <path fill="#F24E1E" d="M34.131 53.373c-1.728-1.754-4.172-1.71-6.112-.597a1.43 1.43 0 01-1.384 1.778 1.427 1.427 0 01-1.384-1.778c-1.94-1.114-4.384-1.157-6.113.597-.888.903-1.3 2.015-1.325 3.168a1.428 1.428 0 01.528 2.52c.264.603.62 1.183 1.055 1.713 1.777 2.166 4.144 4.058 6.448 5.724a1.42 1.42 0 01.79-.239c.293 0 .565.088.791.24 2.305-1.666 4.671-3.56 6.45-5.725.434-.53.79-1.11 1.054-1.712a1.428 1.428 0 01.527-2.52c-.024-1.154-.436-2.266-1.325-3.168z"/>
            <path fill="#F24E1E" d="M26.242 53.642a.65.65 0 01.393-1.165.649.649 0 11-.393 1.165zM26.634 67.038h.035a.649.649 0 11-.035 0zM35.227 58.238a.646.646 0 01.177-.826.649.649 0 11-.177.827zM17.473 58.577a.649.649 0 100-1.298.649.649 0 000 1.298z"/>
          </g>
          <path fill="#fff" fill-rule="evenodd" d="M36.497 56.684c.014-1.439-.469-2.865-1.627-4.04-2.18-2.214-5.183-2.053-7.455-.713a1.42 1.42 0 00-1.56 0c-2.273-1.34-5.275-1.501-7.455.712-1.158 1.176-1.64 2.602-1.627 4.04a1.427 1.427 0 00.567 2.666c.312.75.74 1.458 1.254 2.085 1.865 2.273 4.324 4.232 6.653 5.914a1.429 1.429 0 001.387 1.766 1.427 1.427 0 001.388-1.765c2.33-1.683 4.788-3.642 6.654-5.915a8.362 8.362 0 001.254-2.085 1.428 1.428 0 00.567-2.665zm-8.478-3.908c1.94-1.114 4.384-1.157 6.112.597a4.543 4.543 0 011.325 3.168 1.428 1.428 0 00-.527 2.52 7.36 7.36 0 01-1.055 1.713c-1.778 2.166-4.144 4.058-6.449 5.724a1.421 1.421 0 00-.79-.239 1.42 1.42 0 00-.79.239c-2.305-1.666-4.672-3.558-6.45-5.724a7.57 7.57 0 01-.558-.776 7.16 7.16 0 01-.496-.936 1.425 1.425 0 00.478-1.612 1.43 1.43 0 00-1.005-.909c.024-1.153.436-2.265 1.324-3.167 1.729-1.755 4.173-1.712 6.113-.598a1.431 1.431 0 00.069.906 1.428 1.428 0 002.699-.906zm-1.777.866a.649.649 0 11.786-1.032.649.649 0 01-.786 1.032zm.427 13.397l-.035-.001a.649.649 0 10.035 0zm8.558-8.8a.646.646 0 01.177-.827.649.649 0 11-.177.827zm-17.105-.311a.649.649 0 11-1.298 0 .649.649 0 011.298 0z" class="stroke" clip-rule="evenodd"/>
          <g class="stroke 2">
            <path fill="#F24E1E" d="M17.814 56.541zM25.25 52.776z"/>
            <path fill="#F24E1E" fill-rule="evenodd" d="M15.527 57.928c0-.615.286-1.164.73-1.52a6.054 6.054 0 011.773-4.129c2.31-2.345 5.445-2.232 7.833-.94a1.942 1.942 0 011.544 0c2.388-1.292 5.523-1.405 7.833.94a6.054 6.054 0 011.773 4.13 1.947 1.947 0 01-.718 3.402 8.903 8.903 0 01-1.218 1.952c-1.84 2.243-4.234 4.174-6.499 5.824a1.947 1.947 0 11-3.888 0c-2.264-1.65-4.657-3.581-6.497-5.824a8.903 8.903 0 01-1.219-1.953 1.947 1.947 0 01-1.447-1.882zm2.873-5.285a5.536 5.536 0 00-1.624 3.79 6.206 6.206 0 00-.003.25 1.426 1.426 0 00-.727 1.244 1.428 1.428 0 001.294 1.422 8.253 8.253 0 001.254 2.085c1.865 2.273 4.324 4.232 6.653 5.914a1.429 1.429 0 001.387 1.766 1.427 1.427 0 001.388-1.765c2.33-1.683 4.788-3.642 6.654-5.915a8.38 8.38 0 001.254-2.085 1.428 1.428 0 00.567-2.666c0-.083 0-.167-.003-.25a5.536 5.536 0 00-1.624-3.79c-2.18-2.213-5.183-2.052-7.455-.712a1.42 1.42 0 00-1.56 0c-2.273-1.34-5.275-1.501-7.455.712z" clip-rule="evenodd"/>
          </g>
        </g>
      </g>
      <g class="symbol_4">
        <g class="♥ hearts_4">
          <g class="fill_2">
            <path fill="#F24E1E" d="M34.131 16.195c-1.728-1.754-4.172-1.711-6.112-.597a1.43 1.43 0 01-1.384 1.778 1.427 1.427 0 01-1.384-1.778c-1.94-1.114-4.384-1.157-6.113.597-.888.902-1.3 2.015-1.325 3.168a1.428 1.428 0 01.528 2.52c.264.603.62 1.183 1.055 1.713 1.777 2.166 4.144 4.058 6.448 5.724a1.42 1.42 0 011.581 0c2.305-1.666 4.671-3.558 6.45-5.724.434-.53.79-1.11 1.054-1.713a1.428 1.428 0 01.527-2.52c-.024-1.153-.436-2.265-1.325-3.168z"/>
            <path fill="#F24E1E" d="M26.242 16.464a.65.65 0 01.393-1.165.649.649 0 11-.393 1.165zM26.634 29.86h.035a.649.649 0 11-.035 0zM35.227 21.06a.646.646 0 01.177-.827.649.649 0 11-.177.827zM17.473 21.398a.649.649 0 100-1.297.649.649 0 000 1.297z"/>
          </g>
          <path fill="#fff" fill-rule="evenodd" d="M36.497 19.506c.014-1.44-.469-2.866-1.627-4.04-2.18-2.215-5.183-2.054-7.455-.713a1.42 1.42 0 00-1.56 0c-2.273-1.34-5.275-1.502-7.455.712-1.158 1.175-1.64 2.602-1.627 4.04a1.427 1.427 0 00.567 2.666 8.36 8.36 0 001.254 2.085c1.865 2.272 4.324 4.232 6.653 5.914a1.428 1.428 0 102.775 0c2.33-1.682 4.788-3.641 6.654-5.914a8.36 8.36 0 001.254-2.085 1.428 1.428 0 00.567-2.665zm-8.478-3.908c1.94-1.114 4.384-1.157 6.112.597a4.543 4.543 0 011.325 3.168 1.428 1.428 0 00-.527 2.52 7.358 7.358 0 01-1.055 1.713c-1.778 2.166-4.144 4.058-6.449 5.724a1.42 1.42 0 00-1.581 0c-2.304-1.666-4.67-3.558-6.448-5.724a7.548 7.548 0 01-.559-.776 7.154 7.154 0 01-.496-.937 1.425 1.425 0 00.478-1.612 1.43 1.43 0 00-1.005-.908c.024-1.153.436-2.265 1.324-3.168 1.729-1.754 4.173-1.711 6.113-.597a1.43 1.43 0 001.384 1.778 1.427 1.427 0 001.384-1.778zm-1.777.866a.65.65 0 11.786-1.033.65.65 0 01-.786 1.033zm.427 13.396a.649.649 0 10-.07 1.296.649.649 0 00.07-1.296zm8.558-8.8a.646.646 0 01.177-.827.649.649 0 11-.177.827zm-17.105-.31a.649.649 0 11-1.298 0 .649.649 0 011.298 0z" class="stroke_2" clip-rule="evenodd"/>
          <g class="stroke 2_2">
            <path fill="#F24E1E" d="M17.814 19.363zM25.25 15.598z"/>
            <path fill="#F24E1E" fill-rule="evenodd" d="M15.527 20.75c0-.616.286-1.164.73-1.52a6.054 6.054 0 011.773-4.13c2.31-2.344 5.445-2.231 7.833-.939a1.94 1.94 0 011.544 0c2.388-1.292 5.523-1.405 7.833.94a6.054 6.054 0 011.773 4.129 1.947 1.947 0 01-.718 3.402 8.907 8.907 0 01-1.218 1.953c-1.84 2.243-4.234 4.174-6.499 5.823l.003.1a1.947 1.947 0 11-3.89-.1c-2.265-1.65-4.658-3.58-6.498-5.823a8.907 8.907 0 01-1.219-1.953 1.947 1.947 0 01-1.447-1.882zm2.873-5.285a5.537 5.537 0 00-1.624 3.789 6.206 6.206 0 00-.003.252 1.426 1.426 0 00.567 2.665 8.38 8.38 0 001.254 2.085c1.865 2.272 4.324 4.232 6.653 5.914a1.428 1.428 0 102.775 0c2.33-1.682 4.788-3.641 6.654-5.914a8.38 8.38 0 001.254-2.085 1.428 1.428 0 00.567-2.665c0-.084 0-.168-.003-.252a5.537 5.537 0 00-1.624-3.789c-2.18-2.214-5.183-2.053-7.455-.712a1.42 1.42 0 00-1.56 0c-2.273-1.34-5.275-1.502-7.455.712z" clip-rule="evenodd"/>
          </g>
        </g>
      </g>
      <g class="symbol_5">
        <g class="♥ hearts_5">
          <g class="fill_3">
            <path fill="#F24E1E" d="M57.254 91.524c-1.728 1.755-4.172 1.712-6.112.598a1.43 1.43 0 00-1.384-1.778 1.427 1.427 0 00-1.384 1.778c-1.94 1.114-4.384 1.157-6.113-.598-.888-.902-1.3-2.014-1.325-3.167a1.428 1.428 0 00.528-2.52 7.357 7.357 0 011.055-1.713c1.778-2.166 4.144-4.058 6.448-5.724a1.42 1.42 0 001.581 0c2.305 1.665 4.671 3.558 6.45 5.724.434.53.79 1.11 1.054 1.712a1.428 1.428 0 00.527 2.52c-.024 1.154-.436 2.266-1.325 3.168z"/>
            <path fill="#F24E1E" d="M49.365 91.255a.65.65 0 00.393 1.165.649.649 0 10-.393-1.165zM49.757 77.86a.649.649 0 100-1.298.649.649 0 000 1.298zM58.35 86.66a.646.646 0 00.177.826.649.649 0 10-.177-.827zM40.596 86.321a.649.649 0 110 1.298.649.649 0 010-1.298z"/>
          </g>
          <path fill="#fff" fill-rule="evenodd" d="M59.62 88.214c.014 1.439-.469 2.865-1.627 4.04-2.18 2.214-5.183 2.053-7.455.713a1.42 1.42 0 01-1.56 0c-2.273 1.34-5.275 1.501-7.455-.713-1.158-1.175-1.64-2.601-1.627-4.04a1.427 1.427 0 01.567-2.665c.312-.75.74-1.458 1.254-2.085 1.865-2.273 4.324-4.232 6.653-5.915a1.427 1.427 0 112.774 0c2.33 1.682 4.79 3.642 6.655 5.915a8.362 8.362 0 011.254 2.085 1.428 1.428 0 01.567 2.665zm-8.478 3.908c1.94 1.114 4.384 1.157 6.112-.598a4.543 4.543 0 001.325-3.167 1.428 1.428 0 01-.527-2.52 7.357 7.357 0 00-1.055-1.713c-1.778-2.166-4.144-4.059-6.449-5.724a1.421 1.421 0 01-1.58 0c-2.305 1.665-4.672 3.558-6.45 5.724-.203.249-.39.508-.558.775-.19.303-.356.617-.496.937a1.425 1.425 0 01.478 1.612 1.43 1.43 0 01-1.005.909c.024 1.153.436 2.265 1.325 3.167 1.728 1.755 4.172 1.712 6.112.598a1.43 1.43 0 011.384-1.778 1.427 1.427 0 011.384 1.778zm-1.777-.867a.649.649 0 10.786 1.033.649.649 0 00-.786-1.033zm.427-13.396a.649.649 0 11-.07-1.296.649.649 0 01.07 1.296zm8.558 8.8a.646.646 0 00.177.827.649.649 0 10-.177-.827zm-17.105.31a.649.649 0 10-1.297.001.649.649 0 001.297 0z" class="stroke_3" clip-rule="evenodd"/>
          <g class="stroke 2_3">
            <path fill="#F24E1E" d="M40.937 88.357zM48.374 92.122z"/>
            <path fill="#F24E1E" fill-rule="evenodd" d="M38.65 86.97c0 .615.285 1.163.73 1.52a6.054 6.054 0 001.773 4.129c2.31 2.344 5.445 2.232 7.833.94a1.941 1.941 0 001.544 0c2.388 1.291 5.523 1.404 7.833-.94a6.054 6.054 0 001.773-4.13 1.947 1.947 0 00-.718-3.402 8.899 8.899 0 00-1.218-1.952c-1.84-2.243-4.234-4.175-6.499-5.824a1.947 1.947 0 10-3.888 0c-2.264 1.65-4.657 3.581-6.497 5.824a8.902 8.902 0 00-1.218 1.953c-.834.22-1.448.98-1.448 1.882zm2.873 5.284a5.536 5.536 0 01-1.624-3.788 6.206 6.206 0 01-.003-.252 1.432 1.432 0 01-.727-1.244 1.428 1.428 0 011.294-1.421 8.256 8.256 0 011.254-2.085c1.865-2.273 4.324-4.232 6.653-5.915a1.427 1.427 0 112.774 0c2.33 1.682 4.79 3.642 6.655 5.915a8.382 8.382 0 011.254 2.085c.042.003.083.01.123.016a1.428 1.428 0 01.444 2.649c0 .084 0 .168-.003.252a5.536 5.536 0 01-1.624 3.788c-2.18 2.214-5.183 2.053-7.455.713a1.42 1.42 0 01-1.56 0c-2.273 1.34-5.275 1.501-7.455-.713z" clip-rule="evenodd"/>
          </g>
        </g>
      </g>
      <g class="symbol_6">
        <g class="♥ hearts_6">
          <g class="fill_4">
            <path fill="#F24E1E" d="M34.131 91.524c-1.728 1.755-4.172 1.712-6.112.598a1.43 1.43 0 00-1.384-1.778 1.427 1.427 0 00-1.384 1.778c-1.94 1.114-4.384 1.157-6.113-.598-.888-.902-1.3-2.014-1.325-3.167a1.428 1.428 0 00.528-2.52 7.357 7.357 0 011.055-1.713c1.777-2.166 4.144-4.058 6.448-5.724a1.42 1.42 0 001.581 0c2.305 1.665 4.671 3.558 6.45 5.724.434.53.79 1.11 1.054 1.712a1.428 1.428 0 00.527 2.52c-.024 1.154-.436 2.266-1.325 3.168z"/>
            <path fill="#F24E1E" d="M26.242 91.255a.65.65 0 00.393 1.165.649.649 0 10-.393-1.165zM26.634 77.86h.035a.649.649 0 10-.035 0zM35.227 86.66a.646.646 0 00.177.826.649.649 0 10-.177-.827zM17.473 86.321a.649.649 0 110 1.298.649.649 0 010-1.298z"/>
          </g>
          <path fill="#fff" fill-rule="evenodd" d="M36.497 88.214c.014 1.439-.469 2.865-1.627 4.04-2.18 2.214-5.183 2.053-7.455.713a1.42 1.42 0 01-1.56 0c-2.273 1.34-5.275 1.501-7.455-.713-1.158-1.175-1.64-2.601-1.627-4.04a1.427 1.427 0 01.567-2.665c.312-.75.74-1.458 1.254-2.085 1.865-2.273 4.324-4.232 6.653-5.915a1.429 1.429 0 011.387-1.765 1.427 1.427 0 011.388 1.765c2.33 1.682 4.788 3.642 6.654 5.915a8.362 8.362 0 011.254 2.085 1.428 1.428 0 01.567 2.665zm-8.478 3.908c1.94 1.114 4.384 1.157 6.112-.598a4.543 4.543 0 001.325-3.167 1.428 1.428 0 01-.527-2.52 7.36 7.36 0 00-1.055-1.713c-1.778-2.166-4.144-4.059-6.449-5.724a1.42 1.42 0 01-1.581 0c-2.304 1.666-4.67 3.558-6.448 5.724a7.57 7.57 0 00-.559.775 7.16 7.16 0 00-.496.937 1.425 1.425 0 01.478 1.612 1.43 1.43 0 01-1.005.909c.024 1.153.436 2.265 1.324 3.167 1.729 1.755 4.173 1.712 6.113.598a1.43 1.43 0 011.384-1.778 1.427 1.427 0 011.384 1.778zm-1.777-.867a.649.649 0 10.786 1.033.649.649 0 00-.786-1.033zm.427-13.396l-.035.001a.649.649 0 11.035 0zm8.558 8.8a.646.646 0 00.177.827.649.649 0 10-.177-.827zm-17.105.31a.649.649 0 10-1.298.001.649.649 0 001.298 0z" class="stroke_4" clip-rule="evenodd"/>
          <g class="stroke 2_4">
            <path fill="#F24E1E" d="M17.814 88.357zM25.25 92.122z"/>
            <path fill="#F24E1E" fill-rule="evenodd" d="M15.527 86.97c0 .615.286 1.163.73 1.52a6.054 6.054 0 001.773 4.129c2.31 2.344 5.445 2.232 7.833.94a1.94 1.94 0 001.544 0c2.388 1.291 5.523 1.404 7.833-.94a6.054 6.054 0 001.773-4.13 1.947 1.947 0 00-.718-3.402 8.903 8.903 0 00-1.218-1.952c-1.84-2.243-4.234-4.175-6.499-5.824a1.947 1.947 0 10-3.888 0c-2.264 1.65-4.657 3.581-6.497 5.824a8.903 8.903 0 00-1.219 1.953c-.833.22-1.447.98-1.447 1.882zm2.873 5.284a5.536 5.536 0 01-1.624-3.788 6.206 6.206 0 01-.003-.252 1.426 1.426 0 01-.727-1.244 1.428 1.428 0 011.294-1.421 8.253 8.253 0 011.254-2.085c1.865-2.273 4.324-4.232 6.653-5.915a1.429 1.429 0 011.387-1.765 1.427 1.427 0 011.388 1.765c2.33 1.682 4.788 3.642 6.654 5.915a8.38 8.38 0 011.254 2.085c.041.003.083.01.123.016a1.428 1.428 0 01.444 2.649c0 .084 0 .168-.003.252a5.536 5.536 0 01-1.624 3.788c-2.18 2.214-5.183 2.053-7.455.713a1.42 1.42 0 01-1.56 0c-2.273 1.34-5.275 1.501-7.455-.713z" clip-rule="evenodd"/>
          </g>
        </g>
      </g>
      <g class="symbol_7">
        <g class="♥ hearts_7">
          <g class="fill_5">
            <path fill="#F24E1E" d="M57.254 16.195c-1.728-1.754-4.172-1.711-6.112-.597a1.43 1.43 0 01-1.384 1.778 1.427 1.427 0 01-1.384-1.778c-1.94-1.114-4.384-1.157-6.113.597-.888.902-1.3 2.015-1.325 3.168a1.428 1.428 0 01.528 2.52c.264.603.62 1.183 1.055 1.713 1.778 2.166 4.144 4.058 6.448 5.724a1.421 1.421 0 011.581 0c2.305-1.666 4.671-3.558 6.45-5.724.434-.53.79-1.11 1.054-1.713a1.428 1.428 0 01.527-2.52c-.024-1.153-.436-2.265-1.325-3.168z"/>
            <path fill="#F24E1E" d="M49.365 16.464a.65.65 0 01.393-1.165.649.649 0 11-.393 1.165zM49.757 29.86a.649.649 0 110 1.298.649.649 0 010-1.299zM58.35 21.06a.646.646 0 01.177-.827.649.649 0 11-.177.827zM40.596 21.398a.649.649 0 100-1.297.649.649 0 000 1.297z"/>
          </g>
          <path fill="#fff" fill-rule="evenodd" d="M59.62 19.506c.014-1.44-.469-2.866-1.627-4.04-2.18-2.215-5.183-2.054-7.455-.713a1.42 1.42 0 00-1.56 0c-2.273-1.34-5.275-1.502-7.455.712-1.158 1.175-1.64 2.602-1.627 4.04a1.427 1.427 0 00.567 2.666 8.36 8.36 0 001.254 2.085c1.865 2.272 4.324 4.232 6.653 5.914a1.427 1.427 0 102.774 0c2.33-1.682 4.79-3.641 6.655-5.914a8.36 8.36 0 001.254-2.085 1.428 1.428 0 00.567-2.665zm-8.478-3.908c1.94-1.114 4.384-1.157 6.112.597a4.543 4.543 0 011.325 3.168 1.428 1.428 0 00-.527 2.52 7.355 7.355 0 01-1.055 1.713c-1.778 2.166-4.144 4.058-6.449 5.724a1.421 1.421 0 00-1.581 0c-2.304-1.666-4.67-3.558-6.448-5.724a7.533 7.533 0 01-.559-.776 7.178 7.178 0 01-.496-.937 1.425 1.425 0 00.478-1.612 1.43 1.43 0 00-1.005-.908c.024-1.153.436-2.265 1.325-3.168 1.728-1.754 4.172-1.711 6.112-.597a1.43 1.43 0 001.384 1.778 1.427 1.427 0 001.384-1.778zm-1.777.866a.65.65 0 11.786-1.032.65.65 0 01-.786 1.032zm.427 13.396a.649.649 0 10-.07 1.296.649.649 0 00.07-1.296zm8.558-8.8a.646.646 0 01.177-.827.649.649 0 11-.177.827zm-17.105-.31a.649.649 0 11-1.297 0 .649.649 0 011.297 0z" class="stroke_5" clip-rule="evenodd"/>
          <g class="stroke 2_5">
            <path fill="#F24E1E" d="M40.937 19.363zM48.374 15.598z"/>
            <path fill="#F24E1E" fill-rule="evenodd" d="M38.65 20.75c0-.616.285-1.164.73-1.52a6.055 6.055 0 011.773-4.13c2.31-2.344 5.445-2.231 7.833-.939a1.941 1.941 0 011.544 0c2.388-1.292 5.523-1.405 7.833.94a6.055 6.055 0 011.773 4.129 1.947 1.947 0 01-.718 3.402 8.903 8.903 0 01-1.218 1.953c-1.84 2.243-4.234 4.174-6.499 5.823l.003.1a1.947 1.947 0 11-3.89-.1c-2.265-1.65-4.658-3.58-6.498-5.823a8.907 8.907 0 01-1.218-1.953 1.947 1.947 0 01-1.448-1.882zm2.873-5.285a5.536 5.536 0 00-1.624 3.789 6.206 6.206 0 00-.003.252 1.426 1.426 0 00.567 2.665 8.38 8.38 0 001.254 2.085c1.865 2.272 4.324 4.232 6.653 5.914a1.427 1.427 0 102.774 0c2.33-1.682 4.79-3.641 6.655-5.914a8.382 8.382 0 001.254-2.085 1.428 1.428 0 00.567-2.665c0-.084 0-.168-.003-.252a5.536 5.536 0 00-1.624-3.789c-2.18-2.214-5.183-2.053-7.455-.712a1.42 1.42 0 00-1.56 0c-2.273-1.34-5.275-1.502-7.455.712z" clip-rule="evenodd"/>
          </g>
        </g>
      </g>
      <g class="symbol_8">
        <g class="♥ hearts_8">
          <g class="fill_6">
            <path fill="#F24E1E" d="M47.733 36.145c-1.728-1.755-4.173-1.712-6.112-.598a1.43 1.43 0 01-1.384 1.778 1.427 1.427 0 01-1.384-1.778c-1.94-1.114-4.385-1.157-6.113.598-.889.902-1.3 2.014-1.325 3.167a1.428 1.428 0 01.528 2.52c.263.603.62 1.183 1.055 1.713 1.777 2.166 4.143 4.058 6.448 5.724a1.42 1.42 0 01.79-.239c.293 0 .565.088.791.24 2.305-1.667 4.671-3.56 6.449-5.725.435-.53.79-1.11 1.055-1.712a1.428 1.428 0 01.528-2.52c-.025-1.154-.437-2.266-1.326-3.168z"/>
            <path fill="#F24E1E" d="M39.843 36.413a.65.65 0 01.393-1.165.649.649 0 11-.393 1.166zM40.236 49.809h.035a.649.649 0 11-.035 0zM48.828 41.01a.646.646 0 01.177-.827.649.649 0 11-.177.827zM31.075 41.348a.649.649 0 100-1.298.649.649 0 000 1.298z"/>
          </g>
          <path fill="#fff" fill-rule="evenodd" d="M50.099 39.455c.013-1.439-.47-2.865-1.627-4.04-2.18-2.214-5.183-2.053-7.455-.713a1.42 1.42 0 00-1.56 0c-2.273-1.34-5.275-1.501-7.456.712-1.157 1.176-1.64 2.602-1.626 4.04a1.427 1.427 0 00.567 2.666 8.36 8.36 0 001.254 2.085c1.865 2.273 4.324 4.232 6.653 5.914a1.427 1.427 0 102.775 0c2.329-1.682 4.788-3.641 6.654-5.914a8.362 8.362 0 001.254-2.085 1.428 1.428 0 00.567-2.665zm-8.478-3.908c1.94-1.114 4.384-1.157 6.112.598a4.543 4.543 0 011.325 3.167 1.428 1.428 0 00-.527 2.52 7.357 7.357 0 01-1.055 1.713c-1.778 2.166-4.144 4.059-6.449 5.724a1.421 1.421 0 00-1.581 0c-2.305-1.666-4.67-3.558-6.448-5.724a7.528 7.528 0 01-.559-.776 7.16 7.16 0 01-.496-.936 1.425 1.425 0 00.477-1.612 1.43 1.43 0 00-1.005-.909c.025-1.153.436-2.265 1.325-3.167 1.728-1.755 4.173-1.712 6.113-.598a1.43 1.43 0 001.384 1.778 1.427 1.427 0 001.384-1.778zm-1.778.867a.65.65 0 11.787-1.033.65.65 0 01-.787 1.032zm.428 13.396l-.035-.001a.649.649 0 10.035 0zm8.557-8.8a.646.646 0 01.177-.827.649.649 0 11-.177.827zm-17.104-.311a.649.649 0 11-1.298 0 .649.649 0 011.298 0z" class="stroke_6" clip-rule="evenodd"/>
          <g class="stroke 2_6">
            <path fill="#F24E1E" d="M31.415 39.312zM38.853 35.547z"/>
            <path fill="#F24E1E" fill-rule="evenodd" d="M29.128 40.699c0-.615.286-1.164.73-1.52a6.054 6.054 0 011.774-4.129c2.31-2.344 5.444-2.232 7.832-.94a1.941 1.941 0 011.545 0c2.388-1.292 5.523-1.404 7.833.94a6.054 6.054 0 011.773 4.13 1.947 1.947 0 01-.718 3.402 8.903 8.903 0 01-1.218 1.952c-1.84 2.243-4.234 4.174-6.499 5.824a1.947 1.947 0 11-3.888 0c-2.264-1.65-4.657-3.581-6.498-5.824a8.903 8.903 0 01-1.218-1.953 1.947 1.947 0 01-1.448-1.882zm2.873-5.285a5.536 5.536 0 00-1.624 3.79 6.209 6.209 0 00-.002.25 1.426 1.426 0 00-.727 1.244 1.428 1.428 0 001.294 1.422 8.253 8.253 0 001.254 2.085c1.865 2.273 4.324 4.232 6.653 5.914a1.427 1.427 0 102.775 0c2.329-1.682 4.788-3.641 6.654-5.914a8.383 8.383 0 001.254-2.085 1.428 1.428 0 00.567-2.665c0-.084 0-.168-.003-.252a5.536 5.536 0 00-1.624-3.789c-2.18-2.213-5.183-2.052-7.455-.712a1.42 1.42 0 00-1.56 0c-2.273-1.34-5.275-1.501-7.456.712z" clip-rule="evenodd"/>
          </g>
        </g>
      </g>
      <g class="symbol_9">
        <g class="♥ hearts_9">
          <g class="fill_7">
            <path fill="#F24E1E" d="M57.254 53.373c-1.728-1.754-4.172-1.71-6.112-.597a1.43 1.43 0 01-1.384 1.778 1.427 1.427 0 01-1.384-1.778c-1.94-1.114-4.384-1.157-6.113.597-.888.903-1.3 2.015-1.325 3.168a1.428 1.428 0 01.528 2.52c.264.603.62 1.183 1.055 1.713 1.778 2.166 4.144 4.058 6.448 5.724a1.42 1.42 0 011.581 0c2.305-1.666 4.671-3.558 6.45-5.724.434-.53.79-1.11 1.054-1.712a1.428 1.428 0 01.527-2.52c-.024-1.154-.436-2.266-1.325-3.168z"/>
            <path fill="#F24E1E" d="M49.365 53.642a.65.65 0 01.393-1.165.649.649 0 11-.393 1.165zM49.757 67.038a.649.649 0 110 1.298.649.649 0 010-1.298zM58.35 58.238a.646.646 0 01.177-.826.649.649 0 11-.177.827zM40.596 58.577a.649.649 0 100-1.298.649.649 0 000 1.298z"/>
          </g>
          <path fill="#fff" fill-rule="evenodd" d="M59.62 56.684c.014-1.439-.469-2.865-1.627-4.04-2.18-2.214-5.183-2.053-7.455-.713a1.42 1.42 0 00-1.56 0c-2.273-1.34-5.275-1.501-7.455.712-1.158 1.176-1.64 2.602-1.627 4.04a1.427 1.427 0 00.567 2.666c.312.75.74 1.458 1.254 2.085 1.865 2.273 4.324 4.232 6.653 5.914a1.427 1.427 0 102.774 0c2.33-1.682 4.79-3.641 6.655-5.914a8.362 8.362 0 001.254-2.085 1.428 1.428 0 00.567-2.665zm-8.478-3.908c1.94-1.114 4.384-1.157 6.112.597a4.543 4.543 0 011.325 3.168 1.428 1.428 0 00-.527 2.52 7.357 7.357 0 01-1.055 1.713c-1.778 2.166-4.144 4.058-6.449 5.724a1.421 1.421 0 00-1.58 0c-2.305-1.666-4.672-3.558-6.45-5.724a7.555 7.555 0 01-.558-.776 7.185 7.185 0 01-.496-.936 1.425 1.425 0 00.478-1.612 1.43 1.43 0 00-1.005-.909c.024-1.153.436-2.265 1.325-3.167 1.728-1.755 4.172-1.712 6.112-.598a1.431 1.431 0 00.069.906 1.428 1.428 0 002.7-.906zm-1.777.866a.649.649 0 11.786-1.032.649.649 0 01-.786 1.032zm.427 13.397a.649.649 0 10-.07 1.296.649.649 0 00.07-1.296zm8.558-8.8a.646.646 0 01.177-.827.649.649 0 11-.177.827zm-17.105-.311a.649.649 0 11-1.297 0 .649.649 0 011.297 0z" class="stroke_7" clip-rule="evenodd"/>
          <g class="stroke 2_7">
            <path fill="#F24E1E" d="M40.937 56.541zM48.374 52.776z"/>
            <path fill="#F24E1E" fill-rule="evenodd" d="M38.65 57.928c0-.615.285-1.164.73-1.52a6.054 6.054 0 011.773-4.129c2.31-2.345 5.445-2.232 7.833-.94a1.943 1.943 0 011.544 0c2.388-1.292 5.523-1.405 7.833.94a6.054 6.054 0 011.773 4.13 1.947 1.947 0 01-.718 3.402 8.899 8.899 0 01-1.218 1.952c-1.84 2.243-4.234 4.174-6.499 5.824a1.947 1.947 0 11-3.888 0c-2.264-1.65-4.657-3.581-6.497-5.824a8.902 8.902 0 01-1.218-1.953 1.947 1.947 0 01-1.448-1.882zm2.873-5.285a5.536 5.536 0 00-1.624 3.79 6.206 6.206 0 00-.003.25 1.432 1.432 0 00-.727 1.245 1.428 1.428 0 001.294 1.421 8.256 8.256 0 001.254 2.085c1.865 2.273 4.324 4.232 6.653 5.914a1.427 1.427 0 102.774 0c2.33-1.682 4.79-3.641 6.655-5.914a8.382 8.382 0 001.254-2.085 1.428 1.428 0 00.567-2.666c0-.083 0-.167-.003-.25a5.536 5.536 0 00-1.624-3.79c-2.18-2.213-5.183-2.052-7.455-.712a1.42 1.42 0 00-1.56 0c-2.273-1.34-5.275-1.501-7.455.712z" clip-rule="evenodd"/>
          </g>
        </g>
      </g>
    </g>
  </g>
</svg>
