<svg xmlns="http://www.w3.org/2000/svg" width="80" height="111" fill="none" viewBox="0 0 80 111">
  <g class="six_heart">
    <rect width="74.81" height="104.734" x=".017" y=".359" fill="#fff" rx="3.62"/>
    <rect width="78.991" height="110.588" x=".017" y=".359" fill="#fff" class="bg" rx="3.62"/>
    <g class="down">
      <g class="letter">
        <path fill="#222" d="M71.2 92.703c0-1.535-.463-2.736-1.406-3.57-.926-.852-2.117-1.269-3.573-1.269-1.356 0-2.514.417-3.507 1.268-.992.852-1.489 2.27-1.489 4.289v4.555c0 1.953.48 3.388 1.423 4.339.943.951 2.217 1.418 3.804 1.418 1.787 0 3.243-.701 4.384-2.119l-1.82-.985c-.562 1.018-1.406 1.519-2.547 1.519-.943 0-1.687-.3-2.216-.901-.53-.601-.811-1.686-.811-3.287v-2.153c.794 1.135 1.935 1.702 3.44 1.702 1.29 0 2.333-.417 3.127-1.235.794-.817 1.191-1.985 1.191-3.57zm-2.216.017c0 1.252-.232 2.103-.695 2.57-.463.45-1.059.684-1.803.684-1.588 0-2.597-.734-3.028-2.203 0-1.885.265-3.07.794-3.57.53-.501 1.192-.751 1.986-.751.76 0 1.422.25 1.951.75.53.501.795 1.335.795 2.52z" class="Vector"/>
      </g>
      <g class="symbol">
        <path fill="#F24E1E" d="M67.538 79.887c.707.863.875 2.068.099 2.856-.838.853-2.114.606-2.888-.181-.774.787-2.05 1.034-2.888.181-.776-.788-.608-1.993.099-2.856.764-.932 1.809-1.733 2.789-2.427.98.694 2.025 1.495 2.789 2.427z" class="♥ hearts"/>
      </g>
    </g>
    <g class="up">
      <g class="letter_2">
        <path fill="#222" d="M15.886 15.016c0 1.535-.463 2.737-1.406 3.571-.926.851-2.117 1.268-3.573 1.268-1.357 0-2.514-.417-3.507-1.268-.992-.85-1.489-2.27-1.489-4.288V9.743c0-1.952.48-3.387 1.423-4.338.943-.951 2.216-1.419 3.805-1.419 1.786 0 3.242.701 4.383 2.12l-1.82.984c-.562-1.018-1.406-1.518-2.547-1.518-.943 0-1.687.3-2.217.9-.529.601-.81 1.686-.81 3.288v2.152c.794-1.134 1.935-1.702 3.44-1.702 1.29 0 2.333.418 3.127 1.235.794.818 1.191 1.986 1.191 3.571zM13.669 15c0-1.251-.231-2.102-.694-2.57-.463-.45-1.059-.683-1.803-.683-1.588 0-2.597.734-3.028 2.202 0 1.886.265 3.07.794 3.571.53.5 1.191.751 1.986.751.76 0 1.422-.25 1.951-.75.53-.502.794-1.336.794-2.52z" class="Vector_2"/>
      </g>
      <g class="symbol_2">
        <path fill="#F24E1E" d="M7.407 25.525c-.707-.863-.874-2.067-.099-2.856.838-.853 2.114-.606 2.888.182.774-.788 2.05-1.035 2.888-.182.776.789.608 1.993-.099 2.856-.763.932-1.809 1.733-2.789 2.428-.98-.695-2.025-1.496-2.789-2.428z" class="♥ hearts_2"/>
      </g>
    </g>
    <g class="icons">
      <g class="symbol_3">
        <g class="♥ hearts_3">
          <g class="fill">
            <path fill="#F24E1E" d="M34.49 50.2c-1.728-1.755-4.172-1.712-6.112-.598a1.43 1.43 0 01-1.384 1.778 1.427 1.427 0 01-1.384-1.778c-1.94-1.114-4.384-1.156-6.112.598-.89.902-1.3 2.014-1.325 3.167a1.428 1.428 0 01.527 2.52c.264.604.62 1.183 1.055 1.713 1.778 2.166 4.144 4.058 6.448 5.724a1.421 1.421 0 011.582 0c2.304-1.665 4.67-3.558 6.448-5.724.435-.53.791-1.11 1.055-1.712a1.428 1.428 0 01.528-2.52c-.025-1.154-.437-2.266-1.325-3.168z"/>
            <path fill="#F24E1E" d="M26.6 50.469a.651.651 0 01.393-1.165.649.649 0 11-.392 1.165zM26.994 63.864a.649.649 0 110 1.298.649.649 0 010-1.298zM35.586 55.065a.646.646 0 01.177-.827.649.649 0 11-.177.827zM17.832 55.403a.649.649 0 100-1.298.649.649 0 000 1.298z"/>
          </g>
          <path fill="#fff" fill-rule="evenodd" d="M36.856 53.51c.014-1.439-.469-2.865-1.627-4.04-2.18-2.214-5.182-2.053-7.454-.713a1.421 1.421 0 00-1.561 0c-2.272-1.34-5.274-1.501-7.455.713-1.158 1.175-1.64 2.601-1.627 4.04a1.427 1.427 0 00.567 2.666 8.36 8.36 0 001.254 2.084c1.865 2.273 4.324 4.232 6.654 5.915a1.427 1.427 0 102.774 0c2.33-1.682 4.789-3.642 6.654-5.915a8.363 8.363 0 001.254-2.084 1.428 1.428 0 00.567-2.666zm-8.478-3.908c1.94-1.114 4.384-1.157 6.113.598a4.543 4.543 0 011.325 3.167 1.428 1.428 0 00-.528 2.52 7.358 7.358 0 01-1.055 1.713c-1.777 2.166-4.144 4.059-6.448 5.724a1.421 1.421 0 00-1.581 0c-2.305-1.666-4.671-3.558-6.449-5.724a7.533 7.533 0 01-.558-.775 7.166 7.166 0 01-.497-.937 1.425 1.425 0 00.478-1.612 1.43 1.43 0 00-1.005-.909c.024-1.153.436-2.265 1.325-3.167 1.728-1.755 4.172-1.712 6.112-.598a1.43 1.43 0 001.384 1.778 1.427 1.427 0 001.384-1.778zm-1.777.867a.65.65 0 11.787-1.033.65.65 0 01-.787 1.033zm.427 13.396a.649.649 0 10-.07 1.296.649.649 0 00.07-1.296zm8.558-8.8a.646.646 0 01.177-.827.649.649 0 11-.177.827zm-17.105-.31a.649.649 0 11-1.297 0 .649.649 0 011.297 0z" class="stroke" clip-rule="evenodd"/>
          <g class="stroke 2">
            <path fill="#F24E1E" d="M18.173 53.367zM25.61 49.602z"/>
            <path fill="#F24E1E" fill-rule="evenodd" d="M15.886 54.754c0-.615.286-1.163.73-1.52a6.055 6.055 0 011.773-4.129c2.31-2.344 5.445-2.231 7.833-.94a1.94 1.94 0 011.544 0c2.388-1.291 5.523-1.404 7.833.94a6.055 6.055 0 011.773 4.13 1.947 1.947 0 01-.718 3.402 8.907 8.907 0 01-1.218 1.953c-1.84 2.242-4.234 4.174-6.498 5.823l.002.1a1.947 1.947 0 11-3.89-.1c-2.265-1.65-4.658-3.581-6.498-5.823a8.903 8.903 0 01-1.218-1.954 1.947 1.947 0 01-1.448-1.882zm2.873-5.284a5.536 5.536 0 00-1.624 3.788 6.394 6.394 0 00-.003.252 1.426 1.426 0 00.567 2.665 8.382 8.382 0 001.254 2.085c1.865 2.273 4.324 4.232 6.653 5.915a1.427 1.427 0 102.774 0c2.33-1.682 4.79-3.642 6.655-5.915a8.38 8.38 0 001.254-2.084 1.428 1.428 0 00.567-2.665 5.536 5.536 0 00-1.627-4.04c-2.18-2.215-5.182-2.054-7.454-.714a1.421 1.421 0 00-1.561 0c-2.272-1.34-5.274-1.501-7.455.713z" clip-rule="evenodd"/>
          </g>
        </g>
      </g>
      <g class="symbol_4">
        <g class="♥ hearts_4">
          <g class="fill_2">
            <path fill="#F24E1E" d="M34.49 21.636c-1.728-1.754-4.172-1.712-6.112-.598a1.43 1.43 0 01-1.384 1.778 1.427 1.427 0 01-1.384-1.778c-1.94-1.114-4.384-1.156-6.112.598-.89.902-1.3 2.014-1.325 3.168a1.428 1.428 0 01.527 2.52c.264.603.62 1.182 1.055 1.712 1.778 2.166 4.144 4.059 6.448 5.724.227-.15.498-.238.79-.238.293 0 .565.088.792.239 2.304-1.666 4.67-3.559 6.448-5.725a7.36 7.36 0 001.055-1.712 1.428 1.428 0 01.528-2.52c-.025-1.154-.437-2.266-1.325-3.168z"/>
            <path fill="#F24E1E" d="M26.6 21.905a.65.65 0 01.393-1.165.649.649 0 11-.392 1.165zM26.994 35.3a.649.649 0 110 1.298.649.649 0 010-1.298zM35.586 26.5a.646.646 0 01.177-.826.649.649 0 11-.177.827zM17.832 26.84a.649.649 0 100-1.299.649.649 0 000 1.298z"/>
          </g>
          <path fill="#fff" fill-rule="evenodd" d="M36.856 24.946c.014-1.439-.469-2.865-1.627-4.04-2.18-2.214-5.182-2.053-7.454-.713a1.42 1.42 0 00-.78-.232 1.42 1.42 0 00-.781.232c-2.272-1.34-5.274-1.5-7.455.713-1.158 1.175-1.64 2.601-1.627 4.04a1.427 1.427 0 00.567 2.666c.312.75.74 1.458 1.254 2.084 1.865 2.273 4.324 4.232 6.654 5.915a1.427 1.427 0 102.774 0c2.33-1.682 4.789-3.642 6.654-5.915a8.36 8.36 0 001.254-2.084 1.428 1.428 0 00.567-2.666zm-8.478-3.908c1.94-1.114 4.384-1.156 6.113.598a4.543 4.543 0 011.325 3.168 1.428 1.428 0 00-.528 2.52 7.358 7.358 0 01-1.055 1.712c-1.777 2.166-4.144 4.059-6.448 5.724a1.421 1.421 0 00-1.582 0c-2.304-1.665-4.67-3.558-6.448-5.724a7.533 7.533 0 01-.558-.775 7.173 7.173 0 01-.497-.937 1.425 1.425 0 00.478-1.612 1.43 1.43 0 00-1.005-.908c.024-1.154.436-2.266 1.325-3.168 1.728-1.754 4.172-1.712 6.112-.598a1.43 1.43 0 001.384 1.778 1.427 1.427 0 001.384-1.778zm-1.777.867a.65.65 0 11.787-1.033.65.65 0 01-.787 1.033zm.427 13.396a.649.649 0 10-.07 1.296.649.649 0 00.07-1.296zm8.558-8.8a.646.646 0 01.177-.827.649.649 0 11-.177.827zm-17.105-.31a.649.649 0 11-1.297 0 .649.649 0 011.297 0z" class="stroke_2" clip-rule="evenodd"/>
          <g class="stroke 2_2">
            <path fill="#F24E1E" d="M18.173 24.804zM25.61 21.038z"/>
            <path fill="#F24E1E" fill-rule="evenodd" d="M15.886 26.19c0-.615.286-1.163.73-1.52a6.054 6.054 0 011.773-4.129c2.31-2.344 5.445-2.231 7.833-.94a1.94 1.94 0 011.544 0c2.388-1.291 5.523-1.404 7.833.94a6.054 6.054 0 011.773 4.13 1.947 1.947 0 01-.718 3.402 8.902 8.902 0 01-1.218 1.953c-1.84 2.242-4.234 4.174-6.498 5.823l.002.1a1.947 1.947 0 11-3.89-.1c-2.265-1.65-4.658-3.58-6.498-5.823a8.899 8.899 0 01-1.218-1.954 1.947 1.947 0 01-1.448-1.882zm2.873-5.284a5.536 5.536 0 00-1.624 3.789 6.397 6.397 0 00-.003.251 1.426 1.426 0 00.567 2.665 8.382 8.382 0 001.254 2.085c1.865 2.273 4.324 4.232 6.653 5.915a1.427 1.427 0 102.774 0c2.33-1.682 4.79-3.642 6.655-5.915a8.38 8.38 0 001.254-2.084 1.428 1.428 0 00.567-2.665 5.536 5.536 0 00-1.627-4.04c-2.18-2.215-5.182-2.054-7.454-.714a1.422 1.422 0 00-1.561 0c-2.272-1.34-5.274-1.5-7.455.713z" clip-rule="evenodd"/>
          </g>
        </g>
      </g>
      <g class="symbol_5">
        <g class="♥ hearts_5">
          <g class="fill_3">
            <path fill="#F24E1E" d="M57.614 89.257c-1.729 1.755-4.173 1.712-6.113.598a1.43 1.43 0 00-1.384-1.778 1.427 1.427 0 00-1.384 1.778c-1.94 1.114-4.384 1.157-6.112-.598-.89-.902-1.3-2.014-1.325-3.167a1.428 1.428 0 00.527-2.52 7.358 7.358 0 011.055-1.713c1.778-2.166 4.144-4.058 6.448-5.724a1.421 1.421 0 001.581 0c2.305 1.665 4.672 3.558 6.45 5.724.434.53.79 1.11 1.054 1.712a1.428 1.428 0 00.528 2.52c-.025 1.154-.437 2.266-1.325 3.168z"/>
            <path fill="#F24E1E" d="M49.724 88.988a.651.651 0 00.393 1.165.649.649 0 10-.393-1.165zM50.117 75.593h.034a.649.649 0 10-.034 0zM58.709 84.393a.646.646 0 00.177.826.649.649 0 10-.177-.827zM40.956 84.054a.649.649 0 110 1.298.649.649 0 010-1.298z"/>
          </g>
          <path fill="#fff" fill-rule="evenodd" d="M59.98 85.947c.013 1.439-.47 2.865-1.627 4.04-2.181 2.214-5.183 2.053-7.456.713a1.42 1.42 0 01-1.56 0c-2.272 1.34-5.274 1.501-7.455-.713-1.158-1.175-1.64-2.601-1.627-4.04a1.427 1.427 0 01.567-2.665 8.36 8.36 0 011.254-2.085c1.865-2.273 4.324-4.232 6.654-5.915a1.427 1.427 0 112.774 0c2.33 1.683 4.789 3.642 6.654 5.915a8.363 8.363 0 011.254 2.085 1.428 1.428 0 01.567 2.665zM51.5 89.855c1.94 1.114 4.384 1.157 6.113-.598a4.543 4.543 0 001.325-3.167 1.428 1.428 0 01-.528-2.52 7.355 7.355 0 00-1.055-1.713c-1.778-2.166-4.144-4.059-6.449-5.724a1.42 1.42 0 01-.79.239 1.42 1.42 0 01-.79-.239c-2.305 1.666-4.671 3.558-6.449 5.724-.204.249-.39.508-.558.775-.19.303-.357.617-.497.937a1.425 1.425 0 01.478 1.612 1.43 1.43 0 01-1.005.909c.024 1.153.436 2.265 1.325 3.167 1.728 1.755 4.173 1.712 6.112.598a1.43 1.43 0 01.069-.906 1.428 1.428 0 012.7.906zm-1.777-.867a.65.65 0 10.787 1.034.65.65 0 00-.787-1.034zm.427-13.396l-.034.001a.649.649 0 11.034 0zm8.558 8.8a.646.646 0 00.177.827.649.649 0 10-.177-.827zm-17.105.31a.649.649 0 10-1.297.001.649.649 0 001.297 0z" class="stroke_3" clip-rule="evenodd"/>
          <g class="stroke 2_3">
            <path fill="#F24E1E" d="M41.296 86.09zM48.733 89.855z"/>
            <path fill="#F24E1E" fill-rule="evenodd" d="M39.009 84.703c0 .615.286 1.163.73 1.52a6.054 6.054 0 001.773 4.129c2.31 2.344 5.445 2.232 7.833.94a1.943 1.943 0 001.544 0c2.388 1.292 5.523 1.404 7.833-.94a6.054 6.054 0 001.773-4.13 1.947 1.947 0 00-.718-3.402 8.905 8.905 0 00-1.218-1.952c-1.84-2.243-4.234-4.174-6.498-5.824a1.947 1.947 0 10-3.888 0c-2.265 1.65-4.658 3.581-6.498 5.824a8.908 8.908 0 00-1.218 1.953c-.834.22-1.448.98-1.448 1.882zm2.873 5.284a5.536 5.536 0 01-1.624-3.788 6.206 6.206 0 01-.003-.252 1.426 1.426 0 01.567-2.665 8.38 8.38 0 011.254-2.085c1.865-2.273 4.324-4.232 6.654-5.915a1.427 1.427 0 112.774 0c2.33 1.683 4.789 3.642 6.654 5.915a8.379 8.379 0 011.254 2.085 1.428 1.428 0 01.567 2.665 5.536 5.536 0 01-1.627 4.04c-2.18 2.214-5.182 2.053-7.454.713a1.42 1.42 0 01-1.561 0c-2.272 1.34-5.274 1.501-7.455-.713z" clip-rule="evenodd"/>
          </g>
        </g>
      </g>
      <g class="symbol_6">
        <g class="♥ hearts_6">
          <g class="fill_4">
            <path fill="#F24E1E" d="M34.49 89.257c-1.728 1.755-4.172 1.712-6.112.598a1.43 1.43 0 00-1.384-1.778 1.427 1.427 0 00-1.384 1.778c-1.94 1.114-4.384 1.157-6.112-.598-.89-.902-1.3-2.014-1.325-3.167a1.428 1.428 0 00.527-2.52 7.355 7.355 0 011.055-1.713c1.778-2.166 4.144-4.058 6.448-5.724a1.421 1.421 0 001.582 0c2.304 1.665 4.67 3.558 6.448 5.724.435.53.791 1.11 1.055 1.712a1.428 1.428 0 00.528 2.52c-.025 1.154-.437 2.266-1.325 3.168z"/>
            <path fill="#F24E1E" d="M26.6 88.988a.651.651 0 00.393 1.165.649.649 0 10-.392-1.165zM26.994 75.593a.649.649 0 100-1.298.649.649 0 000 1.298zM35.586 84.393a.646.646 0 00.177.826.649.649 0 10-.177-.827zM17.832 84.054a.649.649 0 110 1.298.649.649 0 010-1.298z"/>
          </g>
          <path fill="#fff" fill-rule="evenodd" d="M36.856 85.947c.014 1.439-.469 2.865-1.627 4.04-2.18 2.214-5.182 2.053-7.454.713a1.421 1.421 0 01-1.561 0c-2.272 1.34-5.274 1.501-7.455-.713-1.158-1.175-1.64-2.601-1.627-4.04a1.427 1.427 0 01.567-2.665 8.36 8.36 0 011.254-2.085c1.865-2.273 4.324-4.232 6.654-5.915a1.427 1.427 0 112.774 0c2.33 1.683 4.789 3.642 6.654 5.915a8.363 8.363 0 011.254 2.085 1.428 1.428 0 01.567 2.665zm-8.478 3.908c1.94 1.114 4.384 1.157 6.113-.598a4.543 4.543 0 001.325-3.167 1.428 1.428 0 01-.528-2.52 7.358 7.358 0 00-1.055-1.713c-1.777-2.166-4.144-4.059-6.448-5.724a1.42 1.42 0 01-.791.239c-.293 0-.564-.088-.79-.239-2.305 1.666-4.671 3.558-6.449 5.724-.204.249-.39.508-.558.775-.19.303-.357.617-.497.937a1.425 1.425 0 01.478 1.612 1.43 1.43 0 01-1.005.909c.024 1.153.436 2.265 1.325 3.167 1.728 1.755 4.172 1.712 6.112.598a1.43 1.43 0 011.384-1.778 1.427 1.427 0 011.384 1.778zm-1.777-.867a.65.65 0 10.787 1.033.65.65 0 00-.787-1.033zm.427-13.396a.649.649 0 11-.07-1.296.649.649 0 01.07 1.296zm8.558 8.8a.646.646 0 00.177.827.649.649 0 10-.177-.827zm-17.105.31a.649.649 0 10-1.297.001.649.649 0 001.297 0z" class="stroke_4" clip-rule="evenodd"/>
          <g class="stroke 2_4">
            <path fill="#F24E1E" d="M18.173 86.09zM25.61 89.855z"/>
            <path fill="#F24E1E" fill-rule="evenodd" d="M15.886 84.703c0 .615.286 1.163.73 1.52a6.055 6.055 0 001.773 4.129c2.31 2.344 5.445 2.232 7.833.94a1.943 1.943 0 001.544 0c2.388 1.292 5.523 1.404 7.833-.94a6.055 6.055 0 001.773-4.13 1.947 1.947 0 00-.718-3.402 8.905 8.905 0 00-1.218-1.952c-1.84-2.243-4.234-4.174-6.498-5.824l.002-.1a1.947 1.947 0 10-3.89.101c-2.265 1.65-4.658 3.58-6.498 5.823a8.9 8.9 0 00-1.218 1.953c-.834.22-1.448.98-1.448 1.882zm2.873 5.284a5.536 5.536 0 01-1.624-3.788 6.394 6.394 0 01-.003-.252 1.426 1.426 0 01.567-2.665 8.382 8.382 0 011.254-2.085c1.865-2.273 4.324-4.232 6.653-5.915a1.427 1.427 0 112.774 0c2.33 1.683 4.79 3.642 6.655 5.915a8.38 8.38 0 011.254 2.085 1.428 1.428 0 01.567 2.665 5.536 5.536 0 01-1.627 4.04c-2.18 2.214-5.182 2.053-7.454.713a1.421 1.421 0 01-1.561 0c-2.272 1.34-5.274 1.501-7.455-.713z" clip-rule="evenodd"/>
          </g>
        </g>
      </g>
      <g class="symbol_7">
        <g class="♥ hearts_7">
          <g class="fill_5">
            <path fill="#F24E1E" d="M57.614 21.183c-1.729-1.755-4.173-1.712-6.113-.598a1.43 1.43 0 01-1.384 1.778 1.427 1.427 0 01-1.384-1.778c-1.94-1.114-4.384-1.157-6.112.598-.89.902-1.3 2.014-1.325 3.167a1.428 1.428 0 01.527 2.52c.264.604.62 1.183 1.055 1.713 1.778 2.166 4.144 4.058 6.448 5.724a1.42 1.42 0 01.79-.239c.293 0 .565.088.791.24 2.305-1.666 4.672-3.56 6.45-5.725.434-.53.79-1.11 1.054-1.712a1.428 1.428 0 01.528-2.52c-.025-1.154-.437-2.266-1.325-3.168z"/>
            <path fill="#F24E1E" d="M49.724 21.451a.65.65 0 01.393-1.165.649.649 0 11-.393 1.165zM50.117 34.847h.034a.649.649 0 11-.034 0zM58.709 26.047a.646.646 0 01.177-.826.649.649 0 11-.177.827zM40.956 26.386a.649.649 0 100-1.298.649.649 0 000 1.298z"/>
          </g>
          <path fill="#fff" fill-rule="evenodd" d="M59.98 24.493c.013-1.439-.47-2.865-1.627-4.04-2.181-2.214-5.183-2.053-7.456-.713a1.42 1.42 0 00-1.56 0c-2.272-1.34-5.274-1.501-7.455.712-1.158 1.176-1.64 2.602-1.627 4.04a1.427 1.427 0 00.567 2.666 8.36 8.36 0 001.254 2.085c1.865 2.273 4.324 4.232 6.654 5.914a1.427 1.427 0 102.774 0c2.33-1.682 4.789-3.641 6.654-5.914a8.362 8.362 0 001.254-2.085 1.428 1.428 0 00.567-2.665zM51.5 20.585c1.94-1.114 4.384-1.157 6.113.598a4.543 4.543 0 011.325 3.167 1.428 1.428 0 00-.528 2.52 7.355 7.355 0 01-1.055 1.713c-1.778 2.166-4.144 4.059-6.449 5.724a1.421 1.421 0 00-1.58 0c-2.305-1.666-4.671-3.558-6.449-5.724a7.528 7.528 0 01-.558-.775 7.173 7.173 0 01-.497-.938 1.425 1.425 0 00.478-1.611 1.43 1.43 0 00-1.005-.909c.024-1.153.436-2.265 1.325-3.168 1.728-1.754 4.173-1.71 6.112-.597a1.43 1.43 0 001.384 1.778 1.427 1.427 0 001.384-1.778zm-1.777.866a.65.65 0 11.787-1.032.65.65 0 01-.787 1.032zm.427 13.397l-.034-.001a.649.649 0 10.034 0zm8.558-8.8a.646.646 0 01.177-.827.649.649 0 11-.177.827zm-17.105-.311a.649.649 0 11-1.297 0 .649.649 0 011.297 0z" class="stroke_5" clip-rule="evenodd"/>
          <g class="stroke 2_5">
            <path fill="#F24E1E" d="M41.296 24.35zM48.733 20.585z"/>
            <path fill="#F24E1E" fill-rule="evenodd" d="M39.009 25.737c0-.615.286-1.164.73-1.52a6.054 6.054 0 011.773-4.129c2.31-2.345 5.445-2.232 7.833-.94a1.941 1.941 0 011.544 0c2.388-1.292 5.523-1.404 7.833.94a6.054 6.054 0 011.773 4.13 1.947 1.947 0 01-.718 3.402 8.903 8.903 0 01-1.218 1.952c-1.84 2.243-4.234 4.174-6.498 5.824l.002.1a1.947 1.947 0 11-3.89-.101c-2.265-1.65-4.658-3.58-6.498-5.823a8.906 8.906 0 01-1.218-1.953 1.947 1.947 0 01-1.448-1.882zm2.873-5.285a5.536 5.536 0 00-1.624 3.79 6.209 6.209 0 00-.003.25 1.426 1.426 0 00-.727 1.244 1.428 1.428 0 001.294 1.422 8.253 8.253 0 001.254 2.085c1.865 2.273 4.324 4.232 6.654 5.915a1.427 1.427 0 102.774 0c2.33-1.683 4.789-3.642 6.654-5.915a8.379 8.379 0 001.254-2.085 1.428 1.428 0 00.567-2.665 5.536 5.536 0 00-1.627-4.04c-2.18-2.214-5.182-2.053-7.454-.713a1.42 1.42 0 00-.78-.232 1.42 1.42 0 00-.781.232c-2.272-1.34-5.274-1.501-7.455.712z" clip-rule="evenodd"/>
          </g>
        </g>
      </g>
      <g class="symbol_8">
        <g class="♥ hearts_8">
          <g class="fill_6">
            <path fill="#F24E1E" d="M57.614 49.746c-1.729-1.754-4.173-1.711-6.113-.597a1.43 1.43 0 01-1.384 1.778 1.427 1.427 0 01-1.384-1.778c-1.94-1.114-4.384-1.157-6.112.597-.89.903-1.3 2.015-1.325 3.168a1.428 1.428 0 01.527 2.52c.264.603.62 1.183 1.055 1.713 1.778 2.166 4.144 4.058 6.448 5.724a1.42 1.42 0 01.79-.239c.293 0 .565.088.791.239 2.305-1.666 4.672-3.558 6.45-5.724.434-.53.79-1.11 1.054-1.713a1.428 1.428 0 01.528-2.52c-.025-1.153-.437-2.265-1.325-3.168z"/>
            <path fill="#F24E1E" d="M49.724 50.015a.65.65 0 01.393-1.165.649.649 0 11-.393 1.165zM50.117 63.41l.034.002a.649.649 0 11-.034-.001zM58.709 54.611a.646.646 0 01.177-.826.649.649 0 11-.177.827zM40.956 54.95a.649.649 0 100-1.298.649.649 0 000 1.298z"/>
          </g>
          <path fill="#fff" fill-rule="evenodd" d="M59.98 53.057c.013-1.44-.47-2.865-1.627-4.04-2.181-2.215-5.183-2.053-7.456-.713a1.42 1.42 0 00-1.56 0c-2.272-1.34-5.274-1.502-7.455.712-1.158 1.176-1.64 2.602-1.627 4.04a1.427 1.427 0 00.567 2.666 8.36 8.36 0 001.254 2.085c1.865 2.272 4.324 4.232 6.654 5.914a1.427 1.427 0 102.774 0c2.33-1.682 4.789-3.641 6.654-5.914a8.364 8.364 0 001.254-2.085 1.428 1.428 0 00.567-2.665zM51.5 49.149c1.94-1.114 4.384-1.157 6.113.597a4.543 4.543 0 011.325 3.168 1.428 1.428 0 00-.528 2.52 7.357 7.357 0 01-1.055 1.713c-1.778 2.166-4.144 4.058-6.449 5.724a1.421 1.421 0 00-.79-.239 1.42 1.42 0 00-.79.239c-2.305-1.666-4.671-3.558-6.449-5.724a7.54 7.54 0 01-.558-.776 7.173 7.173 0 01-.497-.937 1.425 1.425 0 00.478-1.611 1.43 1.43 0 00-1.005-.909c.024-1.153.436-2.265 1.325-3.168 1.728-1.754 4.173-1.711 6.112-.597a1.431 1.431 0 00.069.906 1.428 1.428 0 002.7-.906zm-1.777.866a.65.65 0 11.787-1.033.65.65 0 01-.787 1.033zm.427 13.397l-.034-.001a.649.649 0 10.034 0zm8.558-8.8a.646.646 0 01.177-.828.649.649 0 11-.177.827zM41.604 54.3a.649.649 0 11-1.297 0 .649.649 0 011.297 0z" class="stroke_6" clip-rule="evenodd"/>
          <g class="stroke 2_6">
            <path fill="#F24E1E" d="M41.296 52.914zM48.733 49.149z"/>
            <path fill="#F24E1E" fill-rule="evenodd" d="M39.009 54.3c0-.615.286-1.163.73-1.519a6.054 6.054 0 011.773-4.129c2.31-2.345 5.445-2.232 7.833-.94a1.943 1.943 0 011.544 0c2.388-1.292 5.523-1.405 7.833.94a6.054 6.054 0 011.773 4.13 1.947 1.947 0 01-.718 3.402 8.903 8.903 0 01-1.218 1.952c-1.84 2.243-4.234 4.174-6.498 5.823l.002.1a1.947 1.947 0 11-3.89-.1c-2.265-1.65-4.658-3.58-6.498-5.823a8.906 8.906 0 01-1.218-1.953 1.947 1.947 0 01-1.448-1.882zm2.873-5.284a5.536 5.536 0 00-1.624 3.79 6.206 6.206 0 00-.003.25 1.426 1.426 0 00-.727 1.244 1.428 1.428 0 001.294 1.422 8.253 8.253 0 001.254 2.085c1.865 2.272 4.324 4.232 6.654 5.914a1.427 1.427 0 102.774 0c2.33-1.682 4.789-3.641 6.654-5.914a8.379 8.379 0 001.254-2.085 1.428 1.428 0 00.567-2.666 5.536 5.536 0 00-1.627-4.04c-2.18-2.213-5.182-2.052-7.454-.712a1.42 1.42 0 00-1.561 0c-2.272-1.34-5.274-1.501-7.455.712z" clip-rule="evenodd"/>
          </g>
        </g>
      </g>
    </g>
  </g>
</svg>
