<svg xmlns="http://www.w3.org/2000/svg" width="80" height="111" fill="none" viewBox="0 0 80 111">
  <g class="six_diamond">
    <rect width="78.991" height="110.588" x=".017" fill="#fff" class="bg" rx="3.62"/>
    <g class="down">
      <g class="letter">
        <path fill="#222" d="M71.2 92.344c0-1.535-.463-2.737-1.406-3.57-.926-.852-2.117-1.269-3.573-1.269-1.356 0-2.514.417-3.507 1.268-.992.851-1.489 2.27-1.489 4.288v4.556c0 1.952.48 3.387 1.423 4.338.943.952 2.217 1.419 3.804 1.419 1.787 0 3.243-.701 4.384-2.119l-1.82-.985c-.562 1.018-1.406 1.519-2.547 1.519-.943 0-1.687-.301-2.216-.902-.53-.6-.811-1.685-.811-3.287v-2.152c.794 1.134 1.935 1.702 3.44 1.702 1.29 0 2.333-.418 3.127-1.235.794-.818 1.191-1.986 1.191-3.571zm-2.216.017c0 1.251-.232 2.102-.695 2.57-.463.45-1.059.684-1.803.684-1.588 0-2.597-.735-3.028-2.203 0-1.886.265-3.07.794-3.57.53-.501 1.192-.752 1.986-.752.76 0 1.422.25 1.951.751.53.5.795 1.335.795 2.52z" class="Vector"/>
      </g>
      <g class="symbol">
        <path fill="#F24E1E" d="M64.734 77.15l2.473 2.88-2.473 2.888-2.472-2.888 2.472-2.88z" class="♦ diamonds"/>
      </g>
    </g>
    <g class="up">
      <g class="letter_2">
        <path fill="#222" d="M15.886 14.657c0 1.535-.463 2.736-1.406 3.57-.926.852-2.117 1.269-3.573 1.269-1.357 0-2.514-.417-3.507-1.268-.992-.851-1.489-2.27-1.489-4.289V9.384c0-1.952.48-3.387 1.423-4.338.943-.952 2.216-1.419 3.805-1.419 1.786 0 3.242.701 4.383 2.12l-1.82.984c-.562-1.018-1.406-1.519-2.547-1.519-.943 0-1.687.3-2.217.901-.529.601-.81 1.686-.81 3.288v2.152c.794-1.135 1.935-1.702 3.44-1.702 1.29 0 2.333.417 3.127 1.235.794.818 1.191 1.986 1.191 3.57zm-2.217-.017c0-1.251-.231-2.102-.694-2.57-.463-.45-1.059-.684-1.803-.684-1.588 0-2.597.735-3.028 2.203 0 1.886.265 3.07.794 3.57.53.501 1.191.752 1.986.752.76 0 1.422-.25 1.951-.751.53-.5.794-1.335.794-2.52z" class="Vector_2"/>
      </g>
      <g class="symbol_2">
        <path fill="#F24E1E" d="M10.211 27.544l-2.472-2.88 2.472-2.889 2.472 2.889-2.472 2.88z" class="♦ diamonds_2"/>
      </g>
    </g>
    <g class="icons">
      <g class="symbol_3">
        <g class="♦ diamonds_3">
          <path fill="#F24E1E" d="M26.29 63.794l-5.68-6.616a1.745 1.745 0 00.046-2.726l5.638-6.587a1.74 1.74 0 001.03.336 1.74 1.74 0 001.032-.336l5.638 6.587c-.385.32-.63.804-.63 1.345 0 .561.264 1.06.675 1.38l-5.68 6.618a1.74 1.74 0 00-1.035-.34 1.74 1.74 0 00-1.034.34z" class="fill"/>
          <path fill="#fff" fill-rule="evenodd" d="M19.316 54.063l6.281-7.339a1.75 1.75 0 011.727-2.018h.001a1.748 1.748 0 011.727 2.017l6.282 7.34a1.748 1.748 0 011.524 1.78l.001.001v.001a1.749 1.749 0 01-1.436 1.672l-6.37 7.422a1.748 1.748 0 01-1.727 2.012h-.002a1.748 1.748 0 01-1.727-2.013l-6.37-7.421a1.749 1.749 0 01-1.435-1.672v-.001-.047c0-.89.664-1.625 1.524-1.734zm6.974 9.731l-5.68-6.616a1.745 1.745 0 00.046-2.726l5.638-6.587a1.74 1.74 0 001.03.336 1.74 1.74 0 001.032-.336l5.638 6.587c-.385.32-.63.804-.63 1.345 0 .561.264 1.06.675 1.38l-5.68 6.618a1.74 1.74 0 00-1.035-.34 1.74 1.74 0 00-1.034.34zm1.034-16.546a.794.794 0 110-1.588.794.794 0 010 1.588zm-.409 17.274a.794.794 0 10.818 1.362.794.794 0 00-.818-1.362zm-6.581-8.725a.794.794 0 11-1.588 0 .794.794 0 011.588 0zm14.328.655a.794.794 0 11.896-1.31.794.794 0 01-.896 1.31z" class="stroke" clip-rule="evenodd"/>
          <path fill="#F24E1E" fill-rule="evenodd" d="M17.155 55.797a1.643 1.643 0 00.002.098 2.384 2.384 0 001.722 2.192l6.063 7.063-.001.053a2.384 2.384 0 002.383 2.384h.001a2.383 2.383 0 002.382-2.435l6.064-7.065a2.384 2.384 0 001.722-2.192c.001-.023.002-.045.001-.067v-.031a2.384 2.384 0 00-1.822-2.317l-5.965-6.969v-.058a2.384 2.384 0 10-4.766.06L18.98 53.48a2.384 2.384 0 00-1.823 2.317zm.637.048v-.001-.047c0-.89.664-1.625 1.524-1.734l6.281-7.339a1.75 1.75 0 011.727-2.018h.001a1.748 1.748 0 011.727 2.017l6.282 7.34a1.748 1.748 0 011.524 1.78l.001.001v.001a1.749 1.749 0 01-1.436 1.672l-6.37 7.422a1.748 1.748 0 01-1.727 2.012h-.002a1.748 1.748 0 01-1.727-2.013l-6.37-7.421a1.749 1.749 0 01-1.435-1.672z" class="stroke 2" clip-rule="evenodd"/>
          <g class="dots">
            <path fill="#F24E1E" d="M27.324 45.659a.794.794 0 110 1.589.794.794 0 010-1.59zM19.539 55.002a.794.794 0 110 1.59.794.794 0 010-1.59zM35.111 55.002a.794.794 0 110 1.59.794.794 0 010-1.59zM28.119 65.204a.794.794 0 11-1.59 0 .794.794 0 011.59 0z"/>
          </g>
        </g>
      </g>
      <g class="symbol_4">
        <g class="♦ diamonds_4">
          <path fill="#F24E1E" d="M26.502 35.59l-5.775-6.726a1.774 1.774 0 00.046-2.77l5.732-6.698c.294.215.656.342 1.048.342a1.77 1.77 0 001.048-.342l5.733 6.697a1.773 1.773 0 00-.642 1.367c0 .57.27 1.079.688 1.404l-5.775 6.728a1.769 1.769 0 00-1.052-.345c-.394 0-.757.127-1.052.344z" class="fill_2"/>
          <path fill="#fff" fill-rule="evenodd" d="M19.41 25.697l6.387-7.46a1.777 1.777 0 011.756-2.052 1.777 1.777 0 011.756 2.05l6.387 7.462a1.777 1.777 0 011.55 1.81v.002a1.778 1.778 0 01-1.46 1.7l-6.476 7.546a1.777 1.777 0 01-1.756 2.046h-.001a1.777 1.777 0 01-1.757-2.047l-6.476-7.545a1.778 1.778 0 01-1.459-1.7v-.001-.048c0-.905.675-1.651 1.55-1.763zm7.091 9.894l-5.774-6.727a1.774 1.774 0 00.046-2.77l5.732-6.698c.294.215.656.342 1.048.342a1.77 1.77 0 001.048-.342l5.733 6.697a1.773 1.773 0 00-.642 1.367c0 .57.27 1.079.688 1.404l-5.775 6.728a1.769 1.769 0 00-1.052-.345c-.394 0-.757.127-1.052.344zm1.052-16.822a.805.805 0 01-.808-.808.808.808 0 11.808.808zm-.416 17.562a.807.807 0 10.83 1.384.807.807 0 00-.83-1.384zm-6.692-8.87a.807.807 0 11-1.613 0 .807.807 0 011.613 0zm14.568.666a.807.807 0 11.912-1.332.807.807 0 01-.912 1.331z" class="stroke_2" clip-rule="evenodd"/>
          <path fill="#F24E1E" fill-rule="evenodd" d="M17.214 27.46a3.435 3.435 0 00.002.1 2.424 2.424 0 001.75 2.229l6.164 7.18v.055a2.423 2.423 0 104.846-.052l6.165-7.183a2.424 2.424 0 001.751-2.297v-.032c0-1.142-.79-2.1-1.853-2.356l-6.064-7.084.001-.059a2.423 2.423 0 00-2.422-2.423h-.001a2.423 2.423 0 00-2.423 2.483l-6.062 7.083a2.424 2.424 0 00-1.854 2.356zm.647.05v-.002-.048c0-.905.675-1.651 1.55-1.763l6.386-7.46a1.777 1.777 0 011.756-2.052 1.777 1.777 0 011.756 2.05l6.387 7.462a1.777 1.777 0 011.55 1.81v.002a1.778 1.778 0 01-1.46 1.7l-6.476 7.546a1.777 1.777 0 01-1.756 2.046h-.001a1.777 1.777 0 01-1.757-2.047l-6.476-7.545a1.778 1.778 0 01-1.459-1.7z" class="stroke 2_2" clip-rule="evenodd"/>
          <g class="dots_2">
            <path fill="#F24E1E" d="M27.553 17.153a.808.808 0 110 1.616.808.808 0 010-1.616zM19.638 26.652a.808.808 0 110 1.616.808.808 0 010-1.616zM35.47 26.652a.808.808 0 110 1.616.808.808 0 010-1.616zM28.36 37.024a.808.808 0 11-1.615 0 .808.808 0 011.616 0z"/>
          </g>
        </g>
      </g>
      <g class="symbol_5">
        <g class="♦ diamonds_5">
          <path fill="#F24E1E" d="M49.413 89.998l-5.68-6.727c.412-.325.677-.833.677-1.404 0-.55-.245-1.04-.63-1.367l5.637-6.696a1.721 1.721 0 002.062 0l5.638 6.696c-.385.326-.63.818-.63 1.367 0 .571.264 1.079.675 1.404L51.483 90a1.721 1.721 0 00-2.069 0z" class="fill_3"/>
          <path fill="#fff" fill-rule="evenodd" d="M42.439 80.105l6.282-7.462a1.822 1.822 0 01-.021-.275c0-.981.782-1.777 1.748-1.777.965 0 1.747.796 1.747 1.777 0 .093-.007.185-.02.274l6.282 7.463a1.768 1.768 0 011.524 1.81h.001v.001a1.769 1.769 0 01-1.435 1.7l-6.371 7.546c.013.088.02.177.02.269 0 .981-.783 1.777-1.748 1.777-.966 0-1.748-.796-1.748-1.777 0-.092.006-.182.02-.27l-6.37-7.545a1.769 1.769 0 01-1.435-1.7v-.001-.048c0-.904.664-1.651 1.524-1.762zm6.974 9.893l-5.68-6.727c.412-.325.677-.833.677-1.404 0-.55-.245-1.04-.631-1.367l5.638-6.696a1.721 1.721 0 002.062 0l5.638 6.696c-.385.326-.63.818-.63 1.367 0 .571.264 1.079.675 1.404L51.483 90a1.721 1.721 0 00-2.069 0zm1.035-16.822a.782.782 0 01-.407-.114.81.81 0 01-.388-.694c0-.446.356-.807.795-.807.438 0 .794.361.794.807a.81.81 0 01-.387.694.78.78 0 01-.407.114zm-.41 17.562a.81.81 0 00-.385.693c0 .446.356.808.795.808a.801.801 0 00.794-.808.81.81 0 00-.384-.692.782.782 0 00-.82 0zm-6.581-8.87a.81.81 0 01-.346.666.781.781 0 01-.449.141.801.801 0 01-.794-.808c0-.446.355-.807.794-.807.188 0 .36.066.497.177a.811.811 0 01.298.63zm14.328.666a.81.81 0 01-.345-.667c0-.255.116-.482.297-.63a.783.783 0 01.497-.177c.439 0 .795.361.795.807a.801.801 0 01-.795.808.782.782 0 01-.449-.141z" class="stroke_3" clip-rule="evenodd"/>
          <path fill="#F24E1E" fill-rule="evenodd" d="M40.279 81.867v.032a2.417 2.417 0 001.723 2.297l6.063 7.181v.054c0 1.338 1.066 2.423 2.383 2.423 1.316 0 2.383-1.085 2.383-2.423v-.053l6.063-7.182a2.417 2.417 0 001.724-2.297v-.032c0-1.142-.777-2.099-1.823-2.355l-5.965-7.085.001-.059c0-1.338-1.067-2.422-2.383-2.423-1.317 0-2.384 1.085-2.384 2.423v.06l-5.962 7.084a2.416 2.416 0 00-1.823 2.355zm.636.05v-.002-.048c0-.904.664-1.651 1.524-1.762l6.282-7.462a1.822 1.822 0 01-.021-.275c0-.981.782-1.777 1.748-1.777.965 0 1.747.796 1.747 1.777 0 .093-.007.185-.02.274l6.282 7.463a1.768 1.768 0 011.524 1.81h.001v.001a1.769 1.769 0 01-1.435 1.7l-6.371 7.546c.013.088.02.177.02.269 0 .981-.783 1.777-1.748 1.777-.966 0-1.748-.796-1.748-1.777 0-.092.006-.182.02-.27l-6.37-7.545a1.769 1.769 0 01-1.435-1.7z" class="stroke 2_3" clip-rule="evenodd"/>
          <g class="dots_3">
            <path fill="#F24E1E" d="M50.448 71.56c.438 0 .794.362.794.808a.801.801 0 01-.794.808.801.801 0 01-.795-.808c0-.446.356-.807.795-.807zM42.662 81.06c.439 0 .795.361.795.807a.801.801 0 01-.795.808.801.801 0 01-.794-.808c0-.446.355-.808.794-.808zM58.234 81.06c.439 0 .795.361.795.807a.801.801 0 01-.795.808.801.801 0 01-.794-.808c0-.446.355-.808.794-.808zM51.242 91.43a.801.801 0 01-.794.809.801.801 0 01-.795-.808c0-.446.356-.808.795-.808.438 0 .794.362.794.808z"/>
          </g>
        </g>
      </g>
      <g class="symbol_6">
        <g class="♦ diamonds_6">
          <path fill="#F24E1E" d="M26.29 89.998l-5.68-6.727c.412-.325.677-.833.677-1.404 0-.55-.246-1.04-.631-1.367l5.638-6.696a1.721 1.721 0 002.062 0l5.638 6.696a1.785 1.785 0 00-.63 1.367c0 .571.264 1.079.675 1.404L28.36 90a1.721 1.721 0 00-2.069 0z" class="fill_4"/>
          <path fill="#fff" fill-rule="evenodd" d="M19.316 80.105l6.281-7.462a1.809 1.809 0 01-.02-.275c0-.981.782-1.777 1.747-1.777h.001c.965 0 1.747.796 1.747 1.777 0 .093-.007.185-.02.274l6.282 7.463a1.768 1.768 0 011.524 1.81h.001v.001a1.769 1.769 0 01-1.436 1.7l-6.37 7.546c.012.088.02.177.02.269 0 .981-.783 1.777-1.748 1.777-.966 0-1.748-.796-1.748-1.777 0-.092.006-.182.02-.27l-6.37-7.545a1.769 1.769 0 01-1.435-1.7v-.001-.048c0-.904.664-1.651 1.524-1.762zm6.974 9.893l-5.68-6.727c.412-.325.677-.833.677-1.404 0-.55-.246-1.04-.631-1.367l5.638-6.696a1.721 1.721 0 002.062 0l5.638 6.696a1.785 1.785 0 00-.63 1.367c0 .571.264 1.079.675 1.404L28.36 90a1.721 1.721 0 00-2.069 0zm1.034-16.822a.781.781 0 01-.406-.114.81.81 0 01-.388-.694c0-.446.356-.807.794-.807.44 0 .795.361.795.807a.81.81 0 01-.387.694.78.78 0 01-.408.114zm-.409 17.562a.81.81 0 00-.385.693c0 .446.356.808.794.808a.801.801 0 00.795-.808.81.81 0 00-.385-.692.782.782 0 00-.819 0zm-6.581-8.87a.81.81 0 01-.346.666.782.782 0 01-.449.141.801.801 0 01-.795-.808c0-.446.356-.807.795-.807.188 0 .36.066.497.177a.811.811 0 01.297.63zm14.328.666a.81.81 0 01-.345-.667c0-.255.116-.482.297-.63a.783.783 0 01.497-.177c.439 0 .795.361.795.807a.801.801 0 01-.795.808.782.782 0 01-.449-.141z" class="stroke_4" clip-rule="evenodd"/>
          <path fill="#F24E1E" fill-rule="evenodd" d="M17.155 81.867a1.707 1.707 0 00.002.1 2.417 2.417 0 001.722 2.23l6.063 7.18-.001.054c0 1.338 1.067 2.423 2.383 2.423h.001c1.316 0 2.383-1.085 2.383-2.423v-.053l6.063-7.182a2.417 2.417 0 001.723-2.297v-.032c0-1.142-.776-2.099-1.822-2.355l-5.965-7.085v-.059c0-1.338-1.066-2.422-2.382-2.423-1.317 0-2.384 1.085-2.384 2.423v.06l-5.962 7.084a2.416 2.416 0 00-1.823 2.355zm.637.05v-.002-.048c0-.904.664-1.651 1.524-1.762l6.281-7.462a1.809 1.809 0 01-.02-.275c0-.981.782-1.777 1.747-1.777h.001c.965 0 1.747.796 1.747 1.777 0 .093-.007.185-.02.274l6.282 7.463a1.768 1.768 0 011.524 1.81h.001v.001a1.769 1.769 0 01-1.436 1.7l-6.37 7.546c.012.088.02.177.02.269 0 .981-.783 1.777-1.748 1.777-.966 0-1.748-.796-1.748-1.777 0-.092.006-.182.02-.27l-6.37-7.545a1.769 1.769 0 01-1.435-1.7z" class="stroke 2_4" clip-rule="evenodd"/>
          <g class="dots_4">
            <path fill="#F24E1E" d="M27.324 71.56c.44 0 .795.362.795.808a.801.801 0 01-.795.808.801.801 0 01-.794-.808c0-.446.356-.807.794-.807zM19.539 81.06c.439 0 .794.361.794.807a.801.801 0 01-.794.808.801.801 0 01-.795-.808c0-.446.356-.808.795-.808zM35.111 81.06c.439 0 .795.361.795.807a.801.801 0 01-.795.808.801.801 0 01-.794-.808c0-.446.355-.808.794-.808zM28.119 91.43a.801.801 0 01-.795.809.801.801 0 01-.794-.808c0-.446.356-.808.794-.808.44 0 .795.362.795.808z"/>
          </g>
        </g>
      </g>
      <g class="symbol_7">
        <g class="♦ diamonds_7">
          <path fill="#F24E1E" d="M49.413 35.138l-5.68-6.727c.412-.326.677-.834.677-1.404 0-.55-.245-1.041-.63-1.367l5.637-6.697a1.721 1.721 0 002.062 0l5.638 6.697c-.385.326-.63.817-.63 1.367 0 .57.264 1.078.675 1.403l-5.68 6.728a1.72 1.72 0 00-2.069 0z" class="fill_5"/>
          <path fill="#fff" fill-rule="evenodd" d="M42.439 25.244l6.282-7.461a1.822 1.822 0 01-.021-.275c0-.982.782-1.777 1.748-1.777.965 0 1.747.795 1.747 1.777 0 .093-.007.184-.02.274l6.282 7.462a1.768 1.768 0 011.524 1.81l.001.001a1.769 1.769 0 01-1.435 1.7l-6.371 7.546c.013.088.02.178.02.27 0 .98-.783 1.776-1.748 1.776-.966 0-1.748-.795-1.748-1.777 0-.092.006-.182.02-.27l-6.37-7.545a1.769 1.769 0 01-1.435-1.7v-.048c0-.905.664-1.652 1.524-1.763zm6.974 9.894l-5.68-6.727c.412-.326.677-.834.677-1.404 0-.55-.245-1.041-.631-1.367l5.638-6.697a1.72 1.72 0 002.062 0l5.638 6.697c-.385.326-.63.817-.63 1.367 0 .57.264 1.078.675 1.403l-5.68 6.728a1.72 1.72 0 00-2.069 0zm1.035-16.823a.782.782 0 01-.407-.113.81.81 0 01-.388-.694c0-.447.356-.808.795-.808.438 0 .794.361.794.808a.81.81 0 01-.387.693.781.781 0 01-.407.114zm-.41 17.563a.81.81 0 00-.385.692c0 .446.356.808.795.808a.801.801 0 00.794-.808.81.81 0 00-.384-.692.78.78 0 00-.82 0zm-6.581-8.871a.81.81 0 01-.346.666.782.782 0 01-.449.141.801.801 0 01-.794-.807c0-.446.355-.808.794-.808.188 0 .36.066.497.177a.811.811 0 01.298.63zm14.328.666a.81.81 0 01-.345-.666c0-.255.116-.483.297-.63a.783.783 0 01.497-.178c.439 0 .795.362.795.808a.801.801 0 01-.795.807.783.783 0 01-.449-.14z" class="stroke_5" clip-rule="evenodd"/>
          <path fill="#F24E1E" fill-rule="evenodd" d="M40.279 27.007v.032a2.417 2.417 0 001.723 2.297l6.063 7.18v.054c0 1.339 1.066 2.423 2.383 2.423 1.316 0 2.383-1.085 2.383-2.423v-.052l6.063-7.182a2.417 2.417 0 001.724-2.297v-.032c0-1.143-.777-2.1-1.823-2.356l-5.965-7.085.001-.058c0-1.338-1.067-2.423-2.383-2.424-1.317 0-2.384 1.085-2.384 2.424v.06l-5.962 7.083a2.416 2.416 0 00-1.823 2.356zm.636.049v-.002-.047c0-.905.664-1.652 1.524-1.763l6.282-7.461a1.822 1.822 0 01-.021-.275c0-.982.782-1.777 1.748-1.777.965 0 1.747.795 1.747 1.777 0 .093-.007.184-.02.274l6.282 7.462a1.768 1.768 0 011.524 1.81l.001.001a1.769 1.769 0 01-1.435 1.7l-6.371 7.546c.013.088.02.178.02.27 0 .98-.783 1.776-1.748 1.776-.966 0-1.748-.795-1.748-1.777 0-.092.006-.182.02-.27l-6.37-7.545a1.769 1.769 0 01-1.435-1.7z" class="stroke 2_5" clip-rule="evenodd"/>
          <g class="dots_5">
            <path fill="#F24E1E" d="M50.448 16.7c.438 0 .794.361.794.808a.801.801 0 01-.794.807.801.801 0 01-.795-.807c0-.447.356-.808.795-.808zM42.662 26.199c.439 0 .795.361.795.808a.801.801 0 01-.795.807.801.801 0 01-.794-.807c0-.447.355-.808.794-.808zM58.234 26.199c.439 0 .795.361.795.808a.801.801 0 01-.795.807.801.801 0 01-.794-.807c0-.447.355-.808.794-.808zM51.242 36.57a.801.801 0 01-.794.808.801.801 0 01-.795-.808c0-.446.356-.807.795-.807.438 0 .794.361.794.807z"/>
          </g>
        </g>
      </g>
      <g class="symbol_8">
        <g class="♦ diamonds_8">
          <path fill="#F24E1E" d="M49.413 63.701l-5.68-6.727c.412-.325.677-.833.677-1.403 0-.55-.245-1.041-.63-1.367l5.637-6.697a1.722 1.722 0 002.062 0l5.638 6.697c-.385.325-.63.817-.63 1.367 0 .57.264 1.078.675 1.403l-5.68 6.728a1.72 1.72 0 00-2.069 0z" class="fill_6"/>
          <path fill="#fff" fill-rule="evenodd" d="M42.439 53.808l6.282-7.462a1.82 1.82 0 01-.021-.275c0-.981.782-1.777 1.748-1.777.965 0 1.747.796 1.747 1.777 0 .094-.007.185-.02.274l6.282 7.463a1.768 1.768 0 011.524 1.81h.001v.002a1.769 1.769 0 01-1.435 1.7l-6.371 7.545c.013.088.02.178.02.27 0 .98-.783 1.776-1.748 1.776-.966 0-1.748-.796-1.748-1.777 0-.092.006-.182.02-.27l-6.37-7.545a1.769 1.769 0 01-1.435-1.7v-.049c0-.904.664-1.65 1.524-1.762zm6.974 9.893l-5.68-6.727c.412-.325.677-.833.677-1.404 0-.55-.245-1.04-.631-1.367l5.638-6.696a1.721 1.721 0 002.062 0l5.638 6.697c-.385.325-.63.817-.63 1.366 0 .571.264 1.08.675 1.404l-5.68 6.728a1.72 1.72 0 00-2.069 0zm1.035-16.822a.78.78 0 01-.407-.113.81.81 0 01-.388-.695c0-.446.356-.807.795-.807.438 0 .794.361.794.807a.81.81 0 01-.387.694.78.78 0 01-.407.114zm-.41 17.563a.81.81 0 00-.385.692c0 .446.356.808.795.808a.801.801 0 00.794-.808.81.81 0 00-.384-.692.782.782 0 00-.82 0zm-6.581-8.872a.81.81 0 01-.346.667.781.781 0 01-.449.141.801.801 0 01-.794-.808c0-.446.355-.807.794-.807.188 0 .36.066.497.177a.811.811 0 01.298.63zm14.328.667a.81.81 0 01-.345-.667c0-.255.116-.482.297-.63a.783.783 0 01.497-.177c.439 0 .795.361.795.807a.801.801 0 01-.795.808.782.782 0 01-.449-.141z" class="stroke_6" clip-rule="evenodd"/>
          <path fill="#F24E1E" fill-rule="evenodd" d="M40.279 55.57a3.392 3.392 0 00.002.1A2.417 2.417 0 0042 57.9l6.064 7.18v.054c0 1.338 1.066 2.423 2.383 2.423 1.316 0 2.383-1.085 2.383-2.423v-.052l6.063-7.183a2.417 2.417 0 001.724-2.329c0-1.142-.777-2.099-1.823-2.355L52.83 46.13l.001-.059c0-1.338-1.067-2.422-2.383-2.423-1.317 0-2.384 1.085-2.384 2.423v.06l-5.962 7.084a2.416 2.416 0 00-1.823 2.355zm.636.05v-.001-.049c0-.904.664-1.65 1.524-1.762l6.282-7.462a1.82 1.82 0 01-.021-.275c0-.981.782-1.777 1.748-1.777.965 0 1.747.796 1.747 1.777 0 .094-.007.185-.02.274l6.282 7.463a1.767 1.767 0 011.524 1.81h.001v.002a1.769 1.769 0 01-1.435 1.7l-6.371 7.545c.013.088.02.178.02.27 0 .98-.783 1.776-1.748 1.776-.966 0-1.748-.796-1.748-1.777 0-.092.006-.182.02-.27l-6.37-7.545a1.769 1.769 0 01-1.435-1.7z" class="stroke 2_6" clip-rule="evenodd"/>
          <g class="dots_6">
            <path fill="#F24E1E" d="M50.448 45.264c.438 0 .794.361.794.807a.801.801 0 01-.794.808.801.801 0 01-.795-.808c0-.446.356-.807.795-.807zM42.662 54.763c.439 0 .795.361.795.807a.801.801 0 01-.795.808.801.801 0 01-.794-.808c0-.446.355-.807.794-.807zM58.234 54.763c.439 0 .795.361.795.807a.801.801 0 01-.795.808.801.801 0 01-.794-.808c0-.446.355-.807.794-.807zM51.242 65.134a.801.801 0 01-.794.808.801.801 0 01-.795-.808c0-.446.356-.808.795-.808.438 0 .794.362.794.808z"/>
          </g>
        </g>
      </g>
    </g>
  </g>
</svg>
