<svg xmlns="http://www.w3.org/2000/svg" width="80" height="112" fill="none" viewBox="0 0 80 112">
  <g class="six_clubs">
    <rect width="74.81" height="104.734" x=".017" y=".938" fill="#fff" rx="3.62"/>
    <rect width="78.991" height="110.588" x=".017" y=".938" fill="#fff" class="bg" rx="3.62"/>
    <g class="down">
      <g class="letter">
        <path fill="#222" d="M71.2 93.282c0-1.535-.463-2.737-1.406-3.571-.926-.851-2.117-1.269-3.573-1.269-1.356 0-2.514.418-3.507 1.269-.992.85-1.489 2.27-1.489 4.288v4.556c0 1.952.48 3.387 1.423 4.338.943.951 2.217 1.418 3.804 1.418 1.787 0 3.243-.7 4.384-2.119l-1.82-.984c-.562 1.018-1.406 1.518-2.547 1.518-.943 0-1.687-.3-2.216-.901-.53-.601-.811-1.685-.811-3.287v-2.153c.794 1.135 1.935 1.702 3.44 1.702 1.29 0 2.333-.417 3.127-1.234.794-.818 1.191-1.986 1.191-3.571zm-2.216.016c0 1.252-.232 2.103-.695 2.57-.463.45-1.059.684-1.803.684-1.588 0-2.597-.734-3.028-2.203 0-1.885.265-3.07.794-3.57.53-.501 1.192-.751 1.986-.751.76 0 1.422.25 1.951.75.53.501.795 1.335.795 2.52z" class="Vector"/>
      </g>
      <g class="symbol">
        <path fill="#2C2C2C" d="M63.035 81.826l.125-.47-.484-.032a1.75 1.75 0 111.691-2.517l.359.728.359-.728a1.75 1.75 0 111.69 2.517l-.484.033.126.469a1.752 1.752 0 01-1.691 2.201 1.75 1.75 0 01-1.69-2.201z" class="♣ club"/>
      </g>
    </g>
    <g class="up">
      <g class="letter_2">
        <path fill="#222" d="M15.886 15.594c0 1.536-.463 2.737-1.406 3.571-.926.851-2.117 1.268-3.573 1.268-1.357 0-2.514-.417-3.507-1.268-.992-.85-1.489-2.269-1.489-4.288V10.32c0-1.952.48-3.387 1.423-4.338.943-.951 2.216-1.418 3.805-1.418 1.786 0 3.242.7 4.383 2.119l-1.82.984C13.14 6.65 12.296 6.15 11.155 6.15c-.943 0-1.687.3-2.217.901-.529.6-.81 1.685-.81 3.287v2.153c.794-1.135 1.935-1.702 3.44-1.702 1.29 0 2.333.417 3.127 1.235.794.817 1.191 1.985 1.191 3.57zm-2.217-.016c0-1.252-.231-2.103-.694-2.57-.463-.45-1.059-.684-1.803-.684-1.588 0-2.597.734-3.028 2.203 0 1.885.265 3.07.794 3.57.53.501 1.191.751 1.986.751.76 0 1.422-.25 1.951-.75.53-.501.794-1.335.794-2.52z" class="Vector_2"/>
      </g>
      <g class="symbol_2">
        <path fill="#2C2C2C" d="M11.91 24.743l-.125.469.484.033a1.75 1.75 0 11-1.69 2.517l-.36-.729-.358.729a1.75 1.75 0 11-1.692-2.517l.485-.033-.125-.47a1.752 1.752 0 011.69-2.2 1.75 1.75 0 011.691 2.2z" class="♣ club_2"/>
      </g>
    </g>
    <g class="icons">
      <g class="symbol_3">
        <g class="♣ clubs">
          <g class="fill">
            <path fill="#2C2C2C" d="M33.484 54.993a1.66 1.66 0 11-1.686-2.456 5.283 5.283 0 10-10.514 0 1.661 1.661 0 11-1.687 2.456 5.283 5.283 0 105.707 7.783 1.66 1.66 0 112.473 0 5.283 5.283 0 105.707-7.783z"/>
            <path fill="#2C2C2C" d="M32.035 54.936a.751.751 0 01-.754-.755.754.754 0 11.755.755zM27.296 61.668a.755.755 0 11-1.51 0 .755.755 0 011.51 0zM21.046 54.936a.752.752 0 01-.755-.755.755.755 0 11.755.755z"/>
          </g>
          <path fill="#fff" fill-rule="evenodd" d="M25.805 64.186c.215-.272.409-.56.579-.865a1.665 1.665 0 00.314 0 6.504 6.504 0 005.67 3.329 6.491 6.491 0 001.283-12.856 1.662 1.662 0 00-.67-.978 6.491 6.491 0 00.05-.809 6.491 6.491 0 10-12.931.81c-.33.228-.573.574-.67.977a6.494 6.494 0 00-5.208 6.364 6.491 6.491 0 0011.583 4.028zm6.23-9.25a.751.751 0 01-.754-.755.754.754 0 11.755.755zm-1.66-.755a1.66 1.66 0 011.423-1.644 5.283 5.283 0 10-10.514 0 1.661 1.661 0 11-1.687 2.456 5.283 5.283 0 105.707 7.783 1.66 1.66 0 112.473 0 5.283 5.283 0 105.707-7.783 1.66 1.66 0 01-3.109-.812zm-3.08 7.487a.755.755 0 11-1.51 0 .755.755 0 011.51 0zm-6.574-6.806a.752.752 0 00.739-.05.758.758 0 00.34-.631.754.754 0 10-1.079.681z" class="stroke" clip-rule="evenodd"/>
          <path fill="#2C2C2C" fill-rule="evenodd" d="M26.278 64.56c.091-.114.179-.232.263-.353a7.083 7.083 0 005.827 3.046 7.095 7.095 0 001.745-13.973 2.266 2.266 0 00-.498-.722c0-.01 0-.018.002-.027a7.095 7.095 0 10-14.152 0l.002.027c-.21.204-.38.449-.5.722l-.048.013a7.095 7.095 0 107.36 11.268zm.998-.374a6.522 6.522 0 01-.578-.865 1.699 1.699 0 01-.314 0 6.298 6.298 0 01-.579.865 6.491 6.491 0 11-6.374-10.391c.096-.404.339-.75.669-.979a6.491 6.491 0 01-.05-.809 6.491 6.491 0 1112.932.81c.33.228.573.574.669.977a6.494 6.494 0 015.208 6.364 6.491 6.491 0 01-11.583 4.028z" class="stroke 2" clip-rule="evenodd"/>
        </g>
      </g>
      <g class="symbol_4">
        <g class="♣ clubs_2">
          <g class="fill_2">
            <path fill="#2C2C2C" d="M33.484 26.43a1.66 1.66 0 11-1.686-2.457 5.283 5.283 0 10-10.514 0 1.661 1.661 0 11-1.687 2.456 5.283 5.283 0 105.707 7.783 1.66 1.66 0 112.473 0 5.283 5.283 0 105.707-7.783z"/>
            <path fill="#2C2C2C" d="M32.035 26.372a.751.751 0 01-.754-.755.754.754 0 11.755.755zM27.296 33.104a.755.755 0 11-1.51 0 .755.755 0 011.51 0zM21.046 26.372a.753.753 0 01-.755-.755.755.755 0 11.755.755z"/>
          </g>
          <path fill="#fff" fill-rule="evenodd" d="M25.805 35.622c.215-.272.409-.56.579-.864a1.699 1.699 0 00.314 0 6.504 6.504 0 005.67 3.328A6.491 6.491 0 0033.65 25.23a1.662 1.662 0 00-.67-.979 6.491 6.491 0 00.05-.809 6.491 6.491 0 10-12.931.81c-.33.229-.573.575-.67.977a6.494 6.494 0 00-5.208 6.364 6.491 6.491 0 0011.583 4.028zm6.23-9.25a.751.751 0 01-.754-.755.754.754 0 11.755.755zm-1.66-.755a1.66 1.66 0 011.423-1.644 5.283 5.283 0 10-10.514 0 1.661 1.661 0 11-1.687 2.456 5.283 5.283 0 105.707 7.783 1.66 1.66 0 112.473 0 5.283 5.283 0 105.707-7.783 1.66 1.66 0 01-3.109-.812zm-3.08 7.487a.755.755 0 11-1.51 0 .755.755 0 011.51 0zM20.721 26.3a.753.753 0 001.08-.682.754.754 0 10-1.08.681z" class="stroke_2" clip-rule="evenodd"/>
          <path fill="#2C2C2C" fill-rule="evenodd" d="M26.278 35.997c.091-.115.179-.233.263-.353a7.083 7.083 0 005.827 3.046 7.095 7.095 0 001.795-13.96l-.05-.014a2.266 2.266 0 00-.498-.722c0-.009 0-.018.002-.027a7.095 7.095 0 10-14.152 0l.002.027c-.21.204-.38.45-.5.723l-.048.012a7.095 7.095 0 107.36 11.268zm.998-.375a6.522 6.522 0 01-.578-.864 1.699 1.699 0 01-.314 0 6.298 6.298 0 01-.579.864 6.491 6.491 0 11-6.374-10.391c.096-.403.339-.75.669-.979a6.491 6.491 0 01-.05-.809 6.491 6.491 0 1112.932.81c.33.229.573.575.669.977a6.494 6.494 0 015.208 6.364 6.491 6.491 0 01-11.583 4.028z" class="stroke 2_2" clip-rule="evenodd"/>
        </g>
      </g>
      <g class="symbol_5">
        <g class="♣ clubs_3">
          <g class="fill_3">
            <path fill="#2C2C2C" d="M56.607 82.9a1.66 1.66 0 10-1.686 2.456 5.283 5.283 0 11-10.515 0 1.66 1.66 0 10-1.685-2.456 5.283 5.283 0 115.707-7.783 1.66 1.66 0 102.473 0 5.283 5.283 0 115.707 7.783z"/>
            <path fill="#2C2C2C" d="M55.159 82.958a.751.751 0 00-.755.755.754.754 0 10.755-.755zM50.419 76.225a.755.755 0 10-1.51 0 .755.755 0 001.51 0zM44.17 82.958a.751.751 0 00-.756.755.755.755 0 10.755-.755z"/>
          </g>
          <path fill="#fff" fill-rule="evenodd" d="M48.928 73.708c.215.271.409.56.579.864a1.698 1.698 0 01.314 0 6.48 6.48 0 015.67-3.328 6.491 6.491 0 011.283 12.855 1.662 1.662 0 01-.669.978 6.487 6.487 0 01.05.81 6.491 6.491 0 11-12.932-.81 1.662 1.662 0 01-.67-.978 6.494 6.494 0 01-5.208-6.364 6.491 6.491 0 0111.583-4.027zm6.23 9.25a.751.751 0 00-.754.755.754.754 0 10.755-.755zm-1.66.755a1.66 1.66 0 001.423 1.643 5.283 5.283 0 11-10.515 0 1.66 1.66 0 10-1.685-2.456 5.283 5.283 0 115.707-7.783 1.66 1.66 0 102.473 0 5.283 5.283 0 115.707 7.783 1.66 1.66 0 00-3.11.813zm-3.08-7.488a.755.755 0 10-1.51 0 .755.755 0 001.51 0zm-6.574 6.806a.751.751 0 01.739.05.759.759 0 01.34.632.754.754 0 11-1.079-.682z" class="stroke_3" clip-rule="evenodd"/>
          <path fill="#2C2C2C" fill-rule="evenodd" d="M49.401 73.333c.091.115.179.232.263.353a7.083 7.083 0 015.827-3.046 7.095 7.095 0 011.746 13.973c-.119.273-.29.518-.5.722l.003.028a7.095 7.095 0 11-14.152 0l.002-.028c-.21-.204-.38-.449-.499-.722a7.098 7.098 0 01-5.349-6.878 7.095 7.095 0 0112.66-4.402zm.998.375a6.52 6.52 0 00-.578.864 1.699 1.699 0 00-.314 0 6.55 6.55 0 00-.579-.864 6.491 6.491 0 10-6.374 10.391c.096.403.339.749.669.978a6.604 6.604 0 00-.05.81 6.491 6.491 0 1012.932-.81c.33-.23.573-.575.669-.978a6.494 6.494 0 005.208-6.364A6.491 6.491 0 0050.4 73.708z" class="stroke 2_3" clip-rule="evenodd"/>
        </g>
      </g>
      <g class="symbol_6">
        <g class="♣ clubs_4">
          <g class="fill_4">
            <path fill="#2C2C2C" d="M33.484 82.9a1.66 1.66 0 10-1.686 2.456 5.283 5.283 0 11-10.514 0 1.66 1.66 0 10-1.687-2.456 5.283 5.283 0 115.707-7.783 1.66 1.66 0 102.473 0 5.283 5.283 0 115.707 7.783z"/>
            <path fill="#2C2C2C" d="M32.035 82.958a.751.751 0 00-.754.755.754.754 0 10.755-.755zM27.296 76.225a.755.755 0 10-1.51 0 .755.755 0 001.51 0zM21.046 82.958a.752.752 0 00-.755.755.755.755 0 10.755-.755z"/>
          </g>
          <path fill="#fff" fill-rule="evenodd" d="M25.805 73.708c.215.271.409.56.579.864a1.699 1.699 0 01.314 0 6.504 6.504 0 015.67-3.328 6.491 6.491 0 011.283 12.855 1.662 1.662 0 01-.67.978 6.487 6.487 0 01.05.81 6.491 6.491 0 11-12.931-.81 1.662 1.662 0 01-.67-.978 6.494 6.494 0 01-5.208-6.364 6.491 6.491 0 0111.583-4.027zm6.23 9.25a.751.751 0 00-.754.755.754.754 0 10.755-.755zm-1.66.755a1.66 1.66 0 001.423 1.643 5.283 5.283 0 11-10.514 0 1.66 1.66 0 10-1.687-2.456 5.283 5.283 0 115.707-7.783 1.66 1.66 0 102.473 0 5.283 5.283 0 115.707 7.783 1.66 1.66 0 00-3.109.813zm-3.08-7.488a.755.755 0 10-1.51 0 .755.755 0 001.51 0zm-6.574 6.806a.752.752 0 01.739.05.758.758 0 01.34.632.754.754 0 11-1.079-.682z" class="stroke_4" clip-rule="evenodd"/>
          <path fill="#2C2C2C" fill-rule="evenodd" d="M26.278 73.333c.091.115.179.232.263.353a7.083 7.083 0 015.827-3.046 7.095 7.095 0 011.745 13.973c-.118.273-.289.518-.498.722a7.151 7.151 0 01.021.55 7.095 7.095 0 11-14.171-.523l.002-.027a2.27 2.27 0 01-.5-.722 7.098 7.098 0 01-5.349-6.878 7.095 7.095 0 0112.66-4.402zm.998.375a6.522 6.522 0 00-.383.538l-.04.064a6.67 6.67 0 00-.155.262 1.699 1.699 0 00-.314 0 6.431 6.431 0 00-.579-.864 6.491 6.491 0 10-6.374 10.391c.096.403.339.749.669.978a6.487 6.487 0 00-.05.81 6.491 6.491 0 1012.932-.81c.33-.23.573-.575.669-.978a6.494 6.494 0 005.208-6.364 6.491 6.491 0 00-11.583-4.027z" class="stroke 2_4" clip-rule="evenodd"/>
        </g>
      </g>
      <g class="symbol_7">
        <g class="♣ clubs_5">
          <g class="fill_5">
            <path fill="#2C2C2C" d="M56.607 25.976a1.66 1.66 0 11-1.686-2.456 5.283 5.283 0 10-10.515 0 1.66 1.66 0 11-1.685 2.456 5.283 5.283 0 105.707 7.783 1.66 1.66 0 112.473 0 5.283 5.283 0 105.707-7.783z"/>
            <path fill="#2C2C2C" d="M55.159 25.918a.751.751 0 01-.755-.754.754.754 0 11.755.754zM50.419 32.65a.757.757 0 01-.755.756.755.755 0 11.755-.755zM44.17 25.918a.751.751 0 01-.756-.754.755.755 0 11.755.754z"/>
          </g>
          <path fill="#fff" fill-rule="evenodd" d="M48.928 35.168c.215-.271.409-.56.579-.864a1.698 1.698 0 00.314 0 6.48 6.48 0 005.67 3.328 6.491 6.491 0 001.283-12.855 1.662 1.662 0 00-.669-.978 6.491 6.491 0 00.05-.81 6.491 6.491 0 10-12.932.81c-.33.23-.573.575-.67.978a6.494 6.494 0 00-5.208 6.364 6.491 6.491 0 0011.583 4.027zm6.23-9.25a.751.751 0 01-.754-.754.754.754 0 11.755.754zm-1.66-.754a1.66 1.66 0 011.423-1.644 5.283 5.283 0 10-10.515 0 1.66 1.66 0 11-1.685 2.456 5.283 5.283 0 105.707 7.783 1.66 1.66 0 112.473 0 5.283 5.283 0 105.707-7.783 1.66 1.66 0 01-3.11-.812zm-3.08 7.487a.757.757 0 01-.754.755.755.755 0 11.755-.755zm-6.574-6.806a.751.751 0 00.739-.05.759.759 0 00.34-.631.754.754 0 10-1.079.681z" class="stroke_5" clip-rule="evenodd"/>
          <path fill="#2C2C2C" fill-rule="evenodd" d="M49.401 35.543c.091-.115.179-.232.263-.353a7.083 7.083 0 005.827 3.046 7.095 7.095 0 001.795-13.96l-.05-.013a2.266 2.266 0 00-.498-.722l.002-.027a7.095 7.095 0 10-14.152 0l.002.027c-.21.204-.38.449-.499.722l-.05.013a7.095 7.095 0 107.36 11.268zm.998-.375a6.52 6.52 0 01-.578-.864 1.699 1.699 0 01-.314 0 6.413 6.413 0 01-.579.864 6.491 6.491 0 11-6.374-10.391c.096-.403.339-.749.669-.978a6.608 6.608 0 01-.05-.81 6.491 6.491 0 1112.932.81c.33.23.573.575.669.978a6.494 6.494 0 015.208 6.364A6.491 6.491 0 0150.4 35.168z" class="stroke 2_5" clip-rule="evenodd"/>
        </g>
      </g>
      <g class="symbol_8">
        <g class="♣ clubs_6">
          <g class="fill_6">
            <path fill="#2C2C2C" d="M56.607 54.54a1.66 1.66 0 11-1.686-2.456 5.283 5.283 0 10-10.515 0 1.66 1.66 0 11-1.685 2.456 5.283 5.283 0 105.707 7.783 1.66 1.66 0 112.473 0 5.283 5.283 0 105.707-7.783z"/>
            <path fill="#2C2C2C" d="M55.159 54.482a.751.751 0 01-.755-.755.754.754 0 11.755.755zM50.419 61.215a.755.755 0 11-1.51 0 .755.755 0 011.51 0zM44.17 54.482a.753.753 0 01-.756-.755.755.755 0 11.755.755z"/>
          </g>
          <path fill="#fff" fill-rule="evenodd" d="M48.928 63.732c.215-.271.409-.56.579-.864a1.698 1.698 0 00.314 0 6.48 6.48 0 005.67 3.328 6.491 6.491 0 001.283-12.855 1.662 1.662 0 00-.669-.978 6.491 6.491 0 00.05-.81 6.491 6.491 0 10-12.932.81c-.33.23-.573.575-.67.978a6.494 6.494 0 00-5.208 6.364 6.491 6.491 0 0011.583 4.027zm6.23-9.25a.751.751 0 01-.754-.755.754.754 0 11.755.755zm-1.66-.755a1.66 1.66 0 011.423-1.643 5.283 5.283 0 10-10.515 0 1.66 1.66 0 11-1.685 2.456 5.283 5.283 0 105.707 7.783 1.66 1.66 0 112.473 0 5.283 5.283 0 105.707-7.783 1.66 1.66 0 01-3.11-.813zm-3.08 7.488a.757.757 0 01-.754.754.755.755 0 11.755-.754zm-6.574-6.806a.753.753 0 001.013-.37.754.754 0 00-.688-1.066.755.755 0 00-.325 1.436z" class="stroke_6" clip-rule="evenodd"/>
          <path fill="#2C2C2C" fill-rule="evenodd" d="M49.401 64.107c.091-.115.179-.233.263-.353A7.083 7.083 0 0055.49 66.8a7.095 7.095 0 001.795-13.96l-.05-.013a2.266 2.266 0 00-.498-.722l.002-.028a7.095 7.095 0 10-14.152 0l.002.027c-.21.205-.38.45-.499.723l-.05.013a7.095 7.095 0 107.36 11.268zm.998-.375a6.52 6.52 0 01-.578-.864 1.699 1.699 0 01-.314 0 6.413 6.413 0 01-.579.864 6.491 6.491 0 11-6.374-10.391c.096-.403.339-.749.669-.978a6.608 6.608 0 01-.05-.81 6.491 6.491 0 1112.932.81c.33.23.573.575.669.978a6.494 6.494 0 015.208 6.364A6.491 6.491 0 0150.4 63.732z" class="stroke 2_6" clip-rule="evenodd"/>
        </g>
      </g>
    </g>
  </g>
</svg>
