<svg xmlns="http://www.w3.org/2000/svg" width="80" height="112" fill="none" viewBox="0 0 80 112">
  <g class="six_spades">
    <rect width="74.81" height="104.734" x=".017" y=".422" fill="#fff" rx="3.62"/>
    <rect width="78.991" height="110.588" x=".017" y=".422" fill="#fff" class="bg" rx="3.62"/>
    <g class="down">
      <g class="letter">
        <path fill="#222" d="M71.2 92.766c0-1.535-.463-2.737-1.406-3.571-.926-.851-2.117-1.268-3.573-1.268-1.356 0-2.514.417-3.507 1.268-.992.85-1.489 2.27-1.489 4.288v4.556c0 1.952.48 3.387 1.423 4.338.943.951 2.217 1.418 3.804 1.418 1.787 0 3.243-.7 4.384-2.119l-1.82-.984c-.562 1.018-1.406 1.518-2.547 1.518-.943 0-1.687-.3-2.216-.901-.53-.601-.811-1.685-.811-3.287v-2.153c.794 1.135 1.935 1.703 3.44 1.703 1.29 0 2.333-.418 3.127-1.235.794-.818 1.191-1.986 1.191-3.571zm-2.216.016c0 1.252-.232 2.103-.695 2.57-.463.45-1.059.684-1.803.684-1.588 0-2.597-.734-3.028-2.202 0-1.886.265-3.07.794-3.571.53-.5 1.192-.751 1.986-.751.76 0 1.422.25 1.951.75.53.501.795 1.336.795 2.52z" class="Vector"/>
      </g>
      <g class="symbol">
        <path fill="#2C2C2C" d="M67.538 80.912c.707-.863.874-2.068.099-2.857-.838-.852-2.114-.605-2.888.182-.774-.787-2.05-1.034-2.888-.181-.776.788-.608 1.993.099 2.856.764.932 1.809 1.733 2.789 2.427.98-.694 2.025-1.495 2.789-2.427z" class="â spades"/>
      </g>
    </g>
    <g class="up">
      <g class="letter_2">
        <path fill="#222" d="M15.886 15.079c0 1.535-.463 2.736-1.406 3.57-.926.851-2.117 1.269-3.573 1.269-1.357 0-2.514-.418-3.507-1.268-.992-.851-1.489-2.27-1.489-4.289V9.806c0-1.953.48-3.388 1.423-4.339.943-.95 2.216-1.418 3.805-1.418 1.786 0 3.242.7 4.383 2.119l-1.82.985c-.562-1.018-1.406-1.519-2.547-1.519-.943 0-1.687.3-2.217.901-.529.6-.81 1.685-.81 3.287v2.153c.794-1.135 1.935-1.702 3.44-1.702 1.29 0 2.333.417 3.127 1.235.794.817 1.191 1.985 1.191 3.57zm-2.217-.017c0-1.252-.231-2.103-.694-2.57-.463-.45-1.059-.684-1.803-.684-1.588 0-2.597.734-3.028 2.203 0 1.885.265 3.07.794 3.57.53.501 1.191.752 1.986.752.76 0 1.422-.25 1.951-.751.53-.501.794-1.335.794-2.52z" class="Vector_2"/>
      </g>
      <g class="symbol_2">
        <path fill="#2C2C2C" d="M7.407 24.625c-.707.863-.874 2.068-.099 2.857.838.852 2.114.605 2.888-.182.774.787 2.05 1.034 2.888.182.776-.79.608-1.994-.099-2.857-.763-.932-1.809-1.733-2.789-2.427-.98.694-2.025 1.495-2.789 2.427z" class="â spades_2"/>
      </g>
    </g>
    <g class="icons">
      <g class="symbol_3">
        <g class="â spades_3">
          <g class="fill">
            <path fill="#2C2C2C" d="M19.38 53.566c1.815-2.21 4.229-4.141 6.58-5.84.231.153.509.243.807.243.298 0 .576-.09.807-.244 2.352 1.7 4.766 3.63 6.58 5.841.444.54.808 1.132 1.077 1.747a1.457 1.457 0 00.538 2.572c-.025 1.177-.445 2.312-1.352 3.233-1.764 1.79-4.258 1.746-6.237.61a1.458 1.458 0 00-1.413-1.815 1.457 1.457 0 00-1.412 1.814c-1.979 1.137-4.474 1.18-6.237-.61-.907-.92-1.327-2.055-1.352-3.232a1.457 1.457 0 00.538-2.572 7.5 7.5 0 011.077-1.747z"/>
            <path fill="#2C2C2C" d="M26.105 61.37a.666.666 0 01.052-.257.664.664 0 01.61-.405.662.662 0 11-.662.662zM26.733 47.173a.662.662 0 11.07 0M17.82 56.997a.665.665 0 00.26-.527.662.662 0 10-.26.527zM35.535 56.153a.658.658 0 00-.081.317.661.661 0 10.08-.317z"/>
          </g>
          <path fill="#fff" fill-rule="evenodd" d="M36.83 57.74c.015 1.468-.478 2.923-1.66 4.122-2.224 2.26-5.288 2.095-7.606.727a1.45 1.45 0 01-1.593 0c-2.318 1.368-5.382 1.532-7.607-.727-1.181-1.199-1.674-2.654-1.66-4.123a1.456 1.456 0 01.579-2.72 8.531 8.531 0 011.28-2.127c1.903-2.319 4.412-4.318 6.789-6.035a1.46 1.46 0 011.415-1.801 1.457 1.457 0 011.416 1.8c2.377 1.718 4.886 3.717 6.79 6.036.524.64.961 1.363 1.279 2.128a1.457 1.457 0 01.579 2.72zm-17.45-4.174c1.815-2.21 4.229-4.141 6.58-5.84.231.153.509.243.807.243.298 0 .576-.09.807-.244 2.352 1.7 4.766 3.63 6.58 5.841a7.466 7.466 0 011.076 1.747 1.452 1.452 0 00-.566 1.284 1.458 1.458 0 001.105 1.288 4.635 4.635 0 01-1.352 3.232c-.22.224-.452.42-.693.587-1.27.885-2.79 1.014-4.202.6a6.23 6.23 0 01-1.342-.577l.011-.048a1.457 1.457 0 10-2.836.049c-1.979 1.136-4.474 1.18-6.237-.61-.907-.921-1.327-2.056-1.352-3.233a1.448 1.448 0 00.917-.691 1.454 1.454 0 00-.379-1.88 7.507 7.507 0 011.077-1.748zm6.725 7.804a.668.668 0 01.052-.257.664.664 0 01.61-.405.662.662 0 11-.662.662zm0-14.858c0 .354.278.644.628.661h.07a.662.662 0 10-.698-.66zM17.82 56.997a.663.663 0 00-.401-1.189.662.662 0 10.4 1.189zm17.634-.548a.662.662 0 111.323.042.662.662 0 01-1.323-.042z" class="stroke" clip-rule="evenodd"/>
          <path fill="#2C2C2C" fill-rule="evenodd" d="M35.382 52.556c-1.878-2.288-4.32-4.259-6.631-5.942l.002-.102a1.986 1.986 0 10-3.97.103c-2.31 1.683-4.752 3.653-6.63 5.941a9.085 9.085 0 00-1.243 1.994 1.987 1.987 0 00-.732 3.47 6.178 6.178 0 001.809 4.214c2.357 2.393 5.556 2.278 7.992.96a1.98 1.98 0 001.577 0c2.436 1.318 5.635 1.433 7.992-.96a6.178 6.178 0 001.81-4.213 1.987 1.987 0 00-.732-3.471 9.085 9.085 0 00-1.244-1.993zm.87 2.464a8.55 8.55 0 00-1.28-2.127c-1.903-2.32-4.412-4.32-6.79-6.036a1.46 1.46 0 00-1.415-1.801 1.457 1.457 0 00-1.415 1.801c-2.377 1.717-4.886 3.717-6.79 6.036a8.55 8.55 0 00-1.279 2.127 1.457 1.457 0 00-.579 2.72c0 .085 0 .17.003.256a5.649 5.649 0 001.657 3.866c2.225 2.26 5.289 2.095 7.607.727a1.45 1.45 0 001.593 0c2.318 1.368 5.382 1.532 7.607-.727a5.65 5.65 0 001.657-3.866c.003-.085.004-.17.003-.256a1.455 1.455 0 00.742-1.27 1.457 1.457 0 00-1.321-1.45z" class="stroke 2" clip-rule="evenodd"/>
        </g>
      </g>
      <g class="symbol_4">
        <g class="â spades_4">
          <g class="fill_2">
            <path fill="#2C2C2C" d="M19.38 25.002c1.815-2.21 4.229-4.14 6.58-5.84.231.153.509.243.807.243.298 0 .576-.09.807-.244 2.352 1.7 4.766 3.631 6.58 5.841.444.541.808 1.132 1.077 1.748a1.457 1.457 0 00.538 2.572c-.025 1.176-.445 2.311-1.352 3.232-1.764 1.79-4.258 1.746-6.237.61a1.458 1.458 0 00-1.413-1.815 1.457 1.457 0 00-1.412 1.814c-1.979 1.137-4.474 1.18-6.237-.61-.907-.92-1.327-2.055-1.352-3.232a1.457 1.457 0 00.538-2.571 7.5 7.5 0 011.077-1.748z"/>
            <path fill="#2C2C2C" d="M26.105 32.806a.666.666 0 01.052-.257.663.663 0 11-.052.257zM26.733 18.61a.662.662 0 11.07 0M17.82 28.433a.664.664 0 00.26-.527.662.662 0 10-.26.527zM35.535 27.59a.658.658 0 00-.081.316.661.661 0 10.08-.316z"/>
          </g>
          <path fill="#fff" fill-rule="evenodd" d="M36.83 29.176c.015 1.468-.478 2.923-1.66 4.123-2.224 2.259-5.288 2.094-7.606.727a1.45 1.45 0 01-.797.236 1.45 1.45 0 01-.796-.236c-2.318 1.367-5.382 1.532-7.607-.727-1.181-1.2-1.674-2.655-1.66-4.123a1.456 1.456 0 01.579-2.72 8.53 8.53 0 011.28-2.127c1.903-2.32 4.412-4.319 6.789-6.035a1.459 1.459 0 011.415-1.802 1.457 1.457 0 011.416 1.8c2.377 1.718 4.886 3.717 6.79 6.037.524.64.961 1.362 1.279 2.127a1.457 1.457 0 01.579 2.72zm-17.45-4.174c1.815-2.21 4.229-4.141 6.58-5.84.231.153.509.243.807.243.298 0 .576-.09.807-.244 2.352 1.7 4.766 3.631 6.58 5.841a7.466 7.466 0 011.076 1.747 1.454 1.454 0 00-.565 1.284 1.458 1.458 0 001.104 1.288 4.636 4.636 0 01-1.352 3.232c-.22.224-.452.42-.693.587-1.27.886-2.79 1.015-4.202.6a6.23 6.23 0 01-1.342-.577l.011-.048a1.457 1.457 0 10-2.836.049c-1.979 1.136-4.474 1.18-6.237-.61-.907-.921-1.327-2.056-1.352-3.233a1.446 1.446 0 00.917-.691 1.454 1.454 0 00-.379-1.88 7.504 7.504 0 011.077-1.748zm6.725 7.804a.666.666 0 01.052-.257.664.664 0 01.61-.405.662.662 0 11-.662.662zm0-14.858c0 .354.278.644.628.662h.07a.662.662 0 10-.698-.662zM17.82 28.433a.665.665 0 00.26-.527.662.662 0 10-.26.527zm17.634-.548a.662.662 0 111.323.042.662.662 0 01-1.323-.042z" class="stroke_2" clip-rule="evenodd"/>
          <path fill="#2C2C2C" fill-rule="evenodd" d="M35.382 23.993c-1.878-2.289-4.32-4.26-6.631-5.942l.002-.103a1.986 1.986 0 10-3.97.103c-2.31 1.683-4.752 3.654-6.63 5.942a9.087 9.087 0 00-1.243 1.993 1.987 1.987 0 00-.732 3.471 6.178 6.178 0 001.809 4.213c2.357 2.393 5.556 2.278 7.992.96a1.983 1.983 0 001.577 0c2.436 1.318 5.635 1.433 7.992-.96a6.178 6.178 0 001.81-4.213 1.987 1.987 0 00-.732-3.471 9.087 9.087 0 00-1.244-1.993zm.87 2.463a8.414 8.414 0 00-1.28-2.127c-1.903-2.32-4.412-4.319-6.79-6.036a1.459 1.459 0 00-1.415-1.801 1.457 1.457 0 00-1.415 1.802c-2.377 1.716-4.886 3.716-6.79 6.035a8.55 8.55 0 00-1.279 2.127 1.453 1.453 0 00-1.32 1.45 1.455 1.455 0 00.741 1.27c0 .085 0 .171.003.257a5.649 5.649 0 001.657 3.866c2.225 2.259 5.289 2.094 7.607.727.23.15.503.236.796.236.294 0 .568-.087.797-.236 2.318 1.367 5.382 1.532 7.607-.727a5.649 5.649 0 001.657-3.866c.003-.086.004-.172.003-.257a1.462 1.462 0 00.742-1.27 1.457 1.457 0 00-1.321-1.45z" class="stroke 2_2" clip-rule="evenodd"/>
        </g>
      </g>
      <g class="symbol_5">
        <g class="â spades_5">
          <g class="fill_3">
            <path fill="#2C2C2C" d="M42.504 84.656c1.814 2.21 4.228 4.14 6.58 5.84a1.45 1.45 0 01.806-.243c.298 0 .576.09.807.244 2.352-1.7 4.766-3.631 6.58-5.841a7.507 7.507 0 001.077-1.748 1.457 1.457 0 01.538-2.572c-.025-1.176-.445-2.311-1.352-3.232-1.764-1.79-4.258-1.746-6.237-.61a1.457 1.457 0 11-2.825 0c-1.979-1.136-4.474-1.18-6.237.61-.907.92-1.327 2.056-1.352 3.233a1.457 1.457 0 01.538 2.571c.27.616.633 1.207 1.077 1.748z"/>
            <path fill="#2C2C2C" d="M49.228 76.852a.661.661 0 101.323.001.661.661 0 00-1.323 0zM49.856 91.048a.662.662 0 10.07 0M40.943 81.225a.666.666 0 01.261.527.662.662 0 11-.261-.527zM58.657 82.068a.66.66 0 01.181-.843.662.662 0 11-.18.844z"/>
          </g>
          <path fill="#fff" fill-rule="evenodd" d="M59.954 80.482c.014-1.468-.479-2.924-1.66-4.123-2.225-2.259-5.289-2.094-7.607-.727a1.45 1.45 0 00-1.593 0c-2.318-1.368-5.382-1.532-7.607.727-1.181 1.2-1.674 2.655-1.66 4.123a1.456 1.456 0 00.579 2.72 8.531 8.531 0 001.28 2.127c1.903 2.32 4.412 4.319 6.788 6.035a1.457 1.457 0 102.831 0c2.378-1.716 4.887-3.715 6.79-6.035a8.531 8.531 0 001.28-2.127 1.457 1.457 0 00.579-2.72zm-17.45 4.174c1.814 2.21 4.228 4.14 6.58 5.84a1.45 1.45 0 01.806-.243c.298 0 .576.09.807.244 2.352-1.7 4.766-3.631 6.58-5.841a7.468 7.468 0 001.076-1.747 1.453 1.453 0 01-.566-1.284 1.457 1.457 0 011.105-1.288 4.635 4.635 0 00-1.352-3.232 4.932 4.932 0 00-.693-.588c-1.27-.885-2.79-1.014-4.202-.599-.463.137-.915.331-1.342.577a1.56 1.56 0 01.044.357 1.457 1.457 0 11-2.869-.357c-1.979-1.137-4.474-1.18-6.237.61-.907.92-1.327 2.055-1.352 3.232a1.45 1.45 0 01.917.691 1.454 1.454 0 01-.379 1.88c.27.616.633 1.207 1.077 1.748zm6.724-7.804a.663.663 0 101.326 0 .663.663 0 00-1.326 0zm0 14.858c0-.355.278-.644.628-.662h.07a.662.662 0 11-.698.662zm-8.285-10.485a.666.666 0 01.261.527.662.662 0 11-.261-.527zm17.634.548a.659.659 0 00.662.64.662.662 0 10-.662-.64z" class="stroke_3" clip-rule="evenodd"/>
          <path fill="#2C2C2C" fill-rule="evenodd" d="M58.505 85.665c-1.878 2.289-4.32 4.26-6.631 5.942l.002.103a1.986 1.986 0 11-3.97-.103c-2.31-1.683-4.752-3.654-6.63-5.942a9.085 9.085 0 01-1.243-1.993 1.987 1.987 0 01-.732-3.471 6.178 6.178 0 011.809-4.213c2.357-2.393 5.556-2.278 7.992-.96a1.98 1.98 0 011.577 0c2.436-1.318 5.635-1.433 7.992.96a6.178 6.178 0 011.81 4.213 1.987 1.987 0 01-.732 3.471 9.085 9.085 0 01-1.244 1.993zm.87-2.463a8.55 8.55 0 01-1.28 2.127c-1.903 2.32-4.412 4.319-6.79 6.036a1.46 1.46 0 01-1.415 1.801 1.457 1.457 0 01-1.416-1.802c-2.376-1.717-4.885-3.716-6.789-6.035a8.553 8.553 0 01-1.279-2.127 1.457 1.457 0 01-.579-2.72c0-.085 0-.171.003-.257a5.649 5.649 0 011.657-3.866c2.225-2.259 5.289-2.094 7.607-.727a1.45 1.45 0 01.797-.237c.293 0 .567.088.796.237 2.318-1.368 5.382-1.532 7.607.727a5.649 5.649 0 011.657 3.866c.003.086.004.172.003.257a1.455 1.455 0 01.742 1.27 1.457 1.457 0 01-1.321 1.45z" class="stroke 2_3" clip-rule="evenodd"/>
        </g>
      </g>
      <g class="symbol_6">
        <g class="â spades_6">
          <g class="fill_4">
            <path fill="#2C2C2C" d="M19.38 84.656c1.815 2.21 4.229 4.14 6.58 5.84a1.45 1.45 0 01.807-.243c.298 0 .576.09.807.244 2.352-1.7 4.766-3.631 6.58-5.841a7.504 7.504 0 001.077-1.748 1.457 1.457 0 01.538-2.572c-.025-1.176-.445-2.311-1.352-3.232-1.764-1.79-4.258-1.746-6.237-.61a1.459 1.459 0 01-1.413 1.815 1.457 1.457 0 01-1.412-1.814c-1.979-1.137-4.474-1.18-6.237.61-.907.92-1.327 2.055-1.352 3.232a1.457 1.457 0 01.538 2.571 7.5 7.5 0 001.077 1.748z"/>
            <path fill="#2C2C2C" d="M26.105 76.852a.666.666 0 00.052.257.664.664 0 00.61.405.662.662 0 10-.662-.662zM26.733 91.048a.662.662 0 10.07 0M17.82 81.225a.665.665 0 01.26.527.662.662 0 11-.26-.527zM35.535 82.068a.658.658 0 01-.081-.316.661.661 0 11.08.316z"/>
          </g>
          <path fill="#fff" fill-rule="evenodd" d="M36.83 80.482c.015-1.468-.478-2.924-1.66-4.123-2.224-2.259-5.288-2.094-7.606-.727a1.45 1.45 0 00-1.593 0c-2.318-1.368-5.382-1.532-7.607.727-1.181 1.2-1.674 2.655-1.66 4.123a1.456 1.456 0 00.579 2.72 8.531 8.531 0 001.28 2.127c1.903 2.32 4.412 4.319 6.789 6.035a1.46 1.46 0 001.415 1.802 1.457 1.457 0 001.416-1.8c2.377-1.718 4.886-3.718 6.79-6.037a8.534 8.534 0 001.279-2.127 1.457 1.457 0 00.579-2.72zm-17.45 4.174c1.815 2.21 4.229 4.14 6.58 5.84a1.45 1.45 0 01.807-.243c.298 0 .576.09.807.244 2.352-1.7 4.766-3.631 6.58-5.841a7.468 7.468 0 001.076-1.747 1.453 1.453 0 01-.566-1.284 1.458 1.458 0 011.105-1.288 4.635 4.635 0 00-1.352-3.232 4.932 4.932 0 00-.693-.588c-1.27-.885-2.79-1.014-4.202-.599a6.23 6.23 0 00-1.342.577l.011.048a1.457 1.457 0 11-2.836-.049c-1.979-1.136-4.474-1.18-6.237.61-.907.92-1.327 2.056-1.352 3.233a1.448 1.448 0 01.917.691 1.454 1.454 0 01-.379 1.88 7.505 7.505 0 001.077 1.748zm6.725-7.804a.668.668 0 00.052.257.664.664 0 00.61.405.662.662 0 10-.662-.662zm0 14.858c0-.355.278-.644.628-.662h.07a.662.662 0 11-.698.662zM17.82 81.225a.664.664 0 01.26.527.662.662 0 11-.26-.527zm17.634.548a.662.662 0 101.323-.042.662.662 0 00-1.323.042z" class="stroke_4" clip-rule="evenodd"/>
          <path fill="#2C2C2C" fill-rule="evenodd" d="M35.382 85.665c-1.878 2.289-4.32 4.26-6.631 5.942l.002.103a1.986 1.986 0 11-3.97-.103c-2.31-1.683-4.752-3.654-6.63-5.942a9.085 9.085 0 01-1.243-1.993 1.987 1.987 0 01-.732-3.471 6.178 6.178 0 011.809-4.213c2.357-2.393 5.556-2.278 7.992-.96a1.98 1.98 0 011.577 0c2.436-1.318 5.635-1.433 7.992.96a6.178 6.178 0 011.81 4.213 1.987 1.987 0 01-.732 3.471 9.085 9.085 0 01-1.244 1.993zm.87-2.463a8.552 8.552 0 01-1.28 2.127c-1.903 2.32-4.412 4.319-6.79 6.036a1.46 1.46 0 01-1.415 1.801 1.457 1.457 0 01-1.415-1.802c-2.377-1.717-4.886-3.716-6.79-6.035a8.55 8.55 0 01-1.279-2.127 1.457 1.457 0 01-.579-2.72c0-.085 0-.171.003-.257a5.649 5.649 0 011.657-3.866c2.225-2.259 5.289-2.094 7.607-.727a1.45 1.45 0 01.796-.237c.294 0 .568.088.797.237 2.318-1.368 5.382-1.532 7.607.727a5.65 5.65 0 011.657 3.866c.003.086.004.172.003.257a1.455 1.455 0 01.742 1.27 1.457 1.457 0 01-1.321 1.45z" class="stroke 2_4" clip-rule="evenodd"/>
        </g>
      </g>
      <g class="symbol_7">
        <g class="â spades_7">
          <g class="fill_5">
            <path fill="#2C2C2C" d="M42.504 24.549c1.814-2.21 4.228-4.141 6.58-5.84.23.153.508.243.806.243.298 0 .576-.09.807-.244 2.352 1.7 4.766 3.63 6.58 5.841.444.54.808 1.132 1.077 1.747a1.457 1.457 0 00.538 2.572c-.025 1.177-.445 2.312-1.352 3.232-1.764 1.79-4.258 1.747-6.237.61a1.457 1.457 0 10-2.825 0c-1.979 1.137-4.474 1.18-6.237-.61-.907-.92-1.327-2.055-1.352-3.232a1.457 1.457 0 00.538-2.572 7.507 7.507 0 011.077-1.747z"/>
            <path fill="#2C2C2C" d="M49.228 32.352a.661.661 0 111.323 0 .661.661 0 01-1.323 0zM49.856 18.156a.662.662 0 11.07 0M40.943 27.98a.665.665 0 00.261-.527.662.662 0 10-.261.527zM58.657 27.136a.659.659 0 00.181.844.662.662 0 10-.18-.844z"/>
          </g>
          <path fill="#fff" fill-rule="evenodd" d="M59.954 28.722c.014 1.469-.479 2.924-1.66 4.123-2.225 2.26-5.289 2.095-7.607.727a1.45 1.45 0 01-.796.237 1.45 1.45 0 01-.797-.237c-2.318 1.368-5.382 1.532-7.607-.727-1.181-1.199-1.674-2.654-1.66-4.123a1.456 1.456 0 01.579-2.72 8.53 8.53 0 011.28-2.127c1.903-2.319 4.412-4.318 6.788-6.035a1.457 1.457 0 112.831 0c2.378 1.716 4.887 3.716 6.79 6.035a8.53 8.53 0 011.28 2.128 1.457 1.457 0 01.579 2.72zm-17.45-4.173c1.814-2.21 4.228-4.141 6.58-5.84.23.153.508.243.806.243.298 0 .576-.09.807-.244 2.352 1.7 4.766 3.63 6.58 5.841a7.53 7.53 0 011.077 1.747 1.453 1.453 0 00-.566 1.284 1.458 1.458 0 001.104 1.288A4.636 4.636 0 0157.54 32.1c-.22.224-.452.42-.693.587-1.27.885-2.79 1.014-4.202.599a6.225 6.225 0 01-1.342-.576 1.56 1.56 0 00.044-.358 1.457 1.457 0 10-2.869.358c-1.979 1.137-4.474 1.18-6.237-.61-.907-.92-1.327-2.055-1.352-3.232a1.448 1.448 0 00.917-.691 1.454 1.454 0 00-.379-1.88 7.507 7.507 0 011.077-1.748zm6.724 7.803a.661.661 0 111.323 0 .661.661 0 01-1.323 0zm0-14.857c0 .354.278.643.628.661h.07a.662.662 0 10-.698-.661zM40.943 27.98a.666.666 0 00.261-.527.662.662 0 10-.261.527zm17.634-.549a.66.66 0 01.662-.64.662.662 0 11-.662.64z" class="stroke_5" clip-rule="evenodd"/>
          <path fill="#2C2C2C" fill-rule="evenodd" d="M58.505 23.54c-1.878-2.29-4.32-4.26-6.631-5.943l.002-.102a1.986 1.986 0 10-3.97.103c-2.31 1.683-4.752 3.653-6.63 5.941a9.087 9.087 0 00-1.243 1.993 1.987 1.987 0 00-.732 3.472 6.178 6.178 0 001.809 4.213c2.357 2.392 5.556 2.277 7.992.96a1.982 1.982 0 001.577-.001c2.436 1.318 5.635 1.433 7.992-.959a6.178 6.178 0 001.81-4.213 1.987 1.987 0 00-.732-3.471 9.087 9.087 0 00-1.244-1.994zm.87 2.463a8.411 8.411 0 00-1.28-2.128c-1.903-2.319-4.412-4.318-6.79-6.035a1.459 1.459 0 00-1.415-1.802 1.457 1.457 0 00-1.416 1.802c-2.376 1.717-4.885 3.716-6.789 6.035a8.553 8.553 0 00-1.279 2.128 1.457 1.457 0 00-.579 2.72c0 .085 0 .17.003.256a5.649 5.649 0 001.657 3.866c2.225 2.26 5.289 2.095 7.607.727.23.15.503.237.797.237.293 0 .567-.087.796-.237 2.318 1.368 5.382 1.532 7.607-.727a5.649 5.649 0 001.657-3.866c.003-.085.004-.171.003-.257a1.455 1.455 0 00.742-1.27 1.457 1.457 0 00-1.321-1.45z" class="stroke 2_5" clip-rule="evenodd"/>
        </g>
      </g>
      <g class="symbol_8">
        <g class="â spades_8">
          <g class="fill_6">
            <path fill="#2C2C2C" d="M42.504 53.113c1.814-2.21 4.228-4.142 6.58-5.841.23.154.508.243.806.243.298 0 .576-.09.807-.243 2.352 1.7 4.766 3.63 6.58 5.84.444.541.808 1.133 1.077 1.748a1.457 1.457 0 00.538 2.572c-.025 1.176-.445 2.311-1.352 3.232-1.764 1.79-4.258 1.746-6.237.61a1.457 1.457 0 10-2.825 0c-1.979 1.136-4.474 1.18-6.237-.61-.907-.92-1.327-2.056-1.352-3.232a1.457 1.457 0 00.538-2.572 7.507 7.507 0 011.077-1.747z"/>
            <path fill="#2C2C2C" d="M49.228 60.916a.661.661 0 111.323 0 .661.661 0 01-1.323 0zM49.856 46.72a.662.662 0 11.07 0M40.943 56.544a.665.665 0 00.261-.527.662.662 0 10-.261.527zM58.657 55.7a.659.659 0 00.181.844.662.662 0 10-.18-.843z"/>
          </g>
          <path fill="#fff" fill-rule="evenodd" d="M59.954 57.286c.014 1.468-.479 2.924-1.66 4.123-2.225 2.259-5.289 2.095-7.607.727a1.45 1.45 0 01-.796.237 1.45 1.45 0 01-.797-.237c-2.318 1.368-5.382 1.532-7.607-.727-1.181-1.2-1.674-2.655-1.66-4.123a1.456 1.456 0 01.579-2.72 8.531 8.531 0 011.28-2.127c1.903-2.319 4.412-4.318 6.788-6.035a1.457 1.457 0 112.831 0c2.378 1.716 4.887 3.716 6.79 6.035.525.64.962 1.362 1.28 2.127a1.457 1.457 0 01.579 2.72zm-17.45-4.173c1.814-2.21 4.228-4.142 6.58-5.841.23.154.508.243.806.243.298 0 .576-.09.807-.243 2.352 1.7 4.766 3.63 6.58 5.84a7.466 7.466 0 011.076 1.747 1.452 1.452 0 00-.565 1.285 1.458 1.458 0 001.104 1.288 4.635 4.635 0 01-1.352 3.232c-.22.224-.452.419-.693.587-1.27.885-2.79 1.014-4.202.599a6.226 6.226 0 01-1.342-.576 1.49 1.49 0 00.044-.358 1.457 1.457 0 10-2.869.358c-1.979 1.136-4.474 1.18-6.237-.61-.907-.92-1.327-2.056-1.352-3.232a1.453 1.453 0 00.917-.692 1.454 1.454 0 00-.379-1.88 7.51 7.51 0 011.077-1.747zm6.724 7.803a.661.661 0 111.323 0 .661.661 0 01-1.323 0zm0-14.857c0 .354.278.643.628.661h.07a.662.662 0 10-.698-.661zm-8.285 10.485a.666.666 0 00.261-.527.662.662 0 10-.261.527zm17.634-.549a.659.659 0 01.662-.64.662.662 0 11-.662.64z" class="stroke_6" clip-rule="evenodd"/>
          <path fill="#2C2C2C" fill-rule="evenodd" d="M58.505 52.103c-1.878-2.288-4.32-4.26-6.631-5.942l.002-.102a1.986 1.986 0 10-3.97.103c-2.31 1.682-4.752 3.653-6.63 5.941a9.085 9.085 0 00-1.243 1.993 1.987 1.987 0 00-.732 3.472 6.178 6.178 0 001.809 4.213c2.357 2.392 5.556 2.277 7.992.959a1.98 1.98 0 001.577 0c2.436 1.318 5.635 1.433 7.992-.96a6.178 6.178 0 001.81-4.212 1.987 1.987 0 00-.732-3.471 9.085 9.085 0 00-1.244-1.994zm.87 2.463a8.55 8.55 0 00-1.28-2.127c-1.903-2.32-4.412-4.319-6.79-6.036a1.46 1.46 0 00-1.415-1.8 1.457 1.457 0 00-1.416 1.8c-2.376 1.718-4.885 3.717-6.789 6.036a8.551 8.551 0 00-1.279 2.127 1.457 1.457 0 00-.579 2.72c0 .086 0 .171.003.257a5.649 5.649 0 001.657 3.866c2.225 2.259 5.289 2.095 7.607.727.23.15.503.237.797.237.293 0 .567-.087.796-.237 2.318 1.368 5.382 1.532 7.607-.727a5.649 5.649 0 001.657-3.866c.003-.086.004-.171.003-.257a1.455 1.455 0 00.742-1.27 1.457 1.457 0 00-1.321-1.45z" class="stroke 2_6" clip-rule="evenodd"/>
        </g>
      </g>
    </g>
  </g>
</svg>
