<svg xmlns="http://www.w3.org/2000/svg" width="80" height="112" fill="none" viewBox="0 0 80 112">
  <g class="ten_spades">
    <rect width="74.81" height="104.734" x=".394" y=".422" fill="#fff" rx="3.62"/>
    <rect width="78.991" height="110.588" x=".394" y=".422" fill="#fff" class="bg" rx="3.62"/>
    <g class="down">
      <g class="letter">
        <g class="10">
          <path fill="#222" fill-rule="evenodd" d="M68.856 99.942a4.08 4.08 0 01-8.161 0v-7.935a4.08 4.08 0 018.161 0v7.935zm-2.267.68a1.814 1.814 0 01-3.627 0v-9.295a1.814 1.814 0 013.627 0v9.295z" clip-rule="evenodd"/>
          <path fill="#222" d="M70.319 103.569h2.164V88.153H70.32v15.416z"/>
        </g>
      </g>
      <g class="symbol">
        <path fill="#2C2C2C" d="M67.914 80.912c.707-.863.875-2.068.1-2.857-.839-.852-2.115-.605-2.889.182-.774-.787-2.05-1.034-2.888-.181-.775.788-.608 1.993.1 2.856.763.932 1.808 1.733 2.788 2.427.98-.694 2.026-1.495 2.79-2.427z" class="â spades"/>
      </g>
    </g>
    <g class="up">
      <g class="letter_2">
        <g class="10_2">
          <path fill="#222" fill-rule="evenodd" d="M7.648 7.223a4.08 4.08 0 018.161 0v7.934a4.08 4.08 0 11-8.161 0V7.223zm2.267-.68a1.814 1.814 0 013.627 0v9.294a1.814 1.814 0 11-3.627 0V6.543z" clip-rule="evenodd"/>
          <path fill="#222" d="M6.186 3.595H4.02v15.416h2.165V3.595z"/>
        </g>
      </g>
      <g class="symbol_2">
        <path fill="#2C2C2C" d="M7.784 24.625c-.707.863-.875 2.068-.1 2.857.839.852 2.115.605 2.889-.182.774.787 2.05 1.034 2.888.182.775-.79.608-1.994-.1-2.857-.763-.932-1.808-1.733-2.788-2.427-.98.694-2.026 1.495-2.79 2.427z" class="â spades_2"/>
      </g>
    </g>
    <g class="icons">
      <g class="symbol_3">
        <g class="â spades_3">
          <g class="fill">
            <path fill="#2C2C2C" d="M19.693 44.593c1.6-1.95 3.73-3.654 5.805-5.153a1.28 1.28 0 001.424 0c2.075 1.5 4.206 3.203 5.806 5.154.392.477.713.998.95 1.541a1.286 1.286 0 00.475 2.27 4.105 4.105 0 01-1.193 2.851c-1.556 1.58-3.757 1.541-5.503.538a1.286 1.286 0 10-2.493 0c-1.746 1.003-3.947 1.042-5.503-.538a4.106 4.106 0 01-1.193-2.852 1.286 1.286 0 00.475-2.269 6.625 6.625 0 01.95-1.541z"/>
            <path fill="#2C2C2C" d="M25.626 51.479a.589.589 0 01.046-.226.586.586 0 011.123.226.584.584 0 01-1.169 0zM26.18 38.953a.584.584 0 11.061 0M18.316 47.62a.586.586 0 00-.354-1.048.584.584 0 10.354 1.049zM33.946 46.876a.58.58 0 00.16.745.584.584 0 10-.16-.744z"/>
          </g>
          <path fill="#fff" fill-rule="evenodd" d="M35.09 48.276c.012 1.295-.422 2.58-1.465 3.638-1.963 1.993-4.666 1.848-6.712.641a1.28 1.28 0 01-1.405 0c-2.046 1.207-4.749 1.352-6.712-.641-1.043-1.058-1.477-2.343-1.465-3.638a1.285 1.285 0 01.51-2.4A7.527 7.527 0 0118.972 44c1.679-2.046 3.893-3.81 5.99-5.325a1.285 1.285 0 112.498 0c2.098 1.514 4.312 3.279 5.991 5.325a7.533 7.533 0 011.13 1.877 1.285 1.285 0 01.51 2.4zm-15.397-3.683c1.6-1.95 3.73-3.654 5.805-5.153a1.28 1.28 0 001.424 0c2.075 1.5 4.206 3.203 5.806 5.154.05.06.097.12.144.18.327.427.598.886.806 1.361a1.281 1.281 0 00-.5 1.133c.049.554.448 1.008.975 1.136a4.09 4.09 0 01-1.193 2.852c-.194.198-.4.37-.612.518-1.12.781-2.46.895-3.707.529a5.495 5.495 0 01-1.184-.509 1.215 1.215 0 00.039-.315 1.285 1.285 0 10-2.532.315c-1.746 1.003-3.947 1.042-5.503-.538a4.106 4.106 0 01-1.193-2.852 1.276 1.276 0 00.81-.61 1.283 1.283 0 00-.334-1.66l-.001.001a6.623 6.623 0 01.95-1.541zm5.933 6.886a.589.589 0 01.046-.226.586.586 0 01.538-.358.584.584 0 11-.584.584zm0-13.11c0 .313.245.568.554.584h.061a.584.584 0 10-.615-.584zm-7.31 9.252a.59.59 0 00.23-.465.584.584 0 10-.23.465zm15.56-.484a.584.584 0 111.167.037.584.584 0 01-1.168-.037z" class="stroke" clip-rule="evenodd"/>
          <path fill="#2C2C2C" fill-rule="evenodd" d="M33.812 43.703c-1.658-2.02-3.813-3.759-5.852-5.243a1.753 1.753 0 10-3.5 0c-2.039 1.485-4.194 3.224-5.85 5.243a8.017 8.017 0 00-1.097 1.758 1.753 1.753 0 00-.646 3.063 5.452 5.452 0 001.596 3.718c2.08 2.11 4.902 2.01 7.052.846a1.749 1.749 0 001.39 0c2.15 1.163 4.974 1.265 7.053-.846a5.452 5.452 0 001.596-3.718 1.753 1.753 0 00-.646-3.063 8.017 8.017 0 00-1.096-1.758zm.767 2.173A7.452 7.452 0 0033.45 44c-1.68-2.046-3.894-3.81-5.99-5.326a1.285 1.285 0 10-2.498 0C22.863 40.19 20.65 41.954 18.97 44a7.544 7.544 0 00-1.13 1.877 1.286 1.286 0 00-.51 2.4 4.985 4.985 0 001.465 3.638c1.963 1.993 4.666 1.848 6.712.641a1.28 1.28 0 001.405 0c2.046 1.207 4.749 1.352 6.712-.641a4.984 4.984 0 001.465-3.638 1.284 1.284 0 00.655-1.12 1.286 1.286 0 00-1.166-1.28z" class="stroke 2" clip-rule="evenodd"/>
        </g>
      </g>
      <g class="symbol_4">
        <g class="â spades_4">
          <g class="fill_2">
            <path fill="#2C2C2C" d="M20.093 22.19c1.6-1.95 3.73-3.654 5.805-5.153a1.28 1.28 0 001.424 0c2.075 1.5 4.206 3.203 5.806 5.154.392.477.713.998.95 1.541a1.286 1.286 0 00.475 2.27 4.106 4.106 0 01-1.193 2.852c-1.556 1.579-3.757 1.54-5.503.537a1.286 1.286 0 10-2.493 0c-1.746 1.003-3.947 1.042-5.503-.537A4.106 4.106 0 0118.668 26a1.286 1.286 0 00.475-2.269 6.62 6.62 0 01.95-1.541z"/>
            <path fill="#2C2C2C" d="M26.026 29.076a.584.584 0 111.168 0 .584.584 0 01-1.168 0zM26.58 16.55a.584.584 0 11.061 0M18.716 25.218a.587.587 0 00.23-.465.584.584 0 10-.23.465zM34.346 24.474a.58.58 0 00-.07.279.583.583 0 101.167 0 .584.584 0 00-1.097-.28z"/>
          </g>
          <path fill="#fff" fill-rule="evenodd" d="M35.49 25.873c.012 1.295-.422 2.58-1.465 3.638-1.963 1.993-4.666 1.848-6.712.641a1.279 1.279 0 01-1.405 0c-2.046 1.207-4.749 1.352-6.712-.641-1.043-1.058-1.477-2.343-1.465-3.638a1.285 1.285 0 01.51-2.4 7.531 7.531 0 011.13-1.877c1.679-2.046 3.893-3.81 5.99-5.325a1.285 1.285 0 112.498 0c2.098 1.514 4.312 3.279 5.991 5.325a7.525 7.525 0 011.13 1.877 1.285 1.285 0 01.51 2.4zM20.093 22.19c1.6-1.95 3.73-3.654 5.805-5.153a1.28 1.28 0 001.424 0c2.075 1.5 4.206 3.203 5.806 5.154.05.06.097.12.144.18.327.427.598.886.806 1.361a1.282 1.282 0 00-.5 1.133c.049.554.448 1.007.975 1.136a4.09 4.09 0 01-1.193 2.852c-.194.198-.399.37-.611.518-1.12.781-2.462.895-3.708.529a5.497 5.497 0 01-1.184-.509 1.216 1.216 0 00.039-.315 1.285 1.285 0 10-2.532.315c-1.746 1.003-3.947 1.042-5.503-.538a4.106 4.106 0 01-1.193-2.852 1.279 1.279 0 00.81-.61 1.283 1.283 0 00-.334-1.66l-.001.001a6.626 6.626 0 01.95-1.541zm5.933 6.886a.584.584 0 111.168 0 .584.584 0 01-1.168 0zm0-13.11c0 .313.245.568.554.584h.061a.584.584 0 10-.615-.584zm-7.31 9.252a.586.586 0 00.23-.465.584.584 0 10-.23.465zm15.56-.484a.58.58 0 01.583-.565.584.584 0 11-.584.565z" class="stroke_2" clip-rule="evenodd"/>
          <path fill="#2C2C2C" fill-rule="evenodd" d="M34.212 21.3c-1.658-2.02-3.813-3.759-5.852-5.243l.003-.09a1.752 1.752 0 10-3.503.09c-2.039 1.485-4.194 3.224-5.85 5.243a8.013 8.013 0 00-1.097 1.758 1.753 1.753 0 00-.646 3.063 5.45 5.45 0 001.596 3.718c2.08 2.11 4.902 2.01 7.052.846a1.747 1.747 0 001.39 0c2.15 1.163 4.974 1.265 7.053-.846a5.45 5.45 0 001.596-3.718 1.753 1.753 0 00-.646-3.063 8.017 8.017 0 00-1.096-1.758zm.767 2.173a7.545 7.545 0 00-1.129-1.877c-1.68-2.046-3.894-3.81-5.99-5.326a1.284 1.284 0 00-1.25-1.589 1.285 1.285 0 00-1.249 1.59c-2.097 1.515-4.311 3.279-5.99 5.325a7.548 7.548 0 00-1.13 1.877 1.286 1.286 0 00-.51 2.4 4.985 4.985 0 001.465 3.638c1.963 1.993 4.666 1.848 6.712.641a1.279 1.279 0 001.405 0c2.046 1.207 4.749 1.352 6.712-.641a4.984 4.984 0 001.465-3.638 1.284 1.284 0 00-.51-2.4z" class="stroke 2_2" clip-rule="evenodd"/>
        </g>
      </g>
      <g class="symbol_5">
        <g class="â spades_5">
          <g class="fill_3">
            <path fill="#2C2C2C" d="M41.615 84.534c1.601 1.95 3.731 3.654 5.806 5.153a1.28 1.28 0 011.424 0c2.075-1.499 4.206-3.203 5.806-5.153.392-.477.712-1 .95-1.542a1.286 1.286 0 01.475-2.27 4.106 4.106 0 00-1.193-2.851c-1.556-1.58-3.757-1.541-5.503-.538a1.286 1.286 0 11-2.493 0c-1.746-1.003-3.947-1.042-5.503.538a4.106 4.106 0 00-1.193 2.852 1.286 1.286 0 01.475 2.269c.237.543.558 1.065.95 1.542z"/>
            <path fill="#2C2C2C" d="M47.55 77.648a.584.584 0 101.167.001.584.584 0 00-1.168 0zM48.103 90.174a.584.584 0 10.061 0M40.239 81.507a.587.587 0 01.23.464.584.584 0 11-.23-.465zM55.869 82.25a.58.58 0 01.16-.743.584.584 0 11-.16.744z"/>
          </g>
          <path fill="#fff" fill-rule="evenodd" d="M57.013 80.851c.012-1.295-.422-2.58-1.465-3.638-1.963-1.993-4.666-1.848-6.712-.641a1.28 1.28 0 00-1.405 0c-2.046-1.207-4.749-1.352-6.712.641-1.043 1.059-1.477 2.343-1.465 3.638a1.285 1.285 0 00.51 2.4 7.53 7.53 0 001.13 1.877c1.679 2.046 3.893 3.81 5.99 5.325a1.285 1.285 0 102.498 0c2.097-1.514 4.312-3.278 5.991-5.325a7.527 7.527 0 001.13-1.877 1.285 1.285 0 00.51-2.4zm-15.397 3.683c1.6 1.95 3.73 3.654 5.805 5.153.204-.135.449-.214.712-.214.263 0 .508.079.712.215 2.075-1.5 4.206-3.204 5.806-5.154a6.583 6.583 0 00.95-1.542 1.281 1.281 0 01-.5-1.133 1.286 1.286 0 01.975-1.136 4.09 4.09 0 00-1.193-2.852 4.347 4.347 0 00-.612-.518c-1.12-.781-2.46-.895-3.707-.528-.409.12-.807.291-1.184.508l.01.043a1.285 1.285 0 11-2.502-.043c-1.747-1.003-3.948-1.042-5.504.538a4.106 4.106 0 00-1.193 2.852 1.278 1.278 0 01.81.61 1.283 1.283 0 01-.334 1.66l-.001-.001a6.62 6.62 0 00.95 1.542zm5.933-6.886a.584.584 0 101.168.001.584.584 0 00-1.168 0zm0 13.11c0-.313.245-.568.554-.584h.061a.584.584 0 11-.615.584zm-7.31-9.251a.59.59 0 01.23.464.584.584 0 11-.23-.465zm15.56.483a.584.584 0 101.167-.037.584.584 0 00-1.168.037z" class="stroke_3" clip-rule="evenodd"/>
          <path fill="#2C2C2C" fill-rule="evenodd" d="M55.734 85.424c-1.657 2.02-3.812 3.759-5.85 5.244l.002.09a1.753 1.753 0 11-3.503-.091c-2.04-1.485-4.194-3.223-5.85-5.243a8.013 8.013 0 01-1.097-1.758 1.753 1.753 0 01-.647-3.063 5.452 5.452 0 011.597-3.718c2.08-2.11 4.902-2.01 7.052-.846a1.749 1.749 0 011.39 0c2.15-1.163 4.973-1.265 7.053.846a5.451 5.451 0 011.596 3.718 1.753 1.753 0 01-.646 3.063 8.017 8.017 0 01-1.096 1.758zm.768-2.173a7.452 7.452 0 01-1.129 1.877c-1.68 2.046-3.894 3.81-5.991 5.326a1.285 1.285 0 11-2.498 0c-2.097-1.516-4.311-3.28-5.99-5.326a7.543 7.543 0 01-1.13-1.877 1.286 1.286 0 01-.51-2.4c0-.075 0-.15.002-.226a4.985 4.985 0 011.463-3.412c1.963-1.993 4.666-1.848 6.712-.641a1.28 1.28 0 011.405 0c2.046-1.207 4.749-1.352 6.712.641a4.984 4.984 0 011.465 3.638 1.284 1.284 0 01.654 1.12 1.286 1.286 0 01-1.165 1.28z" class="stroke 2_3" clip-rule="evenodd"/>
        </g>
      </g>
      <g class="symbol_6">
        <g class="â spades_6">
          <g class="fill_4">
            <path fill="#2C2C2C" d="M19.293 83.734c1.6 1.95 3.73 3.654 5.805 5.153a1.28 1.28 0 011.424 0c2.075-1.5 4.206-3.203 5.806-5.153.392-.477.712-1 .95-1.542a1.286 1.286 0 01.475-2.27 4.106 4.106 0 00-1.193-2.851c-1.556-1.58-3.757-1.541-5.503-.538a1.285 1.285 0 11-2.492 0c-1.747-1.003-3.948-1.042-5.504.538a4.106 4.106 0 00-1.193 2.852 1.286 1.286 0 01.475 2.269c.237.543.558 1.065.95 1.542z"/>
            <path fill="#2C2C2C" d="M25.226 76.848a.588.588 0 00.046.226.585.585 0 001.123-.226.584.584 0 10-1.169 0zM25.78 89.374a.584.584 0 10.061 0M17.915 80.706a.585.585 0 11-.708.931.585.585 0 01.708-.93zM33.546 81.45a.58.58 0 01.16-.744.584.584 0 11-.16.744z"/>
          </g>
          <path fill="#fff" fill-rule="evenodd" d="M34.69 80.051c.012-1.295-.422-2.58-1.465-3.638-1.963-1.993-4.666-1.848-6.712-.641a1.28 1.28 0 00-1.405 0c-2.046-1.207-4.749-1.352-6.712.641-1.043 1.059-1.477 2.343-1.465 3.638a1.285 1.285 0 00.51 2.4c.281.675.667 1.313 1.13 1.877 1.679 2.046 3.893 3.81 5.99 5.325a1.285 1.285 0 102.498 0c2.097-1.514 4.312-3.279 5.991-5.325a7.533 7.533 0 001.13-1.877 1.285 1.285 0 00.51-2.4zm-15.397 3.683c1.6 1.95 3.73 3.654 5.805 5.153a1.28 1.28 0 011.424 0c2.075-1.499 4.206-3.203 5.806-5.153a6.652 6.652 0 00.95-1.542 1.281 1.281 0 01-.5-1.133 1.286 1.286 0 01.975-1.136 4.09 4.09 0 00-1.193-2.852c-.195-.198-.4-.37-.612-.518-1.12-.781-2.46-.895-3.707-.529-.409.12-.807.292-1.184.509a1.215 1.215 0 01.039.315 1.285 1.285 0 11-2.532-.315c-1.746-1.003-3.947-1.042-5.503.538a4.106 4.106 0 00-1.193 2.852 1.276 1.276 0 01.81.61 1.283 1.283 0 01-.334 1.66l-.001-.001c.237.543.558 1.065.95 1.542zm5.933-6.886a.589.589 0 00.046.227.586.586 0 00.538.357.584.584 0 10-.584-.584zm0 13.11c0-.313.245-.568.554-.584h.061a.584.584 0 11-.615.584zm-7.31-9.252a.587.587 0 01.23.465.584.584 0 11-.23-.465zm15.56.484a.584.584 0 101.167-.037.584.584 0 00-1.168.037z" class="stroke_4" clip-rule="evenodd"/>
          <path fill="#2C2C2C" fill-rule="evenodd" d="M33.411 84.624c-1.657 2.02-3.812 3.759-5.85 5.244l.002.09a1.753 1.753 0 11-3.503-.091c-2.04-1.485-4.194-3.224-5.85-5.243a8.017 8.017 0 01-1.097-1.758 1.753 1.753 0 01-.646-3.063 5.451 5.451 0 011.596-3.718c2.08-2.11 4.902-2.01 7.052-.846a1.749 1.749 0 011.39 0c2.15-1.163 4.974-1.265 7.053.846a5.452 5.452 0 011.596 3.718 1.753 1.753 0 01-.646 3.063 8.013 8.013 0 01-1.097 1.758zm.768-2.173c-.024.059-.05.117-.075.175a7.543 7.543 0 01-1.054 1.702c-1.68 2.046-3.894 3.81-5.991 5.326a1.285 1.285 0 11-2.498 0c-2.097-1.516-4.311-3.28-5.99-5.326a7.54 7.54 0 01-1.13-1.877 1.286 1.286 0 01-.51-2.4c0-.075 0-.15.002-.226a4.985 4.985 0 011.463-3.412c1.963-1.993 4.666-1.848 6.712-.641a1.279 1.279 0 011.405 0c2.046-1.207 4.749-1.352 6.712.641a4.985 4.985 0 011.465 3.638 1.284 1.284 0 01.655 1.12 1.286 1.286 0 01-1.166 1.28z" class="stroke 2_4" clip-rule="evenodd"/>
        </g>
      </g>
      <g class="symbol_7">
        <g class="â spades_7">
          <g class="fill_5">
            <path fill="#2C2C2C" d="M33.294 71.732c1.601 1.95 3.731 3.654 5.806 5.154a1.28 1.28 0 011.424 0c2.075-1.5 4.206-3.204 5.806-5.154.392-.477.712-.999.95-1.542a1.286 1.286 0 01.475-2.27 4.105 4.105 0 00-1.193-2.85c-1.556-1.58-3.757-1.542-5.503-.539a1.286 1.286 0 11-2.493 0c-1.746-1.003-3.947-1.041-5.503.538a4.106 4.106 0 00-1.193 2.852 1.286 1.286 0 01.475 2.27c.237.542.558 1.064.95 1.541z"/>
            <path fill="#2C2C2C" d="M39.228 64.847a.589.589 0 00.045.226.586.586 0 001.123-.226.584.584 0 00-1.168 0zM39.782 77.373a.584.584 0 10.061 0M31.917 68.705a.587.587 0 01.23.465.584.584 0 11-.23-.465zM47.548 69.45a.58.58 0 01.16-.745.584.584 0 11-.16.744z"/>
          </g>
          <path fill="#fff" fill-rule="evenodd" d="M48.692 68.05c.012-1.296-.422-2.58-1.465-3.638-1.963-1.993-4.666-1.849-6.712-.642a1.279 1.279 0 00-1.405 0c-2.046-1.207-4.749-1.351-6.712.642-1.043 1.058-1.477 2.342-1.465 3.638a1.285 1.285 0 00.51 2.4c.281.674.666 1.312 1.13 1.876 1.679 2.047 3.893 3.81 5.99 5.326a1.285 1.285 0 102.498 0c2.097-1.515 4.312-3.28 5.991-5.326a7.527 7.527 0 001.129-1.877 1.285 1.285 0 00.51-2.4zm-15.398 3.682c1.601 1.95 3.731 3.654 5.806 5.154a1.28 1.28 0 011.424 0c2.075-1.5 4.206-3.204 5.806-5.154.05-.06.097-.12.144-.18.327-.428.598-.887.806-1.362a1.281 1.281 0 01-.5-1.133 1.286 1.286 0 01.975-1.136 4.09 4.09 0 00-1.193-2.852 4.347 4.347 0 00-.612-.518c-1.12-.78-2.461-.895-3.708-.528-.408.12-.806.291-1.183.508a1.215 1.215 0 01.038.316 1.285 1.285 0 11-2.53-.316c-1.747-1.003-3.948-1.041-5.504.538a4.106 4.106 0 00-1.193 2.852 1.278 1.278 0 01.81.61 1.283 1.283 0 01-.334 1.66h-.001c.237.542.558 1.064.95 1.541zm5.934-6.885a.584.584 0 101.168 0 .584.584 0 00-1.168 0zm0 13.11c0-.313.245-.569.554-.584h.061a.584.584 0 11-.615.583zm-7.31-9.252a.59.59 0 01.23.465.584.584 0 11-.23-.465zm15.56.484a.584.584 0 101.167-.037.584.584 0 00-1.168.037z" class="stroke_5" clip-rule="evenodd"/>
          <path fill="#2C2C2C" fill-rule="evenodd" d="M47.413 72.623c-1.657 2.02-3.812 3.758-5.85 5.243l.001.09a1.753 1.753 0 11-3.502-.09c-2.04-1.486-4.194-3.224-5.85-5.243a8.013 8.013 0 01-1.098-1.759 1.753 1.753 0 01-.646-3.063 5.452 5.452 0 011.597-3.717c2.08-2.111 4.902-2.01 7.052-.847a1.749 1.749 0 011.39 0c2.15-1.163 4.973-1.264 7.053.847a5.452 5.452 0 011.596 3.717 1.753 1.753 0 01-.646 3.063 8.017 8.017 0 01-1.097 1.759zm.768-2.174a7.452 7.452 0 01-1.129 1.877c-1.68 2.047-3.894 3.811-5.991 5.326a1.285 1.285 0 11-2.498 0c-2.097-1.515-4.311-3.28-5.99-5.326a7.547 7.547 0 01-1.13-1.877 1.286 1.286 0 01-.51-2.4c0-.075 0-.15.002-.226a4.985 4.985 0 011.463-3.411c1.963-1.993 4.666-1.849 6.712-.642a1.28 1.28 0 011.405 0c2.046-1.207 4.748-1.352 6.712.642a4.984 4.984 0 011.465 3.638 1.284 1.284 0 01.655 1.12 1.286 1.286 0 01-1.166 1.28z" class="stroke 2_5" clip-rule="evenodd"/>
        </g>
      </g>
      <g class="symbol_8">
        <g class="â spades_8">
          <g class="fill_6">
            <path fill="#2C2C2C" d="M41.615 61.73c1.601 1.95 3.731 3.655 5.806 5.154a1.28 1.28 0 011.424 0c2.075-1.499 4.206-3.203 5.806-5.153.392-.477.712-1 .95-1.542a1.286 1.286 0 01.475-2.27 4.106 4.106 0 00-1.193-2.851c-1.556-1.58-3.757-1.541-5.503-.538a1.286 1.286 0 11-2.493 0c-1.746-1.003-3.947-1.042-5.503.538a4.106 4.106 0 00-1.193 2.852 1.286 1.286 0 01.475 2.269c.237.543.558 1.065.95 1.542z"/>
            <path fill="#2C2C2C" d="M47.55 54.845a.584.584 0 101.167.001.584.584 0 00-1.168 0zM48.103 67.371a.584.584 0 10.061 0M40.239 58.703a.588.588 0 01.23.465.584.584 0 11-.23-.465zM55.869 59.448a.58.58 0 01-.071-.28.583.583 0 111.168 0 .584.584 0 01-1.097.28z"/>
          </g>
          <path fill="#fff" fill-rule="evenodd" d="M57.013 58.048c.012-1.295-.422-2.58-1.465-3.638-1.963-1.993-4.666-1.848-6.712-.641a1.279 1.279 0 00-1.405 0c-2.046-1.207-4.749-1.352-6.712.641-1.043 1.059-1.477 2.343-1.465 3.638a1.285 1.285 0 00.51 2.4c.281.675.667 1.313 1.13 1.877 1.679 2.046 3.893 3.81 5.99 5.325a1.285 1.285 0 102.498 0c2.097-1.514 4.312-3.279 5.991-5.325a7.525 7.525 0 001.13-1.877 1.285 1.285 0 00.51-2.4zm-15.397 3.683c1.6 1.95 3.73 3.654 5.805 5.153a1.28 1.28 0 011.424 0c2.075-1.499 4.206-3.203 5.806-5.153a6.583 6.583 0 00.95-1.542 1.282 1.282 0 01-.5-1.133 1.286 1.286 0 01.975-1.136 4.09 4.09 0 00-1.193-2.852 4.348 4.348 0 00-.612-.518c-1.12-.781-2.46-.895-3.707-.528-.409.12-.807.291-1.184.508l.01.043a1.285 1.285 0 11-2.502-.043c-1.747-1.003-3.948-1.042-5.504.538a4.106 4.106 0 00-1.193 2.852 1.278 1.278 0 01.81.61 1.283 1.283 0 01-.334 1.66l-.001-.001c.237.543.558 1.065.95 1.542zm5.933-6.886a.583.583 0 00.584.584.584.584 0 10-.584-.584zm0 13.11c0-.313.245-.568.554-.584h.061a.584.584 0 11-.615.584zm-7.31-9.252a.587.587 0 01.23.465.584.584 0 11-.23-.465zm15.56.484a.58.58 0 00.583.566.584.584 0 10-.584-.566z" class="stroke_6" clip-rule="evenodd"/>
          <path fill="#2C2C2C" fill-rule="evenodd" d="M55.734 62.621c-1.657 2.02-3.812 3.759-5.85 5.244l.002.09a1.752 1.752 0 11-3.503-.091c-2.04-1.485-4.194-3.224-5.85-5.243a8.016 8.016 0 01-1.097-1.758 1.753 1.753 0 01-.647-3.063 5.452 5.452 0 011.597-3.718c2.08-2.11 4.902-2.01 7.052-.846a1.747 1.747 0 011.39 0c2.15-1.163 4.973-1.265 7.053.846a5.451 5.451 0 011.596 3.718 1.753 1.753 0 01-.646 3.063 8.02 8.02 0 01-1.096 1.758zm.768-2.173a7.545 7.545 0 01-1.129 1.877c-1.68 2.046-3.894 3.81-5.991 5.326a1.285 1.285 0 11-2.498 0c-2.097-1.516-4.311-3.28-5.99-5.326a7.548 7.548 0 01-1.13-1.877 1.286 1.286 0 01-.51-2.4c0-.075 0-.15.002-.226a4.985 4.985 0 011.463-3.412c1.963-1.993 4.666-1.848 6.712-.641a1.28 1.28 0 011.405 0c2.046-1.207 4.749-1.352 6.712.641a4.985 4.985 0 011.465 3.638 1.284 1.284 0 01-.51 2.4z" class="stroke 2_6" clip-rule="evenodd"/>
        </g>
      </g>
      <g class="symbol_9">
        <g class="â spades_9">
          <g class="fill_7">
            <path fill="#2C2C2C" d="M19.293 61.33c1.6 1.95 3.73 3.655 5.805 5.154a1.28 1.28 0 011.424 0c2.075-1.5 4.206-3.203 5.806-5.153.392-.478.712-1 .95-1.542a1.286 1.286 0 01.475-2.27 4.106 4.106 0 00-1.193-2.851c-1.556-1.58-3.757-1.541-5.503-.538a1.285 1.285 0 11-2.492 0c-1.747-1.003-3.948-1.042-5.504.538a4.106 4.106 0 00-1.193 2.852 1.286 1.286 0 01.475 2.269c.237.543.558 1.064.95 1.541z"/>
            <path fill="#2C2C2C" d="M25.226 54.445a.589.589 0 00.046.226.585.585 0 10-.046-.226zM25.78 66.971a.584.584 0 10.061 0M17.915 58.303a.587.587 0 01.23.465.584.584 0 11-.23-.465zM33.546 59.048a.58.58 0 01.16-.745.584.584 0 11-.16.744z"/>
          </g>
          <path fill="#fff" fill-rule="evenodd" d="M34.69 57.648c.012-1.295-.422-2.58-1.465-3.638-1.963-1.993-4.666-1.848-6.712-.641a1.28 1.28 0 00-1.405 0c-2.046-1.207-4.749-1.352-6.712.641-1.043 1.059-1.477 2.343-1.465 3.638a1.285 1.285 0 00.51 2.4c.281.675.667 1.313 1.13 1.877 1.679 2.046 3.893 3.81 5.99 5.325a1.285 1.285 0 102.498 0c2.097-1.514 4.312-3.279 5.991-5.325a7.531 7.531 0 001.13-1.877 1.285 1.285 0 00.51-2.4zM19.293 61.33c1.6 1.95 3.73 3.655 5.805 5.154a1.28 1.28 0 011.424 0c2.075-1.5 4.206-3.203 5.806-5.153a6.652 6.652 0 00.95-1.542 1.281 1.281 0 01-.5-1.133 1.286 1.286 0 01.975-1.136 4.09 4.09 0 00-1.193-2.852c-.195-.198-.4-.37-.612-.518-1.12-.781-2.46-.895-3.707-.529a5.49 5.49 0 00-1.184.509 1.264 1.264 0 01.039.315 1.285 1.285 0 11-2.532-.315c-1.746-1.003-3.947-1.042-5.503.538a4.106 4.106 0 00-1.193 2.852 1.279 1.279 0 01.81.61 1.283 1.283 0 01-.334 1.66l-.001-.001c.237.543.558 1.064.95 1.541zm5.933-6.885a.588.588 0 00.046.226.585.585 0 001.123-.226.584.584 0 10-1.169 0zm0 13.11c0-.313.245-.568.554-.584h.061a.584.584 0 11-.615.584zm-7.31-9.252a.585.585 0 11-.71.932.585.585 0 01.71-.932zm15.56.484a.584.584 0 101.167-.037.584.584 0 00-1.168.037z" class="stroke_7" clip-rule="evenodd"/>
          <path fill="#2C2C2C" fill-rule="evenodd" d="M33.411 62.221c-1.657 2.02-3.812 3.759-5.85 5.244l.002.09a1.753 1.753 0 11-3.503-.091c-2.04-1.485-4.194-3.224-5.85-5.243a8.02 8.02 0 01-1.097-1.758 1.753 1.753 0 01-.646-3.063 5.451 5.451 0 011.596-3.718c2.08-2.11 4.902-2.01 7.052-.846a1.747 1.747 0 011.39 0c2.15-1.163 4.974-1.265 7.053.846a5.452 5.452 0 011.596 3.718 1.753 1.753 0 01-.646 3.063 8.016 8.016 0 01-1.097 1.758zm.768-2.173l-.075.174a7.548 7.548 0 01-1.054 1.703c-1.68 2.046-3.894 3.81-5.991 5.326a1.285 1.285 0 11-2.498 0c-2.097-1.516-4.311-3.28-5.99-5.326a7.545 7.545 0 01-1.13-1.877 1.286 1.286 0 01-.51-2.4c0-.076 0-.151.002-.227a4.985 4.985 0 011.463-3.41c1.963-1.994 4.666-1.849 6.712-.642a1.279 1.279 0 011.405 0c2.046-1.207 4.749-1.352 6.712.641a4.985 4.985 0 011.465 3.638 1.284 1.284 0 01-.51 2.4z" class="stroke 2_7" clip-rule="evenodd"/>
        </g>
      </g>
      <g class="symbol_10">
        <g class="â spades_10">
          <g class="fill_8">
            <path fill="#2C2C2C" d="M41.615 44.593c1.601-1.95 3.731-3.654 5.806-5.153a1.28 1.28 0 001.424 0c2.075 1.5 4.206 3.203 5.806 5.154.392.477.712.998.95 1.541a1.286 1.286 0 00.475 2.27 4.106 4.106 0 01-1.193 2.851c-1.556 1.58-3.757 1.541-5.503.538a1.286 1.286 0 10-2.493 0c-1.746 1.003-3.947 1.042-5.503-.538a4.106 4.106 0 01-1.193-2.852 1.286 1.286 0 00.475-2.269 6.625 6.625 0 01.95-1.541z"/>
            <path fill="#2C2C2C" d="M47.55 51.479a.584.584 0 111.167 0 .584.584 0 01-1.168 0zM48.103 38.953a.584.584 0 11.061 0M40.239 47.62a.587.587 0 00.23-.464.584.584 0 10-.23.465zM55.869 46.876a.58.58 0 00.16.745.584.584 0 10-.16-.744z"/>
          </g>
          <path fill="#fff" fill-rule="evenodd" d="M57.013 48.276c.012 1.295-.422 2.58-1.465 3.638-1.963 1.993-4.666 1.848-6.712.641a1.279 1.279 0 01-1.405 0c-2.046 1.207-4.749 1.352-6.712-.641-1.043-1.058-1.477-2.343-1.465-3.638a1.285 1.285 0 01.51-2.4A7.53 7.53 0 0140.895 44c1.679-2.046 3.893-3.81 5.99-5.325a1.285 1.285 0 112.498 0c2.097 1.514 4.312 3.279 5.991 5.325a7.527 7.527 0 011.13 1.877 1.285 1.285 0 01.51 2.4zm-15.397-3.683c1.6-1.95 3.73-3.654 5.805-5.153a1.28 1.28 0 001.424 0c2.075 1.5 4.206 3.203 5.806 5.154.05.06.097.12.144.18.327.427.598.886.806 1.361a1.281 1.281 0 00-.5 1.133c.049.554.448 1.008.975 1.136a4.09 4.09 0 01-1.193 2.852c-.195.198-.4.37-.612.518-1.12.781-2.46.895-3.707.529a5.497 5.497 0 01-1.184-.509l.01-.042a1.285 1.285 0 10-2.502.043c-1.747 1.002-3.948 1.04-5.504-.539a4.106 4.106 0 01-1.193-2.852 1.278 1.278 0 00.81-.61 1.283 1.283 0 00-.334-1.66l-.001.001a6.62 6.62 0 01.95-1.541zm5.933 6.886a.584.584 0 111.168 0 .584.584 0 01-1.168 0zm0-13.11c0 .313.245.568.554.584h.061a.584.584 0 10-.615-.584zm-7.31 9.252a.59.59 0 00.23-.465.584.584 0 10-.23.465zm15.56-.484a.584.584 0 111.167.037.584.584 0 01-1.168-.037z" class="stroke_8" clip-rule="evenodd"/>
          <path fill="#2C2C2C" fill-rule="evenodd" d="M55.734 43.703c-1.657-2.02-3.812-3.759-5.85-5.243l.002-.09a1.753 1.753 0 10-3.503.09c-2.04 1.485-4.194 3.224-5.85 5.243a8.013 8.013 0 00-1.097 1.758 1.753 1.753 0 00-.647 3.063 5.452 5.452 0 001.597 3.718c2.08 2.11 4.902 2.01 7.052.846a1.749 1.749 0 001.39 0c2.15 1.163 4.973 1.265 7.053-.846a5.451 5.451 0 001.596-3.718 1.753 1.753 0 00-.646-3.063 8.017 8.017 0 00-1.096-1.758zm.768 2.173A7.452 7.452 0 0055.373 44c-1.68-2.046-3.894-3.81-5.991-5.326a1.285 1.285 0 10-2.498 0c-2.097 1.516-4.311 3.28-5.99 5.326a7.543 7.543 0 00-1.13 1.877 1.286 1.286 0 00-.51 2.4 4.985 4.985 0 001.465 3.638c1.963 1.993 4.666 1.848 6.712.641a1.28 1.28 0 001.405 0c2.046 1.207 4.749 1.352 6.712-.641a4.984 4.984 0 001.465-3.638 1.284 1.284 0 00.654-1.12 1.286 1.286 0 00-1.165-1.28z" class="stroke 2_8" clip-rule="evenodd"/>
        </g>
      </g>
      <g class="symbol_11">
        <g class="â spades_11">
          <g class="fill_9">
            <path fill="#2C2C2C" d="M41.615 20.59c1.601-1.95 3.731-3.654 5.806-5.153a1.28 1.28 0 001.424 0c2.075 1.499 4.206 3.203 5.806 5.153.392.477.712 1 .95 1.542a1.286 1.286 0 00.475 2.27 4.106 4.106 0 01-1.193 2.851c-1.556 1.58-3.757 1.541-5.503.538a1.286 1.286 0 10-2.493 0c-1.746 1.003-3.947 1.042-5.503-.538a4.106 4.106 0 01-1.193-2.852 1.286 1.286 0 00.475-2.269 6.625 6.625 0 01.95-1.542z"/>
            <path fill="#2C2C2C" d="M47.55 27.476a.583.583 0 111.166-.001.583.583 0 01-1.167 0zM48.103 14.95a.584.584 0 11.061 0M40.239 23.617a.587.587 0 00.23-.464.584.584 0 10-.23.465zM55.869 22.873a.58.58 0 00.16.744.584.584 0 10-.16-.744z"/>
          </g>
          <path fill="#fff" fill-rule="evenodd" d="M57.013 24.273c.012 1.295-.422 2.58-1.465 3.638-1.963 1.993-4.666 1.848-6.712.641a1.28 1.28 0 01-1.405 0c-2.046 1.207-4.749 1.352-6.712-.641-1.043-1.059-1.477-2.343-1.465-3.638a1.285 1.285 0 01.51-2.4 7.528 7.528 0 011.13-1.877c1.679-2.046 3.893-3.81 5.99-5.325a1.285 1.285 0 112.498 0c2.097 1.514 4.312 3.279 5.991 5.325a7.525 7.525 0 011.13 1.877 1.285 1.285 0 01.51 2.4zM41.616 20.59c1.6-1.95 3.73-3.654 5.805-5.153a1.28 1.28 0 001.424 0c2.075 1.499 4.206 3.203 5.806 5.153a6.583 6.583 0 01.95 1.542 1.281 1.281 0 00-.5 1.133c.049.554.448 1.007.975 1.136a4.09 4.09 0 01-1.193 2.852c-.195.198-.4.37-.612.518-1.12.781-2.46.895-3.707.528a5.497 5.497 0 01-1.184-.508l.01-.043a1.285 1.285 0 10-2.502.043c-1.747 1.003-3.948 1.042-5.504-.538a4.106 4.106 0 01-1.193-2.852 1.278 1.278 0 00.81-.61 1.283 1.283 0 00-.334-1.66l-.001.001a6.62 6.62 0 01.95-1.542zm5.933 6.886a.584.584 0 111.168-.001.584.584 0 01-1.168 0zm0-13.11c0 .313.245.568.554.584h.061a.584.584 0 10-.615-.584zm-7.31 9.252a.588.588 0 00.23-.465.584.584 0 10-.23.465zm15.56-.484a.584.584 0 111.167.037.584.584 0 01-1.168-.037z" class="stroke_9" clip-rule="evenodd"/>
          <path fill="#2C2C2C" fill-rule="evenodd" d="M55.734 19.7c-1.657-2.02-3.812-3.759-5.85-5.244l.002-.09a1.753 1.753 0 10-3.503.091c-2.04 1.485-4.194 3.223-5.85 5.242a8.013 8.013 0 00-1.097 1.76 1.753 1.753 0 00-.647 3.062 5.451 5.451 0 001.597 3.718c2.08 2.11 4.902 2.01 7.052.846a1.749 1.749 0 001.39 0c2.15 1.163 4.973 1.265 7.053-.846a5.45 5.45 0 001.596-3.718 1.753 1.753 0 00-.646-3.063 8.017 8.017 0 00-1.096-1.758zm.768 2.173a7.452 7.452 0 00-1.129-1.877c-1.68-2.046-3.894-3.81-5.991-5.326a1.285 1.285 0 10-2.498 0c-2.097 1.516-4.311 3.28-5.99 5.326a7.543 7.543 0 00-1.13 1.877 1.286 1.286 0 00-.51 2.4 4.985 4.985 0 001.465 3.638c1.963 1.993 4.666 1.848 6.712.641a1.28 1.28 0 001.405 0c2.046 1.207 4.749 1.352 6.712-.641a4.984 4.984 0 001.465-3.638 1.284 1.284 0 00-.51-2.4z" class="stroke 2_9" clip-rule="evenodd"/>
        </g>
      </g>
      <g class="symbol_12">
        <g class="â spades_12">
          <g class="fill_10">
            <path fill="#2C2C2C" d="M33.294 33.792c1.601-1.95 3.731-3.654 5.806-5.154a1.28 1.28 0 001.424 0c2.075 1.5 4.206 3.204 5.806 5.154.392.477.712.999.95 1.542a1.286 1.286 0 00.475 2.27 4.105 4.105 0 01-1.193 2.851c-1.556 1.58-3.757 1.54-5.503.538a1.287 1.287 0 00-1.247-1.6 1.285 1.285 0 00-1.246 1.6c-1.746 1.003-3.947 1.041-5.503-.538a4.106 4.106 0 01-1.193-2.852 1.286 1.286 0 00.475-2.27 6.621 6.621 0 01.95-1.54z"/>
            <path fill="#2C2C2C" d="M39.228 40.678a.589.589 0 01.045-.227.586.586 0 01.54-.358.584.584 0 11-.585.584zM39.782 28.151a.584.584 0 11.061 0M31.917 36.82a.59.59 0 00.23-.466.584.584 0 10-.23.465zM47.548 36.075a.58.58 0 00-.071.28.583.583 0 10.07-.28z"/>
          </g>
          <path fill="#fff" fill-rule="evenodd" d="M48.692 37.474c.012 1.296-.422 2.58-1.465 3.638-1.963 1.993-4.666 1.849-6.712.642a1.279 1.279 0 01-1.405 0c-2.046 1.207-4.749 1.352-6.712-.642-1.043-1.058-1.477-2.342-1.465-3.638a1.285 1.285 0 01.51-2.4 7.525 7.525 0 011.13-1.876c1.679-2.047 3.893-3.81 5.99-5.326a1.285 1.285 0 112.498 0c2.097 1.515 4.312 3.28 5.991 5.326a7.525 7.525 0 011.129 1.877 1.285 1.285 0 01.51 2.4zm-15.398-3.682c1.601-1.95 3.731-3.654 5.806-5.154a1.28 1.28 0 001.424 0c2.075 1.5 4.206 3.204 5.806 5.154a6.585 6.585 0 01.95 1.542 1.281 1.281 0 00-.5 1.133c.048.553.448 1.007.975 1.136-.002.065-.004.13-.009.194a4.09 4.09 0 01-1.184 2.658c-.195.197-.4.37-.612.518-1.12.78-2.461.895-3.708.528a5.492 5.492 0 01-1.183-.508 1.264 1.264 0 00.038-.316 1.285 1.285 0 10-2.53.316c-1.747 1.003-3.948 1.041-5.504-.538a4.106 4.106 0 01-1.193-2.852 1.28 1.28 0 00.81-.61 1.283 1.283 0 00-.334-1.66h-.001a6.622 6.622 0 01.95-1.54zm5.934 6.885a.584.584 0 111.168 0 .584.584 0 01-1.168 0zm0-13.109c0 .312.245.568.554.583h.061a.584.584 0 10-.615-.583zm-7.31 9.251a.588.588 0 00.23-.465.584.584 0 10-.23.465zm15.56-.484a.584.584 0 111.167.037.584.584 0 01-1.168-.037z" class="stroke_10" clip-rule="evenodd"/>
          <path fill="#2C2C2C" fill-rule="evenodd" d="M47.413 32.901c-1.657-2.02-3.812-3.758-5.85-5.243l.001-.09a1.753 1.753 0 10-3.502.09c-2.04 1.486-4.194 3.224-5.85 5.243a8.016 8.016 0 00-1.098 1.759 1.753 1.753 0 00-.646 3.063 5.452 5.452 0 001.597 3.717c2.08 2.111 4.902 2.01 7.052.847a1.749 1.749 0 001.39 0c2.15 1.163 4.973 1.264 7.053-.847a5.452 5.452 0 001.596-3.717 1.753 1.753 0 00-.646-3.063 8.02 8.02 0 00-1.097-1.759zm.768 2.174a7.46 7.46 0 00-1.129-1.877c-1.68-2.047-3.894-3.811-5.991-5.326a1.285 1.285 0 10-2.498 0c-2.097 1.515-4.311 3.28-5.99 5.326a7.552 7.552 0 00-1.13 1.877 1.286 1.286 0 00-.51 2.4 4.985 4.985 0 001.465 3.638c1.963 1.992 4.666 1.848 6.712.64a1.28 1.28 0 001.405 0c2.046 1.208 4.748 1.352 6.712-.64a4.985 4.985 0 001.465-3.639 1.283 1.283 0 00.654-1.12 1.286 1.286 0 00-1.165-1.28z" class="stroke 2_10" clip-rule="evenodd"/>
        </g>
      </g>
    </g>
  </g>
</svg>
