<svg xmlns="http://www.w3.org/2000/svg" width="80" height="111" fill="none" viewBox="0 0 80 111">
  <g class="ten_heart">
    <rect width="74.81" height="104.734" x=".394" y=".359" fill="#fff" rx="3.62"/>
    <rect width="78.991" height="110.588" x=".394" y=".359" fill="#fff" class="bg" rx="3.62"/>
    <g class="down">
      <g class="letter">
        <g class="10">
          <path fill="#222" fill-rule="evenodd" d="M68.856 99.88a4.08 4.08 0 11-8.161 0v-7.935a4.08 4.08 0 018.161 0v7.934zm-2.267.679a1.814 1.814 0 11-3.627 0v-9.294a1.814 1.814 0 013.627 0v9.294z" clip-rule="evenodd"/>
          <path fill="#222" d="M70.319 103.506h2.164V88.091H70.32v15.415z"/>
        </g>
      </g>
      <g class="symbol">
        <path fill="#F24E1E" d="M67.914 79.887c.707.863.875 2.068.1 2.856-.839.853-2.115.606-2.889-.181-.774.787-2.05 1.034-2.888.181-.775-.788-.608-1.993.1-2.856.763-.932 1.808-1.733 2.788-2.427.98.694 2.026 1.495 2.79 2.427z" class="♥ hearts"/>
      </g>
    </g>
    <g class="up">
      <g class="letter_2">
        <g class="10_2">
          <path fill="#222" fill-rule="evenodd" d="M7.648 7.16a4.08 4.08 0 018.161 0v7.935a4.08 4.08 0 11-8.161 0V7.16zm2.267-.68a1.814 1.814 0 013.627 0v9.295a1.813 1.813 0 11-3.627 0V6.48z" clip-rule="evenodd"/>
          <path fill="#222" d="M6.186 3.533H4.02v15.415h2.165V3.533z"/>
        </g>
      </g>
      <g class="symbol_2">
        <path fill="#F24E1E" d="M7.784 25.525c-.707-.863-.875-2.067-.1-2.856.839-.853 2.115-.606 2.889.182.774-.788 2.05-1.035 2.888-.182.775.789.608 1.993-.1 2.856-.763.932-1.808 1.733-2.788 2.428-.98-.695-2.026-1.496-2.79-2.428z" class="♥ hearts_2"/>
      </g>
    </g>
    <g class="icons">
      <g class="symbol_3">
        <g class="♥ hearts_3">
          <g class="fill">
            <path fill="#F24E1E" d="M33.054 37.958c-1.729-1.754-4.173-1.711-6.113-.597a1.43 1.43 0 01-1.384 1.778 1.427 1.427 0 01-1.384-1.779c-1.94-1.113-4.384-1.156-6.112.598-.89.902-1.3 2.014-1.325 3.168a1.428 1.428 0 01.527 2.52c.264.603.62 1.182 1.055 1.712 1.778 2.166 4.144 4.059 6.448 5.724a1.42 1.42 0 01.79-.238c.293 0 .565.088.791.239 2.305-1.666 4.671-3.558 6.45-5.725.434-.53.79-1.109 1.054-1.712a1.428 1.428 0 01.528-2.52c-.025-1.154-.437-2.266-1.325-3.168z"/>
            <path fill="#F24E1E" d="M25.164 38.227a.65.65 0 01.393-1.165.649.649 0 11-.393 1.165zM25.557 51.622l.034.001a.649.649 0 11-.034 0zM34.149 42.823a.646.646 0 01.177-.827.649.649 0 11-.177.827zM16.395 43.161a.649.649 0 100-1.297.649.649 0 000 1.297z"/>
          </g>
          <path fill="#fff" fill-rule="evenodd" d="M35.42 41.268c.013-1.438-.47-2.865-1.628-4.04-2.18-2.214-5.182-2.053-7.455-.712a1.42 1.42 0 00-.78-.233 1.42 1.42 0 00-.78.233c-2.272-1.34-5.274-1.502-7.455.712-1.158 1.175-1.64 2.602-1.627 4.04a1.427 1.427 0 00.567 2.666 8.36 8.36 0 001.254 2.085c1.865 2.272 4.324 4.232 6.653 5.914a1.427 1.427 0 102.774 0c2.33-1.682 4.79-3.642 6.655-5.914a8.362 8.362 0 001.254-2.085 1.428 1.428 0 00.567-2.666zm-8.479-3.907c1.94-1.114 4.384-1.157 6.113.597a4.543 4.543 0 011.325 3.168 1.428 1.428 0 00-.528 2.52 7.36 7.36 0 01-1.055 1.712c-1.778 2.167-4.144 4.06-6.449 5.725a1.421 1.421 0 00-1.58 0c-2.305-1.666-4.671-3.559-6.45-5.725a7.559 7.559 0 01-.557-.775 7.16 7.16 0 01-.497-.937 1.425 1.425 0 00.478-1.612 1.43 1.43 0 00-1.005-.908c.024-1.154.436-2.266 1.325-3.168 1.728-1.754 4.172-1.711 6.112-.597a1.43 1.43 0 001.384 1.778 1.427 1.427 0 001.384-1.778zm-1.777.866a.65.65 0 11.787-1.033.65.65 0 01-.787 1.033zm.427 13.396h-.034a.649.649 0 10.034 0zm8.558-8.8a.647.647 0 01.177-.827.649.649 0 11-.177.827zm-17.105-.31a.649.649 0 11-1.297 0 .649.649 0 011.297 0z" class="stroke" clip-rule="evenodd"/>
          <g class="stroke 2">
            <path fill="#F24E1E" d="M16.736 41.126zM24.173 37.36z"/>
            <path fill="#F24E1E" fill-rule="evenodd" d="M14.449 42.513c0-.616.286-1.164.73-1.52a6.054 6.054 0 011.773-4.13c2.31-2.344 5.445-2.231 7.833-.94a1.941 1.941 0 011.544 0c2.388-1.291 5.523-1.404 7.833.94a6.054 6.054 0 011.773 4.13 1.947 1.947 0 01-.718 3.402A8.903 8.903 0 0134 46.348c-1.84 2.243-4.234 4.174-6.498 5.823l.002.1a1.947 1.947 0 11-3.89-.1c-2.265-1.65-4.658-3.58-6.498-5.823a8.903 8.903 0 01-1.218-1.953 1.947 1.947 0 01-1.448-1.883zm2.873-5.285a5.536 5.536 0 00-1.624 3.789 6.209 6.209 0 00-.003.252 1.426 1.426 0 00-.727 1.244 1.428 1.428 0 001.294 1.42 8.253 8.253 0 001.254 2.086c1.865 2.272 4.324 4.232 6.653 5.914a1.427 1.427 0 102.774 0c2.33-1.682 4.79-3.642 6.655-5.914a8.38 8.38 0 001.254-2.085 1.428 1.428 0 00.567-2.665 5.536 5.536 0 00-1.627-4.04c-2.18-2.215-5.182-2.054-7.455-.713a1.42 1.42 0 00-1.56 0c-2.272-1.34-5.274-1.502-7.455.712z" clip-rule="evenodd"/>
          </g>
        </g>
      </g>
      <g class="symbol_4">
        <g class="♥ hearts_4">
          <g class="fill_2">
            <path fill="#F24E1E" d="M33.507 12.568c-1.728-1.754-4.173-1.711-6.112-.598a1.427 1.427 0 11-2.768 0c-1.94-1.113-4.385-1.156-6.113.598-.889.902-1.3 2.014-1.325 3.168a1.428 1.428 0 01.527 2.52c.264.603.62 1.183 1.055 1.712 1.778 2.166 4.144 4.059 6.449 5.724a1.42 1.42 0 011.58 0c2.305-1.665 4.672-3.558 6.45-5.724.434-.53.79-1.109 1.054-1.712a1.428 1.428 0 01.528-2.52c-.025-1.154-.436-2.266-1.325-3.168z"/>
            <path fill="#F24E1E" d="M25.617 12.837a.651.651 0 01.393-1.165.649.649 0 11-.393 1.165zM26.01 26.232l.034.001a.649.649 0 11-.034 0zM34.602 17.433a.646.646 0 01.177-.827.649.649 0 11-.177.827zM16.849 17.771a.649.649 0 100-1.297.649.649 0 000 1.297z"/>
          </g>
          <path fill="#fff" fill-rule="evenodd" d="M35.873 15.878c.013-1.438-.47-2.865-1.627-4.04-2.181-2.214-5.183-2.053-7.455-.712a1.421 1.421 0 00-1.56 0c-2.273-1.34-5.275-1.502-7.456.712-1.158 1.175-1.64 2.602-1.627 4.04a1.427 1.427 0 00.568 2.666c.311.75.74 1.458 1.253 2.084 1.866 2.273 4.325 4.232 6.654 5.915a1.428 1.428 0 102.774 0c2.33-1.682 4.789-3.642 6.654-5.915a8.36 8.36 0 001.254-2.084 1.428 1.428 0 00.568-2.666zm-8.478-3.907c1.94-1.114 4.384-1.157 6.112.597a4.543 4.543 0 011.325 3.168 1.428 1.428 0 00-.528 2.52 7.36 7.36 0 01-1.054 1.712c-1.778 2.166-4.145 4.06-6.45 5.725a1.421 1.421 0 00-1.58 0c-2.305-1.666-4.671-3.559-6.449-5.725a7.555 7.555 0 01-.558-.775 7.173 7.173 0 01-.497-.937 1.425 1.425 0 00.478-1.612 1.43 1.43 0 00-1.005-.908c.024-1.154.436-2.266 1.325-3.168 1.728-1.754 4.173-1.711 6.112-.598a1.431 1.431 0 00.07.907 1.428 1.428 0 002.699-.906zm-1.778.866a.65.65 0 11.787-1.033.65.65 0 01-.787 1.033zm.427 13.396a.649.649 0 10-.07 1.296.649.649 0 00.07-1.296zm8.558-8.8a.646.646 0 01.177-.827.649.649 0 11-.177.827zm-17.104-.31a.649.649 0 11-1.298 0 .649.649 0 011.298 0z" class="stroke_2" clip-rule="evenodd"/>
          <g class="stroke 2_2">
            <path fill="#F24E1E" d="M17.189 15.736zM24.626 11.97z"/>
            <path fill="#F24E1E" fill-rule="evenodd" d="M14.902 17.122c0-.615.286-1.163.73-1.52a6.054 6.054 0 011.773-4.128c2.31-2.345 5.445-2.232 7.833-.94a1.942 1.942 0 011.545 0c2.388-1.292 5.523-1.405 7.832.94a6.054 6.054 0 011.773 4.129 1.947 1.947 0 01-.718 3.402 8.906 8.906 0 01-1.217 1.953c-1.841 2.243-4.234 4.174-6.5 5.823.003.033.003.067.003.1a1.946 1.946 0 11-3.89-.1c-2.264-1.65-4.657-3.58-6.498-5.823a8.899 8.899 0 01-1.218-1.953 1.947 1.947 0 01-1.448-1.883zm2.873-5.284a5.536 5.536 0 00-1.624 3.789 6.029 6.029 0 00-.003.251 1.426 1.426 0 00-.727 1.244 1.428 1.428 0 001.295 1.422 8.256 8.256 0 001.253 2.084c1.866 2.273 4.325 4.232 6.654 5.915a1.429 1.429 0 001.387 1.766 1.427 1.427 0 001.387-1.765c2.33-1.683 4.789-3.643 6.654-5.916a8.38 8.38 0 001.254-2.084 1.428 1.428 0 00.567-2.666 5.536 5.536 0 00-1.627-4.04c-2.18-2.214-5.182-2.053-7.454-.713a1.421 1.421 0 00-1.56 0c-2.273-1.34-5.275-1.5-7.456.713z" clip-rule="evenodd"/>
          </g>
        </g>
      </g>
      <g class="symbol_5">
        <g class="♥ hearts_5">
          <g class="fill_3">
            <path fill="#F24E1E" d="M58.444 70.215c-1.729 1.754-4.173 1.711-6.113.597a1.43 1.43 0 00-1.384-1.778 1.427 1.427 0 00-1.384 1.778c-1.94 1.114-4.384 1.157-6.112-.597-.89-.902-1.3-2.015-1.325-3.168a1.428 1.428 0 00.527-2.52 7.357 7.357 0 011.055-1.712c1.778-2.166 4.144-4.059 6.448-5.724.227.15.498.238.79.238.293 0 .565-.088.791-.239 2.305 1.666 4.671 3.558 6.45 5.724a7.36 7.36 0 011.054 1.713 1.428 1.428 0 00.528 2.52c-.025 1.153-.437 2.266-1.325 3.168z"/>
            <path fill="#F24E1E" d="M50.554 69.946a.65.65 0 00.393 1.165.649.649 0 10-.393-1.165zM50.947 56.55h.034a.649.649 0 10-.034 0zM59.539 65.35a.646.646 0 00.177.827.649.649 0 10-.177-.827zM41.785 65.011a.649.649 0 110 1.298.649.649 0 010-1.297z"/>
          </g>
          <path fill="#fff" fill-rule="evenodd" d="M60.81 66.904c.013 1.44-.47 2.866-1.628 4.04-2.18 2.215-5.182 2.054-7.455.713a1.421 1.421 0 01-1.56 0c-2.272 1.34-5.274 1.502-7.455-.712-1.158-1.175-1.64-2.602-1.627-4.04a1.427 1.427 0 01.567-2.666c.312-.75.74-1.458 1.254-2.085 1.865-2.272 4.324-4.232 6.654-5.914a1.429 1.429 0 011.387-1.766 1.427 1.427 0 011.387 1.765c2.33 1.683 4.789 3.643 6.654 5.915a8.36 8.36 0 011.254 2.085 1.428 1.428 0 01.567 2.665zm-8.479 3.908c1.94 1.114 4.384 1.157 6.113-.597a4.543 4.543 0 001.325-3.168 1.428 1.428 0 01-.528-2.52 7.36 7.36 0 00-1.055-1.712c-1.778-2.167-4.144-4.06-6.449-5.725a1.421 1.421 0 01-1.58 0c-2.305 1.666-4.671 3.558-6.449 5.724-.204.249-.39.508-.558.776-.19.303-.357.617-.497.937a1.425 1.425 0 01.478 1.612 1.43 1.43 0 01-1.005.908c.024 1.153.436 2.266 1.325 3.168 1.728 1.754 4.172 1.711 6.112.597a1.43 1.43 0 011.384-1.778 1.427 1.427 0 011.384 1.778zm-1.777-.866a.649.649 0 10.786 1.032.649.649 0 00-.786-1.032zm.427-13.396a.649.649 0 11-.07-1.296.649.649 0 01.07 1.296zm8.558 8.8a.646.646 0 00.177.827.649.649 0 10-.177-.827zm-17.105.31a.649.649 0 10-1.297 0 .649.649 0 001.297 0z" class="stroke_3" clip-rule="evenodd"/>
          <g class="stroke 2_3">
            <path fill="#F24E1E" d="M42.126 67.047zM49.563 70.812z"/>
            <path fill="#F24E1E" fill-rule="evenodd" d="M39.839 65.66c0 .616.286 1.164.73 1.52a6.054 6.054 0 001.773 4.13c2.31 2.344 5.445 2.231 7.833.939a1.94 1.94 0 001.544 0c2.388 1.292 5.523 1.405 7.833-.94a6.055 6.055 0 001.773-4.129 1.947 1.947 0 00-.718-3.402 8.906 8.906 0 00-1.218-1.953c-1.84-2.243-4.234-4.174-6.498-5.823l.002-.1a1.946 1.946 0 10-3.89.1c-2.265 1.65-4.658 3.58-6.498 5.823a8.899 8.899 0 00-1.218 1.953c-.834.22-1.448.98-1.448 1.882zm2.873 5.285a5.536 5.536 0 01-1.624-3.789 6.209 6.209 0 01-.003-.252 1.426 1.426 0 01-.727-1.244 1.428 1.428 0 011.294-1.421 8.256 8.256 0 011.254-2.085c1.865-2.272 4.324-4.232 6.654-5.914a1.429 1.429 0 011.387-1.766 1.427 1.427 0 011.387 1.765c2.33 1.683 4.789 3.643 6.654 5.915a8.38 8.38 0 011.254 2.085 1.428 1.428 0 01.567 2.665 5.536 5.536 0 01-1.627 4.04c-2.18 2.215-5.182 2.054-7.455.713a1.421 1.421 0 01-1.56 0c-2.272 1.34-5.274 1.502-7.455-.712z" clip-rule="evenodd"/>
          </g>
        </g>
      </g>
      <g class="symbol_6">
        <g class="♥ hearts_6">
          <g class="fill_4">
            <path fill="#F24E1E" d="M32.6 69.308c-1.728 1.754-4.173 1.711-6.112.597a1.427 1.427 0 10-2.768 0c-1.94 1.114-4.384 1.157-6.113-.597-.889-.902-1.3-2.014-1.325-3.168a1.428 1.428 0 00.528-2.52 7.355 7.355 0 011.055-1.712c1.777-2.166 4.143-4.059 6.448-5.724.226.15.498.238.79.238.293 0 .565-.088.791-.239 2.305 1.666 4.671 3.559 6.449 5.725.435.53.791 1.109 1.055 1.712a1.428 1.428 0 00.527 2.52c-.024 1.154-.436 2.266-1.325 3.168z"/>
            <path fill="#F24E1E" d="M24.71 69.039a.65.65 0 00.393 1.165.649.649 0 10-.393-1.165zM25.103 55.644a.649.649 0 100-1.298.649.649 0 000 1.298zM33.695 64.443a.646.646 0 00.177.827.649.649 0 10-.177-.827zM15.942 64.105a.649.649 0 110 1.297.649.649 0 010-1.297z"/>
          </g>
          <path fill="#fff" fill-rule="evenodd" d="M34.966 65.998c.013 1.438-.47 2.865-1.627 4.04-2.18 2.214-5.183 2.053-7.455.713a1.422 1.422 0 01-1.56 0c-2.273 1.34-5.275 1.5-7.456-.713-1.157-1.175-1.64-2.602-1.626-4.04a1.427 1.427 0 01.567-2.666 8.36 8.36 0 011.254-2.084c1.865-2.273 4.324-4.232 6.653-5.915a1.427 1.427 0 112.774 0c2.33 1.682 4.79 3.642 6.655 5.915a8.358 8.358 0 011.254 2.084 1.428 1.428 0 01.567 2.666zm-8.478 3.907c1.94 1.114 4.384 1.157 6.112-.597a4.543 4.543 0 001.325-3.168 1.428 1.428 0 01-.527-2.52 7.358 7.358 0 00-1.055-1.712c-1.778-2.166-4.144-4.06-6.449-5.725a1.421 1.421 0 01-1.581 0c-2.304 1.666-4.67 3.559-6.448 5.725-.204.248-.39.507-.559.775-.19.303-.356.617-.496.937a1.425 1.425 0 01.478 1.612 1.43 1.43 0 01-1.006.908c.025 1.153.436 2.266 1.325 3.168 1.729 1.754 4.173 1.711 6.113.597a1.43 1.43 0 011.384-1.777 1.427 1.427 0 011.384 1.778zm-1.777-.866a.65.65 0 10.787 1.033.65.65 0 00-.788-1.033zm.427-13.396a.649.649 0 11-.07-1.296.649.649 0 01.07 1.296zm8.557 8.8a.646.646 0 00.177.827.649.649 0 10-.177-.827zm-17.104.31a.649.649 0 10-1.298 0 .649.649 0 001.298 0z" class="stroke_4" clip-rule="evenodd"/>
          <g class="stroke 2_4">
            <path fill="#F24E1E" d="M16.282 66.14zM23.72 69.906z"/>
            <path fill="#F24E1E" fill-rule="evenodd" d="M13.996 64.754c0 .615.285 1.163.73 1.52a6.054 6.054 0 001.773 4.128c2.31 2.345 5.445 2.232 7.832.94a1.941 1.941 0 001.545 0c2.388 1.292 5.523 1.405 7.833-.94a6.054 6.054 0 001.773-4.129 1.947 1.947 0 00-.718-3.402 8.899 8.899 0 00-1.218-1.953c-1.84-2.242-4.234-4.174-6.499-5.823a1.947 1.947 0 10-3.888 0c-2.264 1.65-4.657 3.58-6.497 5.823a8.902 8.902 0 00-1.219 1.954c-.833.22-1.447.979-1.447 1.882zm2.872 5.284a5.536 5.536 0 01-1.624-3.789 6.21 6.21 0 01-.002-.251 1.426 1.426 0 01-.727-1.244 1.428 1.428 0 011.294-1.422 8.38 8.38 0 011.254-2.085c1.865-2.272 4.324-4.231 6.653-5.914a1.427 1.427 0 112.774 0c2.33 1.682 4.79 3.642 6.655 5.915a8.38 8.38 0 011.254 2.084 1.428 1.428 0 01.567 2.665c0 .085 0 .168-.003.252a5.536 5.536 0 01-1.624 3.79c-2.18 2.213-5.183 2.052-7.455.712a1.422 1.422 0 01-1.56 0c-2.273 1.34-5.275 1.5-7.456-.713z" clip-rule="evenodd"/>
          </g>
        </g>
      </g>
      <g class="symbol_7">
        <g class="♥ hearts_7">
          <g class="fill_5">
            <path fill="#F24E1E" d="M48.469 83.817c-1.728 1.754-4.173 1.711-6.113.597a1.43 1.43 0 00-1.384-1.778 1.427 1.427 0 00-1.384 1.778c-1.94 1.114-4.384 1.157-6.112-.597-.889-.903-1.3-2.015-1.325-3.168a1.428 1.428 0 00.527-2.52 7.357 7.357 0 011.055-1.713c1.778-2.166 4.144-4.058 6.449-5.724a1.42 1.42 0 001.581 0c2.304 1.666 4.67 3.558 6.449 5.724.434.53.79 1.11 1.054 1.713a1.428 1.428 0 00.527 2.52c-.024 1.153-.435 2.265-1.324 3.168z"/>
            <path fill="#F24E1E" d="M40.58 83.548a.65.65 0 00.393 1.165.649.649 0 10-.394-1.165zM40.972 70.152h.035a.649.649 0 10-.035 0zM49.564 78.952a.647.647 0 00.177.826.649.649 0 10-.177-.827zM31.81 78.613a.649.649 0 110 1.298.649.649 0 010-1.298z"/>
          </g>
          <path fill="#fff" fill-rule="evenodd" d="M50.834 80.506c.014 1.44-.468 2.865-1.626 4.04-2.181 2.214-5.183 2.053-7.455.713a1.42 1.42 0 01-1.56 0c-2.273 1.34-5.275 1.501-7.456-.712-1.158-1.176-1.64-2.602-1.627-4.04a1.427 1.427 0 01.568-2.666c.311-.75.74-1.458 1.253-2.085 1.866-2.272 4.325-4.232 6.654-5.914a1.429 1.429 0 011.387-1.766 1.427 1.427 0 011.387 1.765c2.33 1.683 4.789 3.642 6.654 5.915a8.36 8.36 0 011.254 2.085 1.428 1.428 0 01.567 2.665zm-8.478 3.908c1.94 1.114 4.385 1.157 6.113-.597a4.543 4.543 0 001.325-3.168 1.428 1.428 0 01-.528-2.52 7.36 7.36 0 00-1.054-1.713c-1.778-2.166-4.145-4.058-6.45-5.724a1.421 1.421 0 01-1.58 0c-2.305 1.666-4.671 3.558-6.449 5.724-.204.249-.39.508-.558.776a7.16 7.16 0 00-.496.937 1.425 1.425 0 01.477 1.611 1.43 1.43 0 01-1.005.909c.024 1.153.436 2.265 1.325 3.168 1.728 1.754 4.173 1.711 6.112.597a1.43 1.43 0 011.384-1.778 1.427 1.427 0 011.384 1.778zm-1.777-.866a.649.649 0 10.786 1.032.649.649 0 00-.786-1.032zm.428-13.397l-.035.001a.649.649 0 11.035 0zm8.557 8.8a.646.646 0 00.177.828.649.649 0 10-.177-.827zm-17.104.311a.649.649 0 10-1.298 0 .649.649 0 001.298 0z" class="stroke_5" clip-rule="evenodd"/>
          <g class="stroke 2_5">
            <path fill="#F24E1E" d="M32.151 80.649zM39.588 84.414z"/>
            <path fill="#F24E1E" fill-rule="evenodd" d="M29.864 79.262c0 .615.286 1.164.73 1.52a6.054 6.054 0 001.773 4.129c2.31 2.345 5.445 2.232 7.833.94a1.94 1.94 0 001.545 0c2.388 1.292 5.523 1.405 7.833-.94a6.054 6.054 0 001.772-4.13 1.947 1.947 0 00-.717-3.402 8.903 8.903 0 00-1.218-1.952c-1.841-2.243-4.234-4.174-6.5-5.823a1.947 1.947 0 10-3.888 0c-2.263 1.65-4.656 3.58-6.497 5.823a8.903 8.903 0 00-1.218 1.953c-.834.22-1.448.98-1.448 1.882zm2.873 5.285a5.536 5.536 0 01-1.624-3.79 6.206 6.206 0 01-.003-.25 1.426 1.426 0 01-.727-1.244 1.428 1.428 0 011.295-1.422 8.253 8.253 0 011.253-2.085c1.866-2.272 4.325-4.232 6.654-5.914a1.429 1.429 0 011.387-1.766 1.427 1.427 0 011.387 1.765c2.33 1.683 4.789 3.642 6.654 5.915a8.38 8.38 0 011.254 2.085 1.428 1.428 0 01.567 2.665 5.536 5.536 0 01-1.627 4.04c-2.18 2.215-5.182 2.054-7.454.713a1.42 1.42 0 01-1.56 0c-2.273 1.34-5.275 1.501-7.456-.712z" clip-rule="evenodd"/>
          </g>
        </g>
      </g>
      <g class="symbol_8">
        <g class="♥ hearts_8">
          <g class="fill_6">
            <path fill="#F24E1E" d="M58.444 95.605c-1.729 1.754-4.173 1.711-6.113.597a1.43 1.43 0 00-1.384-1.778 1.427 1.427 0 00-1.384 1.778c-1.94 1.114-4.384 1.157-6.112-.597-.89-.902-1.3-2.015-1.325-3.168a1.428 1.428 0 00.527-2.52 7.357 7.357 0 011.055-1.713c1.778-2.165 4.144-4.058 6.448-5.723.227.15.498.238.79.238.293 0 .565-.088.791-.239 2.305 1.666 4.671 3.558 6.45 5.724a7.36 7.36 0 011.054 1.713 1.428 1.428 0 00.528 2.52c-.025 1.153-.437 2.266-1.325 3.168z"/>
            <path fill="#F24E1E" d="M50.554 95.336a.65.65 0 00.393 1.165.649.649 0 10-.393-1.165zM50.947 81.94h.034a.649.649 0 10-.034 0zM59.539 90.74a.646.646 0 00.177.827.649.649 0 10-.177-.827zM41.785 90.401a.649.649 0 110 1.298.649.649 0 010-1.297z"/>
          </g>
          <path fill="#fff" fill-rule="evenodd" d="M60.81 92.294c.013 1.44-.47 2.866-1.628 4.04-2.18 2.215-5.182 2.054-7.455.713a1.42 1.42 0 01-.78.232 1.42 1.42 0 01-.78-.232c-2.272 1.34-5.274 1.502-7.455-.712-1.158-1.175-1.64-2.602-1.627-4.04a1.427 1.427 0 01.567-2.666 8.36 8.36 0 011.254-2.085c1.865-2.272 4.324-4.232 6.654-5.914a1.428 1.428 0 112.774 0c2.33 1.682 4.789 3.642 6.654 5.914a8.357 8.357 0 011.254 2.085 1.428 1.428 0 01.567 2.665zm-8.479 3.908c1.94 1.114 4.384 1.157 6.113-.597a4.543 4.543 0 001.325-3.168 1.428 1.428 0 01-.528-2.52 7.358 7.358 0 00-1.055-1.713c-1.778-2.166-4.144-4.058-6.449-5.724a1.421 1.421 0 01-1.58 0c-2.305 1.666-4.671 3.558-6.449 5.724-.204.249-.39.508-.558.776-.19.303-.357.617-.497.937a1.425 1.425 0 01.478 1.612 1.43 1.43 0 01-1.005.908c.024 1.153.436 2.266 1.325 3.168 1.728 1.754 4.172 1.711 6.112.597a1.43 1.43 0 011.384-1.778 1.427 1.427 0 011.384 1.778zm-1.777-.866a.65.65 0 10.787 1.033.65.65 0 00-.787-1.033zm.427-13.396a.649.649 0 11-.07-1.296.649.649 0 01.07 1.296zm8.558 8.8a.646.646 0 00.177.827.649.649 0 10-.177-.827zm-17.105.31a.649.649 0 10-1.297 0 .649.649 0 001.297 0z" class="stroke_6" clip-rule="evenodd"/>
          <g class="stroke 2_6">
            <path fill="#F24E1E" d="M42.126 92.437zM49.563 96.202z"/>
            <path fill="#F24E1E" fill-rule="evenodd" d="M39.839 91.05c0 .616.286 1.164.73 1.52a6.054 6.054 0 001.773 4.13c2.31 2.344 5.445 2.231 7.833.939a1.94 1.94 0 001.544 0c2.388 1.292 5.523 1.405 7.833-.94a6.055 6.055 0 001.773-4.129 1.947 1.947 0 00-.718-3.402 8.906 8.906 0 00-1.218-1.953c-1.84-2.243-4.234-4.174-6.498-5.823l.002-.1a1.946 1.946 0 10-3.89.1c-2.265 1.65-4.658 3.58-6.498 5.823a8.899 8.899 0 00-1.218 1.953c-.834.22-1.448.98-1.448 1.882zm2.873 5.285a5.536 5.536 0 01-1.624-3.789 6.209 6.209 0 01-.003-.252 1.426 1.426 0 01-.727-1.244 1.428 1.428 0 011.294-1.421 8.256 8.256 0 011.254-2.085c1.865-2.272 4.324-4.232 6.654-5.914a1.428 1.428 0 112.774 0c2.33 1.682 4.789 3.642 6.654 5.914a8.38 8.38 0 011.254 2.085 1.428 1.428 0 01.567 2.665 5.536 5.536 0 01-1.627 4.04c-2.18 2.215-5.182 2.054-7.455.713a1.42 1.42 0 01-.78.232 1.42 1.42 0 01-.78-.232c-2.272 1.34-5.274 1.502-7.455-.712z" clip-rule="evenodd"/>
          </g>
        </g>
      </g>
      <g class="symbol_9">
        <g class="♥ hearts_9">
          <g class="fill_7">
            <path fill="#F24E1E" d="M32.6 95.151c-1.728 1.755-4.173 1.712-6.112.598a1.427 1.427 0 10-2.768 0c-1.94 1.114-4.384 1.157-6.113-.597-.889-.903-1.3-2.015-1.325-3.168a1.428 1.428 0 00.528-2.52 7.355 7.355 0 011.055-1.713c1.777-2.166 4.143-4.058 6.448-5.724a1.421 1.421 0 001.581 0c2.305 1.665 4.671 3.558 6.449 5.724.435.53.791 1.11 1.055 1.712a1.428 1.428 0 00.527 2.52c-.024 1.154-.436 2.266-1.325 3.169z"/>
            <path fill="#F24E1E" d="M24.71 94.882a.651.651 0 00.393 1.165.649.649 0 10-.393-1.165zM25.103 81.487a.649.649 0 100-1.298.649.649 0 000 1.298zM33.695 90.287a.646.646 0 00.177.826.649.649 0 10-.177-.827zM15.942 89.948a.649.649 0 110 1.298.649.649 0 010-1.298z"/>
          </g>
          <path fill="#fff" fill-rule="evenodd" d="M34.966 91.841c.013 1.439-.47 2.865-1.627 4.04-2.18 2.214-5.183 2.053-7.455.713a1.42 1.42 0 01-1.56 0c-2.273 1.34-5.275 1.501-7.456-.712-1.157-1.176-1.64-2.602-1.626-4.04a1.427 1.427 0 01.567-2.666c.312-.75.74-1.458 1.254-2.085 1.865-2.273 4.324-4.232 6.653-5.914a1.427 1.427 0 112.774 0c2.33 1.682 4.79 3.641 6.655 5.914a8.36 8.36 0 011.254 2.085 1.428 1.428 0 01.567 2.665zm-8.478 3.908c1.94 1.114 4.384 1.157 6.112-.597a4.543 4.543 0 001.325-3.168 1.428 1.428 0 01-.527-2.52 7.358 7.358 0 00-1.055-1.713c-1.778-2.166-4.144-4.059-6.449-5.724a1.42 1.42 0 01-.79.239c-.293 0-.565-.088-.791-.239-2.304 1.666-4.67 3.558-6.448 5.724-.204.249-.39.508-.559.775-.19.303-.356.617-.496.938a1.425 1.425 0 01.478 1.611 1.43 1.43 0 01-1.006.909c.025 1.153.436 2.265 1.325 3.168 1.729 1.754 4.173 1.71 6.113.597a1.43 1.43 0 011.384-1.778 1.427 1.427 0 011.384 1.778zm-1.777-.867a.65.65 0 10.786 1.033.65.65 0 00-.787-1.033zm.427-13.396a.649.649 0 11-.07-1.296.649.649 0 01.07 1.296zm8.557 8.8a.646.646 0 00.177.827.649.649 0 10-.177-.827zm-17.104.311a.649.649 0 10-1.298 0 .649.649 0 001.298 0z" class="stroke_7" clip-rule="evenodd"/>
          <g class="stroke 2_7">
            <path fill="#F24E1E" d="M16.282 91.984zM23.72 95.749z"/>
            <path fill="#F24E1E" fill-rule="evenodd" d="M13.996 90.597c0 .615.285 1.163.73 1.52a6.055 6.055 0 001.773 4.129c2.31 2.345 5.445 2.232 7.832.94a1.943 1.943 0 001.545 0c2.388 1.292 5.523 1.404 7.833-.94a6.055 6.055 0 001.773-4.13 1.947 1.947 0 00-.718-3.402 8.903 8.903 0 00-1.218-1.952c-1.84-2.243-4.234-4.174-6.499-5.824a1.947 1.947 0 10-3.888 0c-2.264 1.65-4.657 3.581-6.497 5.824a8.907 8.907 0 00-1.219 1.953c-.833.22-1.447.98-1.447 1.882zm2.872 5.285a5.536 5.536 0 01-1.624-3.79 6.206 6.206 0 01-.002-.25 1.426 1.426 0 01.567-2.665 8.38 8.38 0 011.254-2.085c1.865-2.274 4.324-4.233 6.653-5.915a1.427 1.427 0 112.774 0c2.33 1.682 4.79 3.641 6.655 5.914a8.38 8.38 0 011.254 2.085 1.428 1.428 0 01.567 2.665c0 .084 0 .168-.003.252a5.536 5.536 0 01-1.624 3.789c-2.18 2.213-5.183 2.052-7.455.712a1.42 1.42 0 01-1.56 0c-2.273 1.34-5.275 1.501-7.456-.712z" clip-rule="evenodd"/>
          </g>
        </g>
      </g>
      <g class="symbol_10">
        <g class="♥ hearts_10">
          <g class="fill_8">
            <path fill="#F24E1E" d="M58.444 37.958c-1.729-1.754-4.173-1.711-6.113-.597a1.43 1.43 0 01-1.384 1.778 1.427 1.427 0 01-1.384-1.779c-1.94-1.113-4.384-1.156-6.112.598-.89.902-1.3 2.014-1.325 3.168a1.428 1.428 0 01.527 2.52c.264.603.62 1.182 1.055 1.712 1.778 2.166 4.144 4.059 6.448 5.724a1.42 1.42 0 01.79-.238c.293 0 .565.088.791.239 2.305-1.666 4.671-3.558 6.45-5.725.434-.53.79-1.109 1.054-1.712a1.428 1.428 0 01.528-2.52c-.025-1.154-.437-2.266-1.325-3.168z"/>
            <path fill="#F24E1E" d="M50.554 38.227a.65.65 0 01.393-1.165.649.649 0 11-.393 1.165zM50.947 51.622l.034.001a.649.649 0 11-.034 0zM59.539 42.823a.646.646 0 01.177-.827.649.649 0 11-.177.827zM41.785 43.161a.649.649 0 100-1.297.649.649 0 000 1.297z"/>
          </g>
          <path fill="#fff" fill-rule="evenodd" d="M60.81 41.268c.013-1.438-.47-2.865-1.628-4.04-2.18-2.214-5.182-2.053-7.455-.712a1.421 1.421 0 00-1.56 0c-2.272-1.34-5.274-1.502-7.455.712-1.158 1.175-1.64 2.602-1.627 4.04a1.427 1.427 0 00.567 2.666c.312.75.74 1.458 1.254 2.085 1.865 2.272 4.324 4.232 6.654 5.914a1.429 1.429 0 001.387 1.766 1.427 1.427 0 001.387-1.765c2.33-1.683 4.789-3.643 6.654-5.915a8.36 8.36 0 001.254-2.085 1.428 1.428 0 00.567-2.666zm-8.479-3.907c1.94-1.114 4.384-1.157 6.113.597a4.543 4.543 0 011.325 3.168 1.428 1.428 0 00-.528 2.52 7.36 7.36 0 01-1.055 1.712c-1.778 2.167-4.144 4.06-6.449 5.725a1.421 1.421 0 00-1.58 0c-2.305-1.666-4.671-3.559-6.449-5.725a7.544 7.544 0 01-.558-.775 7.173 7.173 0 01-.497-.937 1.425 1.425 0 00.478-1.612 1.43 1.43 0 00-1.005-.908c.024-1.154.436-2.266 1.325-3.168 1.728-1.754 4.172-1.711 6.112-.597a1.43 1.43 0 001.384 1.778 1.427 1.427 0 001.384-1.778zm-1.777.866a.649.649 0 11.786-1.033.649.649 0 01-.786 1.033zm.427 13.396a.649.649 0 10-.07 1.296.649.649 0 00.07-1.296zm8.558-8.8a.646.646 0 01.177-.827.649.649 0 11-.177.827zm-17.105-.31a.649.649 0 11-1.297 0 .649.649 0 011.297 0z" class="stroke_8" clip-rule="evenodd"/>
          <g class="stroke 2_8">
            <path fill="#F24E1E" d="M42.126 41.126zM49.563 37.36z"/>
            <path fill="#F24E1E" fill-rule="evenodd" d="M39.839 42.513c0-.616.286-1.164.73-1.52a6.054 6.054 0 011.773-4.13c2.31-2.344 5.445-2.231 7.833-.94a1.94 1.94 0 011.544 0c2.388-1.291 5.523-1.404 7.833.94a6.054 6.054 0 011.773 4.13 1.947 1.947 0 01-.718 3.402 8.906 8.906 0 01-1.218 1.953c-1.84 2.243-4.234 4.174-6.498 5.823l.002.1a1.946 1.946 0 11-3.89-.1c-2.265-1.65-4.658-3.58-6.498-5.823a8.899 8.899 0 01-1.218-1.953 1.947 1.947 0 01-1.448-1.883zm2.873-5.285a5.536 5.536 0 00-1.624 3.789 6.209 6.209 0 00-.003.252 1.426 1.426 0 00-.727 1.244 1.428 1.428 0 001.294 1.42 8.256 8.256 0 001.254 2.086c1.865 2.272 4.324 4.232 6.654 5.914a1.429 1.429 0 001.387 1.766 1.427 1.427 0 001.387-1.765c2.33-1.683 4.789-3.643 6.654-5.915a8.38 8.38 0 001.254-2.085 1.428 1.428 0 00.567-2.665 5.536 5.536 0 00-1.627-4.04c-2.18-2.215-5.182-2.054-7.455-.713a1.421 1.421 0 00-1.56 0c-2.272-1.34-5.274-1.502-7.455.712z" clip-rule="evenodd"/>
          </g>
        </g>
      </g>
      <g class="symbol_11">
        <g class="♥ hearts_11">
          <g class="fill_9">
            <path fill="#F24E1E" d="M58.444 10.755C56.715 9 54.27 9.043 52.33 10.156a1.43 1.43 0 01-1.384 1.778 1.427 1.427 0 01-1.384-1.778c-1.94-1.114-4.384-1.157-6.112.598-.89.902-1.3 2.014-1.325 3.167a1.428 1.428 0 01.527 2.52c.264.604.62 1.183 1.055 1.713 1.778 2.166 4.144 4.058 6.448 5.724a1.42 1.42 0 01.79-.239c.293 0 .565.088.791.24 2.305-1.666 4.671-3.56 6.45-5.725.434-.53.79-1.11 1.054-1.713a1.428 1.428 0 01.528-2.52c-.025-1.153-.437-2.265-1.325-3.167z"/>
            <path fill="#F24E1E" d="M50.554 11.024a.65.65 0 01.393-1.165.649.649 0 11-.393 1.165zM50.947 24.419h.034a.649.649 0 11-.034 0zM59.539 15.62a.646.646 0 01.177-.827.649.649 0 11-.177.827zM41.785 15.958a.649.649 0 100-1.298.649.649 0 000 1.298z"/>
          </g>
          <path fill="#fff" fill-rule="evenodd" d="M60.81 14.065c.013-1.439-.47-2.865-1.628-4.04-2.18-2.214-5.182-2.053-7.455-.713a1.421 1.421 0 00-1.56 0c-2.272-1.34-5.274-1.501-7.455.712-1.158 1.176-1.64 2.602-1.627 4.04a1.427 1.427 0 00.567 2.666c.312.75.74 1.458 1.254 2.085 1.865 2.272 4.324 4.232 6.654 5.914a1.429 1.429 0 001.387 1.766 1.427 1.427 0 001.387-1.765c2.33-1.683 4.789-3.642 6.654-5.915a8.36 8.36 0 001.254-2.085 1.428 1.428 0 00.567-2.665zm-8.479-3.908c1.94-1.114 4.384-1.157 6.113.598a4.543 4.543 0 011.325 3.167 1.428 1.428 0 00-.528 2.52 7.36 7.36 0 01-1.055 1.713c-1.778 2.166-4.144 4.059-6.449 5.724a1.421 1.421 0 00-1.58 0c-2.305-1.666-4.671-3.558-6.449-5.724a7.544 7.544 0 01-.558-.776 7.173 7.173 0 01-.497-.937 1.425 1.425 0 00.478-1.611 1.43 1.43 0 00-1.005-.909c.024-1.153.436-2.265 1.325-3.168 1.728-1.754 4.172-1.71 6.112-.597a1.43 1.43 0 001.384 1.778 1.427 1.427 0 001.384-1.778zm-1.777.867a.649.649 0 11.786-1.033.649.649 0 01-.786 1.033zm.427 13.396a.649.649 0 10-.07 1.296.649.649 0 00.07-1.296zm8.558-8.8a.646.646 0 01.177-.827.649.649 0 11-.177.827zm-17.105-.311a.649.649 0 11-1.297 0 .649.649 0 011.297 0z" class="stroke_9" clip-rule="evenodd"/>
          <g class="stroke 2_9">
            <path fill="#F24E1E" d="M42.126 13.922zM49.563 10.157z"/>
            <path fill="#F24E1E" fill-rule="evenodd" d="M39.839 15.309c0-.615.286-1.164.73-1.52a6.055 6.055 0 011.773-4.129c2.31-2.345 5.445-2.232 7.833-.94a1.942 1.942 0 011.544 0c2.388-1.292 5.523-1.405 7.833.94a6.055 6.055 0 011.773 4.13 1.947 1.947 0 01-.718 3.402 8.906 8.906 0 01-1.218 1.952c-1.84 2.243-4.234 4.174-6.498 5.824l.002.1a1.946 1.946 0 11-3.89-.101c-2.265-1.65-4.658-3.58-6.498-5.823a8.899 8.899 0 01-1.218-1.953 1.947 1.947 0 01-1.448-1.882zm2.873-5.285a5.536 5.536 0 00-1.624 3.79 6.209 6.209 0 00-.003.25 1.426 1.426 0 00-.727 1.244 1.428 1.428 0 001.294 1.422 8.256 8.256 0 001.254 2.085c1.865 2.272 4.324 4.232 6.654 5.914a1.429 1.429 0 001.387 1.766 1.427 1.427 0 001.387-1.765c2.33-1.683 4.789-3.642 6.654-5.915a8.38 8.38 0 001.254-2.085 1.428 1.428 0 00.567-2.665 5.536 5.536 0 00-1.627-4.04C57.002 7.81 54 7.971 51.727 9.311a1.421 1.421 0 00-1.56 0c-2.272-1.34-5.274-1.501-7.455.712z" clip-rule="evenodd"/>
          </g>
        </g>
      </g>
      <g class="symbol_12">
        <g class="♥ hearts_12">
          <g class="fill_10">
            <path fill="#F24E1E" d="M48.469 25.716c-1.728-1.754-4.173-1.71-6.113-.597a1.43 1.43 0 01-1.384 1.778 1.427 1.427 0 01-1.384-1.778c-1.94-1.114-4.384-1.157-6.112.598-.889.902-1.3 2.014-1.325 3.167a1.428 1.428 0 01.527 2.52c.264.603.62 1.183 1.055 1.713 1.778 2.166 4.144 4.058 6.449 5.724a1.42 1.42 0 01.79-.239c.292 0 .564.088.79.24 2.305-1.666 4.672-3.56 6.45-5.725.434-.53.79-1.11 1.054-1.713a1.428 1.428 0 01.527-2.52c-.024-1.153-.435-2.265-1.324-3.168z"/>
            <path fill="#F24E1E" d="M40.58 25.985a.65.65 0 01.393-1.165.649.649 0 11-.394 1.165zM40.972 39.38l.035.002a.649.649 0 11-.035-.001zM49.564 30.581a.647.647 0 01.177-.826.649.649 0 11-.177.827zM31.81 30.92a.649.649 0 100-1.298.649.649 0 000 1.298z"/>
          </g>
          <path fill="#fff" fill-rule="evenodd" d="M50.834 29.027c.014-1.439-.468-2.865-1.626-4.04-2.181-2.214-5.183-2.053-7.455-.713a1.42 1.42 0 00-1.56 0c-2.273-1.34-5.275-1.501-7.456.712-1.158 1.176-1.64 2.602-1.627 4.04a1.427 1.427 0 00.568 2.666c.311.75.74 1.458 1.253 2.085 1.866 2.273 4.325 4.232 6.654 5.914a1.429 1.429 0 001.387 1.766 1.427 1.427 0 001.387-1.765c2.33-1.683 4.789-3.642 6.654-5.915a8.36 8.36 0 001.254-2.085 1.428 1.428 0 00.567-2.665zm-8.478-3.908c1.94-1.114 4.385-1.157 6.113.598a4.543 4.543 0 011.325 3.167 1.428 1.428 0 00-.528 2.52 7.36 7.36 0 01-1.054 1.713c-1.778 2.166-4.145 4.059-6.45 5.724a1.421 1.421 0 00-.79-.239 1.42 1.42 0 00-.79.239c-2.305-1.666-4.671-3.558-6.449-5.724a7.57 7.57 0 01-.558-.775 7.16 7.16 0 01-.496-.938 1.425 1.425 0 00.477-1.611 1.43 1.43 0 00-1.005-.909c.024-1.153.436-2.265 1.325-3.168 1.728-1.754 4.173-1.71 6.112-.597a1.43 1.43 0 001.384 1.778 1.427 1.427 0 001.384-1.778zm-1.777.866a.649.649 0 11.786-1.032.649.649 0 01-.786 1.032zm.428 13.397l-.035-.001a.649.649 0 10.035 0zm8.557-8.8a.646.646 0 01.177-.827.649.649 0 11-.177.827zM32.46 30.27a.649.649 0 11-1.298 0 .649.649 0 011.298 0z" class="stroke_10" clip-rule="evenodd"/>
          <g class="stroke 2_10">
            <path fill="#F24E1E" d="M32.151 28.884zM39.588 25.119z"/>
            <path fill="#F24E1E" fill-rule="evenodd" d="M29.864 30.27c0-.614.286-1.163.73-1.519a6.054 6.054 0 011.773-4.129c2.31-2.345 5.445-2.232 7.833-.94a1.94 1.94 0 011.545 0c2.388-1.292 5.523-1.405 7.833.94a6.054 6.054 0 011.772 4.13 1.947 1.947 0 01-.717 3.402 8.903 8.903 0 01-1.218 1.952c-1.841 2.243-4.234 4.174-6.5 5.823a1.947 1.947 0 11-3.888 0c-2.263-1.65-4.656-3.58-6.497-5.823a8.903 8.903 0 01-1.218-1.953 1.947 1.947 0 01-1.448-1.882zm2.873-5.284a5.536 5.536 0 00-1.624 3.79 6.206 6.206 0 00-.003.25 1.426 1.426 0 00-.727 1.244 1.428 1.428 0 001.295 1.422 8.253 8.253 0 001.253 2.085c1.866 2.273 4.325 4.232 6.654 5.914a1.429 1.429 0 001.387 1.766 1.427 1.427 0 001.387-1.765c2.33-1.683 4.789-3.642 6.654-5.915a8.38 8.38 0 001.254-2.085 1.428 1.428 0 00.567-2.665 5.536 5.536 0 00-1.627-4.04c-2.18-2.214-5.182-2.053-7.454-.713a1.42 1.42 0 00-1.56 0c-2.273-1.34-5.275-1.501-7.456.712z" clip-rule="evenodd"/>
          </g>
        </g>
      </g>
    </g>
  </g>
</svg>
