<svg xmlns="http://www.w3.org/2000/svg" width="80" height="111" fill="none" viewBox="0 0 80 111">
  <g class="ten_diamond">
    <rect width="78.991" height="110.588" x=".394" fill="#fff" class="bg" rx="3.62"/>
    <g class="icons">
      <g class="symbol">
        <g class="♦ diamonds">
          <path fill="#F24E1E" d="M25.76 52.46l-5.68-6.617a1.745 1.745 0 00.046-2.726l5.637-6.587a1.74 1.74 0 001.031.336 1.74 1.74 0 001.032-.336l5.638 6.587c-.386.32-.631.804-.631 1.345 0 .561.265 1.06.676 1.38l-5.68 6.618a1.74 1.74 0 00-1.035-.34 1.74 1.74 0 00-1.034.34z" class="fill"/>
          <path fill="#fff" fill-rule="evenodd" d="M18.785 42.728l6.282-7.339a1.748 1.748 0 011.727-2.019 1.748 1.748 0 011.727 2.018l6.283 7.34a1.748 1.748 0 011.524 1.78v.002a1.748 1.748 0 01-1.435 1.672l-6.37 7.422a1.748 1.748 0 01-1.727 2.012h-.002a1.748 1.748 0 01-1.728-2.013l-6.37-7.421a1.749 1.749 0 01-1.435-1.672v-.001-.047c0-.89.665-1.624 1.524-1.734zm6.975 9.731l-5.68-6.616a1.745 1.745 0 00.046-2.726l5.637-6.587a1.74 1.74 0 001.031.336 1.74 1.74 0 001.032-.336l5.638 6.587c-.386.32-.631.804-.631 1.345 0 .561.265 1.06.676 1.38l-5.68 6.618a1.74 1.74 0 00-1.035-.34 1.74 1.74 0 00-1.034.34zm1.034-16.546a.79.79 0 01-.794-.794.794.794 0 11.794.794zm-.409 17.275a.794.794 0 10.818 1.361.794.794 0 00-.818-1.361zm-6.582-8.726a.794.794 0 11-1.588 0 .794.794 0 011.588 0zm14.329.655a.794.794 0 11.896-1.31.794.794 0 01-.896 1.31z" class="stroke" clip-rule="evenodd"/>
          <path fill="#F24E1E" fill-rule="evenodd" d="M16.625 44.462a1.654 1.654 0 00.002.098 2.385 2.385 0 001.722 2.193l6.062 7.063v.053a2.383 2.383 0 002.383 2.383h.001a2.384 2.384 0 002.382-2.435l6.064-7.064a2.384 2.384 0 001.723-2.26v-.031a2.384 2.384 0 00-1.823-2.317l-5.964-6.969v-.058a2.384 2.384 0 10-4.766.06l-5.963 6.967a2.384 2.384 0 00-1.823 2.317zm.636.048v-.001-.047c0-.89.665-1.624 1.524-1.734l6.282-7.339a1.748 1.748 0 011.727-2.018 1.748 1.748 0 011.727 2.017l6.283 7.34a1.748 1.748 0 011.524 1.78v.002a1.749 1.749 0 01-1.435 1.672l-6.37 7.422a1.748 1.748 0 01-1.727 2.012h-.002a1.748 1.748 0 01-1.728-2.013l-6.37-7.421a1.749 1.749 0 01-1.435-1.672z" class="stroke 2" clip-rule="evenodd"/>
          <g class="dots">
            <path fill="#F24E1E" d="M26.794 34.324a.794.794 0 110 1.589.794.794 0 010-1.589zM19.009 43.667a.794.794 0 110 1.59.794.794 0 010-1.59zM34.58 43.667a.794.794 0 110 1.59.794.794 0 010-1.59zM27.589 53.869a.794.794 0 11-1.59 0 .794.794 0 011.59 0z"/>
          </g>
        </g>
      </g>
      <g class="symbol_2">
        <g class="♦ diamonds_2">
          <path fill="#F24E1E" d="M26.424 27.43l-5.774-6.727a1.774 1.774 0 00.046-2.77l5.732-6.698a1.77 1.77 0 001.048.342 1.77 1.77 0 001.049-.342l5.732 6.697a1.774 1.774 0 00.046 2.77l-5.775 6.728a1.769 1.769 0 00-1.052-.344 1.77 1.77 0 00-1.052.344z" class="fill_2"/>
          <path fill="#fff" fill-rule="evenodd" d="M19.334 17.536l6.386-7.46a1.777 1.777 0 011.756-2.052 1.777 1.777 0 011.756 2.05l6.387 7.462a1.777 1.777 0 011.55 1.81v.002a1.778 1.778 0 01-1.46 1.7l-6.476 7.546a1.777 1.777 0 01-1.756 2.046h-.001a1.777 1.777 0 01-1.757-2.048l-6.476-7.544a1.778 1.778 0 01-1.459-1.7v-.001-.048c0-.905.675-1.651 1.55-1.763zm7.09 9.894l-5.774-6.727c.419-.325.688-.833.688-1.404 0-.55-.25-1.041-.642-1.367l5.732-6.697a1.77 1.77 0 001.048.342 1.77 1.77 0 001.049-.342l5.732 6.697a1.774 1.774 0 00-.642 1.367c0 .57.27 1.079.688 1.404l-5.775 6.727a1.768 1.768 0 00-1.052-.344 1.77 1.77 0 00-1.052.344zm1.052-16.822a.805.805 0 01-.808-.808.808.808 0 11.808.808zM27.06 28.17a.807.807 0 10.83 1.384.807.807 0 00-.83-1.384zM20.368 19.3a.807.807 0 11-1.613.001.807.807 0 011.613-.001zm14.568.666a.807.807 0 11.911-1.331.807.807 0 01-.911 1.331z" class="stroke_2" clip-rule="evenodd"/>
          <path fill="#F24E1E" fill-rule="evenodd" d="M17.137 19.299a1.712 1.712 0 00.003.1 2.424 2.424 0 001.75 2.229l6.163 7.18v.055a2.423 2.423 0 104.846-.053l6.164-7.182a2.424 2.424 0 001.752-2.297v-.032c0-1.142-.79-2.1-1.853-2.356L29.898 9.86l.001-.06a2.423 2.423 0 00-2.422-2.422h-.001a2.423 2.423 0 00-2.423 2.483l-6.062 7.083a2.424 2.424 0 00-1.854 2.356zm.647.05v-.002-.048c0-.905.675-1.651 1.55-1.763l6.386-7.46a1.777 1.777 0 011.756-2.052 1.777 1.777 0 011.756 2.05l6.387 7.462a1.777 1.777 0 011.55 1.81v.002a1.778 1.778 0 01-1.46 1.7l-6.476 7.546a1.777 1.777 0 01-1.756 2.046h-.001a1.777 1.777 0 01-1.757-2.048l-6.476-7.544a1.778 1.778 0 01-1.459-1.7z" class="stroke 2_2" clip-rule="evenodd"/>
          <g class="dots_2">
            <path fill="#F24E1E" d="M27.476 8.992a.808.808 0 110 1.616.808.808 0 010-1.616zM19.56 18.491a.808.808 0 110 1.616.808.808 0 010-1.616zM35.392 18.491a.808.808 0 110 1.616.808.808 0 010-1.616zM28.284 28.863a.808.808 0 11-1.616 0 .808.808 0 011.616 0z"/>
          </g>
        </g>
      </g>
      <g class="symbol_3">
        <g class="♦ diamonds_3">
          <path fill="#F24E1E" d="M51.15 96.346l-5.68-6.727c.412-.325.677-.833.677-1.404 0-.55-.246-1.041-.631-1.367l5.638-6.697a1.721 1.721 0 002.062 0l5.638 6.697a1.785 1.785 0 00-.631 1.367c0 .57.265 1.079.676 1.404l-5.68 6.727a1.721 1.721 0 00-2.069 0z" class="fill_3"/>
          <path fill="#fff" fill-rule="evenodd" d="M44.176 86.452l6.281-7.461a1.82 1.82 0 01-.02-.275c0-.982.782-1.777 1.747-1.777.966 0 1.748.796 1.748 1.777 0 .093-.007.184-.02.274l6.282 7.462a1.768 1.768 0 011.524 1.81v.002a1.769 1.769 0 01-1.435 1.7l-6.37 7.546c.012.087.02.177.02.268 0 .982-.783 1.777-1.748 1.777-.966 0-1.749-.795-1.749-1.777 0-.091.007-.182.02-.27l-6.37-7.544a1.769 1.769 0 01-1.434-1.7h-.001v-.001-.048c0-.905.665-1.651 1.525-1.763zm6.974 9.894l-5.68-6.727c.412-.325.677-.833.677-1.404 0-.55-.246-1.041-.631-1.367l5.638-6.697a1.72 1.72 0 002.062 0l5.638 6.697a1.785 1.785 0 00-.631 1.367c0 .57.265 1.079.676 1.404l-5.68 6.727a1.721 1.721 0 00-2.069 0zm1.034-16.823a.78.78 0 01-.406-.113.81.81 0 01-.388-.694c0-.446.355-.808.794-.808.439 0 .795.362.795.808a.81.81 0 01-.387.693.78.78 0 01-.408.114zm-.409 17.563a.81.81 0 00-.385.692c0 .447.355.808.794.808a.801.801 0 00.795-.808.81.81 0 00-.385-.692.782.782 0 00-.819 0zm-6.582-8.871a.81.81 0 01-.345.666.782.782 0 01-.45.142.801.801 0 01-.794-.808c0-.446.356-.808.795-.808.188 0 .36.067.497.178a.811.811 0 01.297.63zm14.329.666a.81.81 0 01-.346-.666c0-.255.117-.483.298-.63a.783.783 0 01.497-.178c.439 0 .794.362.794.808a.801.801 0 01-.794.808.782.782 0 01-.45-.142z" class="stroke_3" clip-rule="evenodd"/>
          <path fill="#F24E1E" fill-rule="evenodd" d="M42.015 88.215a1.701 1.701 0 00.002.1 2.417 2.417 0 001.722 2.229l6.062 7.18v.054c0 1.339 1.067 2.424 2.383 2.424h.001c1.316-.001 2.383-1.085 2.383-2.424v-.052l6.063-7.182a2.417 2.417 0 001.721-2.23c.002-.022.003-.045.002-.067v-.032c0-1.142-.776-2.1-1.823-2.356l-5.964-7.084v-.06c0-1.337-1.066-2.422-2.382-2.422-1.317 0-2.384 1.084-2.384 2.423v.06l-5.963 7.083a2.416 2.416 0 00-1.823 2.356zm.636.049v-.001-.048c0-.905.665-1.651 1.525-1.763l6.281-7.461a1.82 1.82 0 01-.02-.275c0-.982.782-1.777 1.747-1.777.966 0 1.748.796 1.748 1.777 0 .093-.007.184-.02.274l6.282 7.462a1.768 1.768 0 011.524 1.81v.002a1.769 1.769 0 01-1.435 1.7l-6.37 7.546c.012.087.02.177.02.268 0 .982-.783 1.777-1.748 1.777-.966 0-1.749-.795-1.749-1.777 0-.091.007-.182.02-.27l-6.37-7.544a1.769 1.769 0 01-1.434-1.7z" class="stroke 2_3" clip-rule="evenodd"/>
          <g class="dots_3">
            <path fill="#F24E1E" d="M52.184 77.908c.439 0 .795.362.795.808a.801.801 0 01-.795.808.801.801 0 01-.794-.808c0-.446.355-.808.794-.808zM44.399 87.407c.438 0 .794.362.794.808a.801.801 0 01-.794.807.801.801 0 01-.795-.807c0-.446.356-.808.795-.808zM59.97 87.407c.44 0 .795.362.795.808a.801.801 0 01-.794.807.801.801 0 01-.795-.807c0-.446.356-.808.795-.808zM52.979 97.778a.801.801 0 01-.795.808.801.801 0 01-.794-.808c0-.446.355-.807.794-.807.439 0 .795.361.795.807z"/>
          </g>
        </g>
      </g>
      <g class="symbol_4">
        <g class="♦ diamonds_4">
          <path fill="#F24E1E" d="M25.307 97.252l-5.68-6.727c.412-.325.676-.833.676-1.403 0-.55-.245-1.041-.63-1.367l5.637-6.697a1.721 1.721 0 002.062 0l5.639 6.697a1.785 1.785 0 00-.631 1.367c0 .57.264 1.078.676 1.403l-5.68 6.728a1.721 1.721 0 00-2.07 0z" class="fill_4"/>
          <path fill="#fff" fill-rule="evenodd" d="M18.332 87.359l6.282-7.461a1.822 1.822 0 01-.021-.275c0-.982.782-1.778 1.748-1.778.965 0 1.748.796 1.748 1.778 0 .093-.007.184-.02.273l6.282 7.463a1.768 1.768 0 011.524 1.81v.001a1.769 1.769 0 01-1.435 1.7l-6.371 7.546c.013.088.02.178.02.27 0 .98-.782 1.776-1.748 1.776s-1.748-.795-1.748-1.777c0-.092.007-.182.02-.27l-6.37-7.545a1.769 1.769 0 01-1.435-1.7v-.048c0-.905.664-1.652 1.524-1.763zm6.975 9.894l-5.68-6.728c.412-.325.676-.833.676-1.403 0-.55-.245-1.041-.63-1.367l5.637-6.697a1.721 1.721 0 002.062 0l5.639 6.697a1.785 1.785 0 00-.631 1.367c0 .57.264 1.078.676 1.403l-5.68 6.728a1.721 1.721 0 00-2.07 0zM26.34 80.43a.78.78 0 01-.407-.113.81.81 0 01-.388-.694c0-.447.356-.808.795-.808.439 0 .794.362.794.808a.81.81 0 01-.387.693.78.78 0 01-.407.114zm-.41 17.563a.81.81 0 00-.385.692c0 .446.356.808.795.808a.801.801 0 00.794-.808.81.81 0 00-.384-.692.782.782 0 00-.82 0zm-6.581-8.871a.81.81 0 01-.346.666.782.782 0 01-.449.141.801.801 0 01-.794-.807c0-.447.356-.808.794-.808.188 0 .361.066.497.177a.811.811 0 01.298.63zm14.328.666a.81.81 0 01-.345-.666c0-.255.116-.483.298-.63a.784.784 0 01.496-.178c.44 0 .795.362.795.808a.801.801 0 01-.794.807.782.782 0 01-.45-.141z" class="stroke_4" clip-rule="evenodd"/>
          <path fill="#F24E1E" fill-rule="evenodd" d="M16.172 89.122a1.707 1.707 0 00.002.1 2.417 2.417 0 001.721 2.229l6.063 7.18v.054c0 1.339 1.067 2.423 2.383 2.423 1.317 0 2.383-1.085 2.383-2.423v-.052l6.064-7.182a2.417 2.417 0 001.721-2.23c.002-.022.002-.045.002-.067v-.032c0-1.143-.777-2.1-1.823-2.356l-5.964-7.085v-.058c0-1.339-1.066-2.423-2.382-2.424h-.001c-1.317 0-2.384 1.085-2.384 2.424l.001.06-5.963 7.083a2.416 2.416 0 00-1.823 2.356zm.636.049v-.001-.048c0-.905.664-1.652 1.524-1.763l6.282-7.461a1.822 1.822 0 01-.021-.275c0-.982.782-1.778 1.748-1.778.965 0 1.748.796 1.748 1.778 0 .093-.007.184-.02.273l6.282 7.463a1.768 1.768 0 011.524 1.81v.001a1.769 1.769 0 01-1.435 1.7l-6.371 7.546c.013.088.02.178.02.27 0 .98-.782 1.776-1.747 1.776h-.001c-.966 0-1.748-.795-1.748-1.777 0-.092.007-.182.02-.27l-6.37-7.545a1.769 1.769 0 01-1.435-1.7z" class="stroke 2_4" clip-rule="evenodd"/>
          <g class="dots_4">
            <path fill="#F24E1E" d="M26.34 78.815c.44 0 .795.362.795.808a.801.801 0 01-.794.807.801.801 0 01-.795-.807c0-.447.356-.808.795-.808zM18.555 88.314c.44 0 .795.362.795.808a.801.801 0 01-.795.807.801.801 0 01-.794-.807c0-.447.356-.808.794-.808zM34.127 88.314c.44 0 .795.362.795.808a.801.801 0 01-.794.807.801.801 0 01-.795-.807c0-.447.356-.808.794-.808zM27.135 98.685a.801.801 0 01-.794.808.801.801 0 01-.795-.808c0-.446.356-.808.795-.808.439 0 .794.362.794.808z"/>
          </g>
        </g>
      </g>
      <g class="symbol_5">
        <g class="♦ diamonds_5">
          <path fill="#F24E1E" d="M41.175 82.744l-5.68-6.727c.412-.325.677-.833.677-1.404 0-.55-.245-1.04-.631-1.367l5.638-6.697a1.721 1.721 0 002.062 0l5.638 6.697c-.385.326-.63.817-.63 1.367 0 .57.264 1.079.675 1.404l-5.68 6.727a1.721 1.721 0 00-2.069 0z" class="fill_5"/>
          <path fill="#fff" fill-rule="evenodd" d="M34.2 72.85l6.282-7.46a1.822 1.822 0 01-.02-.276c0-.982.782-1.777 1.747-1.777h.001c.965 0 1.747.796 1.747 1.777 0 .093-.007.185-.02.274l6.282 7.462a1.768 1.768 0 011.524 1.81l.001.001v.001a1.769 1.769 0 01-1.435 1.7l-6.371 7.546c.013.087.02.177.02.269 0 .98-.783 1.776-1.748 1.777-.966 0-1.748-.796-1.748-1.777 0-.092.006-.182.02-.27l-6.37-7.545a1.769 1.769 0 01-1.435-1.7v-.001-.048c0-.905.664-1.651 1.524-1.763zm6.975 9.894l-5.68-6.727c.412-.325.677-.833.677-1.404 0-.55-.245-1.041-.631-1.367l5.638-6.697a1.721 1.721 0 002.062 0l5.638 6.697a1.785 1.785 0 00-.63 1.367c0 .57.264 1.079.675 1.404l-5.68 6.727a1.721 1.721 0 00-2.069 0zm1.035-16.822a.78.78 0 01-.407-.114.81.81 0 01-.388-.694c0-.446.356-.808.794-.808.44 0 .795.362.795.808a.81.81 0 01-.387.694.78.78 0 01-.407.114zm-.41 17.562a.81.81 0 00-.385.693c0 .446.356.807.794.807a.801.801 0 00.795-.807.81.81 0 00-.384-.692.782.782 0 00-.82 0zm-6.581-8.871a.81.81 0 01-.346.666.782.782 0 01-.449.142.801.801 0 01-.794-.808c0-.446.355-.808.794-.808.188 0 .36.067.497.178a.811.811 0 01.298.63zm14.328.666a.81.81 0 01-.345-.666c0-.255.116-.482.297-.63a.784.784 0 01.497-.178c.439 0 .795.362.795.808a.801.801 0 01-.795.808.782.782 0 01-.449-.142z" class="stroke_5" clip-rule="evenodd"/>
          <path fill="#F24E1E" fill-rule="evenodd" d="M32.04 74.613v.032a2.417 2.417 0 001.723 2.297l6.064 7.18v.055c0 1.338 1.066 2.423 2.383 2.423 1.316 0 2.383-1.085 2.383-2.423v-.053l6.063-7.182a2.417 2.417 0 001.724-2.297v-.032c0-1.142-.777-2.1-1.823-2.356l-5.965-7.084.001-.059c0-1.338-1.067-2.423-2.383-2.423-1.317 0-2.384 1.085-2.384 2.423v.06l-5.962 7.083a2.416 2.416 0 00-1.823 2.356zm.637.05v-.002-.048c0-.905.664-1.651 1.524-1.763l6.282-7.46a1.822 1.822 0 01-.021-.276c0-.982.782-1.777 1.747-1.777h.001c.965 0 1.747.796 1.747 1.777 0 .093-.007.185-.02.274l6.282 7.462a1.767 1.767 0 011.524 1.81l.001.001v.001a1.769 1.769 0 01-1.435 1.7l-6.371 7.546c.013.087.02.177.02.269 0 .98-.783 1.776-1.748 1.777-.966 0-1.748-.796-1.748-1.777 0-.092.006-.182.02-.27l-6.37-7.545a1.769 1.769 0 01-1.435-1.7z" class="stroke 2_5" clip-rule="evenodd"/>
          <g class="dots_5">
            <path fill="#F24E1E" d="M42.21 64.306c.438 0 .794.362.794.808a.801.801 0 01-.794.808.801.801 0 01-.795-.808c0-.446.356-.808.794-.808zM34.424 73.805c.439 0 .795.362.795.808a.801.801 0 01-.795.808.801.801 0 01-.794-.808c0-.446.355-.808.794-.808zM49.996 73.805c.439 0 .795.362.795.808a.801.801 0 01-.795.808.801.801 0 01-.794-.808c0-.446.355-.808.794-.808zM43.004 84.177a.801.801 0 01-.794.807.801.801 0 01-.795-.807c0-.447.356-.808.794-.808.44 0 .795.362.795.808z"/>
          </g>
        </g>
      </g>
      <g class="symbol_6">
        <g class="♦ diamonds_6">
          <path fill="#F24E1E" d="M51.15 76.85l-5.68-6.727c.412-.325.677-.833.677-1.404 0-.55-.246-1.041-.631-1.367l5.638-6.697a1.721 1.721 0 002.062 0l5.638 6.697a1.785 1.785 0 00-.631 1.367c0 .57.265 1.079.676 1.404l-5.68 6.727a1.721 1.721 0 00-2.069 0z" class="fill_6"/>
          <path fill="#fff" fill-rule="evenodd" d="M44.176 66.956l6.281-7.461a1.822 1.822 0 01-.02-.275c0-.982.782-1.777 1.747-1.777.966 0 1.748.796 1.748 1.777 0 .093-.007.184-.02.274l6.282 7.462a1.768 1.768 0 011.524 1.81v.002a1.769 1.769 0 01-1.435 1.7l-6.37 7.546c.012.087.02.177.02.269 0 .98-.783 1.776-1.748 1.776-.966 0-1.749-.795-1.749-1.776 0-.092.007-.183.02-.27l-6.37-7.545a1.769 1.769 0 01-1.434-1.7h-.001v-.001-.048c0-.905.665-1.651 1.525-1.763zm6.974 9.894l-5.68-6.727c.412-.325.677-.833.677-1.404 0-.55-.246-1.041-.631-1.367l5.638-6.697a1.72 1.72 0 002.062 0l5.638 6.697a1.785 1.785 0 00-.631 1.367c0 .57.265 1.079.676 1.404l-5.68 6.727a1.72 1.72 0 00-2.069 0zm1.034-16.822a.782.782 0 01-.406-.114.81.81 0 01-.388-.694c0-.446.355-.808.794-.808.439 0 .795.362.795.808a.81.81 0 01-.387.694.782.782 0 01-.408.114zm-.409 17.562a.81.81 0 00-.385.692c0 .447.355.808.794.808a.801.801 0 00.795-.808.81.81 0 00-.385-.691.78.78 0 00-.819-.001zm-6.582-8.871a.81.81 0 01-.345.666.783.783 0 01-.45.142.801.801 0 01-.794-.808c0-.446.356-.808.795-.808.188 0 .36.067.497.177a.811.811 0 01.297.63zm14.329.666a.81.81 0 01-.346-.666c0-.255.117-.482.298-.63a.783.783 0 01.497-.178c.439 0 .794.362.794.808a.801.801 0 01-.794.808.782.782 0 01-.45-.142z" class="stroke_6" clip-rule="evenodd"/>
          <path fill="#F24E1E" fill-rule="evenodd" d="M42.015 68.719a1.712 1.712 0 00.002.1 2.417 2.417 0 001.722 2.229l6.062 7.18v.055c0 1.338 1.067 2.423 2.383 2.423h.001c1.316 0 2.383-1.085 2.383-2.424v-.052l6.063-7.182a2.417 2.417 0 001.723-2.297v-.032c0-1.142-.776-2.1-1.823-2.356l-5.964-7.084v-.06c0-1.337-1.066-2.422-2.382-2.422-1.317 0-2.384 1.085-2.384 2.423v.06l-5.963 7.083a2.416 2.416 0 00-1.823 2.356zm.636.05v-.002-.048c0-.905.665-1.651 1.525-1.763l6.281-7.461a1.822 1.822 0 01-.02-.275c0-.982.782-1.777 1.747-1.777.966 0 1.748.796 1.748 1.777 0 .093-.007.184-.02.274l6.282 7.462a1.768 1.768 0 011.524 1.81v.002a1.769 1.769 0 01-1.435 1.7l-6.37 7.546c.012.087.02.177.02.269 0 .98-.783 1.776-1.748 1.776-.966 0-1.749-.795-1.749-1.776 0-.092.007-.183.02-.27l-6.37-7.545a1.769 1.769 0 01-1.434-1.7z" class="stroke 2_6" clip-rule="evenodd"/>
          <g class="dots_6">
            <path fill="#F24E1E" d="M52.184 58.412c.439 0 .795.362.795.808a.801.801 0 01-.795.808.801.801 0 01-.794-.808c0-.446.355-.808.794-.808zM44.399 67.911c.438 0 .794.362.794.808a.801.801 0 01-.794.808.801.801 0 01-.795-.808c0-.446.356-.808.795-.808zM59.97 67.911c.44 0 .795.362.795.808a.801.801 0 01-.794.808.801.801 0 01-.795-.808c0-.446.356-.808.795-.808zM52.979 78.282a.801.801 0 01-.795.808.801.801 0 01-.794-.808c0-.446.355-.807.794-.807.439 0 .795.361.795.808z"/>
          </g>
        </g>
      </g>
      <g class="symbol_7">
        <g class="♦ diamonds_7">
          <path fill="#F24E1E" d="M25.307 71.409l-5.68-6.727c.412-.325.676-.833.676-1.404 0-.55-.245-1.04-.63-1.367l5.637-6.696a1.721 1.721 0 002.062-.001l5.639 6.697a1.785 1.785 0 00-.631 1.367c0 .571.264 1.079.676 1.404l-5.68 6.728a1.72 1.72 0 00-2.07-.001z" class="fill_7"/>
          <path fill="#fff" fill-rule="evenodd" d="M18.332 61.516l6.282-7.462a1.822 1.822 0 01-.021-.275c0-.981.782-1.777 1.748-1.777.965 0 1.748.796 1.748 1.777 0 .093-.007.185-.02.274l6.282 7.463a1.768 1.768 0 011.524 1.81v.001a1.769 1.769 0 01-1.435 1.7l-6.371 7.546c.013.088.02.177.02.269 0 .981-.782 1.776-1.748 1.777-.966 0-1.748-.796-1.748-1.777 0-.092.007-.182.02-.27l-6.37-7.545a1.769 1.769 0 01-1.435-1.7v-.001-.048c0-.904.664-1.651 1.524-1.762zm6.975 9.893l-5.68-6.727c.412-.325.676-.833.676-1.404 0-.55-.245-1.04-.63-1.367l5.637-6.697a1.72 1.72 0 002.062 0l5.639 6.697a1.785 1.785 0 00-.631 1.367c0 .571.264 1.079.676 1.404l-5.68 6.728a1.72 1.72 0 00-2.07-.001zm1.034-16.822a.781.781 0 01-.407-.114.81.81 0 01-.388-.694c0-.446.356-.808.795-.808.439 0 .794.362.794.808a.81.81 0 01-.387.694.782.782 0 01-.407.114zm-.41 17.562a.81.81 0 00-.385.693c0 .446.356.808.795.808a.801.801 0 00.794-.808.81.81 0 00-.384-.692.78.78 0 00-.82 0zm-6.581-8.87a.81.81 0 01-.346.666.782.782 0 01-.449.14.801.801 0 01-.794-.807c0-.446.356-.808.794-.808.188 0 .361.067.497.178a.811.811 0 01.298.63zm14.328.666a.81.81 0 01-.345-.667c0-.255.116-.482.298-.63a.783.783 0 01.496-.178c.44 0 .795.362.795.808a.801.801 0 01-.794.808.782.782 0 01-.45-.141z" class="stroke_7" clip-rule="evenodd"/>
          <path fill="#F24E1E" fill-rule="evenodd" d="M16.172 63.278v.032a2.417 2.417 0 001.723 2.297l6.063 7.18v.055c0 1.338 1.067 2.423 2.383 2.423 1.317 0 2.383-1.085 2.383-2.423v-.053l6.064-7.182a2.417 2.417 0 001.723-2.297v-.032c0-1.142-.777-2.099-1.823-2.355l-5.964-7.085v-.059c0-1.338-1.066-2.423-2.382-2.423h-.001c-1.317 0-2.384 1.085-2.384 2.423l.001.06-5.963 7.084a2.416 2.416 0 00-1.823 2.355zm.636.05v-.002-.048c0-.904.664-1.651 1.524-1.762l6.282-7.462a1.822 1.822 0 01-.021-.275c0-.981.782-1.777 1.748-1.777.965 0 1.748.796 1.748 1.777 0 .093-.007.185-.02.274l6.282 7.463a1.768 1.768 0 011.524 1.81v.001a1.769 1.769 0 01-1.435 1.7l-6.371 7.546c.013.088.02.177.02.269 0 .981-.782 1.776-1.747 1.777h-.001c-.966 0-1.748-.796-1.748-1.777 0-.092.007-.182.02-.27l-6.37-7.545a1.769 1.769 0 01-1.435-1.7z" class="stroke 2_7" clip-rule="evenodd"/>
          <g class="dots_7">
            <path fill="#F24E1E" d="M26.34 52.971c.44 0 .795.362.795.808a.801.801 0 01-.794.808.801.801 0 01-.795-.808c0-.446.356-.808.795-.808zM18.555 62.47c.44 0 .795.362.795.808a.801.801 0 01-.795.808.801.801 0 01-.794-.808c0-.446.356-.808.794-.808zM34.127 62.47c.44 0 .795.362.795.808a.801.801 0 01-.794.808.801.801 0 01-.795-.808c0-.446.356-.808.794-.808zM27.135 72.842a.801.801 0 01-.794.808.801.801 0 01-.795-.808c0-.446.356-.808.795-.808.439 0 .794.362.794.808z"/>
          </g>
        </g>
      </g>
      <g class="symbol_8">
        <g class="♦ diamonds_8">
          <path fill="#F24E1E" d="M51.15 52.82l-5.68-6.727c.412-.325.677-.833.677-1.404 0-.55-.246-1.04-.631-1.367l5.638-6.697a1.721 1.721 0 002.062 0l5.638 6.697a1.785 1.785 0 00-.631 1.367c0 .57.265 1.079.676 1.404l-5.68 6.727a1.72 1.72 0 00-2.069 0z" class="fill_8"/>
          <path fill="#fff" fill-rule="evenodd" d="M44.176 42.926l6.281-7.46a1.82 1.82 0 01-.02-.276c0-.981.782-1.777 1.747-1.777.966 0 1.748.796 1.748 1.777 0 .093-.007.185-.02.274l6.282 7.462a1.768 1.768 0 011.524 1.81v.002a1.769 1.769 0 01-1.435 1.7l-6.37 7.546c.012.087.02.177.02.269 0 .98-.783 1.776-1.748 1.777-.966 0-1.749-.796-1.749-1.777 0-.092.007-.182.02-.27l-6.37-7.545a1.769 1.769 0 01-1.434-1.7h-.001v-.001-.048c0-.905.665-1.651 1.525-1.763zm6.974 9.894l-5.68-6.727c.412-.325.677-.833.677-1.404 0-.55-.246-1.04-.631-1.367l5.638-6.697a1.72 1.72 0 002.062 0l5.638 6.697a1.785 1.785 0 00-.631 1.367c0 .57.265 1.079.676 1.404l-5.68 6.727a1.721 1.721 0 00-2.069 0zm1.034-16.822a.78.78 0 01-.406-.114.81.81 0 01-.388-.694c0-.446.355-.808.794-.808.439 0 .795.362.795.808a.81.81 0 01-.387.694.78.78 0 01-.408.114zm-.409 17.562a.81.81 0 00-.385.693c0 .446.355.807.794.807a.801.801 0 00.795-.807.81.81 0 00-.385-.692.782.782 0 00-.819 0zm-6.582-8.871a.81.81 0 01-.345.666.782.782 0 01-.45.142.801.801 0 01-.794-.808c0-.446.356-.808.795-.808.188 0 .36.067.497.178a.811.811 0 01.297.63zm14.329.666a.81.81 0 01-.346-.666c0-.255.117-.482.298-.63a.783.783 0 01.497-.178c.439 0 .794.362.794.808a.801.801 0 01-.794.808.782.782 0 01-.45-.142z" class="stroke_8" clip-rule="evenodd"/>
          <path fill="#F24E1E" fill-rule="evenodd" d="M42.015 44.689a1.701 1.701 0 00.002.1 2.417 2.417 0 001.722 2.229l6.062 7.18v.055c0 1.338 1.067 2.423 2.383 2.423h.001c1.316 0 2.383-1.085 2.383-2.423V54.2l6.063-7.182a2.417 2.417 0 001.723-2.297v-.032c0-1.142-.776-2.1-1.823-2.356l-5.964-7.084v-.059c0-1.338-1.066-2.423-2.382-2.423-1.317 0-2.384 1.085-2.384 2.423v.06l-5.963 7.083a2.416 2.416 0 00-1.823 2.356zm.636.05v-.002-.048c0-.905.665-1.651 1.525-1.763l6.281-7.46a1.82 1.82 0 01-.02-.276c0-.981.782-1.777 1.747-1.777.966 0 1.748.796 1.748 1.777 0 .093-.007.185-.02.274l6.282 7.462a1.768 1.768 0 011.524 1.81v.002a1.769 1.769 0 01-1.435 1.7l-6.37 7.546c.012.087.02.177.02.269 0 .98-.783 1.776-1.748 1.777-.966 0-1.749-.796-1.749-1.777 0-.092.007-.182.02-.27l-6.37-7.545a1.769 1.769 0 01-1.434-1.7z" class="stroke 2_8" clip-rule="evenodd"/>
          <g class="dots_8">
            <path fill="#F24E1E" d="M52.184 34.382c.439 0 .795.362.795.808a.801.801 0 01-.795.808.801.801 0 01-.794-.808c0-.446.355-.808.794-.808zM44.399 43.881c.438 0 .794.362.794.808a.801.801 0 01-.794.808.801.801 0 01-.795-.808c0-.446.356-.808.795-.808zM59.97 43.881c.44 0 .795.362.795.808a.801.801 0 01-.794.808.801.801 0 01-.795-.808c0-.446.356-.808.795-.808zM52.979 54.253a.801.801 0 01-.795.807.801.801 0 01-.794-.807c0-.447.355-.808.794-.808.439 0 .795.361.795.808z"/>
          </g>
        </g>
      </g>
      <g class="symbol_9">
        <g class="♦ diamonds_9">
          <path fill="#F24E1E" d="M51.15 25.616l-5.68-6.727c.412-.325.677-.833.677-1.404 0-.55-.246-1.04-.631-1.366l5.638-6.697a1.721 1.721 0 002.062 0l5.638 6.697a1.785 1.785 0 00-.631 1.366c0 .571.265 1.08.676 1.404l-5.68 6.728a1.721 1.721 0 00-2.069 0z" class="fill_9"/>
          <path fill="#fff" fill-rule="evenodd" d="M44.176 15.723l6.281-7.462a1.821 1.821 0 01-.02-.275c0-.981.782-1.777 1.747-1.777.966 0 1.748.796 1.748 1.777 0 .094-.007.185-.02.274l6.282 7.463a1.768 1.768 0 011.524 1.81v.002a1.769 1.769 0 01-1.435 1.7l-6.37 7.545c.012.088.02.178.02.269 0 .981-.783 1.777-1.748 1.777-.966 0-1.749-.796-1.749-1.777 0-.092.007-.182.02-.27l-6.37-7.545a1.769 1.769 0 01-1.434-1.7h-.001v-.049c0-.904.665-1.65 1.525-1.762zm6.974 9.893l-5.68-6.727c.412-.325.677-.833.677-1.404 0-.55-.246-1.04-.631-1.366l5.638-6.697a1.72 1.72 0 002.062 0l5.638 6.697a1.785 1.785 0 00-.631 1.366c0 .571.265 1.08.676 1.404l-5.68 6.728a1.721 1.721 0 00-2.069 0zm1.034-16.822a.781.781 0 01-.406-.114.81.81 0 01-.388-.694c0-.446.355-.807.794-.807.439 0 .795.361.795.807a.81.81 0 01-.387.694.781.781 0 01-.408.114zm-.409 17.563a.81.81 0 00-.385.692c0 .446.355.808.794.808a.801.801 0 00.795-.808.81.81 0 00-.385-.692.78.78 0 00-.819 0zm-6.582-8.872a.81.81 0 01-.345.667.783.783 0 01-.45.141.801.801 0 01-.794-.808c0-.446.356-.807.795-.807.188 0 .36.066.497.177a.811.811 0 01.297.63zm14.329.667a.81.81 0 01-.346-.667c0-.255.117-.482.298-.63a.783.783 0 01.497-.177c.439 0 .794.361.794.807a.801.801 0 01-.794.808.782.782 0 01-.45-.141z" class="stroke_9" clip-rule="evenodd"/>
          <path fill="#F24E1E" fill-rule="evenodd" d="M42.015 17.485v.032a2.417 2.417 0 001.723 2.297l6.063 7.181v.054c0 1.338 1.067 2.423 2.383 2.423h.001c1.316 0 2.383-1.085 2.383-2.423v-.052l6.063-7.183a2.417 2.417 0 001.721-2.23c.002-.021.003-.044.002-.067v-.032c0-1.142-.776-2.099-1.823-2.355l-5.964-7.085v-.059c0-1.338-1.066-2.422-2.382-2.423-1.317 0-2.384 1.085-2.384 2.423v.06l-5.963 7.084a2.416 2.416 0 00-1.823 2.355zm.636.05v-.001-.049c0-.904.665-1.65 1.525-1.762l6.281-7.462a1.82 1.82 0 01-.02-.275c0-.981.782-1.777 1.747-1.777.966 0 1.748.796 1.748 1.777 0 .093-.007.185-.02.274l6.282 7.463a1.768 1.768 0 011.524 1.81v.002a1.769 1.769 0 01-1.435 1.7l-6.37 7.545c.012.088.02.178.02.269 0 .981-.783 1.777-1.748 1.777-.966 0-1.749-.796-1.749-1.777 0-.092.007-.182.02-.27l-6.37-7.545a1.769 1.769 0 01-1.434-1.7z" class="stroke 2_9" clip-rule="evenodd"/>
          <g class="dots_9">
            <path fill="#F24E1E" d="M52.184 7.179c.439 0 .795.361.795.807a.801.801 0 01-.795.808.801.801 0 01-.794-.808c0-.446.355-.807.794-.807zM44.399 16.678c.438 0 .794.361.794.807a.801.801 0 01-.794.808.801.801 0 01-.795-.808c0-.446.356-.807.795-.807zM59.97 16.678c.44 0 .795.361.795.807a.801.801 0 01-.794.808.801.801 0 01-.795-.808c0-.446.356-.807.795-.807zM52.979 27.049a.801.801 0 01-.795.808.801.801 0 01-.794-.808c0-.446.355-.808.794-.808.439 0 .795.362.795.808z"/>
          </g>
        </g>
      </g>
      <g class="symbol_10">
        <g class="♦ diamonds_10">
          <path fill="#F24E1E" d="M41.175 40.578l-5.68-6.727c.412-.325.677-.833.677-1.404 0-.55-.245-1.04-.631-1.367l5.638-6.696a1.721 1.721 0 002.062 0l5.638 6.696c-.385.326-.63.818-.63 1.367 0 .571.264 1.08.675 1.404l-5.68 6.728a1.721 1.721 0 00-2.069 0z" class="fill_10"/>
          <path fill="#fff" fill-rule="evenodd" d="M34.2 30.685l6.282-7.461a1.822 1.822 0 01-.02-.276c0-.981.782-1.777 1.747-1.777h.001c.965 0 1.747.796 1.747 1.777 0 .093-.007.185-.02.274l6.282 7.463a1.768 1.768 0 011.524 1.81h.001v.002a1.769 1.769 0 01-1.435 1.7l-6.371 7.545c.013.088.02.178.02.269 0 .981-.783 1.777-1.748 1.777-.966 0-1.748-.796-1.748-1.777 0-.092.006-.182.02-.27l-6.37-7.545a1.769 1.769 0 01-1.435-1.7v-.049c0-.904.664-1.65 1.524-1.762zm6.975 9.893l-5.68-6.727c.412-.325.677-.833.677-1.404 0-.55-.245-1.04-.631-1.367l5.638-6.696a1.72 1.72 0 002.062 0l5.638 6.696a1.785 1.785 0 00-.63 1.367c0 .571.264 1.08.675 1.404l-5.68 6.728a1.72 1.72 0 00-2.069 0zm1.035-16.822a.781.781 0 01-.407-.114.81.81 0 01-.388-.694c0-.446.356-.807.794-.807.44 0 .795.361.795.807a.81.81 0 01-.387.694.781.781 0 01-.407.114zM41.8 41.32a.81.81 0 00-.385.692c0 .446.356.808.794.808a.801.801 0 00.795-.808.81.81 0 00-.384-.692.78.78 0 00-.82 0zm-6.581-8.872a.81.81 0 01-.346.667.782.782 0 01-.449.141.801.801 0 01-.794-.808c0-.446.355-.807.794-.807.188 0 .36.066.497.177a.811.811 0 01.298.63zm14.328.667a.81.81 0 01-.345-.667c0-.255.116-.482.297-.63a.783.783 0 01.497-.177c.439 0 .795.361.795.807a.801.801 0 01-.795.808.782.782 0 01-.449-.141z" class="stroke_10" clip-rule="evenodd"/>
          <path fill="#F24E1E" fill-rule="evenodd" d="M32.04 32.447v.032a2.417 2.417 0 001.723 2.297l6.064 7.181v.054c0 1.338 1.066 2.423 2.383 2.423 1.316 0 2.383-1.085 2.383-2.423v-.053l6.063-7.182a2.417 2.417 0 001.724-2.297v-.032c0-1.142-.777-2.099-1.823-2.355l-5.965-7.085.001-.059c0-1.338-1.067-2.422-2.383-2.423-1.317 0-2.384 1.085-2.384 2.423v.06l-5.962 7.084a2.416 2.416 0 00-1.823 2.355zm.637.05v-.001-.049c0-.904.664-1.65 1.524-1.762l6.282-7.461a1.822 1.822 0 01-.021-.276c0-.981.782-1.777 1.747-1.777h.001c.965 0 1.747.796 1.747 1.777 0 .093-.007.185-.02.274l6.282 7.463a1.767 1.767 0 011.524 1.81h.001v.002a1.769 1.769 0 01-1.435 1.7l-6.371 7.545c.013.088.02.178.02.269 0 .981-.783 1.777-1.748 1.777-.966 0-1.748-.796-1.748-1.777 0-.092.006-.182.02-.27l-6.37-7.545a1.769 1.769 0 01-1.435-1.7z" class="stroke 2_10" clip-rule="evenodd"/>
          <g class="dots_10">
            <path fill="#F24E1E" d="M42.21 22.14c.438 0 .794.362.794.808a.801.801 0 01-.794.808.801.801 0 01-.795-.808c0-.446.356-.807.794-.807zM34.424 31.64c.439 0 .795.361.795.807a.801.801 0 01-.795.808.801.801 0 01-.794-.808c0-.446.355-.807.794-.807zM49.996 31.64c.439 0 .795.361.795.807a.801.801 0 01-.795.808.801.801 0 01-.794-.808c0-.446.355-.807.794-.807zM43.004 42.011a.801.801 0 01-.794.808.801.801 0 01-.795-.808c0-.446.356-.808.794-.808.44 0 .795.362.795.808z"/>
          </g>
        </g>
      </g>
    </g>
    <g class="down">
      <g class="letter">
        <g class="10">
          <path fill="#222" fill-rule="evenodd" d="M68.856 99.52a4.08 4.08 0 11-8.161 0v-7.934a4.08 4.08 0 018.161 0v7.934zm-2.267.68a1.814 1.814 0 11-3.627 0v-9.295a1.814 1.814 0 013.627 0v9.295z" clip-rule="evenodd"/>
          <path fill="#222" d="M70.319 103.147h2.164V87.732H70.32v15.415z"/>
        </g>
      </g>
      <g class="symbol_11">
        <path fill="#F24E1E" d="M65.11 77.15l2.473 2.88-2.472 2.888-2.473-2.888 2.473-2.88z" class="♦ diamonds_11"/>
      </g>
    </g>
    <g class="up">
      <g class="letter_2">
        <g class="10_2">
          <path fill="#222" fill-rule="evenodd" d="M7.648 6.8a4.08 4.08 0 018.161 0v7.935a4.08 4.08 0 11-8.161 0V6.801zm2.267-.68a1.814 1.814 0 013.627 0v9.295a1.814 1.814 0 11-3.627 0V6.121z" clip-rule="evenodd"/>
          <path fill="#222" d="M6.186 3.174H4.02v15.415h2.165V3.174z"/>
        </g>
      </g>
      <g class="symbol_12">
        <path fill="#F24E1E" d="M10.588 27.544l-2.473-2.88 2.473-2.889 2.472 2.889-2.473 2.88z" class="♦ diamonds_12"/>
      </g>
    </g>
  </g>
</svg>
