<svg xmlns="http://www.w3.org/2000/svg" width="80" height="112" fill="none" viewBox="0 0 80 112">
  <g class="ten_clubs">
    <rect width="74.81" height="104.734" x=".394" y=".938" fill="#fff" rx="3.62"/>
    <rect width="78.991" height="110.588" x=".394" y=".938" fill="#fff" class="bg" rx="3.62"/>
    <g class="down">
      <g class="letter">
        <g class="10">
          <path fill="#222" fill-rule="evenodd" d="M68.856 100.457a4.08 4.08 0 11-8.161 0v-7.934a4.08 4.08 0 018.161 0v7.934zm-2.267.681a1.814 1.814 0 01-3.627 0v-9.295a1.814 1.814 0 013.627 0v9.295z" clip-rule="evenodd"/>
          <path fill="#222" d="M70.319 104.085h2.164V88.669H70.32v15.416z"/>
        </g>
      </g>
      <g class="symbol">
        <path fill="#2C2C2C" d="M63.412 81.826l.124-.47-.484-.032a1.75 1.75 0 111.691-2.517l.36.728.358-.728a1.75 1.75 0 111.691 2.517l-.484.033.125.469a1.752 1.752 0 01-1.69 2.201 1.75 1.75 0 01-1.691-2.201z" class="♣ club"/>
      </g>
    </g>
    <g class="up">
      <g class="letter_2">
        <g class="10_2">
          <path fill="#222" fill-rule="evenodd" d="M7.648 7.738a4.08 4.08 0 018.161 0v7.935a4.08 4.08 0 11-8.161 0V7.738zm2.267-.68a1.814 1.814 0 013.627 0v9.295a1.813 1.813 0 11-3.627 0V7.058z" clip-rule="evenodd"/>
          <path fill="#222" d="M6.186 4.111H4.02v15.416h2.165V4.11z"/>
        </g>
      </g>
      <g class="symbol_2">
        <path fill="#2C2C2C" d="M12.287 24.743l-.125.469.484.033a1.75 1.75 0 11-1.691 2.517l-.36-.729-.358.729a1.75 1.75 0 11-1.691-2.517l.484-.033-.125-.47a1.752 1.752 0 011.69-2.2 1.75 1.75 0 011.692 2.2z" class="♣ club_2"/>
      </g>
    </g>
    <g class="icons">
      <g class="symbol_3">
        <g class="♣ clubs">
          <g class="fill">
            <path fill="#2C2C2C" d="M32.433 44.71a1.427 1.427 0 11-1.45-2.111 4.542 4.542 0 10-9.039 0 1.428 1.428 0 11-1.449 2.11 4.542 4.542 0 104.906 6.691 1.427 1.427 0 112.126 0 4.542 4.542 0 104.906-6.691z"/>
            <path fill="#2C2C2C" d="M31.188 44.66a.645.645 0 01-.65-.648.648.648 0 11.65.648zM27.113 50.448a.649.649 0 11-1.298 0 .649.649 0 011.298 0zM21.74 44.66a.646.646 0 01-.648-.648.649.649 0 11.648.648z"/>
          </g>
          <path fill="#fff" fill-rule="evenodd" d="M25.831 52.612a5.59 5.59 0 00.498-.743 1.437 1.437 0 00.27 0 5.591 5.591 0 004.874 2.861 5.58 5.58 0 001.103-11.05 1.429 1.429 0 00-.575-.841 5.619 5.619 0 00.043-.696 5.58 5.58 0 10-11.117.696 1.43 1.43 0 00-.575.84 5.582 5.582 0 00-4.477 5.471 5.58 5.58 0 009.956 3.462zm5.356-7.952a.645.645 0 01-.648-.648.648.648 0 11.648.648zm-1.427-.648c0-.72.532-1.314 1.223-1.413a4.542 4.542 0 10-9.039 0 1.428 1.428 0 11-1.449 2.11 4.542 4.542 0 104.906 6.691 1.427 1.427 0 112.126 0 4.542 4.542 0 104.906-6.691 1.427 1.427 0 01-2.673-.698zm-2.647 6.436a.649.649 0 11-1.298 0 .649.649 0 011.298 0zm-5.652-5.85a.646.646 0 00.635-.044.652.652 0 00.293-.543.648.648 0 10-.928.586z" class="stroke" clip-rule="evenodd"/>
          <path fill="#2C2C2C" fill-rule="evenodd" d="M26.238 52.934c.079-.098.154-.2.226-.303a6.09 6.09 0 005.009 2.619 6.1 6.1 0 001.5-12.013 1.95 1.95 0 00-.428-.62l.002-.024a6.1 6.1 0 10-12.165 0v.023a1.95 1.95 0 00-.428.621l-.042.011a6.1 6.1 0 106.327 9.686zm.858-.322a5.607 5.607 0 01-.497-.743 1.434 1.434 0 01-.27 0 5.522 5.522 0 01-.498.743 5.58 5.58 0 11-5.48-8.933 1.43 1.43 0 01.576-.84 5.505 5.505 0 01-.043-.696A5.58 5.58 0 1132 42.839c.284.197.492.494.575.84a5.582 5.582 0 014.477 5.471 5.58 5.58 0 01-9.957 3.462z" class="stroke 2" clip-rule="evenodd"/>
        </g>
      </g>
      <g class="symbol_4">
        <g class="♣ clubs_2">
          <g class="fill_2">
            <path fill="#2C2C2C" d="M32.886 22.702c-.245.444-.71.744-1.245.744-.789 0-1.428-.652-1.428-1.456 0-.734.532-1.341 1.224-1.442.014-.153.022-.308.022-.465 0-2.56-2.033-4.635-4.542-4.635-2.508 0-4.542 2.075-4.542 4.635 0 .157.008.312.023.465a1.448 1.448 0 011.223 1.442c0 .804-.639 1.456-1.427 1.456-.535 0-1.001-.3-1.246-.744-2.047.45-3.582 2.308-3.582 4.531 0 2.56 2.034 4.635 4.542 4.635 1.688 0 3.163-.94 3.946-2.338a1.468 1.468 0 01-.364-.973c0-.804.639-1.456 1.427-1.456.789 0 1.428.652 1.428 1.456 0 .374-.138.715-.365.973.784 1.398 2.258 2.338 3.946 2.338 2.509 0 4.542-2.075 4.542-4.635 0-2.223-1.535-4.082-3.582-4.53z"/>
            <path fill="#2C2C2C" d="M31.64 22.652a.636.636 0 01-.355-.109.662.662 0 01-.293-.553c0-.221.106-.417.27-.538a.637.637 0 01.379-.125c.358 0 .649.297.649.663a.663.663 0 01-.37.597.636.636 0 01-.28.065zM27.566 28.557a.653.653 0 01-.649.662.653.653 0 01-.649-.662c0-.254.142-.476.348-.586a.636.636 0 01.602 0c.207.11.348.332.348.586zM22.194 22.652a.636.636 0 01-.28-.065.663.663 0 01-.37-.597c0-.366.291-.662.65-.662.141 0 .272.046.38.124a.666.666 0 01.21.811.662.662 0 01-.235.28.636.636 0 01-.355.109z"/>
          </g>
          <path fill="#fff" fill-rule="evenodd" d="M26.285 30.766c.185-.238.351-.492.497-.758a1.434 1.434 0 00.27 0c.146.266.313.52.498.758a5.53 5.53 0 004.376 2.161c3.082 0 5.58-2.55 5.58-5.694 0-2.646-1.77-4.872-4.167-5.51a5.45 5.45 0 00-.31-.072 1.459 1.459 0 00-.575-.858 5.84 5.84 0 00.043-.71c0-3.145-2.498-5.694-5.58-5.694s-5.58 2.55-5.58 5.694a5.86 5.86 0 00.043.71 1.459 1.459 0 00-.575.858 5.45 5.45 0 00-.31.072c-2.397.639-4.167 2.864-4.167 5.51 0 3.145 2.498 5.694 5.58 5.694a5.53 5.53 0 004.377-2.161zm5.356-8.114a.636.636 0 01-.356-.109.66.66 0 01-.293-.553c0-.221.106-.417.27-.538a.637.637 0 01.379-.125c.358 0 .649.297.649.663a.663.663 0 01-.37.597.636.636 0 01-.28.065zm-1.428-.662c0-.734.532-1.341 1.224-1.442.014-.153.022-.308.022-.465 0-2.56-2.033-4.635-4.542-4.635-2.508 0-4.542 2.075-4.542 4.635 0 .157.008.312.023.465a1.448 1.448 0 011.223 1.442c0 .804-.639 1.456-1.427 1.456-.535 0-1.001-.3-1.246-.744-2.047.45-3.582 2.308-3.582 4.531 0 2.56 2.034 4.635 4.542 4.635 1.688 0 3.163-.94 3.946-2.338a1.468 1.468 0 01-.364-.973c0-.804.639-1.456 1.427-1.456.789 0 1.428.652 1.428 1.456 0 .374-.138.715-.365.973.784 1.398 2.258 2.338 3.946 2.338 2.509 0 4.542-2.075 4.542-4.635 0-2.223-1.535-4.082-3.582-4.53-.245.443-.71.743-1.245.743-.789 0-1.428-.652-1.428-1.456zm-2.647 6.567a.653.653 0 01-.649.662.653.653 0 01-.649-.662c0-.254.142-.476.348-.586a.636.636 0 01.602 0c.207.11.348.332.348.586zm-5.652-5.97a.636.636 0 00.635-.044.66.66 0 00.294-.553.666.666 0 00-.27-.538.637.637 0 00-.38-.125.656.656 0 00-.648.663c0 .263.15.49.37.597z" class="stroke_2" clip-rule="evenodd"/>
          <path fill="#2C2C2C" fill-rule="evenodd" d="M26.692 31.095c.078-.101.153-.204.225-.31.072.106.147.209.226.31 1.116 1.438 2.844 2.362 4.783 2.362 3.369 0 6.1-2.787 6.1-6.224 0-2.893-1.936-5.325-4.557-6.022a2.926 2.926 0 00-.042-.011 1.99 1.99 0 00-.429-.634l.002-.024c.01-.152.016-.305.016-.46 0-3.436-2.73-6.223-6.099-6.223-3.368 0-6.099 2.787-6.099 6.224 0 .154.006.307.016.46l.002.023a1.99 1.99 0 00-.429.634 2.926 2.926 0 00-.042.01c-2.621.698-4.556 3.13-4.556 6.023 0 3.438 2.73 6.224 6.1 6.224 1.938 0 3.666-.924 4.783-2.362zm.858-.33a5.694 5.694 0 01-.498-.757 1.434 1.434 0 01-.27 0 5.867 5.867 0 01-.497.758 5.53 5.53 0 01-4.377 2.161c-3.082 0-5.58-2.55-5.58-5.694 0-2.646 1.77-4.872 4.168-5.51.102-.027.205-.051.309-.072a1.46 1.46 0 01.575-.858 5.721 5.721 0 01-.043-.71c0-3.145 2.498-5.694 5.58-5.694s5.58 2.55 5.58 5.694a5.86 5.86 0 01-.043.71c.284.2.493.504.575.858.104.02.208.045.31.072 2.397.639 4.167 2.864 4.167 5.51 0 3.145-2.498 5.694-5.58 5.694a5.53 5.53 0 01-4.376-2.161z" class="stroke 2_2" clip-rule="evenodd"/>
        </g>
      </g>
      <g class="symbol_5">
        <g class="♣ clubs_3">
          <g class="fill_3">
            <path fill="#2C2C2C" d="M53.742 62.352a1.427 1.427 0 10-1.45 2.112 4.542 4.542 0 11-9.039 0 1.428 1.428 0 10-1.448-2.111 4.544 4.544 0 01.96-8.983 4.54 4.54 0 013.946 2.291 1.427 1.427 0 102.126 0 4.542 4.542 0 114.906 6.691z"/>
            <path fill="#2C2C2C" d="M52.497 62.402a.646.646 0 00-.649.649.648.648 0 10.649-.649zM48.422 56.614a.647.647 0 00-.649-.648.649.649 0 10.65.648zM43.05 62.402a.646.646 0 00-.65.649.649.649 0 10.65-.649z"/>
          </g>
          <path fill="#fff" fill-rule="evenodd" d="M47.14 54.45c.186.233.352.482.498.743a1.434 1.434 0 01.27 0 5.588 5.588 0 014.874-2.86 5.58 5.58 0 011.104 11.05 1.43 1.43 0 01-.576.841 5.607 5.607 0 01.043.695 5.58 5.58 0 11-11.117-.695 1.429 1.429 0 01-.575-.84 5.583 5.583 0 01-4.477-5.471 5.58 5.58 0 019.957-3.463zm5.357 7.952a.646.646 0 00-.649.649.648.648 0 10.649-.649zm-1.428.649c0 .719.532 1.314 1.224 1.413a4.542 4.542 0 11-9.039 0 1.428 1.428 0 10-1.45-2.111 4.544 4.544 0 01.96-8.983 4.54 4.54 0 013.947 2.291 1.427 1.427 0 102.126 0 4.542 4.542 0 114.906 6.691 1.427 1.427 0 00-2.674.699zm-2.647-6.437a.647.647 0 00-.649-.648.649.649 0 10.65.648zm-5.651 5.851a.646.646 0 01.634.043.652.652 0 01.294.543.648.648 0 11-.928-.586z" class="stroke_3" clip-rule="evenodd"/>
          <path fill="#2C2C2C" fill-rule="evenodd" d="M47.548 54.128c.078.099.153.2.225.303a6.089 6.089 0 015.01-2.618 6.1 6.1 0 011.543 12.001l-.043.011a1.95 1.95 0 01-.429.621l.002.023a6.099 6.099 0 11-12.165 0l.001-.023a1.949 1.949 0 01-.429-.621l-.042-.01a6.1 6.1 0 116.327-9.686zm.858.322a5.589 5.589 0 00-.33.463l-.035.055c-.046.074-.09.149-.133.225a1.437 1.437 0 00-.27 0 5.573 5.573 0 00-.497-.743 5.58 5.58 0 10-5.48 8.933c.083.346.291.644.575.841a5.726 5.726 0 00-.043.695 5.58 5.58 0 1011.117-.695 1.43 1.43 0 00.575-.84 5.582 5.582 0 004.477-5.471 5.58 5.58 0 00-9.956-3.463z" class="stroke 2_3" clip-rule="evenodd"/>
        </g>
      </g>
      <g class="symbol_6">
        <g class="♣ clubs_4">
          <g class="fill_4">
            <path fill="#2C2C2C" d="M31.98 67.34a1.427 1.427 0 10-1.45 2.111 4.542 4.542 0 11-9.039 0 1.428 1.428 0 10-1.45-2.111 4.542 4.542 0 114.906-6.691 1.427 1.427 0 102.126 0 4.542 4.542 0 114.906 6.691z"/>
            <path fill="#2C2C2C" d="M30.734 67.39a.646.646 0 00-.649.648.648.648 0 10.649-.649zM26.66 61.602a.646.646 0 00-.65-.65.649.649 0 10.65.65zM21.287 67.39a.646.646 0 00-.649.648.649.649 0 10.649-.649z"/>
          </g>
          <path fill="#fff" fill-rule="evenodd" d="M25.378 59.438c.185.233.351.481.497.743a1.434 1.434 0 01.27 0 5.57 5.57 0 014.874-2.861 5.58 5.58 0 011.104 11.05 1.43 1.43 0 01-.575.841 5.607 5.607 0 01.043.696 5.58 5.58 0 11-11.118-.696 1.429 1.429 0 01-.575-.84 5.582 5.582 0 01-4.477-5.471 5.58 5.58 0 019.957-3.462zm5.356 7.951a.646.646 0 00-.649.65.648.648 0 10.649-.65zm-1.428.65c0 .718.532 1.313 1.224 1.412a4.542 4.542 0 11-9.039 0 1.428 1.428 0 10-1.45-2.111 4.542 4.542 0 114.906-6.691 1.427 1.427 0 102.126 0 4.542 4.542 0 114.906 6.691 1.427 1.427 0 00-2.672.698zm-2.647-6.437a.646.646 0 00-.649-.65.649.649 0 10.65.65zm-5.651 5.85a.646.646 0 01.87.318.647.647 0 01-.212.795.649.649 0 11-.659-1.112z" class="stroke_4" clip-rule="evenodd"/>
          <path fill="#2C2C2C" fill-rule="evenodd" d="M25.785 59.115c.078.1.153.2.225.304a6.09 6.09 0 015.01-2.618 6.1 6.1 0 011.543 12l-.043.011a1.95 1.95 0 01-.429.621l.002.024a6.099 6.099 0 11-12.164-.023 1.95 1.95 0 01-.429-.622l-.042-.01a6.1 6.1 0 116.327-9.686zm.858.323a5.59 5.59 0 00-.498.743 1.437 1.437 0 00-.27 0 5.57 5.57 0 00-.133-.226l-.034-.055A5.592 5.592 0 0021 57.32a5.58 5.58 0 00-1.103 11.05c.083.347.292.644.575.841a5.726 5.726 0 00-.043.696 5.58 5.58 0 1011.117-.696 1.43 1.43 0 00.576-.84A5.582 5.582 0 0036.6 62.9a5.58 5.58 0 00-9.957-3.462z" class="stroke 2_4" clip-rule="evenodd"/>
        </g>
      </g>
      <g class="symbol_7">
        <g class="♣ clubs_5">
          <g class="fill_5">
            <path fill="#2C2C2C" d="M45.581 71.42a1.427 1.427 0 10-1.45 2.112 4.542 4.542 0 11-9.039 0 1.428 1.428 0 10-1.449-2.112 4.542 4.542 0 114.906-6.691 1.427 1.427 0 102.126 0 4.542 4.542 0 114.906 6.691z"/>
            <path fill="#2C2C2C" d="M44.336 71.47a.645.645 0 00-.649.649.648.648 0 10.649-.65zM40.261 65.682a.65.65 0 10-1.298 0 .65.65 0 001.298 0zM34.889 71.47a.646.646 0 00-.65.649.649.649 0 10.65-.65z"/>
          </g>
          <path fill="#fff" fill-rule="evenodd" d="M38.98 63.518a5.6 5.6 0 01.497.743 1.471 1.471 0 01.27 0 5.591 5.591 0 014.874-2.861 5.58 5.58 0 011.103 11.051 1.43 1.43 0 01-.575.84 5.722 5.722 0 01.043.696 5.58 5.58 0 11-11.117-.695 1.43 1.43 0 01-.575-.841 5.582 5.582 0 01-4.477-5.471 5.58 5.58 0 019.957-3.462zm5.356 7.952a.645.645 0 00-.649.649.648.648 0 10.649-.65zm-1.428.649c0 .719.532 1.314 1.224 1.413a4.542 4.542 0 11-9.039 0 1.428 1.428 0 10-1.45-2.112 4.542 4.542 0 114.906-6.691 1.427 1.427 0 102.126 0 4.542 4.542 0 114.906 6.691 1.427 1.427 0 00-2.673.699zm-2.647-6.437a.65.65 0 10-1.298 0 .65.65 0 001.298 0zm-5.652 5.85a.646.646 0 01.635.044.652.652 0 01.294.543.648.648 0 11-.928-.586z" class="stroke_5" clip-rule="evenodd"/>
          <path fill="#2C2C2C" fill-rule="evenodd" d="M39.387 63.196c.078.099.153.2.225.303a6.089 6.089 0 015.009-2.619 6.099 6.099 0 011.544 12.002l-.043.01a1.949 1.949 0 01-.429.622l.002.023a6.1 6.1 0 11-12.166 0l.002-.023a1.95 1.95 0 01-.429-.621 6.102 6.102 0 01-4.598-5.913 6.1 6.1 0 0110.883-3.784zm.858.322a5.608 5.608 0 00-.498.743 1.469 1.469 0 00-.27 0 5.522 5.522 0 00-.497-.743 5.58 5.58 0 10-5.48 8.933c.083.346.291.644.575.84a5.604 5.604 0 00-.043.696 5.58 5.58 0 1011.117-.695 1.43 1.43 0 00.575-.841 5.582 5.582 0 004.477-5.471 5.58 5.58 0 00-9.956-3.462z" class="stroke 2_5" clip-rule="evenodd"/>
        </g>
      </g>
      <g class="symbol_8">
        <g class="♣ clubs_6">
          <g class="fill_6">
            <path fill="#2C2C2C" d="M53.742 84.115a1.427 1.427 0 10-1.45 2.112 4.542 4.542 0 11-9.039 0 1.428 1.428 0 10-1.448-2.112 4.542 4.542 0 114.906-6.691 1.427 1.427 0 102.126 0 4.542 4.542 0 114.906 6.691z"/>
            <path fill="#2C2C2C" d="M52.497 84.165a.646.646 0 00-.649.649.648.648 0 10.649-.649zM48.422 78.377a.647.647 0 00-.649-.648.649.649 0 10.65.648zM43.05 84.165a.647.647 0 00-.65.649.649.649 0 10.65-.649z"/>
          </g>
          <path fill="#fff" fill-rule="evenodd" d="M47.14 76.213c.186.233.352.482.498.743a1.434 1.434 0 01.27 0 5.588 5.588 0 014.874-2.861 5.58 5.58 0 011.104 11.051 1.43 1.43 0 01-.576.84 5.607 5.607 0 01.043.696 5.58 5.58 0 11-11.117-.695 1.429 1.429 0 01-.575-.841 5.582 5.582 0 01-4.477-5.471 5.58 5.58 0 019.957-3.462zm5.357 7.952a.646.646 0 00-.649.649.648.648 0 10.649-.649zm-1.428.649c0 .719.532 1.314 1.224 1.413a4.542 4.542 0 11-9.039 0 1.428 1.428 0 10-1.45-2.112 4.542 4.542 0 114.906-6.691 1.427 1.427 0 102.126 0 4.542 4.542 0 114.906 6.691 1.427 1.427 0 00-2.673.699zm-2.647-6.437a.647.647 0 00-.649-.648.649.649 0 10.65.648zm-5.651 5.85a.648.648 0 01.928.587.648.648 0 11-.928-.586z" class="stroke_6" clip-rule="evenodd"/>
          <path fill="#2C2C2C" fill-rule="evenodd" d="M47.548 75.89c.078.1.153.2.225.304a6.089 6.089 0 015.01-2.618 6.1 6.1 0 011.5 12.012 1.95 1.95 0 01-.429.62l.002.024a6.1 6.1 0 11-12.165 0l.001-.023a1.949 1.949 0 01-.429-.621l-.042-.011a6.1 6.1 0 116.327-9.686zm.858.323a5.589 5.589 0 00-.33.463l-.035.055c-.046.074-.09.149-.133.225a1.437 1.437 0 00-.27 0 5.573 5.573 0 00-.497-.743 5.58 5.58 0 10-5.48 8.933c.083.346.291.644.575.84a5.726 5.726 0 00-.043.696 5.58 5.58 0 1011.117-.695 1.43 1.43 0 00.575-.841 5.582 5.582 0 004.477-5.471 5.58 5.58 0 00-9.956-3.462z" class="stroke 2_6" clip-rule="evenodd"/>
        </g>
      </g>
      <g class="symbol_9">
        <g class="♣ clubs_7">
          <g class="fill_7">
            <path fill="#2C2C2C" d="M31.98 83.907a1.422 1.422 0 00-1.246-.744c-.788 0-1.428.652-1.428 1.457 0 .733.532 1.34 1.224 1.441.015.153.022.308.022.465 0 2.56-2.033 4.635-4.542 4.635-2.508 0-4.541-2.075-4.541-4.635 0-.157.007-.312.022-.465a1.448 1.448 0 001.223-1.442c0-.804-.639-1.456-1.427-1.456-.535 0-1 .3-1.245.744-2.048-.45-3.583-2.308-3.583-4.531 0-2.56 2.034-4.635 4.542-4.635 1.688 0 3.163.94 3.947 2.338a1.468 1.468 0 00-.365.973c0 .804.64 1.456 1.427 1.456.789 0 1.428-.652 1.428-1.456 0-.374-.138-.715-.365-.973.784-1.398 2.258-2.338 3.947-2.338 2.508 0 4.541 2.075 4.541 4.635 0 2.223-1.535 4.082-3.582 4.53z"/>
            <path fill="#2C2C2C" d="M30.734 83.957a.637.637 0 00-.356.109.662.662 0 00-.293.553c0 .222.106.417.27.538a.637.637 0 00.379.124.656.656 0 00.649-.662.663.663 0 00-.37-.597.634.634 0 00-.279-.065zM26.66 78.052a.653.653 0 00-.649-.662.653.653 0 00-.65.662c0 .254.142.476.349.586a.635.635 0 00.601 0 .664.664 0 00.348-.586zM21.287 83.957c-.1 0-.195.023-.28.065a.663.663 0 00-.369.597c0 .366.29.662.649.662a.637.637 0 00.38-.124.665.665 0 00.21-.811.66.66 0 00-.235-.28.637.637 0 00-.355-.109z"/>
          </g>
          <path fill="#fff" fill-rule="evenodd" d="M25.378 75.843c.185.238.351.492.497.758a1.401 1.401 0 01.27 0c.147-.266.313-.52.498-.758a5.53 5.53 0 014.377-2.161c3.081 0 5.58 2.55 5.58 5.694 0 2.647-1.77 4.871-4.168 5.51a5.381 5.381 0 01-.31.072 1.46 1.46 0 01-.575.859 5.828 5.828 0 01.043.71c0 3.144-2.498 5.693-5.58 5.693-3.081 0-5.58-2.55-5.58-5.694a5.917 5.917 0 01.043-.71 1.459 1.459 0 01-.575-.858 5.404 5.404 0 01-.309-.072c-2.398-.638-4.168-2.863-4.168-5.51 0-3.145 2.499-5.694 5.58-5.694a5.53 5.53 0 014.377 2.161zm5.356 8.114a.637.637 0 00-.356.109.662.662 0 00-.293.553c0 .222.106.417.27.538a.637.637 0 00.379.124.656.656 0 00.649-.662.663.663 0 00-.37-.597.635.635 0 00-.279-.065zm-1.428.663c0 .733.532 1.34 1.224 1.441.015.153.022.308.022.465 0 2.56-2.033 4.635-4.542 4.635-2.508 0-4.542-2.075-4.542-4.635 0-.157.008-.312.023-.465a1.448 1.448 0 001.223-1.442c0-.804-.639-1.456-1.427-1.456-.535 0-1 .3-1.245.744-2.048-.45-3.583-2.308-3.583-4.531 0-2.56 2.034-4.635 4.542-4.635 1.688 0 3.163.94 3.947 2.338a1.468 1.468 0 00-.365.973c0 .804.64 1.456 1.427 1.456.789 0 1.428-.652 1.428-1.456 0-.374-.138-.715-.365-.973.784-1.398 2.258-2.338 3.947-2.338 2.508 0 4.541 2.075 4.541 4.635 0 2.223-1.535 4.082-3.582 4.53a1.422 1.422 0 00-1.245-.743c-.788 0-1.428.652-1.428 1.457zm-2.647-6.568a.653.653 0 00-.649-.662.653.653 0 00-.648.662c0 .254.14.476.348.586a.634.634 0 00.601 0 .664.664 0 00.348-.586zm-5.651 5.97a.636.636 0 01.634.044.66.66 0 01.294.553.665.665 0 01-.27.538.637.637 0 01-.38.124.656.656 0 01-.648-.662c0-.263.151-.49.37-.597z" class="stroke_7" clip-rule="evenodd"/>
          <path fill="#2C2C2C" fill-rule="evenodd" d="M25.785 75.514c.078.101.153.205.225.31.072-.105.148-.209.226-.31 1.116-1.438 2.844-2.362 4.784-2.362 3.368 0 6.099 2.787 6.099 6.224 0 2.893-1.935 5.325-4.556 6.022l-.043.011a1.99 1.99 0 01-.429.634l.002.024c.011.152.016.305.016.46 0 3.436-2.73 6.223-6.099 6.223-3.368 0-6.099-2.787-6.099-6.224 0-.154.006-.307.017-.46 0-.007 0-.015.002-.023a1.989 1.989 0 01-.43-.634l-.042-.01c-2.62-.698-4.556-3.13-4.556-6.023 0-3.437 2.73-6.224 6.1-6.224 1.939 0 3.667.924 4.783 2.362zm.858.33a5.71 5.71 0 00-.498.758 1.403 1.403 0 00-.27 0 5.747 5.747 0 00-.133-.23l-.034-.057a5.712 5.712 0 00-.33-.472 5.53 5.53 0 00-4.377-2.161c-3.081 0-5.58 2.55-5.58 5.694 0 2.647 1.77 4.871 4.168 5.51.102.027.205.051.31.072.082.354.29.657.574.859a5.95 5.95 0 00-.043.71c0 3.144 2.499 5.693 5.58 5.693 3.082 0 5.58-2.55 5.58-5.694a5.917 5.917 0 00-.043-.71 1.46 1.46 0 00.576-.858c.104-.02.207-.045.309-.072 2.398-.638 4.167-2.863 4.167-5.51 0-3.145-2.498-5.694-5.58-5.694a5.53 5.53 0 00-4.376 2.161z" class="stroke 2_7" clip-rule="evenodd"/>
        </g>
      </g>
      <g class="symbol_10">
        <g class="♣ clubs_8">
          <g class="fill_8">
            <path fill="#2C2C2C" d="M53.742 44.71a1.427 1.427 0 11-1.45-2.111 4.542 4.542 0 10-9.039 0 1.428 1.428 0 11-1.448 2.11A4.542 4.542 0 1046.71 51.4a1.427 1.427 0 112.126 0 4.542 4.542 0 104.906-6.691z"/>
            <path fill="#2C2C2C" d="M52.497 44.66a.645.645 0 01-.649-.648.648.648 0 11.649.648zM48.422 50.448a.646.646 0 01-.649.649.649.649 0 11.65-.649zM43.05 44.66a.646.646 0 01-.65-.648.649.649 0 11.65.648z"/>
          </g>
          <path fill="#fff" fill-rule="evenodd" d="M47.14 52.612c.186-.233.352-.482.498-.743a1.434 1.434 0 00.27 0 5.57 5.57 0 004.874 2.861 5.58 5.58 0 001.104-11.05 1.43 1.43 0 00-.576-.841 5.619 5.619 0 00.043-.696 5.58 5.58 0 10-11.117.696 1.429 1.429 0 00-.575.84 5.582 5.582 0 00-4.477 5.471 5.58 5.58 0 009.957 3.462zm5.357-7.952a.645.645 0 01-.649-.648.648.648 0 11.649.648zm-1.428-.648c0-.72.532-1.314 1.224-1.413a4.542 4.542 0 10-9.039 0 1.428 1.428 0 11-1.45 2.11A4.542 4.542 0 1046.71 51.4a1.427 1.427 0 112.126 0 4.542 4.542 0 104.906-6.691 1.427 1.427 0 01-2.673-.698zm-2.647 6.436a.646.646 0 01-.649.649.649.649 0 11.65-.649zm-5.651-5.85a.646.646 0 00.634-.044.652.652 0 00.294-.543.648.648 0 10-.928.586z" class="stroke_8" clip-rule="evenodd"/>
          <path fill="#2C2C2C" fill-rule="evenodd" d="M47.548 52.934c.078-.098.153-.2.225-.303a6.09 6.09 0 005.01 2.619 6.1 6.1 0 001.5-12.013 1.95 1.95 0 00-.429-.62l.002-.024a6.1 6.1 0 10-12.165 0l.001.023c-.18.176-.327.386-.429.621l-.042.011a6.1 6.1 0 106.327 9.686zm.858-.322a5.607 5.607 0 01-.498-.743 1.437 1.437 0 01-.27 0 5.64 5.64 0 01-.497.743 5.58 5.58 0 11-5.48-8.933c.083-.346.291-.643.575-.84a5.738 5.738 0 01-.043-.696 5.58 5.58 0 1111.117.696c.284.197.493.494.575.84a5.582 5.582 0 014.477 5.471 5.58 5.58 0 01-9.956 3.462z" class="stroke 2_8" clip-rule="evenodd"/>
        </g>
      </g>
      <g class="symbol_11">
        <g class="♣ clubs_9">
          <g class="fill_9">
            <path fill="#2C2C2C" d="M53.742 21.134a1.427 1.427 0 11-1.45-2.112 4.542 4.542 0 10-9.039 0 1.428 1.428 0 11-1.448 2.112 4.544 4.544 0 00.96 8.982 4.54 4.54 0 003.946-2.291 1.427 1.427 0 112.126 0 4.542 4.542 0 104.906-6.691z"/>
            <path fill="#2C2C2C" d="M52.497 21.084a.646.646 0 01-.649-.649.648.648 0 11.649.649zM48.422 26.872a.648.648 0 11-1.296 0 .648.648 0 011.296 0zM43.05 21.084a.646.646 0 01-.65-.649.649.649 0 11.65.649z"/>
          </g>
          <path fill="#fff" fill-rule="evenodd" d="M47.14 29.036c.186-.234.352-.482.498-.743a1.434 1.434 0 00.27 0 5.57 5.57 0 004.874 2.861 5.58 5.58 0 001.104-11.051 1.43 1.43 0 00-.576-.841 5.607 5.607 0 00.043-.695 5.58 5.58 0 10-11.117.695 1.429 1.429 0 00-.575.84 5.57 5.57 0 00-4.477 5.472 5.58 5.58 0 009.957 3.462zm5.357-7.952a.646.646 0 01-.649-.649.648.648 0 11.649.649zm-1.428-.649c0-.719.532-1.314 1.224-1.413a4.542 4.542 0 10-9.039 0 1.428 1.428 0 11-1.45 2.112 4.544 4.544 0 00.96 8.982 4.54 4.54 0 003.947-2.291 1.427 1.427 0 112.126 0 4.542 4.542 0 104.906-6.691 1.427 1.427 0 01-2.674-.699zm-2.647 6.437a.648.648 0 11-1.296 0 .648.648 0 011.296 0zm-5.651-5.851a.646.646 0 00.634-.043.652.652 0 00.294-.543.648.648 0 10-.928.586z" class="stroke_9" clip-rule="evenodd"/>
          <path fill="#2C2C2C" fill-rule="evenodd" d="M47.548 29.358c.078-.099.153-.2.225-.303a6.09 6.09 0 005.01 2.618 6.1 6.1 0 001.5-12.012 1.95 1.95 0 00-.429-.621l.002-.023a6.099 6.099 0 10-12.165 0l.001.023c-.18.175-.327.386-.429.621a6.101 6.101 0 00-4.598 5.913 6.1 6.1 0 0010.883 3.784zm.858-.322a5.59 5.59 0 01-.498-.743 1.437 1.437 0 01-.27 0 5.57 5.57 0 01-.497.743 5.58 5.58 0 11-5.48-8.933c.083-.347.291-.644.575-.841a5.726 5.726 0 01-.043-.695 5.58 5.58 0 1111.117.695c.284.197.493.494.575.84a5.582 5.582 0 014.477 5.471 5.58 5.58 0 01-9.956 3.463z" class="stroke 2_9" clip-rule="evenodd"/>
        </g>
      </g>
      <g class="symbol_12">
        <g class="♣ clubs_10">
          <g class="fill_10">
            <path fill="#2C2C2C" d="M45.581 34.282a1.427 1.427 0 11-1.45-2.111 4.542 4.542 0 10-9.039 0 1.428 1.428 0 11-1.449 2.11 4.542 4.542 0 104.906 6.691 1.427 1.427 0 112.126 0 4.542 4.542 0 104.906-6.691z"/>
            <path fill="#2C2C2C" d="M44.336 34.232a.646.646 0 01-.649-.648.648.648 0 11.649.648zM40.261 40.02a.649.649 0 11-1.298 0 .649.649 0 011.298 0zM34.889 34.232a.646.646 0 01-.65-.648.649.649 0 11.65.648z"/>
          </g>
          <path fill="#fff" fill-rule="evenodd" d="M38.98 42.184c.185-.233.351-.481.497-.743a1.437 1.437 0 00.27 0 5.57 5.57 0 004.874 2.861 5.58 5.58 0 001.103-11.05 1.429 1.429 0 00-.575-.842 5.726 5.726 0 00.043-.695 5.58 5.58 0 10-11.117.695 1.43 1.43 0 00-.575.841 5.583 5.583 0 00-4.477 5.471 5.58 5.58 0 009.957 3.462zm5.356-7.952a.646.646 0 01-.649-.648.648.648 0 11.649.648zm-1.428-.648c0-.72.532-1.314 1.224-1.414a4.542 4.542 0 10-9.039 0 1.428 1.428 0 11-1.45 2.112 4.542 4.542 0 104.906 6.691 1.427 1.427 0 112.126 0 4.542 4.542 0 104.906-6.691 1.427 1.427 0 01-2.673-.699zm-2.647 6.436a.649.649 0 11-1.298 0 .649.649 0 011.298 0zm-5.652-5.85a.646.646 0 00.635-.044.653.653 0 00.294-.542.648.648 0 10-.928.585z" class="stroke_10" clip-rule="evenodd"/>
          <path fill="#2C2C2C" fill-rule="evenodd" d="M39.387 42.506c.078-.098.153-.2.225-.303a6.089 6.089 0 005.009 2.618 6.1 6.1 0 001.544-12l-.043-.012a1.949 1.949 0 00-.429-.62l.002-.024a6.1 6.1 0 10-12.166 0l.002.023a1.95 1.95 0 00-.429.621l-.042.011a6.1 6.1 0 106.327 9.686zm.858-.322a5.59 5.59 0 01-.498-.743 1.434 1.434 0 01-.27 0 5.459 5.459 0 01-.497.743 5.58 5.58 0 11-5.48-8.933 1.43 1.43 0 01.575-.84 5.607 5.607 0 01-.043-.696 5.58 5.58 0 1111.117.695c.284.198.493.495.575.841a5.583 5.583 0 014.477 5.471 5.58 5.58 0 01-9.956 3.462z" class="stroke 2_10" clip-rule="evenodd"/>
        </g>
      </g>
    </g>
  </g>
</svg>
