<svg xmlns="http://www.w3.org/2000/svg" width="80" height="111" fill="none" viewBox="0 0 80 111">
  <g class="three_heart">
    <rect width="74.81" height="104.734" x=".188" y=".359" fill="#fff" rx="3.62"/>
    <rect width="78.991" height="110.588" x=".188" y=".359" fill="#fff" class="bg" rx="3.62"/>
    <g class="icons">
      <g class="symbol">
        <g class="♥ hearts">
          <g class="fill">
            <path fill="#F24E1E" d="M47.357 48.386c-1.729-1.754-4.173-1.711-6.113-.597a1.43 1.43 0 01-1.384 1.777 1.427 1.427 0 01-1.384-1.777c-1.94-1.114-4.384-1.157-6.112.597-.89.902-1.3 2.015-1.325 3.168a1.428 1.428 0 01.527 2.52c.264.603.62 1.183 1.055 1.712 1.778 2.166 4.144 4.059 6.448 5.724a1.421 1.421 0 011.581 0c2.305-1.665 4.672-3.557 6.45-5.724.434-.53.79-1.109 1.054-1.712a1.428 1.428 0 01.528-2.52c-.025-1.153-.437-2.266-1.325-3.168z"/>
            <path fill="#F24E1E" d="M39.467 48.655a.651.651 0 01.393-1.165.649.649 0 11-.393 1.165zM39.86 62.05l.034.001a.649.649 0 11-.034 0zM48.452 53.25a.646.646 0 01.177-.826.649.649 0 11-.177.827zM30.699 53.59a.649.649 0 100-1.298.649.649 0 000 1.297z"/>
          </g>
          <path fill="#fff" fill-rule="evenodd" d="M49.722 51.697c.014-1.44-.469-2.866-1.627-4.041-2.18-2.214-5.182-2.053-7.454-.712a1.42 1.42 0 00-.78-.232 1.42 1.42 0 00-.781.232c-2.272-1.34-5.274-1.502-7.455.712-1.158 1.175-1.64 2.602-1.627 4.04a1.427 1.427 0 00.567 2.666 8.36 8.36 0 001.254 2.085c1.865 2.272 4.324 4.231 6.653 5.914a1.427 1.427 0 102.775 0c2.33-1.682 4.789-3.642 6.654-5.914a8.363 8.363 0 001.254-2.085 1.428 1.428 0 00.567-2.666zm-8.478-3.908c1.94-1.114 4.384-1.157 6.113.597a4.543 4.543 0 011.325 3.168 1.428 1.428 0 00-.528 2.52 7.358 7.358 0 01-1.055 1.712c-1.777 2.167-4.144 4.06-6.448 5.725a1.42 1.42 0 00-1.581 0c-2.305-1.666-4.671-3.559-6.449-5.725a7.548 7.548 0 01-.558-.775 7.154 7.154 0 01-.497-.937 1.425 1.425 0 00.478-1.612 1.43 1.43 0 00-1.005-.908c.024-1.153.436-2.266 1.325-3.168 1.728-1.754 4.173-1.711 6.112-.597a1.43 1.43 0 00.069.906 1.428 1.428 0 002.7-.906zm-1.777.866a.65.65 0 11.787-1.033.65.65 0 01-.787 1.033zm.427 13.396a.649.649 0 10-.07 1.296.649.649 0 00.07-1.296zm8.558-8.8a.647.647 0 01.177-.827.649.649 0 11-.177.827zm-17.105-.31a.649.649 0 11-1.297 0 .649.649 0 011.297 0z" class="stroke" clip-rule="evenodd"/>
          <g class="stroke 2">
            <path fill="#F24E1E" d="M31.039 51.554zM38.476 47.789z"/>
            <path fill="#F24E1E" fill-rule="evenodd" d="M28.752 52.94c0-.615.286-1.163.73-1.52a6.054 6.054 0 011.773-4.128c2.31-2.345 5.445-2.232 7.833-.94a1.941 1.941 0 011.545 0c2.387-1.292 5.523-1.405 7.832.94a6.054 6.054 0 011.773 4.129 1.947 1.947 0 01-.718 3.402 8.907 8.907 0 01-1.218 1.953c-1.84 2.243-4.234 4.174-6.498 5.823l.002.1a1.947 1.947 0 11-3.89-.1c-2.265-1.65-4.658-3.58-6.498-5.823a8.907 8.907 0 01-1.218-1.953 1.947 1.947 0 01-1.448-1.882zm2.873-5.284A5.537 5.537 0 0030 51.445a6.206 6.206 0 00-.003.252 1.426 1.426 0 00.567 2.665 8.38 8.38 0 001.254 2.085c1.865 2.272 4.324 4.232 6.653 5.914a1.427 1.427 0 102.775 0c2.33-1.682 4.789-3.642 6.654-5.914a8.38 8.38 0 001.254-2.085 1.428 1.428 0 00.567-2.665 5.537 5.537 0 00-1.627-4.04c-2.18-2.215-5.182-2.054-7.454-.713a1.42 1.42 0 00-.78-.232 1.42 1.42 0 00-.781.232c-2.272-1.34-5.274-1.502-7.455.712z" clip-rule="evenodd"/>
          </g>
        </g>
      </g>
      <g class="symbol_2">
        <g class="♥ hearts_2">
          <g class="fill_2">
            <path fill="#F24E1E" d="M47.357 82.003c-1.729 1.754-4.173 1.711-6.113.598a1.427 1.427 0 10-2.768 0c-1.94 1.113-4.384 1.156-6.112-.598-.89-.902-1.3-2.014-1.325-3.168a1.428 1.428 0 00.527-2.52 7.358 7.358 0 011.055-1.712c1.778-2.166 4.144-4.059 6.448-5.724a1.42 1.42 0 001.581 0c2.305 1.665 4.672 3.558 6.45 5.724.434.53.79 1.11 1.054 1.712a1.428 1.428 0 00.528 2.52c-.025 1.154-.437 2.266-1.325 3.168z"/>
            <path fill="#F24E1E" d="M39.467 81.734a.651.651 0 00.393 1.165.649.649 0 10-.393-1.165zM39.86 68.339l.034-.001a.649.649 0 10-.034 0zM48.452 77.138a.646.646 0 00.177.827.649.649 0 10-.177-.827zM30.699 76.8a.649.649 0 110 1.297.649.649 0 010-1.297z"/>
          </g>
          <path fill="#fff" fill-rule="evenodd" d="M49.722 78.693c.014 1.439-.469 2.865-1.627 4.04-2.18 2.214-5.182 2.053-7.454.713a1.42 1.42 0 01-.78.232 1.42 1.42 0 01-.781-.232c-2.272 1.34-5.274 1.5-7.455-.713-1.158-1.175-1.64-2.601-1.627-4.04a1.427 1.427 0 01.567-2.666 8.36 8.36 0 011.254-2.084c1.865-2.273 4.324-4.232 6.653-5.915a1.427 1.427 0 112.775 0c2.33 1.682 4.789 3.642 6.654 5.915a8.363 8.363 0 011.254 2.084 1.428 1.428 0 01.567 2.666zM41.244 82.6c1.94 1.114 4.384 1.157 6.113-.597a4.543 4.543 0 001.325-3.168 1.428 1.428 0 01-.528-2.52 7.358 7.358 0 00-1.055-1.712c-1.777-2.166-4.144-4.059-6.448-5.725a1.42 1.42 0 01-.791.24 1.42 1.42 0 01-.79-.24c-2.305 1.666-4.671 3.559-6.449 5.725-.204.248-.39.508-.558.775a7.16 7.16 0 00-.497.937 1.425 1.425 0 01.478 1.612 1.43 1.43 0 01-1.005.908c.024 1.154.436 2.266 1.325 3.168 1.728 1.754 4.173 1.712 6.112.598a1.43 1.43 0 01.069-.906 1.428 1.428 0 012.7.906zm-1.777-.866a.65.65 0 10.787 1.033.65.65 0 00-.787-1.033zm.427-13.396h-.034a.649.649 0 11.034 0zm8.558 8.8a.647.647 0 00.177.827.649.649 0 10-.177-.827zm-17.105.31a.649.649 0 10-1.297 0 .649.649 0 001.297 0z" class="stroke_2" clip-rule="evenodd"/>
          <g class="stroke 2_2">
            <path fill="#F24E1E" d="M31.039 78.835zM38.476 82.6z"/>
            <path fill="#F24E1E" fill-rule="evenodd" d="M28.752 77.449c0 .615.286 1.163.73 1.52a6.054 6.054 0 001.773 4.129c2.31 2.344 5.445 2.231 7.833.94a1.943 1.943 0 001.545 0c2.387 1.291 5.523 1.404 7.832-.94a6.054 6.054 0 001.773-4.13 1.947 1.947 0 00-.718-3.402 8.903 8.903 0 00-1.218-1.953c-1.84-2.242-4.234-4.174-6.498-5.823l.002-.1a1.947 1.947 0 10-3.89.1c-2.265 1.65-4.658 3.58-6.498 5.823a8.903 8.903 0 00-1.218 1.954c-.834.22-1.448.979-1.448 1.882zm2.873 5.284A5.537 5.537 0 0130 78.944a6.206 6.206 0 01-.003-.251 1.426 1.426 0 01-.727-1.244 1.428 1.428 0 011.294-1.422 8.38 8.38 0 011.254-2.085c1.865-2.272 4.324-4.231 6.653-5.914a1.427 1.427 0 112.775 0c2.33 1.682 4.789 3.642 6.654 5.915a8.38 8.38 0 011.254 2.084 1.428 1.428 0 01.567 2.665 5.537 5.537 0 01-1.627 4.04c-2.18 2.215-5.182 2.054-7.454.714a1.42 1.42 0 01-.78.232 1.42 1.42 0 01-.781-.232c-2.272 1.34-5.274 1.5-7.455-.713z" clip-rule="evenodd"/>
          </g>
        </g>
      </g>
      <g class="symbol_3">
        <g class="♥ hearts_3">
          <g class="fill_3">
            <path fill="#F24E1E" d="M46.903 23.45c-1.728-1.755-4.173-1.712-6.112-.598a1.427 1.427 0 11-2.768 0c-1.94-1.114-4.385-1.157-6.113.597-.889.903-1.3 2.015-1.325 3.168a1.428 1.428 0 01.528 2.52c.264.603.62 1.183 1.055 1.713 1.777 2.166 4.144 4.058 6.448 5.724a1.42 1.42 0 011.581 0c2.305-1.666 4.671-3.558 6.449-5.724.435-.53.791-1.11 1.055-1.713a1.428 1.428 0 01.528-2.52c-.025-1.153-.437-2.265-1.326-3.168z"/>
            <path fill="#F24E1E" d="M39.014 23.718a.651.651 0 01.393-1.165.649.649 0 11-.394 1.165zM39.406 37.114h.035a.649.649 0 11-.035 0zM47.998 28.314a.646.646 0 01.177-.826.649.649 0 11-.177.827zM30.245 28.653a.649.649 0 100-1.298.649.649 0 000 1.298z"/>
          </g>
          <path fill="#fff" fill-rule="evenodd" d="M49.269 26.76c.013-1.439-.469-2.865-1.627-4.04-2.18-2.214-5.183-2.053-7.455-.713a1.42 1.42 0 00-.78-.232 1.42 1.42 0 00-.78.232c-2.273-1.34-5.275-1.501-7.456.712-1.157 1.176-1.64 2.602-1.626 4.04a1.427 1.427 0 00.567 2.666 8.36 8.36 0 001.254 2.085c1.865 2.272 4.324 4.232 6.653 5.914a1.427 1.427 0 102.774 0c2.33-1.682 4.79-3.641 6.655-5.914a8.363 8.363 0 001.254-2.085 1.428 1.428 0 00.567-2.665zm-8.478-3.908c1.94-1.114 4.384-1.157 6.112.598a4.543 4.543 0 011.325 3.167 1.428 1.428 0 00-.527 2.52 7.358 7.358 0 01-1.055 1.713c-1.778 2.166-4.144 4.058-6.449 5.724a1.421 1.421 0 00-.79-.239 1.42 1.42 0 00-.791.239c-2.304-1.666-4.67-3.558-6.448-5.724a7.557 7.557 0 01-.559-.776 7.167 7.167 0 01-.496-.937 1.425 1.425 0 00.477-1.611 1.43 1.43 0 00-1.005-.909c.025-1.153.436-2.265 1.325-3.168 1.729-1.754 4.173-1.71 6.113-.597a1.431 1.431 0 00.069.906 1.428 1.428 0 002.699-.906zm-1.777.866a.65.65 0 11.787-1.033.65.65 0 01-.788 1.034zm.427 13.397l-.035-.001a.649.649 0 10.035 0zm8.557-8.8a.647.647 0 01.177-.828.649.649 0 11-.177.827zm-17.104-.311a.649.649 0 11-1.298 0 .649.649 0 011.298 0z" class="stroke_3" clip-rule="evenodd"/>
          <g class="stroke 2_3">
            <path fill="#F24E1E" d="M30.585 26.617zM38.023 22.852z"/>
            <path fill="#F24E1E" fill-rule="evenodd" d="M28.299 28.004c0-.616.285-1.164.73-1.52a6.054 6.054 0 011.773-4.129c2.31-2.345 5.444-2.232 7.832-.94a1.943 1.943 0 011.545 0c2.388-1.292 5.523-1.405 7.833.94a6.054 6.054 0 011.773 4.13 1.947 1.947 0 01-.718 3.402 8.903 8.903 0 01-1.218 1.952c-1.84 2.243-4.234 4.174-6.499 5.824a1.947 1.947 0 11-3.888 0c-2.264-1.65-4.657-3.581-6.497-5.824a8.903 8.903 0 01-1.219-1.953 1.947 1.947 0 01-1.447-1.882zm2.873-5.285a5.537 5.537 0 00-1.625 3.79 6.206 6.206 0 00-.002.25 1.426 1.426 0 00-.727 1.244 1.428 1.428 0 001.294 1.422 8.253 8.253 0 001.254 2.085c1.865 2.272 4.324 4.232 6.653 5.914a1.427 1.427 0 102.774 0c2.33-1.682 4.79-3.641 6.655-5.914a8.38 8.38 0 001.254-2.085 1.428 1.428 0 00.567-2.666c0-.083 0-.167-.003-.25a5.537 5.537 0 00-1.624-3.79c-2.18-2.213-5.183-2.052-7.455-.712a1.42 1.42 0 00-.78-.232 1.42 1.42 0 00-.78.232c-2.273-1.34-5.275-1.501-7.456.712z" clip-rule="evenodd"/>
          </g>
        </g>
      </g>
    </g>
    <g class="down">
      <g class="letter">
        <path fill="#222" d="M61.396 90.42l1.807.935c.624-1.286 1.757-1.92 3.416-1.92.854 0 1.576.233 2.15.701.576.468.871 1.303.871 2.489 0 1.12-.344 1.888-1.018 2.288-.673.401-1.478.602-2.381.602h-.969v1.47h.969c.772 0 1.462.217 2.07.634.623.435.919 1.103.919 2.005 0 .885-.246 1.537-.74 1.938-.492.4-1.116.601-1.871.601-1.396 0-2.414-.635-3.022-1.921l-1.806.935c1.215 1.704 2.824 2.556 4.844 2.556 1.412 0 2.578-.367 3.465-1.119s1.33-1.737 1.33-2.99c0-1.654-.87-2.79-2.627-3.374 2.02-.451 3.022-1.654 3.022-3.625 0-1.554-.493-2.74-1.479-3.541-.985-.802-2.217-1.22-3.727-1.22-2.267 0-4.007.852-5.223 2.556z" class="Vector"/>
      </g>
      <g class="symbol_4">
        <path fill="#F24E1E" d="M67.709 79.887c.707.863.875 2.068.099 2.856-.838.853-2.114.606-2.888-.181-.774.787-2.05 1.034-2.888.181-.776-.788-.608-1.993.099-2.856.764-.932 1.809-1.733 2.789-2.427.98.694 2.025 1.495 2.789 2.427z" class="♥ hearts_4"/>
      </g>
    </g>
    <g class="up">
      <g class="letter_2">
        <path fill="#222" d="M5.176 16.393l1.806-.936c.624 1.287 1.757 1.921 3.416 1.921.854 0 1.576-.234 2.151-.701.575-.468.87-1.303.87-2.49 0-1.118-.344-1.887-1.018-2.288-.673-.4-1.478-.601-2.38-.601h-.97v-1.47h.97c.77 0 1.46-.217 2.068-.635.624-.434.92-1.102.92-2.004 0-.885-.246-1.537-.739-1.938-.493-.4-1.117-.601-1.872-.601-1.396 0-2.414.635-3.022 1.92L5.57 5.636C6.785 3.932 8.394 3.08 10.414 3.08c1.413 0 2.579.367 3.465 1.119.887.752 1.33 1.737 1.33 2.99 0 1.654-.87 2.79-2.627 3.374 2.02.451 3.022 1.654 3.022 3.625 0 1.553-.493 2.74-1.478 3.541-.986.802-2.217 1.22-3.728 1.22-2.266 0-4.007-.853-5.222-2.556z" class="Vector_2"/>
      </g>
      <g class="symbol_5">
        <path fill="#F24E1E" d="M7.578 25.525c-.707-.863-.874-2.067-.099-2.856.839-.853 2.114-.606 2.888.182.774-.788 2.05-1.035 2.888-.182.776.789.608 1.993-.099 2.856-.763.932-1.809 1.733-2.789 2.428-.98-.695-2.025-1.496-2.789-2.428z" class="♥ hearts_5"/>
      </g>
    </g>
  </g>
</svg>
