<svg xmlns="http://www.w3.org/2000/svg" width="80" height="112" fill="none" viewBox="0 0 80 112">
  <g class="three_clubs">
    <rect width="74.81" height="104.734" x=".188" y=".938" fill="#fff" rx="3.62"/>
    <rect width="78.991" height="110.588" x=".188" y=".938" fill="#fff" class="bg" rx="3.62"/>
    <g class="down">
      <g class="letter">
        <path fill="#222" d="M61.396 90.998l1.807.936c.624-1.287 1.757-1.921 3.416-1.921.854 0 1.576.234 2.15.701.576.468.871 1.303.871 2.49 0 1.118-.344 1.887-1.018 2.288-.673.4-1.478.6-2.381.6h-.969v1.47h.969c.772 0 1.462.218 2.07.636.623.434.919 1.102.919 2.004 0 .885-.246 1.537-.74 1.938-.492.401-1.116.601-1.871.601-1.396 0-2.414-.635-3.022-1.921l-1.806.936c1.215 1.703 2.824 2.555 4.844 2.555 1.412 0 2.578-.367 3.465-1.119s1.33-1.737 1.33-2.99c0-1.654-.87-2.79-2.627-3.374 2.02-.451 3.022-1.654 3.022-3.625 0-1.553-.493-2.74-1.479-3.541-.985-.802-2.217-1.22-3.727-1.22-2.267 0-4.007.853-5.223 2.556z" class="Vector"/>
      </g>
      <g class="symbol">
        <path fill="#2C2C2C" d="M63.206 81.826l.125-.47-.484-.032a1.75 1.75 0 111.691-2.517l.359.728.359-.728a1.75 1.75 0 111.69 2.517l-.483.033.125.469a1.752 1.752 0 01-1.691 2.201 1.75 1.75 0 01-1.69-2.201z" class="♣ club"/>
      </g>
    </g>
    <g class="up">
      <g class="letter_2">
        <path fill="#222" d="M5.176 16.971l1.806-.935c.624 1.286 1.757 1.92 3.416 1.92.854 0 1.576-.233 2.151-.701.575-.468.87-1.303.87-2.489 0-1.12-.344-1.887-1.018-2.288-.673-.401-1.478-.602-2.38-.602h-.97v-1.47h.97c.77 0 1.46-.217 2.068-.634.624-.435.92-1.103.92-2.005 0-.885-.246-1.537-.739-1.938-.493-.4-1.117-.6-1.872-.6-1.396 0-2.414.634-3.022 1.92L5.57 6.214c1.215-1.704 2.824-2.556 4.844-2.556 1.413 0 2.579.367 3.465 1.12.887.75 1.33 1.736 1.33 2.99 0 1.653-.87 2.789-2.627 3.373 2.02.451 3.022 1.654 3.022 3.625 0 1.554-.493 2.74-1.478 3.541-.986.802-2.217 1.22-3.728 1.22-2.266 0-4.007-.852-5.222-2.556z" class="Vector_2"/>
      </g>
      <g class="symbol_2">
        <path fill="#2C2C2C" d="M12.081 24.743l-.125.469.484.033a1.75 1.75 0 11-1.69 2.517l-.36-.729-.358.729a1.75 1.75 0 11-1.692-2.517l.485-.033-.125-.47a1.752 1.752 0 011.69-2.2 1.75 1.75 0 011.691 2.2z" class="♣ club_2"/>
      </g>
    </g>
    <g class="icons">
      <g class="symbol_3">
        <g class="♣ clubs">
          <g class="fill">
            <path fill="#2C2C2C" d="M47.71 54.993a1.66 1.66 0 11-1.686-2.456 5.283 5.283 0 10-10.514 0 1.66 1.66 0 11-1.686 2.456 5.283 5.283 0 105.707 7.783 1.66 1.66 0 112.473 0 5.283 5.283 0 105.707-7.783z"/>
            <path fill="#2C2C2C" d="M46.262 54.936a.751.751 0 01-.755-.755.754.754 0 11.755.755zM41.522 61.668a.757.757 0 01-.755.755.755.755 0 11.755-.755zM35.272 54.936a.751.751 0 01-.755-.755.755.755 0 11.755.755z"/>
          </g>
          <path fill="#fff" fill-rule="evenodd" d="M40.031 64.186c.215-.272.409-.56.579-.865a1.665 1.665 0 00.314 0 6.504 6.504 0 005.67 3.329 6.491 6.491 0 001.283-12.856 1.662 1.662 0 00-.669-.978 6.608 6.608 0 00.05-.809 6.491 6.491 0 10-12.932.81c-.33.228-.573.574-.67.977a6.494 6.494 0 00-5.208 6.364 6.491 6.491 0 0011.583 4.028zm6.23-9.25a.751.751 0 01-.754-.755.754.754 0 11.755.755zm-1.66-.755c0-.837.619-1.529 1.423-1.644a5.283 5.283 0 10-10.514 0 1.66 1.66 0 11-1.686 2.456 5.283 5.283 0 105.707 7.783 1.66 1.66 0 112.473 0 5.283 5.283 0 105.707-7.783 1.66 1.66 0 01-3.11-.812zm-3.08 7.487a.757.757 0 01-.754.755.755.755 0 11.755-.755zm-6.574-6.806a.751.751 0 00.739-.05.758.758 0 00.341-.631.754.754 0 10-1.08.681z" class="stroke" clip-rule="evenodd"/>
          <path fill="#2C2C2C" fill-rule="evenodd" d="M40.505 64.56c.09-.114.178-.232.262-.353a7.083 7.083 0 005.827 3.046 7.095 7.095 0 001.795-13.96l-.05-.013a2.268 2.268 0 00-.498-.722l.002-.027a7.095 7.095 0 10-14.152 0l.002.027c-.21.204-.38.449-.499.722a7.094 7.094 0 00-5.349 6.879 7.095 7.095 0 0012.66 4.402zm.998-.374a6.52 6.52 0 01-.579-.865 1.702 1.702 0 01-.314 0c-.05.089-.101.176-.155.262l-.04.065a6.48 6.48 0 01-5.475 3.002 6.491 6.491 0 01-1.283-12.856c.096-.403.339-.748.669-.978a6.491 6.491 0 01-.05-.809 6.491 6.491 0 1112.932.81c.33.228.573.574.669.977a6.494 6.494 0 015.208 6.364 6.491 6.491 0 01-11.582 4.028z" class="stroke 2" clip-rule="evenodd"/>
        </g>
      </g>
      <g class="symbol_4">
        <g class="♣ clubs_2">
          <g class="fill_2">
            <path fill="#2C2C2C" d="M47.71 77.46a1.66 1.66 0 10-1.686 2.455 5.283 5.283 0 11-10.514 0 1.66 1.66 0 10-1.686-2.456 5.283 5.283 0 115.707-7.783 1.66 1.66 0 102.473 0 5.283 5.283 0 115.707 7.783z"/>
            <path fill="#2C2C2C" d="M46.262 77.517a.751.751 0 00-.755.755.754.754 0 10.755-.755zM41.522 70.784a.757.757 0 00-.755-.754.755.755 0 10.755.754zM35.272 77.517a.753.753 0 00-.755.755.755.755 0 10.755-.755z"/>
          </g>
          <path fill="#fff" fill-rule="evenodd" d="M40.031 68.267c.215.271.409.56.579.864a1.699 1.699 0 01.314 0 6.504 6.504 0 015.67-3.328 6.491 6.491 0 011.283 12.855 1.662 1.662 0 01-.669.978 6.608 6.608 0 01.05.81 6.491 6.491 0 11-12.932-.81 1.662 1.662 0 01-.67-.978 6.494 6.494 0 01-5.208-6.364 6.491 6.491 0 0111.583-4.027zm6.23 9.25a.751.751 0 00-.754.755.754.754 0 10.755-.755zm-1.66.755c0 .836.619 1.528 1.423 1.643a5.283 5.283 0 11-10.514 0 1.66 1.66 0 10-1.686-2.456 5.283 5.283 0 115.707-7.783 1.66 1.66 0 102.473 0 5.283 5.283 0 115.707 7.783 1.66 1.66 0 00-3.11.813zm-3.08-7.488a.757.757 0 00-.754-.754.755.755 0 10.755.754zm-6.574 6.806a.753.753 0 011.013.37.752.752 0 01-.246.924.755.755 0 11-.766-1.294z" class="stroke_2" clip-rule="evenodd"/>
          <path fill="#2C2C2C" fill-rule="evenodd" d="M40.505 67.892c.09.115.178.233.262.353a7.083 7.083 0 015.827-3.046 7.095 7.095 0 011.795 13.96c-.016.005-.033.01-.05.013-.118.273-.288.518-.498.723l.002.027a7.095 7.095 0 11-14.152 0l.002-.027c-.21-.205-.38-.45-.499-.723l-.05-.012a7.095 7.095 0 117.36-11.268zm.998.375a6.52 6.52 0 00-.579.864 1.702 1.702 0 00-.314 0 6.527 6.527 0 00-.155-.262l-.04-.064a6.48 6.48 0 00-5.475-3.002 6.491 6.491 0 00-1.283 12.855c.096.403.339.749.669.978a6.491 6.491 0 00-.05.81 6.491 6.491 0 1012.932-.81c.33-.229.573-.575.669-.978a6.494 6.494 0 005.208-6.364 6.491 6.491 0 00-11.582-4.027z" class="stroke 2_2" clip-rule="evenodd"/>
        </g>
      </g>
      <g class="symbol_5">
        <g class="♣ clubs_3">
          <g class="fill_3">
            <path fill="#2C2C2C" d="M47.257 30.056A1.66 1.66 0 1145.57 27.6a5.283 5.283 0 10-10.514 0 1.66 1.66 0 11-1.687 2.456 5.283 5.283 0 105.707 7.783 1.66 1.66 0 112.473 0 5.283 5.283 0 105.707-7.783z"/>
            <path fill="#2C2C2C" d="M45.808 29.999a.751.751 0 01-.754-.755.754.754 0 11.754.755zM41.068 36.731a.755.755 0 11-1.51 0 .755.755 0 011.51 0zM34.819 29.999a.751.751 0 01-.755-.755.755.755 0 11.755.755z"/>
          </g>
          <path fill="#fff" fill-rule="evenodd" d="M39.578 39.249a6.5 6.5 0 00.578-.864 1.665 1.665 0 00.315 0 6.48 6.48 0 005.67 3.328 6.491 6.491 0 001.283-12.855 1.662 1.662 0 00-.67-.979 6.604 6.604 0 00.05-.809 6.491 6.491 0 10-12.931.81c-.33.229-.573.575-.67.978a6.494 6.494 0 00-5.208 6.364 6.491 6.491 0 0011.583 4.027zm6.23-9.25a.751.751 0 01-.755-.755.754.754 0 11.755.755zm-1.66-.755a1.66 1.66 0 011.423-1.643 5.283 5.283 0 10-10.514 0 1.66 1.66 0 11-1.687 2.455 5.283 5.283 0 105.707 7.783 1.66 1.66 0 112.473 0 5.283 5.283 0 105.707-7.783 1.66 1.66 0 01-3.11-.812zm-3.08 7.487a.755.755 0 11-1.51 0 .755.755 0 011.51 0zm-6.574-6.805a.751.751 0 00.739-.05.758.758 0 00.34-.632.754.754 0 10-1.079.682z" class="stroke_3" clip-rule="evenodd"/>
          <path fill="#2C2C2C" fill-rule="evenodd" d="M40.051 39.624a7.09 7.09 0 00.263-.353 7.083 7.083 0 005.827 3.046 7.095 7.095 0 001.795-13.96c-.017-.005-.033-.01-.05-.013a2.27 2.27 0 00-.499-.723l.002-.027a7.095 7.095 0 10-14.15.027c-.21.205-.38.45-.498.723a7.094 7.094 0 00-5.35 6.878 7.095 7.095 0 0012.66 4.402zm.998-.375a6.502 6.502 0 01-.578-.864 1.668 1.668 0 01-.314 0 6.602 6.602 0 01-.58.864 6.491 6.491 0 11-6.374-10.391c.096-.403.34-.75.67-.979a6.487 6.487 0 01-.05-.809 6.491 6.491 0 1112.932.81c.33.229.573.575.669.978a6.494 6.494 0 015.208 6.364 6.491 6.491 0 01-11.583 4.027z" class="stroke 2_3" clip-rule="evenodd"/>
        </g>
      </g>
    </g>
  </g>
</svg>
