<svg xmlns="http://www.w3.org/2000/svg" width="80" height="112" fill="none" viewBox="0 0 80 112">
  <g class="three_spades">
    <rect width="74.81" height="104.734" x=".188" y=".422" fill="#fff" rx="3.62"/>
    <rect width="78.991" height="110.588" x=".188" y=".422" fill="#fff" class="bg" rx="3.62"/>
    <g class="down">
      <g class="letter">
        <path fill="#222" d="M61.396 90.482l1.807.936c.624-1.286 1.757-1.921 3.416-1.921.854 0 1.576.234 2.15.701.576.468.871 1.303.871 2.49 0 1.118-.344 1.887-1.018 2.288-.673.4-1.478.601-2.381.601h-.969v1.47h.969c.772 0 1.462.217 2.07.635.623.434.919 1.102.919 2.004 0 .886-.246 1.537-.74 1.938-.492.401-1.116.601-1.871.601-1.396 0-2.414-.634-3.022-1.921l-1.806.936c1.215 1.704 2.824 2.555 4.844 2.555 1.412 0 2.578-.367 3.465-1.119.887-.751 1.33-1.737 1.33-2.99 0-1.653-.87-2.79-2.627-3.374 2.02-.45 3.022-1.654 3.022-3.625 0-1.553-.493-2.74-1.479-3.54-.985-.803-2.217-1.22-3.727-1.22-2.267 0-4.007.852-5.223 2.555z" class="Vector"/>
      </g>
      <g class="symbol">
        <path fill="#2C2C2C" d="M67.709 80.912c.707-.863.875-2.068.099-2.857-.838-.852-2.114-.605-2.888.182-.774-.787-2.05-1.034-2.888-.181-.776.788-.608 1.993.099 2.856.764.932 1.809 1.733 2.789 2.427.98-.694 2.025-1.495 2.789-2.427z" class="â spades"/>
      </g>
    </g>
    <g class="up">
      <g class="letter_2">
        <path fill="#222" d="M5.176 16.455l1.806-.935c.624 1.286 1.757 1.92 3.416 1.92.854 0 1.576-.233 2.151-.7.575-.469.87-1.304.87-2.49 0-1.119-.344-1.887-1.018-2.288-.673-.401-1.478-.601-2.38-.601h-.97V9.89h.97c.77 0 1.46-.218 2.068-.635.624-.435.92-1.103.92-2.005 0-.885-.246-1.536-.739-1.937s-1.117-.602-1.872-.602c-1.396 0-2.414.635-3.022 1.921L5.57 5.698c1.215-1.704 2.824-2.556 4.844-2.556 1.413 0 2.579.368 3.465 1.12.887.751 1.33 1.737 1.33 2.99 0 1.653-.87 2.789-2.627 3.374 2.02.45 3.022 1.653 3.022 3.624 0 1.554-.493 2.74-1.478 3.541-.986.802-2.217 1.22-3.728 1.22-2.266 0-4.007-.852-5.222-2.556z" class="Vector_2"/>
      </g>
      <g class="symbol_2">
        <path fill="#2C2C2C" d="M7.578 24.625c-.707.863-.874 2.068-.099 2.857.839.852 2.114.605 2.888-.182.774.787 2.05 1.034 2.888.182.776-.79.608-1.994-.099-2.857-.763-.932-1.809-1.733-2.789-2.427-.98.694-2.025 1.495-2.789 2.427z" class="â spades_2"/>
      </g>
    </g>
    <g class="icons">
      <g class="symbol_3">
        <g class="â spades_3">
          <g class="fill">
            <path fill="#2C2C2C" d="M31.793 53.113c1.814-2.21 4.229-4.142 6.58-5.841.231.154.508.243.807.243.298 0 .575-.09.806-.243 2.352 1.7 4.767 3.63 6.581 5.84.444.541.807 1.133 1.076 1.748a1.457 1.457 0 00.538 2.572c-.024 1.176-.444 2.311-1.351 3.232-1.764 1.79-4.258 1.746-6.238.61a1.458 1.458 0 00-1.412-1.814 1.457 1.457 0 00-1.412 1.814c-1.98 1.136-4.474 1.18-6.237-.61-.907-.92-1.327-2.056-1.352-3.232a1.457 1.457 0 00.538-2.572 7.507 7.507 0 011.076-1.747z"/>
            <path fill="#2C2C2C" d="M38.518 60.916a.666.666 0 01.051-.256.663.663 0 011.273.256.662.662 0 01-1.324 0zM39.145 46.72a.662.662 0 11.07 0M30.233 56.544a.665.665 0 00.26-.527.662.662 0 10-.26.527zM47.947 55.7a.659.659 0 00.18.844.662.662 0 10-.18-.843z"/>
          </g>
          <path fill="#fff" fill-rule="evenodd" d="M49.243 57.286c.014 1.468-.478 2.924-1.66 4.123-2.225 2.259-5.288 2.095-7.607.727a1.45 1.45 0 01-.796.237 1.45 1.45 0 01-.796-.237c-2.319 1.368-5.382 1.532-7.607-.727-1.182-1.2-1.674-2.655-1.66-4.123a1.456 1.456 0 01.579-2.72 8.531 8.531 0 011.279-2.127c1.903-2.319 4.412-4.318 6.79-6.035a1.459 1.459 0 011.415-1.802 1.457 1.457 0 011.415 1.801c2.377 1.717 4.887 3.717 6.79 6.036.525.64.962 1.362 1.28 2.127a1.457 1.457 0 01.578 2.72zm-17.45-4.173c1.814-2.21 4.229-4.142 6.58-5.841a1.45 1.45 0 001.614 0c2.351 1.7 4.766 3.63 6.58 5.84a7.466 7.466 0 011.076 1.747 1.452 1.452 0 00-.565 1.285 1.458 1.458 0 001.103 1.288 4.636 4.636 0 01-1.352 3.232c-.22.224-.452.419-.693.587-1.27.885-2.789 1.014-4.202.599a6.23 6.23 0 01-1.342-.576c.005-.016.008-.032.012-.049a1.457 1.457 0 10-2.836.049c-1.98 1.136-4.474 1.18-6.237-.61-.907-.92-1.327-2.056-1.352-3.232a1.451 1.451 0 00.917-.692 1.454 1.454 0 00-.379-1.88 7.51 7.51 0 011.076-1.747zm6.725 7.803a.666.666 0 01.051-.256.664.664 0 01.611-.406.662.662 0 11-.662.662zm0-14.857c0 .354.277.643.627.661h.07a.662.662 0 10-.698-.661zm-8.285 10.485a.666.666 0 00.26-.527.662.662 0 10-.26.527zm17.634-.549a.659.659 0 01.662-.64.662.662 0 11-.662.64z" class="stroke" clip-rule="evenodd"/>
          <path fill="#2C2C2C" fill-rule="evenodd" d="M47.795 52.103c-1.879-2.288-4.32-4.26-6.632-5.942l.003-.102a1.986 1.986 0 10-3.97.103c-2.31 1.682-4.752 3.653-6.63 5.941a9.081 9.081 0 00-1.243 1.993 1.987 1.987 0 00-.733 3.472 6.178 6.178 0 001.81 4.213c2.356 2.392 5.555 2.277 7.992.959a1.98 1.98 0 001.576 0c2.437 1.318 5.636 1.433 7.993-.96a6.178 6.178 0 001.809-4.212 1.987 1.987 0 00-.732-3.471 9.085 9.085 0 00-1.243-1.994zm.87 2.463a8.55 8.55 0 00-1.28-2.127c-1.903-2.32-4.413-4.319-6.79-6.036a1.46 1.46 0 00-1.415-1.8 1.457 1.457 0 00-1.416 1.8c-2.377 1.718-4.886 3.717-6.789 6.036a8.548 8.548 0 00-1.28 2.127 1.457 1.457 0 00-.579 2.72c0 .086 0 .171.003.257a5.649 5.649 0 001.658 3.866c2.225 2.259 5.288 2.095 7.607.727a1.45 1.45 0 001.593 0c2.318 1.368 5.381 1.532 7.607-.727a5.65 5.65 0 001.657-3.866 6.46 6.46 0 00.002-.257 1.455 1.455 0 00.742-1.27 1.457 1.457 0 00-1.32-1.45z" class="stroke 2" clip-rule="evenodd"/>
        </g>
      </g>
      <g class="symbol_4">
        <g class="â spades_4">
          <g class="fill_2">
            <path fill="#2C2C2C" d="M31.793 75.134c1.814 2.21 4.229 4.142 6.58 5.841a1.45 1.45 0 01.807-.243c.298 0 .575.09.806.243 2.352-1.7 4.767-3.63 6.581-5.84a7.507 7.507 0 001.076-1.748 1.457 1.457 0 01.538-2.572c-.024-1.177-.444-2.311-1.351-3.232-1.764-1.79-4.258-1.746-6.238-.61a1.458 1.458 0 01-1.412 1.814 1.457 1.457 0 01-1.412-1.814c-1.98-1.136-4.474-1.18-6.237.61-.907.92-1.327 2.055-1.352 3.232a1.457 1.457 0 01.538 2.572c.269.615.633 1.207 1.076 1.747z"/>
            <path fill="#2C2C2C" d="M38.518 67.33a.666.666 0 00.051.257.663.663 0 001.273-.256.662.662 0 00-1.324 0zM39.145 81.527a.662.662 0 10.07 0M30.233 71.704a.665.665 0 01.26.526.662.662 0 11-.26-.526zM47.947 72.547a.659.659 0 01.18-.843.662.662 0 11-.18.843z"/>
          </g>
          <path fill="#fff" fill-rule="evenodd" d="M49.243 70.96c.014-1.467-.478-2.923-1.66-4.122-2.225-2.259-5.288-2.095-7.607-.727a1.45 1.45 0 00-.796-.237 1.45 1.45 0 00-.796.237c-2.319-1.368-5.382-1.532-7.607.727-1.182 1.2-1.674 2.655-1.66 4.123a1.456 1.456 0 00.579 2.72 8.53 8.53 0 001.279 2.127c1.903 2.319 4.412 4.318 6.79 6.035a1.459 1.459 0 001.415 1.802 1.457 1.457 0 001.415-1.801c2.377-1.717 4.887-3.717 6.79-6.036a8.53 8.53 0 001.28-2.127 1.457 1.457 0 00.578-2.72zm-17.45 4.174c1.814 2.21 4.229 4.142 6.58 5.841a1.45 1.45 0 01.807-.243c.298 0 .575.09.806.243 2.352-1.699 4.767-3.63 6.581-5.84a7.466 7.466 0 001.076-1.747 1.452 1.452 0 01-.566-1.284 1.458 1.458 0 011.105-1.289 4.636 4.636 0 00-1.352-3.232 4.938 4.938 0 00-.694-.587c-1.27-.885-2.789-1.014-4.202-.599-.463.136-.914.33-1.342.576.005.016.008.033.012.049a1.457 1.457 0 11-2.836-.049c-1.98-1.136-4.474-1.18-6.237.61-.907.92-1.327 2.056-1.352 3.232a1.449 1.449 0 01.917.692 1.454 1.454 0 01-.379 1.88c.269.615.633 1.207 1.076 1.747zm6.725-7.803a.666.666 0 00.051.256.664.664 0 00.611.406.662.662 0 10-.662-.662zm0 14.857c0-.354.277-.643.627-.66h.07a.662.662 0 11-.698.66zm-8.285-10.484a.666.666 0 01.26.526.662.662 0 11-.26-.526zm17.634.548a.66.66 0 00.662.64.662.662 0 10-.662-.64z" class="stroke_2" clip-rule="evenodd"/>
          <path fill="#2C2C2C" fill-rule="evenodd" d="M47.795 76.144c-1.879 2.288-4.32 4.26-6.632 5.942l.003.102a1.986 1.986 0 11-3.97-.103c-2.31-1.682-4.752-3.653-6.63-5.941a9.083 9.083 0 01-1.243-1.993 1.987 1.987 0 01-.733-3.471 6.178 6.178 0 011.81-4.214c2.356-2.392 5.555-2.277 7.992-.959a1.98 1.98 0 011.576 0c2.437-1.318 5.636-1.433 7.993.96a6.178 6.178 0 011.809 4.213 1.987 1.987 0 01-.732 3.471 9.087 9.087 0 01-1.243 1.993zm.87-2.463a8.55 8.55 0 01-1.28 2.127c-1.903 2.32-4.413 4.319-6.79 6.036a1.459 1.459 0 01-1.415 1.8 1.457 1.457 0 01-1.416-1.8c-2.377-1.718-4.886-3.717-6.789-6.036a8.55 8.55 0 01-1.28-2.127 1.453 1.453 0 01-1.32-1.45 1.455 1.455 0 01.742-1.27 5.649 5.649 0 011.66-4.123c2.225-2.259 5.288-2.095 7.607-.727a1.45 1.45 0 01.796-.237c.294 0 .568.087.796.237 2.319-1.368 5.382-1.532 7.608.727a5.649 5.649 0 011.657 3.866c.002.086.003.171.002.257a1.455 1.455 0 01-.579 2.72z" class="stroke 2_2" clip-rule="evenodd"/>
        </g>
      </g>
      <g class="symbol_5">
        <g class="â spades_5">
          <g class="fill_3">
            <path fill="#2C2C2C" d="M31.34 28.176c1.814-2.21 4.228-4.141 6.58-5.84a1.45 1.45 0 001.613-.001c2.352 1.7 4.767 3.63 6.58 5.841a7.51 7.51 0 011.077 1.747 1.457 1.457 0 00.538 2.572c-.025 1.177-.445 2.312-1.352 3.232-1.763 1.79-4.258 1.747-6.237.61a1.458 1.458 0 00-1.412-1.814 1.457 1.457 0 00-1.413 1.814c-1.979 1.137-4.473 1.18-6.237-.61-.907-.92-1.327-2.055-1.352-3.232a1.457 1.457 0 00.538-2.572 7.51 7.51 0 011.077-1.747z"/>
            <path fill="#2C2C2C" d="M38.065 35.98a.668.668 0 01.051-.257.664.664 0 01.61-.405.662.662 0 11-.661.662zM38.692 21.783a.662.662 0 11.07 0M29.78 31.607a.665.665 0 00.26-.527.662.662 0 10-.26.527zM47.494 30.763a.659.659 0 00.18.844.662.662 0 10-.18-.843z"/>
          </g>
          <path fill="#fff" fill-rule="evenodd" d="M48.79 32.35c.014 1.468-.478 2.923-1.66 4.122-2.225 2.26-5.288 2.095-7.607.727a1.45 1.45 0 01-.796.237 1.45 1.45 0 01-.797-.237c-2.318 1.368-5.381 1.532-7.607-.727-1.181-1.199-1.674-2.654-1.66-4.123a1.456 1.456 0 01.58-2.72 8.531 8.531 0 011.279-2.127c1.903-2.319 4.412-4.318 6.789-6.035a1.457 1.457 0 112.831 0c2.377 1.717 4.886 3.716 6.79 6.036.525.639.961 1.362 1.28 2.127a1.457 1.457 0 01.578 2.72zm-17.45-4.174c1.814-2.21 4.228-4.141 6.58-5.84.23.153.508.243.806.243.299 0 .576-.09.807-.244 2.352 1.7 4.767 3.63 6.58 5.841a7.462 7.462 0 011.076 1.747 1.452 1.452 0 00-.566 1.284 1.458 1.458 0 001.105 1.288 4.636 4.636 0 01-1.352 3.232c-.22.224-.452.42-.693.587-1.27.885-2.79 1.014-4.202.6a6.225 6.225 0 01-1.342-.577l.011-.049a1.457 1.457 0 10-2.836.049c-1.979 1.137-4.473 1.18-6.237-.61-.907-.92-1.327-2.055-1.352-3.232a1.446 1.446 0 00.917-.691 1.455 1.455 0 00-.379-1.88 7.507 7.507 0 011.077-1.748zm6.725 7.804a.666.666 0 01.051-.257.664.664 0 01.61-.406.662.662 0 11-.661.663zm0-14.858c0 .354.277.643.627.661h.07a.662.662 0 10-.698-.66zm-8.286 10.485a.666.666 0 00.261-.527.662.662 0 10-.26.527zm17.634-.548a.659.659 0 01.662-.641.662.662 0 11-.662.64z" class="stroke_3" clip-rule="evenodd"/>
          <path fill="#2C2C2C" fill-rule="evenodd" d="M47.341 27.166c-1.878-2.288-4.32-4.259-6.631-5.942.002-.034.002-.068.002-.102a1.986 1.986 0 10-3.97.103c-2.31 1.683-4.752 3.653-6.63 5.941a9.081 9.081 0 00-1.243 1.994 1.987 1.987 0 00-.732 3.47 6.178 6.178 0 001.809 4.214c2.357 2.393 5.556 2.278 7.993.96a1.982 1.982 0 001.576 0c2.436 1.318 5.636 1.433 7.992-.96a6.178 6.178 0 001.81-4.213 1.987 1.987 0 00-.732-3.471 9.085 9.085 0 00-1.244-1.994zm.87 2.464a8.552 8.552 0 00-1.28-2.127c-1.903-2.32-4.412-4.32-6.79-6.036a1.457 1.457 0 10-2.831 0c-2.376 1.717-4.885 3.716-6.788 6.036a8.552 8.552 0 00-1.28 2.127 1.457 1.457 0 00-.579 2.72c0 .085 0 .17.003.256a5.649 5.649 0 001.657 3.866c2.226 2.26 5.289 2.095 7.607.727a1.45 1.45 0 001.593 0c2.319 1.368 5.382 1.532 7.607-.727a5.65 5.65 0 001.657-3.866c.003-.085.004-.17.003-.257a1.455 1.455 0 00.742-1.27 1.457 1.457 0 00-1.32-1.45z" class="stroke 2_3" clip-rule="evenodd"/>
        </g>
      </g>
    </g>
  </g>
</svg>
