<svg xmlns="http://www.w3.org/2000/svg" width="80" height="111" fill="none" viewBox="0 0 80 111">
  <g class="three_diamond">
    <rect width="78.991" height="110.588" x=".188" fill="#fff" class="bg" rx="3.62"/>
    <g class="down">
      <g class="letter">
        <path fill="#222" d="M61.396 90.06l1.807.936c.624-1.286 1.757-1.92 3.416-1.92.854 0 1.576.233 2.15.7.576.468.871 1.304.871 2.49 0 1.119-.344 1.887-1.018 2.288-.673.401-1.478.601-2.381.601h-.969v1.47h.969c.772 0 1.462.218 2.07.635.623.434.919 1.102.919 2.004 0 .886-.246 1.537-.74 1.938-.492.401-1.116.602-1.871.602-1.396 0-2.414-.635-3.022-1.921l-1.806.935c1.215 1.704 2.824 2.556 4.844 2.556 1.412 0 2.578-.368 3.465-1.119.887-.752 1.33-1.738 1.33-2.99 0-1.654-.87-2.79-2.627-3.375 2.02-.45 3.022-1.653 3.022-3.624 0-1.554-.493-2.74-1.479-3.542-.985-.802-2.217-1.219-3.727-1.219-2.267 0-4.007.852-5.223 2.556z" class="Vector"/>
      </g>
      <g class="symbol">
        <path fill="#F24E1E" d="M64.905 77.15l2.473 2.88-2.473 2.888-2.472-2.888 2.472-2.88z" class="♦ diamonds"/>
      </g>
    </g>
    <g class="up">
      <g class="letter_2">
        <path fill="#222" d="M5.176 16.033l1.806-.935c.624 1.286 1.757 1.921 3.416 1.921.854 0 1.576-.234 2.151-.702.575-.467.87-1.303.87-2.489 0-1.119-.344-1.887-1.018-2.288-.673-.4-1.478-.601-2.38-.601h-.97v-1.47h.97c.77 0 1.46-.217 2.068-.635.624-.434.92-1.102.92-2.004 0-.886-.246-1.537-.739-1.938s-1.117-.601-1.872-.601c-1.396 0-2.414.634-3.022 1.92L5.57 5.277C6.785 3.572 8.394 2.72 10.414 2.72c1.413 0 2.579.368 3.465 1.12.887.751 1.33 1.737 1.33 2.99 0 1.653-.87 2.79-2.627 3.374 2.02.45 3.022 1.653 3.022 3.624 0 1.554-.493 2.74-1.478 3.542-.986.802-2.217 1.22-3.728 1.22-2.266 0-4.007-.853-5.222-2.557z" class="Vector_2"/>
      </g>
      <g class="symbol_2">
        <path fill="#F24E1E" d="M10.382 27.544l-2.472-2.88 2.472-2.889 2.473 2.889-2.473 2.88z" class="♦ diamonds_2"/>
      </g>
    </g>
    <g class="icons">
      <g class="symbol_3">
        <g class="♦ diamonds_3">
          <path fill="#F24E1E" d="M39.25 61.631l-5.112-5.955a1.57 1.57 0 00.04-2.453l5.075-5.928a1.567 1.567 0 001.856 0l5.074 5.928a1.57 1.57 0 00.04 2.453l-5.111 5.956a1.566 1.566 0 00-.932-.305c-.348 0-.67.113-.93.304z" class="fill"/>
          <path fill="#fff" fill-rule="evenodd" d="M32.972 52.873l5.654-6.605a1.576 1.576 0 011.554-1.816 1.573 1.573 0 011.555 1.815l5.654 6.606a1.574 1.574 0 011.372 1.603v.001a1.574 1.574 0 01-1.292 1.505l-5.734 6.68a1.573 1.573 0 01-1.555 1.811 1.573 1.573 0 01-1.555-1.812l-5.733-6.68a1.574 1.574 0 01-1.291-1.504v-.001-.042c0-.801.597-1.462 1.371-1.56zm6.277 8.758l-5.111-5.955a1.57 1.57 0 00.04-2.453l5.075-5.928a1.567 1.567 0 001.856 0l5.074 5.928a1.57 1.57 0 00.04 2.453l-5.111 5.956a1.566 1.566 0 00-.932-.305c-.348 0-.67.113-.93.304zm.931-14.891a.712.712 0 01-.715-.715.715.715 0 11.715.715zm-.368 15.547a.714.714 0 10.735 1.225.714.714 0 00-.735-1.225zm-5.924-7.853a.714.714 0 11-1.428 0 .714.714 0 011.428 0zm12.896.59a.714.714 0 11.807-1.18.714.714 0 01-.807 1.18z" class="stroke" clip-rule="evenodd"/>
          <path fill="#F24E1E" fill-rule="evenodd" d="M31.028 54.434a1.335 1.335 0 00.002.088c.038.94.68 1.723 1.55 1.973l5.456 6.357-.001.048a2.145 2.145 0 104.29-.047l5.457-6.358a2.146 2.146 0 001.551-2.033v-.028c0-1.012-.699-1.859-1.64-2.086l-5.368-6.271v-.052a2.145 2.145 0 10-4.29.053l-5.366 6.27a2.146 2.146 0 00-1.64 2.086zm.573.043v-.001-.042c0-.801.597-1.462 1.371-1.56l5.654-6.606a1.576 1.576 0 011.554-1.816 1.573 1.573 0 011.555 1.815l5.654 6.606a1.574 1.574 0 011.372 1.603v.001a1.574 1.574 0 01-1.292 1.505l-5.734 6.68a1.573 1.573 0 01-1.555 1.811 1.573 1.573 0 01-1.555-1.812l-5.733-6.68a1.574 1.574 0 01-1.291-1.504z" class="stroke 2" clip-rule="evenodd"/>
          <g class="dots">
            <path fill="#F24E1E" d="M40.18 45.31a.715.715 0 110 1.43.715.715 0 010-1.43zM33.173 53.718a.715.715 0 110 1.43.715.715 0 010-1.43zM47.188 53.718a.715.715 0 110 1.43.715.715 0 010-1.43zM40.895 62.9a.715.715 0 11-1.43 0 .715.715 0 011.43 0z"/>
          </g>
        </g>
      </g>
      <g class="symbol_4">
        <g class="♦ diamonds_4">
          <path fill="#F24E1E" d="M39.25 82.034l-5.112-5.955a1.57 1.57 0 00.04-2.453l5.075-5.928c.26.19.58.302.927.302.347 0 .668-.112.928-.302l5.075 5.928a1.57 1.57 0 00.04 2.453l-5.111 5.956a1.566 1.566 0 00-.932-.306c-.348 0-.67.114-.93.305z" class="fill_2"/>
          <path fill="#fff" fill-rule="evenodd" d="M32.972 73.276l5.654-6.605a1.573 1.573 0 011.554-1.817 1.573 1.573 0 011.555 1.816l5.654 6.606a1.573 1.573 0 011.372 1.603 1.574 1.574 0 01-1.292 1.505l-5.734 6.68a1.573 1.573 0 01-1.555 1.811 1.573 1.573 0 01-1.555-1.812l-5.733-6.679a1.574 1.574 0 01-1.291-1.504v-.001-.043c0-.8.597-1.462 1.371-1.56zm6.277 8.758l-5.111-5.955a1.57 1.57 0 00.04-2.453l5.075-5.928c.26.19.58.302.927.302.347 0 .668-.112.928-.302l5.075 5.928a1.57 1.57 0 00.04 2.453l-5.111 5.956a1.566 1.566 0 00-.932-.306c-.348 0-.67.114-.93.305zm.931-14.892a.712.712 0 01-.715-.715.715.715 0 11.715.715zm-.368 15.547a.715.715 0 10.736 1.226.715.715 0 00-.736-1.226zm-5.924-7.853a.714.714 0 11-1.428.001.714.714 0 011.428 0zm12.896.59a.714.714 0 11.807-1.179.714.714 0 01-.807 1.18z" class="stroke_2" clip-rule="evenodd"/>
          <path fill="#F24E1E" fill-rule="evenodd" d="M31.028 74.836a1.335 1.335 0 00.002.088c.038.94.68 1.724 1.55 1.974l5.456 6.357-.001.047a2.145 2.145 0 104.29-.046l5.457-6.358a2.146 2.146 0 001.551-2.033v-.029c0-1.01-.699-1.858-1.64-2.085l-5.368-6.272v-.052a2.145 2.145 0 10-4.29.053l-5.366 6.27a2.146 2.146 0 00-1.64 2.086zm.573.044v-.001-.043c0-.8.597-1.462 1.371-1.56l5.654-6.605a1.573 1.573 0 011.554-1.817 1.573 1.573 0 011.555 1.816l5.654 6.606a1.573 1.573 0 011.372 1.603 1.574 1.574 0 01-1.292 1.505l-5.734 6.68a1.573 1.573 0 01-1.555 1.811 1.573 1.573 0 01-1.555-1.812l-5.733-6.679a1.574 1.574 0 01-1.291-1.504z" class="stroke 2_2" clip-rule="evenodd"/>
          <g class="dots_2">
            <path fill="#F24E1E" d="M40.18 65.712a.715.715 0 110 1.43.715.715 0 010-1.43zM33.173 74.121a.715.715 0 110 1.43.715.715 0 010-1.43zM47.188 74.121a.715.715 0 110 1.43.715.715 0 010-1.43zM40.895 83.302a.715.715 0 11-1.43 0 .715.715 0 011.43 0z"/>
          </g>
        </g>
      </g>
      <g class="symbol_5">
        <g class="♦ diamonds_5">
          <path fill="#F24E1E" d="M38.796 36.695l-5.112-5.955a1.57 1.57 0 00.041-2.453l5.074-5.928c.26.19.58.302.928.302.347 0 .668-.112.928-.303l5.075 5.929a1.57 1.57 0 00.04 2.453l-5.112 5.955a1.567 1.567 0 00-.931-.305c-.348 0-.67.113-.931.305z" class="fill_3"/>
          <path fill="#fff" fill-rule="evenodd" d="M32.519 27.936l5.653-6.605a1.573 1.573 0 011.554-1.817h.001a1.573 1.573 0 011.554 1.816l5.655 6.607a1.573 1.573 0 011.371 1.602v.002a1.574 1.574 0 01-1.291 1.504l-5.734 6.68a1.573 1.573 0 01-1.555 1.811 1.573 1.573 0 01-1.555-1.812l-5.733-6.679a1.574 1.574 0 01-1.292-1.505v-.043c0-.8.598-1.462 1.372-1.56zm6.277 8.759l-5.112-5.955a1.57 1.57 0 00.041-2.453l5.074-5.928c.26.19.58.302.928.302.347 0 .668-.112.928-.303l5.075 5.929a1.57 1.57 0 00.04 2.453l-5.112 5.955a1.566 1.566 0 00-.931-.305c-.348 0-.67.113-.931.305zm.93-14.892a.712.712 0 01-.714-.715.715.715 0 11.715.715zM39.36 37.35a.715.715 0 10.735 1.226.715.715 0 00-.736-1.226zm-5.924-7.853a.714.714 0 11-1.428.001.714.714 0 011.428-.001zm12.896.59a.714.714 0 11.806-1.18.714.714 0 01-.806 1.18z" class="stroke_3" clip-rule="evenodd"/>
          <path fill="#F24E1E" fill-rule="evenodd" d="M30.575 29.497a1.33 1.33 0 00.002.088c.038.94.68 1.723 1.549 1.974l5.456 6.356v.048a2.145 2.145 0 104.29-.046l5.457-6.358a2.146 2.146 0 001.55-2.034v-.028c0-1.011-.698-1.858-1.64-2.085l-5.368-6.272v-.052a2.145 2.145 0 10-4.29.053l-5.366 6.27a2.146 2.146 0 00-1.64 2.086zm.572.044v-.001-.043c0-.8.598-1.462 1.372-1.56l5.653-6.606a1.573 1.573 0 011.554-1.817h.001a1.573 1.573 0 011.554 1.816l5.655 6.607a1.573 1.573 0 011.371 1.602v.002a1.574 1.574 0 01-1.291 1.504l-5.734 6.68a1.573 1.573 0 01-1.555 1.811 1.573 1.573 0 01-1.555-1.812l-5.733-6.679a1.574 1.574 0 01-1.292-1.505z" class="stroke 2_3" clip-rule="evenodd"/>
          <g class="dots_3">
            <path fill="#F24E1E" d="M39.727 20.373a.715.715 0 110 1.43.715.715 0 010-1.43zM32.72 28.782a.715.715 0 110 1.43.715.715 0 010-1.43zM46.735 28.782a.715.715 0 110 1.43.715.715 0 010-1.43zM40.442 37.963a.715.715 0 11-1.43 0 .715.715 0 011.43 0z"/>
          </g>
        </g>
      </g>
    </g>
  </g>
</svg>
