<svg xmlns="http://www.w3.org/2000/svg" width="80" height="111" fill="none" viewBox="0 0 80 111">
  <g class="two_diamond">
    <rect width="78.991" height="110.588" x=".094" fill="#fff" class="bg" rx="3.62"/>
    <g class="down">
      <g class="letter">
        <path fill="#222" d="M71.277 87.505h-9.434v1.487c0 1.606.998 3.397 3.01 5.374l3.026 2.975c.744.726 1.116 1.453 1.116 2.18 0 .76-.237 1.335-.727 1.707-.474.371-1.133.557-1.978.557-1.438 0-2.486-.659-3.111-1.994l-1.877.997c1.167 1.724 2.824 2.586 4.97 2.586 1.37 0 2.553-.355 3.517-1.082.964-.726 1.454-1.656 1.454-2.771 0-1.099-.575-2.214-1.741-3.347l-2.976-2.923c-1.623-1.606-2.451-3.025-2.451-4.242h7.168v-1.504h.034z" class="Vector"/>
      </g>
      <g class="symbol">
        <path fill="#F24E1E" d="M64.811 77.15l2.472 2.88-2.472 2.888-2.472-2.888 2.472-2.88z" class="♦ diamonds"/>
      </g>
    </g>
    <g class="up">
      <g class="letter_2">
        <path fill="#222" d="M16.87 21.763H7.436v-1.487c0-1.606.997-3.397 3.01-5.374l3.026-2.975c.743-.726 1.115-1.453 1.115-2.18 0-.76-.236-1.335-.727-1.707-.473-.371-1.132-.557-1.978-.557-1.437 0-2.485.659-3.11 1.994L6.895 8.48c1.167-1.724 2.823-2.586 4.97-2.586 1.37 0 2.553.355 3.517 1.082.964.726 1.454 1.656 1.454 2.771 0 1.099-.575 2.214-1.741 3.346l-2.976 2.924c-1.623 1.605-2.451 3.025-2.451 4.242h7.168v1.504h.034z" class="Vector_2"/>
      </g>
      <g class="symbol_2">
        <path fill="#F24E1E" d="M10.288 27.544l-2.472-2.88 2.472-2.889 2.472 2.889-2.472 2.88z" class="♦ diamonds_2"/>
      </g>
    </g>
    <g class="icons">
      <g class="symbol_3">
        <g class="♦ diamonds_3">
          <path fill="#F24E1E" d="M38.547 82.465l-6.058-7.058a1.861 1.861 0 00.048-2.907l6.014-7.026c.308.226.688.359 1.099.359.411 0 .792-.134 1.1-.36l6.014 7.027a1.861 1.861 0 00.048 2.907l-6.058 7.059a1.856 1.856 0 00-1.104-.362c-.413 0-.794.134-1.103.361z" class="fill"/>
          <path fill="#fff" fill-rule="evenodd" d="M31.107 72.085l6.7-7.828a1.864 1.864 0 011.842-2.153h.002a1.865 1.865 0 011.841 2.151l6.702 7.83a1.865 1.865 0 011.625 1.9h.001v.001a1.865 1.865 0 01-1.531 1.783l-6.796 7.917a1.865 1.865 0 01-1.843 2.147 1.864 1.864 0 01-1.843-2.148l-6.795-7.916a1.865 1.865 0 01-1.53-1.783h-.001v-.002-.05c0-.949.71-1.732 1.626-1.849zm7.44 10.38l-6.058-7.058a1.862 1.862 0 00.048-2.907l6.014-7.026c.308.225.688.359 1.099.359.411 0 .792-.134 1.1-.36l6.014 7.027a1.862 1.862 0 00.048 2.907l-6.058 7.059a1.856 1.856 0 00-1.104-.362c-.413 0-.794.134-1.103.361zm1.103-17.65a.847.847 0 110-1.694.847.847 0 010 1.695zm-.436 18.427a.847.847 0 10.872 1.452.847.847 0 00-.872-1.452zm-7.021-9.308a.846.846 0 11-1.693.002.846.846 0 011.693-.002zm15.284.7a.846.846 0 11.956-1.398.846.846 0 01-.956 1.397z" class="stroke" clip-rule="evenodd"/>
          <path fill="#F24E1E" fill-rule="evenodd" d="M28.803 73.934a1.873 1.873 0 00.002.105 2.543 2.543 0 001.836 2.339l6.467 7.534v.056a2.542 2.542 0 105.084-.055l6.468-7.535a2.543 2.543 0 001.836-2.34c.002-.023.002-.046.002-.07v-.034a2.543 2.543 0 00-1.944-2.471l-6.362-7.433v-.062a2.542 2.542 0 00-2.541-2.542h-.001a2.542 2.542 0 00-2.542 2.605l-6.36 7.432a2.543 2.543 0 00-1.945 2.471zm.679.052h-.001v-.002-.05c0-.949.71-1.732 1.626-1.849l6.7-7.828a1.864 1.864 0 011.842-2.153h.002a1.865 1.865 0 011.841 2.151l6.702 7.83a1.865 1.865 0 011.625 1.9h.001v.001a1.865 1.865 0 01-1.531 1.783l-6.796 7.917a1.865 1.865 0 01-1.843 2.147 1.864 1.864 0 01-1.843-2.148l-6.795-7.916a1.865 1.865 0 01-1.53-1.783z" class="stroke 2" clip-rule="evenodd"/>
          <g class="dots">
            <path fill="#F24E1E" d="M39.65 63.12a.847.847 0 110 1.696.847.847 0 010-1.695zM31.345 73.087a.847.847 0 110 1.695.847.847 0 010-1.695zM47.956 73.087a.847.847 0 110 1.695.847.847 0 010-1.695zM40.497 83.968a.847.847 0 11-1.695 0 .847.847 0 011.695 0z"/>
          </g>
        </g>
      </g>
      <g class="symbol_4">
        <g class="♦ diamonds_4">
          <path fill="#F24E1E" d="M38.547 34.405l-6.058-7.057a1.861 1.861 0 00.048-2.907l6.014-7.026c.308.225.688.358 1.099.358.411 0 .792-.133 1.1-.36l6.014 7.027a1.861 1.861 0 00.048 2.907l-6.058 7.059a1.856 1.856 0 00-1.104-.362c-.413 0-.794.134-1.103.361z" class="fill_2"/>
          <path fill="#fff" fill-rule="evenodd" d="M31.107 24.025l6.7-7.828a1.864 1.864 0 011.842-2.153h.002a1.865 1.865 0 011.841 2.152l6.702 7.83a1.865 1.865 0 011.625 1.899h.001v.001a1.865 1.865 0 01-1.531 1.783l-6.796 7.918a1.864 1.864 0 01-1.843 2.147 1.864 1.864 0 01-1.843-2.149l-6.795-7.916a1.865 1.865 0 01-1.53-1.783h-.001v-.001-.05c0-.95.71-1.733 1.626-1.85zm7.44 10.38l-6.058-7.058a1.861 1.861 0 00.048-2.907l6.014-7.026c.308.226.688.359 1.099.359.411 0 .792-.133 1.1-.36l6.014 7.027a1.861 1.861 0 00.048 2.907l-6.058 7.059a1.856 1.856 0 00-1.104-.362c-.413 0-.794.134-1.103.361zm1.103-17.65a.847.847 0 110-1.694.847.847 0 010 1.695zm-.436 18.427a.847.847 0 10.872 1.452.847.847 0 00-.872-1.452zm-7.021-9.307a.846.846 0 11-1.693 0 .846.846 0 011.693 0zm15.284.699a.846.846 0 11.956-1.397.846.846 0 01-.956 1.397z" class="stroke_2" clip-rule="evenodd"/>
          <path fill="#F24E1E" fill-rule="evenodd" d="M28.803 25.875a1.882 1.882 0 00.002.104 2.543 2.543 0 001.836 2.34l6.467 7.533v.057a2.542 2.542 0 105.084-.055l6.468-7.536a2.543 2.543 0 001.836-2.339c.002-.023.002-.047.002-.07v-.034a2.543 2.543 0 00-1.944-2.472l-6.362-7.433v-.062a2.542 2.542 0 00-2.541-2.542h-.001a2.542 2.542 0 00-2.542 2.606l-6.36 7.431a2.543 2.543 0 00-1.945 2.472zm.679.051h-.001v-.001-.05c0-.95.71-1.733 1.626-1.85l6.7-7.828a1.864 1.864 0 011.842-2.153h.002a1.865 1.865 0 011.841 2.152l6.702 7.83a1.865 1.865 0 011.625 1.899h.001v.001a1.865 1.865 0 01-1.531 1.783l-6.796 7.918a1.864 1.864 0 01-1.843 2.147 1.864 1.864 0 01-1.843-2.149l-6.795-7.916a1.865 1.865 0 01-1.53-1.783z" class="stroke 2_2" clip-rule="evenodd"/>
          <g class="dots_2">
            <path fill="#F24E1E" d="M39.65 15.061a.847.847 0 110 1.695.847.847 0 010-1.695zM31.345 25.027a.847.847 0 110 1.695.847.847 0 010-1.695zM47.956 25.027a.847.847 0 110 1.695.847.847 0 010-1.695zM40.497 35.909a.847.847 0 11-1.695 0 .847.847 0 011.695 0z"/>
          </g>
        </g>
      </g>
    </g>
  </g>
</svg>
