<svg xmlns="http://www.w3.org/2000/svg" width="80" height="112" fill="none" viewBox="0 0 80 112">
  <g class="two_clubs">
    <rect width="74.81" height="104.734" x=".094" y=".938" fill="#fff" rx="3.62"/>
    <rect width="78.991" height="110.588" x=".094" y=".938" fill="#fff" class="bg" rx="3.62"/>
    <g class="down">
      <g class="letter">
        <path fill="#222" d="M71.277 88.442h-9.434v1.488c0 1.605.998 3.397 3.01 5.374l3.026 2.974c.744.727 1.116 1.453 1.116 2.18 0 .761-.237 1.335-.727 1.707-.474.372-1.133.558-1.978.558-1.438 0-2.486-.659-3.111-1.994l-1.877.997c1.167 1.723 2.824 2.585 4.97 2.585 1.37 0 2.553-.355 3.517-1.081.964-.727 1.454-1.656 1.454-2.772 0-1.098-.575-2.214-1.741-3.346l-2.976-2.924c-1.623-1.605-2.451-3.025-2.451-4.241h7.168v-1.505h.034z" class="Vector"/>
      </g>
      <g class="symbol">
        <path fill="#2C2C2C" d="M63.112 81.826l.125-.47-.484-.032a1.75 1.75 0 111.691-2.517l.359.728.359-.728a1.75 1.75 0 111.69 2.517l-.484.033.125.469a1.752 1.752 0 01-1.69 2.201 1.75 1.75 0 01-1.69-2.201z" class="♣ club"/>
      </g>
    </g>
    <g class="up">
      <g class="letter_2">
        <path fill="#222" d="M16.87 20.887H7.436v-1.445c0-1.56.997-3.3 3.01-5.22l3.026-2.89c.743-.706 1.115-1.412 1.115-2.117 0-.74-.236-1.297-.727-1.659-.473-.36-1.132-.541-1.978-.541-1.437 0-2.485.64-3.11 1.937l-1.877-.969c1.167-1.674 2.823-2.512 4.97-2.512 1.37 0 2.553.345 3.517 1.051s1.454 1.609 1.454 2.693c0 1.067-.575 2.15-1.741 3.25l-2.976 2.84c-1.623 1.56-2.451 2.939-2.451 4.12h7.168v1.462h.034z" class="Vector_2"/>
      </g>
      <g class="symbol_2">
        <path fill="#2C2C2C" d="M11.987 24.743l-.125.469.484.033a1.75 1.75 0 11-1.69 2.517l-.36-.729-.358.729a1.75 1.75 0 11-1.692-2.517l.485-.033-.125-.47a1.752 1.752 0 011.69-2.2 1.75 1.75 0 011.691 2.2z" class="♣ club_2"/>
      </g>
    </g>
    <g class="icons">
      <g class="symbol_3">
        <g class="♣ clubs">
          <g class="fill">
            <path fill="#2C2C2C" d="M44.896 74.286a1.66 1.66 0 10-1.686 2.456 5.283 5.283 0 11-10.514 0 1.66 1.66 0 10-1.687-2.456 5.283 5.283 0 115.707-7.783 1.66 1.66 0 102.473 0 5.283 5.283 0 115.707 7.783z"/>
            <path fill="#2C2C2C" d="M43.447 74.343a.751.751 0 00-.755.755.754.754 0 10.755-.755zM38.707 67.61a.755.755 0 10-1.51 0 .755.755 0 001.51 0zM32.458 74.343a.752.752 0 00-.755.755.755.755 0 10.755-.755z"/>
          </g>
          <path fill="#fff" fill-rule="evenodd" d="M37.217 65.093c.215.272.409.56.578.864a1.665 1.665 0 01.315 0 6.48 6.48 0 015.67-3.328 6.491 6.491 0 011.283 12.855 1.662 1.662 0 01-.67.979 6.487 6.487 0 01.05.809 6.491 6.491 0 11-12.932-.81 1.662 1.662 0 01-.668-.978 6.494 6.494 0 01-5.208-6.364 6.491 6.491 0 0111.582-4.027zm6.23 9.25a.751.751 0 00-.755.755.754.754 0 10.755-.755zm-1.66.755a1.66 1.66 0 001.423 1.644 5.283 5.283 0 11-10.514 0 1.66 1.66 0 10-1.687-2.456 5.283 5.283 0 115.707-7.783 1.66 1.66 0 102.473 0 5.283 5.283 0 115.707 7.783 1.66 1.66 0 00-3.11.812zm-3.08-7.487a.755.755 0 10-1.51 0 .755.755 0 001.51 0zm-6.574 6.805a.752.752 0 01.738.05.758.758 0 01.341.632.754.754 0 11-1.08-.681z" class="stroke" clip-rule="evenodd"/>
          <path fill="#2C2C2C" fill-rule="evenodd" d="M37.69 64.718c.091.115.179.233.263.353a7.083 7.083 0 015.827-3.046A7.095 7.095 0 0145.524 76c-.118.273-.289.518-.499.722l.002.027a7.095 7.095 0 11-14.152 0l.003-.027a2.27 2.27 0 01-.5-.722l-.049-.013a7.095 7.095 0 117.36-11.267zm.998.375a6.503 6.503 0 00-.383.538l-.04.064a6.602 6.602 0 00-.155.263 1.665 1.665 0 00-.315 0 6.483 6.483 0 00-.578-.865 6.491 6.491 0 10-6.374 10.391c.096.403.338.75.668.979a6.487 6.487 0 00-.05.809 6.491 6.491 0 1012.933-.81c.33-.229.573-.575.669-.978a6.494 6.494 0 005.208-6.364 6.491 6.491 0 00-11.583-4.027z" class="stroke 2" clip-rule="evenodd"/>
        </g>
      </g>
      <g class="symbol_4">
        <g class="♣ clubs_2">
          <g class="fill_2">
            <path fill="#2C2C2C" d="M44.896 24.162a1.66 1.66 0 11-1.686-2.456 5.283 5.283 0 10-10.514 0 1.661 1.661 0 11-1.687 2.456 5.283 5.283 0 105.707 7.783 1.66 1.66 0 112.473 0 5.283 5.283 0 105.707-7.783z"/>
            <path fill="#2C2C2C" d="M43.447 24.105a.751.751 0 01-.755-.755.754.754 0 11.755.755zM38.707 30.837a.755.755 0 11-1.51 0 .755.755 0 011.51 0zM32.458 24.105a.752.752 0 01-.755-.755.755.755 0 11.755.755z"/>
          </g>
          <path fill="#fff" fill-rule="evenodd" d="M37.217 33.355c.215-.271.409-.56.578-.864a1.665 1.665 0 00.315 0 6.48 6.48 0 005.67 3.328 6.491 6.491 0 001.283-12.855 1.662 1.662 0 00-.67-.979 6.487 6.487 0 00.05-.809 6.491 6.491 0 10-12.932.81c-.33.229-.572.575-.668.978a6.494 6.494 0 00-5.208 6.364 6.491 6.491 0 0011.582 4.027zm6.23-9.25a.751.751 0 01-.755-.755.754.754 0 11.755.755zm-1.66-.755a1.66 1.66 0 011.423-1.644 5.283 5.283 0 10-10.514 0 1.66 1.66 0 11-1.687 2.456 5.283 5.283 0 105.707 7.783 1.66 1.66 0 112.473 0 5.283 5.283 0 105.707-7.783 1.66 1.66 0 01-3.11-.812zm-3.08 7.487a.755.755 0 11-1.51 0 .755.755 0 011.51 0zm-6.574-6.805a.752.752 0 00.738-.05.758.758 0 00.341-.632.754.754 0 10-1.08.681z" class="stroke_2" clip-rule="evenodd"/>
          <path fill="#2C2C2C" fill-rule="evenodd" d="M37.69 33.73c.091-.115.179-.233.263-.353a7.083 7.083 0 005.827 3.046 7.095 7.095 0 001.745-13.973 2.267 2.267 0 00-.499-.723l.002-.027a7.095 7.095 0 10-14.152 0l.003.027c-.21.204-.38.45-.5.723l-.049.012a7.095 7.095 0 107.36 11.268zm.998-.375a6.505 6.505 0 01-.578-.864 1.665 1.665 0 01-.315 0 6.41 6.41 0 01-.578.864 6.491 6.491 0 11-6.374-10.391c.096-.403.338-.75.668-.979a6.487 6.487 0 01-.05-.809 6.491 6.491 0 1112.933.81c.33.229.573.575.669.978a6.494 6.494 0 015.208 6.364 6.491 6.491 0 01-11.583 4.027z" class="stroke 2_2" clip-rule="evenodd"/>
        </g>
      </g>
    </g>
  </g>
</svg>
