<svg xmlns="http://www.w3.org/2000/svg" width="80" height="111" fill="none" viewBox="0 0 80 111">
  <g class="two_heart">
    <rect width="74.81" height="104.734" x=".094" y=".359" fill="#fff" rx="3.62"/>
    <rect width="78.991" height="110.588" x=".094" y=".359" fill="#fff" class="bg" rx="3.62"/>
    <g class="down">
      <g class="letter">
        <path fill="#222" d="M71.277 87.864h-9.434v1.487c0 1.606.998 3.397 3.01 5.375l3.026 2.974c.744.727 1.116 1.453 1.116 2.18 0 .76-.237 1.335-.727 1.707-.474.372-1.133.558-1.978.558-1.438 0-2.486-.66-3.111-1.995l-1.877.997c1.167 1.724 2.824 2.586 4.97 2.586 1.37 0 2.553-.355 3.517-1.081.964-.727 1.454-1.657 1.454-2.772 0-1.099-.575-2.214-1.741-3.346l-2.976-2.924c-1.623-1.605-2.451-3.025-2.451-4.242h7.168v-1.504h.034z" class="Vector"/>
      </g>
      <g class="symbol">
        <path fill="#F24E1E" d="M67.615 79.887c.707.863.874 2.068.099 2.856-.838.853-2.114.606-2.888-.181-.774.787-2.05 1.034-2.888.181-.776-.788-.608-1.993.099-2.856.763-.932 1.809-1.733 2.789-2.427.98.694 2.025 1.495 2.789 2.427z" class="♥ hearts"/>
      </g>
    </g>
    <g class="up">
      <g class="letter_2">
        <path fill="#222" d="M16.87 17.588H7.436v-1.487c0-1.605.997-3.397 3.01-5.374l3.026-2.974c.743-.727 1.115-1.454 1.115-2.18 0-.76-.236-1.336-.727-1.707-.473-.372-1.132-.558-1.978-.558-1.437 0-2.485.66-3.11 1.994l-1.877-.997c1.167-1.724 2.823-2.586 4.97-2.586 1.37 0 2.553.355 3.517 1.082.964.727 1.454 1.656 1.454 2.772 0 1.098-.575 2.213-1.741 3.346l-2.976 2.923c-1.623 1.606-2.451 3.025-2.451 4.242h7.168v1.504h.034z" class="Vector_2"/>
      </g>
      <g class="symbol_2">
        <path fill="#F24E1E" d="M7.484 25.525c-.707-.863-.874-2.067-.099-2.856.838-.853 2.114-.606 2.888.182.774-.788 2.05-1.035 2.888-.182.776.789.608 1.993-.099 2.856-.763.932-1.809 1.733-2.789 2.428-.98-.695-2.025-1.496-2.789-2.428z" class="♥ hearts_2"/>
      </g>
    </g>
    <g class="icons">
      <g class="symbol_3">
        <g class="♥ hearts_3">
          <g class="fill">
            <path fill="#F24E1E" d="M47.263 83.363c-1.729 1.755-4.173 1.712-6.113.598a1.43 1.43 0 00-1.384-1.778 1.427 1.427 0 00-1.384 1.778c-1.94 1.114-4.384 1.157-6.112-.598-.89-.902-1.3-2.014-1.325-3.168a1.428 1.428 0 00.527-2.52 7.357 7.357 0 011.055-1.712c1.778-2.166 4.144-4.059 6.448-5.724a1.42 1.42 0 001.581 0c2.305 1.665 4.671 3.558 6.45 5.724.434.53.79 1.11 1.054 1.712a1.428 1.428 0 00.527 2.52c-.024 1.154-.436 2.266-1.324 3.168z"/>
            <path fill="#F24E1E" d="M39.373 83.094a.65.65 0 00.393 1.165.649.649 0 10-.393-1.165zM39.766 69.699l.034-.001a.649.649 0 10-.034 0zM48.358 78.499a.647.647 0 00.177.826.649.649 0 10-.177-.827zM30.605 78.16a.649.649 0 110 1.298.649.649 0 010-1.298z"/>
          </g>
          <path fill="#fff" fill-rule="evenodd" d="M49.628 80.053c.014 1.439-.469 2.865-1.627 4.04-2.18 2.214-5.182 2.053-7.455.713a1.42 1.42 0 01-1.56 0c-2.272 1.34-5.274 1.501-7.455-.713-1.158-1.175-1.64-2.601-1.627-4.04a1.427 1.427 0 01.567-2.666c.312-.75.74-1.457 1.254-2.084 1.865-2.273 4.324-4.232 6.654-5.915a1.429 1.429 0 011.387-1.765 1.427 1.427 0 011.387 1.765c2.33 1.682 4.789 3.642 6.654 5.915a8.36 8.36 0 011.254 2.084 1.428 1.428 0 01.567 2.666zM41.15 83.96c1.94 1.114 4.384 1.157 6.113-.598a4.543 4.543 0 001.325-3.168 1.428 1.428 0 01-.528-2.52 7.36 7.36 0 00-1.055-1.712c-1.778-2.166-4.144-4.059-6.449-5.724a1.421 1.421 0 01-1.58 0c-2.305 1.665-4.671 3.558-6.45 5.724a7.57 7.57 0 00-.557.775 7.16 7.16 0 00-.497.937 1.425 1.425 0 01.478 1.612 1.43 1.43 0 01-1.005.908c.024 1.154.436 2.266 1.325 3.168 1.728 1.755 4.172 1.712 6.112.598a1.43 1.43 0 011.384-1.778 1.427 1.427 0 011.384 1.778zm-1.777-.867a.649.649 0 10.786 1.033.649.649 0 00-.786-1.033zm.427-13.396h-.034a.649.649 0 11.034 0zm8.558 8.8a.646.646 0 00.177.827.649.649 0 10-.177-.827zm-17.105.31a.649.649 0 10-1.297 0 .649.649 0 001.297 0z" class="stroke" clip-rule="evenodd"/>
          <g class="stroke 2">
            <path fill="#F24E1E" d="M30.945 80.195zM38.382 83.96z"/>
            <path fill="#F24E1E" fill-rule="evenodd" d="M28.658 78.809c0 .615.286 1.163.73 1.52a6.054 6.054 0 001.773 4.129c2.31 2.344 5.445 2.231 7.833.94a1.94 1.94 0 001.544 0c2.388 1.291 5.523 1.404 7.833-.94a6.054 6.054 0 001.773-4.13 1.947 1.947 0 00-.718-3.402 8.903 8.903 0 00-1.218-1.953c-1.84-2.242-4.234-4.174-6.498-5.823a1.947 1.947 0 10-3.888 0c-2.265 1.65-4.658 3.581-6.498 5.824a8.903 8.903 0 00-1.218 1.953c-.834.22-1.448.979-1.448 1.882zm2.873 5.284a5.536 5.536 0 01-1.624-3.788 6.206 6.206 0 01-.003-.252 1.426 1.426 0 01-.727-1.244 1.428 1.428 0 011.294-1.422 8.253 8.253 0 011.254-2.084c1.865-2.273 4.324-4.232 6.654-5.915a1.429 1.429 0 011.387-1.765 1.427 1.427 0 011.387 1.765c2.33 1.682 4.789 3.642 6.654 5.915a8.38 8.38 0 011.254 2.084 1.428 1.428 0 01.567 2.665 5.536 5.536 0 01-1.627 4.04c-2.18 2.215-5.182 2.054-7.455.714a1.42 1.42 0 01-1.56 0c-2.272 1.34-5.274 1.501-7.455-.713z" clip-rule="evenodd"/>
          </g>
        </g>
      </g>
      <g class="symbol_4">
        <g class="♥ hearts_4">
          <g class="fill_2">
            <path fill="#F24E1E" d="M47.263 22.09c-1.729-1.755-4.173-1.712-6.113-.598a1.43 1.43 0 01-1.384 1.778 1.427 1.427 0 01-1.384-1.778c-1.94-1.114-4.384-1.157-6.112.597-.89.902-1.3 2.015-1.325 3.168a1.428 1.428 0 01.527 2.52c.264.603.62 1.183 1.055 1.712 1.778 2.167 4.144 4.059 6.448 5.725a1.42 1.42 0 01.79-.239c.293 0 .565.088.791.239 2.305-1.666 4.671-3.558 6.45-5.724.434-.53.79-1.11 1.054-1.713a1.428 1.428 0 01.527-2.52c-.024-1.153-.436-2.265-1.324-3.168z"/>
            <path fill="#F24E1E" d="M39.373 22.358a.65.65 0 01.393-1.165.649.649 0 11-.393 1.165zM39.766 35.754h.034a.649.649 0 11-.034 0zM48.358 26.954a.647.647 0 01.177-.827.649.649 0 11-.177.827zM30.605 27.293a.649.649 0 100-1.298.649.649 0 000 1.297z"/>
          </g>
          <path fill="#fff" fill-rule="evenodd" d="M49.628 25.4c.014-1.44-.469-2.865-1.627-4.04-2.18-2.215-5.182-2.054-7.455-.713a1.42 1.42 0 00-1.56 0c-2.272-1.34-5.274-1.502-7.455.712-1.158 1.175-1.64 2.602-1.627 4.04a1.427 1.427 0 00.567 2.666c.312.75.74 1.458 1.254 2.085 1.865 2.272 4.324 4.232 6.654 5.914a1.429 1.429 0 001.387 1.766 1.427 1.427 0 001.387-1.765c2.33-1.683 4.789-3.642 6.654-5.915a8.36 8.36 0 001.254-2.085 1.428 1.428 0 00.567-2.665zm-8.478-3.908c1.94-1.114 4.384-1.157 6.113.597a4.543 4.543 0 011.325 3.168 1.428 1.428 0 00-.528 2.52 7.36 7.36 0 01-1.055 1.713c-1.778 2.166-4.144 4.058-6.449 5.724a1.421 1.421 0 00-1.58 0c-2.305-1.666-4.671-3.558-6.45-5.724a7.57 7.57 0 01-.557-.776 7.16 7.16 0 01-.497-.937 1.425 1.425 0 00.478-1.612 1.43 1.43 0 00-1.005-.908c.024-1.153.436-2.266 1.325-3.168 1.728-1.754 4.172-1.711 6.112-.597a1.43 1.43 0 001.384 1.778 1.427 1.427 0 001.384-1.778zm-1.777.866a.649.649 0 11.786-1.032.649.649 0 01-.786 1.032zm.427 13.396h-.034a.649.649 0 10.034 0zm8.558-8.8a.646.646 0 01.177-.827.649.649 0 11-.177.827zm-17.105-.31a.649.649 0 11-1.297 0 .649.649 0 011.297 0z" class="stroke_2" clip-rule="evenodd"/>
          <g class="stroke 2_2">
            <path fill="#F24E1E" d="M30.945 25.257zM38.382 21.492z"/>
            <path fill="#F24E1E" fill-rule="evenodd" d="M28.658 26.644c0-.616.286-1.164.73-1.52a6.054 6.054 0 011.773-4.13c2.31-2.344 5.445-2.231 7.833-.939a1.94 1.94 0 011.544 0c2.388-1.292 5.523-1.405 7.833.94a6.054 6.054 0 011.773 4.129 1.947 1.947 0 01-.718 3.402 8.903 8.903 0 01-1.218 1.953c-1.84 2.243-4.234 4.174-6.498 5.823l.002.1a1.947 1.947 0 11-3.89-.1c-2.265-1.65-4.658-3.58-6.498-5.823a8.903 8.903 0 01-1.218-1.953 1.947 1.947 0 01-1.448-1.882zm2.873-5.285a5.536 5.536 0 00-1.624 3.789 6.206 6.206 0 00-.003.252 1.426 1.426 0 00-.727 1.244 1.428 1.428 0 001.294 1.421 8.253 8.253 0 001.254 2.085c1.865 2.272 4.324 4.232 6.654 5.914a1.429 1.429 0 001.387 1.766 1.427 1.427 0 001.387-1.765c2.33-1.683 4.789-3.642 6.654-5.915a8.38 8.38 0 001.254-2.085 1.428 1.428 0 00.567-2.666 5.536 5.536 0 00-1.627-4.04c-2.18-2.214-5.182-2.053-7.455-.712a1.42 1.42 0 00-1.56 0c-2.272-1.34-5.274-1.502-7.455.712z" clip-rule="evenodd"/>
          </g>
        </g>
      </g>
    </g>
  </g>
</svg>
