<svg xmlns="http://www.w3.org/2000/svg" width="80" height="112" fill="none" viewBox="0 0 80 112">
  <g class="two_spades">
    <rect width="74.81" height="104.734" x=".094" y=".422" fill="#fff" rx="3.62"/>
    <rect width="78.991" height="110.588" x=".094" y=".422" fill="#fff" class="bg" rx="3.62"/>
    <g class="down">
      <g class="letter">
        <path fill="#222" d="M71.277 87.927h-9.434v1.487c0 1.605.998 3.397 3.01 5.374l3.026 2.974c.744.727 1.116 1.454 1.116 2.18 0 .761-.237 1.335-.727 1.707-.474.372-1.133.558-1.978.558-1.438 0-2.486-.659-3.111-1.994l-1.877.997c1.167 1.724 2.824 2.585 4.97 2.585 1.37 0 2.553-.354 3.517-1.081s1.454-1.656 1.454-2.772c0-1.098-.575-2.213-1.741-3.346l-2.976-2.923c-1.623-1.606-2.451-3.026-2.451-4.242h7.168v-1.504h.034z" class="Vector"/>
      </g>
      <g class="symbol">
        <path fill="#2C2C2C" d="M67.615 80.912c.707-.863.874-2.068.099-2.857-.838-.852-2.114-.605-2.888.182-.774-.787-2.05-1.034-2.888-.181-.776.788-.608 1.993.099 2.856.763.932 1.809 1.733 2.789 2.427.98-.694 2.025-1.495 2.789-2.427z" class="â spades"/>
      </g>
    </g>
    <g class="up">
      <g class="letter_2">
        <path fill="#222" d="M16.87 19.01H7.436v-1.444c0-1.56.997-3.3 3.01-5.22l3.026-2.89c.743-.706 1.115-1.412 1.115-2.117 0-.74-.236-1.297-.727-1.659-.473-.36-1.132-.541-1.978-.541-1.437 0-2.485.64-3.11 1.937l-1.877-.969c1.167-1.674 2.823-2.512 4.97-2.512 1.37 0 2.553.345 3.517 1.051s1.454 1.609 1.454 2.693c0 1.067-.575 2.15-1.741 3.25l-2.976 2.84c-1.623 1.56-2.451 2.939-2.451 4.12h7.168v1.462h.034z" class="Vector_2"/>
      </g>
      <g class="symbol_2">
        <path fill="#2C2C2C" d="M7.484 24.625c-.707.863-.874 2.068-.099 2.857.838.852 2.114.605 2.888-.182.774.787 2.05 1.034 2.888.182.776-.79.608-1.994-.099-2.857-.763-.932-1.809-1.733-2.789-2.427-.98.694-2.025 1.495-2.789 2.427z" class="â spades_2"/>
      </g>
    </g>
    <g class="icons">
      <g class="symbol_3">
        <g class="â spades_3">
          <g class="fill">
            <path fill="#2C2C2C" d="M46.926 76.948c-1.814 2.21-4.228 4.141-6.58 5.84a1.45 1.45 0 00-.806-.243c-.298 0-.576.09-.807.244-2.352-1.7-4.766-3.63-6.58-5.841a7.507 7.507 0 01-1.077-1.747 1.457 1.457 0 00-.538-2.572c.025-1.177.445-2.312 1.352-3.232 1.763-1.79 4.258-1.747 6.237-.61a1.457 1.457 0 102.825 0c1.979-1.137 4.473-1.18 6.237.61.907.92 1.327 2.055 1.352 3.232a1.457 1.457 0 00-.538 2.572 7.507 7.507 0 01-1.077 1.747z"/>
            <path fill="#2C2C2C" d="M40.202 69.144a.661.661 0 11-1.323.001.661.661 0 011.323 0zM39.574 83.34a.662.662 0 11-.07 0M48.487 73.517a.666.666 0 00-.261.527.662.662 0 10.261-.527zM30.772 74.36a.66.66 0 00-.18-.843.662.662 0 10.18.844z"/>
          </g>
          <path fill="#fff" fill-rule="evenodd" d="M29.476 72.775c-.014-1.469.479-2.924 1.66-4.124 2.225-2.258 5.289-2.094 7.607-.726a1.45 1.45 0 011.593 0c2.318-1.368 5.382-1.532 7.607.727 1.181 1.199 1.674 2.654 1.66 4.123a1.456 1.456 0 01-.58 2.72 8.531 8.531 0 01-1.279 2.126c-1.903 2.32-4.412 4.319-6.789 6.036a1.457 1.457 0 11-2.831 0c-2.377-1.717-4.886-3.716-6.79-6.035a8.531 8.531 0 01-1.28-2.128 1.457 1.457 0 01-.578-2.72zm17.45 4.173c-1.814 2.21-4.228 4.141-6.58 5.84a1.45 1.45 0 00-1.613 0c-2.352-1.698-4.766-3.63-6.58-5.84a7.468 7.468 0 01-1.076-1.747 1.454 1.454 0 00.565-1.284 1.457 1.457 0 00-1.104-1.288 4.635 4.635 0 011.352-3.232c.22-.224.452-.42.693-.587 1.27-.885 2.79-1.014 4.202-.6.463.137.915.331 1.342.577a1.56 1.56 0 00-.044.357 1.457 1.457 0 102.869-.357c1.979-1.137 4.473-1.18 6.237.61.907.92 1.327 2.055 1.352 3.232a1.45 1.45 0 00-.917.691 1.454 1.454 0 00.379 1.88 7.508 7.508 0 01-1.077 1.748zm-6.724-7.803a.663.663 0 11-1.326 0 .663.663 0 011.326 0zm0 14.857a.662.662 0 00-.628-.661h-.07a.662.662 0 10.698.66zm8.285-10.485a.666.666 0 00-.261.527.662.662 0 10.261-.527zm-17.634.548a.659.659 0 01-.662.641.662.662 0 11.662-.64z" class="stroke" clip-rule="evenodd"/>
          <path fill="#2C2C2C" fill-rule="evenodd" d="M30.925 77.957c1.878 2.29 4.32 4.26 6.631 5.943a1.986 1.986 0 103.967 0c2.311-1.684 4.753-3.654 6.63-5.942a9.085 9.085 0 001.244-1.994 1.987 1.987 0 00.732-3.47 6.178 6.178 0 00-1.809-4.214c-2.357-2.393-5.556-2.278-7.992-.96a1.98 1.98 0 00-1.577 0c-2.436-1.318-5.635-1.433-7.992.96a6.178 6.178 0 00-1.81 4.213 1.987 1.987 0 00.732 3.471c.326.715.748 1.39 1.244 1.993zm-.87-2.463c.027.067.056.132.085.198a8.55 8.55 0 001.194 1.93c1.904 2.319 4.413 4.318 6.79 6.035a1.46 1.46 0 001.416 1.801 1.457 1.457 0 001.415-1.801c2.377-1.717 4.886-3.716 6.79-6.036a8.549 8.549 0 001.279-2.127 1.457 1.457 0 00.579-2.72c0-.085 0-.17-.003-.256a5.65 5.65 0 00-1.657-3.867c-2.225-2.258-5.289-2.094-7.607-.727a1.45 1.45 0 00-.797-.236 1.45 1.45 0 00-.796.236c-2.318-1.367-5.382-1.531-7.607.727a5.649 5.649 0 00-1.657 3.867 6.278 6.278 0 00-.003.257 1.455 1.455 0 00-.742 1.27 1.457 1.457 0 001.32 1.45z" class="stroke 2" clip-rule="evenodd"/>
        </g>
      </g>
      <g class="symbol_4">
        <g class="â spades_4">
          <g class="fill_2">
            <path fill="#2C2C2C" d="M32.153 27.27c1.813-2.21 4.228-4.142 6.58-5.841.23.153.508.243.806.243.298 0 .576-.09.807-.244 2.352 1.7 4.766 3.63 6.58 5.841a7.51 7.51 0 011.077 1.748 1.457 1.457 0 00.538 2.572c-.025 1.176-.445 2.311-1.352 3.232-1.764 1.79-4.258 1.746-6.237.61a1.458 1.458 0 00-1.413-1.815 1.457 1.457 0 00-1.412 1.814c-1.98 1.137-4.474 1.18-6.237-.61-.907-.92-1.327-2.055-1.352-3.232a1.457 1.457 0 00.538-2.571 7.507 7.507 0 011.077-1.748z"/>
            <path fill="#2C2C2C" d="M38.877 35.073a.668.668 0 01.052-.257.664.664 0 01.61-.405.662.662 0 11-.662.662zM39.505 20.877a.662.662 0 11.07 0M30.592 30.7a.663.663 0 00-.401-1.189.662.662 0 10.4 1.19zM48.306 29.857a.658.658 0 00-.08.316.661.661 0 10.08-.316z"/>
          </g>
          <path fill="#fff" fill-rule="evenodd" d="M49.603 31.443c.014 1.468-.479 2.923-1.66 4.123-2.226 2.258-5.289 2.094-7.607.727a1.45 1.45 0 01-.797.236 1.45 1.45 0 01-.796-.236c-2.319 1.367-5.382 1.532-7.607-.727-1.181-1.2-1.674-2.655-1.66-4.123a1.456 1.456 0 01.579-2.72 8.531 8.531 0 011.28-2.127c1.902-2.32 4.412-4.319 6.788-6.035a1.457 1.457 0 112.831 0c2.377 1.716 4.887 3.715 6.79 6.035.525.64.962 1.362 1.28 2.127a1.457 1.457 0 01.579 2.72zm-17.45-4.174c1.813-2.21 4.228-4.141 6.58-5.84.23.153.508.243.806.243.298 0 .576-.09.807-.244 2.352 1.7 4.766 3.63 6.58 5.841a7.462 7.462 0 011.076 1.747 1.452 1.452 0 00-.566 1.284 1.458 1.458 0 001.105 1.288 4.635 4.635 0 01-1.352 3.232c-.22.224-.453.42-.693.587-1.27.886-2.79 1.015-4.202.6a6.225 6.225 0 01-1.342-.577l.011-.048a1.457 1.457 0 10-2.836.049c-1.98 1.136-4.474 1.18-6.237-.61-.907-.921-1.327-2.056-1.352-3.233a1.446 1.446 0 00.917-.691 1.454 1.454 0 00-.379-1.88 7.504 7.504 0 011.077-1.748zm6.724 7.804a.666.666 0 01.052-.257.663.663 0 011.273.257.662.662 0 01-1.325 0zm0-14.858c0 .355.278.644.627.662h.07a.662.662 0 10-.697-.662zM30.592 30.7a.664.664 0 00.26-.527.662.662 0 10-.26.527zm17.634-.548a.662.662 0 111.323.042.662.662 0 01-1.323-.042z" class="stroke_2" clip-rule="evenodd"/>
          <path fill="#2C2C2C" fill-rule="evenodd" d="M48.154 26.26c-1.878-2.289-4.32-4.26-6.632-5.943a1.986 1.986 0 10-3.967 0c-2.31 1.684-4.752 3.654-6.63 5.943a9.089 9.089 0 00-1.243 1.993 1.987 1.987 0 00-.732 3.471 6.178 6.178 0 001.809 4.213c2.356 2.393 5.556 2.278 7.992.96a1.982 1.982 0 001.577 0c2.436 1.318 5.635 1.433 7.992-.96a6.178 6.178 0 001.81-4.213 1.987 1.987 0 00-.732-3.471 9.085 9.085 0 00-1.244-1.993zm.87 2.463a8.414 8.414 0 00-1.28-2.127c-1.903-2.32-4.413-4.32-6.79-6.036a1.457 1.457 0 10-2.831 0c-2.376 1.717-4.886 3.717-6.789 6.036a8.552 8.552 0 00-1.28 2.127 1.457 1.457 0 00-.579 2.72c0 .085.001.171.004.257a5.649 5.649 0 001.657 3.866c2.225 2.258 5.289 2.094 7.607.727a1.45 1.45 0 001.593 0c2.318 1.367 5.381 1.532 7.607-.727a5.65 5.65 0 001.657-3.867c.003-.085.003-.17.003-.256a1.462 1.462 0 00.741-1.27 1.457 1.457 0 00-1.32-1.45z" class="stroke 2_2" clip-rule="evenodd"/>
        </g>
      </g>
    </g>
  </g>
</svg>
