<svg xmlns="http://www.w3.org/2000/svg" width="64" height="64" fill="none" viewBox="0 0 36 36">
  <path fill="#000" d="M32.337 20.49 28.615 18l3.722-2.49v4.98ZM19.488 31.045v-6.94l6.45-4.314 5.208 3.482-11.658 7.772ZM18 21.52 12.738 18 18 14.48 23.264 18 18 21.52Zm-1.488 9.525L4.854 23.273l5.208-3.482 6.45 4.314v6.94ZM3.663 15.51 7.386 18l-3.723 2.49v-4.98Zm12.85-10.555v6.94l-6.451 4.315-5.208-3.483 11.658-7.772Zm2.975 0 11.658 7.772-5.207 3.483-6.45-4.315v-6.94ZM35.3 12.531c-.003-.022-.009-.043-.012-.065a1.446 1.446 0 0 0-.026-.124l-.023-.072a1.508 1.508 0 0 0-.122-.28l-.043-.07a1.36 1.36 0 0 0-.188-.234c-.02-.02-.039-.04-.06-.058a1.72 1.72 0 0 0-.083-.072l-.068-.05-.024-.019L18.825.937a1.488 1.488 0 0 0-1.65 0L1.35 11.487l-.025.019-.067.05a1.447 1.447 0 0 0-.084.072l-.06.058a1.31 1.31 0 0 0-.187.235 1.264 1.264 0 0 0-.127.24 2.003 2.003 0 0 0-.038.109l-.023.072c-.011.04-.019.082-.026.124-.004.022-.01.043-.012.065a1.432 1.432 0 0 0-.014.194v10.55c0 .066.005.13.014.195l.012.064c.007.042.015.083.026.125l.023.072c.012.036.024.072.038.109l.033.072.051.099a1.707 1.707 0 0 0 .23.303l.06.058a1.29 1.29 0 0 0 .151.122l.025.019 15.825 10.55a1.488 1.488 0 0 0 1.65 0l15.826-10.55.024-.019a1.7 1.7 0 0 0 .152-.122l.06-.058a1.403 1.403 0 0 0 .187-.235l.043-.068c.018-.033.034-.066.05-.1.011-.023.023-.047.033-.071.015-.037.027-.073.039-.11l.023-.072c.01-.04.018-.082.026-.124l.012-.064c.008-.065.013-.13.013-.195v-10.55c0-.066-.005-.13-.013-.194Z"/>
</svg>
