<svg xmlns="http://www.w3.org/2000/svg" width="50" height="80" fill="none" viewBox="0 0 89 100">
  <path fill="#264DE4" d="m88.192 0-8.033 89.99L44.05 100 8.041 90.004.017 0h88.175Z"/>
  <path fill="#2965F1" d="m73.282 84.26 6.865-76.9H44.104v84.988l29.178-8.089Z"/>
  <path fill="#EBEBEB" d="m18.413 40.74.99 11.039h24.702V40.74H18.413Zm25.692-22.342h-27.68l1.003 11.038h26.677V18.398Zm0 62.495V69.408l-.049.013-12.294-3.32-.785-8.803H19.895l1.547 17.332 22.612 6.277.05-.014Z"/>
  <path fill="#fff" d="m57.66 51.779-1.282 14.316-12.312 3.323v11.484l22.63-6.272.166-1.865 2.594-29.06.27-2.965 1.992-22.342H44.066v11.038h15.555L58.616 40.74h-14.55v11.038H57.66Z"/>
</svg>
