<svg xmlns="http://www.w3.org/2000/svg" width="50" height="80" fill="none" viewBox="0 0 68 100">
  <path fill="#0ACF83" d="M17.162 100c9.2 0 16.666-7.467 16.666-16.667V66.667H17.162c-9.2 0-16.667 7.466-16.667 16.666S7.962 100 17.162 100Z"/>
  <path fill="#A259FF" d="M.495 50c0-9.2 7.467-16.667 16.667-16.667h16.666v33.334H17.162C7.962 66.666.495 59.2.495 50Z"/>
  <path fill="#F24E1E" d="M.495 16.667C.495 7.467 7.962 0 17.162 0h16.666v33.333H17.162c-9.2 0-16.667-7.466-16.667-16.666Z"/>
  <path fill="#FF7262" d="M33.828 0h16.667c9.2 0 16.667 7.467 16.667 16.667 0 9.2-7.467 16.666-16.667 16.666H33.828V0Z"/>
  <path fill="#1ABCFE" d="M67.162 50c0 9.2-7.467 16.666-16.667 16.666-9.2 0-16.667-7.466-16.667-16.666s7.467-16.667 16.667-16.667c9.2 0 16.667 7.467 16.667 16.667Z"/>
</svg>
