<svg xmlns="http://www.w3.org/2000/svg" width="50" height="80" fill="none" viewBox="0 0 101 98">
  <path fill="#161614" d="M50.276.422c-27.61 0-50 22.386-50 50 0 22.092 14.327 40.834 34.193 47.446 2.5.463 3.417-1.085 3.417-2.405 0-1.193-.047-5.132-.068-9.31-13.91 3.025-16.846-5.899-16.846-5.899-2.274-5.78-5.551-7.316-5.551-7.316-4.537-3.103.342-3.04.342-3.04 5.02.353 7.664 5.153 7.664 5.153 4.46 7.644 11.697 5.434 14.55 4.157.45-3.232 1.745-5.438 3.175-6.686-11.106-1.265-22.78-5.552-22.78-24.71 0-5.46 1.953-9.92 5.151-13.421-.519-1.26-2.23-6.345.485-13.232 0 0 4.198-1.344 13.753 5.125 3.989-1.108 8.266-1.664 12.515-1.682 4.25.018 8.53.574 12.526 1.682 9.544-6.47 13.736-5.125 13.736-5.125 2.722 6.887 1.01 11.972.49 13.232 3.206 3.501 5.146 7.961 5.146 13.42 0 19.204-11.696 23.433-22.83 24.67 1.793 1.553 3.391 4.596 3.391 9.26 0 6.69-.058 12.075-.058 13.722 0 1.33.9 2.89 3.435 2.398 19.856-6.619 34.164-25.354 34.164-47.438 0-27.615-22.386-50-50-50Z"/>
  <path fill="#161614" d="M19.003 71.649c-.11.248-.501.323-.857.152-.363-.163-.567-.502-.45-.75.109-.257.5-.328.862-.156.364.163.57.505.445.754Zm2.46 2.194c-.24.221-.705.119-1.022-.23-.327-.35-.388-.815-.146-1.04.246-.22.698-.117 1.026.232.327.352.39.815.14 1.039h.001Zm1.687 2.808c-.307.213-.808.013-1.117-.431-.307-.445-.307-.978.006-1.192.31-.213.804-.021 1.118.42.306.452.306.985-.008 1.204Zm2.853 3.252c-.274.302-.858.221-1.285-.191-.437-.403-.559-.975-.284-1.278.277-.303.864-.218 1.295.192.434.402.567.978.274 1.277Zm3.688 1.098c-.12.391-.683.57-1.25.403-.565-.171-.935-.63-.82-1.026.117-.394.681-.58 1.252-.401.565.17.936.626.818 1.024Zm4.197.466c.014.412-.466.754-1.06.761-.599.014-1.082-.32-1.088-.726 0-.416.469-.755 1.067-.765.594-.012 1.081.32 1.081.73Zm4.123-.158c.072.402-.342.815-.932.925-.58.106-1.118-.142-1.192-.541-.072-.413.35-.826.928-.933.592-.102 1.12.14 1.196.549"/>
</svg>
