<svg xmlns="http://www.w3.org/2000/svg" width="50" height="80" fill="none" viewBox="0 0 101 101">
  <path fill="#F7DF1E" d="M100.552.594h-100v100h100v-100Z"/>
  <path fill="#000" d="M67.727 78.72c2.014 3.289 4.635 5.706 9.27 5.706 3.893 0 6.38-1.946 6.38-4.635 0-3.222-2.555-4.363-6.84-6.238l-2.35-1.008c-6.78-2.889-11.286-6.508-11.286-14.159 0-7.047 5.37-12.412 13.762-12.412 5.975 0 10.27 2.079 13.365 7.523l-7.317 4.699c-1.611-2.889-3.35-4.027-6.048-4.027-2.752 0-4.496 1.746-4.496 4.027 0 2.819 1.745 3.96 5.777 5.706l2.35 1.007c7.984 3.423 12.492 6.914 12.492 14.761 0 8.46-6.647 13.096-15.572 13.096-8.727 0-14.365-4.159-17.124-9.61l7.637-4.436Zm-33.195.814c1.476 2.619 2.819 4.833 6.047 4.833 3.087 0 5.035-1.208 5.035-5.904V46.51h9.397v32.08c0 9.73-5.705 14.158-14.032 14.158-7.524 0-11.88-3.893-14.097-8.583l7.65-4.631Z"/>
</svg>
