<svg xmlns="http://www.w3.org/2000/svg" width="64" height="64" fill="none" viewBox="0 0 48 48">
  <path fill="#0A66C2" d="M7 9.413A2.413 2.413 0 0 1 9.413 7h29.174A2.413 2.413 0 0 1 41 9.413v29.174A2.413 2.413 0 0 1 38.587 41H9.413A2.413 2.413 0 0 1 7 38.587V9.413Z"/>
  <path fill="#fff" d="M14.631 17.559a2.95 2.95 0 1 0 0-5.9 2.95 2.95 0 0 0 0 5.9Zm5.651 2.179h4.888v2.24s1.327-2.653 4.936-2.653c3.22 0 5.887 1.586 5.887 6.42V35.94h-5.066v-8.96c0-2.851-1.522-3.165-2.683-3.165-2.407 0-2.82 2.077-2.82 3.538v8.587h-5.142V19.739Zm-8.222.001h5.143v16.2H12.06v-16.2Z"/>
</svg>
