<svg xmlns="http://www.w3.org/2000/svg" width="50" height="80" fill="none" viewBox="0 0 101 52">
  <path fill="#6E81B6" fill-rule="evenodd" d="M50.105 51.23c27.614 0 49.999-11.345 49.999-25.339 0-13.994-22.385-25.339-50-25.339-27.613 0-50 11.345-50 25.34 0 13.993 22.387 25.338 50 25.338Z" clip-rule="evenodd"/>
  <path fill="#fff" fill-rule="evenodd" d="m60.238 34.08 2.48-12.764c.56-2.88.094-5.03-1.383-6.387-1.431-1.314-3.86-1.953-7.426-1.953h-4.296l1.229-6.324a.813.813 0 0 0-.797-.969h-5.929a.813.813 0 0 0-.798.658l-2.634 13.551c-.24-1.524-.83-2.835-1.774-3.917-1.739-1.99-4.49-3-8.175-3h-11.49a.813.813 0 0 0-.799.659l-5.33 27.43a.81.81 0 0 0 .798.968h5.974c.39 0 .724-.277.798-.66l1.29-6.634h4.448c2.333 0 4.295-.253 5.826-.75 1.565-.51 3.006-1.373 4.275-2.562a13.139 13.139 0 0 0 2.526-3.137l-1.064 5.48a.811.811 0 0 0 .798.968h5.928c.39 0 .724-.276.798-.657l2.926-15.057h4.068c1.733 0 2.241.345 2.38.494.125.135.385.612.093 2.116L52.62 33.769a.815.815 0 0 0 .798.968h6.022a.81.81 0 0 0 .798-.656ZM32.753 23.535c-.372 1.914-1.073 3.278-2.086 4.056-1.027.793-2.671 1.195-4.886 1.195h-2.648l1.915-9.854h3.423c2.516 0 3.529.537 3.936.988.564.625.684 1.876.346 3.615Zm52.456-7.559c-1.739-1.99-4.489-3-8.175-3h-11.49a.813.813 0 0 0-.798.659l-5.33 27.43a.814.814 0 0 0 .797.968h5.975c.39 0 .723-.277.798-.66l1.29-6.634h4.447c2.335 0 4.294-.253 5.826-.75 1.566-.51 3.007-1.373 4.276-2.562a13.104 13.104 0 0 0 2.59-3.247 13.157 13.157 0 0 0 1.41-3.915c.68-3.495.136-6.284-1.616-8.289Zm-5.817 7.56c-.373 1.913-1.075 3.277-2.086 4.055-1.028.793-2.672 1.195-4.886 1.195h-2.65l1.914-9.854h3.425c2.515 0 3.528.537 3.936.988.563.625.683 1.876.346 3.615Z" clip-rule="evenodd"/>
  <path fill="#000" fill-rule="evenodd" d="M28.301 18.117c2.27 0 3.784.42 4.54 1.258.756.837.936 2.276.54 4.315-.413 2.122-1.209 3.637-2.388 4.546-1.179.908-2.973 1.361-5.382 1.361h-3.635l2.231-11.48h4.094ZM13.743 41.218h5.975l1.418-7.292h5.118c2.258 0 4.116-.237 5.574-.712 1.458-.475 2.784-1.27 3.977-2.386a12.229 12.229 0 0 0 2.432-3.046c.62-1.11 1.06-2.334 1.32-3.673.633-3.252.156-5.785-1.43-7.599-1.584-1.814-4.106-2.72-7.563-2.72h-11.49l-5.331 27.428ZM43.946 6.496h5.928l-1.417 7.293h5.282c3.321 0 5.615.58 6.876 1.738 1.261 1.16 1.639 3.038 1.135 5.635l-2.48 12.764h-6.023l2.358-12.137c.268-1.38.17-2.322-.296-2.824-.466-.502-1.459-.754-2.975-.754h-4.738l-3.053 15.715h-5.929l5.332-27.43ZM74.94 18.117c2.27 0 3.782.42 4.54 1.258.755.837.935 2.276.54 4.315-.413 2.122-1.209 3.637-2.388 4.546-1.179.908-2.974 1.361-5.381 1.361h-3.635l2.23-11.48h4.094ZM60.38 41.218h5.976l1.417-7.292h5.118c2.259 0 4.117-.237 5.575-.712 1.458-.475 2.784-1.27 3.977-2.386a12.213 12.213 0 0 0 2.431-3.046 12.32 12.32 0 0 0 1.322-3.673c.632-3.252.155-5.785-1.43-7.599-1.586-1.814-4.107-2.72-7.564-2.72h-11.49L60.38 41.217Z" clip-rule="evenodd"/>
</svg>
