<svg xmlns="http://www.w3.org/2000/svg" width="50" height="80" fill="none" viewBox="0 0 101 100">
  <path fill="url(#a)" d="M50.468.151c-25.386 0-23.801 11.01-23.801 11.01l.028 11.405h24.226v3.424H17.073S.828 24.148.828 49.762c0 25.615 14.18 24.707 14.18 24.707h8.46V62.583s-.455-14.18 13.953-14.18H61.45s13.5.219 13.5-13.046V13.425S76.998.15 50.468.15ZM37.11 7.821a4.355 4.355 0 0 1 4.358 4.358 4.355 4.355 0 0 1-6.026 4.028 4.354 4.354 0 0 1-2.69-4.028 4.355 4.355 0 0 1 4.358-4.358Z"/>
  <path fill="url(#b)" d="M51.19 99.631c25.385 0 23.8-11.009 23.8-11.009l-.028-11.405H50.736v-3.424h33.848s16.244 1.842 16.244-23.773S86.65 25.313 86.65 25.313h-8.462V37.2s.456 14.179-13.953 14.179H40.208s-13.5-.218-13.5 13.047v21.933s-2.05 13.273 24.48 13.273h.001Zm13.357-7.67a4.355 4.355 0 0 1-4.027-6.026 4.353 4.353 0 0 1 4.027-2.69 4.355 4.355 0 0 1 4.028 6.027 4.356 4.356 0 0 1-4.028 2.69Z"/>
  <defs>
    <linearGradient id="a" x1="10.438" x2="59.995" y1="9.099" y2="58.161" gradientUnits="userSpaceOnUse">
      <stop stop-color="#387EB8"/>
      <stop offset="1" stop-color="#366994"/>
    </linearGradient>
    <linearGradient id="b" x1="40.856" x2="94.075" y1="40.604" y2="90.913" gradientUnits="userSpaceOnUse">
      <stop stop-color="#FFE052"/>
      <stop offset="1" stop-color="#FFC331"/>
    </linearGradient>
  </defs>
</svg>
