<svg xmlns="http://www.w3.org/2000/svg" width="50" height="80" fill="none" viewBox="0 0 101 76">
  <path fill="#CD6799" d="M86.212 43.911c-3.488.018-6.52.859-9.06 2.1-.93-1.844-1.862-3.488-2.027-4.694-.182-1.406-.402-2.264-.182-3.945.219-1.68 1.205-4.073 1.187-4.256-.018-.182-.22-1.04-2.229-1.06-2.009-.017-3.744.385-3.945.914-.2.53-.584 1.735-.84 2.977-.347 1.827-4.019 8.348-6.119 11.763-.676-1.333-1.26-2.502-1.388-3.434-.183-1.406-.402-2.264-.183-3.945.22-1.68 1.206-4.073 1.187-4.256-.018-.182-.219-1.04-2.228-1.06-2.01-.017-3.744.385-3.945.914-.201.53-.42 1.772-.84 2.977-.42 1.206-5.297 12.092-6.576 14.905a84.201 84.201 0 0 1-1.626 3.38s-.018.054-.073.145a45.049 45.049 0 0 1-.548 1.041v.019c-.274.493-.566.95-.712.95-.11 0-.31-1.316.037-3.106.73-3.78 2.465-9.662 2.447-9.863 0-.11.329-1.132-1.132-1.662-1.425-.53-1.937.347-2.064.347-.128 0-.22.31-.22.31s1.59-6.612-3.032-6.612c-2.886 0-6.867 3.16-8.84 6.01-1.242.675-3.89 2.118-6.722 3.671-1.077.603-2.192 1.206-3.233 1.772-.073-.073-.146-.165-.219-.238-5.59-5.973-15.927-10.192-15.489-18.21.164-2.923 1.17-10.594 19.855-19.91 15.379-7.58 27.617-5.48 29.736-.822C60.22 17.684 50.63 30.03 34.74 31.82c-6.064.675-9.242-1.663-10.046-2.54-.84-.913-.968-.968-1.278-.785-.512.274-.183 1.096 0 1.571.475 1.242 2.43 3.434 5.735 4.512 2.923.95 10.028 1.48 18.63-1.845 9.627-3.726 17.152-14.083 14.942-22.759-2.21-8.804-16.822-11.708-30.65-6.795-8.219 2.923-17.132 7.526-23.543 13.517C.913 23.819-.293 30.01.2 32.605 1.973 41.81 14.668 47.802 19.746 52.24c-.256.146-.494.274-.695.384-2.538 1.26-12.22 6.32-14.63 11.671-2.74 6.064.438 10.412 2.539 10.996 6.52 1.808 13.224-1.443 16.822-6.813 3.599-5.37 3.16-12.347 1.498-15.544a.403.403 0 0 0-.073-.11c.657-.383 1.333-.785 1.99-1.168a97.257 97.257 0 0 1 3.672-2.064c-.62 1.698-1.077 3.726-1.297 6.648-.274 3.434 1.133 7.891 2.978 9.644.822.768 1.79.786 2.41.786 2.156 0 3.124-1.79 4.202-3.909 1.315-2.594 2.502-5.607 2.502-5.607s-1.48 8.146 2.539 8.146c1.461 0 2.94-1.9 3.598-2.868v.018s.037-.054.11-.182l.237-.384v-.036c.585-1.023 1.9-3.343 3.854-7.197 2.52-4.968 4.95-11.178 4.95-11.178s.22 1.516.968 4.037c.439 1.479 1.352 3.105 2.083 4.675-.585.822-.95 1.279-.95 1.279l.018.018c-.475.621-.986 1.297-1.553 1.955-1.99 2.374-4.365 5.096-4.694 5.881-.383.932-.292 1.607.439 2.155.53.402 1.48.457 2.447.402 1.79-.128 3.05-.566 3.671-.84.968-.347 2.101-.877 3.16-1.662 1.955-1.443 3.142-3.507 3.032-6.229-.054-1.497-.547-2.995-1.15-4.402.182-.255.347-.511.53-.767 3.086-4.511 5.479-9.461 5.479-9.461s.22 1.516.968 4.036c.365 1.279 1.114 2.667 1.772 4.019-2.904 2.356-4.694 5.096-5.334 6.886-1.15 3.324-.255 4.822 1.443 5.169.767.164 1.863-.2 2.667-.548a12.144 12.144 0 0 0 3.38-1.735c1.954-1.443 3.835-3.452 3.725-6.174-.055-1.242-.383-2.466-.84-3.653 2.466-1.023 5.644-1.589 9.699-1.114 8.694 1.023 10.411 6.447 10.082 8.73-.328 2.284-2.155 3.526-2.758 3.91-.602.383-.803.51-.748.785.073.402.365.383.876.31.713-.127 4.567-1.844 4.731-6.045.274-5.37-4.84-11.234-13.882-11.179Zm-67.07 22.613c-2.886 3.141-6.904 4.329-8.64 3.324-1.863-1.078-1.132-5.717 2.411-9.041 2.156-2.028 4.932-3.91 6.777-5.06.42-.256 1.04-.62 1.79-1.078.128-.073.2-.11.2-.11.147-.09.293-.182.44-.273 1.296 4.749.054 8.932-2.978 12.238ZM40.147 52.24c-1.005 2.448-3.105 8.713-4.384 8.366-1.096-.293-1.771-5.041-.219-9.736.786-2.356 2.448-5.169 3.416-6.265 1.57-1.753 3.306-2.338 3.726-1.625.53.931-1.918 7.726-2.539 9.26Zm17.334 8.293c-.42.219-.822.365-1.005.255-.128-.073.183-.365.183-.365s2.174-2.338 3.032-3.397c.493-.621 1.078-1.352 1.699-2.174v.238c0 2.794-2.704 4.675-3.91 5.443Zm13.37-3.05c-.31-.22-.256-.95.785-3.234.402-.895 1.352-2.392 2.978-3.835.182.584.31 1.15.292 1.68-.018 3.525-2.539 4.84-4.055 5.388Z"/>
</svg>
