<?xml-stylesheet type="text/css" href="../style.css"?>
<svg xmlns="http://www.w3.org/2000/svg" width="165" height="165" fill="none" viewBox="0 0 165 165">
  <g class="b">
    <path fill="#D9D9D9" fill-opacity=".1" stroke="#000" d="M143.184 86.927c0 34.406-27.355 62.28-61.079 62.28-33.724 0-61.079-27.874-61.079-62.28 0-34.406 27.355-62.28 61.08-62.28 33.723 0 61.078 27.874 61.078 62.28Z" class="powloka"/>
    <path fill="#D9D9D9" fill-opacity=".1" stroke="#000" d="M158.974 86.122c0 43.296-34.425 78.378-76.869 78.378S5.237 129.418 5.237 86.122 39.66 7.744 82.105 7.744c42.444 0 76.869 35.082 76.869 78.378Z" class="powloka"/>
    <path fill="url(#a)" stroke="#000" stroke-width=".5" d="M82.5 92.006c2.977 0 5.382-2.459 5.382-5.482s-2.405-5.481-5.382-5.481-5.382 2.458-5.382 5.481c0 3.023 2.405 5.482 5.382 5.482Z" class="Ellipse 2"/>
    <path fill="url(#b)" stroke="#000" stroke-width=".5" d="M88.171 148.5c0 3.2-2.544 5.787-5.671 5.787-3.127 0-5.671-2.587-5.671-5.787 0-3.2 2.544-5.787 5.671-5.787 3.127 0 5.671 2.587 5.671 5.787Z" class="elektron"/>
    <path fill="url(#c)" stroke="#000" stroke-width=".5" d="M164.75 87.33c0 3.2-2.543 5.786-5.671 5.786-3.127 0-5.671-2.586-5.671-5.787 0-3.2 2.544-5.786 5.671-5.786 3.128 0 5.671 2.586 5.671 5.786Z" class="elektron"/>
    <path fill="url(#d)" stroke="#000" stroke-width=".5" d="M88.96 6.037c0 3.2-2.543 5.786-5.67 5.786-3.128 0-5.672-2.586-5.672-5.786 0-3.2 2.544-5.787 5.672-5.787 3.127 0 5.67 2.586 5.67 5.787Z" class="elektron"/>
    <path fill="url(#e)" stroke="#000" stroke-width=".5" d="M11.592 86.524c0 3.2-2.543 5.787-5.671 5.787-3.127 0-5.671-2.586-5.671-5.787 0-3.2 2.544-5.786 5.671-5.786 3.128 0 5.671 2.586 5.671 5.786Z" class="elektron"/>
    <path fill="url(#f)" stroke="#000" stroke-width=".5" d="M88.171 24.549c0 3.2-2.544 5.786-5.671 5.786-3.127 0-5.671-2.586-5.671-5.786 0-3.2 2.544-5.787 5.671-5.787 3.127 0 5.671 2.586 5.671 5.787Z" class="elektron"/>
  </g>
  <defs>
    <radialGradient id="a" cx="0" cy="0" r="1" class="a" gradientTransform="matrix(0 5.23171 -5.13158 0 82.5 86.524)" gradientUnits="userSpaceOnUse">
      <stop stop-color="#F80A0A"/>
      <stop offset="1" stop-color="#690404"/>
    </radialGradient>
    <radialGradient id="b" cx="0" cy="0" r="1" class="b" gradientTransform="matrix(0 6.03659 -5.92105 0 82.5 148.5)" gradientUnits="userSpaceOnUse">
      <stop stop-color="#00C2FF"/>
      <stop offset="1" stop-color="#0051A3"/>
    </radialGradient>
    <radialGradient id="c" cx="0" cy="0" r="1" class="c" gradientTransform="matrix(0 6.03659 -5.92105 0 159.079 87.33)" gradientUnits="userSpaceOnUse">
      <stop stop-color="#00C2FF"/>
      <stop offset="1" stop-color="#0051A3"/>
    </radialGradient>
    <radialGradient id="d" cx="0" cy="0" r="1" class="d" gradientTransform="matrix(0 6.03659 -5.92105 0 83.29 6.037)" gradientUnits="userSpaceOnUse">
      <stop stop-color="#00C2FF"/>
      <stop offset="1" stop-color="#0051A3"/>
    </radialGradient>
    <radialGradient id="e" cx="0" cy="0" r="1" class="e" gradientTransform="matrix(0 6.03659 -5.92105 0 5.921 86.524)" gradientUnits="userSpaceOnUse">
      <stop stop-color="#00C2FF"/>
      <stop offset="1" stop-color="#0051A3"/>
    </radialGradient>
    <radialGradient id="f" cx="0" cy="0" r="1" class="f" gradientTransform="matrix(0 6.03659 -5.92105 0 82.5 24.549)" gradientUnits="userSpaceOnUse">
      <stop stop-color="#00C2FF"/>
      <stop offset="1" stop-color="#0051A3"/>
    </radialGradient>
  </defs>
</svg>
