<?xml-stylesheet type="text/css" href="../style.css"?>
<svg xmlns="http://www.w3.org/2000/svg" width="166" height="165" fill="none" viewBox="0 0 166 165">
  <g class="bi">
    <path fill="#D9D9D9" fill-opacity=".1" stroke="#000" d="M117.23 83.382c0 18.724-15.345 33.912-34.284 33.912-18.94 0-34.284-15.188-34.284-33.912 0-18.723 15.344-33.911 34.284-33.911 18.939 0 34.284 15.188 34.284 33.911Z" class="powloka"/>
    <path fill="#D9D9D9" fill-opacity=".1" stroke="#000" d="M126.149 83.382c0 23.597-19.338 42.736-43.203 42.736-23.865 0-43.203-19.139-43.203-42.736 0-23.597 19.338-42.735 43.203-42.735 23.865 0 43.203 19.139 43.203 42.735Z" class="powloka"/>
    <path fill="#D9D9D9" fill-opacity=".1" stroke="#000" d="M135.067 83.383c0 28.47-23.33 51.558-52.121 51.558-28.791 0-52.122-23.088-52.122-51.558s23.33-51.56 52.122-51.56c28.791 0 52.121 23.09 52.121 51.56Z" class="powloka"/>
    <path fill="#D9D9D9" fill-opacity=".1" stroke="#000" d="M143.987 83.382c0 33.344-27.324 60.383-61.04 60.383-33.718 0-61.041-27.039-61.041-60.382C21.906 50.038 49.229 23 82.946 23s61.041 27.04 61.041 60.382Z" class="powloka"/>
    <path fill="#D9D9D9" fill-opacity=".1" stroke="#000" d="M152.906 83.382c0 38.217-31.317 69.206-69.96 69.206-38.643 0-69.96-30.989-69.96-69.206 0-38.216 31.317-69.205 69.96-69.205 38.643 0 69.96 30.99 69.96 69.206Z" class="powloka"/>
    <path fill="#D9D9D9" fill-opacity=".1" stroke="#000" d="M161.824 83.382c0 43.09-35.31 78.03-78.878 78.03s-78.878-34.94-78.878-78.03c0-43.089 35.31-78.029 78.878-78.029s78.878 34.94 78.878 78.03Z" class="powloka"/>
    <path fill="url(#a)" stroke="#000" stroke-width=".5" d="M82.723 86.28c1.736 0 3.148-1.394 3.148-3.118 0-1.725-1.412-3.118-3.148-3.118-1.736 0-3.149 1.394-3.149 3.118s1.413 3.117 3.149 3.117Z" class="Ellipse 36"/>
    <path fill="url(#b)" stroke="#000" stroke-width=".5" d="M61.003 45.504c0 1.723-1.438 3.131-3.226 3.131-1.789 0-3.227-1.408-3.227-3.13 0-1.724 1.438-3.132 3.227-3.132 1.788 0 3.226 1.408 3.226 3.131Z" class="elektron"/>
    <path fill="url(#c)" stroke="#000" stroke-width=".5" d="M43.003 81.504c0 1.723-1.438 3.131-3.226 3.131-1.789 0-3.227-1.408-3.227-3.13 0-1.724 1.438-3.132 3.227-3.132 1.788 0 3.226 1.408 3.226 3.131Z" class="elektron"/>
    <path fill="url(#d)" stroke="#000" stroke-width=".5" d="M111.003 45.504c0 1.723-1.438 3.131-3.226 3.131-1.789 0-3.226-1.408-3.226-3.13 0-1.724 1.437-3.132 3.226-3.132 1.788 0 3.226 1.408 3.226 3.131Z" class="elektron"/>
    <path fill="url(#e)" stroke="#000" stroke-width=".5" d="M74.003 47.504c0 1.723-1.438 3.131-3.226 3.131-1.789 0-3.227-1.408-3.227-3.13 0-1.724 1.438-3.132 3.227-3.132 1.788 0 3.226 1.408 3.226 3.131Z" class="elektron"/>
    <path fill="url(#f)" stroke="#000" stroke-width=".5" d="M39.003 107.504c0 1.723-1.438 3.131-3.226 3.131-1.789 0-3.227-1.408-3.227-3.131 0-1.723 1.438-3.131 3.227-3.131 1.788 0 3.226 1.408 3.226 3.131Z" class="elektron"/>
    <path fill="url(#g)" stroke="#000" stroke-width=".5" d="M103.003 31.504c0 1.723-1.438 3.131-3.226 3.131-1.789 0-3.227-1.408-3.227-3.13 0-1.724 1.438-3.132 3.227-3.132 1.788 0 3.226 1.408 3.226 3.131Z" class="elektron"/>
    <path fill="url(#h)" stroke="#000" stroke-width=".5" d="M134.003 62.504c0 1.723-1.438 3.131-3.226 3.131-1.789 0-3.226-1.408-3.226-3.13 0-1.724 1.437-3.132 3.226-3.132 1.788 0 3.226 1.408 3.226 3.131Z" class="elektron"/>
    <path fill="url(#i)" stroke="#000" stroke-width=".5" d="M140.003 81.504c0 1.723-1.438 3.131-3.226 3.131-1.789 0-3.226-1.408-3.226-3.13 0-1.724 1.437-3.132 3.226-3.132 1.788 0 3.226 1.408 3.226 3.131Z" class="elektron"/>
    <path fill="url(#j)" stroke="#000" stroke-width=".5" d="M87.003 28.504c0 1.723-1.438 3.131-3.226 3.131-1.789 0-3.227-1.408-3.227-3.13 0-1.724 1.438-3.132 3.227-3.132 1.788 0 3.226 1.408 3.226 3.131Z" class="elektron"/>
    <path fill="url(#k)" stroke="#000" stroke-width=".5" d="M123.003 44.504c0 1.723-1.438 3.131-3.226 3.131-1.789 0-3.226-1.408-3.226-3.13 0-1.724 1.437-3.132 3.226-3.132 1.788 0 3.226 1.408 3.226 3.131Z" class="elektron"/>
    <path fill="url(#l)" stroke="#000" stroke-width=".5" d="M69.003 130.504c0 1.723-1.438 3.131-3.226 3.131-1.789 0-3.227-1.408-3.227-3.131 0-1.723 1.438-3.131 3.227-3.131 1.788 0 3.226 1.408 3.226 3.131Z" class="elektron"/>
    <path fill="url(#m)" stroke="#000" stroke-width=".5" d="M50.003 122.504c0 1.723-1.438 3.131-3.226 3.131-1.789 0-3.227-1.408-3.227-3.131 0-1.723 1.438-3.131 3.227-3.131 1.788 0 3.226 1.408 3.226 3.131Z" class="elektron"/>
    <path fill="url(#n)" stroke="#000" stroke-width=".5" d="M132.003 104.504c0 1.723-1.438 3.131-3.226 3.131-1.789 0-3.226-1.408-3.226-3.131 0-1.723 1.437-3.131 3.226-3.131 1.788 0 3.226 1.408 3.226 3.131Z" class="elektron"/>
    <path fill="url(#o)" stroke="#000" stroke-width=".5" d="M70.003 31.504c0 1.723-1.438 3.131-3.226 3.131-1.789 0-3.227-1.408-3.227-3.13 0-1.724 1.438-3.132 3.227-3.132 1.788 0 3.226 1.408 3.226 3.131Z" class="elektron"/>
    <path fill="url(#p)" stroke="#000" stroke-width=".5" d="M87.003 20.504c0 1.723-1.438 3.131-3.226 3.131-1.789 0-3.227-1.408-3.227-3.13 0-1.724 1.438-3.132 3.227-3.132 1.788 0 3.226 1.408 3.226 3.131Z" class="elektron"/>
    <path fill="url(#q)" stroke="#000" stroke-width=".5" d="M111.003 27.504c0 1.723-1.438 3.131-3.226 3.131-1.789 0-3.226-1.408-3.226-3.13 0-1.724 1.437-3.132 3.226-3.132 1.788 0 3.226 1.408 3.226 3.131Z" class="elektron"/>
    <path fill="url(#r)" stroke="#000" stroke-width=".5" d="M99.003 22.504c0 1.723-1.438 3.131-3.226 3.131-1.789 0-3.227-1.408-3.227-3.13 0-1.724 1.438-3.132 3.227-3.132 1.788 0 3.226 1.408 3.226 3.131Z" class="elektron"/>
    <path fill="url(#s)" stroke="#000" stroke-width=".5" d="M127.003 35.504c0 1.723-1.438 3.131-3.226 3.131-1.789 0-3.226-1.408-3.226-3.13 0-1.724 1.437-3.132 3.226-3.132 1.788 0 3.226 1.408 3.226 3.131Z" class="elektron"/>
    <path fill="url(#t)" stroke="#000" stroke-width=".5" d="M143.003 57.504c0 1.723-1.438 3.131-3.226 3.131-1.789 0-3.226-1.408-3.226-3.13 0-1.724 1.437-3.132 3.226-3.132 1.788 0 3.226 1.408 3.226 3.131Z" class="elektron"/>
    <path fill="url(#u)" stroke="#000" stroke-width=".5" d="M146.003 69.504c0 1.723-1.438 3.131-3.226 3.131-1.789 0-3.226-1.408-3.226-3.13 0-1.724 1.437-3.132 3.226-3.132 1.788 0 3.226 1.408 3.226 3.131Z" class="elektron"/>
    <path fill="url(#v)" stroke="#000" stroke-width=".5" d="M87.003 143.504c0 1.723-1.438 3.131-3.226 3.131-1.789 0-3.227-1.408-3.227-3.131 0-1.723 1.438-3.131 3.227-3.131 1.788 0 3.226 1.408 3.226 3.131Z" class="elektron"/>
    <path fill="url(#w)" stroke="#000" stroke-width=".5" d="M87.003 152.504c0 1.723-1.438 3.131-3.226 3.131-1.789 0-3.227-1.408-3.227-3.131 0-1.723 1.438-3.131 3.227-3.131 1.788 0 3.226 1.408 3.226 3.131Z" class="elektron"/>
    <path fill="url(#x)" stroke="#000" stroke-width=".5" d="M61.003 148.504c0 1.723-1.438 3.131-3.226 3.131-1.789 0-3.227-1.408-3.227-3.131 0-1.723 1.438-3.131 3.227-3.131 1.788 0 3.226 1.408 3.226 3.131Z" class="elektron"/>
    <path fill="url(#y)" stroke="#000" stroke-width=".5" d="M25.003 119.504c0 1.723-1.438 3.131-3.226 3.131-1.789 0-3.227-1.408-3.227-3.131 0-1.723 1.438-3.131 3.227-3.131 1.788 0 3.226 1.408 3.226 3.131Z" class="elektron"/>
    <path fill="url(#z)" stroke="#000" stroke-width=".5" d="M17.003 99.504c0 1.723-1.438 3.131-3.226 3.131-1.789 0-3.226-1.408-3.226-3.13 0-1.724 1.437-3.132 3.226-3.132 1.788 0 3.226 1.408 3.226 3.131Z" class="elektron"/>
    <path fill="url(#A)" stroke="#000" stroke-width=".5" d="M115.003 145.504c0 1.723-1.438 3.131-3.226 3.131-1.789 0-3.226-1.408-3.226-3.131 0-1.723 1.437-3.131 3.226-3.131 1.788 0 3.226 1.408 3.226 3.131Z" class="elektron"/>
    <path fill="url(#B)" stroke="#000" stroke-width=".5" d="M151.003 107.504c0 1.723-1.438 3.131-3.226 3.131-1.789 0-3.226-1.408-3.226-3.131 0-1.723 1.437-3.131 3.226-3.131 1.788 0 3.226 1.408 3.226 3.131Z" class="elektron"/>
    <path fill="url(#C)" stroke="#000" stroke-width=".5" d="M50.003 142.504c0 1.723-1.438 3.131-3.226 3.131-1.789 0-3.227-1.408-3.227-3.131 0-1.723 1.438-3.131 3.227-3.131 1.788 0 3.226 1.408 3.226 3.131Z" class="elektron"/>
    <path fill="url(#D)" stroke="#000" stroke-width=".5" d="M156.003 79.504c0 1.723-1.438 3.131-3.226 3.131-1.789 0-3.226-1.408-3.226-3.13 0-1.724 1.437-3.132 3.226-3.132 1.788 0 3.226 1.408 3.226 3.131Z" class="elektron"/>
    <path fill="url(#E)" stroke="#000" stroke-width=".5" d="M148.003 51.504c0 1.723-1.438 3.131-3.226 3.131-1.789 0-3.226-1.408-3.226-3.13 0-1.724 1.437-3.132 3.226-3.132 1.788 0 3.226 1.408 3.226 3.131Z" class="elektron"/>
    <path fill="url(#F)" stroke="#000" stroke-width=".5" d="M139.003 130.504c0 1.723-1.438 3.131-3.226 3.131-1.789 0-3.226-1.408-3.226-3.131 0-1.723 1.437-3.131 3.226-3.131 1.788 0 3.226 1.408 3.226 3.131Z" class="elektron"/>
    <path fill="url(#G)" stroke="#000" stroke-width=".5" d="M38.003 134.504c0 1.723-1.438 3.131-3.226 3.131-1.789 0-3.227-1.408-3.227-3.131 0-1.723 1.438-3.131 3.227-3.131 1.788 0 3.226 1.408 3.226 3.131Z" class="elektron"/>
    <path fill="url(#H)" stroke="#000" stroke-width=".5" d="M40.003 28.504c0 1.723-1.438 3.131-3.226 3.131-1.789 0-3.227-1.408-3.227-3.13 0-1.724 1.438-3.132 3.227-3.132 1.788 0 3.226 1.408 3.226 3.131Z" class="elektron"/>
    <path fill="url(#I)" stroke="#000" stroke-width=".5" d="M55.003 19.504c0 1.723-1.438 3.131-3.226 3.131-1.789 0-3.227-1.408-3.227-3.13 0-1.724 1.438-3.132 3.227-3.132 1.788 0 3.226 1.408 3.226 3.131Z" class="elektron"/>
    <path fill="url(#J)" stroke="#000" stroke-width=".5" d="M128.003 25.504c0 1.723-1.438 3.131-3.226 3.131-1.789 0-3.226-1.408-3.226-3.13 0-1.724 1.437-3.132 3.226-3.132 1.788 0 3.226 1.408 3.226 3.131Z" class="elektron"/>
    <path fill="url(#K)" stroke="#000" stroke-width=".5" d="M85.003 12.504c0 1.723-1.438 3.131-3.226 3.131-1.789 0-3.227-1.408-3.227-3.13 0-1.724 1.438-3.132 3.227-3.132 1.788 0 3.226 1.408 3.226 3.131Z" class="elektron"/>
    <path fill="url(#L)" stroke="#000" stroke-width=".5" d="M86.003 3.504c0 1.723-1.438 3.131-3.226 3.131-1.789 0-3.227-1.408-3.227-3.13 0-1.724 1.438-3.132 3.227-3.132 1.788 0 3.226 1.408 3.226 3.131Z" class="elektron"/>
    <path fill="url(#M)" stroke="#000" stroke-width=".5" d="M88.003 161.504c0 1.723-1.438 3.131-3.226 3.131-1.789 0-3.227-1.408-3.227-3.131 0-1.723 1.438-3.131 3.227-3.131 1.788 0 3.226 1.408 3.226 3.131Z" class="elektron"/>
    <path fill="url(#N)" stroke="#000" stroke-width=".5" d="M165.003 79.504c0 1.723-1.438 3.131-3.226 3.131-1.789 0-3.226-1.408-3.226-3.13 0-1.724 1.437-3.132 3.226-3.132 1.788 0 3.226 1.408 3.226 3.131Z" class="elektron"/>
    <path fill="url(#O)" stroke="#000" stroke-width=".5" d="M140.003 26.504c0 1.723-1.438 3.131-3.226 3.131-1.789 0-3.226-1.408-3.226-3.13 0-1.724 1.437-3.132 3.226-3.132 1.788 0 3.226 1.408 3.226 3.131Z" class="elektron"/>
    <path fill="url(#P)" stroke="#000" stroke-width=".5" d="M7.003 81.504c0 1.723-1.438 3.131-3.226 3.131-1.789 0-3.226-1.408-3.226-3.13 0-1.724 1.437-3.132 3.226-3.132 1.788 0 3.226 1.408 3.226 3.131Z" class="elektron"/>
    <path fill="url(#Q)" stroke="#000" stroke-width=".5" d="M15.003 78.504c0 1.723-1.438 3.131-3.226 3.131-1.789 0-3.226-1.408-3.226-3.13 0-1.724 1.437-3.132 3.226-3.132 1.788 0 3.226 1.408 3.226 3.131Z" class="elektron"/>
    <path fill="url(#R)" stroke="#000" stroke-width=".5" d="M18.003 62.504c0 1.723-1.438 3.131-3.226 3.131-1.789 0-3.226-1.408-3.226-3.13 0-1.724 1.437-3.132 3.226-3.132 1.788 0 3.226 1.408 3.226 3.131Z" class="elektron"/>
    <path fill="url(#S)" stroke="#000" stroke-width=".5" d="M25.003 47.504c0 1.723-1.438 3.131-3.226 3.131-1.789 0-3.227-1.408-3.227-3.13 0-1.724 1.438-3.132 3.227-3.132 1.788 0 3.226 1.408 3.226 3.131Z" class="elektron"/>
    <path fill="url(#T)" stroke="#000" stroke-width=".5" d="M111.003 137.504c0 1.723-1.438 3.131-3.226 3.131-1.789 0-3.226-1.408-3.226-3.131 0-1.723 1.437-3.131 3.226-3.131 1.788 0 3.226 1.408 3.226 3.131Z" class="elektron"/>
    <path fill="url(#U)" stroke="#000" stroke-width=".5" d="M122.003 131.504c0 1.723-1.438 3.131-3.226 3.131-1.789 0-3.226-1.408-3.226-3.131 0-1.723 1.437-3.131 3.226-3.131 1.788 0 3.226 1.408 3.226 3.131Z" class="elektron"/>
    <path fill="url(#V)" stroke="#000" stroke-width=".5" d="M138.003 115.504c0 1.723-1.438 3.131-3.226 3.131-1.789 0-3.226-1.408-3.226-3.131 0-1.723 1.437-3.131 3.226-3.131 1.788 0 3.226 1.408 3.226 3.131Z" class="elektron"/>
    <path fill="url(#W)" stroke="#000" stroke-width=".5" d="M99.003 141.504c0 1.723-1.438 3.131-3.226 3.131-1.789 0-3.227-1.408-3.227-3.131 0-1.723 1.438-3.131 3.227-3.131 1.788 0 3.226 1.408 3.226 3.131Z" class="elektron"/>
    <path fill="url(#X)" stroke="#000" stroke-width=".5" d="M59.003 136.504c0 1.723-1.438 3.131-3.226 3.131-1.789 0-3.227-1.408-3.227-3.131 0-1.723 1.438-3.131 3.227-3.131 1.788 0 3.226 1.408 3.226 3.131Z" class="elektron"/>
    <path fill="url(#Y)" stroke="#000" stroke-width=".5" d="M47.003 130.504c0 1.723-1.438 3.131-3.226 3.131-1.789 0-3.227-1.408-3.227-3.131 0-1.723 1.438-3.131 3.227-3.131 1.788 0 3.226 1.408 3.226 3.131Z" class="elektron"/>
    <path fill="url(#Z)" stroke="#000" stroke-width=".5" d="M24.003 81.504c0 1.723-1.438 3.131-3.226 3.131-1.789 0-3.227-1.408-3.227-3.13 0-1.724 1.438-3.132 3.227-3.132 1.788 0 3.226 1.408 3.226 3.131Z" class="elektron"/>
    <path fill="url(#aa)" stroke="#000" stroke-width=".5" d="M42.003 39.504c0 1.723-1.438 3.131-3.226 3.131-1.789 0-3.227-1.408-3.227-3.13 0-1.724 1.438-3.132 3.227-3.132 1.788 0 3.226 1.408 3.226 3.131Z" class="elektron"/>
    <path fill="url(#ab)" stroke="#000" stroke-width=".5" d="M70.003 24.504c0 1.723-1.438 3.131-3.226 3.131-1.789 0-3.227-1.408-3.227-3.13 0-1.724 1.438-3.132 3.227-3.132 1.788 0 3.226 1.408 3.226 3.131Z" class="elektron"/>
    <path fill="url(#ac)" stroke="#000" stroke-width=".5" d="M54.003 31.504c0 1.723-1.438 3.131-3.226 3.131-1.789 0-3.227-1.408-3.227-3.13 0-1.724 1.438-3.132 3.227-3.132 1.788 0 3.226 1.408 3.226 3.131Z" class="elektron"/>
    <path fill="url(#ad)" stroke="#000" stroke-width=".5" d="M148.003 81.504c0 1.723-1.438 3.131-3.226 3.131-1.789 0-3.226-1.408-3.226-3.13 0-1.724 1.437-3.132 3.226-3.132 1.788 0 3.226 1.408 3.226 3.131Z" class="elektron"/>
    <path fill="url(#ae)" stroke="#000" stroke-width=".5" d="M143.003 106.504c0 1.723-1.438 3.131-3.226 3.131-1.789 0-3.226-1.408-3.226-3.131 0-1.723 1.437-3.131 3.226-3.131 1.788 0 3.226 1.408 3.226 3.131Z" class="elektron"/>
    <path fill="url(#af)" stroke="#000" stroke-width=".5" d="M130.003 124.504c0 1.723-1.438 3.131-3.226 3.131-1.789 0-3.226-1.408-3.226-3.131 0-1.723 1.437-3.131 3.226-3.131 1.788 0 3.226 1.408 3.226 3.131Z" class="elektron"/>
    <path fill="url(#ag)" stroke="#000" stroke-width=".5" d="M71.003 143.504c0 1.723-1.438 3.131-3.226 3.131-1.789 0-3.227-1.408-3.227-3.131 0-1.723 1.438-3.131 3.227-3.131 1.788 0 3.226 1.408 3.226 3.131Z" class="elektron"/>
    <path fill="url(#ah)" stroke="#000" stroke-width=".5" d="M135.003 46.504c0 1.723-1.438 3.131-3.226 3.131-1.789 0-3.226-1.408-3.226-3.13 0-1.724 1.437-3.132 3.226-3.132 1.788 0 3.226 1.408 3.226 3.131Z" class="elektron"/>
    <path fill="url(#ai)" stroke="#000" stroke-width=".5" d="M146.003 95.504c0 1.723-1.438 3.131-3.226 3.131-1.789 0-3.226-1.408-3.226-3.13 0-1.724 1.437-3.132 3.226-3.132 1.788 0 3.226 1.408 3.226 3.131Z" class="elektron"/>
    <path fill="url(#aj)" stroke="#000" stroke-width=".5" d="M39.003 122.504c0 1.723-1.438 3.131-3.226 3.131-1.789 0-3.227-1.408-3.227-3.131 0-1.723 1.438-3.131 3.227-3.131 1.788 0 3.226 1.408 3.226 3.131Z" class="elektron"/>
    <path fill="url(#ak)" stroke="#000" stroke-width=".5" d="M33.003 114.504c0 1.723-1.438 3.131-3.226 3.131-1.789 0-3.227-1.408-3.227-3.131 0-1.723 1.438-3.131 3.227-3.131 1.788 0 3.226 1.408 3.226 3.131Z" class="elektron"/>
    <path fill="url(#al)" stroke="#000" stroke-width=".5" d="M25.003 93.504c0 1.723-1.438 3.131-3.226 3.131-1.789 0-3.227-1.408-3.227-3.13 0-1.724 1.438-3.132 3.227-3.132 1.788 0 3.226 1.408 3.226 3.131Z" class="elektron"/>
    <path fill="url(#am)" stroke="#000" stroke-width=".5" d="M37.003 46.504c0 1.723-1.438 3.131-3.226 3.131-1.789 0-3.227-1.408-3.227-3.13 0-1.724 1.438-3.132 3.227-3.132 1.788 0 3.226 1.408 3.226 3.131Z" class="elektron"/>
    <path fill="url(#an)" stroke="#000" stroke-width=".5" d="M29.003 105.504c0 1.723-1.438 3.131-3.226 3.131-1.789 0-3.227-1.408-3.227-3.131 0-1.723 1.438-3.131 3.227-3.131 1.788 0 3.226 1.408 3.226 3.131Z" class="elektron"/>
    <path fill="url(#ao)" stroke="#000" stroke-width=".5" d="M30.003 54.504c0 1.723-1.438 3.131-3.226 3.131-1.789 0-3.227-1.408-3.227-3.13 0-1.724 1.438-3.132 3.227-3.132 1.788 0 3.226 1.408 3.226 3.131Z" class="elektron"/>
    <path fill="url(#ap)" stroke="#000" stroke-width=".5" d="M25.003 67.504c0 1.723-1.438 3.131-3.226 3.131-1.789 0-3.227-1.408-3.227-3.13 0-1.724 1.438-3.132 3.227-3.132 1.788 0 3.226 1.408 3.226 3.131Z" class="elektron"/>
    <path fill="url(#aq)" stroke="#000" stroke-width=".5" d="M85.003 133.504c0 1.723-1.438 3.131-3.226 3.131-1.789 0-3.227-1.408-3.227-3.131 0-1.723 1.438-3.131 3.227-3.131 1.788 0 3.226 1.408 3.226 3.131Z" class="elektron"/>
    <path fill="url(#ar)" stroke="#000" stroke-width=".5" d="M33.003 73.504c0 1.723-1.438 3.131-3.226 3.131-1.789 0-3.227-1.408-3.227-3.13 0-1.724 1.438-3.132 3.227-3.132 1.788 0 3.226 1.408 3.226 3.131Z" class="elektron"/>
    <path fill="url(#as)" stroke="#000" stroke-width=".5" d="M102.003 129.504c0 1.723-1.438 3.131-3.226 3.131-1.789 0-3.227-1.408-3.227-3.131 0-1.723 1.438-3.131 3.227-3.131 1.788 0 3.226 1.408 3.226 3.131Z" class="elektron"/>
    <path fill="url(#at)" stroke="#000" stroke-width=".5" d="M33.003 91.504c0 1.723-1.438 3.131-3.226 3.131-1.789 0-3.227-1.408-3.227-3.13 0-1.724 1.438-3.132 3.227-3.132 1.788 0 3.226 1.408 3.226 3.131Z" class="elektron"/>
    <path fill="url(#au)" stroke="#000" stroke-width=".5" d="M129.003 52.504c0 1.723-1.438 3.131-3.226 3.131-1.789 0-3.226-1.408-3.226-3.13 0-1.724 1.437-3.132 3.226-3.132 1.788 0 3.226 1.408 3.226 3.131Z" class="elektron"/>
    <path fill="url(#av)" stroke="#000" stroke-width=".5" d="M120.003 120.504c0 1.723-1.438 3.131-3.226 3.131-1.789 0-3.226-1.408-3.226-3.131 0-1.723 1.437-3.131 3.226-3.131 1.788 0 3.226 1.408 3.226 3.131Z" class="elektron"/>
    <path fill="url(#aw)" stroke="#000" stroke-width=".5" d="M113.003 102.504c0 1.723-1.438 3.131-3.226 3.131-1.789 0-3.226-1.408-3.226-3.131 0-1.723 1.437-3.131 3.226-3.131 1.788 0 3.226 1.408 3.226 3.131Z" class="elektron"/>
    <path fill="url(#ax)" stroke="#000" stroke-width=".5" d="M87.003 39.504c0 1.723-1.438 3.131-3.226 3.131-1.789 0-3.227-1.408-3.227-3.13 0-1.724 1.438-3.132 3.227-3.132 1.788 0 3.226 1.408 3.226 3.131Z" class="elektron"/>
    <path fill="url(#ay)" stroke="#000" stroke-width=".5" d="M87.003 122.504c0 1.723-1.438 3.131-3.226 3.131-1.789 0-3.227-1.408-3.227-3.131 0-1.723 1.438-3.131 3.227-3.131 1.788 0 3.226 1.408 3.226 3.131Z" class="elektron"/>
    <path fill="url(#az)" stroke="#000" stroke-width=".5" d="M61.003 115.504c0 1.723-1.438 3.131-3.226 3.131-1.789 0-3.227-1.408-3.227-3.131 0-1.723 1.438-3.131 3.227-3.131 1.788 0 3.226 1.408 3.226 3.131Z" class="elektron"/>
    <path fill="url(#aA)" stroke="#000" stroke-width=".5" d="M111.003 114.504c0 1.723-1.438 3.131-3.226 3.131-1.789 0-3.226-1.408-3.226-3.131 0-1.723 1.437-3.131 3.226-3.131 1.788 0 3.226 1.408 3.226 3.131Z" class="elektron"/>
    <path fill="url(#aB)" stroke="#000" stroke-width=".5" d="M130.003 80.504c0 1.723-1.438 3.131-3.226 3.131-1.789 0-3.226-1.408-3.226-3.13 0-1.724 1.437-3.132 3.226-3.132 1.788 0 3.226 1.408 3.226 3.131Z" class="elektron"/>
    <path fill="url(#aC)" stroke="#000" stroke-width=".5" d="M39.003 57.504c0 1.723-1.438 3.131-3.226 3.131-1.789 0-3.227-1.408-3.227-3.13 0-1.724 1.438-3.132 3.227-3.132 1.788 0 3.226 1.408 3.226 3.131Z" class="elektron"/>
    <path fill="url(#aD)" stroke="#000" stroke-width=".5" d="M52.003 40.504c0 1.723-1.438 3.131-3.226 3.131-1.789 0-3.227-1.408-3.227-3.13 0-1.724 1.438-3.132 3.227-3.132 1.788 0 3.226 1.408 3.226 3.131Z" class="elektron"/>
  </g>
  <defs>
    <radialGradient id="a" cx="0" cy="0" r="1" class="a" gradientTransform="matrix(0 2.86765 -2.89865 0 82.723 83.162)" gradientUnits="userSpaceOnUse">
      <stop stop-color="#F80A0A"/>
      <stop offset="1" stop-color="#690404"/>
    </radialGradient>
    <radialGradient id="b" cx="0" cy="0" r="1" class="b" gradientTransform="matrix(0 3.38115 -3.47612 0 57.777 45.504)" gradientUnits="userSpaceOnUse">
      <stop stop-color="#00C2FF"/>
      <stop offset="1" stop-color="#0051A3"/>
    </radialGradient>
    <radialGradient id="c" cx="0" cy="0" r="1" class="c" gradientTransform="matrix(0 3.38115 -3.47612 0 39.777 81.504)" gradientUnits="userSpaceOnUse">
      <stop stop-color="#00C2FF"/>
      <stop offset="1" stop-color="#0051A3"/>
    </radialGradient>
    <radialGradient id="d" cx="0" cy="0" r="1" class="d" gradientTransform="matrix(0 3.38115 -3.47612 0 107.777 45.504)" gradientUnits="userSpaceOnUse">
      <stop stop-color="#00C2FF"/>
      <stop offset="1" stop-color="#0051A3"/>
    </radialGradient>
    <radialGradient id="e" cx="0" cy="0" r="1" class="e" gradientTransform="matrix(0 3.38115 -3.47612 0 70.777 47.504)" gradientUnits="userSpaceOnUse">
      <stop stop-color="#00C2FF"/>
      <stop offset="1" stop-color="#0051A3"/>
    </radialGradient>
    <radialGradient id="f" cx="0" cy="0" r="1" class="f" gradientTransform="matrix(0 3.38115 -3.47612 0 35.777 107.504)" gradientUnits="userSpaceOnUse">
      <stop stop-color="#00C2FF"/>
      <stop offset="1" stop-color="#0051A3"/>
    </radialGradient>
    <radialGradient id="g" cx="0" cy="0" r="1" class="g" gradientTransform="matrix(0 3.38115 -3.47612 0 99.777 31.504)" gradientUnits="userSpaceOnUse">
      <stop stop-color="#00C2FF"/>
      <stop offset="1" stop-color="#0051A3"/>
    </radialGradient>
    <radialGradient id="h" cx="0" cy="0" r="1" class="h" gradientTransform="matrix(0 3.38115 -3.47612 0 130.777 62.504)" gradientUnits="userSpaceOnUse">
      <stop stop-color="#00C2FF"/>
      <stop offset="1" stop-color="#0051A3"/>
    </radialGradient>
    <radialGradient id="i" cx="0" cy="0" r="1" class="i" gradientTransform="matrix(0 3.38115 -3.47612 0 136.777 81.504)" gradientUnits="userSpaceOnUse">
      <stop stop-color="#00C2FF"/>
      <stop offset="1" stop-color="#0051A3"/>
    </radialGradient>
    <radialGradient id="j" cx="0" cy="0" r="1" class="j" gradientTransform="matrix(0 3.38115 -3.47612 0 83.777 28.504)" gradientUnits="userSpaceOnUse">
      <stop stop-color="#00C2FF"/>
      <stop offset="1" stop-color="#0051A3"/>
    </radialGradient>
    <radialGradient id="k" cx="0" cy="0" r="1" class="k" gradientTransform="matrix(0 3.38115 -3.47612 0 119.777 44.504)" gradientUnits="userSpaceOnUse">
      <stop stop-color="#00C2FF"/>
      <stop offset="1" stop-color="#0051A3"/>
    </radialGradient>
    <radialGradient id="l" cx="0" cy="0" r="1" class="l" gradientTransform="matrix(0 3.38115 -3.47612 0 65.777 130.504)" gradientUnits="userSpaceOnUse">
      <stop stop-color="#00C2FF"/>
      <stop offset="1" stop-color="#0051A3"/>
    </radialGradient>
    <radialGradient id="m" cx="0" cy="0" r="1" class="m" gradientTransform="matrix(0 3.38115 -3.47612 0 46.777 122.504)" gradientUnits="userSpaceOnUse">
      <stop stop-color="#00C2FF"/>
      <stop offset="1" stop-color="#0051A3"/>
    </radialGradient>
    <radialGradient id="n" cx="0" cy="0" r="1" class="n" gradientTransform="matrix(0 3.38115 -3.47612 0 128.777 104.504)" gradientUnits="userSpaceOnUse">
      <stop stop-color="#00C2FF"/>
      <stop offset="1" stop-color="#0051A3"/>
    </radialGradient>
    <radialGradient id="o" cx="0" cy="0" r="1" class="o" gradientTransform="matrix(0 3.38115 -3.47612 0 66.777 31.504)" gradientUnits="userSpaceOnUse">
      <stop stop-color="#00C2FF"/>
      <stop offset="1" stop-color="#0051A3"/>
    </radialGradient>
    <radialGradient id="p" cx="0" cy="0" r="1" class="p" gradientTransform="matrix(0 3.38115 -3.47612 0 83.777 20.504)" gradientUnits="userSpaceOnUse">
      <stop stop-color="#00C2FF"/>
      <stop offset="1" stop-color="#0051A3"/>
    </radialGradient>
    <radialGradient id="q" cx="0" cy="0" r="1" class="q" gradientTransform="matrix(0 3.38115 -3.47612 0 107.777 27.504)" gradientUnits="userSpaceOnUse">
      <stop stop-color="#00C2FF"/>
      <stop offset="1" stop-color="#0051A3"/>
    </radialGradient>
    <radialGradient id="r" cx="0" cy="0" r="1" class="r" gradientTransform="matrix(0 3.38115 -3.47612 0 95.777 22.504)" gradientUnits="userSpaceOnUse">
      <stop stop-color="#00C2FF"/>
      <stop offset="1" stop-color="#0051A3"/>
    </radialGradient>
    <radialGradient id="s" cx="0" cy="0" r="1" class="s" gradientTransform="matrix(0 3.38115 -3.47612 0 123.777 35.504)" gradientUnits="userSpaceOnUse">
      <stop stop-color="#00C2FF"/>
      <stop offset="1" stop-color="#0051A3"/>
    </radialGradient>
    <radialGradient id="t" cx="0" cy="0" r="1" class="t" gradientTransform="matrix(0 3.38115 -3.47612 0 139.777 57.504)" gradientUnits="userSpaceOnUse">
      <stop stop-color="#00C2FF"/>
      <stop offset="1" stop-color="#0051A3"/>
    </radialGradient>
    <radialGradient id="u" cx="0" cy="0" r="1" class="u" gradientTransform="matrix(0 3.38115 -3.47612 0 142.777 69.504)" gradientUnits="userSpaceOnUse">
      <stop stop-color="#00C2FF"/>
      <stop offset="1" stop-color="#0051A3"/>
    </radialGradient>
    <radialGradient id="v" cx="0" cy="0" r="1" class="v" gradientTransform="matrix(0 3.38115 -3.47612 0 83.777 143.504)" gradientUnits="userSpaceOnUse">
      <stop stop-color="#00C2FF"/>
      <stop offset="1" stop-color="#0051A3"/>
    </radialGradient>
    <radialGradient id="w" cx="0" cy="0" r="1" class="w" gradientTransform="matrix(0 3.38115 -3.47612 0 83.777 152.504)" gradientUnits="userSpaceOnUse">
      <stop stop-color="#00C2FF"/>
      <stop offset="1" stop-color="#0051A3"/>
    </radialGradient>
    <radialGradient id="x" cx="0" cy="0" r="1" class="x" gradientTransform="matrix(0 3.38115 -3.47612 0 57.777 148.504)" gradientUnits="userSpaceOnUse">
      <stop stop-color="#00C2FF"/>
      <stop offset="1" stop-color="#0051A3"/>
    </radialGradient>
    <radialGradient id="y" cx="0" cy="0" r="1" class="y" gradientTransform="matrix(0 3.38115 -3.47612 0 21.777 119.504)" gradientUnits="userSpaceOnUse">
      <stop stop-color="#00C2FF"/>
      <stop offset="1" stop-color="#0051A3"/>
    </radialGradient>
    <radialGradient id="z" cx="0" cy="0" r="1" class="z" gradientTransform="matrix(0 3.38115 -3.47612 0 13.777 99.504)" gradientUnits="userSpaceOnUse">
      <stop stop-color="#00C2FF"/>
      <stop offset="1" stop-color="#0051A3"/>
    </radialGradient>
    <radialGradient id="A" cx="0" cy="0" r="1" class="A" gradientTransform="matrix(0 3.38115 -3.47612 0 111.777 145.504)" gradientUnits="userSpaceOnUse">
      <stop stop-color="#00C2FF"/>
      <stop offset="1" stop-color="#0051A3"/>
    </radialGradient>
    <radialGradient id="B" cx="0" cy="0" r="1" class="B" gradientTransform="matrix(0 3.38115 -3.47612 0 147.777 107.504)" gradientUnits="userSpaceOnUse">
      <stop stop-color="#00C2FF"/>
      <stop offset="1" stop-color="#0051A3"/>
    </radialGradient>
    <radialGradient id="C" cx="0" cy="0" r="1" class="C" gradientTransform="matrix(0 3.38115 -3.47612 0 46.777 142.504)" gradientUnits="userSpaceOnUse">
      <stop stop-color="#00C2FF"/>
      <stop offset="1" stop-color="#0051A3"/>
    </radialGradient>
    <radialGradient id="D" cx="0" cy="0" r="1" class="D" gradientTransform="matrix(0 3.38115 -3.47612 0 152.777 79.504)" gradientUnits="userSpaceOnUse">
      <stop stop-color="#00C2FF"/>
      <stop offset="1" stop-color="#0051A3"/>
    </radialGradient>
    <radialGradient id="E" cx="0" cy="0" r="1" class="E" gradientTransform="matrix(0 3.38115 -3.47612 0 144.777 51.504)" gradientUnits="userSpaceOnUse">
      <stop stop-color="#00C2FF"/>
      <stop offset="1" stop-color="#0051A3"/>
    </radialGradient>
    <radialGradient id="F" cx="0" cy="0" r="1" class="F" gradientTransform="matrix(0 3.38115 -3.47612 0 135.777 130.504)" gradientUnits="userSpaceOnUse">
      <stop stop-color="#00C2FF"/>
      <stop offset="1" stop-color="#0051A3"/>
    </radialGradient>
    <radialGradient id="G" cx="0" cy="0" r="1" class="G" gradientTransform="matrix(0 3.38115 -3.47612 0 34.777 134.504)" gradientUnits="userSpaceOnUse">
      <stop stop-color="#00C2FF"/>
      <stop offset="1" stop-color="#0051A3"/>
    </radialGradient>
    <radialGradient id="H" cx="0" cy="0" r="1" class="H" gradientTransform="matrix(0 3.38115 -3.47612 0 36.777 28.504)" gradientUnits="userSpaceOnUse">
      <stop stop-color="#00C2FF"/>
      <stop offset="1" stop-color="#0051A3"/>
    </radialGradient>
    <radialGradient id="I" cx="0" cy="0" r="1" class="I" gradientTransform="matrix(0 3.38115 -3.47612 0 51.777 19.504)" gradientUnits="userSpaceOnUse">
      <stop stop-color="#00C2FF"/>
      <stop offset="1" stop-color="#0051A3"/>
    </radialGradient>
    <radialGradient id="J" cx="0" cy="0" r="1" class="J" gradientTransform="matrix(0 3.38115 -3.47612 0 124.777 25.504)" gradientUnits="userSpaceOnUse">
      <stop stop-color="#00C2FF"/>
      <stop offset="1" stop-color="#0051A3"/>
    </radialGradient>
    <radialGradient id="K" cx="0" cy="0" r="1" class="K" gradientTransform="matrix(0 3.38115 -3.47612 0 81.777 12.504)" gradientUnits="userSpaceOnUse">
      <stop stop-color="#00C2FF"/>
      <stop offset="1" stop-color="#0051A3"/>
    </radialGradient>
    <radialGradient id="L" cx="0" cy="0" r="1" class="L" gradientTransform="matrix(0 3.38115 -3.47612 0 82.777 3.504)" gradientUnits="userSpaceOnUse">
      <stop stop-color="#00C2FF"/>
      <stop offset="1" stop-color="#0051A3"/>
    </radialGradient>
    <radialGradient id="M" cx="0" cy="0" r="1" class="M" gradientTransform="matrix(0 3.38115 -3.47612 0 84.777 161.504)" gradientUnits="userSpaceOnUse">
      <stop stop-color="#00C2FF"/>
      <stop offset="1" stop-color="#0051A3"/>
    </radialGradient>
    <radialGradient id="N" cx="0" cy="0" r="1" class="N" gradientTransform="matrix(0 3.38115 -3.47612 0 161.777 79.504)" gradientUnits="userSpaceOnUse">
      <stop stop-color="#00C2FF"/>
      <stop offset="1" stop-color="#0051A3"/>
    </radialGradient>
    <radialGradient id="O" cx="0" cy="0" r="1" class="O" gradientTransform="matrix(0 3.38115 -3.47612 0 136.777 26.504)" gradientUnits="userSpaceOnUse">
      <stop stop-color="#00C2FF"/>
      <stop offset="1" stop-color="#0051A3"/>
    </radialGradient>
    <radialGradient id="P" cx="0" cy="0" r="1" class="P" gradientTransform="matrix(0 3.38115 -3.47612 0 3.777 81.504)" gradientUnits="userSpaceOnUse">
      <stop stop-color="#00C2FF"/>
      <stop offset="1" stop-color="#0051A3"/>
    </radialGradient>
    <radialGradient id="Q" cx="0" cy="0" r="1" class="Q" gradientTransform="matrix(0 3.38115 -3.47612 0 11.777 78.504)" gradientUnits="userSpaceOnUse">
      <stop stop-color="#00C2FF"/>
      <stop offset="1" stop-color="#0051A3"/>
    </radialGradient>
    <radialGradient id="R" cx="0" cy="0" r="1" class="R" gradientTransform="matrix(0 3.38115 -3.47612 0 14.777 62.504)" gradientUnits="userSpaceOnUse">
      <stop stop-color="#00C2FF"/>
      <stop offset="1" stop-color="#0051A3"/>
    </radialGradient>
    <radialGradient id="S" cx="0" cy="0" r="1" class="S" gradientTransform="matrix(0 3.38115 -3.47612 0 21.777 47.504)" gradientUnits="userSpaceOnUse">
      <stop stop-color="#00C2FF"/>
      <stop offset="1" stop-color="#0051A3"/>
    </radialGradient>
    <radialGradient id="T" cx="0" cy="0" r="1" class="T" gradientTransform="matrix(0 3.38115 -3.47612 0 107.777 137.504)" gradientUnits="userSpaceOnUse">
      <stop stop-color="#00C2FF"/>
      <stop offset="1" stop-color="#0051A3"/>
    </radialGradient>
    <radialGradient id="U" cx="0" cy="0" r="1" class="U" gradientTransform="matrix(0 3.38115 -3.47612 0 118.777 131.504)" gradientUnits="userSpaceOnUse">
      <stop stop-color="#00C2FF"/>
      <stop offset="1" stop-color="#0051A3"/>
    </radialGradient>
    <radialGradient id="V" cx="0" cy="0" r="1" class="V" gradientTransform="matrix(0 3.38115 -3.47612 0 134.777 115.504)" gradientUnits="userSpaceOnUse">
      <stop stop-color="#00C2FF"/>
      <stop offset="1" stop-color="#0051A3"/>
    </radialGradient>
    <radialGradient id="W" cx="0" cy="0" r="1" class="W" gradientTransform="matrix(0 3.38115 -3.47612 0 95.777 141.504)" gradientUnits="userSpaceOnUse">
      <stop stop-color="#00C2FF"/>
      <stop offset="1" stop-color="#0051A3"/>
    </radialGradient>
    <radialGradient id="X" cx="0" cy="0" r="1" class="X" gradientTransform="matrix(0 3.38115 -3.47612 0 55.777 136.504)" gradientUnits="userSpaceOnUse">
      <stop stop-color="#00C2FF"/>
      <stop offset="1" stop-color="#0051A3"/>
    </radialGradient>
    <radialGradient id="Y" cx="0" cy="0" r="1" class="Y" gradientTransform="matrix(0 3.38115 -3.47612 0 43.777 130.504)" gradientUnits="userSpaceOnUse">
      <stop stop-color="#00C2FF"/>
      <stop offset="1" stop-color="#0051A3"/>
    </radialGradient>
    <radialGradient id="Z" cx="0" cy="0" r="1" class="Z" gradientTransform="matrix(0 3.38115 -3.47612 0 20.777 81.504)" gradientUnits="userSpaceOnUse">
      <stop stop-color="#00C2FF"/>
      <stop offset="1" stop-color="#0051A3"/>
    </radialGradient>
    <radialGradient id="aa" cx="0" cy="0" r="1" class="aa" gradientTransform="matrix(0 3.38115 -3.47612 0 38.777 39.504)" gradientUnits="userSpaceOnUse">
      <stop stop-color="#00C2FF"/>
      <stop offset="1" stop-color="#0051A3"/>
    </radialGradient>
    <radialGradient id="ab" cx="0" cy="0" r="1" class="ab" gradientTransform="matrix(0 3.38115 -3.47612 0 66.777 24.504)" gradientUnits="userSpaceOnUse">
      <stop stop-color="#00C2FF"/>
      <stop offset="1" stop-color="#0051A3"/>
    </radialGradient>
    <radialGradient id="ac" cx="0" cy="0" r="1" class="ac" gradientTransform="matrix(0 3.38115 -3.47612 0 50.777 31.504)" gradientUnits="userSpaceOnUse">
      <stop stop-color="#00C2FF"/>
      <stop offset="1" stop-color="#0051A3"/>
    </radialGradient>
    <radialGradient id="ad" cx="0" cy="0" r="1" class="ad" gradientTransform="matrix(0 3.38115 -3.47612 0 144.777 81.504)" gradientUnits="userSpaceOnUse">
      <stop stop-color="#00C2FF"/>
      <stop offset="1" stop-color="#0051A3"/>
    </radialGradient>
    <radialGradient id="ae" cx="0" cy="0" r="1" class="ae" gradientTransform="matrix(0 3.38115 -3.47612 0 139.777 106.504)" gradientUnits="userSpaceOnUse">
      <stop stop-color="#00C2FF"/>
      <stop offset="1" stop-color="#0051A3"/>
    </radialGradient>
    <radialGradient id="af" cx="0" cy="0" r="1" class="af" gradientTransform="matrix(0 3.38115 -3.47612 0 126.777 124.504)" gradientUnits="userSpaceOnUse">
      <stop stop-color="#00C2FF"/>
      <stop offset="1" stop-color="#0051A3"/>
    </radialGradient>
    <radialGradient id="ag" cx="0" cy="0" r="1" class="ag" gradientTransform="matrix(0 3.38115 -3.47612 0 67.777 143.504)" gradientUnits="userSpaceOnUse">
      <stop stop-color="#00C2FF"/>
      <stop offset="1" stop-color="#0051A3"/>
    </radialGradient>
    <radialGradient id="ah" cx="0" cy="0" r="1" class="ah" gradientTransform="matrix(0 3.38115 -3.47612 0 131.777 46.504)" gradientUnits="userSpaceOnUse">
      <stop stop-color="#00C2FF"/>
      <stop offset="1" stop-color="#0051A3"/>
    </radialGradient>
    <radialGradient id="ai" cx="0" cy="0" r="1" class="ai" gradientTransform="matrix(0 3.38115 -3.47612 0 142.777 95.504)" gradientUnits="userSpaceOnUse">
      <stop stop-color="#00C2FF"/>
      <stop offset="1" stop-color="#0051A3"/>
    </radialGradient>
    <radialGradient id="aj" cx="0" cy="0" r="1" class="aj" gradientTransform="matrix(0 3.38115 -3.47612 0 35.777 122.504)" gradientUnits="userSpaceOnUse">
      <stop stop-color="#00C2FF"/>
      <stop offset="1" stop-color="#0051A3"/>
    </radialGradient>
    <radialGradient id="ak" cx="0" cy="0" r="1" class="ak" gradientTransform="matrix(0 3.38115 -3.47612 0 29.777 114.504)" gradientUnits="userSpaceOnUse">
      <stop stop-color="#00C2FF"/>
      <stop offset="1" stop-color="#0051A3"/>
    </radialGradient>
    <radialGradient id="al" cx="0" cy="0" r="1" class="al" gradientTransform="matrix(0 3.38115 -3.47612 0 21.777 93.504)" gradientUnits="userSpaceOnUse">
      <stop stop-color="#00C2FF"/>
      <stop offset="1" stop-color="#0051A3"/>
    </radialGradient>
    <radialGradient id="am" cx="0" cy="0" r="1" class="am" gradientTransform="matrix(0 3.38115 -3.47612 0 33.777 46.504)" gradientUnits="userSpaceOnUse">
      <stop stop-color="#00C2FF"/>
      <stop offset="1" stop-color="#0051A3"/>
    </radialGradient>
    <radialGradient id="an" cx="0" cy="0" r="1" class="an" gradientTransform="matrix(0 3.38115 -3.47612 0 25.777 105.504)" gradientUnits="userSpaceOnUse">
      <stop stop-color="#00C2FF"/>
      <stop offset="1" stop-color="#0051A3"/>
    </radialGradient>
    <radialGradient id="ao" cx="0" cy="0" r="1" class="ao" gradientTransform="matrix(0 3.38115 -3.47612 0 26.777 54.504)" gradientUnits="userSpaceOnUse">
      <stop stop-color="#00C2FF"/>
      <stop offset="1" stop-color="#0051A3"/>
    </radialGradient>
    <radialGradient id="ap" cx="0" cy="0" r="1" class="ap" gradientTransform="matrix(0 3.38115 -3.47612 0 21.777 67.504)" gradientUnits="userSpaceOnUse">
      <stop stop-color="#00C2FF"/>
      <stop offset="1" stop-color="#0051A3"/>
    </radialGradient>
    <radialGradient id="aq" cx="0" cy="0" r="1" class="aq" gradientTransform="matrix(0 3.38115 -3.47612 0 81.777 133.504)" gradientUnits="userSpaceOnUse">
      <stop stop-color="#00C2FF"/>
      <stop offset="1" stop-color="#0051A3"/>
    </radialGradient>
    <radialGradient id="ar" cx="0" cy="0" r="1" class="ar" gradientTransform="matrix(0 3.38115 -3.47612 0 29.777 73.504)" gradientUnits="userSpaceOnUse">
      <stop stop-color="#00C2FF"/>
      <stop offset="1" stop-color="#0051A3"/>
    </radialGradient>
    <radialGradient id="as" cx="0" cy="0" r="1" class="as" gradientTransform="matrix(0 3.38115 -3.47612 0 98.777 129.504)" gradientUnits="userSpaceOnUse">
      <stop stop-color="#00C2FF"/>
      <stop offset="1" stop-color="#0051A3"/>
    </radialGradient>
    <radialGradient id="at" cx="0" cy="0" r="1" class="at" gradientTransform="matrix(0 3.38115 -3.47612 0 29.777 91.504)" gradientUnits="userSpaceOnUse">
      <stop stop-color="#00C2FF"/>
      <stop offset="1" stop-color="#0051A3"/>
    </radialGradient>
    <radialGradient id="au" cx="0" cy="0" r="1" class="au" gradientTransform="matrix(0 3.38115 -3.47612 0 125.777 52.504)" gradientUnits="userSpaceOnUse">
      <stop stop-color="#00C2FF"/>
      <stop offset="1" stop-color="#0051A3"/>
    </radialGradient>
    <radialGradient id="av" cx="0" cy="0" r="1" class="av" gradientTransform="matrix(0 3.38115 -3.47612 0 116.777 120.504)" gradientUnits="userSpaceOnUse">
      <stop stop-color="#00C2FF"/>
      <stop offset="1" stop-color="#0051A3"/>
    </radialGradient>
    <radialGradient id="aw" cx="0" cy="0" r="1" class="aw" gradientTransform="matrix(0 3.38115 -3.47612 0 109.777 102.504)" gradientUnits="userSpaceOnUse">
      <stop stop-color="#00C2FF"/>
      <stop offset="1" stop-color="#0051A3"/>
    </radialGradient>
    <radialGradient id="ax" cx="0" cy="0" r="1" class="ax" gradientTransform="matrix(0 3.38115 -3.47612 0 83.777 39.504)" gradientUnits="userSpaceOnUse">
      <stop stop-color="#00C2FF"/>
      <stop offset="1" stop-color="#0051A3"/>
    </radialGradient>
    <radialGradient id="ay" cx="0" cy="0" r="1" class="ay" gradientTransform="matrix(0 3.38115 -3.47612 0 83.777 122.504)" gradientUnits="userSpaceOnUse">
      <stop stop-color="#00C2FF"/>
      <stop offset="1" stop-color="#0051A3"/>
    </radialGradient>
    <radialGradient id="az" cx="0" cy="0" r="1" class="az" gradientTransform="matrix(0 3.38115 -3.47612 0 57.777 115.504)" gradientUnits="userSpaceOnUse">
      <stop stop-color="#00C2FF"/>
      <stop offset="1" stop-color="#0051A3"/>
    </radialGradient>
    <radialGradient id="aA" cx="0" cy="0" r="1" class="aA" gradientTransform="matrix(0 3.38115 -3.47612 0 107.777 114.504)" gradientUnits="userSpaceOnUse">
      <stop stop-color="#00C2FF"/>
      <stop offset="1" stop-color="#0051A3"/>
    </radialGradient>
    <radialGradient id="aB" cx="0" cy="0" r="1" class="aB" gradientTransform="matrix(0 3.38115 -3.47612 0 126.777 80.504)" gradientUnits="userSpaceOnUse">
      <stop stop-color="#00C2FF"/>
      <stop offset="1" stop-color="#0051A3"/>
    </radialGradient>
    <radialGradient id="aC" cx="0" cy="0" r="1" class="aC" gradientTransform="matrix(0 3.38115 -3.47612 0 35.777 57.504)" gradientUnits="userSpaceOnUse">
      <stop stop-color="#00C2FF"/>
      <stop offset="1" stop-color="#0051A3"/>
    </radialGradient>
    <radialGradient id="aD" cx="0" cy="0" r="1" class="aD" gradientTransform="matrix(0 3.38115 -3.47612 0 48.777 40.504)" gradientUnits="userSpaceOnUse">
      <stop stop-color="#00C2FF"/>
      <stop offset="1" stop-color="#0051A3"/>
    </radialGradient>
  </defs>
</svg>
