<?xml-stylesheet type="text/css" href="../style.css"?><svg xmlns="http://www.w3.org/2000/svg" width="165" height="166" fill="none" viewBox="0 0 165 166">
  <g class="cr">
    <path fill="#D9D9D9" fill-opacity=".1" stroke="#000" d="M128.63 85.824c0 24.738-20.639 44.817-46.13 44.817-25.49 0-46.13-20.079-46.13-44.817S57.01 41.007 82.5 41.007c25.491 0 46.13 20.079 46.13 44.817Z" class="powloka"/>
    <path fill="#D9D9D9" fill-opacity=".1" stroke="#000" d="M140.587 85.824c0 31.155-25.993 56.436-58.087 56.436-32.094 0-58.087-25.281-58.087-56.436 0-31.156 25.993-56.437 58.087-56.437 32.094 0 58.087 25.28 58.087 56.437Z" class="powloka"/>
    <path fill="#D9D9D9" fill-opacity=".1" stroke="#000" d="M152.544 85.824c0 37.573-31.346 68.056-70.044 68.056-38.697 0-70.043-30.483-70.043-68.056 0-37.573 31.346-68.056 70.043-68.056 38.698 0 70.044 30.483 70.044 68.056Z" class="powloka"/>
    <path fill="#D9D9D9" fill-opacity=".1" stroke="#000" d="M164.5 85.824c0 43.991-36.699 79.676-82 79.676-45.3 0-82-35.685-82-79.676 0-43.99 36.7-79.676 82-79.676 45.301 0 82 35.686 82 79.676Z" class="powloka"/>
    <path fill="url(#a)" stroke="#000" stroke-width=".5" d="M82.201 89.56c2.278 0 4.136-1.796 4.136-4.026 0-2.23-1.859-4.027-4.136-4.027s-4.136 1.796-4.136 4.026c0 2.23 1.859 4.027 4.136 4.027Z" class="Ellipse 2"/>
    <path fill="url(#b)" stroke="#000" stroke-width=".5" d="M53.76 38.13c0 2.206-1.883 4.017-4.233 4.017-2.35 0-4.233-1.81-4.233-4.018 0-2.207 1.883-4.017 4.233-4.017 2.35 0 4.234 1.81 4.234 4.017Z" class="elektron"/>
    <path fill="url(#c)" stroke="#000" stroke-width=".5" d="M30.76 86.13c0 2.207-1.883 4.017-4.233 4.017-2.35 0-4.233-1.81-4.233-4.018 0-2.207 1.883-4.017 4.233-4.017 2.35 0 4.234 1.81 4.234 4.017Z" class="elektron"/>
    <path fill="url(#d)" stroke="#000" stroke-width=".5" d="M122.761 38.13c0 2.206-1.884 4.017-4.234 4.017s-4.234-1.81-4.234-4.018c0-2.207 1.884-4.017 4.234-4.017s4.234 1.81 4.234 4.017Z" class="elektron"/>
    <path fill="url(#e)" stroke="#000" stroke-width=".5" d="M72.76 41.13c0 2.206-1.883 4.017-4.233 4.017-2.35 0-4.234-1.81-4.234-4.018 0-2.207 1.884-4.017 4.234-4.017s4.234 1.81 4.234 4.017Z" class="elektron"/>
    <path fill="url(#f)" stroke="#000" stroke-width=".5" d="M25.76 119.129c0 2.207-1.883 4.018-4.233 4.018-2.35 0-4.233-1.811-4.233-4.018s1.883-4.017 4.233-4.017c2.35 0 4.234 1.81 4.234 4.017Z" class="elektron"/>
    <path fill="url(#g)" stroke="#000" stroke-width=".5" d="M111.761 20.13c0 2.207-1.884 4.017-4.234 4.017s-4.234-1.81-4.234-4.018c0-2.207 1.884-4.017 4.234-4.017s4.234 1.81 4.234 4.017Z" class="elektron"/>
    <path fill="url(#h)" stroke="#000" stroke-width=".5" d="M152.761 60.13c0 2.206-1.884 4.017-4.234 4.017s-4.234-1.81-4.234-4.018c0-2.207 1.884-4.017 4.234-4.017s4.234 1.81 4.234 4.017Z" class="elektron"/>
    <path fill="url(#i)" stroke="#000" stroke-width=".5" d="M64.76 150.129c0 2.207-1.883 4.018-4.233 4.018-2.35 0-4.233-1.811-4.233-4.018s1.883-4.017 4.233-4.017c2.35 0 4.234 1.81 4.234 4.017Z" class="elektron"/>
    <path fill="url(#j)" stroke="#000" stroke-width=".5" d="M39.76 139.129c0 2.207-1.883 4.018-4.233 4.018-2.35 0-4.233-1.811-4.233-4.018s1.883-4.017 4.233-4.017c2.35 0 4.234 1.81 4.234 4.017Z" class="elektron"/>
    <path fill="url(#k)" stroke="#000" stroke-width=".5" d="M150.761 116.129c0 2.207-1.884 4.018-4.234 4.018s-4.234-1.811-4.234-4.018 1.884-4.017 4.234-4.017 4.234 1.81 4.234 4.017Z" class="elektron"/>
    <path fill="url(#l)" stroke="#000" stroke-width=".5" d="M66.76 20.13c0 2.207-1.883 4.017-4.233 4.017-2.35 0-4.233-1.81-4.233-4.018 0-2.207 1.883-4.017 4.233-4.017 2.35 0 4.234 1.81 4.234 4.017Z" class="elektron"/>
    <path fill="url(#m)" stroke="#000" stroke-width=".5" d="M89.76 5.13c0 2.206-1.883 4.017-4.233 4.017-2.35 0-4.234-1.81-4.234-4.018 0-2.207 1.884-4.017 4.234-4.017s4.234 1.81 4.234 4.017Z" class="elektron"/>
    <path fill="url(#n)" stroke="#000" stroke-width=".5" d="M86.76 154.129c0 2.207-1.883 4.018-4.233 4.018-2.35 0-4.234-1.811-4.234-4.018s1.884-4.017 4.234-4.017 4.234 1.81 4.234 4.017Z" class="elektron"/>
    <path fill="url(#o)" stroke="#000" stroke-width=".5" d="M108.761 148.129c0 2.207-1.884 4.018-4.234 4.018s-4.234-1.811-4.234-4.018 1.884-4.017 4.234-4.017 4.234 1.81 4.234 4.017Z" class="elektron"/>
    <path fill="url(#p)" stroke="#000" stroke-width=".5" d="M16.76 99.13c0 2.206-1.883 4.017-4.233 4.017-2.35 0-4.234-1.811-4.234-4.018s1.884-4.017 4.234-4.017 4.234 1.81 4.234 4.017Z" class="elektron"/>
    <path fill="url(#q)" stroke="#000" stroke-width=".5" d="M133.761 137.129c0 2.207-1.884 4.018-4.234 4.018s-4.234-1.811-4.234-4.018 1.884-4.017 4.234-4.017 4.234 1.81 4.234 4.017Z" class="elektron"/>
    <path fill="url(#r)" stroke="#000" stroke-width=".5" d="M123.761 113.129c0 2.207-1.884 4.018-4.234 4.018s-4.234-1.811-4.234-4.018 1.884-4.017 4.234-4.017 4.234 1.81 4.234 4.017Z" class="elektron"/>
    <path fill="url(#s)" stroke="#000" stroke-width=".5" d="M88.76 26.13c0 2.207-1.883 4.017-4.233 4.017-2.35 0-4.234-1.81-4.234-4.018 0-2.207 1.884-4.017 4.234-4.017s4.234 1.81 4.234 4.017Z" class="elektron"/>
    <path fill="url(#t)" stroke="#000" stroke-width=".5" d="M88.76 139.129c0 2.207-1.883 4.018-4.233 4.018-2.35 0-4.234-1.811-4.234-4.018s1.884-4.017 4.234-4.017 4.234 1.81 4.234 4.017Z" class="elektron"/>
    <path fill="url(#u)" stroke="#000" stroke-width=".5" d="M53.76 131.129c0 2.207-1.883 4.018-4.233 4.018-2.35 0-4.233-1.811-4.233-4.018s1.883-4.017 4.233-4.017c2.35 0 4.234 1.81 4.234 4.017Z" class="elektron"/>
    <path fill="url(#v)" stroke="#000" stroke-width=".5" d="M122.761 128.129c0 2.207-1.884 4.018-4.234 4.018s-4.234-1.811-4.234-4.018 1.884-4.017 4.234-4.017 4.234 1.81 4.234 4.017Z" class="elektron"/>
    <path fill="url(#w)" stroke="#000" stroke-width=".5" d="M146.761 84.13c0 2.207-1.884 4.017-4.234 4.017s-4.234-1.81-4.234-4.018c0-2.207 1.884-4.017 4.234-4.017s4.234 1.81 4.234 4.017Z" class="elektron"/>
    <path fill="url(#x)" stroke="#000" stroke-width=".5" d="M25.76 53.13c0 2.206-1.883 4.017-4.233 4.017-2.35 0-4.233-1.81-4.233-4.018 0-2.207 1.883-4.017 4.233-4.017 2.35 0 4.234 1.81 4.234 4.017Z" class="elektron"/>
    <path fill="url(#y)" stroke="#000" stroke-width=".5" d="M42.76 31.13c0 2.207-1.883 4.017-4.233 4.017-2.35 0-4.233-1.81-4.233-4.018 0-2.207 1.883-4.017 4.233-4.017 2.35 0 4.234 1.81 4.234 4.017Z" class="elektron"/>
  </g>
  <defs>
    <radialGradient id="a" cx="0" cy="0" r="1" class="a" gradientTransform="matrix(0 3.77641 -3.88587 0 82.201 85.534)" gradientUnits="userSpaceOnUse">
      <stop stop-color="#F80A0A"/>
      <stop offset="1" stop-color="#690404"/>
    </radialGradient>
    <radialGradient id="b" cx="0" cy="0" r="1" class="b" gradientTransform="matrix(0 4.26725 -4.4837 0 49.527 38.13)" gradientUnits="userSpaceOnUse">
      <stop stop-color="#00C2FF"/>
      <stop offset="1" stop-color="#0051A3"/>
    </radialGradient>
    <radialGradient id="c" cx="0" cy="0" r="1" class="c" gradientTransform="matrix(0 4.26725 -4.4837 0 26.527 86.13)" gradientUnits="userSpaceOnUse">
      <stop stop-color="#00C2FF"/>
      <stop offset="1" stop-color="#0051A3"/>
    </radialGradient>
    <radialGradient id="d" cx="0" cy="0" r="1" class="d" gradientTransform="matrix(0 4.26725 -4.4837 0 118.527 38.13)" gradientUnits="userSpaceOnUse">
      <stop stop-color="#00C2FF"/>
      <stop offset="1" stop-color="#0051A3"/>
    </radialGradient>
    <radialGradient id="e" cx="0" cy="0" r="1" class="e" gradientTransform="matrix(0 4.26725 -4.4837 0 68.527 41.13)" gradientUnits="userSpaceOnUse">
      <stop stop-color="#00C2FF"/>
      <stop offset="1" stop-color="#0051A3"/>
    </radialGradient>
    <radialGradient id="f" cx="0" cy="0" r="1" class="f" gradientTransform="matrix(0 4.26725 -4.4837 0 21.527 119.129)" gradientUnits="userSpaceOnUse">
      <stop stop-color="#00C2FF"/>
      <stop offset="1" stop-color="#0051A3"/>
    </radialGradient>
    <radialGradient id="g" cx="0" cy="0" r="1" class="g" gradientTransform="matrix(0 4.26725 -4.4837 0 107.527 20.13)" gradientUnits="userSpaceOnUse">
      <stop stop-color="#00C2FF"/>
      <stop offset="1" stop-color="#0051A3"/>
    </radialGradient>
    <radialGradient id="h" cx="0" cy="0" r="1" class="h" gradientTransform="matrix(0 4.26725 -4.4837 0 148.527 60.13)" gradientUnits="userSpaceOnUse">
      <stop stop-color="#00C2FF"/>
      <stop offset="1" stop-color="#0051A3"/>
    </radialGradient>
    <radialGradient id="i" cx="0" cy="0" r="1" class="i" gradientTransform="matrix(0 4.26725 -4.4837 0 60.527 150.129)" gradientUnits="userSpaceOnUse">
      <stop stop-color="#00C2FF"/>
      <stop offset="1" stop-color="#0051A3"/>
    </radialGradient>
    <radialGradient id="j" cx="0" cy="0" r="1" class="j" gradientTransform="matrix(0 4.26725 -4.4837 0 35.527 139.129)" gradientUnits="userSpaceOnUse">
      <stop stop-color="#00C2FF"/>
      <stop offset="1" stop-color="#0051A3"/>
    </radialGradient>
    <radialGradient id="k" cx="0" cy="0" r="1" class="k" gradientTransform="matrix(0 4.26725 -4.4837 0 146.527 116.129)" gradientUnits="userSpaceOnUse">
      <stop stop-color="#00C2FF"/>
      <stop offset="1" stop-color="#0051A3"/>
    </radialGradient>
    <radialGradient id="l" cx="0" cy="0" r="1" class="l" gradientTransform="matrix(0 4.26725 -4.4837 0 62.527 20.13)" gradientUnits="userSpaceOnUse">
      <stop stop-color="#00C2FF"/>
      <stop offset="1" stop-color="#0051A3"/>
    </radialGradient>
    <radialGradient id="m" cx="0" cy="0" r="1" class="m" gradientTransform="matrix(0 4.26725 -4.4837 0 85.527 5.13)" gradientUnits="userSpaceOnUse">
      <stop stop-color="#00C2FF"/>
      <stop offset="1" stop-color="#0051A3"/>
    </radialGradient>
    <radialGradient id="n" cx="0" cy="0" r="1" class="n" gradientTransform="matrix(0 4.26725 -4.4837 0 82.527 154.129)" gradientUnits="userSpaceOnUse">
      <stop stop-color="#00C2FF"/>
      <stop offset="1" stop-color="#0051A3"/>
    </radialGradient>
    <radialGradient id="o" cx="0" cy="0" r="1" class="o" gradientTransform="matrix(0 4.26725 -4.4837 0 104.527 148.129)" gradientUnits="userSpaceOnUse">
      <stop stop-color="#00C2FF"/>
      <stop offset="1" stop-color="#0051A3"/>
    </radialGradient>
    <radialGradient id="p" cx="0" cy="0" r="1" class="p" gradientTransform="matrix(0 4.26725 -4.4837 0 12.527 99.13)" gradientUnits="userSpaceOnUse">
      <stop stop-color="#00C2FF"/>
      <stop offset="1" stop-color="#0051A3"/>
    </radialGradient>
    <radialGradient id="q" cx="0" cy="0" r="1" class="q" gradientTransform="matrix(0 4.26725 -4.4837 0 129.527 137.129)" gradientUnits="userSpaceOnUse">
      <stop stop-color="#00C2FF"/>
      <stop offset="1" stop-color="#0051A3"/>
    </radialGradient>
    <radialGradient id="r" cx="0" cy="0" r="1" class="r" gradientTransform="matrix(0 4.26725 -4.4837 0 119.527 113.129)" gradientUnits="userSpaceOnUse">
      <stop stop-color="#00C2FF"/>
      <stop offset="1" stop-color="#0051A3"/>
    </radialGradient>
    <radialGradient id="s" cx="0" cy="0" r="1" class="s" gradientTransform="matrix(0 4.26725 -4.4837 0 84.527 26.13)" gradientUnits="userSpaceOnUse">
      <stop stop-color="#00C2FF"/>
      <stop offset="1" stop-color="#0051A3"/>
    </radialGradient>
    <radialGradient id="t" cx="0" cy="0" r="1" class="t" gradientTransform="matrix(0 4.26725 -4.4837 0 84.527 139.129)" gradientUnits="userSpaceOnUse">
      <stop stop-color="#00C2FF"/>
      <stop offset="1" stop-color="#0051A3"/>
    </radialGradient>
    <radialGradient id="u" cx="0" cy="0" r="1" class="u" gradientTransform="matrix(0 4.26725 -4.4837 0 49.527 131.129)" gradientUnits="userSpaceOnUse">
      <stop stop-color="#00C2FF"/>
      <stop offset="1" stop-color="#0051A3"/>
    </radialGradient>
    <radialGradient id="v" cx="0" cy="0" r="1" class="v" gradientTransform="matrix(0 4.26725 -4.4837 0 118.527 128.129)" gradientUnits="userSpaceOnUse">
      <stop stop-color="#00C2FF"/>
      <stop offset="1" stop-color="#0051A3"/>
    </radialGradient>
    <radialGradient id="w" cx="0" cy="0" r="1" class="w" gradientTransform="matrix(0 4.26725 -4.4837 0 142.527 84.13)" gradientUnits="userSpaceOnUse">
      <stop stop-color="#00C2FF"/>
      <stop offset="1" stop-color="#0051A3"/>
    </radialGradient>
    <radialGradient id="x" cx="0" cy="0" r="1" class="x" gradientTransform="matrix(0 4.26725 -4.4837 0 21.527 53.13)" gradientUnits="userSpaceOnUse">
      <stop stop-color="#00C2FF"/>
      <stop offset="1" stop-color="#0051A3"/>
    </radialGradient>
    <radialGradient id="y" cx="0" cy="0" r="1" class="y" gradientTransform="matrix(0 4.26725 -4.4837 0 38.527 31.13)" gradientUnits="userSpaceOnUse">
      <stop stop-color="#00C2FF"/>
      <stop offset="1" stop-color="#0051A3"/>
    </radialGradient>
  </defs>
</svg>
