<?xml-stylesheet type="text/css" href="../style.css"?><svg xmlns="http://www.w3.org/2000/svg" width="165" height="166" fill="none" viewBox="0 0 165 166">
  <g class="cu">
    <path fill="#D9D9D9" fill-opacity=".1" stroke="#000" d="M128.63 86.385c0 24.56-20.636 44.5-46.13 44.5-25.494 0-46.13-19.94-46.13-44.5s20.636-44.5 46.13-44.5c25.494 0 46.13 19.94 46.13 44.5Z" class="powloka"/>
    <path fill="#D9D9D9" fill-opacity=".1" stroke="#000" d="M140.587 86.385c0 30.932-25.99 56.038-58.087 56.038-32.097 0-58.087-25.106-58.087-56.038 0-30.933 25.99-56.039 58.087-56.039 32.097 0 58.087 25.106 58.087 56.039Z" class="powloka"/>
    <path fill="#D9D9D9" fill-opacity=".1" stroke="#000" d="M152.544 86.385c0 37.305-31.343 67.576-70.044 67.576-38.7 0-70.043-30.271-70.043-67.577 0-37.304 31.342-67.576 70.043-67.576 38.701 0 70.044 30.272 70.044 67.577Z" class="powloka"/>
    <path fill="#D9D9D9" fill-opacity=".1" stroke="#000" d="M164.5 86.385c0 43.677-36.696 79.115-82 79.115S.5 130.062.5 86.385c0-43.678 36.696-79.116 82-79.116s82 35.438 82 79.116Z" class="powloka"/>
    <path fill="url(#a)" stroke="#000" stroke-width=".5" d="M82.201 90.096c2.276 0 4.136-1.782 4.136-4 0-2.217-1.86-4-4.136-4s-4.136 1.783-4.136 4c0 2.218 1.86 4 4.136 4Z" class="Ellipse 2"/>
    <path fill="url(#b)" stroke="#000" stroke-width=".5" d="M52.76 37.13c0 2.206-1.883 4.017-4.233 4.017-2.35 0-4.233-1.81-4.233-4.018 0-2.207 1.883-4.017 4.233-4.017 2.35 0 4.234 1.81 4.234 4.017Z" class="elektron"/>
    <path fill="url(#c)" stroke="#000" stroke-width=".5" d="M29.76 85.13c0 2.207-1.883 4.017-4.233 4.017-2.35 0-4.233-1.81-4.233-4.018 0-2.207 1.883-4.017 4.233-4.017 2.35 0 4.234 1.81 4.234 4.017Z" class="elektron"/>
    <path fill="url(#d)" stroke="#000" stroke-width=".5" d="M120.761 37.13c0 2.206-1.884 4.017-4.234 4.017s-4.234-1.81-4.234-4.018c0-2.207 1.884-4.017 4.234-4.017s4.234 1.81 4.234 4.017Z" class="elektron"/>
    <path fill="url(#e)" stroke="#000" stroke-width=".5" d="M71.76 41.13c0 2.206-1.883 4.017-4.233 4.017-2.35 0-4.233-1.81-4.233-4.018 0-2.207 1.883-4.017 4.233-4.017 2.35 0 4.234 1.81 4.234 4.017Z" class="elektron"/>
    <path fill="url(#f)" stroke="#000" stroke-width=".5" d="M24.76 118.129c0 2.207-1.883 4.018-4.233 4.018-2.35 0-4.233-1.811-4.233-4.018s1.883-4.017 4.233-4.017c2.35 0 4.234 1.81 4.234 4.017Z" class="elektron"/>
    <path fill="url(#g)" stroke="#000" stroke-width=".5" d="M110.761 20.13c0 2.207-1.884 4.017-4.234 4.017s-4.234-1.81-4.234-4.018c0-2.207 1.884-4.017 4.234-4.017s4.234 1.81 4.234 4.017Z" class="elektron"/>
    <path fill="url(#h)" stroke="#000" stroke-width=".5" d="M151.761 59.13c0 2.206-1.884 4.017-4.234 4.017s-4.234-1.81-4.234-4.018c0-2.207 1.884-4.017 4.234-4.017s4.234 1.81 4.234 4.017Z" class="elektron"/>
    <path fill="url(#i)" stroke="#000" stroke-width=".5" d="M158.761 85.13c0 2.207-1.884 4.017-4.234 4.017s-4.234-1.81-4.234-4.018c0-2.207 1.884-4.017 4.234-4.017s4.234 1.81 4.234 4.017Z" class="elektron"/>
    <path fill="url(#j)" stroke="#000" stroke-width=".5" d="M87.76 16.13c0 2.207-1.883 4.017-4.233 4.017-2.35 0-4.234-1.81-4.234-4.018 0-2.207 1.884-4.017 4.234-4.017s4.234 1.81 4.234 4.017Z" class="elektron"/>
    <path fill="url(#k)" stroke="#000" stroke-width=".5" d="M135.761 36.13c0 2.206-1.884 4.017-4.234 4.017s-4.234-1.81-4.234-4.018c0-2.207 1.884-4.017 4.234-4.017s4.234 1.81 4.234 4.017Z" class="elektron"/>
    <path fill="url(#l)" stroke="#000" stroke-width=".5" d="M63.76 149.129c0 2.207-1.883 4.018-4.233 4.018-2.35 0-4.233-1.811-4.233-4.018s1.883-4.017 4.233-4.017c2.35 0 4.234 1.81 4.234 4.017Z" class="elektron"/>
    <path fill="url(#m)" stroke="#000" stroke-width=".5" d="M38.76 138.129c0 2.207-1.883 4.018-4.233 4.018-2.35 0-4.233-1.811-4.233-4.018s1.883-4.017 4.233-4.017c2.35 0 4.234 1.81 4.234 4.017Z" class="elektron"/>
    <path fill="url(#n)" stroke="#000" stroke-width=".5" d="M148.761 115.129c0 2.207-1.884 4.018-4.234 4.018s-4.234-1.811-4.234-4.018 1.884-4.017 4.234-4.017 4.234 1.81 4.234 4.017Z" class="elektron"/>
    <path fill="url(#o)" stroke="#000" stroke-width=".5" d="M65.76 20.13c0 2.207-1.883 4.017-4.233 4.017-2.35 0-4.233-1.81-4.233-4.018 0-2.207 1.883-4.017 4.233-4.017 2.35 0 4.234 1.81 4.234 4.017Z" class="elektron"/>
    <path fill="url(#p)" stroke="#000" stroke-width=".5" d="M87.76 5.13c0 2.206-1.883 4.017-4.233 4.017-2.35 0-4.234-1.81-4.234-4.018 0-2.207 1.884-4.017 4.234-4.017s4.234 1.81 4.234 4.017Z" class="elektron"/>
    <path fill="url(#q)" stroke="#000" stroke-width=".5" d="M85.76 153.129c0 2.207-1.883 4.018-4.233 4.018-2.35 0-4.234-1.811-4.234-4.018s1.884-4.017 4.234-4.017 4.234 1.81 4.234 4.017Z" class="elektron"/>
    <path fill="url(#r)" stroke="#000" stroke-width=".5" d="M16.76 74.13c0 2.207-1.883 4.017-4.233 4.017-2.35 0-4.234-1.81-4.234-4.018 0-2.207 1.884-4.017 4.234-4.017s4.234 1.81 4.234 4.017Z" class="elektron"/>
    <path fill="url(#s)" stroke="#000" stroke-width=".5" d="M107.761 147.129c0 2.207-1.884 4.018-4.234 4.018s-4.234-1.811-4.234-4.018 1.884-4.017 4.234-4.017 4.234 1.81 4.234 4.017Z" class="elektron"/>
    <path fill="url(#t)" stroke="#000" stroke-width=".5" d="M15.76 98.13c0 2.206-1.883 4.017-4.233 4.017-2.35 0-4.234-1.811-4.234-4.018s1.884-4.017 4.234-4.017 4.234 1.81 4.234 4.017Z" class="elektron"/>
    <path fill="url(#u)" stroke="#000" stroke-width=".5" d="M144.761 47.13c0 2.206-1.884 4.017-4.234 4.017s-4.234-1.81-4.234-4.018c0-2.207 1.884-4.017 4.234-4.017s4.234 1.81 4.234 4.017Z" class="elektron"/>
    <path fill="url(#v)" stroke="#000" stroke-width=".5" d="M132.761 136.129c0 2.207-1.884 4.018-4.234 4.018s-4.234-1.811-4.234-4.018 1.884-4.017 4.234-4.017 4.234 1.81 4.234 4.017Z" class="elektron"/>
    <path fill="url(#w)" stroke="#000" stroke-width=".5" d="M122.761 112.129c0 2.207-1.884 4.018-4.234 4.018s-4.234-1.811-4.234-4.018 1.884-4.017 4.234-4.017 4.234 1.81 4.234 4.017Z" class="elektron"/>
    <path fill="url(#x)" stroke="#000" stroke-width=".5" d="M87.76 29.13c0 2.207-1.883 4.017-4.233 4.017-2.35 0-4.234-1.81-4.234-4.018 0-2.207 1.884-4.017 4.234-4.017s4.234 1.81 4.234 4.017Z" class="elektron"/>
    <path fill="url(#y)" stroke="#000" stroke-width=".5" d="M87.76 138.129c0 2.207-1.883 4.018-4.233 4.018-2.35 0-4.234-1.811-4.234-4.018s1.884-4.017 4.234-4.017 4.234 1.81 4.234 4.017Z" class="elektron"/>
    <path fill="url(#z)" stroke="#000" stroke-width=".5" d="M52.76 130.129c0 2.207-1.883 4.018-4.233 4.018-2.35 0-4.233-1.811-4.233-4.018s1.883-4.017 4.233-4.017c2.35 0 4.234 1.81 4.234 4.017Z" class="elektron"/>
    <path fill="url(#A)" stroke="#000" stroke-width=".5" d="M120.761 127.129c0 2.207-1.884 4.018-4.234 4.018s-4.234-1.811-4.234-4.018 1.884-4.017 4.234-4.017 4.234 1.81 4.234 4.017Z" class="elektron"/>
    <path fill="url(#B)" stroke="#000" stroke-width=".5" d="M145.761 83.13c0 2.207-1.884 4.017-4.234 4.017s-4.234-1.81-4.234-4.018c0-2.207 1.884-4.017 4.234-4.017s4.234 1.81 4.234 4.017Z" class="elektron"/>
    <path fill="url(#C)" stroke="#000" stroke-width=".5" d="M24.76 53.13c0 2.206-1.883 4.017-4.233 4.017-2.35 0-4.233-1.81-4.233-4.018 0-2.207 1.883-4.017 4.233-4.017 2.35 0 4.234 1.81 4.234 4.017Z" class="elektron"/>
    <path fill="url(#D)" stroke="#000" stroke-width=".5" d="M41.76 31.13c0 2.207-1.883 4.017-4.233 4.017-2.35 0-4.233-1.81-4.233-4.018 0-2.207 1.883-4.017 4.233-4.017 2.35 0 4.234 1.81 4.234 4.017Z" class="elektron"/>
  </g>
  <defs>
    <radialGradient id="a" cx="0" cy="0" r="1" class="a" gradientTransform="matrix(0 3.75 -3.88587 0 82.201 86.096)" gradientUnits="userSpaceOnUse">
      <stop stop-color="#F80A0A"/>
      <stop offset="1" stop-color="#690404"/>
    </radialGradient>
    <radialGradient id="b" cx="0" cy="0" r="1" class="b" gradientTransform="matrix(0 4.26725 -4.4837 0 48.527 37.13)" gradientUnits="userSpaceOnUse">
      <stop stop-color="#00C2FF"/>
      <stop offset="1" stop-color="#0051A3"/>
    </radialGradient>
    <radialGradient id="c" cx="0" cy="0" r="1" class="c" gradientTransform="matrix(0 4.26725 -4.4837 0 25.527 85.13)" gradientUnits="userSpaceOnUse">
      <stop stop-color="#00C2FF"/>
      <stop offset="1" stop-color="#0051A3"/>
    </radialGradient>
    <radialGradient id="d" cx="0" cy="0" r="1" class="d" gradientTransform="matrix(0 4.26725 -4.4837 0 116.527 37.13)" gradientUnits="userSpaceOnUse">
      <stop stop-color="#00C2FF"/>
      <stop offset="1" stop-color="#0051A3"/>
    </radialGradient>
    <radialGradient id="e" cx="0" cy="0" r="1" class="e" gradientTransform="matrix(0 4.26725 -4.4837 0 67.527 41.13)" gradientUnits="userSpaceOnUse">
      <stop stop-color="#00C2FF"/>
      <stop offset="1" stop-color="#0051A3"/>
    </radialGradient>
    <radialGradient id="f" cx="0" cy="0" r="1" class="f" gradientTransform="matrix(0 4.26725 -4.4837 0 20.527 118.129)" gradientUnits="userSpaceOnUse">
      <stop stop-color="#00C2FF"/>
      <stop offset="1" stop-color="#0051A3"/>
    </radialGradient>
    <radialGradient id="g" cx="0" cy="0" r="1" class="g" gradientTransform="matrix(0 4.26725 -4.4837 0 106.527 20.13)" gradientUnits="userSpaceOnUse">
      <stop stop-color="#00C2FF"/>
      <stop offset="1" stop-color="#0051A3"/>
    </radialGradient>
    <radialGradient id="h" cx="0" cy="0" r="1" class="h" gradientTransform="matrix(0 4.26725 -4.4837 0 147.527 59.13)" gradientUnits="userSpaceOnUse">
      <stop stop-color="#00C2FF"/>
      <stop offset="1" stop-color="#0051A3"/>
    </radialGradient>
    <radialGradient id="i" cx="0" cy="0" r="1" class="i" gradientTransform="matrix(0 4.26725 -4.4837 0 154.527 85.13)" gradientUnits="userSpaceOnUse">
      <stop stop-color="#00C2FF"/>
      <stop offset="1" stop-color="#0051A3"/>
    </radialGradient>
    <radialGradient id="j" cx="0" cy="0" r="1" class="j" gradientTransform="matrix(0 4.26725 -4.4837 0 83.527 16.13)" gradientUnits="userSpaceOnUse">
      <stop stop-color="#00C2FF"/>
      <stop offset="1" stop-color="#0051A3"/>
    </radialGradient>
    <radialGradient id="k" cx="0" cy="0" r="1" class="k" gradientTransform="matrix(0 4.26725 -4.4837 0 131.527 36.13)" gradientUnits="userSpaceOnUse">
      <stop stop-color="#00C2FF"/>
      <stop offset="1" stop-color="#0051A3"/>
    </radialGradient>
    <radialGradient id="l" cx="0" cy="0" r="1" class="l" gradientTransform="matrix(0 4.26725 -4.4837 0 59.527 149.129)" gradientUnits="userSpaceOnUse">
      <stop stop-color="#00C2FF"/>
      <stop offset="1" stop-color="#0051A3"/>
    </radialGradient>
    <radialGradient id="m" cx="0" cy="0" r="1" class="m" gradientTransform="matrix(0 4.26725 -4.4837 0 34.527 138.129)" gradientUnits="userSpaceOnUse">
      <stop stop-color="#00C2FF"/>
      <stop offset="1" stop-color="#0051A3"/>
    </radialGradient>
    <radialGradient id="n" cx="0" cy="0" r="1" class="n" gradientTransform="matrix(0 4.26725 -4.4837 0 144.527 115.129)" gradientUnits="userSpaceOnUse">
      <stop stop-color="#00C2FF"/>
      <stop offset="1" stop-color="#0051A3"/>
    </radialGradient>
    <radialGradient id="o" cx="0" cy="0" r="1" class="o" gradientTransform="matrix(0 4.26725 -4.4837 0 61.527 20.13)" gradientUnits="userSpaceOnUse">
      <stop stop-color="#00C2FF"/>
      <stop offset="1" stop-color="#0051A3"/>
    </radialGradient>
    <radialGradient id="p" cx="0" cy="0" r="1" class="p" gradientTransform="matrix(0 4.26725 -4.4837 0 83.527 5.13)" gradientUnits="userSpaceOnUse">
      <stop stop-color="#00C2FF"/>
      <stop offset="1" stop-color="#0051A3"/>
    </radialGradient>
    <radialGradient id="q" cx="0" cy="0" r="1" class="q" gradientTransform="matrix(0 4.26725 -4.4837 0 81.527 153.129)" gradientUnits="userSpaceOnUse">
      <stop stop-color="#00C2FF"/>
      <stop offset="1" stop-color="#0051A3"/>
    </radialGradient>
    <radialGradient id="r" cx="0" cy="0" r="1" class="r" gradientTransform="matrix(0 4.26725 -4.4837 0 12.527 74.13)" gradientUnits="userSpaceOnUse">
      <stop stop-color="#00C2FF"/>
      <stop offset="1" stop-color="#0051A3"/>
    </radialGradient>
    <radialGradient id="s" cx="0" cy="0" r="1" class="s" gradientTransform="matrix(0 4.26725 -4.4837 0 103.527 147.129)" gradientUnits="userSpaceOnUse">
      <stop stop-color="#00C2FF"/>
      <stop offset="1" stop-color="#0051A3"/>
    </radialGradient>
    <radialGradient id="t" cx="0" cy="0" r="1" class="t" gradientTransform="matrix(0 4.26725 -4.4837 0 11.527 98.13)" gradientUnits="userSpaceOnUse">
      <stop stop-color="#00C2FF"/>
      <stop offset="1" stop-color="#0051A3"/>
    </radialGradient>
    <radialGradient id="u" cx="0" cy="0" r="1" class="u" gradientTransform="matrix(0 4.26725 -4.4837 0 140.527 47.13)" gradientUnits="userSpaceOnUse">
      <stop stop-color="#00C2FF"/>
      <stop offset="1" stop-color="#0051A3"/>
    </radialGradient>
    <radialGradient id="v" cx="0" cy="0" r="1" class="v" gradientTransform="matrix(0 4.26725 -4.4837 0 128.527 136.129)" gradientUnits="userSpaceOnUse">
      <stop stop-color="#00C2FF"/>
      <stop offset="1" stop-color="#0051A3"/>
    </radialGradient>
    <radialGradient id="w" cx="0" cy="0" r="1" class="w" gradientTransform="scale(4.4837 4.26725) rotate(90 .08 26.356)" gradientUnits="userSpaceOnUse">
      <stop stop-color="#00C2FF"/>
      <stop offset="1" stop-color="#0051A3"/>
    </radialGradient>
    <radialGradient id="x" cx="0" cy="0" r="1" class="x" gradientTransform="matrix(0 4.26725 -4.4837 0 83.527 29.13)" gradientUnits="userSpaceOnUse">
      <stop stop-color="#00C2FF"/>
      <stop offset="1" stop-color="#0051A3"/>
    </radialGradient>
    <radialGradient id="y" cx="0" cy="0" r="1" class="y" gradientTransform="matrix(0 4.26725 -4.4837 0 83.527 138.129)" gradientUnits="userSpaceOnUse">
      <stop stop-color="#00C2FF"/>
      <stop offset="1" stop-color="#0051A3"/>
    </radialGradient>
    <radialGradient id="z" cx="0" cy="0" r="1" class="z" gradientTransform="matrix(0 4.26725 -4.4837 0 48.527 130.129)" gradientUnits="userSpaceOnUse">
      <stop stop-color="#00C2FF"/>
      <stop offset="1" stop-color="#0051A3"/>
    </radialGradient>
    <radialGradient id="A" cx="0" cy="0" r="1" class="A" gradientTransform="matrix(0 4.26725 -4.4837 0 116.527 127.129)" gradientUnits="userSpaceOnUse">
      <stop stop-color="#00C2FF"/>
      <stop offset="1" stop-color="#0051A3"/>
    </radialGradient>
    <radialGradient id="B" cx="0" cy="0" r="1" class="B" gradientTransform="matrix(0 4.26725 -4.4837 0 141.527 83.13)" gradientUnits="userSpaceOnUse">
      <stop stop-color="#00C2FF"/>
      <stop offset="1" stop-color="#0051A3"/>
    </radialGradient>
    <radialGradient id="C" cx="0" cy="0" r="1" class="C" gradientTransform="matrix(0 4.26725 -4.4837 0 20.527 53.13)" gradientUnits="userSpaceOnUse">
      <stop stop-color="#00C2FF"/>
      <stop offset="1" stop-color="#0051A3"/>
    </radialGradient>
    <radialGradient id="D" cx="0" cy="0" r="1" class="D" gradientTransform="matrix(0 4.26725 -4.4837 0 37.527 31.13)" gradientUnits="userSpaceOnUse">
      <stop stop-color="#00C2FF"/>
      <stop offset="1" stop-color="#0051A3"/>
    </radialGradient>
  </defs>
</svg>
