<?xml-stylesheet type="text/css" href="../style.css"?><svg xmlns="http://www.w3.org/2000/svg" width="165" height="166" fill="none" viewBox="0 0 165 166">
  <g class="fr">
    <path fill="#D9D9D9" fill-opacity=".1" stroke="#000" d="M114.5 80.667c0 17.263-14.316 31.277-32 31.277-17.684 0-32-14.014-32-31.277 0-17.264 14.316-31.278 32-31.278 17.684 0 32 14.014 32 31.278Z" class="powloka"/>
    <path fill="#D9D9D9" fill-opacity=".1" stroke="#000" d="M122.833 80.667c0 21.763-18.047 39.426-40.333 39.426-22.286 0-40.333-17.663-40.333-39.426 0-21.764 18.047-39.426 40.333-39.426 22.286 0 40.333 17.662 40.333 39.426Z" class="powloka"/>
    <path fill="#D9D9D9" fill-opacity=".1" stroke="#000" d="M131.167 80.667c0 26.264-21.779 47.574-48.667 47.574-26.889 0-48.667-21.31-48.667-47.574S55.612 33.093 82.5 33.093s48.667 21.31 48.667 47.574Z" class="powloka"/>
    <path fill="#D9D9D9" fill-opacity=".1" stroke="#000" d="M139.5 80.667c0 30.764-25.509 55.722-57 55.722-31.49 0-57-24.958-57-55.722 0-30.764 25.51-55.722 57-55.722 31.491 0 57 24.958 57 55.722Z" class="powloka"/>
    <path fill="#D9D9D9" fill-opacity=".1" stroke="#000" d="M147.833 80.667c0 35.264-29.24 63.87-65.333 63.87s-65.333-28.606-65.333-63.87c0-35.264 29.24-63.87 65.333-63.87s65.333 28.606 65.333 63.87Z" class="powloka"/>
    <path fill="#D9D9D9" fill-opacity=".1" stroke="#000" d="M156.167 80.667c0 39.764-32.971 72.018-73.667 72.018-40.696 0-73.667-32.254-73.667-72.018S41.804 8.648 82.5 8.648c40.696 0 73.667 32.255 73.667 72.019Z" class="powloka"/>
    <path fill="#D9D9D9" fill-opacity=".1" stroke="#000" d="M164.5 80.667c0 44.264-36.702 80.166-82 80.166S.5 124.931.5 80.667C.5 36.402 37.202.5 82.5.5s82 35.902 82 80.167Z" class="powloka"/>
    <path fill="url(#a)" stroke="#000" stroke-width=".5" d="M82.708 83.361c1.629 0 2.959-1.292 2.959-2.898s-1.33-2.898-2.959-2.898c-1.628 0-2.958 1.292-2.958 2.898s1.33 2.898 2.958 2.898Z" class="Ellipse 2"/>
    <path fill="url(#b)" stroke="#000" stroke-width=".5" d="M64.75 46.24c0 1.545-1.282 2.806-2.875 2.806S59 47.785 59 46.241c0-1.544 1.282-2.806 2.875-2.806s2.875 1.261 2.875 2.806Z" class="elektron"/>
    <path fill="url(#c)" stroke="#000" stroke-width=".5" d="M46.75 83.24c0 1.545-1.282 2.806-2.875 2.806S41 84.785 41 83.241c0-1.544 1.282-2.806 2.875-2.806s2.875 1.261 2.875 2.806Z" class="elektron"/>
    <path fill="url(#d)" stroke="#000" stroke-width=".5" d="M112.75 46.24c0 1.545-1.282 2.806-2.875 2.806S107 47.785 107 46.241c0-1.544 1.282-2.806 2.875-2.806s2.875 1.261 2.875 2.806Z" class="elektron"/>
    <path fill="url(#e)" stroke="#000" stroke-width=".5" d="M77.75 48.24c0 1.545-1.282 2.806-2.875 2.806S72 49.785 72 48.241c0-1.544 1.282-2.806 2.875-2.806s2.875 1.261 2.875 2.806Z" class="elektron"/>
    <path fill="url(#f)" stroke="#000" stroke-width=".5" d="M44.75 103.241c0 1.544-1.282 2.805-2.875 2.805S39 104.785 39 103.241c0-1.544 1.282-2.806 2.875-2.806s2.875 1.262 2.875 2.806Z" class="elektron"/>
    <path fill="url(#g)" stroke="#000" stroke-width=".5" d="M104.75 33.24c0 1.545-1.282 2.806-2.875 2.806S99 34.785 99 33.241c0-1.544 1.282-2.806 2.875-2.806s2.875 1.262 2.875 2.806Z" class="elektron"/>
    <path fill="url(#h)" stroke="#000" stroke-width=".5" d="M133.75 61.24c0 1.545-1.282 2.806-2.875 2.806S128 62.785 128 61.241c0-1.544 1.282-2.806 2.875-2.806s2.875 1.261 2.875 2.806Z" class="elektron"/>
    <path fill="url(#i)" stroke="#000" stroke-width=".5" d="M138.75 80.24c0 1.545-1.282 2.806-2.875 2.806S133 81.785 133 80.241c0-1.544 1.282-2.806 2.875-2.806s2.875 1.261 2.875 2.806Z" class="elektron"/>
    <path fill="url(#j)" stroke="#000" stroke-width=".5" d="M89.75 31.24c0 1.545-1.282 2.806-2.875 2.806S84 32.785 84 31.241c0-1.544 1.282-2.806 2.875-2.806s2.875 1.262 2.875 2.806Z" class="elektron"/>
    <path fill="url(#k)" stroke="#000" stroke-width=".5" d="M122.75 45.24c0 1.545-1.282 2.806-2.875 2.806S117 46.785 117 45.241c0-1.544 1.282-2.806 2.875-2.806s2.875 1.261 2.875 2.806Z" class="elektron"/>
    <path fill="url(#l)" stroke="#000" stroke-width=".5" d="M72.75 125.241c0 1.544-1.282 2.805-2.875 2.805S67 126.785 67 125.241c0-1.544 1.282-2.806 2.875-2.806s2.875 1.262 2.875 2.806Z" class="elektron"/>
    <path fill="url(#m)" stroke="#000" stroke-width=".5" d="M54.75 117.241c0 1.544-1.282 2.805-2.875 2.805S49 118.785 49 117.241c0-1.544 1.282-2.806 2.875-2.806s2.875 1.262 2.875 2.806Z" class="elektron"/>
    <path fill="url(#n)" stroke="#000" stroke-width=".5" d="M131.75 101.241c0 1.544-1.282 2.805-2.875 2.805S126 102.785 126 101.241c0-1.544 1.282-2.806 2.875-2.806s2.875 1.261 2.875 2.806Z" class="elektron"/>
    <path fill="url(#o)" stroke="#000" stroke-width=".5" d="M73.75 33.24c0 1.545-1.282 2.806-2.875 2.806S68 34.785 68 33.241c0-1.544 1.282-2.806 2.875-2.806s2.875 1.262 2.875 2.806Z" class="elektron"/>
    <path fill="url(#p)" stroke="#000" stroke-width=".5" d="M89.75 23.24c0 1.545-1.282 2.806-2.875 2.806S84 24.785 84 23.241c0-1.544 1.282-2.806 2.875-2.806s2.875 1.262 2.875 2.806Z" class="elektron"/>
    <path fill="url(#q)" stroke="#000" stroke-width=".5" d="M112.75 29.24c0 1.545-1.282 2.806-2.875 2.806S107 30.785 107 29.241c0-1.544 1.282-2.806 2.875-2.806s2.875 1.262 2.875 2.806Z" class="elektron"/>
    <path fill="url(#r)" stroke="#000" stroke-width=".5" d="M100.75 25.24c0 1.545-1.282 2.806-2.875 2.806S95 26.785 95 25.241c0-1.544 1.282-2.806 2.875-2.806s2.875 1.262 2.875 2.806Z" class="elektron"/>
    <path fill="url(#s)" stroke="#000" stroke-width=".5" d="M126.75 37.24c0 1.545-1.282 2.806-2.875 2.806S121 38.785 121 37.241c0-1.544 1.282-2.806 2.875-2.806s2.875 1.261 2.875 2.806Z" class="elektron"/>
    <path fill="url(#t)" stroke="#000" stroke-width=".5" d="M141.75 57.24c0 1.545-1.282 2.806-2.875 2.806S136 58.785 136 57.241c0-1.544 1.282-2.806 2.875-2.806s2.875 1.261 2.875 2.806Z" class="elektron"/>
    <path fill="url(#u)" stroke="#000" stroke-width=".5" d="M144.75 69.24c0 1.545-1.282 2.806-2.875 2.806S139 70.785 139 69.241c0-1.544 1.282-2.806 2.875-2.806s2.875 1.261 2.875 2.806Z" class="elektron"/>
    <path fill="url(#v)" stroke="#000" stroke-width=".5" d="M89.75 136.241c0 1.544-1.282 2.805-2.875 2.805S84 137.785 84 136.241c0-1.544 1.282-2.806 2.875-2.806s2.875 1.262 2.875 2.806Z" class="elektron"/>
    <path fill="url(#w)" stroke="#000" stroke-width=".5" d="M88.75 145.241c0 1.544-1.282 2.805-2.875 2.805S83 146.785 83 145.241c0-1.544 1.282-2.806 2.875-2.806s2.875 1.262 2.875 2.806Z" class="elektron"/>
    <path fill="url(#x)" stroke="#000" stroke-width=".5" d="M64.75 141.241c0 1.544-1.282 2.805-2.875 2.805S59 142.785 59 141.241c0-1.544 1.282-2.806 2.875-2.806s2.875 1.262 2.875 2.806Z" class="elektron"/>
    <path fill="url(#y)" stroke="#000" stroke-width=".5" d="M31.75 114.241c0 1.544-1.282 2.805-2.875 2.805S26 115.785 26 114.241c0-1.544 1.282-2.806 2.875-2.806s2.875 1.262 2.875 2.806Z" class="elektron"/>
    <path fill="url(#z)" stroke="#000" stroke-width=".5" d="M24.75 96.24c0 1.545-1.282 2.806-2.875 2.806S19 97.785 19 96.241c0-1.544 1.282-2.806 2.875-2.806s2.875 1.261 2.875 2.806Z" class="elektron"/>
    <path fill="url(#A)" stroke="#000" stroke-width=".5" d="M114.75 138.241c0 1.544-1.282 2.805-2.875 2.805S109 139.785 109 138.241c0-1.544 1.282-2.806 2.875-2.806s2.875 1.262 2.875 2.806Z" class="elektron"/>
    <path fill="url(#B)" stroke="#000" stroke-width=".5" d="M149.75 103.241c0 1.544-1.282 2.805-2.875 2.805S144 104.785 144 103.241c0-1.544 1.282-2.806 2.875-2.806s2.875 1.262 2.875 2.806Z" class="elektron"/>
    <path fill="url(#C)" stroke="#000" stroke-width=".5" d="M54.75 136.241c0 1.544-1.282 2.805-2.875 2.805S49 137.785 49 136.241c0-1.544 1.282-2.806 2.875-2.806s2.875 1.262 2.875 2.806Z" class="elektron"/>
    <path fill="url(#D)" stroke="#000" stroke-width=".5" d="M153.75 78.24c0 1.545-1.282 2.806-2.875 2.806S148 79.785 148 78.241c0-1.544 1.282-2.806 2.875-2.806s2.875 1.261 2.875 2.806Z" class="elektron"/>
    <path fill="url(#E)" stroke="#000" stroke-width=".5" d="M145.75 51.24c0 1.545-1.282 2.806-2.875 2.806S140 52.785 140 51.241c0-1.544 1.282-2.806 2.875-2.806s2.875 1.261 2.875 2.806Z" class="elektron"/>
    <path fill="url(#F)" stroke="#000" stroke-width=".5" d="M137.75 123.241c0 1.544-1.282 2.805-2.875 2.805S132 124.785 132 123.241c0-1.544 1.282-2.806 2.875-2.806s2.875 1.262 2.875 2.806Z" class="elektron"/>
    <path fill="url(#G)" stroke="#000" stroke-width=".5" d="M43.75 128.241c0 1.544-1.282 2.805-2.875 2.805S38 129.785 38 128.241c0-1.544 1.282-2.806 2.875-2.806s2.875 1.262 2.875 2.806Z" class="elektron"/>
    <path fill="url(#H)" stroke="#000" stroke-width=".5" d="M45.75 31.24c0 1.545-1.282 2.806-2.875 2.806S40 32.785 40 31.241c0-1.544 1.282-2.806 2.875-2.806s2.875 1.262 2.875 2.806Z" class="elektron"/>
    <path fill="url(#I)" stroke="#000" stroke-width=".5" d="M59.75 22.24c0 1.545-1.282 2.806-2.875 2.806S54 23.785 54 22.241c0-1.544 1.282-2.806 2.875-2.806s2.875 1.262 2.875 2.806Z" class="elektron"/>
    <path fill="url(#J)" stroke="#000" stroke-width=".5" d="M127.75 28.24c0 1.545-1.282 2.806-2.875 2.806S122 29.785 122 28.241c0-1.544 1.282-2.806 2.875-2.806s2.875 1.262 2.875 2.806Z" class="elektron"/>
    <path fill="url(#K)" stroke="#000" stroke-width=".5" d="M87.75 15.24c0 1.545-1.282 2.806-2.875 2.806S82 16.785 82 15.241c0-1.544 1.282-2.806 2.875-2.806s2.875 1.261 2.875 2.806Z" class="elektron"/>
    <path fill="url(#L)" stroke="#000" stroke-width=".5" d="M87.75 7.24c0 1.545-1.282 2.806-2.875 2.806S82 8.785 82 7.241c0-1.544 1.282-2.806 2.875-2.806s2.875 1.262 2.875 2.806Z" class="elektron"/>
    <path fill="url(#M)" stroke="#000" stroke-width=".5" d="M89.75 154.241c0 1.544-1.282 2.805-2.875 2.805S84 155.785 84 154.241c0-1.544 1.282-2.806 2.875-2.806s2.875 1.262 2.875 2.806Z" class="elektron"/>
    <path fill="url(#N)" stroke="#000" stroke-width=".5" d="M89.75 162.241c0 1.544-1.282 2.805-2.875 2.805S84 163.785 84 162.241c0-1.544 1.282-2.806 2.875-2.806s2.875 1.262 2.875 2.806Z" class="elektron"/>
    <path fill="url(#O)" stroke="#000" stroke-width=".5" d="M11.75 76.24c0 1.545-1.282 2.806-2.875 2.806S6 77.785 6 76.241c0-1.544 1.282-2.806 2.875-2.806s2.875 1.261 2.875 2.806Z" class="elektron"/>
    <path fill="url(#P)" stroke="#000" stroke-width=".5" d="M132.75 22.24c0 1.545-1.282 2.806-2.875 2.806S127 23.785 127 22.241c0-1.544 1.282-2.806 2.875-2.806s2.875 1.262 2.875 2.806Z" class="elektron"/>
    <path fill="url(#Q)" stroke="#000" stroke-width=".5" d="M39.75 24.24c0 1.545-1.282 2.806-2.875 2.806S34 25.785 34 24.241c0-1.544 1.282-2.806 2.875-2.806s2.875 1.262 2.875 2.806Z" class="elektron"/>
    <path fill="url(#R)" stroke="#000" stroke-width=".5" d="M162.75 77.24c0 1.545-1.282 2.806-2.875 2.806S157 78.785 157 77.241c0-1.544 1.282-2.806 2.875-2.806s2.875 1.261 2.875 2.806Z" class="elektron"/>
    <path fill="url(#S)" stroke="#000" stroke-width=".5" d="M47.75 142.241c0 1.544-1.282 2.805-2.875 2.805S42 143.785 42 142.241c0-1.544 1.282-2.806 2.875-2.806s2.875 1.262 2.875 2.806Z" class="elektron"/>
    <path fill="url(#T)" stroke="#000" stroke-width=".5" d="M145.75 125.241c0 1.544-1.282 2.805-2.875 2.805S140 126.785 140 125.241c0-1.544 1.282-2.806 2.875-2.806s2.875 1.262 2.875 2.806Z" class="elektron"/>
    <path fill="url(#U)" stroke="#000" stroke-width=".5" d="M21.75 77.24c0 1.545-1.282 2.806-2.875 2.806S16 78.785 16 77.241c0-1.544 1.282-2.806 2.875-2.806s2.875 1.261 2.875 2.806Z" class="elektron"/>
    <path fill="url(#V)" stroke="#000" stroke-width=".5" d="M24.75 61.24c0 1.545-1.282 2.806-2.875 2.806S19 62.785 19 61.241c0-1.544 1.282-2.806 2.875-2.806s2.875 1.261 2.875 2.806Z" class="elektron"/>
    <path fill="url(#W)" stroke="#000" stroke-width=".5" d="M31.75 48.24c0 1.545-1.282 2.806-2.875 2.806S26 49.785 26 48.241c0-1.544 1.282-2.806 2.875-2.806s2.875 1.261 2.875 2.806Z" class="elektron"/>
    <path fill="url(#X)" stroke="#000" stroke-width=".5" d="M112.75 131.241c0 1.544-1.282 2.805-2.875 2.805S107 132.785 107 131.241c0-1.544 1.282-2.806 2.875-2.806s2.875 1.262 2.875 2.806Z" class="elektron"/>
    <path fill="url(#Y)" stroke="#000" stroke-width=".5" d="M121.75 126.241c0 1.544-1.282 2.805-2.875 2.805S116 127.785 116 126.241c0-1.544 1.282-2.806 2.875-2.806s2.875 1.262 2.875 2.806Z" class="elektron"/>
    <path fill="url(#Z)" stroke="#000" stroke-width=".5" d="M136.75 111.241c0 1.544-1.282 2.805-2.875 2.805S131 112.785 131 111.241c0-1.544 1.282-2.806 2.875-2.806s2.875 1.262 2.875 2.806Z" class="elektron"/>
    <path fill="url(#aa)" stroke="#000" stroke-width=".5" d="M100.75 135.241c0 1.544-1.282 2.805-2.875 2.805S95 136.785 95 135.241c0-1.544 1.282-2.806 2.875-2.806s2.875 1.262 2.875 2.806Z" class="elektron"/>
    <path fill="url(#ab)" stroke="#000" stroke-width=".5" d="M62.75 130.241c0 1.544-1.282 2.805-2.875 2.805S57 131.785 57 130.241c0-1.544 1.282-2.806 2.875-2.806s2.875 1.262 2.875 2.806Z" class="elektron"/>
    <path fill="url(#ac)" stroke="#000" stroke-width=".5" d="M51.75 125.241c0 1.544-1.282 2.805-2.875 2.805S46 126.785 46 125.241c0-1.544 1.282-2.806 2.875-2.806s2.875 1.262 2.875 2.806Z" class="elektron"/>
    <path fill="url(#ad)" stroke="#000" stroke-width=".5" d="M30.75 79.24c0 1.545-1.282 2.806-2.875 2.806S25 80.785 25 79.241c0-1.544 1.282-2.806 2.875-2.806s2.875 1.261 2.875 2.806Z" class="elektron"/>
    <path fill="url(#ae)" stroke="#000" stroke-width=".5" d="M46.75 41.24c0 1.545-1.282 2.806-2.875 2.806S41 42.785 41 41.241c0-1.544 1.282-2.806 2.875-2.806s2.875 1.261 2.875 2.806Z" class="elektron"/>
    <path fill="url(#af)" stroke="#000" stroke-width=".5" d="M72.75 27.24c0 1.545-1.282 2.806-2.875 2.806S67 28.785 67 27.241c0-1.544 1.282-2.806 2.875-2.806s2.875 1.262 2.875 2.806Z" class="elektron"/>
    <path fill="url(#ag)" stroke="#000" stroke-width=".5" d="M58.75 33.24c0 1.545-1.282 2.806-2.875 2.806S53 34.785 53 33.241c0-1.544 1.282-2.806 2.875-2.806s2.875 1.262 2.875 2.806Z" class="elektron"/>
    <path fill="url(#ah)" stroke="#000" stroke-width=".5" d="M145.75 79.24c0 1.545-1.282 2.806-2.875 2.806S140 80.785 140 79.241c0-1.544 1.282-2.806 2.875-2.806s2.875 1.261 2.875 2.806Z" class="elektron"/>
    <path fill="url(#ai)" stroke="#000" stroke-width=".5" d="M141.75 103.241c0 1.544-1.282 2.805-2.875 2.805S136 104.785 136 103.241c0-1.544 1.282-2.806 2.875-2.806s2.875 1.262 2.875 2.806Z" class="elektron"/>
    <path fill="url(#aj)" stroke="#000" stroke-width=".5" d="M129.75 119.241c0 1.544-1.282 2.805-2.875 2.805S124 120.785 124 119.241c0-1.544 1.282-2.806 2.875-2.806s2.875 1.262 2.875 2.806Z" class="elektron"/>
    <path fill="url(#ak)" stroke="#000" stroke-width=".5" d="M74.75 136.241c0 1.544-1.282 2.805-2.875 2.805S69 137.785 69 136.241c0-1.544 1.282-2.806 2.875-2.806s2.875 1.262 2.875 2.806Z" class="elektron"/>
    <path fill="url(#al)" stroke="#000" stroke-width=".5" d="M134.75 47.24c0 1.545-1.282 2.806-2.875 2.806S129 48.785 129 47.241c0-1.544 1.282-2.806 2.875-2.806s2.875 1.261 2.875 2.806Z" class="elektron"/>
    <path fill="url(#am)" stroke="#000" stroke-width=".5" d="M144.75 92.24c0 1.545-1.282 2.806-2.875 2.806S139 93.785 139 92.241c0-1.544 1.282-2.806 2.875-2.806s2.875 1.261 2.875 2.806Z" class="elektron"/>
    <path fill="url(#an)" stroke="#000" stroke-width=".5" d="M44.75 118.241c0 1.544-1.282 2.805-2.875 2.805S39 119.785 39 118.241c0-1.544 1.282-2.806 2.875-2.806s2.875 1.262 2.875 2.806Z" class="elektron"/>
    <path fill="url(#ao)" stroke="#000" stroke-width=".5" d="M38.75 110.241c0 1.544-1.282 2.805-2.875 2.805S33 111.785 33 110.241c0-1.544 1.282-2.806 2.875-2.806s2.875 1.262 2.875 2.806Z" class="elektron"/>
    <path fill="url(#ap)" stroke="#000" stroke-width=".5" d="M31.75 90.24c0 1.545-1.282 2.806-2.875 2.806S26 91.785 26 90.241c0-1.544 1.282-2.806 2.875-2.806s2.875 1.261 2.875 2.806Z" class="elektron"/>
    <path fill="url(#aq)" stroke="#000" stroke-width=".5" d="M41.75 47.24c0 1.545-1.282 2.806-2.875 2.806S36 48.785 36 47.241c0-1.544 1.282-2.806 2.875-2.806s2.875 1.261 2.875 2.806Z" class="elektron"/>
    <path fill="url(#ar)" stroke="#000" stroke-width=".5" d="M34.75 102.241c0 1.544-1.282 2.805-2.875 2.805S29 103.785 29 102.241c0-1.544 1.282-2.806 2.875-2.806s2.875 1.262 2.875 2.806Z" class="elektron"/>
    <path fill="url(#as)" stroke="#000" stroke-width=".5" d="M35.75 55.24c0 1.545-1.282 2.806-2.875 2.806S30 56.785 30 55.241c0-1.544 1.282-2.806 2.875-2.806s2.875 1.261 2.875 2.806Z" class="elektron"/>
    <path fill="url(#at)" stroke="#000" stroke-width=".5" d="M31.75 66.24c0 1.545-1.282 2.806-2.875 2.806S26 67.785 26 66.241c0-1.544 1.282-2.806 2.875-2.806s2.875 1.261 2.875 2.806Z" class="elektron"/>
    <path fill="url(#au)" stroke="#000" stroke-width=".5" d="M87.75 127.241c0 1.544-1.282 2.805-2.875 2.805S82 128.785 82 127.241c0-1.544 1.282-2.806 2.875-2.806s2.875 1.262 2.875 2.806Z" class="elektron"/>
    <path fill="url(#av)" stroke="#000" stroke-width=".5" d="M39.75 72.24c0 1.545-1.282 2.806-2.875 2.806S34 73.785 34 72.241c0-1.544 1.282-2.806 2.875-2.806s2.875 1.261 2.875 2.806Z" class="elektron"/>
    <path fill="url(#aw)" stroke="#000" stroke-width=".5" d="M102.75 123.241c0 1.544-1.282 2.805-2.875 2.805S97 124.785 97 123.241c0-1.544 1.282-2.806 2.875-2.806s2.875 1.262 2.875 2.806Z" class="elektron"/>
    <path fill="url(#ax)" stroke="#000" stroke-width=".5" d="M38.75 89.24c0 1.545-1.282 2.806-2.875 2.806S33 90.785 33 89.241c0-1.544 1.282-2.806 2.875-2.806s2.875 1.261 2.875 2.806Z" class="elektron"/>
    <path fill="url(#ay)" stroke="#000" stroke-width=".5" d="M128.75 53.24c0 1.545-1.282 2.806-2.875 2.806S123 54.785 123 53.241c0-1.544 1.282-2.806 2.875-2.806s2.875 1.261 2.875 2.806Z" class="elektron"/>
    <path fill="url(#az)" stroke="#000" stroke-width=".5" d="M119.75 116.241c0 1.544-1.282 2.805-2.875 2.805S114 117.785 114 116.241c0-1.544 1.282-2.806 2.875-2.806s2.875 1.262 2.875 2.806Z" class="elektron"/>
    <path fill="url(#aA)" stroke="#000" stroke-width=".5" d="M113.75 99.24c0 1.545-1.282 2.806-2.875 2.806S108 100.785 108 99.241c0-1.544 1.282-2.806 2.875-2.806s2.875 1.261 2.875 2.806Z" class="elektron"/>
    <path fill="url(#aB)" stroke="#000" stroke-width=".5" d="M89.75 40.24c0 1.545-1.282 2.806-2.875 2.806S84 41.785 84 40.241c0-1.544 1.282-2.806 2.875-2.806s2.875 1.261 2.875 2.806Z" class="elektron"/>
    <path fill="url(#aC)" stroke="#000" stroke-width=".5" d="M88.75 119.241c0 1.544-1.282 2.805-2.875 2.805S83 120.785 83 119.241c0-1.544 1.282-2.806 2.875-2.806s2.875 1.262 2.875 2.806Z" class="elektron"/>
    <path fill="url(#aD)" stroke="#000" stroke-width=".5" d="M64.75 113.241c0 1.544-1.282 2.805-2.875 2.805S59 114.785 59 113.241c0-1.544 1.282-2.806 2.875-2.806s2.875 1.262 2.875 2.806Z" class="elektron"/>
    <path fill="url(#aE)" stroke="#000" stroke-width=".5" d="M112.75 110.241c0 1.544-1.282 2.805-2.875 2.805S107 111.785 107 110.241c0-1.544 1.282-2.806 2.875-2.806s2.875 1.262 2.875 2.806Z" class="elektron"/>
    <path fill="url(#aF)" stroke="#000" stroke-width=".5" d="M129.75 81.24c0 1.545-1.282 2.806-2.875 2.806S124 82.785 124 81.241c0-1.544 1.282-2.806 2.875-2.806s2.875 1.261 2.875 2.806Z" class="elektron"/>
    <path fill="url(#aG)" stroke="#000" stroke-width=".5" d="M44.75 57.24c0 1.545-1.282 2.806-2.875 2.806S39 58.785 39 57.241c0-1.544 1.282-2.806 2.875-2.806s2.875 1.261 2.875 2.806Z" class="elektron"/>
    <path fill="url(#aH)" stroke="#000" stroke-width=".5" d="M56.75 42.24c0 1.545-1.282 2.806-2.875 2.806S51 43.785 51 42.241c0-1.544 1.282-2.806 2.875-2.806s2.875 1.261 2.875 2.806Z" class="elektron"/>
  </g>
  <defs>
    <radialGradient id="a" cx="0" cy="0" r="1" class="a" gradientTransform="matrix(0 2.64815 -2.70833 0 82.708 80.463)" gradientUnits="userSpaceOnUse">
      <stop stop-color="#F80A0A"/>
      <stop offset="1" stop-color="#690404"/>
    </radialGradient>
    <radialGradient id="b" cx="0" cy="0" r="1" class="b" gradientTransform="matrix(0 3.05556 -3.125 0 61.875 46.24)" gradientUnits="userSpaceOnUse">
      <stop stop-color="#00C2FF"/>
      <stop offset="1" stop-color="#0051A3"/>
    </radialGradient>
    <radialGradient id="c" cx="0" cy="0" r="1" class="c" gradientTransform="matrix(0 3.05556 -3.125 0 43.875 83.24)" gradientUnits="userSpaceOnUse">
      <stop stop-color="#00C2FF"/>
      <stop offset="1" stop-color="#0051A3"/>
    </radialGradient>
    <radialGradient id="d" cx="0" cy="0" r="1" class="d" gradientTransform="matrix(0 3.05556 -3.125 0 109.875 46.24)" gradientUnits="userSpaceOnUse">
      <stop stop-color="#00C2FF"/>
      <stop offset="1" stop-color="#0051A3"/>
    </radialGradient>
    <radialGradient id="e" cx="0" cy="0" r="1" class="e" gradientTransform="matrix(0 3.05556 -3.125 0 74.875 48.24)" gradientUnits="userSpaceOnUse">
      <stop stop-color="#00C2FF"/>
      <stop offset="1" stop-color="#0051A3"/>
    </radialGradient>
    <radialGradient id="f" cx="0" cy="0" r="1" class="f" gradientTransform="matrix(0 3.05556 -3.125 0 41.875 103.241)" gradientUnits="userSpaceOnUse">
      <stop stop-color="#00C2FF"/>
      <stop offset="1" stop-color="#0051A3"/>
    </radialGradient>
    <radialGradient id="g" cx="0" cy="0" r="1" class="g" gradientTransform="matrix(0 3.05556 -3.125 0 101.875 33.24)" gradientUnits="userSpaceOnUse">
      <stop stop-color="#00C2FF"/>
      <stop offset="1" stop-color="#0051A3"/>
    </radialGradient>
    <radialGradient id="h" cx="0" cy="0" r="1" class="h" gradientTransform="matrix(0 3.05556 -3.125 0 130.875 61.24)" gradientUnits="userSpaceOnUse">
      <stop stop-color="#00C2FF"/>
      <stop offset="1" stop-color="#0051A3"/>
    </radialGradient>
    <radialGradient id="i" cx="0" cy="0" r="1" class="i" gradientTransform="matrix(0 3.05556 -3.125 0 135.875 80.24)" gradientUnits="userSpaceOnUse">
      <stop stop-color="#00C2FF"/>
      <stop offset="1" stop-color="#0051A3"/>
    </radialGradient>
    <radialGradient id="j" cx="0" cy="0" r="1" class="j" gradientTransform="matrix(0 3.05556 -3.125 0 86.875 31.24)" gradientUnits="userSpaceOnUse">
      <stop stop-color="#00C2FF"/>
      <stop offset="1" stop-color="#0051A3"/>
    </radialGradient>
    <radialGradient id="k" cx="0" cy="0" r="1" class="k" gradientTransform="matrix(0 3.05556 -3.125 0 119.875 45.24)" gradientUnits="userSpaceOnUse">
      <stop stop-color="#00C2FF"/>
      <stop offset="1" stop-color="#0051A3"/>
    </radialGradient>
    <radialGradient id="l" cx="0" cy="0" r="1" class="l" gradientTransform="matrix(0 3.05556 -3.125 0 69.875 125.241)" gradientUnits="userSpaceOnUse">
      <stop stop-color="#00C2FF"/>
      <stop offset="1" stop-color="#0051A3"/>
    </radialGradient>
    <radialGradient id="m" cx="0" cy="0" r="1" class="m" gradientTransform="matrix(0 3.05556 -3.125 0 51.875 117.241)" gradientUnits="userSpaceOnUse">
      <stop stop-color="#00C2FF"/>
      <stop offset="1" stop-color="#0051A3"/>
    </radialGradient>
    <radialGradient id="n" cx="0" cy="0" r="1" class="n" gradientTransform="matrix(0 3.05556 -3.125 0 128.875 101.241)" gradientUnits="userSpaceOnUse">
      <stop stop-color="#00C2FF"/>
      <stop offset="1" stop-color="#0051A3"/>
    </radialGradient>
    <radialGradient id="o" cx="0" cy="0" r="1" class="o" gradientTransform="matrix(0 3.05556 -3.125 0 70.875 33.24)" gradientUnits="userSpaceOnUse">
      <stop stop-color="#00C2FF"/>
      <stop offset="1" stop-color="#0051A3"/>
    </radialGradient>
    <radialGradient id="p" cx="0" cy="0" r="1" class="p" gradientTransform="matrix(0 3.05556 -3.125 0 86.875 23.24)" gradientUnits="userSpaceOnUse">
      <stop stop-color="#00C2FF"/>
      <stop offset="1" stop-color="#0051A3"/>
    </radialGradient>
    <radialGradient id="q" cx="0" cy="0" r="1" class="q" gradientTransform="matrix(0 3.05556 -3.125 0 109.875 29.24)" gradientUnits="userSpaceOnUse">
      <stop stop-color="#00C2FF"/>
      <stop offset="1" stop-color="#0051A3"/>
    </radialGradient>
    <radialGradient id="r" cx="0" cy="0" r="1" class="r" gradientTransform="matrix(0 3.05556 -3.125 0 97.875 25.24)" gradientUnits="userSpaceOnUse">
      <stop stop-color="#00C2FF"/>
      <stop offset="1" stop-color="#0051A3"/>
    </radialGradient>
    <radialGradient id="s" cx="0" cy="0" r="1" class="s" gradientTransform="matrix(0 3.05556 -3.125 0 123.875 37.24)" gradientUnits="userSpaceOnUse">
      <stop stop-color="#00C2FF"/>
      <stop offset="1" stop-color="#0051A3"/>
    </radialGradient>
    <radialGradient id="t" cx="0" cy="0" r="1" class="t" gradientTransform="matrix(0 3.05556 -3.125 0 138.875 57.24)" gradientUnits="userSpaceOnUse">
      <stop stop-color="#00C2FF"/>
      <stop offset="1" stop-color="#0051A3"/>
    </radialGradient>
    <radialGradient id="u" cx="0" cy="0" r="1" class="u" gradientTransform="matrix(0 3.05556 -3.125 0 141.875 69.24)" gradientUnits="userSpaceOnUse">
      <stop stop-color="#00C2FF"/>
      <stop offset="1" stop-color="#0051A3"/>
    </radialGradient>
    <radialGradient id="v" cx="0" cy="0" r="1" class="v" gradientTransform="matrix(0 3.05556 -3.125 0 86.875 136.241)" gradientUnits="userSpaceOnUse">
      <stop stop-color="#00C2FF"/>
      <stop offset="1" stop-color="#0051A3"/>
    </radialGradient>
    <radialGradient id="w" cx="0" cy="0" r="1" class="w" gradientTransform="matrix(0 3.05556 -3.125 0 85.875 145.241)" gradientUnits="userSpaceOnUse">
      <stop stop-color="#00C2FF"/>
      <stop offset="1" stop-color="#0051A3"/>
    </radialGradient>
    <radialGradient id="x" cx="0" cy="0" r="1" class="x" gradientTransform="matrix(0 3.05556 -3.125 0 61.875 141.241)" gradientUnits="userSpaceOnUse">
      <stop stop-color="#00C2FF"/>
      <stop offset="1" stop-color="#0051A3"/>
    </radialGradient>
    <radialGradient id="y" cx="0" cy="0" r="1" class="y" gradientTransform="matrix(0 3.05556 -3.125 0 28.875 114.241)" gradientUnits="userSpaceOnUse">
      <stop stop-color="#00C2FF"/>
      <stop offset="1" stop-color="#0051A3"/>
    </radialGradient>
    <radialGradient id="z" cx="0" cy="0" r="1" class="z" gradientTransform="matrix(0 3.05556 -3.125 0 21.875 96.24)" gradientUnits="userSpaceOnUse">
      <stop stop-color="#00C2FF"/>
      <stop offset="1" stop-color="#0051A3"/>
    </radialGradient>
    <radialGradient id="A" cx="0" cy="0" r="1" class="A" gradientTransform="matrix(0 3.05556 -3.125 0 111.875 138.241)" gradientUnits="userSpaceOnUse">
      <stop stop-color="#00C2FF"/>
      <stop offset="1" stop-color="#0051A3"/>
    </radialGradient>
    <radialGradient id="B" cx="0" cy="0" r="1" class="B" gradientTransform="matrix(0 3.05556 -3.125 0 146.875 103.241)" gradientUnits="userSpaceOnUse">
      <stop stop-color="#00C2FF"/>
      <stop offset="1" stop-color="#0051A3"/>
    </radialGradient>
    <radialGradient id="C" cx="0" cy="0" r="1" class="C" gradientTransform="matrix(0 3.05556 -3.125 0 51.875 136.241)" gradientUnits="userSpaceOnUse">
      <stop stop-color="#00C2FF"/>
      <stop offset="1" stop-color="#0051A3"/>
    </radialGradient>
    <radialGradient id="D" cx="0" cy="0" r="1" class="D" gradientTransform="matrix(0 3.05556 -3.125 0 150.875 78.24)" gradientUnits="userSpaceOnUse">
      <stop stop-color="#00C2FF"/>
      <stop offset="1" stop-color="#0051A3"/>
    </radialGradient>
    <radialGradient id="E" cx="0" cy="0" r="1" class="E" gradientTransform="matrix(0 3.05556 -3.125 0 142.875 51.24)" gradientUnits="userSpaceOnUse">
      <stop stop-color="#00C2FF"/>
      <stop offset="1" stop-color="#0051A3"/>
    </radialGradient>
    <radialGradient id="F" cx="0" cy="0" r="1" class="F" gradientTransform="matrix(0 3.05556 -3.125 0 134.875 123.241)" gradientUnits="userSpaceOnUse">
      <stop stop-color="#00C2FF"/>
      <stop offset="1" stop-color="#0051A3"/>
    </radialGradient>
    <radialGradient id="G" cx="0" cy="0" r="1" class="G" gradientTransform="matrix(0 3.05556 -3.125 0 40.875 128.241)" gradientUnits="userSpaceOnUse">
      <stop stop-color="#00C2FF"/>
      <stop offset="1" stop-color="#0051A3"/>
    </radialGradient>
    <radialGradient id="H" cx="0" cy="0" r="1" class="H" gradientTransform="matrix(0 3.05556 -3.125 0 42.875 31.24)" gradientUnits="userSpaceOnUse">
      <stop stop-color="#00C2FF"/>
      <stop offset="1" stop-color="#0051A3"/>
    </radialGradient>
    <radialGradient id="I" cx="0" cy="0" r="1" class="I" gradientTransform="matrix(0 3.05556 -3.125 0 56.875 22.24)" gradientUnits="userSpaceOnUse">
      <stop stop-color="#00C2FF"/>
      <stop offset="1" stop-color="#0051A3"/>
    </radialGradient>
    <radialGradient id="J" cx="0" cy="0" r="1" class="J" gradientTransform="matrix(0 3.05556 -3.125 0 124.875 28.24)" gradientUnits="userSpaceOnUse">
      <stop stop-color="#00C2FF"/>
      <stop offset="1" stop-color="#0051A3"/>
    </radialGradient>
    <radialGradient id="K" cx="0" cy="0" r="1" class="K" gradientTransform="matrix(0 3.05556 -3.125 0 84.875 15.24)" gradientUnits="userSpaceOnUse">
      <stop stop-color="#00C2FF"/>
      <stop offset="1" stop-color="#0051A3"/>
    </radialGradient>
    <radialGradient id="L" cx="0" cy="0" r="1" class="L" gradientTransform="matrix(0 3.05556 -3.125 0 84.875 7.24)" gradientUnits="userSpaceOnUse">
      <stop stop-color="#00C2FF"/>
      <stop offset="1" stop-color="#0051A3"/>
    </radialGradient>
    <radialGradient id="M" cx="0" cy="0" r="1" class="M" gradientTransform="matrix(0 3.05556 -3.125 0 86.875 154.241)" gradientUnits="userSpaceOnUse">
      <stop stop-color="#00C2FF"/>
      <stop offset="1" stop-color="#0051A3"/>
    </radialGradient>
    <radialGradient id="N" cx="0" cy="0" r="1" class="N" gradientTransform="matrix(0 3.05556 -3.125 0 86.875 162.241)" gradientUnits="userSpaceOnUse">
      <stop stop-color="#00C2FF"/>
      <stop offset="1" stop-color="#0051A3"/>
    </radialGradient>
    <radialGradient id="O" cx="0" cy="0" r="1" class="O" gradientTransform="matrix(0 3.05556 -3.125 0 8.875 76.24)" gradientUnits="userSpaceOnUse">
      <stop stop-color="#00C2FF"/>
      <stop offset="1" stop-color="#0051A3"/>
    </radialGradient>
    <radialGradient id="P" cx="0" cy="0" r="1" class="P" gradientTransform="matrix(0 3.05556 -3.125 0 129.875 22.24)" gradientUnits="userSpaceOnUse">
      <stop stop-color="#00C2FF"/>
      <stop offset="1" stop-color="#0051A3"/>
    </radialGradient>
    <radialGradient id="Q" cx="0" cy="0" r="1" class="Q" gradientTransform="matrix(0 3.05556 -3.125 0 36.875 24.24)" gradientUnits="userSpaceOnUse">
      <stop stop-color="#00C2FF"/>
      <stop offset="1" stop-color="#0051A3"/>
    </radialGradient>
    <radialGradient id="R" cx="0" cy="0" r="1" class="R" gradientTransform="matrix(0 3.05556 -3.125 0 159.875 77.24)" gradientUnits="userSpaceOnUse">
      <stop stop-color="#00C2FF"/>
      <stop offset="1" stop-color="#0051A3"/>
    </radialGradient>
    <radialGradient id="S" cx="0" cy="0" r="1" class="S" gradientTransform="matrix(0 3.05556 -3.125 0 44.875 142.241)" gradientUnits="userSpaceOnUse">
      <stop stop-color="#00C2FF"/>
      <stop offset="1" stop-color="#0051A3"/>
    </radialGradient>
    <radialGradient id="T" cx="0" cy="0" r="1" class="T" gradientTransform="matrix(0 3.05556 -3.125 0 142.875 125.241)" gradientUnits="userSpaceOnUse">
      <stop stop-color="#00C2FF"/>
      <stop offset="1" stop-color="#0051A3"/>
    </radialGradient>
    <radialGradient id="U" cx="0" cy="0" r="1" class="U" gradientTransform="matrix(0 3.05556 -3.125 0 18.875 77.24)" gradientUnits="userSpaceOnUse">
      <stop stop-color="#00C2FF"/>
      <stop offset="1" stop-color="#0051A3"/>
    </radialGradient>
    <radialGradient id="V" cx="0" cy="0" r="1" class="V" gradientTransform="matrix(0 3.05556 -3.125 0 21.875 61.24)" gradientUnits="userSpaceOnUse">
      <stop stop-color="#00C2FF"/>
      <stop offset="1" stop-color="#0051A3"/>
    </radialGradient>
    <radialGradient id="W" cx="0" cy="0" r="1" class="W" gradientTransform="matrix(0 3.05556 -3.125 0 28.875 48.24)" gradientUnits="userSpaceOnUse">
      <stop stop-color="#00C2FF"/>
      <stop offset="1" stop-color="#0051A3"/>
    </radialGradient>
    <radialGradient id="X" cx="0" cy="0" r="1" class="X" gradientTransform="matrix(0 3.05556 -3.125 0 109.875 131.241)" gradientUnits="userSpaceOnUse">
      <stop stop-color="#00C2FF"/>
      <stop offset="1" stop-color="#0051A3"/>
    </radialGradient>
    <radialGradient id="Y" cx="0" cy="0" r="1" class="Y" gradientTransform="matrix(0 3.05556 -3.125 0 118.875 126.241)" gradientUnits="userSpaceOnUse">
      <stop stop-color="#00C2FF"/>
      <stop offset="1" stop-color="#0051A3"/>
    </radialGradient>
    <radialGradient id="Z" cx="0" cy="0" r="1" class="Z" gradientTransform="matrix(0 3.05556 -3.125 0 133.875 111.241)" gradientUnits="userSpaceOnUse">
      <stop stop-color="#00C2FF"/>
      <stop offset="1" stop-color="#0051A3"/>
    </radialGradient>
    <radialGradient id="aa" cx="0" cy="0" r="1" class="aa" gradientTransform="matrix(0 3.05556 -3.125 0 97.875 135.241)" gradientUnits="userSpaceOnUse">
      <stop stop-color="#00C2FF"/>
      <stop offset="1" stop-color="#0051A3"/>
    </radialGradient>
    <radialGradient id="ab" cx="0" cy="0" r="1" class="ab" gradientTransform="matrix(0 3.05556 -3.125 0 59.875 130.241)" gradientUnits="userSpaceOnUse">
      <stop stop-color="#00C2FF"/>
      <stop offset="1" stop-color="#0051A3"/>
    </radialGradient>
    <radialGradient id="ac" cx="0" cy="0" r="1" class="ac" gradientTransform="matrix(0 3.05556 -3.125 0 48.875 125.241)" gradientUnits="userSpaceOnUse">
      <stop stop-color="#00C2FF"/>
      <stop offset="1" stop-color="#0051A3"/>
    </radialGradient>
    <radialGradient id="ad" cx="0" cy="0" r="1" class="ad" gradientTransform="matrix(0 3.05556 -3.125 0 27.875 79.24)" gradientUnits="userSpaceOnUse">
      <stop stop-color="#00C2FF"/>
      <stop offset="1" stop-color="#0051A3"/>
    </radialGradient>
    <radialGradient id="ae" cx="0" cy="0" r="1" class="ae" gradientTransform="matrix(0 3.05556 -3.125 0 43.875 41.24)" gradientUnits="userSpaceOnUse">
      <stop stop-color="#00C2FF"/>
      <stop offset="1" stop-color="#0051A3"/>
    </radialGradient>
    <radialGradient id="af" cx="0" cy="0" r="1" class="af" gradientTransform="matrix(0 3.05556 -3.125 0 69.875 27.24)" gradientUnits="userSpaceOnUse">
      <stop stop-color="#00C2FF"/>
      <stop offset="1" stop-color="#0051A3"/>
    </radialGradient>
    <radialGradient id="ag" cx="0" cy="0" r="1" class="ag" gradientTransform="matrix(0 3.05556 -3.125 0 55.875 33.24)" gradientUnits="userSpaceOnUse">
      <stop stop-color="#00C2FF"/>
      <stop offset="1" stop-color="#0051A3"/>
    </radialGradient>
    <radialGradient id="ah" cx="0" cy="0" r="1" class="ah" gradientTransform="matrix(0 3.05556 -3.125 0 142.875 79.24)" gradientUnits="userSpaceOnUse">
      <stop stop-color="#00C2FF"/>
      <stop offset="1" stop-color="#0051A3"/>
    </radialGradient>
    <radialGradient id="ai" cx="0" cy="0" r="1" class="ai" gradientTransform="matrix(0 3.05556 -3.125 0 138.875 103.241)" gradientUnits="userSpaceOnUse">
      <stop stop-color="#00C2FF"/>
      <stop offset="1" stop-color="#0051A3"/>
    </radialGradient>
    <radialGradient id="aj" cx="0" cy="0" r="1" class="aj" gradientTransform="matrix(0 3.05556 -3.125 0 126.875 119.241)" gradientUnits="userSpaceOnUse">
      <stop stop-color="#00C2FF"/>
      <stop offset="1" stop-color="#0051A3"/>
    </radialGradient>
    <radialGradient id="ak" cx="0" cy="0" r="1" class="ak" gradientTransform="matrix(0 3.05556 -3.125 0 71.875 136.241)" gradientUnits="userSpaceOnUse">
      <stop stop-color="#00C2FF"/>
      <stop offset="1" stop-color="#0051A3"/>
    </radialGradient>
    <radialGradient id="al" cx="0" cy="0" r="1" class="al" gradientTransform="matrix(0 3.05556 -3.125 0 131.875 47.24)" gradientUnits="userSpaceOnUse">
      <stop stop-color="#00C2FF"/>
      <stop offset="1" stop-color="#0051A3"/>
    </radialGradient>
    <radialGradient id="am" cx="0" cy="0" r="1" class="am" gradientTransform="matrix(0 3.05556 -3.125 0 141.875 92.24)" gradientUnits="userSpaceOnUse">
      <stop stop-color="#00C2FF"/>
      <stop offset="1" stop-color="#0051A3"/>
    </radialGradient>
    <radialGradient id="an" cx="0" cy="0" r="1" class="an" gradientTransform="matrix(0 3.05556 -3.125 0 41.875 118.241)" gradientUnits="userSpaceOnUse">
      <stop stop-color="#00C2FF"/>
      <stop offset="1" stop-color="#0051A3"/>
    </radialGradient>
    <radialGradient id="ao" cx="0" cy="0" r="1" class="ao" gradientTransform="matrix(0 3.05556 -3.125 0 35.875 110.241)" gradientUnits="userSpaceOnUse">
      <stop stop-color="#00C2FF"/>
      <stop offset="1" stop-color="#0051A3"/>
    </radialGradient>
    <radialGradient id="ap" cx="0" cy="0" r="1" class="ap" gradientTransform="matrix(0 3.05556 -3.125 0 28.875 90.24)" gradientUnits="userSpaceOnUse">
      <stop stop-color="#00C2FF"/>
      <stop offset="1" stop-color="#0051A3"/>
    </radialGradient>
    <radialGradient id="aq" cx="0" cy="0" r="1" class="aq" gradientTransform="matrix(0 3.05556 -3.125 0 38.875 47.24)" gradientUnits="userSpaceOnUse">
      <stop stop-color="#00C2FF"/>
      <stop offset="1" stop-color="#0051A3"/>
    </radialGradient>
    <radialGradient id="ar" cx="0" cy="0" r="1" class="ar" gradientTransform="matrix(0 3.05556 -3.125 0 31.875 102.241)" gradientUnits="userSpaceOnUse">
      <stop stop-color="#00C2FF"/>
      <stop offset="1" stop-color="#0051A3"/>
    </radialGradient>
    <radialGradient id="as" cx="0" cy="0" r="1" class="as" gradientTransform="matrix(0 3.05556 -3.125 0 32.875 55.24)" gradientUnits="userSpaceOnUse">
      <stop stop-color="#00C2FF"/>
      <stop offset="1" stop-color="#0051A3"/>
    </radialGradient>
    <radialGradient id="at" cx="0" cy="0" r="1" class="at" gradientTransform="matrix(0 3.05556 -3.125 0 28.875 66.24)" gradientUnits="userSpaceOnUse">
      <stop stop-color="#00C2FF"/>
      <stop offset="1" stop-color="#0051A3"/>
    </radialGradient>
    <radialGradient id="au" cx="0" cy="0" r="1" class="au" gradientTransform="matrix(0 3.05556 -3.125 0 84.875 127.241)" gradientUnits="userSpaceOnUse">
      <stop stop-color="#00C2FF"/>
      <stop offset="1" stop-color="#0051A3"/>
    </radialGradient>
    <radialGradient id="av" cx="0" cy="0" r="1" class="av" gradientTransform="matrix(0 3.05556 -3.125 0 36.875 72.24)" gradientUnits="userSpaceOnUse">
      <stop stop-color="#00C2FF"/>
      <stop offset="1" stop-color="#0051A3"/>
    </radialGradient>
    <radialGradient id="aw" cx="0" cy="0" r="1" class="aw" gradientTransform="matrix(0 3.05556 -3.125 0 99.875 123.241)" gradientUnits="userSpaceOnUse">
      <stop stop-color="#00C2FF"/>
      <stop offset="1" stop-color="#0051A3"/>
    </radialGradient>
    <radialGradient id="ax" cx="0" cy="0" r="1" class="ax" gradientTransform="matrix(0 3.05556 -3.125 0 35.875 89.24)" gradientUnits="userSpaceOnUse">
      <stop stop-color="#00C2FF"/>
      <stop offset="1" stop-color="#0051A3"/>
    </radialGradient>
    <radialGradient id="ay" cx="0" cy="0" r="1" class="ay" gradientTransform="matrix(0 3.05556 -3.125 0 125.875 53.24)" gradientUnits="userSpaceOnUse">
      <stop stop-color="#00C2FF"/>
      <stop offset="1" stop-color="#0051A3"/>
    </radialGradient>
    <radialGradient id="az" cx="0" cy="0" r="1" class="az" gradientTransform="matrix(0 3.05556 -3.125 0 116.875 116.241)" gradientUnits="userSpaceOnUse">
      <stop stop-color="#00C2FF"/>
      <stop offset="1" stop-color="#0051A3"/>
    </radialGradient>
    <radialGradient id="aA" cx="0" cy="0" r="1" class="aA" gradientTransform="matrix(0 3.05556 -3.125 0 110.875 99.24)" gradientUnits="userSpaceOnUse">
      <stop stop-color="#00C2FF"/>
      <stop offset="1" stop-color="#0051A3"/>
    </radialGradient>
    <radialGradient id="aB" cx="0" cy="0" r="1" class="aB" gradientTransform="matrix(0 3.05556 -3.125 0 86.875 40.24)" gradientUnits="userSpaceOnUse">
      <stop stop-color="#00C2FF"/>
      <stop offset="1" stop-color="#0051A3"/>
    </radialGradient>
    <radialGradient id="aC" cx="0" cy="0" r="1" class="aC" gradientTransform="matrix(0 3.05556 -3.125 0 85.875 119.241)" gradientUnits="userSpaceOnUse">
      <stop stop-color="#00C2FF"/>
      <stop offset="1" stop-color="#0051A3"/>
    </radialGradient>
    <radialGradient id="aD" cx="0" cy="0" r="1" class="aD" gradientTransform="matrix(0 3.05556 -3.125 0 61.875 113.241)" gradientUnits="userSpaceOnUse">
      <stop stop-color="#00C2FF"/>
      <stop offset="1" stop-color="#0051A3"/>
    </radialGradient>
    <radialGradient id="aE" cx="0" cy="0" r="1" class="aE" gradientTransform="scale(3.125 3.05556) rotate(90 -.46 35.62)" gradientUnits="userSpaceOnUse">
      <stop stop-color="#00C2FF"/>
      <stop offset="1" stop-color="#0051A3"/>
    </radialGradient>
    <radialGradient id="aF" cx="0" cy="0" r="1" class="aF" gradientTransform="matrix(0 3.05556 -3.125 0 126.875 81.24)" gradientUnits="userSpaceOnUse">
      <stop stop-color="#00C2FF"/>
      <stop offset="1" stop-color="#0051A3"/>
    </radialGradient>
    <radialGradient id="aG" cx="0" cy="0" r="1" class="aG" gradientTransform="matrix(0 3.05556 -3.125 0 41.875 57.24)" gradientUnits="userSpaceOnUse">
      <stop stop-color="#00C2FF"/>
      <stop offset="1" stop-color="#0051A3"/>
    </radialGradient>
    <radialGradient id="aH" cx="0" cy="0" r="1" class="aH" gradientTransform="matrix(0 3.05556 -3.125 0 53.875 42.24)" gradientUnits="userSpaceOnUse">
      <stop stop-color="#00C2FF"/>
      <stop offset="1" stop-color="#0051A3"/>
    </radialGradient>
  </defs>
</svg>
