<?xml-stylesheet type="text/css" href="../style.css"?><svg xmlns="http://www.w3.org/2000/svg" width="166" height="167" fill="none" viewBox="0 0 166 167">
  <g class="ga">
    <path fill="#D9D9D9" fill-opacity=".1" stroke="#000" d="M124.993 83.782c0 23.968-20.05 43.425-44.817 43.425S35.359 107.75 35.359 83.782c0-23.969 20.05-43.425 44.817-43.425s44.817 19.456 44.817 43.425Z" class="powloka"/>
    <path fill="#D9D9D9" fill-opacity=".1" stroke="#000" d="M136.613 83.781c0 30.189-25.253 54.688-56.437 54.688-31.184 0-56.437-24.499-56.437-54.688 0-30.188 25.253-54.687 56.437-54.687 31.184 0 56.437 24.499 56.437 54.687Z" class="powloka"/>
    <path fill="#D9D9D9" fill-opacity=".1" stroke="#000" d="M148.232 83.782c0 36.408-30.455 65.95-68.056 65.95S12.12 120.19 12.12 83.782c0-36.41 30.455-65.95 68.056-65.95s68.056 29.54 68.056 65.95Z" class="powloka"/>
    <path fill="#D9D9D9" fill-opacity=".1" stroke="#000" d="M159.852 83.781c0 42.63-35.657 77.214-79.676 77.214C36.157 160.995.5 126.411.5 83.781.5 41.152 36.157 6.568 80.176 6.568c44.019 0 79.676 34.584 79.676 77.213Z" class="powloka"/>
    <path fill="url(#a)" stroke="#000" stroke-width=".5" d="M79.885 87.41c2.217 0 4.027-1.743 4.027-3.91s-1.81-3.91-4.027-3.91c-2.216 0-4.026 1.743-4.026 3.91s1.81 3.91 4.026 3.91Z" class="Ellipse 2"/>
    <path fill="url(#b)" stroke="#000" stroke-width=".5" d="M51.76 37.13c0 2.206-1.883 4.017-4.233 4.017-2.35 0-4.233-1.81-4.233-4.018 0-2.207 1.883-4.017 4.233-4.017 2.35 0 4.234 1.81 4.234 4.017Z" class="elektron"/>
    <path fill="url(#c)" stroke="#000" stroke-width=".5" d="M28.76 83.13c0 2.207-1.883 4.017-4.233 4.017-2.35 0-4.233-1.81-4.233-4.018 0-2.207 1.883-4.017 4.233-4.017 2.35 0 4.234 1.81 4.234 4.017Z" class="elektron"/>
    <path fill="url(#d)" stroke="#000" stroke-width=".5" d="M117.761 37.13c0 2.206-1.884 4.017-4.234 4.017s-4.234-1.81-4.234-4.018c0-2.207 1.884-4.017 4.234-4.017s4.234 1.81 4.234 4.017Z" class="elektron"/>
    <path fill="url(#e)" stroke="#000" stroke-width=".5" d="M69.76 40.13c0 2.206-1.883 4.017-4.233 4.017-2.35 0-4.233-1.81-4.233-4.018 0-2.207 1.883-4.017 4.233-4.017 2.35 0 4.234 1.81 4.234 4.017Z" class="elektron"/>
    <path fill="url(#f)" stroke="#000" stroke-width=".5" d="M23.76 116.129c0 2.207-1.883 4.018-4.233 4.018-2.35 0-4.234-1.811-4.234-4.018s1.884-4.017 4.234-4.017 4.234 1.81 4.234 4.017Z" class="elektron"/>
    <path fill="url(#g)" stroke="#000" stroke-width=".5" d="M107.761 19.13c0 2.207-1.884 4.017-4.234 4.017s-4.234-1.81-4.234-4.018c0-2.207 1.884-4.017 4.234-4.017s4.234 1.81 4.234 4.017Z" class="elektron"/>
    <path fill="url(#h)" stroke="#000" stroke-width=".5" d="M147.761 58.13c0 2.206-1.884 4.017-4.234 4.017s-4.234-1.81-4.234-4.018c0-2.207 1.884-4.017 4.234-4.017s4.234 1.81 4.234 4.017Z" class="elektron"/>
    <path fill="url(#i)" stroke="#000" stroke-width=".5" d="M154.761 83.13c0 2.207-1.884 4.017-4.234 4.017s-4.234-1.81-4.234-4.018c0-2.207 1.884-4.017 4.234-4.017s4.234 1.81 4.234 4.017Z" class="elektron"/>
    <path fill="url(#j)" stroke="#000" stroke-width=".5" d="M85.76 16.13c0 2.207-1.883 4.017-4.233 4.017-2.35 0-4.234-1.81-4.234-4.018 0-2.207 1.884-4.017 4.234-4.017s4.234 1.81 4.234 4.017Z" class="elektron"/>
    <path fill="url(#k)" stroke="#000" stroke-width=".5" d="M132.761 36.13c0 2.206-1.884 4.017-4.234 4.017s-4.234-1.81-4.234-4.018c0-2.207 1.884-4.017 4.234-4.017s4.234 1.81 4.234 4.017Z" class="elektron"/>
    <path fill="url(#l)" stroke="#000" stroke-width=".5" d="M61.76 145.129c0 2.207-1.883 4.018-4.233 4.018-2.35 0-4.233-1.811-4.233-4.018s1.883-4.017 4.233-4.017c2.35 0 4.234 1.81 4.234 4.017Z" class="elektron"/>
    <path fill="url(#m)" stroke="#000" stroke-width=".5" d="M37.76 135.129c0 2.207-1.883 4.018-4.233 4.018-2.35 0-4.233-1.811-4.233-4.018s1.883-4.017 4.233-4.017c2.35 0 4.234 1.81 4.234 4.017Z" class="elektron"/>
    <path fill="url(#n)" stroke="#000" stroke-width=".5" d="M144.761 112.129c0 2.207-1.884 4.018-4.234 4.018s-4.234-1.811-4.234-4.018 1.884-4.017 4.234-4.017 4.234 1.81 4.234 4.017Z" class="elektron"/>
    <path fill="url(#o)" stroke="#000" stroke-width=".5" d="M63.76 19.13c0 2.207-1.883 4.017-4.233 4.017-2.35 0-4.233-1.81-4.233-4.018 0-2.207 1.883-4.017 4.233-4.017 2.35 0 4.234 1.81 4.234 4.017Z" class="elektron"/>
    <path fill="url(#p)" stroke="#000" stroke-width=".5" d="M85.76 5.13c0 2.206-1.883 4.017-4.233 4.017-2.35 0-4.234-1.81-4.234-4.018 0-2.207 1.884-4.017 4.234-4.017s4.234 1.81 4.234 4.017Z" class="elektron"/>
    <path fill="url(#q)" stroke="#000" stroke-width=".5" d="M85.76 162.129c0 2.207-1.883 4.018-4.233 4.018-2.35 0-4.234-1.811-4.234-4.018s1.884-4.017 4.234-4.017 4.234 1.81 4.234 4.017Z" class="elektron"/>
    <path fill="url(#r)" stroke="#000" stroke-width=".5" d="M164.761 83.13c0 2.207-1.884 4.017-4.234 4.017s-4.234-1.81-4.234-4.018c0-2.207 1.884-4.017 4.234-4.017s4.234 1.81 4.234 4.017Z" class="elektron"/>
    <path fill="url(#s)" stroke="#000" stroke-width=".5" d="M83.76 149.129c0 2.207-1.883 4.018-4.233 4.018-2.35 0-4.234-1.811-4.234-4.018s1.884-4.017 4.234-4.017 4.234 1.81 4.234 4.017Z" class="elektron"/>
    <path fill="url(#t)" stroke="#000" stroke-width=".5" d="M16.76 73.13c0 2.207-1.883 4.017-4.233 4.017-2.35 0-4.234-1.81-4.234-4.018 0-2.207 1.884-4.017 4.234-4.017s4.234 1.81 4.234 4.017Z" class="elektron"/>
    <path fill="url(#u)" stroke="#000" stroke-width=".5" d="M104.761 144.129c0 2.207-1.884 4.018-4.234 4.018s-4.234-1.811-4.234-4.018 1.884-4.017 4.234-4.017 4.234 1.81 4.234 4.017Z" class="elektron"/>
    <path fill="url(#v)" stroke="#000" stroke-width=".5" d="M14.76 96.13c0 2.207-1.883 4.017-4.233 4.017-2.35 0-4.234-1.81-4.234-4.018 0-2.207 1.884-4.017 4.234-4.017s4.234 1.81 4.234 4.017Z" class="elektron"/>
    <path fill="url(#w)" stroke="#000" stroke-width=".5" d="M140.761 46.13c0 2.206-1.884 4.017-4.234 4.017s-4.234-1.81-4.234-4.018c0-2.207 1.884-4.017 4.234-4.017s4.234 1.81 4.234 4.017Z" class="elektron"/>
    <path fill="url(#x)" stroke="#000" stroke-width=".5" d="M128.761 133.129c0 2.207-1.884 4.018-4.234 4.018s-4.234-1.811-4.234-4.018 1.884-4.017 4.234-4.017 4.234 1.81 4.234 4.017Z" class="elektron"/>
    <path fill="url(#y)" stroke="#000" stroke-width=".5" d="M119.761 110.129c0 2.207-1.884 4.018-4.234 4.018s-4.234-1.811-4.234-4.018 1.884-4.017 4.234-4.017 4.234 1.81 4.234 4.017Z" class="elektron"/>
    <path fill="url(#z)" stroke="#000" stroke-width=".5" d="M85.76 29.13c0 2.207-1.883 4.017-4.233 4.017-2.35 0-4.234-1.81-4.234-4.018 0-2.207 1.884-4.017 4.234-4.017s4.234 1.81 4.234 4.017Z" class="elektron"/>
    <path fill="url(#A)" stroke="#000" stroke-width=".5" d="M85.76 135.129c0 2.207-1.883 4.018-4.233 4.018-2.35 0-4.234-1.811-4.234-4.018s1.884-4.017 4.234-4.017 4.234 1.81 4.234 4.017Z" class="elektron"/>
    <path fill="url(#B)" stroke="#000" stroke-width=".5" d="M51.76 127.129c0 2.207-1.883 4.018-4.233 4.018-2.35 0-4.233-1.811-4.233-4.018s1.883-4.017 4.233-4.017c2.35 0 4.234 1.81 4.234 4.017Z" class="elektron"/>
    <path fill="url(#C)" stroke="#000" stroke-width=".5" d="M117.761 125.129c0 2.207-1.884 4.018-4.234 4.018s-4.234-1.811-4.234-4.018 1.884-4.017 4.234-4.017 4.234 1.81 4.234 4.017Z" class="elektron"/>
    <path fill="url(#D)" stroke="#000" stroke-width=".5" d="M141.761 81.13c0 2.207-1.884 4.017-4.234 4.017s-4.234-1.81-4.234-4.018c0-2.207 1.884-4.017 4.234-4.017s4.234 1.81 4.234 4.017Z" class="elektron"/>
    <path fill="url(#E)" stroke="#000" stroke-width=".5" d="M23.76 52.13c0 2.206-1.883 4.017-4.233 4.017-2.35 0-4.234-1.81-4.234-4.018 0-2.207 1.884-4.017 4.234-4.017s4.234 1.81 4.234 4.017Z" class="elektron"/>
    <path fill="url(#F)" stroke="#000" stroke-width=".5" d="M40.76 30.13c0 2.207-1.883 4.017-4.233 4.017-2.35 0-4.233-1.81-4.233-4.018 0-2.207 1.883-4.017 4.233-4.017 2.35 0 4.234 1.81 4.234 4.017Z" class="elektron"/>
  </g>
  <defs>
    <radialGradient id="a" cx="0" cy="0" r="1" class="a" gradientTransform="matrix(0 3.66041 -3.77641 0 79.885 83.5)" gradientUnits="userSpaceOnUse">
      <stop stop-color="#F80A0A"/>
      <stop offset="1" stop-color="#690404"/>
    </radialGradient>
    <radialGradient id="b" cx="0" cy="0" r="1" class="b" gradientTransform="matrix(0 4.26725 -4.4837 0 47.527 37.13)" gradientUnits="userSpaceOnUse">
      <stop stop-color="#00C2FF"/>
      <stop offset="1" stop-color="#0051A3"/>
    </radialGradient>
    <radialGradient id="c" cx="0" cy="0" r="1" class="c" gradientTransform="matrix(0 4.26725 -4.4837 0 24.527 83.13)" gradientUnits="userSpaceOnUse">
      <stop stop-color="#00C2FF"/>
      <stop offset="1" stop-color="#0051A3"/>
    </radialGradient>
    <radialGradient id="d" cx="0" cy="0" r="1" class="d" gradientTransform="matrix(0 4.26725 -4.4837 0 113.527 37.13)" gradientUnits="userSpaceOnUse">
      <stop stop-color="#00C2FF"/>
      <stop offset="1" stop-color="#0051A3"/>
    </radialGradient>
    <radialGradient id="e" cx="0" cy="0" r="1" class="e" gradientTransform="matrix(0 4.26725 -4.4837 0 65.527 40.13)" gradientUnits="userSpaceOnUse">
      <stop stop-color="#00C2FF"/>
      <stop offset="1" stop-color="#0051A3"/>
    </radialGradient>
    <radialGradient id="f" cx="0" cy="0" r="1" class="f" gradientTransform="matrix(0 4.26725 -4.4837 0 19.527 116.129)" gradientUnits="userSpaceOnUse">
      <stop stop-color="#00C2FF"/>
      <stop offset="1" stop-color="#0051A3"/>
    </radialGradient>
    <radialGradient id="g" cx="0" cy="0" r="1" class="g" gradientTransform="matrix(0 4.26725 -4.4837 0 103.527 19.13)" gradientUnits="userSpaceOnUse">
      <stop stop-color="#00C2FF"/>
      <stop offset="1" stop-color="#0051A3"/>
    </radialGradient>
    <radialGradient id="h" cx="0" cy="0" r="1" class="h" gradientTransform="matrix(0 4.26725 -4.4837 0 143.527 58.13)" gradientUnits="userSpaceOnUse">
      <stop stop-color="#00C2FF"/>
      <stop offset="1" stop-color="#0051A3"/>
    </radialGradient>
    <radialGradient id="i" cx="0" cy="0" r="1" class="i" gradientTransform="matrix(0 4.26725 -4.4837 0 150.527 83.13)" gradientUnits="userSpaceOnUse">
      <stop stop-color="#00C2FF"/>
      <stop offset="1" stop-color="#0051A3"/>
    </radialGradient>
    <radialGradient id="j" cx="0" cy="0" r="1" class="j" gradientTransform="matrix(0 4.26725 -4.4837 0 81.527 16.13)" gradientUnits="userSpaceOnUse">
      <stop stop-color="#00C2FF"/>
      <stop offset="1" stop-color="#0051A3"/>
    </radialGradient>
    <radialGradient id="k" cx="0" cy="0" r="1" class="k" gradientTransform="matrix(0 4.26725 -4.4837 0 128.527 36.13)" gradientUnits="userSpaceOnUse">
      <stop stop-color="#00C2FF"/>
      <stop offset="1" stop-color="#0051A3"/>
    </radialGradient>
    <radialGradient id="l" cx="0" cy="0" r="1" class="l" gradientTransform="matrix(0 4.26725 -4.4837 0 57.527 145.129)" gradientUnits="userSpaceOnUse">
      <stop stop-color="#00C2FF"/>
      <stop offset="1" stop-color="#0051A3"/>
    </radialGradient>
    <radialGradient id="m" cx="0" cy="0" r="1" class="m" gradientTransform="matrix(0 4.26725 -4.4837 0 33.527 135.129)" gradientUnits="userSpaceOnUse">
      <stop stop-color="#00C2FF"/>
      <stop offset="1" stop-color="#0051A3"/>
    </radialGradient>
    <radialGradient id="n" cx="0" cy="0" r="1" class="n" gradientTransform="matrix(0 4.26725 -4.4837 0 140.527 112.129)" gradientUnits="userSpaceOnUse">
      <stop stop-color="#00C2FF"/>
      <stop offset="1" stop-color="#0051A3"/>
    </radialGradient>
    <radialGradient id="o" cx="0" cy="0" r="1" class="o" gradientTransform="matrix(0 4.26725 -4.4837 0 59.527 19.13)" gradientUnits="userSpaceOnUse">
      <stop stop-color="#00C2FF"/>
      <stop offset="1" stop-color="#0051A3"/>
    </radialGradient>
    <radialGradient id="p" cx="0" cy="0" r="1" class="p" gradientTransform="matrix(0 4.26725 -4.4837 0 81.527 5.13)" gradientUnits="userSpaceOnUse">
      <stop stop-color="#00C2FF"/>
      <stop offset="1" stop-color="#0051A3"/>
    </radialGradient>
    <radialGradient id="q" cx="0" cy="0" r="1" class="q" gradientTransform="matrix(0 4.26725 -4.4837 0 81.527 162.129)" gradientUnits="userSpaceOnUse">
      <stop stop-color="#00C2FF"/>
      <stop offset="1" stop-color="#0051A3"/>
    </radialGradient>
    <radialGradient id="r" cx="0" cy="0" r="1" class="r" gradientTransform="matrix(0 4.26725 -4.4837 0 160.527 83.13)" gradientUnits="userSpaceOnUse">
      <stop stop-color="#00C2FF"/>
      <stop offset="1" stop-color="#0051A3"/>
    </radialGradient>
    <radialGradient id="s" cx="0" cy="0" r="1" class="s" gradientTransform="matrix(0 4.26725 -4.4837 0 79.527 149.129)" gradientUnits="userSpaceOnUse">
      <stop stop-color="#00C2FF"/>
      <stop offset="1" stop-color="#0051A3"/>
    </radialGradient>
    <radialGradient id="t" cx="0" cy="0" r="1" class="t" gradientTransform="matrix(0 4.26725 -4.4837 0 12.527 73.13)" gradientUnits="userSpaceOnUse">
      <stop stop-color="#00C2FF"/>
      <stop offset="1" stop-color="#0051A3"/>
    </radialGradient>
    <radialGradient id="u" cx="0" cy="0" r="1" class="u" gradientTransform="matrix(0 4.26725 -4.4837 0 100.527 144.129)" gradientUnits="userSpaceOnUse">
      <stop stop-color="#00C2FF"/>
      <stop offset="1" stop-color="#0051A3"/>
    </radialGradient>
    <radialGradient id="v" cx="0" cy="0" r="1" class="v" gradientTransform="matrix(0 4.26725 -4.4837 0 10.527 96.13)" gradientUnits="userSpaceOnUse">
      <stop stop-color="#00C2FF"/>
      <stop offset="1" stop-color="#0051A3"/>
    </radialGradient>
    <radialGradient id="w" cx="0" cy="0" r="1" class="w" gradientTransform="matrix(0 4.26725 -4.4837 0 136.527 46.13)" gradientUnits="userSpaceOnUse">
      <stop stop-color="#00C2FF"/>
      <stop offset="1" stop-color="#0051A3"/>
    </radialGradient>
    <radialGradient id="x" cx="0" cy="0" r="1" class="x" gradientTransform="matrix(0 4.26725 -4.4837 0 124.527 133.129)" gradientUnits="userSpaceOnUse">
      <stop stop-color="#00C2FF"/>
      <stop offset="1" stop-color="#0051A3"/>
    </radialGradient>
    <radialGradient id="y" cx="0" cy="0" r="1" class="y" gradientTransform="matrix(0 4.26725 -4.4837 0 115.527 110.129)" gradientUnits="userSpaceOnUse">
      <stop stop-color="#00C2FF"/>
      <stop offset="1" stop-color="#0051A3"/>
    </radialGradient>
    <radialGradient id="z" cx="0" cy="0" r="1" class="z" gradientTransform="matrix(0 4.26725 -4.4837 0 81.527 29.13)" gradientUnits="userSpaceOnUse">
      <stop stop-color="#00C2FF"/>
      <stop offset="1" stop-color="#0051A3"/>
    </radialGradient>
    <radialGradient id="A" cx="0" cy="0" r="1" class="A" gradientTransform="matrix(0 4.26725 -4.4837 0 81.527 135.129)" gradientUnits="userSpaceOnUse">
      <stop stop-color="#00C2FF"/>
      <stop offset="1" stop-color="#0051A3"/>
    </radialGradient>
    <radialGradient id="B" cx="0" cy="0" r="1" class="B" gradientTransform="matrix(0 4.26725 -4.4837 0 47.527 127.129)" gradientUnits="userSpaceOnUse">
      <stop stop-color="#00C2FF"/>
      <stop offset="1" stop-color="#0051A3"/>
    </radialGradient>
    <radialGradient id="C" cx="0" cy="0" r="1" class="C" gradientTransform="matrix(0 4.26725 -4.4837 0 113.527 125.129)" gradientUnits="userSpaceOnUse">
      <stop stop-color="#00C2FF"/>
      <stop offset="1" stop-color="#0051A3"/>
    </radialGradient>
    <radialGradient id="D" cx="0" cy="0" r="1" class="D" gradientTransform="matrix(0 4.26725 -4.4837 0 137.527 81.13)" gradientUnits="userSpaceOnUse">
      <stop stop-color="#00C2FF"/>
      <stop offset="1" stop-color="#0051A3"/>
    </radialGradient>
    <radialGradient id="E" cx="0" cy="0" r="1" class="E" gradientTransform="matrix(0 4.26725 -4.4837 0 19.527 52.13)" gradientUnits="userSpaceOnUse">
      <stop stop-color="#00C2FF"/>
      <stop offset="1" stop-color="#0051A3"/>
    </radialGradient>
    <radialGradient id="F" cx="0" cy="0" r="1" class="F" gradientTransform="matrix(0 4.26725 -4.4837 0 36.527 30.13)" gradientUnits="userSpaceOnUse">
      <stop stop-color="#00C2FF"/>
      <stop offset="1" stop-color="#0051A3"/>
    </radialGradient>
  </defs>
</svg>
