<svg xmlns="http://www.w3.org/2000/svg" width="24" height="24" fill="none" viewBox="0 0 36 36">
  <path fill="#000" fill-rule="evenodd" d="M17.998 0C8.058 0 0 8.059 0 18c0 7.953 5.157 14.7 12.31 17.08.9.165 1.229-.39 1.229-.868 0-.426-.016-1.56-.025-3.06-5.007 1.087-6.063-2.414-6.063-2.414-.819-2.079-1.999-2.632-1.999-2.632-1.634-1.117.124-1.095.124-1.095 1.807.128 2.757 1.855 2.757 1.855 1.605 2.75 4.213 1.956 5.239 1.496.163-1.163.627-1.957 1.142-2.406-3.997-.455-8.199-2-8.199-8.897 0-1.965.702-3.571 1.853-4.83-.185-.455-.803-2.285.176-4.764 0 0 1.512-.484 4.95 1.846a17.24 17.24 0 0 1 4.507-.606 17.28 17.28 0 0 1 4.506.606c3.436-2.33 4.945-1.846 4.945-1.846.982 2.479.364 4.309.179 4.764 1.153 1.259 1.85 2.865 1.85 4.83 0 6.915-4.208 8.437-8.219 8.882.647.556 1.223 1.654 1.223 3.334 0 2.405-.022 4.347-.022 4.937 0 .482.323 1.042 1.237.866C30.847 32.693 36 25.951 36 18.001 36 8.059 27.94 0 17.998 0Z" clip-rule="evenodd"/>
  <path fill="#fff" fill-rule="evenodd" d="M13.188 36s.031-3.291.021-4.94c-5.265 1.103-6.375-2.447-6.375-2.447-.862-2.107-2.103-2.669-2.103-2.669-1.718-1.133.13-1.11.13-1.11 1.9.13 2.9 1.881 2.9 1.881 1.688 2.79 4.43 1.984 5.509 1.517.172-1.18.66-1.984 1.201-2.44-4.203-.46-8.622-2.027-8.622-9.021 0-1.993.738-3.622 1.949-4.898-.195-.462-.845-2.317.185-4.83 0 0 1.59-.491 5.205 1.87 1.51-.404 3.13-.607 4.739-.613 1.607.006 3.227.21 4.739.614 3.613-2.362 5.2-1.872 5.2-1.872 1.032 2.514.383 4.37.188 4.83C29.267 13.15 30 14.779 30 16.772c0 7.012-4.426 8.555-8.643 9.006.68.564 1.285 1.678 1.285 3.381 0 2.281.024 6.842.024 6.842h-9.478Z" clip-rule="evenodd"/>
</svg>
