<?xml-stylesheet type="text/css" href="../style.css"?><svg xmlns="http://www.w3.org/2000/svg" width="165" height="165" fill="none" viewBox="0 0 165 165">
  <g class="h">
    <path fill="url(#a)" stroke="#000" stroke-width=".5" d="M83.029 92.367c3.924 0 7.125-3.048 7.125-6.83s-3.2-6.83-7.125-6.83-7.125 3.048-7.125 6.83 3.2 6.83 7.125 6.83Z" class="Ellipse 2"/>
    <path fill="#D9D9D9" fill-opacity=".1" stroke="#000" d="M164.5 86.043c0 43.31-36.692 78.457-82 78.457S.5 129.353.5 86.043c0-43.31 36.692-78.457 82-78.457s82 35.147 82 78.457Z" class="powloka"/>
    <path fill="url(#b)" stroke="#000" stroke-width=".5" d="M92.827 7.592c0 4.045-3.43 7.342-7.683 7.342s-7.683-3.297-7.683-7.342S80.891.25 85.144.25c4.254 0 7.683 3.297 7.683 7.342Z" class="elektron"/>
  </g>
  <defs>
    <radialGradient id="a" cx="0" cy="0" r="1" class="a" gradientTransform="matrix(0 6.57975 -6.875 0 83.029 85.537)" gradientUnits="userSpaceOnUse">
      <stop stop-color="#F80A0A"/>
      <stop offset="1" stop-color="#690404"/>
    </radialGradient>
    <radialGradient id="b" cx="0" cy="0" r="1" class="b" gradientTransform="matrix(0 7.59203 -7.93269 0 85.144 7.592)" gradientUnits="userSpaceOnUse">
      <stop stop-color="#00C2FF"/>
      <stop offset="1" stop-color="#0051A3"/>
    </radialGradient>
  </defs>
</svg>
