<?xml-stylesheet type="text/css" href="../style.css"?><svg xmlns="http://www.w3.org/2000/svg" width="165" height="165" fill="none" viewBox="0 0 165 165">
  <g class="k">
    <path fill="#D9D9D9" fill-opacity=".1" stroke="#000" d="M128.63 84.54c0 24.829-20.641 44.978-46.13 44.978-25.489 0-46.13-20.149-46.13-44.977 0-24.829 20.641-44.977 46.13-44.977 25.489 0 46.13 20.148 46.13 44.977Z" class="powloka"/>
    <path fill="#D9D9D9" fill-opacity=".1" stroke="#000" d="M140.587 84.54c0 31.269-25.995 56.638-58.087 56.638s-58.087-25.369-58.087-56.637c0-31.269 25.995-56.638 58.087-56.638s58.087 25.37 58.087 56.638Z" class="powloka"/>
    <path fill="#D9D9D9" fill-opacity=".1" stroke="#000" d="M152.543 84.54c0 37.709-31.347 68.299-70.043 68.299-38.696 0-70.043-30.59-70.043-68.298 0-37.709 31.347-68.299 70.043-68.299 38.696 0 70.043 30.59 70.043 68.299Z" class="powloka"/>
    <path fill="#D9D9D9" fill-opacity=".1" stroke="#000" d="M164.5 84.54c0 44.149-36.701 79.96-82 79.96-45.3 0-82-35.811-82-79.96 0-44.148 36.7-79.959 82-79.959 45.299 0 82 35.811 82 79.96Z" class="powloka"/>
    <path fill="url(#a)" stroke="#000" stroke-width=".5" d="M82.799 87.706c2.278 0 4.136-1.803 4.136-4.04s-1.858-4.04-4.136-4.04-4.136 1.803-4.136 4.04 1.858 4.04 4.136 4.04Z" class="Ellipse 2"/>
    <path fill="url(#b)" stroke="#000" stroke-width=".5" d="M51.446 37.415c0 2.271-1.89 4.123-4.234 4.123-2.344 0-4.234-1.852-4.234-4.123 0-2.27 1.89-4.123 4.234-4.123 2.344 0 4.234 1.852 4.234 4.123Z" class="elektron"/>
    <path fill="url(#c)" stroke="#000" stroke-width=".5" d="M28.446 85.415c0 2.271-1.89 4.123-4.234 4.123-2.344 0-4.234-1.852-4.234-4.123 0-2.27 1.89-4.123 4.234-4.123 2.344 0 4.234 1.852 4.234 4.123Z" class="elektron"/>
    <path fill="url(#d)" stroke="#000" stroke-width=".5" d="M119.446 37.415c0 2.271-1.89 4.123-4.234 4.123-2.344 0-4.234-1.852-4.234-4.123 0-2.27 1.89-4.123 4.234-4.123 2.344 0 4.234 1.852 4.234 4.123Z" class="elektron"/>
    <path fill="url(#e)" stroke="#000" stroke-width=".5" d="M70.446 40.415c0 2.271-1.89 4.123-4.234 4.123-2.344 0-4.234-1.852-4.234-4.123 0-2.27 1.89-4.123 4.234-4.123 2.344 0 4.234 1.852 4.234 4.123Z" class="elektron"/>
    <path fill="url(#f)" stroke="#000" stroke-width=".5" d="M23.446 112.415c0 2.271-1.89 4.123-4.234 4.123-2.344 0-4.234-1.852-4.234-4.123s1.89-4.123 4.234-4.123c2.344 0 4.234 1.852 4.234 4.123Z" class="elektron"/>
    <path fill="url(#g)" stroke="#000" stroke-width=".5" d="M109.446 19.415c0 2.271-1.89 4.123-4.234 4.123-2.344 0-4.234-1.852-4.234-4.123 0-2.27 1.89-4.122 4.234-4.122 2.344 0 4.234 1.851 4.234 4.122Z" class="elektron"/>
    <path fill="url(#h)" stroke="#000" stroke-width=".5" d="M150.446 59.415c0 2.271-1.89 4.123-4.234 4.123-2.344 0-4.234-1.852-4.234-4.123 0-2.27 1.89-4.123 4.234-4.123 2.344 0 4.234 1.852 4.234 4.123Z" class="elektron"/>
    <path fill="url(#i)" stroke="#000" stroke-width=".5" d="M64.446 147.415c0 2.271-1.89 4.123-4.234 4.123-2.344 0-4.234-1.852-4.234-4.123s1.89-4.123 4.234-4.123c2.344 0 4.234 1.852 4.234 4.123Z" class="elektron"/>
    <path fill="url(#j)" stroke="#000" stroke-width=".5" d="M148.446 115.415c0 2.271-1.89 4.123-4.234 4.123-2.344 0-4.234-1.852-4.234-4.123s1.89-4.123 4.234-4.123c2.344 0 4.234 1.852 4.234 4.123Z" class="elektron"/>
    <path fill="url(#k)" stroke="#000" stroke-width=".5" d="M64.446 19.415c0 2.271-1.89 4.123-4.234 4.123-2.344 0-4.234-1.852-4.234-4.123 0-2.27 1.89-4.122 4.234-4.122 2.344 0 4.234 1.851 4.234 4.122Z" class="elektron"/>
    <path fill="url(#l)" stroke="#000" stroke-width=".5" d="M87.446 4.415c0 2.271-1.89 4.123-4.234 4.123-2.344 0-4.234-1.852-4.234-4.123 0-2.27 1.89-4.123 4.234-4.123 2.344 0 4.234 1.852 4.234 4.123Z" class="elektron"/>
    <path fill="url(#m)" stroke="#000" stroke-width=".5" d="M106.446 147.415c0 2.271-1.89 4.123-4.234 4.123-2.344 0-4.234-1.852-4.234-4.123s1.89-4.123 4.234-4.123c2.344 0 4.234 1.852 4.234 4.123Z" class="elektron"/>
    <path fill="url(#n)" stroke="#000" stroke-width=".5" d="M121.446 112.415c0 2.271-1.89 4.123-4.234 4.123-2.344 0-4.234-1.852-4.234-4.123s1.89-4.123 4.234-4.123c2.344 0 4.234 1.852 4.234 4.123Z" class="elektron"/>
    <path fill="url(#o)" stroke="#000" stroke-width=".5" d="M86.446 25.415c0 2.271-1.89 4.123-4.234 4.123-2.344 0-4.234-1.852-4.234-4.123 0-2.27 1.89-4.122 4.234-4.122 2.344 0 4.234 1.851 4.234 4.122Z" class="elektron"/>
    <path fill="url(#p)" stroke="#000" stroke-width=".5" d="M86.446 139.415c0 2.271-1.89 4.123-4.234 4.123-2.344 0-4.234-1.852-4.234-4.123s1.89-4.123 4.234-4.123c2.344 0 4.234 1.852 4.234 4.123Z" class="elektron"/>
    <path fill="url(#q)" stroke="#000" stroke-width=".5" d="M51.446 130.415c0 2.271-1.89 4.123-4.234 4.123-2.344 0-4.234-1.852-4.234-4.123s1.89-4.123 4.234-4.123c2.344 0 4.234 1.852 4.234 4.123Z" class="elektron"/>
    <path fill="url(#r)" stroke="#000" stroke-width=".5" d="M119.446 128.415c0 2.271-1.89 4.123-4.234 4.123-2.344 0-4.234-1.852-4.234-4.123s1.89-4.123 4.234-4.123c2.344 0 4.234 1.852 4.234 4.123Z" class="elektron"/>
    <path fill="url(#s)" stroke="#000" stroke-width=".5" d="M144.446 83.415c0 2.271-1.89 4.123-4.234 4.123-2.344 0-4.234-1.852-4.234-4.123 0-2.27 1.89-4.123 4.234-4.123 2.344 0 4.234 1.852 4.234 4.123Z" class="elektron"/>
    <path fill="url(#t)" stroke="#000" stroke-width=".5" d="M23.446 52.415c0 2.271-1.89 4.123-4.234 4.123-2.344 0-4.234-1.852-4.234-4.123 0-2.27 1.89-4.123 4.234-4.123 2.344 0 4.234 1.852 4.234 4.123Z" class="elektron"/>
  </g>
  <defs>
    <radialGradient id="a" cx="0" cy="0" r="1" class="a" gradientTransform="matrix(0 3.78975 -3.88587 0 82.799 83.666)" gradientUnits="userSpaceOnUse">
      <stop stop-color="#F80A0A"/>
      <stop offset="1" stop-color="#690404"/>
    </radialGradient>
    <radialGradient id="b" cx="0" cy="0" r="1" class="b" gradientTransform="matrix(0 4.37279 -4.4837 0 47.212 37.415)" gradientUnits="userSpaceOnUse">
      <stop stop-color="#00C2FF"/>
      <stop offset="1" stop-color="#0051A3"/>
    </radialGradient>
    <radialGradient id="c" cx="0" cy="0" r="1" class="c" gradientTransform="matrix(0 4.37279 -4.4837 0 24.212 85.415)" gradientUnits="userSpaceOnUse">
      <stop stop-color="#00C2FF"/>
      <stop offset="1" stop-color="#0051A3"/>
    </radialGradient>
    <radialGradient id="d" cx="0" cy="0" r="1" class="d" gradientTransform="matrix(0 4.37279 -4.4837 0 115.212 37.415)" gradientUnits="userSpaceOnUse">
      <stop stop-color="#00C2FF"/>
      <stop offset="1" stop-color="#0051A3"/>
    </radialGradient>
    <radialGradient id="e" cx="0" cy="0" r="1" class="e" gradientTransform="matrix(0 4.37279 -4.4837 0 66.212 40.415)" gradientUnits="userSpaceOnUse">
      <stop stop-color="#00C2FF"/>
      <stop offset="1" stop-color="#0051A3"/>
    </radialGradient>
    <radialGradient id="f" cx="0" cy="0" r="1" class="f" gradientTransform="matrix(0 4.37279 -4.4837 0 19.212 112.415)" gradientUnits="userSpaceOnUse">
      <stop stop-color="#00C2FF"/>
      <stop offset="1" stop-color="#0051A3"/>
    </radialGradient>
    <radialGradient id="g" cx="0" cy="0" r="1" class="g" gradientTransform="matrix(0 4.37279 -4.4837 0 105.212 19.415)" gradientUnits="userSpaceOnUse">
      <stop stop-color="#00C2FF"/>
      <stop offset="1" stop-color="#0051A3"/>
    </radialGradient>
    <radialGradient id="h" cx="0" cy="0" r="1" class="h" gradientTransform="matrix(0 4.37279 -4.4837 0 146.212 59.415)" gradientUnits="userSpaceOnUse">
      <stop stop-color="#00C2FF"/>
      <stop offset="1" stop-color="#0051A3"/>
    </radialGradient>
    <radialGradient id="i" cx="0" cy="0" r="1" class="i" gradientTransform="matrix(0 4.37279 -4.4837 0 60.212 147.415)" gradientUnits="userSpaceOnUse">
      <stop stop-color="#00C2FF"/>
      <stop offset="1" stop-color="#0051A3"/>
    </radialGradient>
    <radialGradient id="j" cx="0" cy="0" r="1" class="j" gradientTransform="matrix(0 4.37279 -4.4837 0 144.212 115.415)" gradientUnits="userSpaceOnUse">
      <stop stop-color="#00C2FF"/>
      <stop offset="1" stop-color="#0051A3"/>
    </radialGradient>
    <radialGradient id="k" cx="0" cy="0" r="1" class="k" gradientTransform="matrix(0 4.37279 -4.4837 0 60.212 19.415)" gradientUnits="userSpaceOnUse">
      <stop stop-color="#00C2FF"/>
      <stop offset="1" stop-color="#0051A3"/>
    </radialGradient>
    <radialGradient id="l" cx="0" cy="0" r="1" class="l" gradientTransform="matrix(0 4.37279 -4.4837 0 83.212 4.415)" gradientUnits="userSpaceOnUse">
      <stop stop-color="#00C2FF"/>
      <stop offset="1" stop-color="#0051A3"/>
    </radialGradient>
    <radialGradient id="m" cx="0" cy="0" r="1" class="m" gradientTransform="matrix(0 4.37279 -4.4837 0 102.212 147.415)" gradientUnits="userSpaceOnUse">
      <stop stop-color="#00C2FF"/>
      <stop offset="1" stop-color="#0051A3"/>
    </radialGradient>
    <radialGradient id="n" cx="0" cy="0" r="1" class="n" gradientTransform="matrix(0 4.37279 -4.4837 0 117.212 112.415)" gradientUnits="userSpaceOnUse">
      <stop stop-color="#00C2FF"/>
      <stop offset="1" stop-color="#0051A3"/>
    </radialGradient>
    <radialGradient id="o" cx="0" cy="0" r="1" class="o" gradientTransform="matrix(0 4.37279 -4.4837 0 82.212 25.415)" gradientUnits="userSpaceOnUse">
      <stop stop-color="#00C2FF"/>
      <stop offset="1" stop-color="#0051A3"/>
    </radialGradient>
    <radialGradient id="p" cx="0" cy="0" r="1" class="p" gradientTransform="matrix(0 4.37279 -4.4837 0 82.212 139.415)" gradientUnits="userSpaceOnUse">
      <stop stop-color="#00C2FF"/>
      <stop offset="1" stop-color="#0051A3"/>
    </radialGradient>
    <radialGradient id="q" cx="0" cy="0" r="1" class="q" gradientTransform="matrix(0 4.37279 -4.4837 0 47.212 130.415)" gradientUnits="userSpaceOnUse">
      <stop stop-color="#00C2FF"/>
      <stop offset="1" stop-color="#0051A3"/>
    </radialGradient>
    <radialGradient id="r" cx="0" cy="0" r="1" class="r" gradientTransform="matrix(0 4.37279 -4.4837 0 115.212 128.415)" gradientUnits="userSpaceOnUse">
      <stop stop-color="#00C2FF"/>
      <stop offset="1" stop-color="#0051A3"/>
    </radialGradient>
    <radialGradient id="s" cx="0" cy="0" r="1" class="s" gradientTransform="matrix(0 4.37279 -4.4837 0 140.212 83.415)" gradientUnits="userSpaceOnUse">
      <stop stop-color="#00C2FF"/>
      <stop offset="1" stop-color="#0051A3"/>
    </radialGradient>
    <radialGradient id="t" cx="0" cy="0" r="1" class="t" gradientTransform="matrix(0 4.37279 -4.4837 0 19.212 52.415)" gradientUnits="userSpaceOnUse">
      <stop stop-color="#00C2FF"/>
      <stop offset="1" stop-color="#0051A3"/>
    </radialGradient>
  </defs>
</svg>
