<?xml-stylesheet type="text/css" href="../style.css"?><svg xmlns="http://www.w3.org/2000/svg" width="165" height="165" fill="none" viewBox="0 0 165 165">
  <g class="lit">
    <path fill="#D9D9D9" fill-opacity=".1" stroke="#000" d="M157.414 82.5c0 41.516-35.106 75.206-78.457 75.206C35.607 157.706.5 124.016.5 82.5.5 40.985 35.606 7.294 78.957 7.294c43.351 0 78.457 33.69 78.457 75.206Z" class="powloka"/>
    <path fill="url(#a)" stroke="#000" stroke-width=".5" d="M89.842 7.28c0 3.872-3.277 7.029-7.342 7.029-4.065 0-7.342-3.157-7.342-7.03C75.158 3.407 78.435.25 82.5.25c4.065 0 7.342 3.157 7.342 7.03Z" class="elektron"/>
    <path fill="url(#b)" stroke="#000" stroke-width=".5" d="M164.75 82.015c0 3.872-3.277 7.03-7.342 7.03-4.065 0-7.342-3.158-7.342-7.03 0-3.873 3.277-7.03 7.342-7.03 4.065 0 7.342 3.157 7.342 7.03Z" class="elektron"/>
    <path fill="url(#c)" stroke="#000" stroke-width=".5" d="M89.842 157.721c0 3.872-3.277 7.029-7.342 7.029-4.065 0-7.342-3.157-7.342-7.029 0-3.873 3.277-7.03 7.342-7.03 4.065 0 7.342 3.157 7.342 7.03Z" class="elektron"/>
    <path fill="url(#d)" stroke="#000" stroke-width=".5" d="M82.5 88.573c3.762 0 6.83-2.926 6.83-6.558 0-3.633-3.068-6.56-6.83-6.56s-6.83 2.927-6.83 6.56c0 3.632 3.068 6.558 6.83 6.558Z" class="Ellipse 2"/>
  </g>
  <defs>
    <radialGradient id="a" cx="0" cy="0" r="1" class="a" gradientTransform="matrix(0 7.27941 -7.59202 0 82.5 7.28)" gradientUnits="userSpaceOnUse">
      <stop stop-color="#00C2FF"/>
      <stop offset="1" stop-color="#0051A3"/>
    </radialGradient>
    <radialGradient id="b" cx="0" cy="0" r="1" class="b" gradientTransform="matrix(0 7.27941 -7.59202 0 157.405 82.017)" gradientUnits="userSpaceOnUse">
      <stop stop-color="#00C2FF"/>
      <stop offset="1" stop-color="#0051A3"/>
    </radialGradient>
    <radialGradient id="c" cx="0" cy="0" r="1" class="c" gradientTransform="matrix(0 7.27941 -7.59202 0 82.5 157.721)" gradientUnits="userSpaceOnUse">
      <stop stop-color="#00C2FF"/>
      <stop offset="1" stop-color="#0051A3"/>
    </radialGradient>
    <radialGradient id="d" cx="0" cy="0" r="1" class="d" gradientTransform="matrix(0 6.30882 -6.57975 0 82.5 82.015)" gradientUnits="userSpaceOnUse">
      <stop stop-color="#F80A0A"/>
      <stop offset="1" stop-color="#690404"/>
    </radialGradient>
  </defs>
</svg>
