<?xml-stylesheet type="text/css" href="../style.css"?><svg xmlns="http://www.w3.org/2000/svg" width="165" height="166" fill="none" viewBox="0 0 165 166">
  <g class="lr">
    <path fill="#D9D9D9" fill-opacity=".1" stroke="#000" d="M111.392 82.898c0 16.885-13.926 30.587-31.122 30.587-17.196 0-31.121-13.702-31.121-30.587 0-16.884 13.925-30.586 31.121-30.586 17.196 0 31.122 13.702 31.122 30.586Z" class="powloka"/>
    <path fill="#D9D9D9" fill-opacity=".1" stroke="#000" d="M119.5 82.898c0 21.287-17.556 38.558-39.23 38.558-21.674 0-39.23-17.271-39.23-38.558 0-21.286 17.556-38.557 39.23-38.557 21.674 0 39.23 17.27 39.23 38.557Z" class="powloka"/>
    <path fill="#D9D9D9" fill-opacity=".1" stroke="#000" d="M127.608 82.898c0 25.69-21.186 46.529-47.338 46.529s-47.338-20.839-47.338-46.529c0-25.689 21.186-46.529 47.338-46.529s47.338 20.84 47.338 46.53Z" class="powloka"/>
    <path fill="#D9D9D9" fill-opacity=".1" stroke="#000" d="M135.716 82.898c0 30.092-24.816 54.5-55.446 54.5s-55.446-24.408-55.446-54.5c0-30.091 24.816-54.5 55.446-54.5s55.446 24.409 55.446 54.5Z" class="powloka"/>
    <path fill="#D9D9D9" fill-opacity=".1" stroke="#000" d="M143.824 82.898c0 34.494-28.446 62.471-63.554 62.471-35.108 0-63.554-27.977-63.554-62.47 0-34.494 28.446-62.472 63.554-62.472 35.108 0 63.554 27.978 63.554 62.471Z" class="powloka"/>
    <path fill="#D9D9D9" fill-opacity=".1" stroke="#000" d="M151.932 82.898c0 38.896-32.076 70.442-71.662 70.442-39.586 0-71.662-31.546-71.662-70.442 0-38.896 32.076-70.442 71.662-70.442 39.586 0 71.662 31.546 71.662 70.442Z" class="powloka"/>
    <path fill="#D9D9D9" fill-opacity=".1" stroke="#000" d="M160.04 82.898c0 43.299-35.706 78.413-79.77 78.413C36.206 161.311.5 126.197.5 82.898.5 39.6 36.206 4.485 80.27 4.485c44.064 0 79.77 35.115 79.77 78.413Z" class="powloka"/>
    <path fill="url(#a)" stroke="#000" stroke-width=".5" d="M80.473 85.54c1.59 0 2.885-1.268 2.885-2.84 0-1.574-1.296-2.841-2.885-2.841-1.59 0-2.885 1.267-2.885 2.84s1.296 2.84 2.885 2.84Z" class="Ellipse 2"/>
    <path fill="url(#b)" stroke="#000" stroke-width=".5" d="M61.75 49.24c0 1.545-1.282 2.806-2.875 2.806S56 50.785 56 49.241c0-1.544 1.282-2.806 2.875-2.806s2.875 1.261 2.875 2.806Z" class="elektron"/>
    <path fill="url(#c)" stroke="#000" stroke-width=".5" d="M43.75 85.24c0 1.545-1.282 2.806-2.875 2.806S38 86.785 38 85.241c0-1.545 1.282-2.806 2.875-2.806s2.875 1.261 2.875 2.806Z" class="elektron"/>
    <path fill="url(#d)" stroke="#000" stroke-width=".5" d="M107.75 49.24c0 1.545-1.282 2.806-2.875 2.806S102 50.785 102 49.241c0-1.545 1.282-2.806 2.875-2.806s2.875 1.261 2.875 2.806Z" class="elektron"/>
    <path fill="url(#e)" stroke="#000" stroke-width=".5" d="M73.75 51.24c0 1.545-1.282 2.806-2.875 2.806S68 52.785 68 51.241c0-1.545 1.282-2.806 2.875-2.806s2.875 1.261 2.875 2.806Z" class="elektron"/>
    <path fill="url(#f)" stroke="#000" stroke-width=".5" d="M41.75 104.241c0 1.544-1.282 2.805-2.875 2.805S36 105.785 36 104.241c0-1.544 1.282-2.806 2.875-2.806s2.875 1.262 2.875 2.806Z" class="elektron"/>
    <path fill="url(#g)" stroke="#000" stroke-width=".5" d="M100.75 36.24c0 1.545-1.282 2.806-2.875 2.806S95 37.785 95 36.241c0-1.544 1.282-2.806 2.875-2.806s2.875 1.261 2.875 2.806Z" class="elektron"/>
    <path fill="url(#h)" stroke="#000" stroke-width=".5" d="M128.75 64.24c0 1.545-1.282 2.806-2.875 2.806S123 65.785 123 64.241c0-1.544 1.282-2.806 2.875-2.806s2.875 1.261 2.875 2.806Z" class="elektron"/>
    <path fill="url(#i)" stroke="#000" stroke-width=".5" d="M133.75 82.24c0 1.545-1.282 2.806-2.875 2.806S128 83.785 128 82.241c0-1.544 1.282-2.806 2.875-2.806s2.875 1.261 2.875 2.806Z" class="elektron"/>
    <path fill="url(#j)" stroke="#000" stroke-width=".5" d="M85.75 34.24c0 1.545-1.282 2.806-2.875 2.806S80 35.785 80 34.241c0-1.544 1.282-2.806 2.875-2.806s2.875 1.262 2.875 2.806Z" class="elektron"/>
    <path fill="url(#k)" stroke="#000" stroke-width=".5" d="M117.75 48.24c0 1.545-1.282 2.806-2.875 2.806S112 49.785 112 48.241c0-1.544 1.282-2.806 2.875-2.806s2.875 1.261 2.875 2.806Z" class="elektron"/>
    <path fill="url(#l)" stroke="#000" stroke-width=".5" d="M68.75 126.241c0 1.544-1.282 2.805-2.875 2.805S63 127.785 63 126.241c0-1.544 1.282-2.806 2.875-2.806s2.875 1.262 2.875 2.806Z" class="elektron"/>
    <path fill="url(#m)" stroke="#000" stroke-width=".5" d="M51.75 118.241c0 1.544-1.282 2.805-2.875 2.805S46 119.785 46 118.241c0-1.544 1.282-2.806 2.875-2.806s2.875 1.262 2.875 2.806Z" class="elektron"/>
    <path fill="url(#n)" stroke="#000" stroke-width=".5" d="M126.75 102.241c0 1.544-1.282 2.805-2.875 2.805S121 103.785 121 102.241c0-1.544 1.282-2.806 2.875-2.806s2.875 1.262 2.875 2.806Z" class="elektron"/>
    <path fill="url(#o)" stroke="#000" stroke-width=".5" d="M69.75 36.24c0 1.545-1.282 2.806-2.875 2.806S64 37.785 64 36.241c0-1.544 1.282-2.806 2.875-2.806s2.875 1.261 2.875 2.806Z" class="elektron"/>
    <path fill="url(#p)" stroke="#000" stroke-width=".5" d="M85.75 26.24c0 1.545-1.282 2.806-2.875 2.806S80 27.785 80 26.241c0-1.544 1.282-2.806 2.875-2.806s2.875 1.262 2.875 2.806Z" class="elektron"/>
    <path fill="url(#q)" stroke="#000" stroke-width=".5" d="M107.75 32.24c0 1.545-1.282 2.806-2.875 2.806S102 33.785 102 32.241c0-1.544 1.282-2.806 2.875-2.806s2.875 1.262 2.875 2.806Z" class="elektron"/>
    <path fill="url(#r)" stroke="#000" stroke-width=".5" d="M96.75 28.24c0 1.545-1.282 2.806-2.875 2.806S91 29.785 91 28.241c0-1.545 1.282-2.806 2.875-2.806s2.875 1.261 2.875 2.806Z" class="elektron"/>
    <path fill="url(#s)" stroke="#000" stroke-width=".5" d="M121.75 40.24c0 1.545-1.282 2.806-2.875 2.806S116 41.785 116 40.241c0-1.545 1.282-2.806 2.875-2.806s2.875 1.261 2.875 2.806Z" class="elektron"/>
    <path fill="url(#t)" stroke="#000" stroke-width=".5" d="M136.75 60.24c0 1.545-1.282 2.806-2.875 2.806S131 61.785 131 60.241c0-1.545 1.282-2.806 2.875-2.806s2.875 1.261 2.875 2.806Z" class="elektron"/>
    <path fill="url(#u)" stroke="#000" stroke-width=".5" d="M139.75 71.24c0 1.545-1.282 2.806-2.875 2.806S134 72.785 134 71.241c0-1.545 1.282-2.806 2.875-2.806s2.875 1.261 2.875 2.806Z" class="elektron"/>
    <path fill="url(#v)" stroke="#000" stroke-width=".5" d="M85.75 137.241c0 1.544-1.282 2.805-2.875 2.805S80 138.785 80 137.241c0-1.545 1.282-2.806 2.875-2.806s2.875 1.261 2.875 2.806Z" class="elektron"/>
    <path fill="url(#w)" stroke="#000" stroke-width=".5" d="M84.75 145.241c0 1.544-1.282 2.805-2.875 2.805S79 146.785 79 145.241c0-1.545 1.282-2.806 2.875-2.806s2.875 1.261 2.875 2.806Z" class="elektron"/>
    <path fill="url(#x)" stroke="#000" stroke-width=".5" d="M72.75 145.241c0 1.544-1.282 2.805-2.875 2.805S67 146.785 67 145.241c0-1.545 1.282-2.806 2.875-2.806s2.875 1.261 2.875 2.806Z" class="elektron"/>
    <path fill="url(#y)" stroke="#000" stroke-width=".5" d="M98.75 144.241c0 1.544-1.282 2.805-2.875 2.805S93 145.785 93 144.241c0-1.545 1.282-2.806 2.875-2.806s2.875 1.261 2.875 2.806Z" class="elektron"/>
    <path fill="url(#z)" stroke="#000" stroke-width=".5" d="M122.75 132.241c0 1.544-1.282 2.805-2.875 2.805S117 133.785 117 132.241c0-1.545 1.282-2.806 2.875-2.806s2.875 1.261 2.875 2.806Z" class="elektron"/>
    <path fill="url(#A)" stroke="#000" stroke-width=".5" d="M61.75 142.241c0 1.544-1.282 2.805-2.875 2.805S56 143.785 56 142.241c0-1.545 1.282-2.806 2.875-2.806s2.875 1.261 2.875 2.806Z" class="elektron"/>
    <path fill="url(#B)" stroke="#000" stroke-width=".5" d="M29.75 116.241c0 1.544-1.282 2.805-2.875 2.805S24 117.785 24 116.241c0-1.545 1.282-2.806 2.875-2.806s2.875 1.261 2.875 2.806Z" class="elektron"/>
    <path fill="url(#C)" stroke="#000" stroke-width=".5" d="M24.75 106.241c0 1.544-1.282 2.805-2.875 2.805S19 107.785 19 106.241c0-1.545 1.282-2.806 2.875-2.806s2.875 1.261 2.875 2.806Z" class="elektron"/>
    <path fill="url(#D)" stroke="#000" stroke-width=".5" d="M21.75 98.24c0 1.545-1.282 2.806-2.875 2.806S16 99.785 16 98.241c0-1.545 1.282-2.806 2.875-2.806s2.875 1.261 2.875 2.806Z" class="elektron"/>
    <path fill="url(#E)" stroke="#000" stroke-width=".5" d="M19.75 89.24c0 1.545-1.282 2.806-2.875 2.806S14 90.785 14 89.241c0-1.545 1.282-2.806 2.875-2.806s2.875 1.261 2.875 2.806Z" class="elektron"/>
    <path fill="url(#F)" stroke="#000" stroke-width=".5" d="M34.75 123.241c0 1.544-1.282 2.805-2.875 2.805S29 124.785 29 123.241c0-1.545 1.282-2.806 2.875-2.806s2.875 1.261 2.875 2.806Z" class="elektron"/>
    <path fill="url(#G)" stroke="#000" stroke-width=".5" d="M110.75 139.241c0 1.544-1.282 2.805-2.875 2.805S105 140.785 105 139.241c0-1.545 1.282-2.806 2.875-2.806s2.875 1.261 2.875 2.806Z" class="elektron"/>
    <path fill="url(#H)" stroke="#000" stroke-width=".5" d="M143.75 105.241c0 1.544-1.282 2.805-2.875 2.805S138 106.785 138 105.241c0-1.545 1.282-2.806 2.875-2.806s2.875 1.261 2.875 2.806Z" class="elektron"/>
    <path fill="url(#I)" stroke="#000" stroke-width=".5" d="M51.75 136.241c0 1.544-1.282 2.805-2.875 2.805S46 137.785 46 136.241c0-1.545 1.282-2.806 2.875-2.806s2.875 1.261 2.875 2.806Z" class="elektron"/>
    <path fill="url(#J)" stroke="#000" stroke-width=".5" d="M147.75 80.24c0 1.545-1.282 2.806-2.875 2.806S142 81.785 142 80.241c0-1.545 1.282-2.806 2.875-2.806s2.875 1.261 2.875 2.806Z" class="elektron"/>
    <path fill="url(#K)" stroke="#000" stroke-width=".5" d="M146.75 70.24c0 1.545-1.282 2.806-2.875 2.806S141 71.785 141 70.241c0-1.545 1.282-2.806 2.875-2.806s2.875 1.261 2.875 2.806Z" class="elektron"/>
    <path fill="url(#L)" stroke="#000" stroke-width=".5" d="M140.75 54.24c0 1.545-1.282 2.806-2.875 2.806S135 55.785 135 54.241c0-1.545 1.282-2.806 2.875-2.806s2.875 1.261 2.875 2.806Z" class="elektron"/>
    <path fill="url(#M)" stroke="#000" stroke-width=".5" d="M132.75 45.24c0 1.545-1.282 2.806-2.875 2.806S127 46.785 127 45.241c0-1.545 1.282-2.806 2.875-2.806s2.875 1.261 2.875 2.806Z" class="elektron"/>
    <path fill="url(#N)" stroke="#000" stroke-width=".5" d="M110.75 25.24c0 1.545-1.282 2.806-2.875 2.806S105 26.785 105 25.241c0-1.545 1.282-2.806 2.875-2.806s2.875 1.261 2.875 2.806Z" class="elektron"/>
    <path fill="url(#O)" stroke="#000" stroke-width=".5" d="M97.75 20.24c0 1.545-1.282 2.806-2.875 2.806S92 21.785 92 20.241c0-1.545 1.282-2.806 2.875-2.806s2.875 1.261 2.875 2.806Z" class="elektron"/>
    <path fill="url(#P)" stroke="#000" stroke-width=".5" d="M131.75 124.241c0 1.544-1.282 2.805-2.875 2.805S126 125.785 126 124.241c0-1.545 1.282-2.806 2.875-2.806s2.875 1.261 2.875 2.806Z" class="elektron"/>
    <path fill="url(#Q)" stroke="#000" stroke-width=".5" d="M138.75 114.241c0 1.544-1.282 2.805-2.875 2.805S133 115.785 133 114.241c0-1.545 1.282-2.806 2.875-2.806s2.875 1.261 2.875 2.806Z" class="elektron"/>
    <path fill="url(#R)" stroke="#000" stroke-width=".5" d="M147.75 92.24c0 1.545-1.282 2.806-2.875 2.806S142 93.785 142 92.241c0-1.545 1.282-2.806 2.875-2.806s2.875 1.261 2.875 2.806Z" class="elektron"/>
    <path fill="url(#S)" stroke="#000" stroke-width=".5" d="M41.75 129.241c0 1.544-1.282 2.805-2.875 2.805S36 130.785 36 129.241c0-1.545 1.282-2.806 2.875-2.806s2.875 1.261 2.875 2.806Z" class="elektron"/>
    <path fill="url(#T)" stroke="#000" stroke-width=".5" d="M42.75 34.24c0 1.545-1.282 2.806-2.875 2.806S37 35.785 37 34.241c0-1.545 1.282-2.806 2.875-2.806s2.875 1.261 2.875 2.806Z" class="elektron"/>
    <path fill="url(#U)" stroke="#000" stroke-width=".5" d="M33.75 43.24c0 1.545-1.282 2.806-2.875 2.806S28 44.785 28 43.241c0-1.545 1.282-2.806 2.875-2.806s2.875 1.261 2.875 2.806Z" class="elektron"/>
    <path fill="url(#V)" stroke="#000" stroke-width=".5" d="M56.75 25.24c0 1.545-1.282 2.806-2.875 2.806S51 26.785 51 25.241c0-1.545 1.282-2.806 2.875-2.806s2.875 1.261 2.875 2.806Z" class="elektron"/>
    <path fill="url(#W)" stroke="#000" stroke-width=".5" d="M121.75 32.24c0 1.545-1.282 2.806-2.875 2.806S116 33.785 116 32.241c0-1.545 1.282-2.806 2.875-2.806s2.875 1.261 2.875 2.806Z" class="elektron"/>
    <path fill="url(#X)" stroke="#000" stroke-width=".5" d="M83.75 19.24c0 1.545-1.282 2.806-2.875 2.806S78 20.785 78 19.241c0-1.545 1.282-2.806 2.875-2.806s2.875 1.261 2.875 2.806Z" class="elektron"/>
    <path fill="url(#Y)" stroke="#000" stroke-width=".5" d="M69.75 20.24c0 1.545-1.282 2.806-2.875 2.806S64 21.785 64 20.241c0-1.545 1.282-2.806 2.875-2.806s2.875 1.261 2.875 2.806Z" class="elektron"/>
    <path fill="url(#Z)" stroke="#000" stroke-width=".5" d="M83.75 11.24c0 1.545-1.282 2.806-2.875 2.806S78 12.785 78 11.241c0-1.545 1.282-2.806 2.875-2.806s2.875 1.261 2.875 2.806Z" class="elektron"/>
    <path fill="url(#aa)" stroke="#000" stroke-width=".5" d="M83.75 3.24c0 1.545-1.282 2.806-2.875 2.806S78 4.785 78 3.241C78 1.696 79.282.435 80.875.435s2.875 1.261 2.875 2.806Z" class="elektron"/>
    <path fill="url(#ab)" stroke="#000" stroke-width=".5" d="M86.75 154.241c0 1.544-1.282 2.805-2.875 2.805S81 155.785 81 154.241c0-1.545 1.282-2.806 2.875-2.806s2.875 1.261 2.875 2.806Z" class="elektron"/>
    <path fill="url(#ac)" stroke="#000" stroke-width=".5" d="M86.75 162.241c0 1.544-1.282 2.805-2.875 2.805S81 163.785 81 162.241c0-1.544 1.282-2.806 2.875-2.806s2.875 1.262 2.875 2.806Z" class="elektron"/>
    <path fill="url(#ad)" stroke="#000" stroke-width=".5" d="M164.75 80.24c0 1.545-1.282 2.806-2.875 2.806S159 81.785 159 80.241c0-1.544 1.282-2.806 2.875-2.806s2.875 1.261 2.875 2.806Z" class="elektron"/>
    <path fill="url(#ae)" stroke="#000" stroke-width=".5" d="M9.75 78.24c0 1.545-1.282 2.806-2.875 2.806S4 79.785 4 78.241c0-1.544 1.282-2.806 2.875-2.806s2.875 1.261 2.875 2.806Z" class="elektron"/>
    <path fill="url(#af)" stroke="#000" stroke-width=".5" d="M127.75 26.24c0 1.545-1.282 2.806-2.875 2.806S122 27.785 122 26.241c0-1.544 1.282-2.806 2.875-2.806s2.875 1.262 2.875 2.806Z" class="elektron"/>
    <path fill="url(#ag)" stroke="#000" stroke-width=".5" d="M36.75 27.24c0 1.545-1.282 2.806-2.875 2.806S31 28.785 31 27.241c0-1.544 1.282-2.806 2.875-2.806s2.875 1.262 2.875 2.806Z" class="elektron"/>
    <path fill="url(#ah)" stroke="#000" stroke-width=".5" d="M156.75 79.24c0 1.545-1.282 2.806-2.875 2.806S151 80.785 151 79.241c0-1.544 1.282-2.806 2.875-2.806s2.875 1.261 2.875 2.806Z" class="elektron"/>
    <path fill="url(#ai)" stroke="#000" stroke-width=".5" d="M44.75 143.241c0 1.544-1.282 2.805-2.875 2.805S39 144.785 39 143.241c0-1.544 1.282-2.806 2.875-2.806s2.875 1.262 2.875 2.806Z" class="elektron"/>
    <path fill="url(#aj)" stroke="#000" stroke-width=".5" d="M140.75 126.241c0 1.544-1.282 2.805-2.875 2.805S135 127.785 135 126.241c0-1.544 1.282-2.806 2.875-2.806s2.875 1.262 2.875 2.806Z" class="elektron"/>
    <path fill="url(#ak)" stroke="#000" stroke-width=".5" d="M19.75 79.24c0 1.545-1.282 2.806-2.875 2.806S14 80.785 14 79.241c0-1.544 1.282-2.806 2.875-2.806s2.875 1.261 2.875 2.806Z" class="elektron"/>
    <path fill="url(#al)" stroke="#000" stroke-width=".5" d="M22.75 64.24c0 1.545-1.282 2.806-2.875 2.806S17 65.785 17 64.241c0-1.544 1.282-2.806 2.875-2.806s2.875 1.261 2.875 2.806Z" class="elektron"/>
    <path fill="url(#am)" stroke="#000" stroke-width=".5" d="M28.75 51.24c0 1.545-1.282 2.806-2.875 2.806S23 52.785 23 51.241c0-1.544 1.282-2.806 2.875-2.806s2.875 1.261 2.875 2.806Z" class="elektron"/>
    <path fill="url(#an)" stroke="#000" stroke-width=".5" d="M107.75 132.241c0 1.544-1.282 2.805-2.875 2.805S102 133.785 102 132.241c0-1.544 1.282-2.806 2.875-2.806s2.875 1.262 2.875 2.806Z" class="elektron"/>
    <path fill="url(#ao)" stroke="#000" stroke-width=".5" d="M116.75 127.241c0 1.544-1.282 2.805-2.875 2.805S111 128.785 111 127.241c0-1.544 1.282-2.806 2.875-2.806s2.875 1.262 2.875 2.806Z" class="elektron"/>
    <path fill="url(#ap)" stroke="#000" stroke-width=".5" d="M131.75 112.241c0 1.544-1.282 2.805-2.875 2.805S126 113.785 126 112.241c0-1.544 1.282-2.806 2.875-2.806s2.875 1.262 2.875 2.806Z" class="elektron"/>
    <path fill="url(#aq)" stroke="#000" stroke-width=".5" d="M96.75 136.241c0 1.544-1.282 2.805-2.875 2.805S91 137.785 91 136.241c0-1.545 1.282-2.806 2.875-2.806s2.875 1.261 2.875 2.806Z" class="elektron"/>
    <path fill="url(#ar)" stroke="#000" stroke-width=".5" d="M59.75 131.241c0 1.544-1.282 2.805-2.875 2.805S54 132.785 54 131.241c0-1.544 1.282-2.806 2.875-2.806s2.875 1.262 2.875 2.806Z" class="elektron"/>
    <path fill="url(#as)" stroke="#000" stroke-width=".5" d="M48.75 126.241c0 1.544-1.282 2.805-2.875 2.805S43 127.785 43 126.241c0-1.544 1.282-2.806 2.875-2.806s2.875 1.262 2.875 2.806Z" class="elektron"/>
    <path fill="url(#at)" stroke="#000" stroke-width=".5" d="M28.75 81.24c0 1.545-1.282 2.806-2.875 2.806S23 82.785 23 81.241c0-1.544 1.282-2.806 2.875-2.806s2.875 1.261 2.875 2.806Z" class="elektron"/>
    <path fill="url(#au)" stroke="#000" stroke-width=".5" d="M44.75 43.24c0 1.545-1.282 2.806-2.875 2.806S39 44.785 39 43.241c0-1.544 1.282-2.806 2.875-2.806s2.875 1.261 2.875 2.806Z" class="elektron"/>
    <path fill="url(#av)" stroke="#000" stroke-width=".5" d="M69.75 30.24c0 1.545-1.282 2.806-2.875 2.806S64 31.785 64 30.241c0-1.544 1.282-2.806 2.875-2.806s2.875 1.262 2.875 2.806Z" class="elektron"/>
    <path fill="url(#aw)" stroke="#000" stroke-width=".5" d="M55.75 36.24c0 1.545-1.282 2.806-2.875 2.806S50 37.785 50 36.241c0-1.544 1.282-2.806 2.875-2.806s2.875 1.261 2.875 2.806Z" class="elektron"/>
    <path fill="url(#ax)" stroke="#000" stroke-width=".5" d="M140.75 81.24c0 1.545-1.282 2.806-2.875 2.806S135 82.785 135 81.241c0-1.544 1.282-2.806 2.875-2.806s2.875 1.261 2.875 2.806Z" class="elektron"/>
    <path fill="url(#ay)" stroke="#000" stroke-width=".5" d="M135.75 104.241c0 1.544-1.282 2.805-2.875 2.805S130 105.785 130 104.241c0-1.544 1.282-2.806 2.875-2.806s2.875 1.262 2.875 2.806Z" class="elektron"/>
    <path fill="url(#az)" stroke="#000" stroke-width=".5" d="M124.75 120.241c0 1.544-1.282 2.805-2.875 2.805S119 121.785 119 120.241c0-1.544 1.282-2.806 2.875-2.806s2.875 1.262 2.875 2.806Z" class="elektron"/>
    <path fill="url(#aA)" stroke="#000" stroke-width=".5" d="M71.75 137.241c0 1.544-1.282 2.805-2.875 2.805S66 138.785 66 137.241c0-1.544 1.282-2.806 2.875-2.806s2.875 1.262 2.875 2.806Z" class="elektron"/>
    <path fill="url(#aB)" stroke="#000" stroke-width=".5" d="M128.75 49.24c0 1.545-1.282 2.806-2.875 2.806S123 50.785 123 49.241c0-1.544 1.282-2.806 2.875-2.806s2.875 1.261 2.875 2.806Z" class="elektron"/>
    <path fill="url(#aC)" stroke="#000" stroke-width=".5" d="M138.75 94.24c0 1.545-1.282 2.806-2.875 2.806S133 95.785 133 94.241c0-1.544 1.282-2.806 2.875-2.806s2.875 1.261 2.875 2.806Z" class="elektron"/>
    <path fill="url(#aD)" stroke="#000" stroke-width=".5" d="M41.75 119.241c0 1.544-1.282 2.805-2.875 2.805S36 120.785 36 119.241c0-1.544 1.282-2.806 2.875-2.806s2.875 1.262 2.875 2.806Z" class="elektron"/>
    <path fill="url(#aE)" stroke="#000" stroke-width=".5" d="M35.75 111.241c0 1.544-1.282 2.805-2.875 2.805S30 112.785 30 111.241c0-1.544 1.282-2.806 2.875-2.806s2.875 1.262 2.875 2.806Z" class="elektron"/>
    <path fill="url(#aF)" stroke="#000" stroke-width=".5" d="M29.75 92.24c0 1.545-1.282 2.806-2.875 2.806S24 93.785 24 92.241c0-1.544 1.282-2.806 2.875-2.806s2.875 1.261 2.875 2.806Z" class="elektron"/>
    <path fill="url(#aG)" stroke="#000" stroke-width=".5" d="M39.75 49.24c0 1.545-1.282 2.806-2.875 2.806S34 50.785 34 49.241c0-1.544 1.282-2.806 2.875-2.806s2.875 1.261 2.875 2.806Z" class="elektron"/>
    <path fill="url(#aH)" stroke="#000" stroke-width=".5" d="M32.75 103.241c0 1.544-1.282 2.805-2.875 2.805S27 104.785 27 103.241c0-1.544 1.282-2.806 2.875-2.806s2.875 1.262 2.875 2.806Z" class="elektron"/>
    <path fill="url(#aI)" stroke="#000" stroke-width=".5" d="M33.75 57.24c0 1.545-1.282 2.806-2.875 2.806S28 58.785 28 57.241c0-1.544 1.282-2.806 2.875-2.806s2.875 1.261 2.875 2.806Z" class="elektron"/>
    <path fill="url(#aJ)" stroke="#000" stroke-width=".5" d="M29.75 69.24c0 1.545-1.282 2.806-2.875 2.806S24 70.785 24 69.241c0-1.544 1.282-2.806 2.875-2.806s2.875 1.261 2.875 2.806Z" class="elektron"/>
    <path fill="url(#aK)" stroke="#000" stroke-width=".5" d="M83.75 128.241c0 1.544-1.282 2.805-2.875 2.805S78 129.785 78 128.241c0-1.544 1.282-2.806 2.875-2.806s2.875 1.262 2.875 2.806Z" class="elektron"/>
    <path fill="url(#aL)" stroke="#000" stroke-width=".5" d="M36.75 74.24c0 1.545-1.282 2.806-2.875 2.806S31 75.785 31 74.241c0-1.544 1.282-2.806 2.875-2.806s2.875 1.261 2.875 2.806Z" class="elektron"/>
    <path fill="url(#aM)" stroke="#000" stroke-width=".5" d="M98.75 124.241c0 1.544-1.282 2.805-2.875 2.805S93 125.785 93 124.241c0-1.544 1.282-2.806 2.875-2.806s2.875 1.262 2.875 2.806Z" class="elektron"/>
    <path fill="url(#aN)" stroke="#000" stroke-width=".5" d="M35.75 90.24c0 1.545-1.282 2.806-2.875 2.806S30 91.785 30 90.241c0-1.544 1.282-2.806 2.875-2.806s2.875 1.261 2.875 2.806Z" class="elektron"/>
    <path fill="url(#aO)" stroke="#000" stroke-width=".5" d="M123.75 55.24c0 1.545-1.282 2.806-2.875 2.806S118 56.785 118 55.241c0-1.544 1.282-2.806 2.875-2.806s2.875 1.261 2.875 2.806Z" class="elektron"/>
    <path fill="url(#aP)" stroke="#000" stroke-width=".5" d="M115.75 117.241c0 1.544-1.282 2.805-2.875 2.805S110 118.785 110 117.241c0-1.544 1.282-2.806 2.875-2.806s2.875 1.262 2.875 2.806Z" class="elektron"/>
    <path fill="url(#aQ)" stroke="#000" stroke-width=".5" d="M108.75 100.241c0 1.544-1.282 2.805-2.875 2.805S103 101.785 103 100.241c0-1.544 1.282-2.806 2.875-2.806s2.875 1.261 2.875 2.806Z" class="elektron"/>
    <path fill="url(#aR)" stroke="#000" stroke-width=".5" d="M85.75 43.24c0 1.545-1.282 2.806-2.875 2.806S80 44.785 80 43.241c0-1.544 1.282-2.806 2.875-2.806s2.875 1.261 2.875 2.806Z" class="elektron"/>
    <path fill="url(#aS)" stroke="#000" stroke-width=".5" d="M84.75 120.241c0 1.544-1.282 2.805-2.875 2.805S79 121.785 79 120.241c0-1.544 1.282-2.806 2.875-2.806s2.875 1.262 2.875 2.806Z" class="elektron"/>
    <path fill="url(#aT)" stroke="#000" stroke-width=".5" d="M61.75 114.241c0 1.544-1.282 2.805-2.875 2.805S56 115.785 56 114.241c0-1.544 1.282-2.806 2.875-2.806s2.875 1.262 2.875 2.806Z" class="elektron"/>
    <path fill="url(#aU)" stroke="#000" stroke-width=".5" d="M107.75 111.241c0 1.544-1.282 2.805-2.875 2.805S102 112.785 102 111.241c0-1.545 1.282-2.806 2.875-2.806s2.875 1.261 2.875 2.806Z" class="elektron"/>
    <path fill="url(#aV)" stroke="#000" stroke-width=".5" d="M124.75 83.24c0 1.545-1.282 2.806-2.875 2.806S119 84.785 119 83.241c0-1.545 1.282-2.806 2.875-2.806s2.875 1.261 2.875 2.806Z" class="elektron"/>
    <path fill="url(#aW)" stroke="#000" stroke-width=".5" d="M41.75 59.24c0 1.545-1.282 2.806-2.875 2.806S36 60.785 36 59.241c0-1.545 1.282-2.806 2.875-2.806s2.875 1.261 2.875 2.806Z" class="elektron"/>
    <path fill="url(#aX)" stroke="#000" stroke-width=".5" d="M53.75 44.24c0 1.545-1.282 2.806-2.875 2.806S48 45.785 48 44.241c0-1.545 1.282-2.806 2.875-2.806s2.875 1.261 2.875 2.806Z" class="elektron"/>
  </g>
  <defs>
    <radialGradient id="a" cx="0" cy="0" r="1" class="a" gradientTransform="matrix(0 2.59058 -2.63514 0 80.473 82.7)" gradientUnits="userSpaceOnUse">
      <stop stop-color="#F80A0A"/>
      <stop offset="1" stop-color="#690404"/>
    </radialGradient>
    <radialGradient id="b" cx="0" cy="0" r="1" class="b" gradientTransform="matrix(0 3.05556 -3.125 0 58.875 49.24)" gradientUnits="userSpaceOnUse">
      <stop stop-color="#00C2FF"/>
      <stop offset="1" stop-color="#0051A3"/>
    </radialGradient>
    <radialGradient id="c" cx="0" cy="0" r="1" class="c" gradientTransform="matrix(0 3.05556 -3.125 0 40.875 85.24)" gradientUnits="userSpaceOnUse">
      <stop stop-color="#00C2FF"/>
      <stop offset="1" stop-color="#0051A3"/>
    </radialGradient>
    <radialGradient id="d" cx="0" cy="0" r="1" class="d" gradientTransform="matrix(0 3.05556 -3.125 0 104.875 49.24)" gradientUnits="userSpaceOnUse">
      <stop stop-color="#00C2FF"/>
      <stop offset="1" stop-color="#0051A3"/>
    </radialGradient>
    <radialGradient id="e" cx="0" cy="0" r="1" class="e" gradientTransform="matrix(0 3.05556 -3.125 0 70.875 51.24)" gradientUnits="userSpaceOnUse">
      <stop stop-color="#00C2FF"/>
      <stop offset="1" stop-color="#0051A3"/>
    </radialGradient>
    <radialGradient id="f" cx="0" cy="0" r="1" class="f" gradientTransform="matrix(0 3.05556 -3.125 0 38.875 104.241)" gradientUnits="userSpaceOnUse">
      <stop stop-color="#00C2FF"/>
      <stop offset="1" stop-color="#0051A3"/>
    </radialGradient>
    <radialGradient id="g" cx="0" cy="0" r="1" class="g" gradientTransform="matrix(0 3.05556 -3.125 0 97.875 36.24)" gradientUnits="userSpaceOnUse">
      <stop stop-color="#00C2FF"/>
      <stop offset="1" stop-color="#0051A3"/>
    </radialGradient>
    <radialGradient id="h" cx="0" cy="0" r="1" class="h" gradientTransform="matrix(0 3.05556 -3.125 0 125.875 64.24)" gradientUnits="userSpaceOnUse">
      <stop stop-color="#00C2FF"/>
      <stop offset="1" stop-color="#0051A3"/>
    </radialGradient>
    <radialGradient id="i" cx="0" cy="0" r="1" class="i" gradientTransform="matrix(0 3.05556 -3.125 0 130.875 82.24)" gradientUnits="userSpaceOnUse">
      <stop stop-color="#00C2FF"/>
      <stop offset="1" stop-color="#0051A3"/>
    </radialGradient>
    <radialGradient id="j" cx="0" cy="0" r="1" class="j" gradientTransform="matrix(0 3.05556 -3.125 0 82.875 34.24)" gradientUnits="userSpaceOnUse">
      <stop stop-color="#00C2FF"/>
      <stop offset="1" stop-color="#0051A3"/>
    </radialGradient>
    <radialGradient id="k" cx="0" cy="0" r="1" class="k" gradientTransform="matrix(0 3.05556 -3.125 0 114.875 48.24)" gradientUnits="userSpaceOnUse">
      <stop stop-color="#00C2FF"/>
      <stop offset="1" stop-color="#0051A3"/>
    </radialGradient>
    <radialGradient id="l" cx="0" cy="0" r="1" class="l" gradientTransform="matrix(0 3.05556 -3.125 0 65.875 126.241)" gradientUnits="userSpaceOnUse">
      <stop stop-color="#00C2FF"/>
      <stop offset="1" stop-color="#0051A3"/>
    </radialGradient>
    <radialGradient id="m" cx="0" cy="0" r="1" class="m" gradientTransform="matrix(0 3.05556 -3.125 0 48.875 118.241)" gradientUnits="userSpaceOnUse">
      <stop stop-color="#00C2FF"/>
      <stop offset="1" stop-color="#0051A3"/>
    </radialGradient>
    <radialGradient id="n" cx="0" cy="0" r="1" class="n" gradientTransform="scale(3.125 3.05556) rotate(90 3.09 36.55)" gradientUnits="userSpaceOnUse">
      <stop stop-color="#00C2FF"/>
      <stop offset="1" stop-color="#0051A3"/>
    </radialGradient>
    <radialGradient id="o" cx="0" cy="0" r="1" class="o" gradientTransform="matrix(0 3.05556 -3.125 0 66.875 36.24)" gradientUnits="userSpaceOnUse">
      <stop stop-color="#00C2FF"/>
      <stop offset="1" stop-color="#0051A3"/>
    </radialGradient>
    <radialGradient id="p" cx="0" cy="0" r="1" class="p" gradientTransform="matrix(0 3.05556 -3.125 0 82.875 26.24)" gradientUnits="userSpaceOnUse">
      <stop stop-color="#00C2FF"/>
      <stop offset="1" stop-color="#0051A3"/>
    </radialGradient>
    <radialGradient id="q" cx="0" cy="0" r="1" class="q" gradientTransform="matrix(0 3.05556 -3.125 0 104.875 32.24)" gradientUnits="userSpaceOnUse">
      <stop stop-color="#00C2FF"/>
      <stop offset="1" stop-color="#0051A3"/>
    </radialGradient>
    <radialGradient id="r" cx="0" cy="0" r="1" class="r" gradientTransform="matrix(0 3.05556 -3.125 0 93.875 28.24)" gradientUnits="userSpaceOnUse">
      <stop stop-color="#00C2FF"/>
      <stop offset="1" stop-color="#0051A3"/>
    </radialGradient>
    <radialGradient id="s" cx="0" cy="0" r="1" class="s" gradientTransform="matrix(0 3.05556 -3.125 0 118.875 40.24)" gradientUnits="userSpaceOnUse">
      <stop stop-color="#00C2FF"/>
      <stop offset="1" stop-color="#0051A3"/>
    </radialGradient>
    <radialGradient id="t" cx="0" cy="0" r="1" class="t" gradientTransform="matrix(0 3.05556 -3.125 0 133.875 60.24)" gradientUnits="userSpaceOnUse">
      <stop stop-color="#00C2FF"/>
      <stop offset="1" stop-color="#0051A3"/>
    </radialGradient>
    <radialGradient id="u" cx="0" cy="0" r="1" class="u" gradientTransform="matrix(0 3.05556 -3.125 0 136.875 71.24)" gradientUnits="userSpaceOnUse">
      <stop stop-color="#00C2FF"/>
      <stop offset="1" stop-color="#0051A3"/>
    </radialGradient>
    <radialGradient id="v" cx="0" cy="0" r="1" class="v" gradientTransform="matrix(0 3.05556 -3.125 0 82.875 137.241)" gradientUnits="userSpaceOnUse">
      <stop stop-color="#00C2FF"/>
      <stop offset="1" stop-color="#0051A3"/>
    </radialGradient>
    <radialGradient id="w" cx="0" cy="0" r="1" class="w" gradientTransform="matrix(0 3.05556 -3.125 0 81.875 145.241)" gradientUnits="userSpaceOnUse">
      <stop stop-color="#00C2FF"/>
      <stop offset="1" stop-color="#0051A3"/>
    </radialGradient>
    <radialGradient id="x" cx="0" cy="0" r="1" class="x" gradientTransform="matrix(0 3.05556 -3.125 0 69.875 145.241)" gradientUnits="userSpaceOnUse">
      <stop stop-color="#00C2FF"/>
      <stop offset="1" stop-color="#0051A3"/>
    </radialGradient>
    <radialGradient id="y" cx="0" cy="0" r="1" class="y" gradientTransform="matrix(0 3.05556 -3.125 0 95.875 144.241)" gradientUnits="userSpaceOnUse">
      <stop stop-color="#00C2FF"/>
      <stop offset="1" stop-color="#0051A3"/>
    </radialGradient>
    <radialGradient id="z" cx="0" cy="0" r="1" class="z" gradientTransform="matrix(0 3.05556 -3.125 0 119.875 132.241)" gradientUnits="userSpaceOnUse">
      <stop stop-color="#00C2FF"/>
      <stop offset="1" stop-color="#0051A3"/>
    </radialGradient>
    <radialGradient id="A" cx="0" cy="0" r="1" class="A" gradientTransform="matrix(0 3.05556 -3.125 0 58.875 142.241)" gradientUnits="userSpaceOnUse">
      <stop stop-color="#00C2FF"/>
      <stop offset="1" stop-color="#0051A3"/>
    </radialGradient>
    <radialGradient id="B" cx="0" cy="0" r="1" class="B" gradientTransform="matrix(0 3.05556 -3.125 0 26.875 116.241)" gradientUnits="userSpaceOnUse">
      <stop stop-color="#00C2FF"/>
      <stop offset="1" stop-color="#0051A3"/>
    </radialGradient>
    <radialGradient id="C" cx="0" cy="0" r="1" class="C" gradientTransform="matrix(0 3.05556 -3.125 0 21.875 106.241)" gradientUnits="userSpaceOnUse">
      <stop stop-color="#00C2FF"/>
      <stop offset="1" stop-color="#0051A3"/>
    </radialGradient>
    <radialGradient id="D" cx="0" cy="0" r="1" class="D" gradientTransform="matrix(0 3.05556 -3.125 0 18.875 98.24)" gradientUnits="userSpaceOnUse">
      <stop stop-color="#00C2FF"/>
      <stop offset="1" stop-color="#0051A3"/>
    </radialGradient>
    <radialGradient id="E" cx="0" cy="0" r="1" class="E" gradientTransform="matrix(0 3.05556 -3.125 0 16.875 89.24)" gradientUnits="userSpaceOnUse">
      <stop stop-color="#00C2FF"/>
      <stop offset="1" stop-color="#0051A3"/>
    </radialGradient>
    <radialGradient id="F" cx="0" cy="0" r="1" class="F" gradientTransform="matrix(0 3.05556 -3.125 0 31.875 123.241)" gradientUnits="userSpaceOnUse">
      <stop stop-color="#00C2FF"/>
      <stop offset="1" stop-color="#0051A3"/>
    </radialGradient>
    <radialGradient id="G" cx="0" cy="0" r="1" class="G" gradientTransform="matrix(0 3.05556 -3.125 0 107.875 139.241)" gradientUnits="userSpaceOnUse">
      <stop stop-color="#00C2FF"/>
      <stop offset="1" stop-color="#0051A3"/>
    </radialGradient>
    <radialGradient id="H" cx="0" cy="0" r="1" class="H" gradientTransform="matrix(0 3.05556 -3.125 0 140.875 105.241)" gradientUnits="userSpaceOnUse">
      <stop stop-color="#00C2FF"/>
      <stop offset="1" stop-color="#0051A3"/>
    </radialGradient>
    <radialGradient id="I" cx="0" cy="0" r="1" class="I" gradientTransform="matrix(0 3.05556 -3.125 0 48.875 136.241)" gradientUnits="userSpaceOnUse">
      <stop stop-color="#00C2FF"/>
      <stop offset="1" stop-color="#0051A3"/>
    </radialGradient>
    <radialGradient id="J" cx="0" cy="0" r="1" class="J" gradientTransform="matrix(0 3.05556 -3.125 0 144.875 80.24)" gradientUnits="userSpaceOnUse">
      <stop stop-color="#00C2FF"/>
      <stop offset="1" stop-color="#0051A3"/>
    </radialGradient>
    <radialGradient id="K" cx="0" cy="0" r="1" class="K" gradientTransform="matrix(0 3.05556 -3.125 0 143.875 70.24)" gradientUnits="userSpaceOnUse">
      <stop stop-color="#00C2FF"/>
      <stop offset="1" stop-color="#0051A3"/>
    </radialGradient>
    <radialGradient id="L" cx="0" cy="0" r="1" class="L" gradientTransform="matrix(0 3.05556 -3.125 0 137.875 54.24)" gradientUnits="userSpaceOnUse">
      <stop stop-color="#00C2FF"/>
      <stop offset="1" stop-color="#0051A3"/>
    </radialGradient>
    <radialGradient id="M" cx="0" cy="0" r="1" class="M" gradientTransform="matrix(0 3.05556 -3.125 0 129.875 45.24)" gradientUnits="userSpaceOnUse">
      <stop stop-color="#00C2FF"/>
      <stop offset="1" stop-color="#0051A3"/>
    </radialGradient>
    <radialGradient id="N" cx="0" cy="0" r="1" class="N" gradientTransform="matrix(0 3.05556 -3.125 0 107.875 25.24)" gradientUnits="userSpaceOnUse">
      <stop stop-color="#00C2FF"/>
      <stop offset="1" stop-color="#0051A3"/>
    </radialGradient>
    <radialGradient id="O" cx="0" cy="0" r="1" class="O" gradientTransform="matrix(0 3.05556 -3.125 0 94.875 20.24)" gradientUnits="userSpaceOnUse">
      <stop stop-color="#00C2FF"/>
      <stop offset="1" stop-color="#0051A3"/>
    </radialGradient>
    <radialGradient id="P" cx="0" cy="0" r="1" class="P" gradientTransform="scale(3.125 3.05556) rotate(90 .29 40.95)" gradientUnits="userSpaceOnUse">
      <stop stop-color="#00C2FF"/>
      <stop offset="1" stop-color="#0051A3"/>
    </radialGradient>
    <radialGradient id="Q" cx="0" cy="0" r="1" class="Q" gradientTransform="matrix(0 3.05556 -3.125 0 135.875 114.241)" gradientUnits="userSpaceOnUse">
      <stop stop-color="#00C2FF"/>
      <stop offset="1" stop-color="#0051A3"/>
    </radialGradient>
    <radialGradient id="R" cx="0" cy="0" r="1" class="R" gradientTransform="matrix(0 3.05556 -3.125 0 144.875 92.24)" gradientUnits="userSpaceOnUse">
      <stop stop-color="#00C2FF"/>
      <stop offset="1" stop-color="#0051A3"/>
    </radialGradient>
    <radialGradient id="S" cx="0" cy="0" r="1" class="S" gradientTransform="matrix(0 3.05556 -3.125 0 38.875 129.241)" gradientUnits="userSpaceOnUse">
      <stop stop-color="#00C2FF"/>
      <stop offset="1" stop-color="#0051A3"/>
    </radialGradient>
    <radialGradient id="T" cx="0" cy="0" r="1" class="T" gradientTransform="matrix(0 3.05556 -3.125 0 39.875 34.24)" gradientUnits="userSpaceOnUse">
      <stop stop-color="#00C2FF"/>
      <stop offset="1" stop-color="#0051A3"/>
    </radialGradient>
    <radialGradient id="U" cx="0" cy="0" r="1" class="U" gradientTransform="matrix(0 3.05556 -3.125 0 30.875 43.24)" gradientUnits="userSpaceOnUse">
      <stop stop-color="#00C2FF"/>
      <stop offset="1" stop-color="#0051A3"/>
    </radialGradient>
    <radialGradient id="V" cx="0" cy="0" r="1" class="V" gradientTransform="matrix(0 3.05556 -3.125 0 53.875 25.24)" gradientUnits="userSpaceOnUse">
      <stop stop-color="#00C2FF"/>
      <stop offset="1" stop-color="#0051A3"/>
    </radialGradient>
    <radialGradient id="W" cx="0" cy="0" r="1" class="W" gradientTransform="matrix(0 3.05556 -3.125 0 118.875 32.24)" gradientUnits="userSpaceOnUse">
      <stop stop-color="#00C2FF"/>
      <stop offset="1" stop-color="#0051A3"/>
    </radialGradient>
    <radialGradient id="X" cx="0" cy="0" r="1" class="X" gradientTransform="matrix(0 3.05556 -3.125 0 80.875 19.24)" gradientUnits="userSpaceOnUse">
      <stop stop-color="#00C2FF"/>
      <stop offset="1" stop-color="#0051A3"/>
    </radialGradient>
    <radialGradient id="Y" cx="0" cy="0" r="1" class="Y" gradientTransform="matrix(0 3.05556 -3.125 0 66.875 20.24)" gradientUnits="userSpaceOnUse">
      <stop stop-color="#00C2FF"/>
      <stop offset="1" stop-color="#0051A3"/>
    </radialGradient>
    <radialGradient id="Z" cx="0" cy="0" r="1" class="Z" gradientTransform="matrix(0 3.05556 -3.125 0 80.875 11.24)" gradientUnits="userSpaceOnUse">
      <stop stop-color="#00C2FF"/>
      <stop offset="1" stop-color="#0051A3"/>
    </radialGradient>
    <radialGradient id="aa" cx="0" cy="0" r="1" class="aa" gradientTransform="matrix(0 3.05556 -3.125 0 80.875 3.24)" gradientUnits="userSpaceOnUse">
      <stop stop-color="#00C2FF"/>
      <stop offset="1" stop-color="#0051A3"/>
    </radialGradient>
    <radialGradient id="ab" cx="0" cy="0" r="1" class="ab" gradientTransform="matrix(0 3.05556 -3.125 0 83.875 154.241)" gradientUnits="userSpaceOnUse">
      <stop stop-color="#00C2FF"/>
      <stop offset="1" stop-color="#0051A3"/>
    </radialGradient>
    <radialGradient id="ac" cx="0" cy="0" r="1" class="ac" gradientTransform="matrix(0 3.05556 -3.125 0 83.875 162.241)" gradientUnits="userSpaceOnUse">
      <stop stop-color="#00C2FF"/>
      <stop offset="1" stop-color="#0051A3"/>
    </radialGradient>
    <radialGradient id="ad" cx="0" cy="0" r="1" class="ad" gradientTransform="matrix(0 3.05556 -3.125 0 161.875 80.24)" gradientUnits="userSpaceOnUse">
      <stop stop-color="#00C2FF"/>
      <stop offset="1" stop-color="#0051A3"/>
    </radialGradient>
    <radialGradient id="ae" cx="0" cy="0" r="1" class="ae" gradientTransform="matrix(0 3.05556 -3.125 0 6.875 78.24)" gradientUnits="userSpaceOnUse">
      <stop stop-color="#00C2FF"/>
      <stop offset="1" stop-color="#0051A3"/>
    </radialGradient>
    <radialGradient id="af" cx="0" cy="0" r="1" class="af" gradientTransform="matrix(0 3.05556 -3.125 0 124.875 26.24)" gradientUnits="userSpaceOnUse">
      <stop stop-color="#00C2FF"/>
      <stop offset="1" stop-color="#0051A3"/>
    </radialGradient>
    <radialGradient id="ag" cx="0" cy="0" r="1" class="ag" gradientTransform="matrix(0 3.05556 -3.125 0 33.875 27.24)" gradientUnits="userSpaceOnUse">
      <stop stop-color="#00C2FF"/>
      <stop offset="1" stop-color="#0051A3"/>
    </radialGradient>
    <radialGradient id="ah" cx="0" cy="0" r="1" class="ah" gradientTransform="matrix(0 3.05556 -3.125 0 153.875 79.24)" gradientUnits="userSpaceOnUse">
      <stop stop-color="#00C2FF"/>
      <stop offset="1" stop-color="#0051A3"/>
    </radialGradient>
    <radialGradient id="ai" cx="0" cy="0" r="1" class="ai" gradientTransform="matrix(0 3.05556 -3.125 0 41.875 143.241)" gradientUnits="userSpaceOnUse">
      <stop stop-color="#00C2FF"/>
      <stop offset="1" stop-color="#0051A3"/>
    </radialGradient>
    <radialGradient id="aj" cx="0" cy="0" r="1" class="aj" gradientTransform="matrix(0 3.05556 -3.125 0 137.875 126.241)" gradientUnits="userSpaceOnUse">
      <stop stop-color="#00C2FF"/>
      <stop offset="1" stop-color="#0051A3"/>
    </radialGradient>
    <radialGradient id="ak" cx="0" cy="0" r="1" class="ak" gradientTransform="matrix(0 3.05556 -3.125 0 16.875 79.24)" gradientUnits="userSpaceOnUse">
      <stop stop-color="#00C2FF"/>
      <stop offset="1" stop-color="#0051A3"/>
    </radialGradient>
    <radialGradient id="al" cx="0" cy="0" r="1" class="al" gradientTransform="matrix(0 3.05556 -3.125 0 19.875 64.24)" gradientUnits="userSpaceOnUse">
      <stop stop-color="#00C2FF"/>
      <stop offset="1" stop-color="#0051A3"/>
    </radialGradient>
    <radialGradient id="am" cx="0" cy="0" r="1" class="am" gradientTransform="matrix(0 3.05556 -3.125 0 25.875 51.24)" gradientUnits="userSpaceOnUse">
      <stop stop-color="#00C2FF"/>
      <stop offset="1" stop-color="#0051A3"/>
    </radialGradient>
    <radialGradient id="an" cx="0" cy="0" r="1" class="an" gradientTransform="matrix(0 3.05556 -3.125 0 104.875 132.241)" gradientUnits="userSpaceOnUse">
      <stop stop-color="#00C2FF"/>
      <stop offset="1" stop-color="#0051A3"/>
    </radialGradient>
    <radialGradient id="ao" cx="0" cy="0" r="1" class="ao" gradientTransform="matrix(0 3.05556 -3.125 0 113.875 127.241)" gradientUnits="userSpaceOnUse">
      <stop stop-color="#00C2FF"/>
      <stop offset="1" stop-color="#0051A3"/>
    </radialGradient>
    <radialGradient id="ap" cx="0" cy="0" r="1" class="ap" gradientTransform="matrix(0 3.05556 -3.125 0 128.875 112.241)" gradientUnits="userSpaceOnUse">
      <stop stop-color="#00C2FF"/>
      <stop offset="1" stop-color="#0051A3"/>
    </radialGradient>
    <radialGradient id="aq" cx="0" cy="0" r="1" class="aq" gradientTransform="matrix(0 3.05556 -3.125 0 93.875 136.241)" gradientUnits="userSpaceOnUse">
      <stop stop-color="#00C2FF"/>
      <stop offset="1" stop-color="#0051A3"/>
    </radialGradient>
    <radialGradient id="ar" cx="0" cy="0" r="1" class="ar" gradientTransform="matrix(0 3.05556 -3.125 0 56.875 131.241)" gradientUnits="userSpaceOnUse">
      <stop stop-color="#00C2FF"/>
      <stop offset="1" stop-color="#0051A3"/>
    </radialGradient>
    <radialGradient id="as" cx="0" cy="0" r="1" class="as" gradientTransform="matrix(0 3.05556 -3.125 0 45.875 126.241)" gradientUnits="userSpaceOnUse">
      <stop stop-color="#00C2FF"/>
      <stop offset="1" stop-color="#0051A3"/>
    </radialGradient>
    <radialGradient id="at" cx="0" cy="0" r="1" class="at" gradientTransform="matrix(0 3.05556 -3.125 0 25.875 81.24)" gradientUnits="userSpaceOnUse">
      <stop stop-color="#00C2FF"/>
      <stop offset="1" stop-color="#0051A3"/>
    </radialGradient>
    <radialGradient id="au" cx="0" cy="0" r="1" class="au" gradientTransform="matrix(0 3.05556 -3.125 0 41.875 43.24)" gradientUnits="userSpaceOnUse">
      <stop stop-color="#00C2FF"/>
      <stop offset="1" stop-color="#0051A3"/>
    </radialGradient>
    <radialGradient id="av" cx="0" cy="0" r="1" class="av" gradientTransform="matrix(0 3.05556 -3.125 0 66.875 30.24)" gradientUnits="userSpaceOnUse">
      <stop stop-color="#00C2FF"/>
      <stop offset="1" stop-color="#0051A3"/>
    </radialGradient>
    <radialGradient id="aw" cx="0" cy="0" r="1" class="aw" gradientTransform="matrix(0 3.05556 -3.125 0 52.875 36.24)" gradientUnits="userSpaceOnUse">
      <stop stop-color="#00C2FF"/>
      <stop offset="1" stop-color="#0051A3"/>
    </radialGradient>
    <radialGradient id="ax" cx="0" cy="0" r="1" class="ax" gradientTransform="matrix(0 3.05556 -3.125 0 137.875 81.24)" gradientUnits="userSpaceOnUse">
      <stop stop-color="#00C2FF"/>
      <stop offset="1" stop-color="#0051A3"/>
    </radialGradient>
    <radialGradient id="ay" cx="0" cy="0" r="1" class="ay" gradientTransform="matrix(0 3.05556 -3.125 0 132.875 104.241)" gradientUnits="userSpaceOnUse">
      <stop stop-color="#00C2FF"/>
      <stop offset="1" stop-color="#0051A3"/>
    </radialGradient>
    <radialGradient id="az" cx="0" cy="0" r="1" class="az" gradientTransform="matrix(0 3.05556 -3.125 0 121.875 120.241)" gradientUnits="userSpaceOnUse">
      <stop stop-color="#00C2FF"/>
      <stop offset="1" stop-color="#0051A3"/>
    </radialGradient>
    <radialGradient id="aA" cx="0" cy="0" r="1" class="aA" gradientTransform="matrix(0 3.05556 -3.125 0 68.875 137.241)" gradientUnits="userSpaceOnUse">
      <stop stop-color="#00C2FF"/>
      <stop offset="1" stop-color="#0051A3"/>
    </radialGradient>
    <radialGradient id="aB" cx="0" cy="0" r="1" class="aB" gradientTransform="matrix(0 3.05556 -3.125 0 125.875 49.24)" gradientUnits="userSpaceOnUse">
      <stop stop-color="#00C2FF"/>
      <stop offset="1" stop-color="#0051A3"/>
    </radialGradient>
    <radialGradient id="aC" cx="0" cy="0" r="1" class="aC" gradientTransform="matrix(0 3.05556 -3.125 0 135.875 94.24)" gradientUnits="userSpaceOnUse">
      <stop stop-color="#00C2FF"/>
      <stop offset="1" stop-color="#0051A3"/>
    </radialGradient>
    <radialGradient id="aD" cx="0" cy="0" r="1" class="aD" gradientTransform="matrix(0 3.05556 -3.125 0 38.875 119.241)" gradientUnits="userSpaceOnUse">
      <stop stop-color="#00C2FF"/>
      <stop offset="1" stop-color="#0051A3"/>
    </radialGradient>
    <radialGradient id="aE" cx="0" cy="0" r="1" class="aE" gradientTransform="matrix(0 3.05556 -3.125 0 32.875 111.241)" gradientUnits="userSpaceOnUse">
      <stop stop-color="#00C2FF"/>
      <stop offset="1" stop-color="#0051A3"/>
    </radialGradient>
    <radialGradient id="aF" cx="0" cy="0" r="1" class="aF" gradientTransform="matrix(0 3.05556 -3.125 0 26.875 92.24)" gradientUnits="userSpaceOnUse">
      <stop stop-color="#00C2FF"/>
      <stop offset="1" stop-color="#0051A3"/>
    </radialGradient>
    <radialGradient id="aG" cx="0" cy="0" r="1" class="aG" gradientTransform="matrix(0 3.05556 -3.125 0 36.875 49.24)" gradientUnits="userSpaceOnUse">
      <stop stop-color="#00C2FF"/>
      <stop offset="1" stop-color="#0051A3"/>
    </radialGradient>
    <radialGradient id="aH" cx="0" cy="0" r="1" class="aH" gradientTransform="matrix(0 3.05556 -3.125 0 29.875 103.241)" gradientUnits="userSpaceOnUse">
      <stop stop-color="#00C2FF"/>
      <stop offset="1" stop-color="#0051A3"/>
    </radialGradient>
    <radialGradient id="aI" cx="0" cy="0" r="1" class="aI" gradientTransform="matrix(0 3.05556 -3.125 0 30.875 57.24)" gradientUnits="userSpaceOnUse">
      <stop stop-color="#00C2FF"/>
      <stop offset="1" stop-color="#0051A3"/>
    </radialGradient>
    <radialGradient id="aJ" cx="0" cy="0" r="1" class="aJ" gradientTransform="matrix(0 3.05556 -3.125 0 26.875 69.24)" gradientUnits="userSpaceOnUse">
      <stop stop-color="#00C2FF"/>
      <stop offset="1" stop-color="#0051A3"/>
    </radialGradient>
    <radialGradient id="aK" cx="0" cy="0" r="1" class="aK" gradientTransform="matrix(0 3.05556 -3.125 0 80.875 128.241)" gradientUnits="userSpaceOnUse">
      <stop stop-color="#00C2FF"/>
      <stop offset="1" stop-color="#0051A3"/>
    </radialGradient>
    <radialGradient id="aL" cx="0" cy="0" r="1" class="aL" gradientTransform="matrix(0 3.05556 -3.125 0 33.875 74.24)" gradientUnits="userSpaceOnUse">
      <stop stop-color="#00C2FF"/>
      <stop offset="1" stop-color="#0051A3"/>
    </radialGradient>
    <radialGradient id="aM" cx="0" cy="0" r="1" class="aM" gradientTransform="matrix(0 3.05556 -3.125 0 95.875 124.241)" gradientUnits="userSpaceOnUse">
      <stop stop-color="#00C2FF"/>
      <stop offset="1" stop-color="#0051A3"/>
    </radialGradient>
    <radialGradient id="aN" cx="0" cy="0" r="1" class="aN" gradientTransform="matrix(0 3.05556 -3.125 0 32.875 90.24)" gradientUnits="userSpaceOnUse">
      <stop stop-color="#00C2FF"/>
      <stop offset="1" stop-color="#0051A3"/>
    </radialGradient>
    <radialGradient id="aO" cx="0" cy="0" r="1" class="aO" gradientTransform="matrix(0 3.05556 -3.125 0 120.875 55.24)" gradientUnits="userSpaceOnUse">
      <stop stop-color="#00C2FF"/>
      <stop offset="1" stop-color="#0051A3"/>
    </radialGradient>
    <radialGradient id="aP" cx="0" cy="0" r="1" class="aP" gradientTransform="matrix(0 3.05556 -3.125 0 112.875 117.241)" gradientUnits="userSpaceOnUse">
      <stop stop-color="#00C2FF"/>
      <stop offset="1" stop-color="#0051A3"/>
    </radialGradient>
    <radialGradient id="aQ" cx="0" cy="0" r="1" class="aQ" gradientTransform="matrix(0 3.05556 -3.125 0 105.875 100.241)" gradientUnits="userSpaceOnUse">
      <stop stop-color="#00C2FF"/>
      <stop offset="1" stop-color="#0051A3"/>
    </radialGradient>
    <radialGradient id="aR" cx="0" cy="0" r="1" class="aR" gradientTransform="matrix(0 3.05556 -3.125 0 82.875 43.24)" gradientUnits="userSpaceOnUse">
      <stop stop-color="#00C2FF"/>
      <stop offset="1" stop-color="#0051A3"/>
    </radialGradient>
    <radialGradient id="aS" cx="0" cy="0" r="1" class="aS" gradientTransform="matrix(0 3.05556 -3.125 0 81.875 120.241)" gradientUnits="userSpaceOnUse">
      <stop stop-color="#00C2FF"/>
      <stop offset="1" stop-color="#0051A3"/>
    </radialGradient>
    <radialGradient id="aT" cx="0" cy="0" r="1" class="aT" gradientTransform="matrix(0 3.05556 -3.125 0 58.875 114.241)" gradientUnits="userSpaceOnUse">
      <stop stop-color="#00C2FF"/>
      <stop offset="1" stop-color="#0051A3"/>
    </radialGradient>
    <radialGradient id="aU" cx="0" cy="0" r="1" class="aU" gradientTransform="matrix(0 3.05556 -3.125 0 104.875 111.241)" gradientUnits="userSpaceOnUse">
      <stop stop-color="#00C2FF"/>
      <stop offset="1" stop-color="#0051A3"/>
    </radialGradient>
    <radialGradient id="aV" cx="0" cy="0" r="1" class="aV" gradientTransform="matrix(0 3.05556 -3.125 0 121.875 83.24)" gradientUnits="userSpaceOnUse">
      <stop stop-color="#00C2FF"/>
      <stop offset="1" stop-color="#0051A3"/>
    </radialGradient>
    <radialGradient id="aW" cx="0" cy="0" r="1" class="aW" gradientTransform="matrix(0 3.05556 -3.125 0 38.875 59.24)" gradientUnits="userSpaceOnUse">
      <stop stop-color="#00C2FF"/>
      <stop offset="1" stop-color="#0051A3"/>
    </radialGradient>
    <radialGradient id="aX" cx="0" cy="0" r="1" class="aX" gradientTransform="matrix(0 3.05556 -3.125 0 50.875 44.24)" gradientUnits="userSpaceOnUse">
      <stop stop-color="#00C2FF"/>
      <stop offset="1" stop-color="#0051A3"/>
    </radialGradient>
  </defs>
</svg>
