<?xml-stylesheet type="text/css" href="../style.css"?>
<svg xmlns="http://www.w3.org/2000/svg" width="165" height="166" fill="none" viewBox="0 0 165 166">
  <g class="nb">
    <path fill="#D9D9D9" fill-opacity=".1" stroke="#000" d="M122.728 84.248c0 21.176-17.989 38.382-40.228 38.382-22.24 0-40.228-17.206-40.228-38.382 0-21.177 17.989-38.383 40.228-38.383s40.228 17.206 40.228 38.383Z" class="powloka"/>
    <path fill="#D9D9D9" fill-opacity=".1" stroke="#000" d="M133.171 84.248c0 26.682-22.664 48.352-50.671 48.352-28.007 0-50.67-21.67-50.67-48.352 0-26.683 22.663-48.352 50.67-48.352s50.671 21.67 50.671 48.352Z" class="powloka"/>
    <path fill="#D9D9D9" fill-opacity=".1" stroke="#000" d="M143.614 84.248c0 32.188-27.34 58.322-61.114 58.322-33.775 0-61.114-26.134-61.114-58.322 0-32.189 27.34-58.322 61.114-58.322s61.114 26.133 61.114 58.322Z" class="powloka"/>
    <path fill="#D9D9D9" fill-opacity=".1" stroke="#000" d="M154.057 84.248c0 37.694-32.015 68.291-71.557 68.291s-71.557-30.597-71.557-68.291c0-37.695 32.015-68.292 71.557-68.292s71.557 30.597 71.557 68.292Z" class="powloka"/>
    <path fill="#D9D9D9" fill-opacity=".1" stroke="#000" d="M164.5 87.239c0 43.201-36.691 78.261-82 78.261-45.31 0-82-35.06-82-78.261 0-43.201 36.69-78.262 82-78.262 45.309 0 82 35.06 82 78.262Z" class="powloka"/>
    <path fill="url(#a)" stroke="#000" stroke-width=".5" d="M82.761 87.489c2.002 0 3.644-1.552 3.644-3.49 0-1.939-1.642-3.49-3.644-3.49-2.001 0-3.644 1.551-3.644 3.49 0 1.938 1.643 3.49 3.644 3.49Z" class="Ellipse 2"/>
    <path fill="url(#b)" stroke="#000" stroke-width=".5" d="M56.187 41.634c0 1.889-1.628 3.444-3.666 3.444-2.04 0-3.666-1.555-3.666-3.444 0-1.888 1.627-3.444 3.666-3.444 2.038 0 3.666 1.556 3.666 3.444Z" class="elektron"/>
    <path fill="url(#c)" stroke="#000" stroke-width=".5" d="M36.187 83.634c0 1.889-1.628 3.444-3.666 3.444-2.04 0-3.666-1.555-3.666-3.444 0-1.888 1.627-3.444 3.666-3.444 2.038 0 3.666 1.556 3.666 3.444Z" class="elektron"/>
    <path fill="url(#d)" stroke="#000" stroke-width=".5" d="M116.187 41.634c0 1.889-1.628 3.444-3.666 3.444-2.039 0-3.667-1.555-3.667-3.444 0-1.888 1.628-3.444 3.667-3.444 2.038 0 3.666 1.556 3.666 3.444Z" class="elektron"/>
    <path fill="url(#e)" stroke="#000" stroke-width=".5" d="M73.187 44.634c0 1.889-1.628 3.444-3.666 3.444-2.04 0-3.666-1.555-3.666-3.444 0-1.888 1.627-3.444 3.666-3.444 2.038 0 3.666 1.556 3.666 3.444Z" class="elektron"/>
    <path fill="url(#f)" stroke="#000" stroke-width=".5" d="M31.187 111.634c0 1.889-1.628 3.444-3.666 3.444-2.04 0-3.666-1.555-3.666-3.444 0-1.888 1.627-3.444 3.666-3.444 2.038 0 3.666 1.556 3.666 3.444Z" class="elektron"/>
    <path fill="url(#g)" stroke="#000" stroke-width=".5" d="M107.187 26.634c0 1.889-1.628 3.444-3.666 3.444-2.039 0-3.666-1.555-3.666-3.444 0-1.888 1.627-3.444 3.666-3.444 2.038 0 3.666 1.556 3.666 3.444Z" class="elektron"/>
    <path fill="url(#h)" stroke="#000" stroke-width=".5" d="M143.187 60.634c0 1.889-1.628 3.444-3.666 3.444-2.039 0-3.667-1.555-3.667-3.444 0-1.888 1.628-3.444 3.667-3.444 2.038 0 3.666 1.556 3.666 3.444Z" class="elektron"/>
    <path fill="url(#i)" stroke="#000" stroke-width=".5" d="M149.187 83.634c0 1.889-1.628 3.444-3.666 3.444-2.039 0-3.667-1.555-3.667-3.444 0-1.888 1.628-3.444 3.667-3.444 2.038 0 3.666 1.556 3.666 3.444Z" class="elektron"/>
    <path fill="url(#j)" stroke="#000" stroke-width=".5" d="M87.187 23.634c0 1.889-1.628 3.444-3.666 3.444-2.04 0-3.666-1.555-3.666-3.444 0-1.888 1.627-3.444 3.666-3.444 2.038 0 3.666 1.556 3.666 3.444Z" class="elektron"/>
    <path fill="url(#k)" stroke="#000" stroke-width=".5" d="M129.187 40.634c0 1.889-1.628 3.444-3.666 3.444-2.039 0-3.667-1.555-3.667-3.444 0-1.888 1.628-3.444 3.667-3.444 2.038 0 3.666 1.556 3.666 3.444Z" class="elektron"/>
    <path fill="url(#l)" stroke="#000" stroke-width=".5" d="M66.187 138.634c0 1.889-1.628 3.444-3.666 3.444-2.04 0-3.666-1.555-3.666-3.444 0-1.888 1.627-3.444 3.666-3.444 2.038 0 3.666 1.556 3.666 3.444Z" class="elektron"/>
    <path fill="url(#m)" stroke="#000" stroke-width=".5" d="M44.187 128.634c0 1.889-1.628 3.444-3.666 3.444-2.04 0-3.666-1.555-3.666-3.444 0-1.888 1.627-3.444 3.666-3.444 2.038 0 3.666 1.556 3.666 3.444Z" class="elektron"/>
    <path fill="url(#n)" stroke="#000" stroke-width=".5" d="M141.187 108.634c0 1.889-1.628 3.444-3.666 3.444-2.039 0-3.667-1.555-3.667-3.444 0-1.888 1.628-3.444 3.667-3.444 2.038 0 3.666 1.556 3.666 3.444Z" class="elektron"/>
    <path fill="url(#o)" stroke="#000" stroke-width=".5" d="M67.187 26.634c0 1.889-1.628 3.444-3.666 3.444-2.04 0-3.666-1.555-3.666-3.444 0-1.888 1.627-3.444 3.666-3.444 2.038 0 3.666 1.556 3.666 3.444Z" class="elektron"/>
    <path fill="url(#p)" stroke="#000" stroke-width=".5" d="M87.187 14.634c0 1.889-1.628 3.444-3.666 3.444-2.04 0-3.666-1.555-3.666-3.444 0-1.888 1.627-3.444 3.666-3.444 2.038 0 3.666 1.556 3.666 3.444Z" class="elektron"/>
    <path fill="url(#q)" stroke="#000" stroke-width=".5" d="M134.187 30.634c0 1.889-1.628 3.444-3.666 3.444-2.039 0-3.667-1.555-3.667-3.444 0-1.888 1.628-3.444 3.667-3.444 2.038 0 3.666 1.556 3.666 3.444Z" class="elektron"/>
    <path fill="url(#r)" stroke="#000" stroke-width=".5" d="M87.187 152.634c0 1.889-1.628 3.444-3.666 3.444-2.04 0-3.666-1.555-3.666-3.444 0-1.888 1.627-3.444 3.666-3.444 2.038 0 3.666 1.556 3.666 3.444Z" class="elektron"/>
    <path fill="url(#s)" stroke="#000" stroke-width=".5" d="M118.187 147.634c0 1.889-1.628 3.444-3.666 3.444-2.039 0-3.667-1.555-3.667-3.444 0-1.888 1.628-3.444 3.667-3.444 2.038 0 3.666 1.556 3.666 3.444Z" class="elektron"/>
    <path fill="url(#t)" stroke="#000" stroke-width=".5" d="M54.187 145.634c0 1.889-1.628 3.444-3.666 3.444-2.04 0-3.666-1.555-3.666-3.444 0-1.888 1.627-3.444 3.666-3.444 2.038 0 3.666 1.556 3.666 3.444Z" class="elektron"/>
    <path fill="url(#u)" stroke="#000" stroke-width=".5" d="M153.187 110.634c0 1.889-1.628 3.444-3.666 3.444-2.039 0-3.667-1.555-3.667-3.444 0-1.888 1.628-3.444 3.667-3.444 2.038 0 3.666 1.556 3.666 3.444Z" class="elektron"/>
    <path fill="url(#v)" stroke="#000" stroke-width=".5" d="M19.187 111.634c0 1.889-1.628 3.444-3.666 3.444-2.04 0-3.667-1.555-3.667-3.444 0-1.888 1.628-3.444 3.667-3.444 2.038 0 3.666 1.556 3.666 3.444Z" class="elektron"/>
    <path fill="url(#w)" stroke="#000" stroke-width=".5" d="M87.187 4.634c0 1.889-1.628 3.444-3.666 3.444-2.04 0-3.666-1.555-3.666-3.444 0-1.888 1.627-3.444 3.666-3.444 2.038 0 3.666 1.556 3.666 3.444Z" class="elektron"/>
    <path fill="url(#x)" stroke="#000" stroke-width=".5" d="M14.187 82.634c0 1.889-1.628 3.444-3.666 3.444-2.04 0-3.667-1.555-3.667-3.444 0-1.888 1.628-3.444 3.667-3.444 2.038 0 3.666 1.556 3.666 3.444Z" class="elektron"/>
    <path fill="url(#y)" stroke="#000" stroke-width=".5" d="M35.187 35.634c0 1.889-1.628 3.444-3.666 3.444-2.04 0-3.666-1.555-3.666-3.444 0-1.888 1.627-3.444 3.666-3.444 2.038 0 3.666 1.556 3.666 3.444Z" class="elektron"/>
    <path fill="url(#z)" stroke="#000" stroke-width=".5" d="M158.187 82.634c0 1.889-1.628 3.444-3.666 3.444-2.039 0-3.667-1.555-3.667-3.444 0-1.888 1.628-3.444 3.667-3.444 2.038 0 3.666 1.556 3.666 3.444Z" class="elektron"/>
    <path fill="url(#A)" stroke="#000" stroke-width=".5" d="M137.187 131.634c0 1.889-1.628 3.444-3.666 3.444-2.039 0-3.667-1.555-3.667-3.444 0-1.888 1.628-3.444 3.667-3.444 2.038 0 3.666 1.556 3.666 3.444Z" class="elektron"/>
    <path fill="url(#B)" stroke="#000" stroke-width=".5" d="M31.187 129.634c0 1.889-1.628 3.444-3.666 3.444-2.04 0-3.666-1.555-3.666-3.444 0-1.888 1.627-3.444 3.666-3.444 2.038 0 3.666 1.556 3.666 3.444Z" class="elektron"/>
    <path fill="url(#C)" stroke="#000" stroke-width=".5" d="M85.187 141.634c0 1.889-1.628 3.444-3.666 3.444-2.04 0-3.666-1.555-3.666-3.444 0-1.888 1.627-3.444 3.666-3.444 2.038 0 3.666 1.556 3.666 3.444Z" class="elektron"/>
    <path fill="url(#D)" stroke="#000" stroke-width=".5" d="M25.187 73.634c0 1.889-1.628 3.444-3.666 3.444-2.04 0-3.666-1.555-3.666-3.444 0-1.888 1.627-3.444 3.666-3.444 2.038 0 3.666 1.556 3.666 3.444Z" class="elektron"/>
    <path fill="url(#E)" stroke="#000" stroke-width=".5" d="M105.187 136.634c0 1.889-1.628 3.444-3.666 3.444-2.04 0-3.666-1.555-3.666-3.444 0-1.888 1.627-3.444 3.666-3.444 2.038 0 3.666 1.556 3.666 3.444Z" class="elektron"/>
    <path fill="url(#F)" stroke="#000" stroke-width=".5" d="M24.187 94.634c0 1.889-1.628 3.444-3.666 3.444-2.04 0-3.666-1.555-3.666-3.444 0-1.888 1.627-3.444 3.666-3.444 2.038 0 3.666 1.556 3.666 3.444Z" class="elektron"/>
    <path fill="url(#G)" stroke="#000" stroke-width=".5" d="M136.187 50.634c0 1.889-1.628 3.444-3.666 3.444-2.039 0-3.667-1.555-3.667-3.444 0-1.888 1.628-3.444 3.667-3.444 2.038 0 3.666 1.556 3.666 3.444Z" class="elektron"/>
    <path fill="url(#H)" stroke="#000" stroke-width=".5" d="M126.187 127.634c0 1.889-1.628 3.444-3.666 3.444-2.039 0-3.667-1.555-3.667-3.444 0-1.888 1.628-3.444 3.667-3.444 2.038 0 3.666 1.556 3.666 3.444Z" class="elektron"/>
    <path fill="url(#I)" stroke="#000" stroke-width=".5" d="M118.187 106.634c0 1.889-1.628 3.444-3.666 3.444-2.039 0-3.667-1.555-3.667-3.444 0-1.888 1.628-3.444 3.667-3.444 2.038 0 3.666 1.556 3.666 3.444Z" class="elektron"/>
    <path fill="url(#J)" stroke="#000" stroke-width=".5" d="M87.187 34.634c0 1.889-1.628 3.444-3.666 3.444-2.04 0-3.666-1.555-3.666-3.444 0-1.888 1.627-3.444 3.666-3.444 2.038 0 3.666 1.556 3.666 3.444Z" class="elektron"/>
    <path fill="url(#K)" stroke="#000" stroke-width=".5" d="M87.187 129.634c0 1.889-1.628 3.444-3.666 3.444-2.04 0-3.666-1.555-3.666-3.444 0-1.888 1.627-3.444 3.666-3.444 2.038 0 3.666 1.556 3.666 3.444Z" class="elektron"/>
    <path fill="url(#L)" stroke="#000" stroke-width=".5" d="M56.187 121.634c0 1.889-1.628 3.444-3.666 3.444-2.04 0-3.666-1.555-3.666-3.444 0-1.888 1.627-3.444 3.666-3.444 2.038 0 3.666 1.556 3.666 3.444Z" class="elektron"/>
    <path fill="url(#M)" stroke="#000" stroke-width=".5" d="M116.187 119.634c0 1.889-1.628 3.444-3.666 3.444-2.039 0-3.667-1.555-3.667-3.444 0-1.888 1.628-3.444 3.667-3.444 2.038 0 3.666 1.556 3.666 3.444Z" class="elektron"/>
    <path fill="url(#N)" stroke="#000" stroke-width=".5" d="M137.187 81.634c0 1.889-1.628 3.444-3.666 3.444-2.039 0-3.667-1.555-3.667-3.444 0-1.888 1.628-3.444 3.667-3.444 2.038 0 3.666 1.556 3.666 3.444Z" class="elektron"/>
    <path fill="url(#O)" stroke="#000" stroke-width=".5" d="M31.187 55.634c0 1.889-1.628 3.444-3.666 3.444-2.04 0-3.666-1.555-3.666-3.444 0-1.888 1.627-3.444 3.666-3.444 2.038 0 3.666 1.556 3.666 3.444Z" class="elektron"/>
    <path fill="url(#P)" stroke="#000" stroke-width=".5" d="M47.187 36.634c0 1.889-1.628 3.444-3.666 3.444-2.04 0-3.666-1.555-3.666-3.444 0-1.888 1.627-3.444 3.666-3.444 2.038 0 3.666 1.556 3.666 3.444Z" class="elektron"/>
  </g>
  <defs>
    <radialGradient id="a" cx="0" cy="0" r="1" class="a" gradientTransform="matrix(0 3.24018 -3.39399 0 82.761 83.999)" gradientUnits="userSpaceOnUse">
      <stop stop-color="#F80A0A"/>
      <stop offset="1" stop-color="#690404"/>
    </radialGradient>
    <radialGradient id="b" cx="0" cy="0" r="1" class="b" gradientTransform="matrix(0 3.69403 -3.91614 0 52.52 41.634)" gradientUnits="userSpaceOnUse">
      <stop stop-color="#00C2FF"/>
      <stop offset="1" stop-color="#0051A3"/>
    </radialGradient>
    <radialGradient id="c" cx="0" cy="0" r="1" class="c" gradientTransform="matrix(0 3.69403 -3.91614 0 32.52 83.634)" gradientUnits="userSpaceOnUse">
      <stop stop-color="#00C2FF"/>
      <stop offset="1" stop-color="#0051A3"/>
    </radialGradient>
    <radialGradient id="d" cx="0" cy="0" r="1" class="d" gradientTransform="matrix(0 3.69403 -3.91614 0 112.521 41.634)" gradientUnits="userSpaceOnUse">
      <stop stop-color="#00C2FF"/>
      <stop offset="1" stop-color="#0051A3"/>
    </radialGradient>
    <radialGradient id="e" cx="0" cy="0" r="1" class="e" gradientTransform="matrix(0 3.69403 -3.91614 0 69.52 44.634)" gradientUnits="userSpaceOnUse">
      <stop stop-color="#00C2FF"/>
      <stop offset="1" stop-color="#0051A3"/>
    </radialGradient>
    <radialGradient id="f" cx="0" cy="0" r="1" class="f" gradientTransform="matrix(0 3.69403 -3.91614 0 27.52 111.634)" gradientUnits="userSpaceOnUse">
      <stop stop-color="#00C2FF"/>
      <stop offset="1" stop-color="#0051A3"/>
    </radialGradient>
    <radialGradient id="g" cx="0" cy="0" r="1" class="g" gradientTransform="matrix(0 3.69403 -3.91614 0 103.521 26.634)" gradientUnits="userSpaceOnUse">
      <stop stop-color="#00C2FF"/>
      <stop offset="1" stop-color="#0051A3"/>
    </radialGradient>
    <radialGradient id="h" cx="0" cy="0" r="1" class="h" gradientTransform="matrix(0 3.69403 -3.91614 0 139.521 60.634)" gradientUnits="userSpaceOnUse">
      <stop stop-color="#00C2FF"/>
      <stop offset="1" stop-color="#0051A3"/>
    </radialGradient>
    <radialGradient id="i" cx="0" cy="0" r="1" class="i" gradientTransform="matrix(0 3.69403 -3.91614 0 145.524 83.633)" gradientUnits="userSpaceOnUse">
      <stop stop-color="#00C2FF"/>
      <stop offset="1" stop-color="#0051A3"/>
    </radialGradient>
    <radialGradient id="j" cx="0" cy="0" r="1" class="j" gradientTransform="matrix(0 3.69403 -3.91614 0 83.52 23.634)" gradientUnits="userSpaceOnUse">
      <stop stop-color="#00C2FF"/>
      <stop offset="1" stop-color="#0051A3"/>
    </radialGradient>
    <radialGradient id="k" cx="0" cy="0" r="1" class="k" gradientTransform="matrix(0 3.69403 -3.91614 0 125.521 40.634)" gradientUnits="userSpaceOnUse">
      <stop stop-color="#00C2FF"/>
      <stop offset="1" stop-color="#0051A3"/>
    </radialGradient>
    <radialGradient id="l" cx="0" cy="0" r="1" class="l" gradientTransform="matrix(0 3.69403 -3.91614 0 62.52 138.634)" gradientUnits="userSpaceOnUse">
      <stop stop-color="#00C2FF"/>
      <stop offset="1" stop-color="#0051A3"/>
    </radialGradient>
    <radialGradient id="m" cx="0" cy="0" r="1" class="m" gradientTransform="matrix(0 3.69403 -3.91614 0 40.52 128.634)" gradientUnits="userSpaceOnUse">
      <stop stop-color="#00C2FF"/>
      <stop offset="1" stop-color="#0051A3"/>
    </radialGradient>
    <radialGradient id="n" cx="0" cy="0" r="1" class="n" gradientTransform="matrix(0 3.69403 -3.91614 0 137.521 108.634)" gradientUnits="userSpaceOnUse">
      <stop stop-color="#00C2FF"/>
      <stop offset="1" stop-color="#0051A3"/>
    </radialGradient>
    <radialGradient id="o" cx="0" cy="0" r="1" class="o" gradientTransform="matrix(0 3.69403 -3.91614 0 63.52 26.634)" gradientUnits="userSpaceOnUse">
      <stop stop-color="#00C2FF"/>
      <stop offset="1" stop-color="#0051A3"/>
    </radialGradient>
    <radialGradient id="p" cx="0" cy="0" r="1" class="p" gradientTransform="matrix(0 3.69403 -3.91614 0 83.52 14.634)" gradientUnits="userSpaceOnUse">
      <stop stop-color="#00C2FF"/>
      <stop offset="1" stop-color="#0051A3"/>
    </radialGradient>
    <radialGradient id="q" cx="0" cy="0" r="1" class="q" gradientTransform="matrix(0 3.69403 -3.91614 0 130.521 30.634)" gradientUnits="userSpaceOnUse">
      <stop stop-color="#00C2FF"/>
      <stop offset="1" stop-color="#0051A3"/>
    </radialGradient>
    <radialGradient id="r" cx="0" cy="0" r="1" class="r" gradientTransform="matrix(0 3.69403 -3.91614 0 83.52 152.634)" gradientUnits="userSpaceOnUse">
      <stop stop-color="#00C2FF"/>
      <stop offset="1" stop-color="#0051A3"/>
    </radialGradient>
    <radialGradient id="s" cx="0" cy="0" r="1" class="s" gradientTransform="matrix(0 3.69403 -3.91614 0 114.521 147.634)" gradientUnits="userSpaceOnUse">
      <stop stop-color="#00C2FF"/>
      <stop offset="1" stop-color="#0051A3"/>
    </radialGradient>
    <radialGradient id="t" cx="0" cy="0" r="1" class="t" gradientTransform="matrix(0 3.69403 -3.91614 0 50.52 145.634)" gradientUnits="userSpaceOnUse">
      <stop stop-color="#00C2FF"/>
      <stop offset="1" stop-color="#0051A3"/>
    </radialGradient>
    <radialGradient id="u" cx="0" cy="0" r="1" class="u" gradientTransform="matrix(0 3.69403 -3.91614 0 149.521 110.634)" gradientUnits="userSpaceOnUse">
      <stop stop-color="#00C2FF"/>
      <stop offset="1" stop-color="#0051A3"/>
    </radialGradient>
    <radialGradient id="v" cx="0" cy="0" r="1" class="v" gradientTransform="matrix(0 3.69403 -3.91614 0 15.52 111.634)" gradientUnits="userSpaceOnUse">
      <stop stop-color="#00C2FF"/>
      <stop offset="1" stop-color="#0051A3"/>
    </radialGradient>
    <radialGradient id="w" cx="0" cy="0" r="1" class="w" gradientTransform="matrix(0 3.69403 -3.91614 0 83.52 4.634)" gradientUnits="userSpaceOnUse">
      <stop stop-color="#00C2FF"/>
      <stop offset="1" stop-color="#0051A3"/>
    </radialGradient>
    <radialGradient id="x" cx="0" cy="0" r="1" class="x" gradientTransform="matrix(0 3.69403 -3.91614 0 10.52 82.634)" gradientUnits="userSpaceOnUse">
      <stop stop-color="#00C2FF"/>
      <stop offset="1" stop-color="#0051A3"/>
    </radialGradient>
    <radialGradient id="y" cx="0" cy="0" r="1" class="y" gradientTransform="matrix(0 3.69403 -3.91614 0 31.52 35.634)" gradientUnits="userSpaceOnUse">
      <stop stop-color="#00C2FF"/>
      <stop offset="1" stop-color="#0051A3"/>
    </radialGradient>
    <radialGradient id="z" cx="0" cy="0" r="1" class="z" gradientTransform="matrix(0 3.69403 -3.91614 0 154.521 82.634)" gradientUnits="userSpaceOnUse">
      <stop stop-color="#00C2FF"/>
      <stop offset="1" stop-color="#0051A3"/>
    </radialGradient>
    <radialGradient id="A" cx="0" cy="0" r="1" class="A" gradientTransform="matrix(0 3.69403 -3.91614 0 133.521 131.634)" gradientUnits="userSpaceOnUse">
      <stop stop-color="#00C2FF"/>
      <stop offset="1" stop-color="#0051A3"/>
    </radialGradient>
    <radialGradient id="B" cx="0" cy="0" r="1" class="B" gradientTransform="matrix(0 3.69403 -3.91614 0 27.52 129.634)" gradientUnits="userSpaceOnUse">
      <stop stop-color="#00C2FF"/>
      <stop offset="1" stop-color="#0051A3"/>
    </radialGradient>
    <radialGradient id="C" cx="0" cy="0" r="1" class="C" gradientTransform="matrix(0 3.69403 -3.91614 0 81.52 141.634)" gradientUnits="userSpaceOnUse">
      <stop stop-color="#00C2FF"/>
      <stop offset="1" stop-color="#0051A3"/>
    </radialGradient>
    <radialGradient id="D" cx="0" cy="0" r="1" class="D" gradientTransform="matrix(0 3.69403 -3.91614 0 21.52 73.634)" gradientUnits="userSpaceOnUse">
      <stop stop-color="#00C2FF"/>
      <stop offset="1" stop-color="#0051A3"/>
    </radialGradient>
    <radialGradient id="E" cx="0" cy="0" r="1" class="E" gradientTransform="matrix(0 3.69403 -3.91614 0 101.521 136.634)" gradientUnits="userSpaceOnUse">
      <stop stop-color="#00C2FF"/>
      <stop offset="1" stop-color="#0051A3"/>
    </radialGradient>
    <radialGradient id="F" cx="0" cy="0" r="1" class="F" gradientTransform="matrix(0 3.69403 -3.91614 0 20.52 94.634)" gradientUnits="userSpaceOnUse">
      <stop stop-color="#00C2FF"/>
      <stop offset="1" stop-color="#0051A3"/>
    </radialGradient>
    <radialGradient id="G" cx="0" cy="0" r="1" class="G" gradientTransform="matrix(0 3.69403 -3.91614 0 132.521 50.634)" gradientUnits="userSpaceOnUse">
      <stop stop-color="#00C2FF"/>
      <stop offset="1" stop-color="#0051A3"/>
    </radialGradient>
    <radialGradient id="H" cx="0" cy="0" r="1" class="H" gradientTransform="matrix(0 3.69403 -3.91614 0 122.521 127.634)" gradientUnits="userSpaceOnUse">
      <stop stop-color="#00C2FF"/>
      <stop offset="1" stop-color="#0051A3"/>
    </radialGradient>
    <radialGradient id="I" cx="0" cy="0" r="1" class="I" gradientTransform="matrix(0 3.69403 -3.91614 0 114.521 106.634)" gradientUnits="userSpaceOnUse">
      <stop stop-color="#00C2FF"/>
      <stop offset="1" stop-color="#0051A3"/>
    </radialGradient>
    <radialGradient id="J" cx="0" cy="0" r="1" class="J" gradientTransform="matrix(0 3.69403 -3.91614 0 83.52 34.634)" gradientUnits="userSpaceOnUse">
      <stop stop-color="#00C2FF"/>
      <stop offset="1" stop-color="#0051A3"/>
    </radialGradient>
    <radialGradient id="K" cx="0" cy="0" r="1" class="K" gradientTransform="matrix(0 3.69403 -3.91614 0 83.52 129.634)" gradientUnits="userSpaceOnUse">
      <stop stop-color="#00C2FF"/>
      <stop offset="1" stop-color="#0051A3"/>
    </radialGradient>
    <radialGradient id="L" cx="0" cy="0" r="1" class="L" gradientTransform="matrix(0 3.69403 -3.91614 0 52.52 121.634)" gradientUnits="userSpaceOnUse">
      <stop stop-color="#00C2FF"/>
      <stop offset="1" stop-color="#0051A3"/>
    </radialGradient>
    <radialGradient id="M" cx="0" cy="0" r="1" class="M" gradientTransform="matrix(0 3.69403 -3.91614 0 112.521 119.634)" gradientUnits="userSpaceOnUse">
      <stop stop-color="#00C2FF"/>
      <stop offset="1" stop-color="#0051A3"/>
    </radialGradient>
    <radialGradient id="N" cx="0" cy="0" r="1" class="N" gradientTransform="matrix(0 3.69403 -3.91614 0 133.521 81.634)" gradientUnits="userSpaceOnUse">
      <stop stop-color="#00C2FF"/>
      <stop offset="1" stop-color="#0051A3"/>
    </radialGradient>
    <radialGradient id="O" cx="0" cy="0" r="1" class="O" gradientTransform="matrix(0 3.69403 -3.91614 0 27.52 55.634)" gradientUnits="userSpaceOnUse">
      <stop stop-color="#00C2FF"/>
      <stop offset="1" stop-color="#0051A3"/>
    </radialGradient>
    <radialGradient id="P" cx="0" cy="0" r="1" class="P" gradientTransform="matrix(0 3.69403 -3.91614 0 43.52 36.634)" gradientUnits="userSpaceOnUse">
      <stop stop-color="#00C2FF"/>
      <stop offset="1" stop-color="#0051A3"/>
    </radialGradient>
  </defs>
</svg>
