<?xml-stylesheet type="text/css" href="../style.css"?>
<svg xmlns="http://www.w3.org/2000/svg" width="165" height="167" fill="none" viewBox="0 0 165 167">
  <g class="tc">
    <path fill="#D9D9D9" fill-opacity=".1" stroke="#000" d="M122.728 83.994c0 20.979-17.984 38.033-40.228 38.033s-40.228-17.054-40.228-38.033c0-20.98 17.984-38.033 40.228-38.033s40.228 17.054 40.228 38.033Z" class="powloka"/>
    <path fill="#D9D9D9" fill-opacity=".1" stroke="#000" d="M133.171 83.994c0 26.436-22.66 47.913-50.671 47.913S31.83 110.43 31.83 83.994c0-26.436 22.659-47.913 50.67-47.913 28.011 0 50.671 21.477 50.671 47.913Z" class="powloka"/>
    <path fill="#D9D9D9" fill-opacity=".1" stroke="#000" d="M143.614 83.994c0 31.893-27.335 57.794-61.114 57.794-33.779 0-61.114-25.901-61.114-57.794 0-31.893 27.335-57.793 61.114-57.793 33.779 0 61.114 25.9 61.114 57.793Z" class="powloka"/>
    <path fill="#D9D9D9" fill-opacity=".1" stroke="#000" d="M154.057 83.994c0 37.349-32.011 67.674-71.557 67.674s-71.557-30.325-71.557-67.674c0-37.35 32.01-67.674 71.557-67.674 39.546 0 71.557 30.325 71.557 67.674Z" class="powloka"/>
    <path fill="#D9D9D9" fill-opacity=".1" stroke="#000" d="M164.5 83.994c0 42.806-36.686 77.554-82 77.554S.5 126.8.5 83.994C.5 41.188 37.186 6.44 82.5 6.44s82 34.748 82 77.554Z" class="powloka"/>
    <path fill="url(#a)" stroke="#000" stroke-width=".5" d="M82.76 87.208c2 0 3.645-1.537 3.645-3.461s-1.645-3.461-3.644-3.461c-2 0-3.644 1.537-3.644 3.461s1.645 3.461 3.644 3.461Z" class="Ellipse 2"/>
    <path fill="url(#b)" stroke="#000" stroke-width=".5" d="M56.187 41.634c0 1.889-1.628 3.444-3.666 3.444-2.04 0-3.666-1.555-3.666-3.444 0-1.888 1.627-3.444 3.666-3.444 2.038 0 3.666 1.556 3.666 3.444Z" class="elektron"/>
    <path fill="url(#c)" stroke="#000" stroke-width=".5" d="M36.187 82.634c0 1.889-1.628 3.444-3.666 3.444-2.04 0-3.666-1.555-3.666-3.444 0-1.888 1.627-3.444 3.666-3.444 2.038 0 3.666 1.556 3.666 3.444Z" class="elektron"/>
    <path fill="url(#d)" stroke="#000" stroke-width=".5" d="M116.187 41.634c0 1.889-1.628 3.444-3.666 3.444-2.039 0-3.667-1.555-3.667-3.444 0-1.888 1.628-3.444 3.667-3.444 2.038 0 3.666 1.556 3.666 3.444Z" class="elektron"/>
    <path fill="url(#e)" stroke="#000" stroke-width=".5" d="M73.187 44.634c0 1.889-1.628 3.444-3.666 3.444-2.04 0-3.666-1.555-3.666-3.444 0-1.888 1.627-3.444 3.666-3.444 2.038 0 3.666 1.556 3.666 3.444Z" class="elektron"/>
    <path fill="url(#f)" stroke="#000" stroke-width=".5" d="M31.187 110.634c0 1.889-1.628 3.444-3.666 3.444-2.04 0-3.666-1.555-3.666-3.444 0-1.888 1.627-3.444 3.666-3.444 2.038 0 3.666 1.556 3.666 3.444Z" class="elektron"/>
    <path fill="url(#g)" stroke="#000" stroke-width=".5" d="M107.187 26.634c0 1.889-1.628 3.444-3.666 3.444-2.039 0-3.666-1.555-3.666-3.444 0-1.888 1.627-3.444 3.666-3.444 2.038 0 3.666 1.556 3.666 3.444Z" class="elektron"/>
    <path fill="url(#h)" stroke="#000" stroke-width=".5" d="M143.187 60.634c0 1.889-1.628 3.444-3.666 3.444-2.039 0-3.667-1.555-3.667-3.444 0-1.888 1.628-3.444 3.667-3.444 2.038 0 3.666 1.556 3.666 3.444Z" class="elektron"/>
    <path fill="url(#i)" stroke="#000" stroke-width=".5" d="M149.187 82.634c0 1.889-1.628 3.444-3.666 3.444-2.039 0-3.667-1.555-3.667-3.444 0-1.888 1.628-3.444 3.667-3.444 2.038 0 3.666 1.556 3.666 3.444Z" class="elektron"/>
    <path fill="url(#j)" stroke="#000" stroke-width=".5" d="M87.187 23.634c0 1.889-1.628 3.444-3.666 3.444-2.04 0-3.666-1.555-3.666-3.444 0-1.888 1.627-3.444 3.666-3.444 2.038 0 3.666 1.556 3.666 3.444Z" class="elektron"/>
    <path fill="url(#k)" stroke="#000" stroke-width=".5" d="M129.187 40.634c0 1.889-1.628 3.444-3.666 3.444-2.039 0-3.667-1.555-3.667-3.444 0-1.888 1.628-3.444 3.667-3.444 2.038 0 3.666 1.556 3.666 3.444Z" class="elektron"/>
    <path fill="url(#l)" stroke="#000" stroke-width=".5" d="M66.187 136.634c0 1.889-1.628 3.444-3.666 3.444-2.04 0-3.666-1.555-3.666-3.444 0-1.888 1.627-3.444 3.666-3.444 2.038 0 3.666 1.556 3.666 3.444Z" class="elektron"/>
    <path fill="url(#m)" stroke="#000" stroke-width=".5" d="M44.187 127.634c0 1.889-1.628 3.444-3.666 3.444-2.04 0-3.666-1.555-3.666-3.444 0-1.888 1.627-3.444 3.666-3.444 2.038 0 3.666 1.556 3.666 3.444Z" class="elektron"/>
    <path fill="url(#n)" stroke="#000" stroke-width=".5" d="M141.187 107.634c0 1.889-1.628 3.444-3.666 3.444-2.039 0-3.667-1.555-3.667-3.444 0-1.888 1.628-3.444 3.667-3.444 2.038 0 3.666 1.556 3.666 3.444Z" class="elektron"/>
    <path fill="url(#o)" stroke="#000" stroke-width=".5" d="M67.187 26.634c0 1.889-1.628 3.444-3.666 3.444-2.04 0-3.666-1.555-3.666-3.444 0-1.888 1.627-3.444 3.666-3.444 2.038 0 3.666 1.556 3.666 3.444Z" class="elektron"/>
    <path fill="url(#p)" stroke="#000" stroke-width=".5" d="M87.187 13.634c0 1.889-1.628 3.444-3.666 3.444-2.04 0-3.666-1.555-3.666-3.444 0-1.888 1.627-3.444 3.666-3.444 2.038 0 3.666 1.556 3.666 3.444Z" class="elektron"/>
    <path fill="url(#q)" stroke="#000" stroke-width=".5" d="M134.187 30.634c0 1.889-1.628 3.444-3.666 3.444-2.039 0-3.667-1.555-3.667-3.444 0-1.888 1.628-3.444 3.667-3.444 2.038 0 3.666 1.556 3.666 3.444Z" class="elektron"/>
    <path fill="url(#r)" stroke="#000" stroke-width=".5" d="M87.187 151.634c0 1.889-1.628 3.444-3.666 3.444-2.04 0-3.666-1.555-3.666-3.444 0-1.888 1.627-3.444 3.666-3.444 2.038 0 3.666 1.556 3.666 3.444Z" class="elektron"/>
    <path fill="url(#s)" stroke="#000" stroke-width=".5" d="M118.187 145.634c0 1.889-1.628 3.444-3.666 3.444-2.039 0-3.667-1.555-3.667-3.444 0-1.888 1.628-3.444 3.667-3.444 2.038 0 3.666 1.556 3.666 3.444Z" class="elektron"/>
    <path fill="url(#t)" stroke="#000" stroke-width=".5" d="M54.187 144.634c0 1.889-1.628 3.444-3.666 3.444-2.04 0-3.666-1.555-3.666-3.444 0-1.888 1.627-3.444 3.666-3.444 2.038 0 3.666 1.556 3.666 3.444Z" class="elektron"/>
    <path fill="url(#u)" stroke="#000" stroke-width=".5" d="M153.187 109.634c0 1.889-1.628 3.444-3.666 3.444-2.039 0-3.667-1.555-3.667-3.444 0-1.888 1.628-3.444 3.667-3.444 2.038 0 3.666 1.556 3.666 3.444Z" class="elektron"/>
    <path fill="url(#v)" stroke="#000" stroke-width=".5" d="M19.187 110.634c0 1.889-1.628 3.444-3.666 3.444-2.04 0-3.667-1.555-3.667-3.444 0-1.888 1.628-3.444 3.667-3.444 2.038 0 3.666 1.556 3.666 3.444Z" class="elektron"/>
    <path fill="url(#w)" stroke="#000" stroke-width=".5" d="M87.187 4.634c0 1.889-1.628 3.444-3.666 3.444-2.04 0-3.666-1.555-3.666-3.444 0-1.888 1.627-3.444 3.666-3.444 2.038 0 3.666 1.556 3.666 3.444Z" class="elektron"/>
    <path fill="url(#x)" stroke="#000" stroke-width=".5" d="M87.187 162.634c0 1.889-1.628 3.444-3.666 3.444-2.04 0-3.666-1.555-3.666-3.444 0-1.888 1.627-3.444 3.666-3.444 2.038 0 3.666 1.556 3.666 3.444Z" class="elektron"/>
    <path fill="url(#y)" stroke="#000" stroke-width=".5" d="M14.187 81.634c0 1.889-1.628 3.444-3.666 3.444-2.04 0-3.667-1.555-3.667-3.444 0-1.888 1.628-3.444 3.667-3.444 2.038 0 3.666 1.556 3.666 3.444Z" class="elektron"/>
    <path fill="url(#z)" stroke="#000" stroke-width=".5" d="M35.187 35.634c0 1.889-1.628 3.444-3.666 3.444-2.04 0-3.666-1.555-3.666-3.444 0-1.888 1.627-3.444 3.666-3.444 2.038 0 3.666 1.556 3.666 3.444Z" class="elektron"/>
    <path fill="url(#A)" stroke="#000" stroke-width=".5" d="M20.187 55.634c0 1.889-1.628 3.444-3.666 3.444-2.04 0-3.667-1.555-3.667-3.444 0-1.888 1.628-3.444 3.667-3.444 2.038 0 3.666 1.556 3.666 3.444Z" class="elektron"/>
    <path fill="url(#B)" stroke="#000" stroke-width=".5" d="M158.187 82.634c0 1.889-1.628 3.444-3.666 3.444-2.039 0-3.667-1.555-3.667-3.444 0-1.888 1.628-3.444 3.667-3.444 2.038 0 3.666 1.556 3.666 3.444Z" class="elektron"/>
    <path fill="url(#C)" stroke="#000" stroke-width=".5" d="M137.187 130.634c0 1.889-1.628 3.444-3.666 3.444-2.039 0-3.667-1.555-3.667-3.444 0-1.888 1.628-3.444 3.667-3.444 2.038 0 3.666 1.556 3.666 3.444Z" class="elektron"/>
    <path fill="url(#D)" stroke="#000" stroke-width=".5" d="M31.187 128.634c0 1.889-1.628 3.444-3.666 3.444-2.04 0-3.666-1.555-3.666-3.444 0-1.888 1.627-3.444 3.666-3.444 2.038 0 3.666 1.556 3.666 3.444Z" class="elektron"/>
    <path fill="url(#E)" stroke="#000" stroke-width=".5" d="M85.187 140.634c0 1.889-1.628 3.444-3.666 3.444-2.04 0-3.666-1.555-3.666-3.444 0-1.888 1.627-3.444 3.666-3.444 2.038 0 3.666 1.556 3.666 3.444Z" class="elektron"/>
    <path fill="url(#F)" stroke="#000" stroke-width=".5" d="M25.187 73.634c0 1.889-1.628 3.444-3.666 3.444-2.04 0-3.666-1.555-3.666-3.444 0-1.888 1.627-3.444 3.666-3.444 2.038 0 3.666 1.556 3.666 3.444Z" class="elektron"/>
    <path fill="url(#G)" stroke="#000" stroke-width=".5" d="M105.187 135.634c0 1.889-1.628 3.444-3.666 3.444-2.04 0-3.666-1.555-3.666-3.444 0-1.888 1.627-3.444 3.666-3.444 2.038 0 3.666 1.556 3.666 3.444Z" class="elektron"/>
    <path fill="url(#H)" stroke="#000" stroke-width=".5" d="M24.187 93.634c0 1.889-1.628 3.444-3.666 3.444-2.04 0-3.666-1.555-3.666-3.444 0-1.888 1.627-3.444 3.666-3.444 2.038 0 3.666 1.556 3.666 3.444Z" class="elektron"/>
    <path fill="url(#I)" stroke="#000" stroke-width=".5" d="M136.187 50.634c0 1.889-1.628 3.444-3.666 3.444-2.039 0-3.667-1.555-3.667-3.444 0-1.888 1.628-3.444 3.667-3.444 2.038 0 3.666 1.556 3.666 3.444Z" class="elektron"/>
    <path fill="url(#J)" stroke="#000" stroke-width=".5" d="M126.187 126.634c0 1.889-1.628 3.444-3.666 3.444-2.039 0-3.667-1.555-3.667-3.444 0-1.888 1.628-3.444 3.667-3.444 2.038 0 3.666 1.556 3.666 3.444Z" class="elektron"/>
    <path fill="url(#K)" stroke="#000" stroke-width=".5" d="M118.187 105.634c0 1.889-1.628 3.444-3.666 3.444-2.039 0-3.667-1.555-3.667-3.444 0-1.888 1.628-3.444 3.667-3.444 2.038 0 3.666 1.556 3.666 3.444Z" class="elektron"/>
    <path fill="url(#L)" stroke="#000" stroke-width=".5" d="M87.187 34.634c0 1.889-1.628 3.444-3.666 3.444-2.04 0-3.666-1.555-3.666-3.444 0-1.888 1.627-3.444 3.666-3.444 2.038 0 3.666 1.556 3.666 3.444Z" class="elektron"/>
    <path fill="url(#M)" stroke="#000" stroke-width=".5" d="M87.187 128.634c0 1.889-1.628 3.444-3.666 3.444-2.04 0-3.666-1.555-3.666-3.444 0-1.888 1.627-3.444 3.666-3.444 2.038 0 3.666 1.556 3.666 3.444Z" class="elektron"/>
    <path fill="url(#N)" stroke="#000" stroke-width=".5" d="M56.187 120.634c0 1.889-1.628 3.444-3.666 3.444-2.04 0-3.666-1.555-3.666-3.444 0-1.888 1.627-3.444 3.666-3.444 2.038 0 3.666 1.556 3.666 3.444Z" class="elektron"/>
    <path fill="url(#O)" stroke="#000" stroke-width=".5" d="M116.187 118.634c0 1.889-1.628 3.444-3.666 3.444-2.039 0-3.667-1.555-3.667-3.444 0-1.888 1.628-3.444 3.667-3.444 2.038 0 3.666 1.556 3.666 3.444Z" class="elektron"/>
    <path fill="url(#P)" stroke="#000" stroke-width=".5" d="M137.187 80.634c0 1.889-1.628 3.444-3.666 3.444-2.039 0-3.667-1.555-3.667-3.444 0-1.888 1.628-3.444 3.667-3.444 2.038 0 3.666 1.556 3.666 3.444Z" class="elektron"/>
    <path fill="url(#Q)" stroke="#000" stroke-width=".5" d="M31.187 54.634c0 1.889-1.628 3.444-3.666 3.444-2.04 0-3.666-1.555-3.666-3.444 0-1.888 1.627-3.444 3.666-3.444 2.038 0 3.666 1.556 3.666 3.444Z" class="elektron"/>
    <path fill="url(#R)" stroke="#000" stroke-width=".5" d="M47.187 36.634c0 1.889-1.628 3.444-3.666 3.444-2.04 0-3.666-1.555-3.666-3.444 0-1.888 1.627-3.444 3.666-3.444 2.038 0 3.666 1.556 3.666 3.444Z" class="elektron"/>
  </g>
  <defs>
    <radialGradient id="a" cx="0" cy="0" r="1" class="a" gradientTransform="matrix(0 3.21108 -3.39399 0 82.76 83.747)" gradientUnits="userSpaceOnUse">
      <stop stop-color="#F80A0A"/>
      <stop offset="1" stop-color="#690404"/>
    </radialGradient>
    <radialGradient id="b" cx="0" cy="0" r="1" class="b" gradientTransform="matrix(0 3.69403 -3.91614 0 52.52 41.634)" gradientUnits="userSpaceOnUse">
      <stop stop-color="#00C2FF"/>
      <stop offset="1" stop-color="#0051A3"/>
    </radialGradient>
    <radialGradient id="c" cx="0" cy="0" r="1" class="c" gradientTransform="matrix(0 3.69403 -3.91614 0 32.52 82.634)" gradientUnits="userSpaceOnUse">
      <stop stop-color="#00C2FF"/>
      <stop offset="1" stop-color="#0051A3"/>
    </radialGradient>
    <radialGradient id="d" cx="0" cy="0" r="1" class="d" gradientTransform="matrix(0 3.69403 -3.91614 0 112.521 41.634)" gradientUnits="userSpaceOnUse">
      <stop stop-color="#00C2FF"/>
      <stop offset="1" stop-color="#0051A3"/>
    </radialGradient>
    <radialGradient id="e" cx="0" cy="0" r="1" class="e" gradientTransform="matrix(0 3.69403 -3.91614 0 69.52 44.634)" gradientUnits="userSpaceOnUse">
      <stop stop-color="#00C2FF"/>
      <stop offset="1" stop-color="#0051A3"/>
    </radialGradient>
    <radialGradient id="f" cx="0" cy="0" r="1" class="f" gradientTransform="matrix(0 3.69403 -3.91614 0 27.52 110.634)" gradientUnits="userSpaceOnUse">
      <stop stop-color="#00C2FF"/>
      <stop offset="1" stop-color="#0051A3"/>
    </radialGradient>
    <radialGradient id="g" cx="0" cy="0" r="1" class="g" gradientTransform="matrix(0 3.69403 -3.91614 0 103.521 26.634)" gradientUnits="userSpaceOnUse">
      <stop stop-color="#00C2FF"/>
      <stop offset="1" stop-color="#0051A3"/>
    </radialGradient>
    <radialGradient id="h" cx="0" cy="0" r="1" class="h" gradientTransform="matrix(0 3.69403 -3.91614 0 139.521 60.634)" gradientUnits="userSpaceOnUse">
      <stop stop-color="#00C2FF"/>
      <stop offset="1" stop-color="#0051A3"/>
    </radialGradient>
    <radialGradient id="i" cx="0" cy="0" r="1" class="i" gradientTransform="matrix(0 3.69403 -3.91614 0 145.521 82.634)" gradientUnits="userSpaceOnUse">
      <stop stop-color="#00C2FF"/>
      <stop offset="1" stop-color="#0051A3"/>
    </radialGradient>
    <radialGradient id="j" cx="0" cy="0" r="1" class="j" gradientTransform="matrix(0 3.69403 -3.91614 0 83.52 23.634)" gradientUnits="userSpaceOnUse">
      <stop stop-color="#00C2FF"/>
      <stop offset="1" stop-color="#0051A3"/>
    </radialGradient>
    <radialGradient id="k" cx="0" cy="0" r="1" class="k" gradientTransform="matrix(0 3.69403 -3.91614 0 125.521 40.634)" gradientUnits="userSpaceOnUse">
      <stop stop-color="#00C2FF"/>
      <stop offset="1" stop-color="#0051A3"/>
    </radialGradient>
    <radialGradient id="l" cx="0" cy="0" r="1" class="l" gradientTransform="matrix(0 3.69403 -3.91614 0 62.52 136.634)" gradientUnits="userSpaceOnUse">
      <stop stop-color="#00C2FF"/>
      <stop offset="1" stop-color="#0051A3"/>
    </radialGradient>
    <radialGradient id="m" cx="0" cy="0" r="1" class="m" gradientTransform="matrix(0 3.69403 -3.91614 0 40.52 127.634)" gradientUnits="userSpaceOnUse">
      <stop stop-color="#00C2FF"/>
      <stop offset="1" stop-color="#0051A3"/>
    </radialGradient>
    <radialGradient id="n" cx="0" cy="0" r="1" class="n" gradientTransform="matrix(0 3.69403 -3.91614 0 137.521 107.634)" gradientUnits="userSpaceOnUse">
      <stop stop-color="#00C2FF"/>
      <stop offset="1" stop-color="#0051A3"/>
    </radialGradient>
    <radialGradient id="o" cx="0" cy="0" r="1" class="o" gradientTransform="matrix(0 3.69403 -3.91614 0 63.52 26.634)" gradientUnits="userSpaceOnUse">
      <stop stop-color="#00C2FF"/>
      <stop offset="1" stop-color="#0051A3"/>
    </radialGradient>
    <radialGradient id="p" cx="0" cy="0" r="1" class="p" gradientTransform="matrix(0 3.69403 -3.91614 0 83.52 13.634)" gradientUnits="userSpaceOnUse">
      <stop stop-color="#00C2FF"/>
      <stop offset="1" stop-color="#0051A3"/>
    </radialGradient>
    <radialGradient id="q" cx="0" cy="0" r="1" class="q" gradientTransform="matrix(0 3.69403 -3.91614 0 130.521 30.634)" gradientUnits="userSpaceOnUse">
      <stop stop-color="#00C2FF"/>
      <stop offset="1" stop-color="#0051A3"/>
    </radialGradient>
    <radialGradient id="r" cx="0" cy="0" r="1" class="r" gradientTransform="matrix(0 3.69403 -3.91614 0 83.52 151.634)" gradientUnits="userSpaceOnUse">
      <stop stop-color="#00C2FF"/>
      <stop offset="1" stop-color="#0051A3"/>
    </radialGradient>
    <radialGradient id="s" cx="0" cy="0" r="1" class="s" gradientTransform="matrix(0 3.69403 -3.91614 0 114.521 145.634)" gradientUnits="userSpaceOnUse">
      <stop stop-color="#00C2FF"/>
      <stop offset="1" stop-color="#0051A3"/>
    </radialGradient>
    <radialGradient id="t" cx="0" cy="0" r="1" class="t" gradientTransform="matrix(0 3.69403 -3.91614 0 50.52 144.634)" gradientUnits="userSpaceOnUse">
      <stop stop-color="#00C2FF"/>
      <stop offset="1" stop-color="#0051A3"/>
    </radialGradient>
    <radialGradient id="u" cx="0" cy="0" r="1" class="u" gradientTransform="matrix(0 3.69403 -3.91614 0 149.521 109.634)" gradientUnits="userSpaceOnUse">
      <stop stop-color="#00C2FF"/>
      <stop offset="1" stop-color="#0051A3"/>
    </radialGradient>
    <radialGradient id="v" cx="0" cy="0" r="1" class="v" gradientTransform="matrix(0 3.69403 -3.91614 0 15.52 110.634)" gradientUnits="userSpaceOnUse">
      <stop stop-color="#00C2FF"/>
      <stop offset="1" stop-color="#0051A3"/>
    </radialGradient>
    <radialGradient id="w" cx="0" cy="0" r="1" class="w" gradientTransform="matrix(0 3.69403 -3.91614 0 83.52 4.634)" gradientUnits="userSpaceOnUse">
      <stop stop-color="#00C2FF"/>
      <stop offset="1" stop-color="#0051A3"/>
    </radialGradient>
    <radialGradient id="x" cx="0" cy="0" r="1" class="x" gradientTransform="matrix(0 3.69403 -3.91614 0 83.52 162.634)" gradientUnits="userSpaceOnUse">
      <stop stop-color="#00C2FF"/>
      <stop offset="1" stop-color="#0051A3"/>
    </radialGradient>
    <radialGradient id="y" cx="0" cy="0" r="1" class="y" gradientTransform="matrix(0 3.69403 -3.91614 0 10.52 81.634)" gradientUnits="userSpaceOnUse">
      <stop stop-color="#00C2FF"/>
      <stop offset="1" stop-color="#0051A3"/>
    </radialGradient>
    <radialGradient id="z" cx="0" cy="0" r="1" class="z" gradientTransform="matrix(0 3.69403 -3.91614 0 31.52 35.634)" gradientUnits="userSpaceOnUse">
      <stop stop-color="#00C2FF"/>
      <stop offset="1" stop-color="#0051A3"/>
    </radialGradient>
    <radialGradient id="A" cx="0" cy="0" r="1" class="A" gradientTransform="matrix(0 3.69403 -3.91614 0 16.52 55.634)" gradientUnits="userSpaceOnUse">
      <stop stop-color="#00C2FF"/>
      <stop offset="1" stop-color="#0051A3"/>
    </radialGradient>
    <radialGradient id="B" cx="0" cy="0" r="1" class="B" gradientTransform="matrix(0 3.69403 -3.91614 0 154.521 82.634)" gradientUnits="userSpaceOnUse">
      <stop stop-color="#00C2FF"/>
      <stop offset="1" stop-color="#0051A3"/>
    </radialGradient>
    <radialGradient id="C" cx="0" cy="0" r="1" class="C" gradientTransform="matrix(0 3.69403 -3.91614 0 133.521 130.634)" gradientUnits="userSpaceOnUse">
      <stop stop-color="#00C2FF"/>
      <stop offset="1" stop-color="#0051A3"/>
    </radialGradient>
    <radialGradient id="D" cx="0" cy="0" r="1" class="D" gradientTransform="matrix(0 3.69403 -3.91614 0 27.52 128.634)" gradientUnits="userSpaceOnUse">
      <stop stop-color="#00C2FF"/>
      <stop offset="1" stop-color="#0051A3"/>
    </radialGradient>
    <radialGradient id="E" cx="0" cy="0" r="1" class="E" gradientTransform="matrix(0 3.69403 -3.91614 0 81.52 140.634)" gradientUnits="userSpaceOnUse">
      <stop stop-color="#00C2FF"/>
      <stop offset="1" stop-color="#0051A3"/>
    </radialGradient>
    <radialGradient id="F" cx="0" cy="0" r="1" class="F" gradientTransform="matrix(0 3.69403 -3.91614 0 21.52 73.634)" gradientUnits="userSpaceOnUse">
      <stop stop-color="#00C2FF"/>
      <stop offset="1" stop-color="#0051A3"/>
    </radialGradient>
    <radialGradient id="G" cx="0" cy="0" r="1" class="G" gradientTransform="matrix(0 3.69403 -3.91614 0 101.521 135.634)" gradientUnits="userSpaceOnUse">
      <stop stop-color="#00C2FF"/>
      <stop offset="1" stop-color="#0051A3"/>
    </radialGradient>
    <radialGradient id="H" cx="0" cy="0" r="1" class="H" gradientTransform="matrix(0 3.69403 -3.91614 0 20.52 93.634)" gradientUnits="userSpaceOnUse">
      <stop stop-color="#00C2FF"/>
      <stop offset="1" stop-color="#0051A3"/>
    </radialGradient>
    <radialGradient id="I" cx="0" cy="0" r="1" class="I" gradientTransform="matrix(0 3.69403 -3.91614 0 132.521 50.634)" gradientUnits="userSpaceOnUse">
      <stop stop-color="#00C2FF"/>
      <stop offset="1" stop-color="#0051A3"/>
    </radialGradient>
    <radialGradient id="J" cx="0" cy="0" r="1" class="J" gradientTransform="matrix(0 3.69403 -3.91614 0 122.521 126.634)" gradientUnits="userSpaceOnUse">
      <stop stop-color="#00C2FF"/>
      <stop offset="1" stop-color="#0051A3"/>
    </radialGradient>
    <radialGradient id="K" cx="0" cy="0" r="1" class="K" gradientTransform="matrix(0 3.69403 -3.91614 0 114.524 105.634)" gradientUnits="userSpaceOnUse">
      <stop stop-color="#00C2FF"/>
      <stop offset="1" stop-color="#0051A3"/>
    </radialGradient>
    <radialGradient id="L" cx="0" cy="0" r="1" class="L" gradientTransform="matrix(0 3.69403 -3.91614 0 83.52 34.634)" gradientUnits="userSpaceOnUse">
      <stop stop-color="#00C2FF"/>
      <stop offset="1" stop-color="#0051A3"/>
    </radialGradient>
    <radialGradient id="M" cx="0" cy="0" r="1" class="M" gradientTransform="matrix(0 3.69403 -3.91614 0 83.52 128.634)" gradientUnits="userSpaceOnUse">
      <stop stop-color="#00C2FF"/>
      <stop offset="1" stop-color="#0051A3"/>
    </radialGradient>
    <radialGradient id="N" cx="0" cy="0" r="1" class="N" gradientTransform="matrix(0 3.69403 -3.91614 0 52.52 120.634)" gradientUnits="userSpaceOnUse">
      <stop stop-color="#00C2FF"/>
      <stop offset="1" stop-color="#0051A3"/>
    </radialGradient>
    <radialGradient id="O" cx="0" cy="0" r="1" class="O" gradientTransform="matrix(0 3.69403 -3.91614 0 112.521 118.634)" gradientUnits="userSpaceOnUse">
      <stop stop-color="#00C2FF"/>
      <stop offset="1" stop-color="#0051A3"/>
    </radialGradient>
    <radialGradient id="P" cx="0" cy="0" r="1" class="P" gradientTransform="matrix(0 3.69403 -3.91614 0 133.521 80.634)" gradientUnits="userSpaceOnUse">
      <stop stop-color="#00C2FF"/>
      <stop offset="1" stop-color="#0051A3"/>
    </radialGradient>
    <radialGradient id="Q" cx="0" cy="0" r="1" class="Q" gradientTransform="matrix(0 3.69403 -3.91614 0 27.52 54.634)" gradientUnits="userSpaceOnUse">
      <stop stop-color="#00C2FF"/>
      <stop offset="1" stop-color="#0051A3"/>
    </radialGradient>
    <radialGradient id="R" cx="0" cy="0" r="1" class="R" gradientTransform="matrix(0 3.69403 -3.91614 0 43.52 36.634)" gradientUnits="userSpaceOnUse">
      <stop stop-color="#00C2FF"/>
      <stop offset="1" stop-color="#0051A3"/>
    </radialGradient>
  </defs>
</svg>
