<?xml-stylesheet type="text/css" href="../style.css"?>
<svg xmlns="http://www.w3.org/2000/svg" width="165" height="167" fill="none" viewBox="0 0 165 167">
  <g class="ti">
    <path fill="#D9D9D9" fill-opacity=".1" stroke="#000" d="M128.63 84.07c0 24.21-20.629 43.878-46.13 43.878-25.5 0-46.13-19.668-46.13-43.879 0-24.21 20.63-43.88 46.13-43.88 25.501 0 46.13 19.67 46.13 43.88Z" class="powloka"/>
    <path fill="#D9D9D9" fill-opacity=".1" stroke="#000" d="M140.587 84.069c0 30.496-25.983 55.259-58.087 55.259s-58.087-24.763-58.087-55.259c0-30.495 25.983-55.259 58.087-55.259s58.087 24.764 58.087 55.259Z" class="powloka"/>
    <path fill="#D9D9D9" fill-opacity=".1" stroke="#000" d="M152.544 84.069c0 36.78-31.336 66.638-70.044 66.638s-70.043-29.858-70.043-66.638S43.792 17.431 82.5 17.431c38.708 0 70.044 29.858 70.044 66.638Z" class="powloka"/>
    <path fill="#D9D9D9" fill-opacity=".1" stroke="#000" d="M164.5 84.07c0 43.064-36.689 78.017-82 78.017S.5 127.134.5 84.069s36.689-78.017 82-78.017 82 34.952 82 78.017Z" class="powloka"/>
    <path fill="url(#a)" stroke="#000" stroke-width=".5" d="M82.201 87.733c2.272 0 4.136-1.756 4.136-3.948s-1.864-3.949-4.136-3.949c-2.272 0-4.136 1.757-4.136 3.949s1.864 3.948 4.136 3.948Z" class="Ellipse 2"/>
    <path fill="url(#b)" stroke="#000" stroke-width=".5" d="M53.76 37.13c0 2.206-1.883 4.017-4.233 4.017-2.35 0-4.233-1.81-4.233-4.018 0-2.207 1.883-4.017 4.233-4.017 2.35 0 4.234 1.81 4.234 4.017Z" class="elektron"/>
    <path fill="url(#c)" stroke="#000" stroke-width=".5" d="M30.76 84.13c0 2.207-1.883 4.017-4.233 4.017-2.35 0-4.233-1.81-4.233-4.018 0-2.207 1.883-4.017 4.233-4.017 2.35 0 4.234 1.81 4.234 4.017Z" class="elektron"/>
    <path fill="url(#d)" stroke="#000" stroke-width=".5" d="M122.761 37.13c0 2.206-1.884 4.017-4.234 4.017s-4.234-1.81-4.234-4.018c0-2.207 1.884-4.017 4.234-4.017s4.234 1.81 4.234 4.017Z" class="elektron"/>
    <path fill="url(#e)" stroke="#000" stroke-width=".5" d="M72.76 40.13c0 2.206-1.883 4.017-4.233 4.017-2.35 0-4.234-1.81-4.234-4.018 0-2.207 1.884-4.017 4.234-4.017s4.234 1.81 4.234 4.017Z" class="elektron"/>
    <path fill="url(#f)" stroke="#000" stroke-width=".5" d="M25.76 111.129c0 2.207-1.883 4.018-4.233 4.018-2.35 0-4.233-1.811-4.233-4.018s1.883-4.017 4.233-4.017c2.35 0 4.234 1.81 4.234 4.017Z" class="elektron"/>
    <path fill="url(#g)" stroke="#000" stroke-width=".5" d="M111.761 19.13c0 2.207-1.884 4.017-4.234 4.017s-4.234-1.81-4.234-4.018c0-2.207 1.884-4.017 4.234-4.017s4.234 1.81 4.234 4.017Z" class="elektron"/>
    <path fill="url(#h)" stroke="#000" stroke-width=".5" d="M152.761 59.13c0 2.206-1.884 4.017-4.234 4.017s-4.234-1.81-4.234-4.018c0-2.207 1.884-4.017 4.234-4.017s4.234 1.81 4.234 4.017Z" class="elektron"/>
    <path fill="url(#i)" stroke="#000" stroke-width=".5" d="M66.76 145.129c0 2.207-1.883 4.018-4.233 4.018-2.35 0-4.233-1.811-4.233-4.018s1.883-4.017 4.233-4.017c2.35 0 4.234 1.81 4.234 4.017Z" class="elektron"/>
    <path fill="url(#j)" stroke="#000" stroke-width=".5" d="M39.76 136.129c0 2.207-1.883 4.018-4.233 4.018-2.35 0-4.233-1.811-4.233-4.018s1.883-4.017 4.233-4.017c2.35 0 4.234 1.81 4.234 4.017Z" class="elektron"/>
    <path fill="url(#k)" stroke="#000" stroke-width=".5" d="M150.761 113.129c0 2.207-1.884 4.018-4.234 4.018s-4.234-1.811-4.234-4.018 1.884-4.017 4.234-4.017 4.234 1.81 4.234 4.017Z" class="elektron"/>
    <path fill="url(#l)" stroke="#000" stroke-width=".5" d="M66.76 19.13c0 2.207-1.883 4.017-4.233 4.017-2.35 0-4.233-1.81-4.233-4.018 0-2.207 1.883-4.017 4.233-4.017 2.35 0 4.234 1.81 4.234 4.017Z" class="elektron"/>
    <path fill="url(#m)" stroke="#000" stroke-width=".5" d="M89.76 5.13c0 2.206-1.883 4.017-4.233 4.017-2.35 0-4.234-1.81-4.234-4.018 0-2.207 1.884-4.017 4.234-4.017s4.234 1.81 4.234 4.017Z" class="elektron"/>
    <path fill="url(#n)" stroke="#000" stroke-width=".5" d="M89.76 162.129c0 2.207-1.883 4.018-4.233 4.018-2.35 0-4.234-1.811-4.234-4.018s1.884-4.017 4.234-4.017 4.234 1.81 4.234 4.017Z" class="elektron"/>
    <path fill="url(#o)" stroke="#000" stroke-width=".5" d="M108.761 145.129c0 2.207-1.884 4.018-4.234 4.018s-4.234-1.811-4.234-4.018 1.884-4.017 4.234-4.017 4.234 1.81 4.234 4.017Z" class="elektron"/>
    <path fill="url(#p)" stroke="#000" stroke-width=".5" d="M123.761 111.129c0 2.207-1.884 4.018-4.234 4.018s-4.234-1.811-4.234-4.018 1.884-4.017 4.234-4.017 4.234 1.81 4.234 4.017Z" class="elektron"/>
    <path fill="url(#q)" stroke="#000" stroke-width=".5" d="M88.76 26.13c0 2.207-1.883 4.017-4.233 4.017-2.35 0-4.234-1.81-4.234-4.018 0-2.207 1.884-4.017 4.234-4.017s4.234 1.81 4.234 4.017Z" class="elektron"/>
    <path fill="url(#r)" stroke="#000" stroke-width=".5" d="M88.76 137.129c0 2.207-1.883 4.018-4.233 4.018-2.35 0-4.234-1.811-4.234-4.018s1.884-4.017 4.234-4.017 4.234 1.81 4.234 4.017Z" class="elektron"/>
    <path fill="url(#s)" stroke="#000" stroke-width=".5" d="M53.76 128.129c0 2.207-1.883 4.018-4.233 4.018-2.35 0-4.233-1.811-4.233-4.018s1.883-4.017 4.233-4.017c2.35 0 4.234 1.81 4.234 4.017Z" class="elektron"/>
    <path fill="url(#t)" stroke="#000" stroke-width=".5" d="M122.761 126.129c0 2.207-1.884 4.018-4.234 4.018s-4.234-1.811-4.234-4.018 1.884-4.017 4.234-4.017 4.234 1.81 4.234 4.017Z" class="elektron"/>
    <path fill="url(#u)" stroke="#000" stroke-width=".5" d="M146.761 82.13c0 2.207-1.884 4.017-4.234 4.017s-4.234-1.81-4.234-4.018c0-2.207 1.884-4.017 4.234-4.017s4.234 1.81 4.234 4.017Z" class="elektron"/>
    <path fill="url(#v)" stroke="#000" stroke-width=".5" d="M25.76 52.13c0 2.206-1.883 4.017-4.233 4.017-2.35 0-4.233-1.81-4.233-4.018 0-2.207 1.883-4.017 4.233-4.017 2.35 0 4.234 1.81 4.234 4.017Z" class="elektron"/>
    <path fill="url(#w)" stroke="#000" stroke-width=".5" d="M42.76 31.13c0 2.207-1.883 4.017-4.233 4.017-2.35 0-4.233-1.81-4.233-4.018 0-2.207 1.883-4.017 4.233-4.017 2.35 0 4.234 1.81 4.234 4.017Z" class="elektron"/>
  </g>
  <defs>
    <radialGradient id="a" cx="0" cy="0" r="1" class="a" gradientTransform="matrix(0 3.69828 -3.88587 0 82.201 83.785)" gradientUnits="userSpaceOnUse">
      <stop stop-color="#F80A0A"/>
      <stop offset="1" stop-color="#690404"/>
    </radialGradient>
    <radialGradient id="b" cx="0" cy="0" r="1" class="b" gradientTransform="matrix(0 4.26725 -4.4837 0 49.527 37.13)" gradientUnits="userSpaceOnUse">
      <stop stop-color="#00C2FF"/>
      <stop offset="1" stop-color="#0051A3"/>
    </radialGradient>
    <radialGradient id="c" cx="0" cy="0" r="1" class="c" gradientTransform="matrix(0 4.26725 -4.4837 0 26.527 84.13)" gradientUnits="userSpaceOnUse">
      <stop stop-color="#00C2FF"/>
      <stop offset="1" stop-color="#0051A3"/>
    </radialGradient>
    <radialGradient id="d" cx="0" cy="0" r="1" class="d" gradientTransform="matrix(0 4.26725 -4.4837 0 118.527 37.13)" gradientUnits="userSpaceOnUse">
      <stop stop-color="#00C2FF"/>
      <stop offset="1" stop-color="#0051A3"/>
    </radialGradient>
    <radialGradient id="e" cx="0" cy="0" r="1" class="e" gradientTransform="matrix(0 4.26725 -4.4837 0 68.527 40.13)" gradientUnits="userSpaceOnUse">
      <stop stop-color="#00C2FF"/>
      <stop offset="1" stop-color="#0051A3"/>
    </radialGradient>
    <radialGradient id="f" cx="0" cy="0" r="1" class="f" gradientTransform="matrix(0 4.26725 -4.4837 0 21.527 111.129)" gradientUnits="userSpaceOnUse">
      <stop stop-color="#00C2FF"/>
      <stop offset="1" stop-color="#0051A3"/>
    </radialGradient>
    <radialGradient id="g" cx="0" cy="0" r="1" class="g" gradientTransform="matrix(0 4.26725 -4.4837 0 107.527 19.13)" gradientUnits="userSpaceOnUse">
      <stop stop-color="#00C2FF"/>
      <stop offset="1" stop-color="#0051A3"/>
    </radialGradient>
    <radialGradient id="h" cx="0" cy="0" r="1" class="h" gradientTransform="matrix(0 4.26725 -4.4837 0 148.527 59.13)" gradientUnits="userSpaceOnUse">
      <stop stop-color="#00C2FF"/>
      <stop offset="1" stop-color="#0051A3"/>
    </radialGradient>
    <radialGradient id="i" cx="0" cy="0" r="1" class="i" gradientTransform="matrix(0 4.26725 -4.4837 0 62.527 145.129)" gradientUnits="userSpaceOnUse">
      <stop stop-color="#00C2FF"/>
      <stop offset="1" stop-color="#0051A3"/>
    </radialGradient>
    <radialGradient id="j" cx="0" cy="0" r="1" class="j" gradientTransform="matrix(0 4.26725 -4.4837 0 35.527 136.129)" gradientUnits="userSpaceOnUse">
      <stop stop-color="#00C2FF"/>
      <stop offset="1" stop-color="#0051A3"/>
    </radialGradient>
    <radialGradient id="k" cx="0" cy="0" r="1" class="k" gradientTransform="matrix(0 4.26725 -4.4837 0 146.527 113.129)" gradientUnits="userSpaceOnUse">
      <stop stop-color="#00C2FF"/>
      <stop offset="1" stop-color="#0051A3"/>
    </radialGradient>
    <radialGradient id="l" cx="0" cy="0" r="1" class="l" gradientTransform="matrix(0 4.26725 -4.4837 0 62.527 19.13)" gradientUnits="userSpaceOnUse">
      <stop stop-color="#00C2FF"/>
      <stop offset="1" stop-color="#0051A3"/>
    </radialGradient>
    <radialGradient id="m" cx="0" cy="0" r="1" class="m" gradientTransform="matrix(0 4.26725 -4.4837 0 85.527 5.13)" gradientUnits="userSpaceOnUse">
      <stop stop-color="#00C2FF"/>
      <stop offset="1" stop-color="#0051A3"/>
    </radialGradient>
    <radialGradient id="n" cx="0" cy="0" r="1" class="n" gradientTransform="matrix(0 4.26725 -4.4837 0 85.527 162.129)" gradientUnits="userSpaceOnUse">
      <stop stop-color="#00C2FF"/>
      <stop offset="1" stop-color="#0051A3"/>
    </radialGradient>
    <radialGradient id="o" cx="0" cy="0" r="1" class="o" gradientTransform="matrix(0 4.26725 -4.4837 0 104.527 145.129)" gradientUnits="userSpaceOnUse">
      <stop stop-color="#00C2FF"/>
      <stop offset="1" stop-color="#0051A3"/>
    </radialGradient>
    <radialGradient id="p" cx="0" cy="0" r="1" class="p" gradientTransform="scale(4.4837 4.26725) rotate(90 .308 26.35)" gradientUnits="userSpaceOnUse">
      <stop stop-color="#00C2FF"/>
      <stop offset="1" stop-color="#0051A3"/>
    </radialGradient>
    <radialGradient id="q" cx="0" cy="0" r="1" class="q" gradientTransform="matrix(0 4.26725 -4.4837 0 84.527 26.13)" gradientUnits="userSpaceOnUse">
      <stop stop-color="#00C2FF"/>
      <stop offset="1" stop-color="#0051A3"/>
    </radialGradient>
    <radialGradient id="r" cx="0" cy="0" r="1" class="r" gradientTransform="matrix(0 4.26725 -4.4837 0 84.527 137.129)" gradientUnits="userSpaceOnUse">
      <stop stop-color="#00C2FF"/>
      <stop offset="1" stop-color="#0051A3"/>
    </radialGradient>
    <radialGradient id="s" cx="0" cy="0" r="1" class="s" gradientTransform="matrix(0 4.26725 -4.4837 0 49.527 128.129)" gradientUnits="userSpaceOnUse">
      <stop stop-color="#00C2FF"/>
      <stop offset="1" stop-color="#0051A3"/>
    </radialGradient>
    <radialGradient id="t" cx="0" cy="0" r="1" class="t" gradientTransform="matrix(0 4.26725 -4.4837 0 118.527 126.129)" gradientUnits="userSpaceOnUse">
      <stop stop-color="#00C2FF"/>
      <stop offset="1" stop-color="#0051A3"/>
    </radialGradient>
    <radialGradient id="u" cx="0" cy="0" r="1" class="u" gradientTransform="matrix(0 4.26725 -4.4837 0 142.527 82.13)" gradientUnits="userSpaceOnUse">
      <stop stop-color="#00C2FF"/>
      <stop offset="1" stop-color="#0051A3"/>
    </radialGradient>
    <radialGradient id="v" cx="0" cy="0" r="1" class="v" gradientTransform="matrix(0 4.26725 -4.4837 0 21.527 52.13)" gradientUnits="userSpaceOnUse">
      <stop stop-color="#00C2FF"/>
      <stop offset="1" stop-color="#0051A3"/>
    </radialGradient>
    <radialGradient id="w" cx="0" cy="0" r="1" class="w" gradientTransform="matrix(0 4.26725 -4.4837 0 38.527 31.13)" gradientUnits="userSpaceOnUse">
      <stop stop-color="#00C2FF"/>
      <stop offset="1" stop-color="#0051A3"/>
    </radialGradient>
  </defs>
</svg>
