<?xml-stylesheet type="text/css" href="../style.css"?>
<svg xmlns="http://www.w3.org/2000/svg" width="165" height="167" fill="none" viewBox="0 0 165 167">
  <g class="zn">
    <path fill="#D9D9D9" fill-opacity=".1" stroke="#000" d="M128.631 83.782c0 23.955-20.625 43.425-46.13 43.425-25.507 0-46.131-19.47-46.131-43.425 0-23.956 20.624-43.425 46.13-43.425 25.506 0 46.131 19.47 46.131 43.425Z" class="powloka"/>
    <path fill="#D9D9D9" fill-opacity=".1" stroke="#000" d="M140.587 83.781c0 30.176-25.978 54.688-58.087 54.688-32.11 0-58.087-24.512-58.087-54.688 0-30.175 25.978-54.687 58.087-54.687s58.087 24.512 58.087 54.687Z" class="powloka"/>
    <path fill="#D9D9D9" fill-opacity=".1" stroke="#000" d="M152.544 83.782c0 36.395-31.331 65.95-70.044 65.95-38.712 0-70.043-29.555-70.043-65.95 0-36.396 31.33-65.95 70.043-65.95 38.713 0 70.044 29.554 70.044 65.95Z" class="powloka"/>
    <path fill="#D9D9D9" fill-opacity=".1" stroke="#000" d="M164.5 83.781c0 42.616-36.684 77.214-82 77.214S.5 126.397.5 83.781s36.684-77.213 82-77.213 82 34.597 82 77.213Z" class="powloka"/>
    <path fill="url(#a)" stroke="#000" stroke-width=".5" d="M82.201 87.41c2.27 0 4.136-1.736 4.136-3.91 0-2.174-1.866-3.91-4.136-3.91s-4.136 1.736-4.136 3.91c0 2.174 1.866 3.91 4.136 3.91Z" class="Ellipse 2"/>
    <path fill="url(#b)" stroke="#000" stroke-width=".5" d="M52.76 37.13c0 2.206-1.883 4.017-4.233 4.017-2.35 0-4.233-1.81-4.233-4.018 0-2.207 1.883-4.017 4.233-4.017 2.35 0 4.234 1.81 4.234 4.017Z" class="elektron"/>
    <path fill="url(#c)" stroke="#000" stroke-width=".5" d="M29.76 83.13c0 2.207-1.883 4.017-4.233 4.017-2.35 0-4.233-1.81-4.233-4.018 0-2.207 1.883-4.017 4.233-4.017 2.35 0 4.234 1.81 4.234 4.017Z" class="elektron"/>
    <path fill="url(#d)" stroke="#000" stroke-width=".5" d="M120.761 37.13c0 2.206-1.884 4.017-4.234 4.017s-4.234-1.81-4.234-4.018c0-2.207 1.884-4.017 4.234-4.017s4.234 1.81 4.234 4.017Z" class="elektron"/>
    <path fill="url(#e)" stroke="#000" stroke-width=".5" d="M71.76 40.13c0 2.206-1.883 4.017-4.233 4.017-2.35 0-4.233-1.81-4.233-4.018 0-2.207 1.883-4.017 4.233-4.017 2.35 0 4.234 1.81 4.234 4.017Z" class="elektron"/>
    <path fill="url(#f)" stroke="#000" stroke-width=".5" d="M24.76 116.129c0 2.207-1.883 4.018-4.233 4.018-2.35 0-4.233-1.811-4.233-4.018s1.883-4.017 4.233-4.017c2.35 0 4.234 1.81 4.234 4.017Z" class="elektron"/>
    <path fill="url(#g)" stroke="#000" stroke-width=".5" d="M110.761 19.13c0 2.207-1.884 4.017-4.234 4.017s-4.234-1.81-4.234-4.018c0-2.207 1.884-4.017 4.234-4.017s4.234 1.81 4.234 4.017Z" class="elektron"/>
    <path fill="url(#h)" stroke="#000" stroke-width=".5" d="M151.761 58.13c0 2.206-1.884 4.017-4.234 4.017s-4.234-1.81-4.234-4.018c0-2.207 1.884-4.017 4.234-4.017s4.234 1.81 4.234 4.017Z" class="elektron"/>
    <path fill="url(#i)" stroke="#000" stroke-width=".5" d="M158.761 83.13c0 2.207-1.884 4.017-4.234 4.017s-4.234-1.81-4.234-4.018c0-2.207 1.884-4.017 4.234-4.017s4.234 1.81 4.234 4.017Z" class="elektron"/>
    <path fill="url(#j)" stroke="#000" stroke-width=".5" d="M87.76 16.13c0 2.207-1.883 4.017-4.233 4.017-2.35 0-4.234-1.81-4.234-4.018 0-2.207 1.884-4.017 4.234-4.017s4.234 1.81 4.234 4.017Z" class="elektron"/>
    <path fill="url(#k)" stroke="#000" stroke-width=".5" d="M135.761 36.13c0 2.206-1.884 4.017-4.234 4.017s-4.234-1.81-4.234-4.018c0-2.207 1.884-4.017 4.234-4.017s4.234 1.81 4.234 4.017Z" class="elektron"/>
    <path fill="url(#l)" stroke="#000" stroke-width=".5" d="M63.76 145.129c0 2.207-1.883 4.018-4.233 4.018-2.35 0-4.233-1.811-4.233-4.018s1.883-4.017 4.233-4.017c2.35 0 4.234 1.81 4.234 4.017Z" class="elektron"/>
    <path fill="url(#m)" stroke="#000" stroke-width=".5" d="M38.76 135.129c0 2.207-1.883 4.018-4.233 4.018-2.35 0-4.233-1.811-4.233-4.018s1.883-4.017 4.233-4.017c2.35 0 4.234 1.81 4.234 4.017Z" class="elektron"/>
    <path fill="url(#n)" stroke="#000" stroke-width=".5" d="M148.761 112.129c0 2.207-1.884 4.018-4.234 4.018s-4.234-1.811-4.234-4.018 1.884-4.017 4.234-4.017 4.234 1.81 4.234 4.017Z" class="elektron"/>
    <path fill="url(#o)" stroke="#000" stroke-width=".5" d="M65.76 19.13c0 2.207-1.883 4.017-4.233 4.017-2.35 0-4.233-1.81-4.233-4.018 0-2.207 1.883-4.017 4.233-4.017 2.35 0 4.234 1.81 4.234 4.017Z" class="elektron"/>
    <path fill="url(#p)" stroke="#000" stroke-width=".5" d="M87.76 5.13c0 2.206-1.883 4.017-4.233 4.017-2.35 0-4.234-1.81-4.234-4.018 0-2.207 1.884-4.017 4.234-4.017s4.234 1.81 4.234 4.017Z" class="elektron"/>
    <path fill="url(#q)" stroke="#000" stroke-width=".5" d="M87.76 162.129c0 2.207-1.883 4.018-4.233 4.018-2.35 0-4.234-1.811-4.234-4.018s1.884-4.017 4.234-4.017 4.234 1.81 4.234 4.017Z" class="elektron"/>
    <path fill="url(#r)" stroke="#000" stroke-width=".5" d="M85.76 149.129c0 2.207-1.883 4.018-4.233 4.018-2.35 0-4.234-1.811-4.234-4.018s1.884-4.017 4.234-4.017 4.234 1.81 4.234 4.017Z" class="elektron"/>
    <path fill="url(#s)" stroke="#000" stroke-width=".5" d="M16.76 73.13c0 2.207-1.883 4.017-4.233 4.017-2.35 0-4.234-1.81-4.234-4.018 0-2.207 1.884-4.017 4.234-4.017s4.234 1.81 4.234 4.017Z" class="elektron"/>
    <path fill="url(#t)" stroke="#000" stroke-width=".5" d="M107.761 144.129c0 2.207-1.884 4.018-4.234 4.018s-4.234-1.811-4.234-4.018 1.884-4.017 4.234-4.017 4.234 1.81 4.234 4.017Z" class="elektron"/>
    <path fill="url(#u)" stroke="#000" stroke-width=".5" d="M15.76 96.13c0 2.207-1.883 4.017-4.233 4.017-2.35 0-4.234-1.81-4.234-4.018 0-2.207 1.884-4.017 4.234-4.017s4.234 1.81 4.234 4.017Z" class="elektron"/>
    <path fill="url(#v)" stroke="#000" stroke-width=".5" d="M144.761 46.13c0 2.206-1.884 4.017-4.234 4.017s-4.234-1.81-4.234-4.018c0-2.207 1.884-4.017 4.234-4.017s4.234 1.81 4.234 4.017Z" class="elektron"/>
    <path fill="url(#w)" stroke="#000" stroke-width=".5" d="M132.761 133.129c0 2.207-1.884 4.018-4.234 4.018s-4.234-1.811-4.234-4.018 1.884-4.017 4.234-4.017 4.234 1.81 4.234 4.017Z" class="elektron"/>
    <path fill="url(#x)" stroke="#000" stroke-width=".5" d="M122.761 110.129c0 2.207-1.884 4.018-4.234 4.018s-4.234-1.811-4.234-4.018 1.884-4.017 4.234-4.017 4.234 1.81 4.234 4.017Z" class="elektron"/>
    <path fill="url(#y)" stroke="#000" stroke-width=".5" d="M87.76 29.13c0 2.207-1.883 4.017-4.233 4.017-2.35 0-4.234-1.81-4.234-4.018 0-2.207 1.884-4.017 4.234-4.017s4.234 1.81 4.234 4.017Z" class="elektron"/>
    <path fill="url(#z)" stroke="#000" stroke-width=".5" d="M87.76 135.129c0 2.207-1.883 4.018-4.233 4.018-2.35 0-4.234-1.811-4.234-4.018s1.884-4.017 4.234-4.017 4.234 1.81 4.234 4.017Z" class="elektron"/>
    <path fill="url(#A)" stroke="#000" stroke-width=".5" d="M52.76 127.129c0 2.207-1.883 4.018-4.233 4.018-2.35 0-4.233-1.811-4.233-4.018s1.883-4.017 4.233-4.017c2.35 0 4.234 1.81 4.234 4.017Z" class="elektron"/>
    <path fill="url(#B)" stroke="#000" stroke-width=".5" d="M120.761 125.129c0 2.207-1.884 4.018-4.234 4.018s-4.234-1.811-4.234-4.018 1.884-4.017 4.234-4.017 4.234 1.81 4.234 4.017Z" class="elektron"/>
    <path fill="url(#C)" stroke="#000" stroke-width=".5" d="M145.761 81.13c0 2.207-1.884 4.017-4.234 4.017s-4.234-1.81-4.234-4.018c0-2.207 1.884-4.017 4.234-4.017s4.234 1.81 4.234 4.017Z" class="elektron"/>
    <path fill="url(#D)" stroke="#000" stroke-width=".5" d="M24.76 52.13c0 2.206-1.883 4.017-4.233 4.017-2.35 0-4.233-1.81-4.233-4.018 0-2.207 1.883-4.017 4.233-4.017 2.35 0 4.234 1.81 4.234 4.017Z" class="elektron"/>
    <path fill="url(#E)" stroke="#000" stroke-width=".5" d="M41.76 30.13c0 2.207-1.883 4.017-4.233 4.017-2.35 0-4.233-1.81-4.233-4.018 0-2.207 1.883-4.017 4.233-4.017 2.35 0 4.234 1.81 4.234 4.017Z" class="elektron"/>
  </g>
  <defs>
    <radialGradient id="a" cx="0" cy="0" r="1" class="a" gradientTransform="matrix(0 3.66041 -3.88587 0 82.201 83.5)" gradientUnits="userSpaceOnUse">
      <stop stop-color="#F80A0A"/>
      <stop offset="1" stop-color="#690404"/>
    </radialGradient>
    <radialGradient id="b" cx="0" cy="0" r="1" class="b" gradientTransform="matrix(0 4.26725 -4.4837 0 48.527 37.13)" gradientUnits="userSpaceOnUse">
      <stop stop-color="#00C2FF"/>
      <stop offset="1" stop-color="#0051A3"/>
    </radialGradient>
    <radialGradient id="c" cx="0" cy="0" r="1" class="c" gradientTransform="matrix(0 4.26725 -4.4837 0 25.527 83.13)" gradientUnits="userSpaceOnUse">
      <stop stop-color="#00C2FF"/>
      <stop offset="1" stop-color="#0051A3"/>
    </radialGradient>
    <radialGradient id="d" cx="0" cy="0" r="1" class="d" gradientTransform="matrix(0 4.26725 -4.4837 0 116.527 37.13)" gradientUnits="userSpaceOnUse">
      <stop stop-color="#00C2FF"/>
      <stop offset="1" stop-color="#0051A3"/>
    </radialGradient>
    <radialGradient id="e" cx="0" cy="0" r="1" class="e" gradientTransform="matrix(0 4.26725 -4.4837 0 67.527 40.13)" gradientUnits="userSpaceOnUse">
      <stop stop-color="#00C2FF"/>
      <stop offset="1" stop-color="#0051A3"/>
    </radialGradient>
    <radialGradient id="f" cx="0" cy="0" r="1" class="f" gradientTransform="matrix(0 4.26725 -4.4837 0 20.527 116.129)" gradientUnits="userSpaceOnUse">
      <stop stop-color="#00C2FF"/>
      <stop offset="1" stop-color="#0051A3"/>
    </radialGradient>
    <radialGradient id="g" cx="0" cy="0" r="1" class="g" gradientTransform="matrix(0 4.26725 -4.4837 0 106.527 19.13)" gradientUnits="userSpaceOnUse">
      <stop stop-color="#00C2FF"/>
      <stop offset="1" stop-color="#0051A3"/>
    </radialGradient>
    <radialGradient id="h" cx="0" cy="0" r="1" class="h" gradientTransform="matrix(0 4.26725 -4.4837 0 147.527 58.13)" gradientUnits="userSpaceOnUse">
      <stop stop-color="#00C2FF"/>
      <stop offset="1" stop-color="#0051A3"/>
    </radialGradient>
    <radialGradient id="i" cx="0" cy="0" r="1" class="i" gradientTransform="matrix(0 4.26725 -4.4837 0 154.527 83.13)" gradientUnits="userSpaceOnUse">
      <stop stop-color="#00C2FF"/>
      <stop offset="1" stop-color="#0051A3"/>
    </radialGradient>
    <radialGradient id="j" cx="0" cy="0" r="1" class="j" gradientTransform="matrix(0 4.26725 -4.4837 0 83.527 16.13)" gradientUnits="userSpaceOnUse">
      <stop stop-color="#00C2FF"/>
      <stop offset="1" stop-color="#0051A3"/>
    </radialGradient>
    <radialGradient id="k" cx="0" cy="0" r="1" class="k" gradientTransform="matrix(0 4.26725 -4.4837 0 131.527 36.13)" gradientUnits="userSpaceOnUse">
      <stop stop-color="#00C2FF"/>
      <stop offset="1" stop-color="#0051A3"/>
    </radialGradient>
    <radialGradient id="l" cx="0" cy="0" r="1" class="l" gradientTransform="matrix(0 4.26725 -4.4837 0 59.527 145.129)" gradientUnits="userSpaceOnUse">
      <stop stop-color="#00C2FF"/>
      <stop offset="1" stop-color="#0051A3"/>
    </radialGradient>
    <radialGradient id="m" cx="0" cy="0" r="1" class="m" gradientTransform="matrix(0 4.26725 -4.4837 0 34.527 135.129)" gradientUnits="userSpaceOnUse">
      <stop stop-color="#00C2FF"/>
      <stop offset="1" stop-color="#0051A3"/>
    </radialGradient>
    <radialGradient id="n" cx="0" cy="0" r="1" class="n" gradientTransform="matrix(0 4.26725 -4.4837 0 144.527 112.129)" gradientUnits="userSpaceOnUse">
      <stop stop-color="#00C2FF"/>
      <stop offset="1" stop-color="#0051A3"/>
    </radialGradient>
    <radialGradient id="o" cx="0" cy="0" r="1" class="o" gradientTransform="matrix(0 4.26725 -4.4837 0 61.527 19.13)" gradientUnits="userSpaceOnUse">
      <stop stop-color="#00C2FF"/>
      <stop offset="1" stop-color="#0051A3"/>
    </radialGradient>
    <radialGradient id="p" cx="0" cy="0" r="1" class="p" gradientTransform="matrix(0 4.26725 -4.4837 0 83.527 5.13)" gradientUnits="userSpaceOnUse">
      <stop stop-color="#00C2FF"/>
      <stop offset="1" stop-color="#0051A3"/>
    </radialGradient>
    <radialGradient id="q" cx="0" cy="0" r="1" class="q" gradientTransform="matrix(0 4.26725 -4.4837 0 83.527 162.129)" gradientUnits="userSpaceOnUse">
      <stop stop-color="#00C2FF"/>
      <stop offset="1" stop-color="#0051A3"/>
    </radialGradient>
    <radialGradient id="r" cx="0" cy="0" r="1" class="r" gradientTransform="matrix(0 4.26725 -4.4837 0 81.527 149.129)" gradientUnits="userSpaceOnUse">
      <stop stop-color="#00C2FF"/>
      <stop offset="1" stop-color="#0051A3"/>
    </radialGradient>
    <radialGradient id="s" cx="0" cy="0" r="1" class="s" gradientTransform="matrix(0 4.26725 -4.4837 0 12.527 73.13)" gradientUnits="userSpaceOnUse">
      <stop stop-color="#00C2FF"/>
      <stop offset="1" stop-color="#0051A3"/>
    </radialGradient>
    <radialGradient id="t" cx="0" cy="0" r="1" class="t" gradientTransform="matrix(0 4.26725 -4.4837 0 103.527 144.129)" gradientUnits="userSpaceOnUse">
      <stop stop-color="#00C2FF"/>
      <stop offset="1" stop-color="#0051A3"/>
    </radialGradient>
    <radialGradient id="u" cx="0" cy="0" r="1" class="u" gradientTransform="matrix(0 4.26725 -4.4837 0 11.527 96.13)" gradientUnits="userSpaceOnUse">
      <stop stop-color="#00C2FF"/>
      <stop offset="1" stop-color="#0051A3"/>
    </radialGradient>
    <radialGradient id="v" cx="0" cy="0" r="1" class="v" gradientTransform="matrix(0 4.26725 -4.4837 0 140.527 46.13)" gradientUnits="userSpaceOnUse">
      <stop stop-color="#00C2FF"/>
      <stop offset="1" stop-color="#0051A3"/>
    </radialGradient>
    <radialGradient id="w" cx="0" cy="0" r="1" class="w" gradientTransform="matrix(0 4.26725 -4.4837 0 128.527 133.129)" gradientUnits="userSpaceOnUse">
      <stop stop-color="#00C2FF"/>
      <stop offset="1" stop-color="#0051A3"/>
    </radialGradient>
    <radialGradient id="x" cx="0" cy="0" r="1" class="x" gradientTransform="matrix(0 4.26725 -4.4837 0 118.527 110.129)" gradientUnits="userSpaceOnUse">
      <stop stop-color="#00C2FF"/>
      <stop offset="1" stop-color="#0051A3"/>
    </radialGradient>
    <radialGradient id="y" cx="0" cy="0" r="1" class="y" gradientTransform="matrix(0 4.26725 -4.4837 0 83.527 29.13)" gradientUnits="userSpaceOnUse">
      <stop stop-color="#00C2FF"/>
      <stop offset="1" stop-color="#0051A3"/>
    </radialGradient>
    <radialGradient id="z" cx="0" cy="0" r="1" class="z" gradientTransform="matrix(0 4.26725 -4.4837 0 83.527 135.129)" gradientUnits="userSpaceOnUse">
      <stop stop-color="#00C2FF"/>
      <stop offset="1" stop-color="#0051A3"/>
    </radialGradient>
    <radialGradient id="A" cx="0" cy="0" r="1" class="A" gradientTransform="matrix(0 4.26725 -4.4837 0 48.527 127.129)" gradientUnits="userSpaceOnUse">
      <stop stop-color="#00C2FF"/>
      <stop offset="1" stop-color="#0051A3"/>
    </radialGradient>
    <radialGradient id="B" cx="0" cy="0" r="1" class="B" gradientTransform="matrix(0 4.26725 -4.4837 0 116.527 125.129)" gradientUnits="userSpaceOnUse">
      <stop stop-color="#00C2FF"/>
      <stop offset="1" stop-color="#0051A3"/>
    </radialGradient>
    <radialGradient id="C" cx="0" cy="0" r="1" class="C" gradientTransform="matrix(0 4.26725 -4.4837 0 141.527 81.13)" gradientUnits="userSpaceOnUse">
      <stop stop-color="#00C2FF"/>
      <stop offset="1" stop-color="#0051A3"/>
    </radialGradient>
    <radialGradient id="D" cx="0" cy="0" r="1" class="D" gradientTransform="matrix(0 4.26725 -4.4837 0 20.527 52.13)" gradientUnits="userSpaceOnUse">
      <stop stop-color="#00C2FF"/>
      <stop offset="1" stop-color="#0051A3"/>
    </radialGradient>
    <radialGradient id="E" cx="0" cy="0" r="1" class="E" gradientTransform="matrix(0 4.26725 -4.4837 0 37.527 30.13)" gradientUnits="userSpaceOnUse">
      <stop stop-color="#00C2FF"/>
      <stop offset="1" stop-color="#0051A3"/>
    </radialGradient>
  </defs>
</svg>
