<svg xmlns="http://www.w3.org/2000/svg" width="486" height="286" fill="none" viewBox="0 0 486 286">
  <path fill="#9B76CB" d="M377.989 0H117.24a8.698 8.698 0 0 0-8.698 8.698v158.035a8.698 8.698 0 0 0 8.698 8.698h260.749a8.698 8.698 0 0 0 8.698-8.698V8.698A8.699 8.699 0 0 0 377.989 0Z"/>
  <path fill="#F8EFE7" d="M369.745 8.18H125.49a8.699 8.699 0 0 0-8.698 8.698v141.663a8.699 8.699 0 0 0 8.698 8.698h244.255a8.698 8.698 0 0 0 8.698-8.698V16.878a8.698 8.698 0 0 0-8.698-8.698Z"/>
  <path fill="#B25E47" d="M117.119 123.678c-9.191 1.107-10.323-4.924-13.668-13.501-3.345-8.576-2.756-16.629-5.027-29.816-2.654-15.35 15.989-15.695 19.827 5.826.16.87.332 1.88.518 2.987.543 3.115 1.228 7.035 2.213 10.924.249.978.518 1.957.799 2.922 1.855 6.198 4.547 19.545-4.662 20.658Z"/>
  <path fill="#D9B2AA" d="M121.007 100.098c-12.369 3.837-14.204-6.28-14.07-10.419l11.845-.505c.556 3.095 1.24 7.016 2.225 10.924Z"/>
  <path fill="#605595" d="M165.489 164.092c-.481.458-.989.885-1.522 1.279-.403.32-.889.684-1.452 1.062l-.48.326-.55.352c-.774.486-1.65.997-2.635 1.496-.46.237-.947.48-1.458.704-.262.121-.531.243-.812.358l-.838.345c-.262.103-.525.205-.8.301s-.639.243-1.01.358c-.371.115-.64.211-.96.307-.319.096-.639.198-.991.288l-.895.237-.243.057-.921.205c-.736.166-1.49.3-2.277.415-.32.058-.64.103-.979.141-.121 0-.243.032-.371.039-.338.044-.677.076-1.023.108v.064c.179 1.765 2.124 35.176 2.622 43.957l.045.78v.48c-24.572-.639-49.054-.876-72.641-.812-.486-8.788-1.362-25.026-2.213-41.572-1.183-23.184-2.309-46.937-2.18-51.554v-.071c.268-8.89-.98-15.548 6.612-18.483 2.648-1.023 6.396-1.599 11.615-1.65h3.274c.397 0 .768 0 1.126-.039h.786l.749-.038h.64l1.035-.057.73-.052c.383 0 .729-.051 1.048-.076h.199l.364-.032.518-.058h.18a16.202 16.202 0 0 0 1.272-.211c.124-.023.244-.062.358-.115 1.676 4.63 6.345 13.098 14.173 12.03 7.828-1.068 7.169-9.792 5.615-13.61l.147.128.224.179.493.358c.07.051.147.109.23.16l.262.173.256.16.352.211c.3.166.639.326.953.467l.332.134c.224.077.448.134.64.186.238.047.48.071.722.07.077.007.154.007.231 0 .083 0 .159 0 .236-.039 1.222-.307 4.656-.908 9.357.934 3 1.183 6.517 3.364 10.31 7.266a40.17 40.17 0 0 1 6.178 8.953c6.76 12.44 11.781 31.384 13.367 43.401Z"/>
  <path fill="#605595" d="M152.167 120.583a18.806 18.806 0 0 0-11.915 2.251 16.048 16.048 0 0 0-6.396 7.336c-6.6 14.556-23.894 20.024-35.45 3.914a36.843 36.843 0 0 0-5.546-6.236c-6.21-5.449-13.43-6.952-22-3.972v-.07c.268-8.89-.98-15.548 6.612-18.483 2.648-1.024 6.396-1.599 11.615-1.65 11.064-.115 12.299-.825 12.299-.825 1.675 4.63 6.344 13.098 14.172 12.03 7.828-1.068 7.17-9.792 5.616-13.61.172.147 3.197 2.661 5.116 2.181 1.222-.307 4.656-.908 9.357.934 2.999 1.183 6.517 3.364 10.31 7.265a40.227 40.227 0 0 1 6.21 8.935Z"/>
  <path fill="#B25E47" d="M163.385 218.263c-5.155-.167-10.308-.316-15.459-.448v-.48l-.044-.78-2.623-43.957v-.064l18.126-12.343c.243 1.611.447 3.364.639 5.218 1.637 18.957-.358 48.761-.639 52.854Z"/>
  <path fill="#9067C6" d="M165.489 164.092s-7.234 7.297-20.255 8.429c-.716-20.996-2.731-37.618-4.97-49.687-1.541-8.346-3.197-14.524-4.572-18.451 2.999 1.183 6.517 3.364 10.309 7.265a40.144 40.144 0 0 1 6.178 8.954c6.703 12.529 11.724 31.473 13.31 43.49Z"/>
  <path fill="#9067C6" d="M152.167 120.583a18.806 18.806 0 0 0-11.915 2.251c-1.542-8.346-3.198-14.524-4.573-18.451 2.999 1.183 6.517 3.364 10.31 7.265a40.218 40.218 0 0 1 6.178 8.935Z"/>
  <path stroke="#8051BD" stroke-linecap="round" stroke-linejoin="round" stroke-width=".68" d="M145.221 172.521c-.716-20.996-2.731-37.619-4.969-49.687"/>
  <path fill="#fff" d="M101.015 100.545c-3.838 1.51-3.838 3.198-3.838 5.034 0 1.835 3.441 11.851 10.169 18.963 1.311 1.388 3.262-7.176 5.187-7.675 1.925-.499 3.652.384 4.547.256.896-.128 3.269-2.482 4.81-1.414 1.541 1.068 4.803 6.396 5.443 6.537.639.14.703-12.619-.768-17.102a7.292 7.292 0 0 0-5.583-5.034s1.061 9.261-2.04 12.011c-6.447 5.731-13.079-1.49-17.927-11.576Z"/>
  <path fill="#B25E47" d="M99.192 75.174c-2.245-.832-5.686 1.279-5.219 4.777.467 3.499 5.641 4.644 8.199 2.616a33.85 33.85 0 0 1-2.98-7.393Z"/>
  <path stroke="#D9B2AA" stroke-linecap="round" stroke-linejoin="round" stroke-width=".68" d="M95.738 80.182c-.192-1.503 1.625-3.876 4.477-1.625"/>
  <path stroke="#D9B2AA" stroke-linecap="round" stroke-linejoin="round" stroke-width=".68" d="M99.064 81.167c-2.974-.077-2.098-3.281.588-3"/>
  <path fill="#B25E47" d="m122.44 78.755-1.612.467-15.791 4.567s-.422-.41-1.061-1.12a26.166 26.166 0 0 1-4.906-7.821c-.347-.93-.59-1.895-.722-2.878-.78-6.12 5.583-17.588 16.174-12.293 3.422 3.262 5.366 9.057 5.865 10.758l.166.575c.608 2.27 1.887 7.745 1.887 7.745Z"/>
  <path fill="#D9B2AA" d="M111.126 76.587a6.159 6.159 0 0 1-6.159 6.16c-.34 0-.68-.026-1.017-.077a26.157 26.157 0 0 1-4.905-7.822 6.162 6.162 0 0 1 6.794-4.367 6.165 6.165 0 0 1 5.287 6.106Zm11.314 2.168-1.612.467a5.065 5.065 0 0 1-2.247-4.038 5.058 5.058 0 0 1 1.972-4.18c.608 2.277 1.887 7.751 1.887 7.751Z"/>
  <path fill="#683F1D" d="M110.87 70.415a.817.817 0 0 0 .503.762.817.817 0 0 0 1.119-.597.82.82 0 1 0-1.622-.165Zm5.897-.812a.82.82 0 0 0 .981.803.821.821 0 0 0 .641-.647.817.817 0 0 0-.81-.974.812.812 0 0 0-.812.818Z"/>
  <path fill="#F8EEE5" d="M123.777 88.643c-3.448 8.839-12.031 6.274-15.862 3.793-3.83-2.482-5.756-8.852-8.467-13.207-3.55-5.673-3.435-11.244-1.548-15.35a11.558 11.558 0 0 1 6.191-6.146c5.999-2.194 10.438 1.919 10.438 1.919-.122 3.837-7.458 2.814-8.846 2.398-3.421-1.004-4.809 2.654-5.212 5.545-.473 3.358.038 6.85 1.874 9.414 1.835 2.565 3.198 3.198 4.195 1.92.998-1.28 2.898-2.732 7.746-3.512 4.847-.78 7.073 1.535 7.073 1.535 0-.87-.921-6.178-.972-6.504a35.182 35.182 0 0 1 3.78 9.964c.531 2.744.601 5.666-.39 8.231Z"/>
  <path fill="#EDD6B7" d="M123.777 88.643c-3.448 8.839-12.031 6.274-15.862 3.793-3.83-2.482-5.756-8.852-8.467-13.207-3.55-5.673-3.435-11.244-1.548-15.35-.128 10.93 7.476 23.024 12.152 25.25 4.387 2.098 12.292 1.4 14.102-8.71.544 2.737.614 5.66-.377 8.224Z"/>
  <path fill="#fff" stroke="#D9B2AA" stroke-linecap="round" stroke-linejoin="round" stroke-width=".68" d="M111.682 77.969c1.964.119 3.933.119 5.897 0 0 0-.786 2.603-3.198 2.379a2.897 2.897 0 0 1-2.699-2.38Z"/>
  <path fill="#F8EEE5" d="M110.864 64.48c.396 1.567-3.55 4.337-4.535 3.198-.985-1.138 3.934-5.551 4.535-3.198Zm3.543-.684c-.121 1.126 4.624 2.072 4.688 1.222.064-.85-4.464-3.256-4.688-1.222Z"/>
  <path stroke="#D9B2AA" stroke-linecap="round" stroke-linejoin="round" stroke-width=".68" d="M113.608 65.65c-.461 1.619-.755 3.723.799 4.478 1.554.754 3.658.46 3.869 3.543"/>
  <path fill="#B25E47" d="M56.764 171.134c-.89 10.111-.915 31.274 9.593 36.646 17.313 8.845 20.978-14.025 20.216-36.646h-29.81Z"/>
  <path fill="#9067C6" d="M93.033 135.76c-.326 13.373-6.095 39.083-6.095 39.083-5.366.442-9.952.64-13.872.64-16.514 0-21.106-3.249-21.106-3.249s3.345-25.774 8.072-42.672a96.268 96.268 0 0 1 1.464-4.815c4.356-12.913 9.856-18.273 15.99-19.373a15.432 15.432 0 0 1 4.885-.057c6.793.921 9.78 11.512 10.502 22.583.18 2.59.224 5.263.16 7.86Z"/>
  <path fill="#9067C6" d="M92.886 127.848c-6.21-5.449-13.43-6.952-22.001-3.972a47.162 47.162 0 0 0-10.873 5.635 96 96 0 0 1 1.465-4.816c4.355-12.913 9.856-18.272 15.989-19.372a15.433 15.433 0 0 1 4.886-.058c6.824.921 9.811 11.499 10.534 22.583Z"/>
  <path stroke="#8051BD" stroke-linecap="round" stroke-linejoin="round" stroke-width=".68" d="M93.033 135.76c-.326 13.373-6.095 39.083-6.095 39.083"/>
  <path fill="#B25E47" d="M154.45 149.19s1.919 1.407-.122 5.257c0 0 2.13 1.964-.722 5.258a3.579 3.579 0 0 1-1.088 4.528 79.071 79.071 0 0 1-9.158 6.907c-1.497.921-3.556 2.27-6.805 4.573-1.279.908-2.763 1.97-4.477 3.198-3.837 2.795-8.839 6.51-15.426 11.512-26.702 20.248-42.646 23.024-51.92 16.353-7.367-5.295 1.919-29.176 30.36-38.731 14.64-4.925 23.626-7.503 29.126-9.05 2.232-.64 3.895-1.088 5.116-1.458 1.625-.499 2.501-.845 2.981-1.248 1.714-1.471 2.507-3.197 3.338-5.27.832-2.072 2.789-9.836 3.275-11.959.486-2.124 4.163-3.352 3.549 8.653 0 0 10.521-3.428 12.427-3.921 1.906-.492 2.66 3.684-.454 5.398Z"/>
  <path fill="#683F1D" d="M136.555 175.713c-1.279.908-2.763 1.97-4.477 3.198-2.405-2.859-7.521-10.067-7.847-19.91 2.232-.64 3.895-1.087 5.116-1.458.326 4.969 3.243 13.693 7.208 18.17Z"/>
  <path fill="#fff" stroke="#683F1D" stroke-linecap="round" stroke-linejoin="round" stroke-width=".9" d="M128.58 172.521a4.841 4.841 0 1 0 0-9.682 4.841 4.841 0 0 0 0 9.682Z"/>
  <path stroke="#D9B2AA" stroke-linecap="round" stroke-linejoin="round" stroke-width=".68" d="M135.679 151.026c.825-2.079 2.788-9.837 3.274-11.96.486-2.123 4.164-3.351 3.55 8.653 0 0 10.521-3.428 12.427-3.92 1.905-.493 2.635 3.677-.48 5.391 0 0 1.919 1.407-.122 5.257 0 0 2.13 1.964-.722 5.258.388.76.492 1.634.292 2.464a3.578 3.578 0 0 1-1.38 2.064"/>
  <path stroke="#D9B2AA" stroke-linecap="round" stroke-linejoin="round" stroke-width=".68" d="M154.45 149.19c-1.919.883-5.82 2.488-5.82 2.488m5.698 2.769c-1.164.761-3.882 2.124-3.882 2.124m3.16 3.134c-.557.322-1.139.6-1.74.831m-9.363-12.817c-1.785.525-3.198 1.056-3.198 1.056"/>
  <path fill="#9067C6" d="M267.857 124.765a37.962 37.962 0 0 1-.429 3.953c-1.656 10.776-7.611 26.26-14.217 35.719a33.15 33.15 0 0 1-4.554 5.379c-5.193 4.778-13.463 5.679-19.238 2.334a12.97 12.97 0 0 1-6.396-9.67 19.658 19.658 0 0 1-.057-5.225c1.106-9.792 7.777-26.574 15.829-38.681a68.625 68.625 0 0 1 2.814-3.978c4.547-5.96 9.363-10.117 13.763-10.565a7.033 7.033 0 0 1 2.712.211c7.291 2.098 10.431 7.803 9.773 20.523Z"/>
  <path fill="#8051BD" d="M254.515 130.643a69.068 69.068 0 0 0-2.622 23.427 98.793 98.793 0 0 0 1.318 10.399 33.15 33.15 0 0 1-4.554 5.379c-5.193 4.778-13.463 5.679-19.238 2.334a12.97 12.97 0 0 1-6.396-9.67c5.117 5.488 10.489 6.671 14.71 5.283 6.127-1.97 9.971-9.254 7.611-16.705-4.151-13.098 5.213-20.588 9.683-22.769-.115.73-.294 1.503-.512 2.322Z"/>
  <path fill="#9067C6" d="M267.857 124.765a37.962 37.962 0 0 1-.429 3.953 17.621 17.621 0 0 1-1.88-3.639c-2.264-6.044-6.345-9.446-10.873-10.924a19.9 19.9 0 0 0-13.06.441c4.548-5.96 9.364-10.117 13.764-10.565a7.027 7.027 0 0 1 2.711.211c7.285 2.098 10.425 7.803 9.767 20.523Z"/>
  <path fill="#4F467B" d="M318.945 231.374c-17.064-2.885-34.095-5.194-50.404-6.748-4.81-.452-9.668-.878-14.576-1.279.921-11.109 2.993-29.343 6.805-33.775a2.403 2.403 0 0 1 1.74-.991c2.162-.039 7.572-.218 14.006-.454 14.282-.538 33.603-1.337 33.603-1.337.275 1.074.55 2.142.818 3.198 0 .044 0 .096.045.147a395.413 395.413 0 0 1 7.963 41.239Z"/>
  <path stroke="#fff" stroke-miterlimit="10" stroke-width=".9" d="M303.269 192.284c2.002 4.477 7.355 9.727 9.165 10.923"/>
  <path fill="#B25E47" d="M285.227 114.379c-8.238 1.004-10.015-5.596-10.067-15.03 0-2.219.077-4.598.199-7.08.066-1.455.222-2.906.466-4.342 2.808-16.072 16.111-14.128 16.795-4.656.263 3.594 2.795 29.867-7.393 31.108Z"/>
  <path fill="#D9B2AA" d="M285.035 89.442c-.441 6.345-5.001 9.594-9.868 9.907 0-2.22.076-4.598.198-7.08.066-1.456.222-2.906.467-4.342 2.68-1.145 9.549-3.601 9.203 1.515Z"/>
  <path fill="#9067C6" d="M316.943 151.94a36.327 36.327 0 0 0-1.03 4.42c-.07.409-.134.818-.198 1.221-2.526 15.74-2.84 30.341-3.012 31.857-.173 1.515-14.269.991-24.758.479-4.087-.204-9.369-.147-14.352-.108-7.802.057-14.869.076-15.464-1.03-.377-.716-1.388-4.906-2.488-10.284-.173-.838-.345-1.695-.524-2.558-.09-.435-.173-.883-.256-1.331-.083-.447-.199-1.029-.295-1.541-.095-.512-.211-1.1-.313-1.657a139.635 139.635 0 0 1-.639-3.703c-.192-1.234-.41-2.443-.595-3.632a97.625 97.625 0 0 1-1.215-10.412 69.08 69.08 0 0 1 2.871-23.402c.058-.198.115-.39.16-.582a19.9 19.9 0 0 0 .25-.991l.115-.518c.038-.173.07-.346.102-.518.032-.173.07-.346.096-.512.025-.166.057-.345.083-.518.058-.333.102-.672.147-.998.09-.818.16-1.624.192-2.411v-1.97a42.177 42.177 0 0 0-.838-7.431c-.806-4.177-1.886-7.317-1.618-8.762.128-.71.864-1.139 2.155-1.324.09 0 .186 0 .269-.032 3.198-.371 9.299.531 17.626 2.251.169-1.869.466-3.723.889-5.551a1.341 1.341 0 0 1 1.324-.966c.908-.083 2.136.25 3.313.358 2.002.186 8.813-1.055 12.318-2.904a6.242 6.242 0 0 1 2.29-.793c1.682-.16 2.264 1.164 2.481 2.974v.493c0 .09 0 .332.039.505.038.173 0 .256.032.39.032.135 0 .352.032.531.031.179 0 .429 0 .64v5.084c6.331-2.398 15.873-4.848 23.107-.403h.038a16.845 16.845 0 0 1 5.667 5.974c.358.605.697 1.245 1.017 1.918 6.101 12.836-4.899 23.754-9.018 37.747Z"/>
  <path fill="#9067C6" d="M325.091 112.249c-6.108.748-12.945 4.714-19.36 12.337a58.407 58.407 0 0 0-2.954 3.838c-10.317 14.435-28.282 10.61-35.176.083a17.476 17.476 0 0 1-1.842-3.652c-2.207-6.07-6.249-9.517-10.758-11.039-.805-4.176-1.886-7.316-1.618-8.762.128-.71.864-1.138 2.156-1.324.089 0 .185 0 .268-.032 3.198-.371 9.299.531 17.627 2.252.168-1.869.465-3.724.889-5.552a1.333 1.333 0 0 1 1.323-.966c.909-.083 2.137.25 3.313.359 2.002.185 8.813-1.056 12.318-2.904a6.242 6.242 0 0 1 2.29-.793c1.682-.16 2.264 1.164 2.481 2.974v.492c0 .09 0 .333.039.506.038.172 0 .255.032.39.032.134 0 .351.032.531.032.179 0 .428 0 .639v5.085c6.331-2.399 15.874-4.848 23.107-.403h.038a16.841 16.841 0 0 1 5.795 5.941Z"/>
  <path stroke="#8051BD" stroke-linecap="round" stroke-linejoin="round" stroke-width=".68" d="M255.603 122.891a30.847 30.847 0 0 1-.538 5.398 33.155 33.155 0 0 1-.55 2.322 69.065 69.065 0 0 0-2.622 23.427 98.793 98.793 0 0 0 1.318 10.399c.198 1.183.415 2.399.639 3.627a353.028 353.028 0 0 0 2.162 10.789c1.158 5.36 2.213 9.542 2.597 10.233"/>
  <path fill="#8051BD" d="M315.862 157.306c-2.36 15.772-2.52 30.367-2.68 31.882-.16 1.516-14.256 1.152-24.744.742-4.087-.16-9.37-.045-14.352.045 4.093-3.409 12.561-9.011 20.683-5.468 11.276 4.918 16.59-10.598 9.709-11.986-6.882-1.387-7.24-9.216-8.583-15.547l5.628-2.284 14.339 2.616Z"/>
  <path stroke="#8051BD" stroke-linecap="round" stroke-linejoin="round" stroke-width=".68" d="M273.024 106.097a31.99 31.99 0 0 0 0 3.664m22.871-3.389c-.09 2.404-.198 3.971-.198 3.971m-17.211-.262c3.096.889 7.854.94 10.578 0"/>
  <path fill="#9067C6" d="M345.442 166.58c-3.198 4.061-11.89 4.841-18.963-.806a22.441 22.441 0 0 1-4.995-5.667c-.781-1.24-1.785-3.121-2.904-5.333-.492-.985-1.017-2.034-1.548-3.122-2.974-6.088-6.395-13.469-8.557-17.69a28.533 28.533 0 0 1-2.417-6.728 31.687 31.687 0 0 1-.525-2.814c-1.631-11.365 2.45-23.299 13.469-18.471h.032c2.194.966 4.528 3.058 6.875 5.801 5.693 6.677 11.41 17.268 15.056 25.231.831 1.81 1.547 3.486 2.136 4.95 4.259 10.591 6.325 19.545 2.341 24.649Z"/>
  <path fill="#8051BD" d="M328.717 148.621c-.249 3.972-4.912 5.609-10.137 6.153-.492-.985-1.017-2.034-1.548-3.121-2.974-6.089-6.395-13.47-8.557-17.691a28.533 28.533 0 0 1-2.417-6.728c4.476.096 9.356 1.733 9.804 9.414.307 5.245 13.418 2.885 12.855 11.973Z"/>
  <path fill="#9067C6" d="M325.909 111.769c-.383 0-.767.064-1.144.116-6.102.805-12.894 4.847-19.232 12.535-1.631-11.365 2.45-23.299 13.469-18.471h.032c2.194.985 4.528 3.077 6.875 5.82Z"/>
  <path stroke="#8051BD" stroke-linecap="round" stroke-linejoin="round" stroke-width=".68" d="M321.484 160.108c-.781-1.241-1.785-3.122-2.904-5.334-.492-.985-1.017-2.034-1.548-3.121-2.974-6.089-6.395-13.47-8.557-17.691a28.533 28.533 0 0 1-2.417-6.728 31.687 31.687 0 0 1-.525-2.814"/>
  <path fill="#8051BD" d="M345.442 166.58c-3.198 4.061-11.89 4.841-18.963-.806a12.052 12.052 0 0 1 5.404-.454c7.201 1.049 14.307-1.919 8.768-10.303-4.477-6.799-1.279-15.35.314-18.017.831 1.81 1.548 3.486 2.136 4.95 4.259 10.572 6.325 19.526 2.341 24.63Z"/>
  <path fill="#683F1D" d="M299.189 59.102c-1.35.959-2.181 1.113-2.149 2.558.032 1.445-.595 1.867-1.228 2.104-.633.237.076 1.311-.122 2.347s-2.859 2.021-2.859 2.021l-17.671-8.314c-1.471-1.79-.831-2.782-.358-3.741a.64.64 0 0 0 0-.582c-.249-.64-1.324-1.248-1.049-1.996.352-.953 1.279-1.113 2.418-1.151 1.138-.038.889-3.198.364-4.055-.524-.857-.121-2.935 1.663-2.814 1.785.122 2.463-.237 2.622-1.074a2.273 2.273 0 0 1 1.251-1.305 2.26 2.26 0 0 1 1.807.026c1.387.722 2.558-.077 3.415-.87.049-.05.102-.095.16-.135.914-.71 2.833-1.1 3.613.135.78 1.234 1.829 1.829 3.499 1.918 1.669.09 2.142 1.51 1.784 2.898-.358 1.387.16 1.867 1.234 2.507a3.535 3.535 0 0 1 1.184 3.837 2.09 2.09 0 0 0-.221 1.321c.072.453.291.87.623 1.186.531.601 1.369 2.226.02 3.179Z"/>
  <path fill="#683F1D" d="M292.454 81.819a10.017 10.017 0 0 1-4.426.8c-6.069-.282-20.888 5.205-20.888 5.205-2.488.307-4.003 1.164-2.878 2.405 1.126 1.24 2.181 4.822-.697 5.117a9.05 9.05 0 0 1-1.701 0c-1.689-.148-2.437-.857-2.226-1.523.269-.85 2.098-.64 2.443-1.01.346-.371.429-1.126-.697-2.181-1.125-1.055-1.918-2.68-.774-4.336 1.145-1.657 3.46-3.166 2.06-4.336-1.401-1.17-2.559-2.22-1.919-3.62.64-1.4 3.889-3.384 2.373-5.117-1.516-1.733-2.878-3.927.077-6.613 2.954-2.686 5.947-2.174 5.519-4.477-.429-2.302-.07-4.515 3.115-3.971 3.185.543 3.658.313 5.059-.467 1.4-.78 3.261-.352 5.058 1.209 1.798 1.56 3.499-.199 5.673.23 2.175.428 0 2.526 2.763 3 2.763.472 3.697.581 4.01 3.197.314 2.616 2.143 2.673 2.52 3.505.787 1.67-.46 2.84-.812 3.837-.352.998.422 1.586 1.036 2.61.979 1.733-1.106 5.014-4.688 6.536Z"/>
  <path fill="#683F1D" d="M293.401 77.144a31.438 31.438 0 0 1-.966 4.675 10.017 10.017 0 0 1-4.426.8c-6.069-.282-20.888 5.205-20.888 5.205-2.488.307-4.004 1.164-2.878 2.405 1.126 1.24 2.181 4.823-.697 5.117a9.05 9.05 0 0 1-1.701 0c2.155-.352 2.731-1.887 1.618-3.92-1.529-2.796-.979-4.478.556-6.058 1.535-1.58-.978-5.391 0-7.386.979-1.996 2.642-2.7 1.976-5.712-.665-3.012-.339-4.477 2.06-6.133 2.398-1.656 4.381-1.996 5.653-3.99 1.273-1.996 4.593-3.263 5.725-.87 1.132 2.391 1.496 4.01 4.675 3.037 3.178-.972 5.308.224 4.176 2.955-1.132 2.73-.595 5.321 1.401 5.654 1.995.332 4.112.435 3.716 4.22Z"/>
  <path fill="#B25E47" d="M291.137 86.283c-11.941 8.685-17.089 11.544-22.801 6.741-2.66-2.232-3.121-6.792-2.596-11.448a40.03 40.03 0 0 1 .895-4.931 33.266 33.266 0 0 1 2.731-7.617c2.558-4.63 8.455-4.861 9.05-4.63.595.23.78.575.204 1.918-.575 1.343.058 2.347 1.714 2.398 1.657.051 3.55 1.203 3.371 2.86a4.136 4.136 0 0 0 2.002 4.112c1.541.972 1.279 2.462 1.483 3.37.205.908 2.117 1.919 2.635.684.519-1.234 3.48-3.94 5.884-1.477 2.405 2.462.282 8.193-4.572 8.02Z"/>
  <path fill="#D9B2AA" d="M276.823 80.073c.576 1.196 2.648 1.388 4.618.435 1.97-.953 3.114-2.693 2.558-3.889-.556-1.196-2.641-1.394-4.618-.434-1.976.959-3.133 2.692-2.558 3.888Zm-8.052 1.042c-.543.761-1.746.902-3.031.46a40.03 40.03 0 0 1 .895-4.93c.108.062.213.13.313.205 1.785 1.279 2.597 3.191 1.823 4.265Z"/>
  <path fill="#683F1D" d="M268.541 75.34a.822.822 0 0 0 .501.761.818.818 0 1 0-.501-.76Zm4.988.435a.818.818 0 1 0 1.637 0 .818.818 0 0 0-1.637 0Z"/>
  <path stroke="#D9B2AA" stroke-linecap="round" stroke-linejoin="round" stroke-width=".68" d="M290.695 82.625c.16-1.759 2.168-4.183 4.336-2.392"/>
  <path stroke="#D9B2AA" stroke-linecap="round" stroke-linejoin="round" stroke-width=".68" d="M290.772 82.19c1.503-2.558 4.528.953 1.004 1.656m-20.901-3.268c-.895-.416-1.247-1.228-1.17-1.426.077-.198 2.878-2.264 2.341-5.443"/>
  <path fill="#683F1D" d="M274.348 69.738c-.256 1.656 3.767 3.274 4.388 2.232.53-.896-4.017-4.644-4.388-2.232Zm-6.754 1.093c.039.474 4.356.378 4.298-1.279-.057-1.656-4.406-.115-4.298 1.28Z"/>
  <path fill="#fff" stroke="#D9B2AA" stroke-linecap="round" stroke-linejoin="round" stroke-width=".68" d="M271.297 82.254a27.87 27.87 0 0 0 4.369-1.548s.447 2.763-1.318 3.268a2.455 2.455 0 0 1-3.051-1.72Z"/>
  <path fill="#683F1D" d="M294.04 52.393c-.639 2.06-3.063-.07-3.255 2.871-.192 2.942-6.063 2.117-7.86-.742-1.471-2.353-5.641-1.47-8.091 1.017-.249-.64-1.324-1.247-1.049-1.995.352-.953 1.279-1.113 2.418-1.151 1.138-.039.889-3.198.364-4.055-.524-.857-.121-2.936 1.663-2.814 1.785.121 2.463-.237 2.622-1.075a2.273 2.273 0 0 1 1.251-1.304 2.26 2.26 0 0 1 1.807.025c1.387.723 2.558-.077 3.415-.87.049-.05.102-.094.16-.134.684 1.919 1.183 4.592 3.837 4.829 3.703.339 3.358 3.332 2.718 5.398Z"/>
  <path fill="#8051BD" d="M217.581 108.968c.332-2.11 6.261-3.684 9.708-4.342l1.318 8.519s-9.479-1.356-11.026-4.177Z"/>
  <path fill="#B25E47" d="M223.094 113.496c-.685-9.222-.685-16.98-.876-19.948-.192-2.967-.045-6.069 3.415-7.495 0 0 0-2.718 3.946-3.198 0 0-.499-2.437 2.801-2.373a1.468 1.468 0 0 1 .551-1.195 1.47 1.47 0 0 1 1.285-.282c2.161.377 2.859 1.701 2.859 1.701 2.865-.64 4.476 2.36 4.323 4.81-.154 2.449-.326 5.116-1.509 7.585-1.184 2.468-2.687 6.555-2.687 6.555l.096 5.181s-2.2 16.66-14.204 8.659Z"/>
  <path stroke="#D9B2AA" stroke-linecap="round" stroke-linejoin="round" stroke-width=".68" d="M222.218 93.548c-.199-2.935-.045-6.069 3.415-7.495 0 0 0-2.718 3.946-3.198 0 0-.499-2.437 2.801-2.373a1.468 1.468 0 0 1 .551-1.195 1.47 1.47 0 0 1 1.285-.282c2.161.377 2.859 1.701 2.859 1.701 2.865-.64 4.476 2.36 4.323 4.81"/>
  <path stroke="#D9B2AA" stroke-linecap="round" stroke-linejoin="round" stroke-width=".68" d="M237.075 80.706c-2.949 1.452-5.117 4.176-4.228 5.513.889 1.337 4.234-.339 4.688-.767"/>
  <path stroke="#D9B2AA" stroke-linecap="round" stroke-linejoin="round" stroke-width=".68" d="M232.131 80.489c1.113.147 3.306 1.381 3.306 1.381m-5.858.985a9.132 9.132 0 0 1 3.716.96m-.506 6.197c.985-.749 1.836-2.066 1.58-3.288m-8.762-.646c2.354-.965 4.746-2.06 5.456-.454s1.1 6.55 0 7.22c-1.1.672-2.942.116-3.256-1.176-.313-1.292-.55-3.063-.55-3.063"/>
  <path stroke="#D9B2AA" stroke-linecap="round" stroke-linejoin="round" stroke-width=".68" d="M230.001 93.126c.991 1.222.64 5.545-.422 6.991"/>
  <path fill="#9067C6" d="M237.759 167.737c-1.919 3.64-4.669 5.622-8.353 4.388-6.939-2.354-9.702-9.012-10.712-15.516-1.062-6.786-.231-13.431-.263-14.812l-.825-32.842c1.203.48 3.025.493 5.232.077a30.295 30.295 0 0 0 4.931-1.42 45.918 45.918 0 0 0 9.51-4.988l.128-.09s.601 7.458 1.414 16.028c.684 7.342 1.528 15.496 2.283 20.466 1.189 8.096.492 21.598-3.345 28.709Z"/>
  <path fill="#8051BD" d="M237.759 167.737c-1.919 3.64-4.669 5.622-8.353 4.388-6.939-2.354-9.702-9.012-10.712-15.516a33.914 33.914 0 0 0 4.349 5.852c5.122 5.507 10.476 6.69 14.716 5.276Z"/>
  <path stroke="#8051BD" stroke-linecap="round" stroke-linejoin="round" stroke-width=".68" d="M237.388 102.554s2.072 25.697 3.697 36.512a65.317 65.317 0 0 1-.64 20.664"/>
  <path fill="#DDD" d="m310.758 133.471-24.674-10.306a3.818 3.818 0 0 0-4.995 2.052l-14.652 35.078a3.82 3.82 0 0 0 2.052 4.995l24.674 10.306a3.818 3.818 0 0 0 4.995-2.052l14.652-35.078a3.818 3.818 0 0 0-2.052-4.995Z"/>
  <path fill="#F9F9F9" stroke="#DDD" stroke-linecap="round" stroke-linejoin="round" stroke-width=".9" d="m307.983 132.306-21.901-9.148a3.82 3.82 0 0 0-4.995 2.052l-14.652 35.078a3.82 3.82 0 0 0 2.052 4.995l21.9 9.148a3.818 3.818 0 0 0 4.995-2.052l14.652-35.078a3.819 3.819 0 0 0-2.051-4.995Z"/>
  <path fill="#DDD" d="M287.536 128.999a1.668 1.668 0 0 1-1.027 1.537 1.67 1.67 0 0 1-1.812-.361 1.664 1.664 0 1 1 2.714-1.813c.083.202.126.419.125.637Zm2.743 1.644a.833.833 0 0 1-1.419.594.826.826 0 0 1-.179-.909.833.833 0 0 1 1.355-.267.832.832 0 0 1 .243.582Z"/>
  <path fill="#8051BD" d="M289.064 158.227c-1.631-.569-2.475-3.722-2.692-6.44l6.395.754s.045 6.095-3.703 5.686Z"/>
  <path fill="#B25E47" d="M291.213 156.622a66.414 66.414 0 0 0-5.628-3.607c-.729-.397-4.867-.864-7.745-2.45a53.707 53.707 0 0 1-5.596-3.639l-1.138 2.117s-2.239-2.418-2.559-4.598c-.319-2.181.563-2.252 1.088-2.719.524-.466.198-1.157.166-2.283-.032-1.125.927-1.356 1.228-1.752.3-.397.032-1.426-.032-2.814-.064-1.388 1.586-1.458 1.848-2.252.262-.793.499-3.344 2.75-2.679s12.05 7.943 12.689 8.276c.952.34 1.927.616 2.916.825 0 0 8.021 12.541.013 17.575Z"/>
  <path stroke="#D9B2AA" stroke-linecap="round" stroke-linejoin="round" stroke-width=".68" d="m272.244 146.926-1.138 2.117s-2.239-2.418-2.559-4.598c-.319-2.181.563-2.252 1.088-2.719.524-.466.198-1.157.166-2.283-.032-1.125.927-1.356 1.228-1.752.3-.397.032-1.426-.032-2.814-.064-1.388 1.586-1.458 1.848-2.252.262-.793.499-3.344 2.75-2.679"/>
  <path stroke="#D9B2AA" stroke-linecap="round" stroke-linejoin="round" stroke-width=".68" d="M272.244 146.926c-1.119-.94-1.35-1.093-1.35-1.093"/>
  <path fill="#9067C6" d="M346.695 164.891c-2.053 6.307-9.708 11.896-27.162 5.296l-.953-.371c-18.144-7.195-29.522-11.595-29.522-11.595a43.865 43.865 0 0 0 0-20.178c10.418 2.916 37.971 8.57 47.756 11.441.64.192 1.279.391 1.848.64 8.212 3.032 10.016 8.66 8.033 14.767Z"/>
  <path stroke="#8051BD" stroke-linecap="round" stroke-linejoin="round" stroke-width=".68" d="M318.58 169.816c-18.144-7.195-29.516-11.589-29.516-11.589m0-20.184c9.453 2.648 33.027 7.547 44.616 10.578"/>
  <path fill="#8051BD" d="M346.695 164.891c-2.053 6.306-9.708 11.896-27.162 5.296 0 0 5.116-5.916 12.35-4.867 7.233 1.049 14.307-1.919 8.768-10.303a13.532 13.532 0 0 1-1.989-4.919c8.212 3.057 10.016 8.686 8.033 14.793Z"/>
  <path fill="#B25E47" d="M411.93 109.736a6.398 6.398 0 0 1-2.82 2.456c-8.116 3.837-26.465-3.467-26.465-3.691 0-.223-3.543-30.302 1.522-41.117.953-2.027 2.206-3.37 3.837-3.697 8.385-.255 15.58 2.59 16.808 8.64 1.228 6.051-2.424 13.022-1.356 17.327 1.068 4.304 5.411 4.393 7.234 5.314 3.3 1.657 6.389 6.217 1.24 14.768Z"/>
  <path fill="#B25E47" d="M409.11 112.192c-8.116 3.837-26.465-3.467-26.465-3.691 0-.223-3.543-30.302 1.522-41.117 13.712.499 15.989 5.558 14.959 12.567-1.093 7.451-6.082 17.665 4.778 25.02 3.274 2.226 4.745 4.758 5.206 7.221Z"/>
  <path stroke="#683F1D" stroke-linecap="round" stroke-linejoin="round" stroke-width=".68" d="M391.714 82.069c2.002 2.244 2.296 5.071 1.471 8.256-.825 3.185-2.104 7.841-.518 12.44m8.244-23.53c-.103 4.266-1.388 7.202-1.753 11.218-.364 4.016 2.117 6.332 5.258 7.566a5.34 5.34 0 0 1 2.884 6.958m-8.596-.498c-3.019-3.505-3.607-6.07-1.803-6.338 1.803-.27 5.353 1.279 4.995 2.833-.359 1.554-2.655.895-2.559.134"/>
  <path fill="#FEBD9D" d="M384.576 124.989c-8.57 4.477-14.806.199-15.611-4.547-.525-3.108-.218-10.271-.039-17.716.09-3.895.154-7.88.039-11.384v-1.605c0-22.155 16.922-17.019 18.297-8.442.87 5.442 2.207 16.283 2.859 22 .653 5.718 3.051 17.217-5.545 21.694Z"/>
  <path fill="#F4A789" d="M368.926 102.726c.09-3.895.154-7.88.039-11.384v-1.605c4.208-.205 10.872-.41 10.872-.41 1.228 8.64-3.696 14.218-10.911 13.399Z"/>
  <path fill="#605595" d="M338.637 201.276c.774 1.183 6.395-3.198 8.007-5.756l-5.711-7.879s-4.516 10.201-2.296 13.635Z"/>
  <path fill="#FEBD9D" d="M352.509 180.139c7.035 10.738 10.297 14.127 10.802 18.598.505 4.471-1.369 15.567-6.338 17.441-4.969 1.874-16.437-5.986-16.872-7.784-.435-1.797 5.008-1.01 7.554.211 0 0-4.861-6.523-4.861-13.833 0-1.874-6.728-5.552-6.728-5.552s5.57-16.724 16.443-9.081Z"/>
  <path fill="#4F467B" d="M437.257 260.947c-21.79-7.752-48.607-15.241-76.952-21.508v-12.702c0-3.435.397-9.242.908-15.529.416-5.193.908-10.712 1.279-15.477.339-4.004.601-7.483.717-9.792l8.64-.089 16.123-.154 32.919-.326 5.34-.051c.607 15.164 5.922 33.155 9.664 46.809 2.686 9.734 1.989 22.283 1.362 28.819Z"/>
  <path stroke="#7F542D" stroke-linecap="round" stroke-linejoin="round" stroke-width=".68" d="M418.754 210.633c-2.168 6.939.141 13.84 4.337 16.104"/>
  <path stroke="#4F467B" stroke-linecap="round" stroke-linejoin="round" stroke-width=".68" d="m338.637 154.69 3.895 6.805 11.588 20.249"/>
  <path fill="#605595" d="M419.65 186.809c-1.663.339-10.937.64-21.496.768-15.989.166-34.92-.16-34.92-1.638 0-2.315 1.011-4.477-1.88-9.548-2.891-5.072-7.675-9.031-8.103-18.26-.429-9.229 1.733-19.5 1.733-19.5l-4.535 4.477-11.812 11.582 3.895 6.805 11.588 20.249s-15.624 6.076-15.483 19.532c0 0-21.406-26.619-27.77-35.732-6.364-9.114.863-19.532 11.135-30.239 5.116-5.346 10.738-12.548 16.353-18.611 5.616-6.063 11.276-10.975 16.488-11.723 2.949-.422 7.035-.787 11.436-1.081.857-.064 1.72-.121 2.596-.173-.237 9.037 2.373 10.707 2.373 10.707 1.279.754 1.413.403 1.528 1.918.116 1.516.819 5.814 2.053 5.814 1.708 0 2.808-2.801 4.253-6.856.953-4.848 6.94-6.741 8.871-9.376a8.47 8.47 0 0 0 1.375-3.159h.71c1.119.275 2.469.588 3.946.889 3.838.78 8.551 1.496 12.376 1.317 5.071-.23 19.922.07 24.341 11.793v.052c.186.499.352 1.023.506 1.567.115.428.217.901.307 1.413 2.622 15.324-7.803 66.169-11.864 67.013Z"/>
  <path fill="#605595" d="M405.324 146.728c-8.698 3.051-11.026 15.062-9.057 19.897 1.97 4.835-4.751 7.201-11.166 7.201-7.387 0-16.168 7.771-12.408 18.886l37.734-17.268-5.103-28.716Zm26.49-26.817c-.089-.045-.192-.077-.281-.115-7.892-3.121-17.134-1.151-23.146 3.837a18.828 18.828 0 0 0-3.914 4.381c-7.195 11.314-30.334 17.492-37.932 2.661-6.153-12.024-15.35-15.791-28.186-13.974 5.628-6.063 11.276-10.975 16.488-11.724 2.949-.422 7.035-.786 11.436-1.08.857-.064 1.72-.122 2.596-.173-.237 9.037 2.373 10.706 2.373 10.706 1.279.755 1.413.403 1.528 1.919.116 1.516.819 5.813 2.053 5.813 1.708 0 2.808-2.801 4.253-6.856.953-4.848 6.94-6.741 8.871-9.376a8.47 8.47 0 0 0 1.375-3.159h.71c1.119.275 2.469.588 3.946.889 3.838.78 8.551 1.497 12.376 1.317 5.071-.23 19.922.071 24.341 11.794v.051a24.05 24.05 0 0 1 1.113 3.089Z"/>
  <path fill="#4F467B" d="M376.927 126.422a1.338 1.338 0 1 0-.001-2.675 1.338 1.338 0 0 0 .001 2.675Z"/>
  <path stroke="#4F467B" stroke-linecap="round" stroke-linejoin="round" stroke-width=".68" d="M374.094 124.458c.396 3.595-.716 9.939-1.567 16.354-.851 6.415-2.878 15.241 0 24.303 2.878 9.063 3.524 11.845 3.601 12.951.128 1.964-1.369 4.209 2.353 5.756"/>
  <path fill="#4F467B" d="M371.248 114.424c-3.556-.845-6.089 3.492-7.445 7.156-.134-10.591 1.145-15.458 2.476-17.69 1.33-2.232 2.666-1.81 2.666-1.81a39.75 39.75 0 0 0-.07 1.637c-.237 9.018 2.373 10.707 2.373 10.707Zm22.775-6.601c-.947 6.032-4.727 14.346-4.727 14.346s-3.006-3.403-5.116-5.974c-2.111-2.571-3.332-2.149-5.117-.882.953-4.848 6.94-6.741 8.871-9.376a8.507 8.507 0 0 0 1.375-3.16c.251-1.072.363-2.173.333-3.274a5.235 5.235 0 0 1 4.323 4.151c.284 1.373.304 2.789.058 4.169Z"/>
  <path stroke="#4F467B" stroke-linecap="round" stroke-linejoin="round" stroke-width=".68" d="M335.765 192.284c.704-3.799 5.545-10.438 13.226-13.93m-20.274-32.253a6.481 6.481 0 0 1 3.166 1.043c1.919 1.119 4.266 3.338 6.754 7.546m16.347-16.059 1.145-4.899"/>
  <path fill="#605595" d="m350.449 143.089-11.812 11.601c-2.488-4.208-4.861-6.427-6.754-7.546 3.063-1.375 4.573-.122 6.057.972 3.671 2.724 7.131-8.059 12.509-5.027Zm81.915 17.421c-1.375 11.436-3.556 22.443-5.807 30.002-4.343 14.557-15.247 15.388-22.289 10.745-4.08-2.699-6.869-7.234-6.319-12.011.052-.473.122-1.03.205-1.669 1.279-9.798 5.558-38.553 8.135-54.9a57.866 57.866 0 0 1 2.098-9.069c3.351-10.233 8.954-13.399 15.848-12.689 2.853.294 4.963 2.417 6.466 5.826v.051c.434 1.006.8 2.041 1.094 3.096 2.776 9.619 2.379 25.461.569 40.618Z"/>
  <path fill="#605595" d="M432.364 160.51c-1.375 11.436-3.556 22.443-5.807 30.002-4.343 14.557-15.247 15.388-22.289 10.745a9.75 9.75 0 0 1 4.765-2.52c7.95-1.497 12.689-7.592 11.512-20.383-.921-9.708 7.63-15.573 11.819-17.844Zm-.55-40.599c-.089-.045-.192-.077-.281-.115-7.892-3.121-17.134-1.151-23.146 3.837 3.351-10.233 8.954-13.398 15.848-12.688 2.853.294 4.963 2.417 6.466 5.826v.051a24.05 24.05 0 0 1 1.113 3.089Z"/>
  <path stroke="#4F467B" stroke-linecap="round" stroke-linejoin="round" stroke-width=".68" d="M400.073 173.826c1.855-12.791 4.477-29.899 6.216-41.149a57.866 57.866 0 0 1 2.098-9.069 28.25 28.25 0 0 1 2.917-6.396"/>
  <path fill="#605595" d="M345.921 226.731c-3.364.639-6.773-4.381-7.898-7.471-1.126-3.089 7.86-4.476 7.86-4.476s2.923 9.548.038 11.947Z"/>
  <path fill="#FEBD9D" d="M337.601 204.32c-6.575 2.194-21.988 9.856-22.814 10.495-.825.64-3.28 6.243-3.37 7.087-.09.844-1.094 9.593.544 10.156 1.637.563 2.462-3.07 2.826-5.321.348-1.673.9-3.297 1.644-4.835 0 0-.998 3.537.461 4.835.844.755 2.731 0 2.731 0s.46 2.309 3.472 1.215c0 0-.179 2.45 1.804 2.929 1.983.48 3.837-1.733 4.624-3.038.281-.441-.429-1.733-1.35-1.733 0 0 .819-.531 3.281-.531 2.463 0 5.398.141 7.279-2.705 1.88-2.846 4.003-4.202 5.756-4.656l-6.888-13.898Z"/>
  <path stroke="#F4A789" stroke-linecap="round" stroke-linejoin="round" stroke-width=".68" d="M311.417 221.902c-.096.85-1.094 9.593.544 10.156 1.637.563 2.462-3.07 2.827-5.321a20.808 20.808 0 0 1 1.643-4.835s-.998 3.537.461 4.835c.844.755 2.731 0 2.731 0s.46 2.309 3.472 1.215c0 0-.179 2.45 1.804 2.929 1.983.48 3.837-1.733 4.624-3.038.281-.441-.429-1.733-1.35-1.733"/>
  <path stroke="#F4A789" stroke-linecap="round" stroke-linejoin="round" stroke-width=".68" d="M328.538 226.174a3.556 3.556 0 0 0-1.497.102"/>
  <path stroke="#F4A789" stroke-linecap="round" stroke-linejoin="round" stroke-width=".68" d="M327.508 224.658c-.492 1.279-1.106 3.237-.863 3.799m-3.543-.025a14.396 14.396 0 0 1 1.918-7.426m-5.397 5.731c-.48-1.919.997-6.799 2.18-8.218m-5.378 3.383c.185-1.279.447-4.778 2.36-6.396"/>
  <path fill="#605595" d="M416.881 202.913c-2.847 1.497-9.671 4.068-18.023 6.984-21.406 7.464-52.854 17.179-52.937 16.834-.115-.48-2.878-13.079-12.356-21.477 0 0 43.976-21.016 58.066-27.597 8.461-3.952 21.406-10.668 28.377-4.279.256.231.499.474.729.723 7.515 7.912 5.961 23.638-3.856 28.812Z"/>
  <path fill="#605595" d="M416.88 202.913c-2.846 1.497-9.67 4.068-18.022 6.984 1.477-3.837 4.694-10.13 10.175-11.16 7.95-1.497 12.689-7.592 11.512-20.383a14.766 14.766 0 0 1 .211-4.253c7.496 7.911 5.942 23.638-3.876 28.812Z"/>
  <path stroke="#4F467B" stroke-linecap="round" stroke-linejoin="round" stroke-width=".68" d="M333.565 205.254s43.976-21.016 58.066-27.597c4.042-1.887 9.107-4.406 14.07-5.826m-62.907 31.939c5.315 6.517 9.715 18.132 9.715 18.132"/>
  <path fill="#9067C6" d="M390.684 63.758c3.985 1.919 7.278 10.303.224 15.477-7.054 5.174-3.837-7.182-3.665-7.419.173-.236.397-7.77 3.441-8.058Z"/>
  <path fill="#B25E47" d="M390.934 74.42a4.915 4.915 0 0 1-1.216 1.502s-7.585 5.213-12.311 2.43c-4.727-2.782-10.515-9.382-10.515-9.382-2.129-1.586-3.293-2.827-3.715-4.215a4.815 4.815 0 0 1-.109-2.2c.39-2.468 3.012-7.994 11.359-5.947 0 0 1.464-1.855 4.476-.736 3.013 1.12 5.635 4.407 5.635 4.407s2.936-1.043 6.14 3.479c2.526 3.568 1.675 8.167.256 10.661Z"/>
  <path fill="#B25E47" d="M390.934 74.42a4.916 4.916 0 0 1-1.216 1.502s-7.585 5.213-12.311 2.43c-4.726-2.782-10.515-9.382-10.515-9.382-2.129-1.586-3.293-2.827-3.715-4.215.383-4.022 2.238-6.9 6.146-5.698 5.538 1.708 8.212 4.771 13.725 3.294 0 0 1.394 10.885 7.886 12.068Z"/>
  <path stroke="#683F1D" stroke-linecap="round" stroke-linejoin="round" stroke-width=".68" d="M365.92 61.238c.998-1.087 3.038-1.042 6.07 2.11m.646-7.079a16.631 16.631 0 0 1 6.325 2.788m5.583 1.234a9.65 9.65 0 0 1 1.279 2.073"/>
  <path fill="#FEBD9D" d="M386.137 83.757c-6.735 9.478-15.433 14.646-20.684 10.233-3.875-3.243-3.901-9.696-2.986-14.895a37.56 37.56 0 0 1 1.068-4.477c.038-.128.083-.25.121-.371 1.644-5.117 4.074-12.792 7.988-11.2 0 0 3.058 2.738 8.852 1.561 0 0-2.974 10.873 3.761 12.152 0 0 2.974-3.837 6.395-1.797 3.422 2.04 3.46 8.71-4.515 8.794Z"/>
  <path fill="#683F1D" d="M372.143 72.513a.823.823 0 0 0 .501.761.82.82 0 0 0 1.075-1.066.82.82 0 0 0-1.576.305Zm-5.602 0a.815.815 0 0 0 .974.81.82.82 0 1 0-.974-.81Z"/>
  <path stroke="#F4A789" stroke-linecap="round" stroke-linejoin="round" stroke-width=".68" d="M384.218 76.786a5.112 5.112 0 0 0-1.202 2.45m2.098.344c1.419-3.197 4.476-3.39 6.235-1.963"/>
  <path stroke="#F4A789" stroke-linecap="round" stroke-linejoin="round" stroke-width=".68" d="M385.836 78.353c2.718-1.81 4.311 2.942.755 2.942"/>
  <path fill="#B25E47" d="M364.859 68.945c.211.678 4.579.287 4.477-1.241-.167-2.053-4.874-.045-4.477 1.24Zm7.751-1.35c-.141 1.375 4.081 2.558 4.477 1.836.397-.723-4.215-4.445-4.477-1.836Z"/>
  <path stroke="#F4A789" stroke-linecap="round" stroke-linejoin="round" stroke-width=".68" d="M367.199 77.041c-.127-1.279.55-2.718 1.471-3.044.921-.326 2.348-1.215 2.028-4.534"/>
  <path fill="#fff" stroke="#F4A789" stroke-linecap="round" stroke-linejoin="round" stroke-width=".68" d="M368.178 79.58c1.637 0 4.189-1.24 4.598-1.745 0 0 .192 3.933-2.033 4.214-1.874.243-2.565-2.469-2.565-2.469Z"/>
  <path fill="#fff" d="M386.693 85.938a2.552 2.552 0 1 0 0-5.103 2.552 2.552 0 0 0 0 5.103Z"/>
  <path fill="#F4A789" d="M381.18 75.692c.467 1.151-.595 2.673-2.385 3.402-1.791.73-3.614.39-4.087-.76-.473-1.152.595-2.68 2.385-3.41 1.791-.729 3.614-.383 4.087.768Zm-15.464 2.814c-.512.883-1.861 1.106-3.262.64a37.57 37.57 0 0 1 1.068-4.477l.294.16c1.676.946 2.526 2.603 1.9 3.677Z"/>
  <path fill="#F9F9F9" stroke="#DDD" stroke-linecap="round" stroke-linejoin="round" stroke-width=".9" d="m280.769 244.741 32.285-7.419 28.448 9.734-27.764 9.484-32.969-11.799Z"/>
  <path fill="#F3752B" stroke="#DDD" stroke-miterlimit="10" stroke-width=".9" d="M299.464 238.684v6.056c0 2.015 5.18 3.646 11.576 3.646 6.395 0 11.582-1.631 11.582-3.646v-6.056h-23.158Z"/>
  <path fill="#F3752B" d="M311.04 242.042c-6.754 0-11.289-1.734-11.289-3.358s4.535-3.358 11.289-3.358c6.753 0 11.288 1.74 11.288 3.358s-4.535 3.358-11.288 3.358Z"/>
  <path fill="#F3752B" d="M311.04 235.614c6.817 0 11 1.791 11 3.07s-4.183 3.07-11 3.07c-6.818 0-11.001-1.791-11.001-3.07s4.183-3.07 11.001-3.07Zm0-.576c-6.396 0-11.576 1.631-11.576 3.646 0 2.015 5.18 3.645 11.576 3.645 6.395 0 11.582-1.63 11.582-3.645s-5.187-3.646-11.582-3.646Z"/>
  <path fill="#DDD" d="M289.774 244.92c0 .396.685.722 1.529.722.844 0 1.528-.326 1.528-.722 0-.397-.684-.723-1.528-.723s-1.529.326-1.529.723Zm22.724 8.34c0 .396.684.722 1.528.722.845 0 1.523-.326 1.523-.722 0-.397-.685-.723-1.523-.723-.837 0-1.528.326-1.528.723Zm19.052-6.332c0 .396.685.723 1.529.723.844 0 1.528-.327 1.528-.723 0-.397-.684-.723-1.528-.723s-1.529.326-1.529.723Z"/>
  <path stroke="#DDD" stroke-linecap="round" stroke-linejoin="round" stroke-width="1.81" d="M1 218.218c22.967-.716 48.089-1.158 74.31-1.234 23.587-.064 48.07.179 72.642.812 5.146.128 10.299.277 15.458.448 30.782 1.004 61.487 2.641 90.581 5.084 4.907.401 9.766.827 14.575 1.279 16.309 1.554 33.341 3.838 50.404 6.748a825.417 825.417 0 0 1 41.361 8.064c28.364 6.268 55.162 13.757 76.951 21.509 22.538 8.026 39.717 16.347 47.718 23.932"/>
  <path fill="#F9F9F9" stroke="#DDD" stroke-linecap="round" stroke-linejoin="round" stroke-width=".9" d="M282.656 252.16c-10.329 5.346-70.953 21.105-70.953 21.105l-5.551-5.494-35.432-35.041s33.814-6.792 40.12-6.031c5.27.639 52.552 13.245 67.659 20.785 2.955 1.51 4.918 4.285 4.157 4.676Z"/>
  <path fill="#F9F9F9" stroke="#DDD" stroke-linecap="round" stroke-linejoin="round" stroke-width=".9" d="M172.255 238.172c25.18-4.259 35.099-7.035 38.655-6.063 3.556.972 51.606 14.608 50.8 14.819-22.557 5.909-62.766 15.317-62.766 15.317l-26.689-24.073Z"/>
  <path fill="#F9F9F9" d="M282.656 252.159c-10.329 5.347-70.953 21.106-70.953 21.106l-5.551-5.494 72.347-20.248c2.955 1.471 4.918 4.246 4.157 4.636Z"/>
  <path fill="#F3752B" stroke="#DDD" stroke-linecap="round" stroke-linejoin="round" stroke-width="1.81" d="M135.679 214.796c-6.281-11.665-2.507-30.814 8.071-32.246 10.578-1.433 24.604 12.254 30.059 5.462 5.923-7.4 1.107-43.107 1.151-49.56l26.536-2.692s-5.059 48.51 1.874 54.157c4.061 3.307 8.813 2.847 11.659-3.127 2.558-5.423 6.172-9.792 12.65-4.765 0 0 3.633-8.448 17.703-5.116 14.071 3.332 5.935 19.558 2.661 21.745 0 0 6.396 5.647 4.368 12.791-2.027 7.144-12.343 10.425-12.343 10.425s4.278 9.753-4.279 12.861c-8.557 3.109-14.109 2.015-19.73 0-5.622-2.014-15.35-7.035-20.825.672-5.474 7.707-43.483 9.267-59.555-20.607Z"/>
  <path fill="#956EC8" stroke="#F8EFE7" stroke-linecap="round" stroke-linejoin="round" d="M172.255 151.678c-5.206 1.478-7.847 7.035-9.229 12.542-1.381 5.507-.831 6.428-2.366 5.078-1.644-1.445-5.206-11.723-3.294-27.405 1.42-11.646 6.658-17.025 9.677-19.187a160.409 160.409 0 0 0 5.174 28.467c.022.168.035.336.038.505Zm42.998 17.62c-1.535 1.35-1.004.416-2.373-5.078-1.369-5.494-4.017-11.064-9.223-12.542.002-.166.013-.333.032-.499a159.327 159.327 0 0 0 5.181-28.486c3.019 2.181 8.257 7.56 9.676 19.187 1.906 15.695-1.643 25.973-3.293 27.418Z"/>
  <path fill="#9B76CB" stroke="#F8EFE7" stroke-linecap="round" stroke-linejoin="round" d="M208.87 122.687a159.343 159.343 0 0 1-5.181 28.486c-.243.831-.479 1.65-.729 2.443h-30.014a89.708 89.708 0 0 1-.729-2.462 160.425 160.425 0 0 1-5.174-28.467c-1.382-14.71-1.088-31.147 2.123-46.912.416-2.027.863-3.972 1.343-5.82 6.229-24.15 17.447-34.063 17.447-34.063s11.225 9.913 17.447 34.063c.48 1.849.934 3.793 1.344 5.82 3.21 15.765 3.511 32.176 2.123 46.912Z"/>
  <path fill="#956EC8" stroke="#DDD" stroke-miterlimit="10" stroke-width=".9" d="M205.403 69.955h-34.894c6.229-24.15 17.447-34.063 17.447-34.063s11.225 9.913 17.447 34.063Z"/>
  <path fill="#DDD" stroke="#F9F9F9" stroke-linecap="round" stroke-linejoin="round" stroke-width="1.81" d="M196.296 99.1a11.776 11.776 0 0 1-8.34 3.465 11.776 11.776 0 0 1-8.34-3.465 11.826 11.826 0 0 1 0-16.673 11.768 11.768 0 0 1 16.68 0 11.644 11.644 0 0 1 1.842 2.385 11.806 11.806 0 0 1-1.842 14.288Z"/>
  <path fill="#F9F9F9" d="m198.138 84.812-16.136 16.136a11.88 11.88 0 0 1-2.386-1.848 11.704 11.704 0 0 1-1.835-2.392l16.13-16.13c.87.513 1.672 1.134 2.385 1.849a11.644 11.644 0 0 1 1.842 2.385Z"/>
  <path fill="#956EC8" stroke="#F8EFE7" stroke-miterlimit="10" d="M187.956 120.18c-5.039 6.69-7.674 40.529 0 49.668 7.688-9.146 5.034-42.978 0-49.668Z"/>
  <path stroke="#DDD" stroke-linecap="round" stroke-linejoin="round" stroke-width="1.81" d="M196.296 99.1a11.776 11.776 0 0 1-8.34 3.465 11.776 11.776 0 0 1-8.34-3.465 11.826 11.826 0 0 1 0-16.673 11.768 11.768 0 0 1 16.68 0 11.644 11.644 0 0 1 1.842 2.385 11.806 11.806 0 0 1-1.842 14.288v0Z"/>
  <path stroke="#F8EFE7" stroke-linecap="round" stroke-linejoin="round" d="M248.043 198.66a37.766 37.766 0 0 1-4.017 2.616m-6.862 1.932c-3.338-3.397-11.467-1.881-12.753 5.941-1.285 7.822 5.577 14.652 15.657 12.753m-56.256-50.046c1.279 9.056.767 24.783.691 25.781m16.161 13.041c-4.988-5.219-7.367-8.596-7.367-30.763"/>
  <path fill="#DDD" d="m109.591 174.651 71.445 27.987 34.594 68.983-76.894-33.909-33.072-61.379 3.927-1.682Z"/>
  <path fill="#F9F9F9" stroke="#DDD" stroke-linecap="round" stroke-linejoin="round" stroke-width=".9" d="m105.664 176.333 71.445 27.987 34.594 68.983-76.888-33.909-29.151-63.061Z"/>
</svg>
