<svg width="433" height="90" viewBox="0 0 433 90" fill="none" xmlns="http://www.w3.org/2000/svg">
<path d="M0.981272 14.4062L1.96351 14.7725L1.96987 14.7705L1.99203 14.7634L2.08263 14.7345C2.16337 14.7088 2.28451 14.6704 2.44427 14.6201C2.7638 14.5195 3.2378 14.3715 3.85216 14.1828C5.08097 13.8053 6.87078 13.2653 9.10875 12.6169C13.5863 11.3196 19.8498 9.59087 26.9979 7.86316C34.1503 6.1344 42.1612 4.41331 50.1354 3.12606C58.1309 1.83536 65.9736 1.00001 72.8208 1.00001C86.4579 1.00001 96.8445 4.30859 107.759 7.81949L107.973 7.88857C118.609 11.3103 129.787 14.9062 144.66 14.9062C159.534 14.9062 170.712 11.3103 181.348 7.88857L181.562 7.81949C192.476 4.30859 202.863 1.00001 216.5 1.00001C230.137 1.00001 240.524 4.30859 251.438 7.81949L251.652 7.88859C262.288 11.3103 273.466 14.9062 288.34 14.9062C303.213 14.9062 314.391 11.3103 325.027 7.88859L325.241 7.81949C336.155 4.30859 346.542 1.00001 360.179 1.00001C367.026 1.00001 374.869 1.83536 382.865 3.12606C390.839 4.41331 398.85 6.1344 406.002 7.86316C413.15 9.59087 419.414 11.3196 423.891 12.6169C426.129 13.2653 427.919 13.8053 429.148 14.1828C429.762 14.3715 430.236 14.5195 430.556 14.6201C430.716 14.6704 430.837 14.7088 430.917 14.7345L431.008 14.7634L431.035 14.7722L432.019 14.4062L432.909 14.0738C433 14.0397 433 14.0395 433 14.0395L432.992 14.0368L432.967 14.0288L432.87 13.9981C432.786 13.9712 432.661 13.9315 432.497 13.8799C432.169 13.7768 431.686 13.6261 431.063 13.4345C429.816 13.0515 428.005 12.5051 425.743 11.8498C421.221 10.5397 414.889 8.79187 407.654 7.04303C400.423 5.29524 392.262 3.53979 384.084 2.21963C375.927 0.902919 367.637 0 360.179 0C345.306 0 334.128 3.59594 323.492 7.01763L323.277 7.0867C312.363 10.5976 301.977 13.9062 288.34 13.9062C274.702 13.9062 264.316 10.5976 253.402 7.0867L253.187 7.01763C242.551 3.59594 231.374 0 216.5 0C201.626 0 190.449 3.59594 179.813 7.01763L179.598 7.0867C168.684 10.5976 158.297 13.9062 144.66 13.9062C131.023 13.9062 120.637 10.5976 109.723 7.0867L109.508 7.01762C98.872 3.59593 87.6944 0 72.8208 0C65.3627 0 57.0728 0.902919 48.9162 2.21963C40.7381 3.53979 32.5774 5.29524 25.3462 7.04303C18.1107 8.79187 11.7789 10.5397 7.25691 11.8498C4.99512 12.5051 3.18416 13.0515 1.93712 13.4345C1.31357 13.6261 0.830881 13.7768 0.503208 13.8799C0.339367 13.9315 0.214269 13.9712 0.12968 13.9981L0.0333934 14.0288L0.00184617 14.0389C0.00184617 14.0389 -0.000813382 14.0398 0.981272 14.4062Z" fill="white"/>
<path d="M0.981272 39.4378L1.96351 39.8041L1.96987 39.8021L1.99203 39.795L2.08263 39.7661C2.16337 39.7404 2.28451 39.702 2.44427 39.6517C2.7638 39.5511 3.2378 39.4031 3.85216 39.2144C5.08097 38.8369 6.87078 38.2969 9.10875 37.6485C13.5863 36.3512 19.8498 34.6225 26.9979 32.8948C34.1503 31.166 42.1612 29.4449 50.1354 28.1577C58.1309 26.867 65.9736 26.0316 72.8208 26.0316C86.4579 26.0316 96.8445 29.3402 107.759 32.8511L107.973 32.9202C118.609 36.3419 129.787 39.9378 144.66 39.9378C159.534 39.9378 170.712 36.3419 181.348 32.9202L181.562 32.8511C192.476 29.3402 202.863 26.0316 216.5 26.0316C230.137 26.0316 240.524 29.3402 251.438 32.8511L251.652 32.9202C262.288 36.3419 273.466 39.9378 288.34 39.9378C303.213 39.9378 314.391 36.3419 325.027 32.9202L325.241 32.8511C336.155 29.3402 346.542 26.0316 360.179 26.0316C367.026 26.0316 374.869 26.867 382.865 28.1577C390.839 29.4449 398.85 31.166 406.002 32.8948C413.15 34.6225 419.414 36.3512 423.891 37.6485C426.129 38.2969 427.919 38.8369 429.148 39.2144C429.762 39.4031 430.236 39.5511 430.556 39.6517C430.716 39.702 430.837 39.7404 430.917 39.7661L431.008 39.795L431.035 39.8038L432.019 39.4378C433.001 39.0714 433 39.0711 433 39.0711L432.992 39.0684L432.967 39.0604L432.87 39.0297C432.786 39.0028 432.661 38.9631 432.497 38.9115C432.169 38.8084 431.686 38.6577 431.063 38.4661C429.816 38.0831 428.005 37.5367 425.743 36.8814C421.221 35.5712 414.889 33.8235 407.654 32.0746C400.423 30.3268 392.262 28.5714 384.084 27.2512C375.927 25.9345 367.637 25.0316 360.179 25.0316C345.306 25.0316 334.128 28.6275 323.492 32.0492L323.277 32.1183C312.363 35.6292 301.977 38.9378 288.34 38.9378C274.702 38.9378 264.316 35.6292 253.402 32.1183L253.187 32.0492C242.551 28.6275 231.374 25.0316 216.5 25.0316C201.626 25.0316 190.449 28.6275 179.813 32.0492L179.598 32.1183C168.684 35.6292 158.297 38.9378 144.66 38.9378C131.023 38.9378 120.637 35.6292 109.723 32.1183L109.508 32.0492C98.872 28.6275 87.6944 25.0316 72.8208 25.0316C65.3627 25.0316 57.0728 25.9345 48.9162 27.2512C40.7381 28.5714 32.5774 30.3268 25.3462 32.0746C18.1107 33.8235 11.7789 35.5712 7.25691 36.8814C4.99512 37.5367 3.18416 38.0831 1.93712 38.4661C1.31357 38.6577 0.830881 38.8084 0.503208 38.9115C0.339367 38.9631 0.214269 39.0028 0.12968 39.0297L0.0333934 39.0604L0.00844751 39.0684L0.00184617 39.0705C0.00184617 39.0705 -0.000813382 39.0714 0.981272 39.4378Z" fill="white"/>
<path d="M1.96351 64.8355L0.981272 64.4692C-0.000813382 64.1028 2.23173e-05 64.1025 2.23173e-05 64.1025L0.00844751 64.0998L0.0333934 64.0918L0.12968 64.0611C0.214269 64.0342 0.339367 63.9945 0.503208 63.9429C0.830881 63.8398 1.31357 63.6891 1.93712 63.4975C3.18416 63.1145 4.99512 62.5681 7.25691 61.9128C11.7789 60.6027 18.1107 58.8549 25.3462 57.106C32.5774 55.3583 40.7381 53.6028 48.9162 52.2826C57.0728 50.9659 65.3627 50.063 72.8208 50.063C87.6944 50.063 98.872 53.6589 109.508 57.0806L109.723 57.1497C120.637 60.6606 131.023 63.9692 144.66 63.9692C158.297 63.9692 168.684 60.6606 179.598 57.1497L179.813 57.0806C190.449 53.6589 201.626 50.063 216.5 50.063C231.374 50.063 242.551 53.6589 253.187 57.0806L253.402 57.1497C264.316 60.6606 274.702 63.9692 288.34 63.9692C301.977 63.9692 312.363 60.6606 323.277 57.1497L323.492 57.0806C334.128 53.6589 345.306 50.063 360.179 50.063C367.637 50.063 375.927 50.9659 384.084 52.2826C392.262 53.6028 400.423 55.3583 407.654 57.106C414.889 58.8549 421.221 60.6027 425.743 61.9128C428.005 62.5681 429.816 63.1145 431.063 63.4975C431.686 63.6891 432.169 63.8398 432.497 63.9429C432.661 63.9945 432.786 64.0342 432.87 64.0611L432.967 64.0918L432.998 64.1019C432.998 64.1019 433.001 64.1028 432.019 64.4692L431.037 64.8355L431.03 64.8335L431.008 64.8264L430.917 64.7975L430.858 64.7787L430.741 64.7415C430.687 64.7243 430.625 64.7048 430.556 64.6831C430.236 64.5825 429.762 64.4345 429.148 64.2458C427.919 63.8683 426.129 63.3283 423.891 62.6799C419.414 61.3826 413.15 59.6539 406.002 57.9262C398.85 56.1974 390.839 54.4763 382.865 53.1891C374.869 51.8984 367.026 51.063 360.179 51.063C346.542 51.063 336.155 54.3716 325.241 57.8825L325.027 57.9516C314.391 61.3733 303.213 64.9692 288.34 64.9692C273.466 64.9692 262.288 61.3733 251.652 57.9516L251.438 57.8825C240.524 54.3716 230.137 51.063 216.5 51.063C202.863 51.063 192.476 54.3716 181.562 57.8825L181.348 57.9516C170.712 61.3733 159.534 64.9692 144.66 64.9692C129.787 64.9692 118.609 61.3733 107.973 57.9516L107.759 57.8825C96.8445 54.3716 86.4579 51.063 72.8208 51.063C65.9736 51.063 58.1309 51.8984 50.1354 53.1891C42.1612 54.4763 34.1503 56.1974 26.9979 57.9262C19.8498 59.6539 13.5863 61.3826 9.10875 62.6799C6.87078 63.3283 5.08097 63.8683 3.85216 64.2458C3.2378 64.4345 2.7638 64.5825 2.44427 64.6831C2.28451 64.7334 2.16337 64.7718 2.08263 64.7975L1.99203 64.8264L1.96351 64.8355Z" fill="white"/>
<path d="M0.981272 89.5L1.96351 89.8664L1.99203 89.8572L2.08263 89.8283C2.16337 89.8026 2.28451 89.7642 2.44427 89.7139C2.7638 89.6133 3.2378 89.4653 3.85216 89.2766C5.08097 88.8991 6.87078 88.3591 9.10875 87.7107C13.5863 86.4134 19.8498 84.6847 26.9979 82.957C34.1503 81.2282 42.1612 79.5071 50.1354 78.2199C58.1309 76.9292 65.9736 76.0938 72.8208 76.0938C86.4579 76.0938 96.8445 79.4024 107.759 82.9133L107.973 82.9824C118.609 86.4041 129.787 90 144.66 90C159.534 90 170.712 86.4041 181.348 82.9824L181.562 82.9133C192.476 79.4024 202.863 76.0938 216.5 76.0938C230.137 76.0938 240.524 79.4024 251.438 82.9133L251.652 82.9824C262.288 86.4041 273.466 90 288.34 90C303.213 90 314.391 86.4041 325.027 82.9824L325.241 82.9133C336.155 79.4024 346.542 76.0938 360.179 76.0938C367.026 76.0938 374.869 76.9292 382.865 78.2199C390.839 79.5071 398.85 81.2282 406.002 82.957C413.15 84.6847 419.414 86.4134 423.891 87.7107C426.129 88.3591 427.919 88.8991 429.148 89.2766C429.762 89.4653 430.236 89.6133 430.556 89.7139C430.716 89.7642 430.837 89.8026 430.917 89.8283L431.008 89.8572L431.03 89.8643L431.035 89.866L432.019 89.5C433.001 89.1336 433 89.1333 433 89.1333L432.992 89.1306L432.967 89.1226L432.87 89.0919C432.786 89.065 432.661 89.0253 432.497 88.9738C432.169 88.8706 431.686 88.7199 431.063 88.5284C429.816 88.1453 428.005 87.5989 425.743 86.9436C421.221 85.6335 414.889 83.8857 407.654 82.1368C400.423 80.3891 392.262 78.6336 384.084 77.3134C375.927 75.9967 367.637 75.0938 360.179 75.0938C345.306 75.0938 334.128 78.6898 323.492 82.1114L323.277 82.1805C312.363 85.6914 301.977 89 288.34 89C274.702 89 264.316 85.6914 253.402 82.1805L253.187 82.1114C242.551 78.6898 231.374 75.0938 216.5 75.0938C201.626 75.0938 190.449 78.6898 179.813 82.1114L179.598 82.1805C168.684 85.6914 158.297 89 144.66 89C131.023 89 120.637 85.6914 109.723 82.1805L109.508 82.1114C98.872 78.6897 87.6944 75.0938 72.8208 75.0938C65.3627 75.0938 57.0728 75.9967 48.9162 77.3134C40.7381 78.6336 32.5774 80.3891 25.3462 82.1368C18.1107 83.8857 11.7789 85.6335 7.25691 86.9436C4.99512 87.5989 3.18416 88.1453 1.93712 88.5284C1.31357 88.7199 0.830881 88.8706 0.503208 88.9738C0.339367 89.0253 0.214269 89.065 0.12968 89.0919L0.0333934 89.1226L0.00844751 89.1306L0.00184617 89.1327C0.00184617 89.1327 -0.000813382 89.1336 0.981272 89.5Z" fill="white"/>
</svg>
